<!-- Generated by IcoMoon.io -->
<svg version="1.1" xmlns="http://www.w3.org/2000/svg" width="33" height="32" viewBox="0 0 33 32">
<title>blocked</title>
<path d="M16.517 31.115c-3.6 0.004-7.090-1.241-9.875-3.522s-4.693-5.457-5.398-8.988c-0.705-3.53-0.165-7.196 1.53-10.372s4.438-5.666 7.764-7.046c3.325-1.38 7.026-1.563 10.471-0.52s6.422 3.249 8.423 6.242 2.902 6.587 2.55 10.169c-0.352 3.583-1.936 6.932-4.481 9.478-2.912 2.915-6.863 4.555-10.984 4.557zM16.517 1.977c-3.15-0.003-6.204 1.086-8.641 3.082s-4.106 4.776-4.723 7.865c-0.617 3.089-0.144 6.297 1.34 9.076s3.884 4.958 6.794 6.165c2.91 1.207 6.148 1.367 9.163 0.454s5.62-2.844 7.37-5.463c1.751-2.619 2.539-5.764 2.231-8.899s-1.695-6.066-3.922-8.293c-2.549-2.55-6.005-3.984-9.611-3.987z"></path>
<path d="M6.223 26.841c-0.192 0.001-0.381-0.056-0.541-0.163s-0.285-0.258-0.359-0.436c-0.074-0.178-0.093-0.373-0.055-0.562s0.131-0.362 0.267-0.498l20.591-20.591c0.090-0.090 0.197-0.162 0.315-0.21s0.244-0.074 0.372-0.074c0.127 0 0.254 0.025 0.372 0.074s0.225 0.12 0.315 0.21c0.090 0.090 0.162 0.197 0.211 0.315s0.074 0.244 0.074 0.372c0 0.128-0.025 0.254-0.074 0.372s-0.12 0.225-0.211 0.315l-20.591 20.591c-0.182 0.182-0.428 0.285-0.685 0.285z"></path>
</svg>
