<!-- Generated by IcoMoon.io -->
<svg version="1.1" xmlns="http://www.w3.org/2000/svg" width="32" height="32" viewBox="0 0 32 32">
<title>calendar-date</title>
<path d="M22.466 17.706h-4.778c-0.876 0-1.593 0.717-1.593 1.593v4.778c0 0.876 0.717 1.593 1.593 1.593h4.778c0.876 0 1.593-0.717 1.593-1.593v-4.778c0-0.876-0.717-1.593-1.593-1.593zM22.466 1.778v1.593h-12.742v-1.593c0-0.876-0.717-1.593-1.593-1.593s-1.593 0.717-1.593 1.593v1.593h-1.593c-1.768 0-3.17 1.434-3.17 3.186l-0.016 22.299c0 1.752 1.418 3.186 3.186 3.186h22.299c1.752 0 3.186-1.434 3.186-3.186v-22.299c0-1.752-1.434-3.186-3.186-3.186h-1.593v-1.593c0-0.876-0.717-1.593-1.593-1.593s-1.593 0.717-1.593 1.593zM25.651 28.856h-19.114c-0.876 0-1.593-0.717-1.593-1.593v-15.928h22.299v15.928c0 0.876-0.717 1.593-1.593 1.593z"></path>
</svg>
