<!-- Generated by IcoMoon.io -->
<svg version="1.1" xmlns="http://www.w3.org/2000/svg" width="32" height="32" viewBox="0 0 32 32">
<title>calendar</title>
<path d="M27.875 2.501h-2.88v-1.501c0-0.552-0.448-1-1-1s-1 0.448-1 1v0 1.501h-13.995v-1.501c0-0.552-0.448-1-1-1s-1 0.448-1 1v0 1.501h-2.88c-2.275 0.005-4.117 1.85-4.12 4.125v21.25c0.003 2.277 1.848 4.122 4.125 4.125h23.751c2.277-0.003 4.122-1.848 4.125-4.125v-21.25c-0.003-2.277-1.848-4.122-4.125-4.125h-0zM4.125 4.501h2.88v1c0 0.552 0.448 1 1 1s1-0.448 1-1v0-1h14v1c0 0.552 0.448 1 1 1s1-0.448 1-1v0-1h2.88c1.169 0.007 2.113 0.955 2.115 2.125v2.375h-28v-2.374c0.002-1.173 0.952-2.123 2.125-2.125h0zM27.875 30h-23.75c-1.173-0.002-2.123-0.952-2.125-2.125v-16.875h28v16.875c-0.002 1.173-0.952 2.123-2.125 2.125h-0z"></path>
</svg>
