<!-- Generated by IcoMoon.io -->
<svg version="1.1" xmlns="http://www.w3.org/2000/svg" width="32" height="32" viewBox="0 0 32 32">
<title>cart</title>
<path fill="#0b57ad" d="M16.048 2.672c-2.944 0-5.328 2.384-5.328 5.328h-2.72c0-4.416 3.568-8 7.984-8s8 3.584 8 8h5.248c1.536 0.016 2.768 1.28 2.752 2.816 0 0.16 0 0.336-0.048 0.496l-2.96 17.168c-0.32 2-2.032 3.472-4.064 3.504h-17.84c-2.032-0.016-3.744-1.504-4.064-3.504l-2.96-17.168c-0.272-1.52 0.72-2.976 2.224-3.264 0.16-0.032 0.32-0.048 0.48-0.048h18.624c0-2.944-2.384-5.328-5.328-5.328v0zM29.216 10.672h-26.464s-0.080 0.080-0.080 0.128v0.064l2.96 17.168c0.096 0.656 0.624 1.184 1.28 1.28h0.16s17.856 0 17.856 0c0.672 0 1.248-0.464 1.408-1.12l0.032-0.176 2.96-17.168v-0.032s-0.016-0.112-0.064-0.144h-0.032s0 0 0 0z"></path>
</svg>
