<!-- Generated by IcoMoon.io -->
<svg version="1.1" xmlns="http://www.w3.org/2000/svg" width="32" height="32" viewBox="0 0 32 32">
<title>clock</title>
<path d="M16 32c-8.827 0-16-7.173-16-16s7.173-16 16-16 16 7.173 16 16c0 8.827-7.173 16-16 16zM16 3.333c-6.987 0-12.667 5.68-12.667 12.667s5.653 12.667 12.667 12.667 12.667-5.653 12.667-12.667c0-6.987-5.68-12.64-12.667-12.667z"></path>
<path d="M22.027 17.68h-6.027c-0.933 0-1.68-0.747-1.68-1.68 0 0 0 0 0 0v-8.773c0-0.933 0.747-1.68 1.68-1.68s1.68 0.747 1.68 1.68v7.093h4.347c0.933 0 1.68 0.747 1.68 1.68s-0.747 1.68-1.68 1.68z"></path>
</svg>
