<?xml version="1.0" encoding="UTF-8"?>
<svg id="Warstwa_1" data-name="Warstwa 1" xmlns="http://www.w3.org/2000/svg" viewBox="0 0 20 20">
  <defs>
    <style>
      .cls-1 {
        fill: #252668;
      }
    </style>
  </defs>
  <path class="cls-1" d="m19.68,10.93c0-.07-.02-.14-.05-.21l-1.91-4.12c-.08-.18-.26-.29-.45-.29h-3.35v-2.49c0-.28-.22-.5-.5-.5H1.08c-.28,0-.5.22-.5.5v10.82c0,.28.22.5.5.5h1.69c.22.88,1.01,1.54,1.96,1.54s1.73-.66,1.96-1.54h6.74c.06,0,.11-.01.16-.03.21.9,1.01,1.57,1.97,1.57s1.74-.66,1.96-1.54h1.67c.13,0,.26-.05.35-.15.09-.09.15-.22.15-.35v-3.71ZM1.58,4.32h11.35v9.82h-6.24c-.22-.89-1.01-1.55-1.96-1.55s-1.74.66-1.96,1.55h-1.19V4.32Zm3.15,11.36c-.57,0-1.03-.47-1.03-1.04s.46-1.04,1.03-1.04,1.03.47,1.03,1.04-.46,1.04-1.03,1.04Zm10.83,0c-.57,0-1.03-.47-1.03-1.04s.46-1.04,1.03-1.04,1.03.47,1.03,1.04-.46,1.04-1.03,1.04Zm1.96-1.54c-.22-.89-1.01-1.55-1.96-1.55-.67,0-1.26.33-1.63.84v-6.12h3.03l1.73,3.73v3.1s-1.16,0-1.16,0Z"/>
</svg>