<?xml version="1.0" encoding="UTF-8"?>
<svg id="Warstwa_1" data-name="Warstwa 1" xmlns="http://www.w3.org/2000/svg" viewBox="0 0 594.66 594.65">
  <defs>
    <style>
      .cls-1 {
        fill: #041e42;
        fill-rule: evenodd;
      }
    </style>
  </defs>
  <g id="_03_logo_Zuraw" data-name="03_logo_Zuraw">
    <path class="cls-1" d="m14.65,389.52c9.57,29.35,23.64,56.95,41.82,82.05,18.03,24.89,39.71,46.78,64.43,65.05,51.37,37.96,112.38,58.03,176.43,58.03,38.23,0,75.55-7.23,110.94-21.48l-186.82-183.58-206.81-.07Z"/>
    <path class="cls-1" d="m393.82,16.1C362.68,5.42,330.22,0,297.33,0c-40.13,0-79.07,7.86-115.72,23.37-35.41,14.98-67.2,36.42-94.51,63.72-27.31,27.31-48.75,59.11-63.73,94.51C7.86,218.26,0,257.19,0,297.32c0,30.25,4.54,60.11,13.5,88.76l214.7-37.79L393.82,16.1Z"/>
    <path class="cls-1" d="m403.5,484.98c14.2,10.89,22.67,28.3,22.67,46.59,0,15.22-5.85,30.03-16.08,40.87,39.3-16.14,75.43-41.11,104.55-72.3,29.44-31.53,52.03-69.75,65.35-110.55h-300.77s124.29,95.39,124.29,95.39Z"/>
    <path class="cls-1" d="m474.95,58.96c-23.57-17.58-49.45-31.5-76.99-41.41,18.82,10.9,30.79,31.86,30.79,54.4,0,11.26-2.98,22.21-8.63,31.66l-142.44,237.07,47.62-7.33c2.46-.38,5.05-.58,7.69-.58,26.97,0,48.93,21.87,49.08,48.82h133.47s-11.62-14.64-11.62-14.64h-24.58l-.08-.11-5.75-7.89h72.15s.08.13.08.13c7.83,13.1,21.55,21.5,36.73,22.5,8.09-27.4,12.19-55.74,12.19-84.25,0-63.04-19.5-123.27-56.39-174.17-17.75-24.5-39.06-46.1-63.32-64.2Z"/>
  </g>
</svg>
