<!-- Generated by IcoMoon.io -->
<svg version="1.1" xmlns="http://www.w3.org/2000/svg" width="41" height="32" viewBox="0 0 41 32">
<title>diverted</title>
<path d="M40.3 10.609l-10.181-10.181c-0.263-0.263-0.627-0.426-1.028-0.426-0.803 0-1.454 0.651-1.454 1.454 0 0 0 0 0 0.001v-0 4.364h-10.181c-0.804 0-1.455 0.651-1.455 1.455s0.651 1.455 1.455 1.455v0h11.635c0 0 0 0 0 0 0.803 0 1.454-0.651 1.454-1.454 0-0.001 0-0.001 0-0.002v0-2.307l6.671 6.671-6.671 6.669v-2.307c0-0.803-0.651-1.454-1.454-1.454h-16.001v-4.36c0-0 0-0 0-0.001 0-0.803-0.651-1.454-1.454-1.454-0.402 0-0.765 0.163-1.028 0.426l-10.181 10.181c-0.263 0.263-0.426 0.627-0.426 1.028s0.163 0.765 0.426 1.028l10.181 10.181c0.263 0.263 0.626 0.426 1.028 0.426 0 0 0 0 0.001 0h-0c0.002 0 0.004 0 0.007 0 0.199 0 0.388-0.040 0.56-0.114l-0.009 0.004c0.532-0.224 0.898-0.741 0.898-1.343 0-0 0-0 0-0.001v0-4.366h10.181c0.804 0 1.455-0.651 1.455-1.455s-0.651-1.455-1.455-1.455v0h-11.637c-0.803 0-1.454 0.651-1.454 1.454v2.307l-6.671-6.667 6.671-6.673v2.307c0 0.803 0.651 1.454 1.454 1.454v0h15.999v4.364c0 0 0 0 0 0 0 0.803 0.651 1.454 1.454 1.454 0.402 0 0.765-0.163 1.028-0.426l10.181-10.181c0.264-0.263 0.427-0.627 0.427-1.029 0-0.401-0.162-0.764-0.425-1.027l0 0z"></path>
</svg>
