<!-- Generated by IcoMoon.io -->
<svg version="1.1" xmlns="http://www.w3.org/2000/svg" width="39" height="32" viewBox="0 0 39 32">
<title>download</title>
<path d="M36.301 14.278v12.377c0.002 0.033 0.004 0.072 0.004 0.111 0 0.878-0.675 1.598-1.535 1.669l-0.006 0h-30.151c-0.865-0.072-1.541-0.792-1.541-1.669 0-0.039 0.001-0.078 0.004-0.116l-0 0.005v-12.377h-3.077v12.377c-0.007 0.1-0.011 0.218-0.011 0.336 0 2.634 2.027 4.795 4.607 5.007l0.018 0.001h30.148c2.598-0.213 4.625-2.374 4.625-5.008 0-0.118-0.004-0.235-0.012-0.351l0.001 0.016v-12.377z"></path>
<path d="M28.237 13.612l-6.768 6.768v-20.38h-3.561v20.38l-6.77-6.768-2.518 2.518 11.067 11.067 11.067-11.067z"></path>
</svg>
