<!-- Generated by IcoMoon.io -->
<svg version="1.1" xmlns="http://www.w3.org/2000/svg" width="32" height="32" viewBox="0 0 32 32">
<title>error</title>
<path d="M21.28 16.001l9.9-9.9c1.094-1.094 1.094-2.867 0-3.959l-1.32-1.32c-1.094-1.094-2.867-1.094-3.96 0l-9.899 9.899-9.9-9.901c-1.094-1.094-2.867-1.094-3.959 0l-1.322 1.32c-1.094 1.094-1.094 2.867 0 3.96l9.901 9.901-9.899 9.899c-1.094 1.094-1.094 2.867 0 3.96l1.32 1.32c1.094 1.094 2.867 1.094 3.959 0l9.9-9.9 9.899 9.9c1.094 1.094 2.867 1.094 3.96 0l1.32-1.32c1.094-1.094 1.094-2.867 0-3.96z"></path>
</svg>
