<!-- Generated by IcoMoon.io -->
<svg version="1.1" xmlns="http://www.w3.org/2000/svg" width="47" height="32" viewBox="0 0 47 32">
<title>eye</title>
<path d="M23.466 10.037c-3.293 0-5.963 2.67-5.963 5.963s2.67 5.963 5.963 5.963c3.293 0 5.963-2.67 5.963-5.963v0c-0.003-3.292-2.671-5.96-5.963-5.963h-0z"></path>
<path d="M23.466 0c-10.606 0.006-19.68 6.556-23.406 15.83l-0.060 0.17c3.781 9.448 12.858 16 23.466 16s19.685-6.552 23.406-15.83l0.060-0.17c-3.783-9.446-12.859-15.997-23.466-16h-0zM23.466 26.667c-5.891 0-10.667-4.776-10.667-10.667s4.776-10.667 10.667-10.667c5.891 0 10.667 4.776 10.667 10.667v0c-0.003 5.89-4.777 10.664-10.666 10.667h-0z"></path>
</svg>
