<!-- Generated by IcoMoon.io -->
<svg version="1.1" xmlns="http://www.w3.org/2000/svg" width="32" height="32" viewBox="0 0 32 32">
<title>filled-plane</title>
<path d="M17.553 17.39l-7.406 6.67 0.406 4.51-2.023 1.819-2.896-5.925-5.591-3.504 2.021-1.816 4.446 0.875 7.406-6.67-13.066-7.746 2.689-2.421 8.61 2.469 1.225-1.101c0.335-0.303 0.781-0.488 1.271-0.488 0.56 0 1.064 0.243 1.411 0.628l0.002 0.002c0.303 0.335 0.488 0.781 0.488 1.271 0 0.323-0.081 0.628-0.223 0.895l0.005-0.010 3.65 1.045 7.406-6.67c0.479-0.434 1.118-0.7 1.819-0.7 0.801 0 1.52 0.347 2.017 0.898l0.002 0.002c0.434 0.479 0.7 1.118 0.7 1.819 0 0.801-0.347 1.521-0.899 2.017l-0.002 0.002-7.406 6.67 0.619 3.511c0.173-0.057 0.371-0.090 0.578-0.090 0.56 0 1.063 0.242 1.411 0.628l0.002 0.002c0.306 0.336 0.493 0.784 0.493 1.276 0 0.558-0.241 1.060-0.624 1.408l-0.002 0.001-1.105 0.993 1.607 9.116-2.691 2.427z"></path>
</svg>
