<!-- Generated by IcoMoon.io -->
<svg version="1.1" xmlns="http://www.w3.org/2000/svg" width="32" height="32" viewBox="0 0 32 32">
<title>filters</title>
<path fill="#252668" d="M2.112 4.448h5.712c0.4 1.52 1.776 2.64 3.408 2.64s3.008-1.12 3.408-2.64h15.248c0.544 0 0.976-0.432 0.976-0.976s-0.432-0.976-0.976-0.976h-15.296c-0.448-1.44-1.776-2.496-3.36-2.496s-2.912 1.056-3.36 2.496h-5.76c-0.544 0-0.976 0.432-0.976 0.976s0.432 0.976 0.976 0.976z"></path>
<path fill="#252668" d="M29.888 14.992h-2.864c-0.416-1.504-1.776-2.608-3.392-2.608s-2.992 1.104-3.392 2.608h-18.128c-0.544 0-0.976 0.432-0.976 0.976s0.432 0.976 0.976 0.976h18.128c0.432 1.456 1.776 2.528 3.376 2.528s2.944-1.072 3.376-2.528h2.896c0.544 0 0.976-0.432 0.976-0.976s-0.432-0.976-0.976-0.976z"></path>
<path fill="#252668" d="M29.888 27.488h-9.92c-0.368-1.552-1.76-2.704-3.424-2.704s-3.056 1.152-3.44 2.704h-10.992c-0.544 0-0.976 0.432-0.976 0.976s0.432 0.976 0.976 0.976h11.088c0.464 1.408 1.776 2.416 3.344 2.416s2.88-1.024 3.344-2.416h10c0.544 0 0.976-0.432 0.976-0.976s-0.432-0.976-0.976-0.976z"></path>
</svg>
