<?xml version="1.0" encoding="iso-8859-1"?>
<!-- Generator: Adobe Illustrator 27.3.1, SVG Export Plug-In . SVG Version: 6.00 Build 0)  -->
<svg version="1.1" id="Layer_1" xmlns="http://www.w3.org/2000/svg" xmlns:xlink="http://www.w3.org/1999/xlink" x="0px" y="0px"
	 viewBox="0 0 20 20" style="enable-background:new 0 0 20 20;" xml:space="preserve">
<g>
	<path style="fill:#0B57AD;" d="M17.3,3.9l-3.8-3.8c-0.1,0-0.2-0.1-0.3-0.1H3C2.8,0,2.5,0.2,2.5,0.5v19C2.5,19.8,2.8,20,3,20h14
		c0.3,0,0.5-0.2,0.5-0.5V4.3C17.5,4.2,17.4,4,17.3,3.9z M13.7,1.6l2.2,2.2h-2.2V1.6z M3.5,19V1h9.2v3.3c0,0.3,0.2,0.5,0.5,0.5h3.3
		V19H3.5z"/>
	<rect x="6.2" y="8.3" style="fill:#0B57AD;" width="7.6" height="1"/>
	<rect x="6.2" y="10.8" style="fill:#0B57AD;" width="7.6" height="1"/>
	<rect x="6.2" y="13.3" style="fill:#0B57AD;" width="7.6" height="1"/>
	<rect x="6.2" y="15.9" style="fill:#0B57AD;" width="5.1" height="1"/>
</g>
</svg>
