<!-- Generated by IcoMoon.io -->
<svg version="1.1" xmlns="http://www.w3.org/2000/svg" width="22" height="32" viewBox="0 0 22 32">
<title>leaf</title>
<path d="M11.318 0.251c-0.358-0.334-0.916-0.334-1.274 0l-0.29 0.274h0.014c-1.606 1.6-9.586 9.892-9.586 16.864-0.034 5.46 4.164 10.108 9.58 10.648v3.038c0 0.512 0.416 0.926 0.924 0.926 0.51 0 0.926-0.414 0.926-0.926v-3.024c5.416-0.54 9.612-5.188 9.578-10.646 0-7.898-9.47-16.778-9.872-17.154zM19.344 17.4c0.038 4.512-3.274 8.264-7.734 8.798v-7.216l6.652-6.224c0.664 1.47 1.028 3.030 1.082 4.642zM11.61 16.452v-13.28c2.246 2.37 4.196 5.008 5.804 7.848l-5.804 5.432zM9.762 3.218v13.23l-5.754-5.384c1.612-2.822 3.546-5.458 5.754-7.846zM9.762 18.982v7.218c-4.462-0.536-7.772-4.292-7.73-8.802 0.064-1.608 0.438-3.158 1.116-4.614l6.614 6.198z"></path>
</svg>
