<?xml version="1.0" encoding="utf-8"?>
<!-- Generator: Adobe Illustrator 26.1.0, SVG Export Plug-In . SVG Version: 6.00 Build 0)  -->
<svg version="1.1" id="Layer_1" xmlns="http://www.w3.org/2000/svg" xmlns:xlink="http://www.w3.org/1999/xlink" x="0px" y="0px"
	 viewBox="0 0 20 20" style="enable-background:new 0 0 20 20;" xml:space="preserve">
<style type="text/css">
	.st0{fill:#0B57AD;}
</style>
<g>
	<g id="Path_7007">
		<path class="st0" d="M17.95,13.58l-0.23-0.36c-0.33-0.54-0.99-0.75-1.57-0.51l-4.11,1.72c-0.12-0.46-0.52-0.81-1.03-0.84L9,13.49
			c-0.61-0.59-1.48-0.87-2.47-0.82c-1.06,0.07-2.11,0.53-2.88,1.24c-0.14-0.17-0.36-0.26-0.6-0.23l-2.16,0.33
			c-0.16,0.03-0.31,0.12-0.41,0.26c-0.1,0.13-0.14,0.3-0.12,0.47l0.73,4.72c0.03,0.17,0.12,0.32,0.26,0.42
			C1.46,19.96,1.59,20,1.72,20c0.03,0,0.07,0,0.1-0.01l2.16-0.33c0.34-0.05,0.58-0.38,0.53-0.73l-0.03-0.17l6.23,0.34h0.17
			c0.64,0,1.28-0.19,1.81-0.55l4.87-3.23C18.14,14.94,18.31,14.16,17.95,13.58z M2.25,18.64l-0.53-3.47l0.9-0.14l0.02,0.15l0.02,0.1
			l0.49,3.22L2.25,18.64z M11.99,17.5c-0.36,0.23-0.78,0.35-1.21,0.33l-6.49-0.35H4.28l-0.31-2.02l0.04-0.06
			c0.54-0.82,1.56-1.4,2.59-1.46c0.41-0.02,1.16,0.02,1.63,0.58c0.11,0.13,0.28,0.21,0.45,0.22l2.13,0.11l-0.03,0.49l-3.25-0.18
			l-0.07,1.27l3.4,0.19h0.06c0.28,0,0.54-0.1,0.75-0.29c0.16-0.14,0.27-0.32,0.32-0.51l4.65-1.93l0.22,0.37L11.99,17.5z"/>
	</g>
	<g id="Path_7009_00000000198344155903415040000001206236310754983346_">
		<path class="st0" d="M17.43,9.92V9.08c0-1.91-0.74-3.7-2.09-5.05c-0.99-0.99-2.21-1.65-3.54-1.92v-0.6C11.8,0.68,11.12,0,10.29,0
			C9.45,0,8.77,0.68,8.77,1.51v0.6C5.56,2.8,3.15,5.66,3.15,9.08v0.84H0.93v1.27h18.72V9.92H17.43z M10.04,1.51
			c0-0.27,0.49-0.26,0.49,0v0.44c-0.08-0.01-0.16-0.01-0.24-0.01c-0.08,0-0.17,0-0.25,0.01V1.51z M16.16,9.92H4.42V9.08
			c0-1.62,0.66-3.09,1.72-4.15s2.53-1.72,4.15-1.72c1.57,0,3.04,0.61,4.15,1.72s1.72,2.58,1.72,4.15V9.92z"/>
	</g>
</g>
</svg>
