<!-- Generated by IcoMoon.io -->
<svg version="1.1" xmlns="http://www.w3.org/2000/svg" width="32" height="32" viewBox="0 0 32 32">
<title>miles_and_more</title>
<path d="M21.792 4.192c2.128 0 4.272 0 6.4 0 0 0.032 0 0.064 0 0.096 0 3.872 0 7.744 0 11.616 0 0.048 0 0.080 0 0.128 0.128 0 0.24 0 0.352 0 1.152 0 2.304 0 3.456 0 0 1.344 0 2.688 0 4.032-0.016 0-0.016 0-0.032 0-1.232 0-2.448 0-3.68 0-0.032 0-0.064 0-0.112 0.016 0 2.592 0 5.184 0 7.76-1.792 0-3.568 0-5.36 0 0-4.752 0-9.488 0-14.256-0.048 0.144-0.096 0.24-0.128 0.352-0.176 0.496-0.352 0.976-0.528 1.472-0.112 0.288-0.224 0.576-0.32 0.864-0.16 0.432-0.304 0.864-0.464 1.296-0.16 0.448-0.336 0.912-0.496 1.36-0.224 0.608-0.448 1.216-0.672 1.824-0.256 0.704-0.512 1.408-0.768 2.112-0.192 0.512-0.368 1.024-0.56 1.536-0.24 0.656-0.48 1.296-0.72 1.952-0.176 0.48-0.352 0.96-0.528 1.44-0.016 0.064-0.048 0.080-0.112 0.080-1.040 0-2.064 0-3.104 0-0.064 0-0.096-0.016-0.112-0.080-0.208-0.592-0.432-1.184-0.64-1.776-0.208-0.56-0.416-1.12-0.624-1.68-0.208-0.592-0.416-1.184-0.64-1.76-0.176-0.48-0.352-0.96-0.528-1.424-0.24-0.672-0.496-1.344-0.736-2.032-0.224-0.624-0.448-1.248-0.672-1.872-0.192-0.512-0.384-1.024-0.576-1.552-0.128-0.528-0.32-1.056-0.496-1.552-0.064-0.176-0.144-0.368-0.208-0.56-0.016 0-0.016 0-0.032 0 0 4.736 0 9.488 0 14.208-1.776 0-3.552 0-5.328 0 0-2.592 0-5.168 0-7.776-0.064 0-0.112 0-0.16 0-1.168 0-2.336 0-3.504 0-0.128 0-0.16-0.032-0.16-0.16 0-1.248 0-2.496 0-3.744 0-0.048 0-0.080 0-0.144 1.28 0 2.544 0 3.824 0 0-0.064 0-0.112 0-0.16 0-3.84 0-7.68 0-11.536 0-0.048 0-0.096 0-0.144 2.128 0 4.256 0 6.384 0 0.192 0.56 0.384 1.088 0.576 1.6 0.224 0.624 0.464 1.232 0.688 1.856 0.24 0.624 0.464 1.232 0.688 1.84 0.192 0.512 0.384 1.008 0.576 1.52 0.224 0.608 0.448 1.216 0.672 1.824 0.16 0.416 0.32 0.832 0.48 1.248 0.176 0.48 0.352 0.944 0.528 1.424 0.16 0.448 0.336 0.896 0.496 1.328 0.144 0.4 0.304 0.816 0.448 1.216 0.176 0.48 0.352 0.96 0.544 1.44 0.032 0.080 0.064 0.144 0.112 0.24 0.016-0.048 0.016-0.064 0.032-0.080 0.208-0.544 0.4-1.104 0.608-1.648 0.16-0.448 0.336-0.88 0.496-1.328 0.208-0.56 0.416-1.12 0.624-1.68 0.16-0.432 0.336-0.864 0.496-1.296 0.16-0.448 0.32-0.88 0.496-1.328 0.16-0.432 0.32-0.848 0.48-1.28 0.208-0.544 0.4-1.104 0.608-1.648 0.16-0.432 0.32-0.848 0.48-1.264 0.208-0.56 0.416-1.136 0.624-1.696 0.112-0.288 0.224-0.592 0.336-0.88 0.176-0.448 0.336-0.896 0.496-1.344z"></path>
</svg>
