<!-- Generated by IcoMoon.io -->
<svg version="1.1" xmlns="http://www.w3.org/2000/svg" width="32" height="32" viewBox="0 0 32 32">
<title>passenger-details</title>
<path d="M10.304 3.36c3.36 0 6.080 2.72 6.080 6.080s-2.72 6.080-6.080 6.080c-3.36 0-6.080-2.72-6.080-6.080 0 0 0 0 0 0 0.016-3.36 2.736-6.080 6.080-6.080 0 0 0 0 0 0z"></path>
<path d="M10.304 16.592c4.8 0.224 8.944 3.456 10.304 8.064-5.744 5.552-14.864 5.552-20.624 0 1.376-4.608 5.52-7.856 10.32-8.064v0z"></path>
<path d="M23.408 3.184c2.8 0 5.056 2.272 5.056 5.056 0 2.8-2.272 5.056-5.056 5.056-2.8 0-5.056-2.272-5.056-5.056s2.256-5.056 5.056-5.056z"></path>
<path d="M23.408 14.208c4 0.176 7.456 2.88 8.592 6.72-2.304 2.224-5.392 3.472-8.592 3.472-0.32 0-0.624-0.016-0.928-0.032-0.944-2.96-2.8-5.536-5.28-7.376 1.6-1.744 3.84-2.752 6.208-2.784v0z"></path>
</svg>
