<!-- Generated by IcoMoon.io -->
<svg version="1.1" xmlns="http://www.w3.org/2000/svg" width="32" height="32" viewBox="0 0 32 32">
<title>payment</title>
<path d="M3.472 6.272c-1.152 0-2.096-0.944-2.080-2.096 0-0.56 0.224-1.088 0.608-1.472 0.864-0.864-0.016-0.608 20.96-0.608 0.384 0 0.704 0.304 0.704 0.704v3.472h-20.192z"></path>
<path d="M30.608 15.322c-6.24 0-7.36-0.336-8.72 1.024-1.376 1.36-1.36 3.568 0.016 4.928 0.656 0.656 1.52 1.008 2.432 1.008h6.256c0.768 0 1.392-0.624 1.392-1.392v-4.176c0.016-0.768-0.608-1.392-1.376-1.392zM24.688 20.522c-0.912 0-1.664-0.752-1.664-1.664s0.752-1.664 1.664-1.664 1.664 0.752 1.664 1.664c0 0.912-0.752 1.664-1.664 1.664z"></path>
<path d="M19.488 18.794c0-2.688 2.16-4.864 4.848-4.864 0 0 0.016 0 0.016 0h4.864v-4.88c0-0.768-0.624-1.392-1.392-1.392h-25.040c-1.536 0-2.784-1.232-2.784-2.768 0 0 0 0 0 0v22.272c0 1.536 1.248 2.784 2.784 2.784 0 0 0 0 0 0h25.056c0.768 0 1.392-0.624 1.392-1.392v-4.864h-4.864c-2.704-0.032-4.88-2.208-4.88-4.896z"></path>
</svg>
