<!-- Generated by IcoMoon.io -->
<svg version="1.1" xmlns="http://www.w3.org/2000/svg" width="32" height="32" viewBox="0 0 32 32">
<title>phone-number</title>
<path fill="#0d4eb0" d="M23.6 32c-2-0.2-4-0.8-5.6-1.8-3.2-2-6.2-4.4-9-7.2-5.2-5-8-9.4-8.8-12.8-0.4-1.6-0.2-3.4 0.8-4.8l4.8-4.8c1-1 2.4-1 3.4 0 0 0 0 0 0 0l4.8 4.8c1 1 1 2.6 0 3.4l-3 3.2 9.2 9.2 3-3.2c1-1 2.4-1 3.4 0 0 0 0 0 0 0l4.8 4.8c1 1 1 2.4 0 3.4l-4.8 4.8c-0.8 0.6-2 1-3 1zM3 7.2c-0.4 1-0.4 2 0 2.8 0.6 2 2.4 5.6 7.8 11.2 7 7 11 8.2 12.6 8.2 0.4 0 0.8 0 1.2-0.2l4.6-4.6-4.4-4.6-3.8 3.8c-0.6 0.6-1.4 0.6-1.8 0 0 0 0 0 0 0l-11-11c-0.6-0.6-0.6-1.4 0-1.8 0 0 0 0 0 0l3.8-3.8-4.4-4.4-4.6 4.4z"></path>
</svg>
