<?xml version="1.0" encoding="utf-8"?>
<!-- Generator: Adobe Illustrator 27.0.1, SVG Export Plug-In . SVG Version: 6.00 Build 0)  -->
<svg version="1.1" id="Layer_1" xmlns="http://www.w3.org/2000/svg" xmlns:xlink="http://www.w3.org/1999/xlink" x="0px" y="0px"
	 viewBox="0 0 33 20" style="enable-background:new 0 0 33 20;" xml:space="preserve">
<style type="text/css">
	.st0{fill:#0B57AD;}
</style>
<g>
	<path id="Path_15017" class="st0" d="M0,11.1h3.2v3.4h1.6v-3.4H8V9.6H4.8V6.2H3.2v3.4H0V11.1z"/>
	<g>
		<g id="Path_7181_00000018943299154594711330000012964580257312776617_">
			<path class="st0" d="M21.9,16.1c-0.5,0-1-0.1-1.5-0.3c-0.9-0.4-1.6-1.1-1.9-2.1c-0.1-0.3,0-0.7,0.4-0.8c0.3-0.1,0.7,0,0.8,0.4
				c0.2,0.6,0.7,1.1,1.3,1.4c0.6,0.3,1.3,0.3,1.9,0.1c0.7-0.2,1.2-0.8,1.4-1.4c0.1-0.3,0.5-0.5,0.8-0.4s0.5,0.5,0.4,0.8
				c-0.4,1-1.2,1.8-2.2,2.2C22.7,16.1,22.3,16.1,21.9,16.1z"/>
		</g>
		<g id="Line_1126_00000167393538979288349800000013099017770864745662_">
			<path class="st0" d="M18.8,11.2c-0.3,0-0.6-0.3-0.6-0.6V9.2c0-0.3,0.3-0.6,0.6-0.6c0.3,0,0.6,0.3,0.6,0.6v1.4
				C19.4,11,19.1,11.2,18.8,11.2z"/>
		</g>
		<g id="Line_1127_00000034810616916772941730000000994496023371054746_">
			<path class="st0" d="M24.9,11.2c-0.3,0-0.6-0.3-0.6-0.6V9.2c0-0.3,0.3-0.6,0.6-0.6c0.3,0,0.6,0.3,0.6,0.6v1.4
				C25.6,11,25.3,11.2,24.9,11.2z"/>
		</g>
		<g>
			<path class="st0" d="M21.9,20c-4.1,0-7.6-2.7-8.8-6.7c-1-0.2-2.4-1-2.3-2.8s1.4-2.5,2.3-2.7c0.7-2.1,2.1-3.6,4.1-4.5
				c0.3-0.1,0.7,0,0.8,0.3c0.1,0.3,0,0.7-0.3,0.8c-1.8,0.8-3,2.2-3.5,4.1C14.1,8.9,13.8,9,13.5,9S12,9.2,12,10.5
				c-0.1,1.3,1.2,1.5,1.6,1.6c0.3,0,0.5,0.2,0.6,0.5c0.9,3.6,4.1,6.1,7.7,6.1s6.8-2.5,7.7-6.1c0.1-0.3,0.3-0.5,0.6-0.5
				c0.4,0,1.6-0.2,1.5-1.6c0-1.3-1.2-1.5-1.5-1.5s-0.6-0.2-0.6-0.5c-0.5-2.1-1.6-3.4-3.2-4C26,4.4,25.8,4,26,3.7
				c0.1-0.3,0.5-0.5,0.8-0.4C28.7,4,30,5.5,30.7,7.8c1,0.2,2.3,0.9,2.3,2.7c0.1,1.9-1.3,2.6-2.3,2.8C29.5,17.3,25.9,20,21.9,20z"/>
		</g>
		<g>
			<path class="st0" d="M21.4,7.2c-0.2,0-0.4-0.1-0.5-0.3c-0.2-0.3-0.1-0.7,0.2-0.9c0.8-0.5,1.3-0.9,1.7-1.4
				c0.4-0.6,0.7-1.2,0.6-1.8c0-0.6-0.4-1.2-0.9-1.4c-0.3-0.2-0.7-0.2-1-0.1s-0.7,0.3-0.9,0.6c-0.2,0.2-0.2,0.5-0.1,0.8
				c0,0.3,0.2,0.5,0.5,0.6c0.3,0.2,0.4,0.5,0.3,0.8c-0.2,0.3-0.5,0.4-0.8,0.3c-0.6-0.3-1.1-0.8-1.3-1.4c-0.2-0.7-0.1-1.4,0.3-1.9
				s1-0.9,1.6-1.1s1.3-0.1,1.9,0.2c0.9,0.4,1.5,1.4,1.6,2.5c0,0.9-0.3,1.8-0.9,2.7c-0.5,0.6-1.1,1.2-2,1.7
				C21.6,7.2,21.5,7.2,21.4,7.2z"/>
		</g>
	</g>
</g>
</svg>
