<?xml version="1.0" encoding="UTF-8"?>
<svg id="Warstwa_1" data-name="Warstwa 1" xmlns="http://www.w3.org/2000/svg" viewBox="0 0 20 20">
  <defs>
    <style>
      .cls-1 {
        fill: #252668;
      }
    </style>
  </defs>
  <path class="cls-1" d="m10.68,11.38c.6.03,1.15.36,1.46.87.13.24.42.33.66.21.24-.13.33-.42.21-.66,0,0,0-.02-.01-.02-.01-.02-.03-.04-.04-.06-.49-.78-1.34-1.27-2.26-1.31-1.39.06-2.56,1.04-2.85,2.4h-.12c-.27,0-.49.21-.5.48,0,.27.21.49.48.5,0,.16,0,.33.02.49h-.03c-.27,0-.49.21-.5.48,0,.27.21.49.48.5h.29c.38,1.15,1.42,1.94,2.62,2.01.92,0,1.79-.46,2.3-1.23.16-.22.12-.52-.1-.69-.21-.16-.51-.12-.68.09l-.02.02c-.33.5-.89.81-1.49.82-.66-.04-1.24-.42-1.54-1.01l1.07.02c.27,0,.49-.21.5-.48,0-.27-.21-.49-.48-.5l-1.43-.02c-.02-.16-.03-.33-.03-.49l1.46.03c.27,0,.49-.21.5-.48,0-.27-.21-.49-.48-.5l-1.3-.02c.24-.82.97-1.4,1.82-1.44Z"/>
  <path class="cls-1" d="m15.08,7.31h-1.51v-3.57c0-1.82-1.48-3.3-3.3-3.3s-3.3,1.48-3.3,3.3v3.57h-1.51c-1.67,0-3.03,1.36-3.03,3.03v6.36c0,1.67,1.36,3.03,3.03,3.03h9.62c1.67,0,3.03-1.36,3.03-3.03v-6.36c0-1.67-1.36-3.03-3.03-3.03Zm-7.11-3.57c0-1.27,1.03-2.3,2.3-2.3s2.3,1.03,2.3,2.3v3.57h-4.6v-3.57Zm9.14,12.96c0,1.12-.91,2.03-2.03,2.03H5.46c-1.12,0-2.03-.91-2.03-2.03v-6.36c0-1.12.91-2.03,2.03-2.03h8.11s0,0,0,0h1.51c1.12,0,2.03.91,2.03,2.03v6.36Z"/>
</svg>