<!-- Generated by IcoMoon.io -->
<svg version="1.1" xmlns="http://www.w3.org/2000/svg" width="32" height="32" viewBox="0 0 32 32">
<title>seat-selection</title>
<path d="M3.504 0.032l0.32-0.032c0.416-0.016 0.416 0.016 0.416 0.016 0.88 0.080 1.648 0.592 2.048 1.376l0.048 0.16 3.472 8.576 11.072-1.376c0.72 1.040 1.536 2.016 2.432 2.912l0.32 0.176-12.464 1.664 1.328 3.296 16.416-2.032c0.896 0 1.664 0.688 1.744 1.584v0.144l-2.992 7.408c-0.224 0.912-1.072 1.552-2 1.488h-0.992l-1.824 4.16c1.44 0.16 2.736 0.992 3.472 2.256l0.096 0.192h-16.752c0.768-1.44 2.24-2.384 3.872-2.464h5.216l0.032-0.096 0.032-0.080 1.728-3.952h-10.736c-0.896 0-1.648-0.672-1.728-1.552-0.080-0.112-0.144-0.24-0.192-0.368l-0.32-1.056-6.16-20.176c-0.24-0.912 0.304-1.856 1.216-2.112 0 0 0.016 0 0.016 0l0.672-0.096 0.192-0.016z"></path>
</svg>
