<!-- Generated by IcoMoon.io -->
<svg version="1.1" xmlns="http://www.w3.org/2000/svg" width="32" height="32" viewBox="0 0 32 32">
<title>sofa</title>
<path d="M30.414 11.952h-0.636v-2.363c0-1.397-1.136-2.533-2.533-2.533h-9.181c-0.851 0-1.605 0.422-2.064 1.068-0.46-0.646-1.213-1.068-2.064-1.068h-5.768c-0.259 0-0.469 0.21-0.469 0.469s0.21 0.469 0.469 0.469h5.768c0.88 0 1.596 0.716 1.596 1.596v4.688c-0.010-0.009-0.020-0.018-0.030-0.028-0.556-0.518-1.309-0.817-2.069-0.817h-7.808c-0.041-0.629-0.47-1.183-1.062-1.393-0.167-0.059-0.343-0.088-0.52-0.088h-0.883v-2.363c0-0.88 0.716-1.596 1.596-1.596h1.538c0.259 0 0.469-0.21 0.469-0.469s-0.21-0.469-0.469-0.469h-1.538c-1.397 0-2.533 1.136-2.533 2.533v2.363h-0.636c-0.875 0-1.586 0.712-1.586 1.586v4.894c0 1.821 1.482 3.303 3.303 3.303h0.236c0 0-0.513 1.381-0.514 1.382-0.324 0.871 0.343 1.828 1.27 1.828h0.754c0.422 0 0.826-0.201 1.081-0.538l2.021-2.671h15.699l2.021 2.671c0.255 0.337 0.659 0.538 1.081 0.538 0 0 0.754 0 0.754 0 0.929 0 1.594-0.957 1.27-1.828l-0.514-1.382h0.236c1.821 0 3.303-1.482 3.303-3.303v-4.894c0-0.874-0.711-1.586-1.586-1.586zM16.469 9.589c0-0.88 0.716-1.596 1.596-1.596h9.181c0.88 0 1.596 0.716 1.596 1.596v2.363c0 0-0.882 0-0.883 0-0.623 0-1.221 0.4-1.463 0.974-0.068 0.161-0.108 0.333-0.12 0.507 0 0-7.808 0-7.808 0-0.772 0-1.541 0.311-2.099 0.844v-4.688zM5.628 14.37h7.805c1.157 0 2.099 0.942 2.099 2.099v0.667h-9.903v-2.766zM5.382 23.841c-0.079 0.104-0.203 0.166-0.333 0.166 0 0-0.752 0-0.754 0-0.287 0-0.492-0.294-0.392-0.563l0.635-1.708h2.437l-1.593 2.106zM27.705 24.007h-0.754c-0.13 0-0.255-0.062-0.333-0.166l-1.593-2.106h2.437c0 0 0.633 1.702 0.635 1.708 0.1 0.27-0.106 0.563-0.392 0.563zM28.697 20.797h-25.395c-1.304 0-2.365-1.061-2.365-2.365v-4.894c0-0.358 0.291-0.648 0.648-0.648h2.456c0.358 0 0.648 0.291 0.648 0.648v4.067c0 0.259 0.21 0.469 0.469 0.469h17.217c0.259 0 0.469-0.21 0.469-0.469s-0.21-0.469-0.469-0.469h-5.907v-0.667c0-1.157 0.942-2.099 2.099-2.099h7.805v2.766h-2.121c-0.259 0-0.469 0.21-0.469 0.469s0.21 0.469 0.469 0.469h2.59c0.259 0 0.469-0.21 0.469-0.469v-4.067c0-0.358 0.291-0.648 0.648-0.648h2.456c0.358 0 0.648 0.291 0.648 0.648v4.894c0 1.304-1.061 2.365-2.365 2.365z"></path>
</svg>
