<!-- Generated by IcoMoon.io -->
<svg version="1.1" xmlns="http://www.w3.org/2000/svg" width="32" height="32" viewBox="0 0 32 32">
<title>trip-summary</title>
<path d="M26.976 0h-21.968c-1.168 0-2.176 0.832-2.384 1.984 0.256-1.12 1.264-1.92 2.416-1.92h21.888c1.168 0 2.176 0.816 2.432 1.968-0.176-1.184-1.2-2.032-2.384-2.032z"></path>
<path d="M29.392 2.176c0-0.048-0.016-0.112-0.016-0.16-0.24-1.152-1.264-1.968-2.432-1.968h-21.904c-1.152 0-2.16 0.8-2.416 1.92-0.032 0.144-0.048 0.304-0.048 0.448v27.152c0 0.304 0.048 0.608 0.16 0.896 0.032 0.096 0.080 0.176 0.128 0.272 0.032 0.064 0.080 0.128 0.128 0.192 0.080 0.128 0.192 0.256 0.304 0.352 0.048 0.064 0.112 0.112 0.176 0.16 0.112 0.096 0.24 0.176 0.384 0.256 0.080 0.048 0.16 0.080 0.24 0.112 0.272 0.128 0.608 0.192 0.928 0.192h21.904c1.376 0 2.48-1.12 2.48-2.48v0-26.976c0.016-0.128 0-0.256-0.016-0.368zM9.264 5.072h13.408c0.688 0 1.264 0.56 1.264 1.264 0 0.688-0.56 1.264-1.264 1.264h-13.408c-0.688-0.016-1.264-0.576-1.264-1.264 0 0 0 0 0 0 0.032-0.688 0.576-1.232 1.264-1.264zM9.264 11.536h13.408c0.688 0 1.248 0.56 1.264 1.248 0 0 0 0 0 0 0.016 0.672-0.528 1.232-1.2 1.264-0.016 0-0.032 0-0.064 0h-13.408c-0.688 0-1.264-0.576-1.264-1.264s0.576-1.248 1.264-1.248zM9.264 17.936h13.408c0.688 0 1.248 0.56 1.264 1.248 0 0 0 0 0 0 0.016 0.672-0.528 1.232-1.2 1.264-0.016 0-0.032 0-0.064 0h-13.408c-0.688 0.016-1.264-0.56-1.264-1.248 0 0 0 0 0 0-0.016-0.672 0.528-1.232 1.2-1.264 0.016 0 0.048 0 0.064 0zM9.264 24.4h4.704c0.688 0 1.248 0.56 1.248 1.264 0 0.688-0.56 1.248-1.248 1.248h-4.704c-0.688 0-1.264-0.56-1.264-1.248 0-0.704 0.576-1.264 1.264-1.264z"></path>
</svg>
