<!-- Generated by IcoMoon.io -->
<svg version="1.1" xmlns="http://www.w3.org/2000/svg" width="49" height="32" viewBox="0 0 49 32">
<title>ad</title>
<path fill="#41479b" d="M16.281 32h-15.439c-0.465 0-0.842-0.377-0.842-0.842v0-30.316c0-0.465 0.377-0.842 0.842-0.842v0h15.439z"></path>
<path fill="#ffe15a" d="M16.281 0h16.281v32.002h-16.281v-32.002z"></path>
<path fill="#ff4b55" d="M48.002 32h-15.439v-32h15.439c0.465 0 0.842 0.377 0.842 0.842v0 30.316c0 0.465-0.377 0.842-0.842 0.842v0z"></path>
<path fill="#dcbe82" d="M30.149 18.738c0 0 0 0 0 0 0-0.245-0.198-0.443-0.442-0.444h-0c-0.055 0.001-0.106 0.011-0.154 0.029l0.003-0.001c-0.236-0.189-0.386-0.477-0.386-0.8 0-0.209 0.063-0.403 0.17-0.565l-0.002 0.004c0.053 0.040 0.119 0.064 0.191 0.064 0.175 0 0.316-0.142 0.316-0.316 0-0.136-0.085-0.251-0.206-0.296l-0.002-0.001c0.457-0.199 0.77-0.647 0.77-1.167 0-0.006-0-0.012-0-0.017v0.001c-0.035-0.93-0.805-1.458-1.277-1.251v-0.040c-0.001-0.173-0.141-0.313-0.314-0.314h-0c-0 0-0 0-0 0-0.106 0-0.199 0.053-0.255 0.134l-0.001 0.001c-0.004-0.024-0.007-0.051-0.007-0.078 0-0.161 0.081-0.302 0.205-0.386l0.002-0.001c0.294-0.195 0.486-0.525 0.486-0.899 0-0.363-0.18-0.683-0.455-0.878l-0.003-0.002c-0.465-0.328-1.354-0.484-1.651-0.037-0.037 0.058-0.059 0.129-0.059 0.205 0 0.138 0.072 0.258 0.18 0.327l0.002 0.001c-0.201 0.137-0.45 0.219-0.717 0.219-0.116 0-0.229-0.015-0.336-0.044l0.009 0.002c-0.507-0.233-0.214-0.661-0.102-0.858 0.058-0.091 0.093-0.201 0.093-0.32 0-0.33-0.268-0.598-0.598-0.598-0.029 0-0.058 0.002-0.087 0.006l0.003-0c-0.444 0-0.665 0.442-1.107 0.442s-0.663-0.442-1.107-0.442c-0.025-0.004-0.054-0.006-0.083-0.006-0.33 0-0.598 0.268-0.598 0.598 0 0.119 0.035 0.229 0.094 0.322l-0.001-0.002c0.112 0.198 0.405 0.637-0.102 0.858-0.098 0.027-0.211 0.042-0.327 0.042-0.268 0-0.516-0.082-0.722-0.222l0.004 0.003c0.11-0.069 0.182-0.19 0.182-0.328 0-0.076-0.022-0.147-0.060-0.206l0.001 0.002c-0.298-0.447-1.186-0.291-1.651 0.037-0.279 0.197-0.458 0.518-0.458 0.88 0 0.374 0.192 0.704 0.482 0.897l0.004 0.002c0.125 0.085 0.207 0.226 0.207 0.387 0 0.028-0.002 0.055-0.007 0.081l0-0.003c-0.056-0.082-0.15-0.135-0.255-0.135-0 0-0 0-0 0h0c-0.173 0.001-0.313 0.141-0.314 0.314v0.040c-0.465-0.207-1.242 0.312-1.277 1.251-0 0.005-0 0.011-0 0.017 0 0.521 0.313 0.968 0.762 1.164l0.008 0.003c-0.13 0.042-0.222 0.162-0.222 0.304 0 0.176 0.143 0.319 0.319 0.319 0.078 0 0.149-0.028 0.204-0.074l-0 0c0.105 0.158 0.168 0.352 0.168 0.561 0 0.323-0.15 0.611-0.384 0.798l-0.002 0.002c-0.045-0.017-0.097-0.027-0.151-0.028h-0c-0.243 0.002-0.439 0.199-0.439 0.442 0 0.228 0.173 0.416 0.395 0.439l0.002 0c-0.211 0.233-0.34 0.544-0.34 0.885 0 0.349 0.135 0.667 0.357 0.904l-0.001-0.001c0.649 0.858 2.198 0.788 2.945 0.816 0.4 0.024 0.757 0.187 1.029 0.441l-0.001-0.001c-0.098 0.108-0.159 0.252-0.159 0.41 0 0.337 0.273 0.609 0.609 0.609 0.202 0 0.381-0.098 0.492-0.25l0.001-0.002c0.062 0.159 0.215 0.27 0.393 0.27s0.331-0.111 0.392-0.267l0.001-0.003c0.073 0.151 0.224 0.253 0.399 0.253 0.158 0 0.296-0.082 0.374-0.207l0.001-0.002c0.217-0.030 0.382-0.213 0.382-0.436 0-0.159-0.084-0.298-0.21-0.375l-0.002-0.001c0.271-0.253 0.628-0.416 1.023-0.439l0.005-0c0.747-0.028 2.296 0.042 2.947-0.816 0.22-0.236 0.355-0.553 0.355-0.902 0-0.342-0.129-0.653-0.342-0.888l0.001 0.001c0.228-0.018 0.406-0.207 0.409-0.437v-0z"></path>
<path fill="#d2aa73" d="M20.438 13.053v6.417c0 0.733 0.595 1.328 1.328 1.328v0h1.77c0.205 0.27 0.525 0.442 0.886 0.442s0.682-0.172 0.884-0.439l0.002-0.003h1.77c0.733 0 1.328-0.595 1.328-1.328v0-6.417c0-0.128-0.104-0.233-0.233-0.233v0h-7.524c-0.119 0.011-0.212 0.111-0.212 0.232 0 0 0 0.001 0 0.001v-0z"></path>
<path fill="#ff4b55" d="M20.88 13.274h3.319v3.319h-3.319v-3.319z"></path>
<path fill="#ff4b55" d="M24.19 20.354v0c-1.833 0-3.319-1.486-3.319-3.319h3.319z"></path>
<path fill="#ffe15a" d="M24.655 20.354v0-3.319h3.319c0 1.833-1.486 3.319-3.319 3.319v0z"></path>
<path fill="#ffe15a" d="M24.643 13.274h0.474v3.319h-0.474v-3.319z"></path>
<path fill="#ff4b55" d="M25.118 13.274h0.474v3.319h-0.474v-3.319z"></path>
<path fill="#ffe15a" d="M25.592 13.274h0.474v3.319h-0.474v-3.319z"></path>
<path fill="#ff4b55" d="M26.067 13.274h0.474v3.319h-0.474v-3.319z"></path>
<path fill="#ffe15a" d="M26.541 13.274h0.474v3.319h-0.474v-3.319z"></path>
<path fill="#ffe15a" d="M27.488 13.274h0.474v3.319h-0.474v-3.319z"></path>
<path fill="#ff4b55" d="M27.016 13.274h0.474v3.319h-0.474v-3.319z"></path>
<path fill="#ff4b55" d="M21.987 17.035h0.37v3.319h-0.37v-3.319z"></path>
<path fill="#ffe15a" d="M22.357 17.035h0.37v3.319h-0.37v-3.319z"></path>
<path fill="#ffe15a" d="M23.094 17.035h0.37v3.319h-0.37v-3.319z"></path>
<path fill="#ff4b55" d="M22.724 17.035h0.37v3.319h-0.37v-3.319z"></path>
<path fill="#ffe15a" d="M23.831 17.035h0.37v3.319h-0.37v-3.319z"></path>
<path fill="#ff4b55" d="M23.464 17.035h0.37v3.319h-0.37v-3.319z"></path>
<path fill="#ffe15a" d="M21.25 20.187v-3.152h-0.367v2.435c0.001 0.294 0.144 0.554 0.365 0.715l0.003 0.002z"></path>
<path fill="#ff4b55" d="M21.619 20.34v-3.305h-0.37v3.152c0.104 0.075 0.229 0.129 0.365 0.153l0.005 0.001z"></path>
<path fill="#ffe15a" d="M21.619 17.035v3.305c0.044 0.009 0.095 0.014 0.146 0.014h0.233v-3.319z"></path>
<path fill="#f5f5f5" d="M21.375 16.405c-0 0-0 0-0 0-0.017 0-0.033-0.005-0.047-0.014l0 0c-0.219-0.144-0.233-0.295-0.219-0.372 0.019-0.105 0.094-0.189 0.193-0.218l0.002-0.001c0.021-0.006 0.045-0.010 0.069-0.010 0.077 0 0.146 0.034 0.193 0.088l0 0c0.137 0.16 0.279 0.233 0.398 0.179 0.083-0.031 0.143-0.107 0.151-0.197l0-0.001c-0.001-0.004-0.001-0.009-0.001-0.014 0-0.049 0.040-0.088 0.088-0.088s0.088 0.040 0.088 0.088c0 0.005-0 0.010-0.001 0.015l0-0.001c-0.008 0.166-0.115 0.304-0.262 0.36l-0.003 0.001c-0.112 0.042-0.337 0.067-0.591-0.233-0.014-0.018-0.036-0.029-0.060-0.029-0.008 0-0.015 0.001-0.022 0.003l0.001-0c-0.037 0.010-0.065 0.041-0.072 0.078l-0 0.001c0 0.060 0.042 0.133 0.142 0.198 0.023 0.016 0.037 0.042 0.037 0.072 0 0.048-0.038 0.087-0.086 0.088h-0z"></path>
<path fill="#f5f5f5" d="M23.724 16.405c-0.048-0.001-0.086-0.040-0.086-0.088 0-0.030 0.015-0.056 0.037-0.072l0-0c0.1-0.065 0.151-0.137 0.142-0.198-0.007-0.038-0.035-0.068-0.071-0.077l-0.001-0c-0.007-0.003-0.016-0.004-0.025-0.004-0.023 0-0.043 0.011-0.057 0.027l-0 0c-0.254 0.295-0.479 0.27-0.591 0.233-0.15-0.056-0.257-0.195-0.265-0.36l-0-0.001c-0.001-0.004-0.001-0.009-0.001-0.014 0-0.049 0.040-0.088 0.088-0.088s0.088 0.040 0.088 0.088c0 0.005-0 0.010-0.001 0.015l0-0.001c0.008 0.091 0.068 0.166 0.15 0.197l0.002 0.001c0.119 0.044 0.261-0.019 0.398-0.179 0.047-0.054 0.116-0.089 0.194-0.089 0.025 0 0.048 0.003 0.071 0.010l-0.002-0c0.101 0.030 0.177 0.114 0.195 0.217l0 0.002c0 0.077 0 0.233-0.219 0.372-0.011 0.006-0.025 0.010-0.039 0.010-0.003 0-0.005-0-0.008-0l0 0z"></path>
<path fill="#ffe15a" d="M21.329 16.507c-0 0-0.001 0-0.002 0-0.019 0-0.037-0.006-0.052-0.017l0 0c-0.021-0.016-0.034-0.042-0.034-0.070 0-0.020 0.007-0.039 0.018-0.054l-0 0 1.896-2.491c0.015-0.038 0.027-0.082 0.032-0.128l0-0.003c0.004-0.131 0.075-0.245 0.18-0.308l0.002-0.001c0.044-0.028 0.097-0.045 0.155-0.045s0.111 0.017 0.156 0.046l-0.001-0.001c0.096 0.062 0.159 0.169 0.159 0.29 0 0.009-0 0.018-0.001 0.027l0-0.001c-0.021 0.136-0.12 0.244-0.249 0.279l-0.002 0.001c-0.009 0.004-0.021 0.006-0.032 0.006-0.037 0-0.068-0.024-0.079-0.057l-0-0.001c-0.003-0.009-0.005-0.019-0.005-0.029 0-0.037 0.023-0.069 0.056-0.082l0.001-0c0.058-0.021 0.13-0.063 0.137-0.135 0-0.003 0-0.007 0-0.011 0-0.059-0.030-0.11-0.076-0.139l-0.001-0c-0.018-0.012-0.039-0.019-0.063-0.019s-0.045 0.007-0.063 0.020l0-0c-0.060 0.037-0.1 0.102-0.1 0.177 0 0.003 0 0.006 0 0.009v-0c-0.008 0.074-0.029 0.142-0.062 0.203l0.001-0.003-1.9 2.496c-0.015 0.023-0.041 0.039-0.069 0.042l-0 0z"></path>
<path fill="#ffe15a" d="M22.561 13.767l-0.872 1.047 0.349 1.047h1.047l0.349-1.047z"></path>
<path fill="#f5f5f5" d="M22.561 13.632l-0.97 1.163 0.386 1.163h1.163l0.384-1.163zM21.789 14.832l0.686-0.823v1.763h-0.379zM23.022 15.763h-0.372v-1.763l0.698 0.823z"></path>
<path fill="#ff4b55" d="M27.146 18.093l0.014-0.193s0.172-0.123 0.088-0.233-0.181-0.137-0.384-0.112-0.519 0.023-0.654 0.033-0.207 0.081-0.423 0.021l0.058-0.133c-0.060 0.006-0.115 0.020-0.167 0.041l0.004-0.001c-0.033 0.019-0.114-0.091-0.193-0.074s-0.158 0.181-0.281 0.265l0.065 0.13c0.019-0.010 0.042-0.016 0.066-0.016s0.047 0.006 0.067 0.016l-0.001-0c0.042 0.042 0.1 0.068 0.164 0.068 0.003 0 0.006-0 0.009-0h-0l0.060 0.026c-0.002 0.011-0.003 0.025-0.003 0.038 0 0.067 0.028 0.127 0.073 0.169l0 0s-0.105 0.135-0.091 0.158c0.043 0.077 0.088 0.171 0.128 0.268l0.007 0.018 0.079-0.151s-0.119-0.105-0.095-0.119 0.1-0.030 0.088-0.065 0.060 0 0.144 0.019c0 0.053 0.008 0.104 0.022 0.153l-0.001-0.004c0.026 0.039 0.041 0.086 0.041 0.137 0 0.009-0 0.018-0.001 0.027l0-0.001c-0.001 0.044-0.030 0.081-0.069 0.095l-0.001 0 0.119 0.035s0.030-0.042 0.053-0.040c-0.002-0.025-0.003-0.054-0.003-0.084 0-0.12 0.015-0.236 0.044-0.347l-0.002 0.010c0.055 0.013 0.118 0.020 0.183 0.020 0.084 0 0.165-0.013 0.242-0.036l-0.006 0.002c0.014 0.016 0.030 0.030 0.048 0.041l0.001 0c-0.014 0.030-0.026 0.060-0.019 0.070 0.005 0.010 0.015 0.016 0.027 0.016s0.022-0.006 0.027-0.016l0-0 0.014-0.042 0.053 0.012c0 0.028 0 0.053 0 0.058 0.005 0.004 0.012 0.006 0.019 0.006 0.016 0 0.029-0.012 0.032-0.027l0-0v-0.037l0.072-0.014-0.149 0.247-0.074 0.030 0.098 0.049 0.086-0.035c0.048-0.116 0.128-0.21 0.23-0.273l0.002-0.001s0.093 0.233-0.023 0.34l0.102 0.056 0.049-0.1c-0.002-0.019-0.003-0.042-0.003-0.065 0-0.094 0.018-0.184 0.051-0.266l-0.002 0.005z"></path>
<path fill="#4173cd" d="M25.492 17.456c-0.026-0.026-0.046-0.059-0.055-0.096l-0-0.002c-0.012-0.056-0.023-0.079-0.072-0.095 0.016 0.022 0.026 0.049 0.026 0.078 0 0.004-0 0.009-0.001 0.013l0-0.001c0 0.056 0 0.13 0.030 0.156z"></path>
<path fill="#4173cd" d="M25.876 17.612c-0.043 0.129-0.124 0.235-0.231 0.308l-0.002 0.001-0.060-0.026c0.094-0.079 0.166-0.18 0.21-0.295l0.002-0.005z"></path>
<path fill="#4173cd" d="M25.585 17.505s0.077-0.033 0.056-0.098-0.019-0.114 0.021-0.147c0.003 0.034 0.016 0.065 0.035 0.091l-0-0c0.019 0.024 0.031 0.054 0.031 0.087s-0.012 0.064-0.031 0.087l0-0c-0.013 0.009-0.028 0.014-0.045 0.014-0.027 0-0.052-0.014-0.066-0.034l-0-0z"></path>
<path fill="#4173cd" d="M25.585 18.093v0c-0.004-0.003-0.006-0.008-0.006-0.014s0.002-0.011 0.006-0.014l0-0 0.026-0.053c0.005-0.009 0.007-0.020 0.007-0.031 0-0.025-0.013-0.047-0.033-0.059l-0-0c-0.009-0.005-0.020-0.008-0.032-0.008-0.027 0-0.050 0.015-0.061 0.038l-0 0-0.028 0.056c-0.004 0.003-0.009 0.005-0.014 0.005s-0.010-0.002-0.014-0.005l0 0-0.016 0.033 0.053 0.028c-0.003 0.005-0.006 0.010-0.006 0.017 0 0.015 0.012 0.028 0.028 0.028 0.012 0 0.023-0.008 0.026-0.019l0-0 0.053 0.028z"></path>
<path fill="#4173cd" d="M25.799 18.477l0.065 0.014-0.056 0.17-0.056-0.088z"></path>
<path fill="#4173cd" d="M25.96 18.663l-0.040 0.072h0.158v-0.037z"></path>
<path fill="#4173cd" d="M26.748 18.612v0.042h-0.181l0.086-0.088z"></path>
<path fill="#4173cd" d="M27.027 18.642l-0.088 0.088h0.188v-0.033z"></path>
<path fill="#ff4b55" d="M27.146 19.461l0.014-0.193s0.172-0.123 0.088-0.233-0.181-0.137-0.384-0.109-0.519 0.021-0.654 0.030-0.207 0.084-0.423 0.021l0.058-0.13c-0.060 0.004-0.115 0.019-0.166 0.041l0.003-0.001c-0.033 0.016-0.114-0.093-0.193-0.077s-0.158 0.181-0.281 0.265l0.065 0.133c0.019-0.010 0.042-0.016 0.066-0.016s0.047 0.006 0.067 0.017l-0.001-0c0.042 0.042 0.1 0.068 0.164 0.068 0.003 0 0.006-0 0.009-0h-0l0.060 0.026c-0.002 0.011-0.003 0.025-0.003 0.038 0 0.067 0.028 0.127 0.073 0.169l0 0s-0.105 0.137-0.091 0.158c0.043 0.077 0.088 0.171 0.128 0.268l0.007 0.018 0.079-0.149s-0.119-0.107-0.095-0.119 0.1-0.033 0.088-0.067 0.060 0 0.144 0.019c0 0.053 0.008 0.104 0.022 0.153l-0.001-0.004c0.026 0.039 0.041 0.087 0.041 0.138 0 0.009-0 0.017-0.001 0.025l0-0.001c-0.002 0.044-0.030 0.082-0.069 0.097l-0.001 0 0.119 0.035s0.030-0.044 0.053-0.040c-0.002-0.025-0.003-0.054-0.003-0.083 0-0.121 0.015-0.238 0.044-0.35l-0.002 0.010c0.063 0.017 0.135 0.026 0.209 0.026s0.146-0.010 0.215-0.028l-0.006 0.001c0.014 0.016 0.030 0.029 0.048 0.039l0.001 0c-0.014 0.033-0.026 0.063-0.019 0.070 0.005 0.010 0.015 0.016 0.027 0.016s0.022-0.006 0.027-0.016l0-0 0.014-0.044 0.053 0.012c0 0.028 0 0.053 0 0.058 0.005 0.004 0.012 0.006 0.019 0.006 0.016 0 0.029-0.012 0.032-0.027l0-0v-0.037l0.072-0.014-0.149 0.247-0.074 0.030 0.098 0.049 0.086-0.035c0.047-0.115 0.128-0.209 0.23-0.271l0.003-0.001s0.093 0.219-0.023 0.337l0.102 0.058 0.049-0.102c-0.002-0.019-0.003-0.042-0.003-0.065 0-0.094 0.018-0.184 0.051-0.266l-0.002 0.005z"></path>
<path fill="#4173cd" d="M25.492 18.833c-0.026-0.026-0.046-0.059-0.055-0.096l-0-0.001c-0.012-0.053-0.023-0.079-0.072-0.095 0.016 0.022 0.026 0.050 0.026 0.080 0 0.004-0 0.008-0 0.012l0-0c0 0.056 0 0.13 0.030 0.156z"></path>
<path fill="#4173cd" d="M25.876 18.989c-0.042 0.129-0.124 0.235-0.231 0.308l-0.002 0.001-0.060-0.026c0.094-0.078 0.166-0.179 0.208-0.295l0.001-0.005z"></path>
<path fill="#4173cd" d="M25.585 18.882s0.077-0.030 0.056-0.098-0.019-0.114 0.021-0.147c0.003 0.034 0.016 0.065 0.035 0.091l-0-0c0.019 0.024 0.031 0.054 0.031 0.087s-0.012 0.064-0.031 0.087l0-0c-0.013 0.009-0.028 0.014-0.045 0.014-0.027 0-0.052-0.014-0.066-0.034l-0-0z"></path>
<path fill="#4173cd" d="M25.585 19.489v0c-0.004-0.003-0.006-0.008-0.006-0.014s0.002-0.011 0.006-0.014l0-0 0.026-0.053c0.005-0.009 0.007-0.019 0.007-0.030 0-0.024-0.013-0.046-0.033-0.058l-0-0c-0.010-0.006-0.021-0.010-0.034-0.010-0.026 0-0.048 0.015-0.059 0.037l-0 0-0.028 0.056c-0.003 0.004-0.008 0.006-0.014 0.006s-0.011-0.002-0.014-0.006l-0-0-0.016 0.035 0.053 0.026c-0.002 0.004-0.003 0.008-0.003 0.013 0 0.011 0.006 0.020 0.015 0.024l0 0c0.003 0.001 0.007 0.002 0.011 0.002 0.011 0 0.021-0.006 0.027-0.016l0-0 0.053 0.026z"></path>
<path fill="#4173cd" d="M25.799 19.854l0.065 0.014-0.056 0.17-0.056-0.088z"></path>
<path fill="#4173cd" d="M25.96 20.042l-0.040 0.072h0.158v-0.037z"></path>
<path fill="#4173cd" d="M26.748 19.989v0.042h-0.181l0.086-0.088z"></path>
<path fill="#4173cd" d="M27.027 20.019l-0.088 0.088h0.188v-0.033z"></path>
</svg>
