<!-- Generated by IcoMoon.io -->
<svg version="1.1" xmlns="http://www.w3.org/2000/svg" width="49" height="32" viewBox="0 0 49 32">
<title>al</title>
<path fill="#ff4b55" d="M47.998 31.998h-47.998v-31.998h48.837v31.163c-0.003 0.462-0.377 0.835-0.84 0.835 0 0 0 0 0 0v0z"></path>
<path fill="#464655" d="M33.626 19.986c-0.081-0.055-0.181-0.088-0.288-0.088-0.19 0-0.356 0.102-0.446 0.255l-0.001 0.002-1.342 0.158 0.67-0.565c0.488 0.040 0.553-0.105 0.686-0.302s0.686-0.107 0.686-0.107c-0.079-0.605-0.842-0.26-0.842-0.26-0.041-0.010-0.088-0.015-0.136-0.015-0.28 0-0.515 0.188-0.588 0.444l-0.001 0.004-0.96 0.74-2.114-0.626c0.179-0.171 0.322-0.379 0.415-0.612l0.004-0.012c0.040-0.233-1.563-0.649-2.053-1.163s-0.667-1.316-0.44-1.528 0.421 0.386 0.667 0.877 0.698 0.877 1 0.633-0.314-0.614-0.595-1.14c-0.056-0.071-0.090-0.162-0.090-0.26 0-0.232 0.188-0.421 0.421-0.421 0.038 0 0.074 0.005 0.109 0.014l-0.003-0.001c0.233 0.051 0.367 1.14 0.912 1.702s1.037 0.465 1.088 0.105-0.895-0.784-1.091-1.079-0.233-0.886 0.074-0.902 1.472 1.707 2.456 2.367c1.070 0.721 1.928-0.123 1.788-0.465s-0.788-0.212-1.544-0.402c-0.791-0.353-1.408-0.977-1.745-1.75l-0.008-0.022c-0.233-0.56-0.040-0.56 0.093-0.507 0.469 0.506 0.99 0.952 1.559 1.334l0.032 0.020c0.217 0.168 0.493 0.269 0.793 0.269 0.357 0 0.681-0.143 0.916-0.376l-0 0c0.079-0.13 0.381-0.721-0.605-0.581-0.066 0.006-0.143 0.009-0.22 0.009-0.79 0-1.502-0.335-2.002-0.87l-0.001-0.002c-0.465-0.358-0.644-0.842-0.435-1.040s0.905 0.698 1.958 0.974c0.965 0.258 1.36-0.158 1.333-0.54s-0.251-0.233-1.342-0.33c-0.785-0.145-1.449-0.581-1.889-1.189l-0.006-0.009c-0.040-0.065-0.026-0.433 0.526-0.077 0.603 0.34 1.323 0.54 2.090 0.54 0.011 0 0.022-0 0.033-0h-0.002c0.579-0.026 0.698-0.802 0.421-0.93s-0.344 0.065-0.972 0.198c-0.81-0.019-1.545-0.325-2.111-0.82l0.004 0.003c-0.288-0.305 0.026-0.502 0.17-0.465 0.562 0.291 1.219 0.487 1.915 0.55l0.020 0.001c0.594-0.013 1.081-0.457 1.162-1.031l0.001-0.006c-0.026-0.233-0.263-0.435-0.619-0.198-0.342 0.26-0.775 0.417-1.245 0.417-0.135 0-0.268-0.013-0.396-0.038l0.013 0.002c-0.788-0.133-1.163-0.658-1.053-0.856s0.87 0.144 2.079 0.014c0.002 0 0.005 0 0.007 0 0.642 0 1.163-0.521 1.163-1.163 0-0.086-0.009-0.171-0.027-0.252l0.001 0.008c-0.116-0.212-0.407-0.144-0.816 0.233-0.443 0.298-0.989 0.475-1.575 0.475-0.085 0-0.169-0.004-0.252-0.011l0.011 0.001c-0.619 0-0.633-0.302-0.54-0.512s0.749-0.158 1.672-0.449c0.736-0.231 1.313-0.774 1.587-1.469l0.006-0.017c0.025-0.066 0.040-0.143 0.040-0.223 0-0.267-0.162-0.495-0.394-0.592l-0.004-0.002c-0.144 0-0.051-0.212-0.684 0.698-0.6 0.626-1.383 1.074-2.262 1.258l-0.028 0.005c-0.068-0.131-0.172-0.236-0.299-0.303l-0.004-0.002c-0.941 0.273-1.762 0.679-2.491 1.205l0.024-0.016c0.055 0.177 0.086 0.381 0.086 0.592 0 0.276-0.054 0.539-0.152 0.78l0.005-0.014c-0.381 0.765-1.693 0.288-1.335-0.93 0.415-0.968 1.328-1.649 2.407-1.725l0.009-0c0.97-0.107 1.021-0.465 1.021-0.465s-1.019 0.333-1.037-0.123c0.172 0.029 0.371 0.045 0.573 0.045 0.168 0 0.333-0.011 0.495-0.033l-0.019 0.002c0.781-0.070 1.219-0.623 0.872-0.742s-0.2 0.233-0.795 0.514c-0.177 0.076-0.382 0.12-0.598 0.12-0.176 0-0.346-0.029-0.504-0.084l0.011 0.003c0.205-0.449 1.072-0.219 1.072-0.219 0-0.784-1.030-0.505-1.030-0.505-0.465-0.981-3.123 0.16-3.123 0.16l0.633 0.507c-0.922 0.542-1.596 1.422-1.855 2.466l-0.006 0.027c-0.267-1.070-0.94-1.95-1.842-2.483l-0.018-0.010 0.633-0.507s-2.667-1.142-3.123-0.16c0 0-1.040-0.279-1.030 0.505 0 0 0.867-0.233 1.072 0.219-0.147 0.051-0.316 0.080-0.493 0.080-0.216 0-0.421-0.044-0.608-0.124l0.010 0.004c-0.595-0.277-0.444-0.635-0.793-0.514s0.088 0.672 0.872 0.742c0.142 0.020 0.307 0.031 0.474 0.031 0.201 0 0.399-0.016 0.592-0.047l-0.021 0.003c-0.016 0.465-1.037 0.123-1.037 0.123s0.051 0.367 1.021 0.465c1.089 0.076 2.001 0.758 2.409 1.707l0.007 0.018c0.358 1.207-0.953 1.686-1.335 0.93-0.092-0.226-0.146-0.488-0.146-0.763 0-0.212 0.032-0.417 0.092-0.61l-0.004 0.015c-0.7-0.511-1.513-0.921-2.389-1.185l-0.057-0.015c-0.131 0.069-0.235 0.173-0.3 0.301l-0.002 0.004c-0.908-0.189-1.69-0.636-2.289-1.261l-0.001-0.002c-0.633-0.907-0.54-0.698-0.684-0.698-0.233 0.1-0.394 0.327-0.394 0.592 0 0.081 0.015 0.158 0.042 0.229l-0.001-0.004c0.278 0.713 0.856 1.257 1.575 1.481l0.018 0.005c0.93 0.291 1.579 0.233 1.67 0.449s0.079 0.512-0.54 0.512c-0.072 0.007-0.156 0.010-0.241 0.010-0.587 0-1.132-0.178-1.586-0.482l0.010 0.006c-0.407-0.381-0.698-0.449-0.816-0.233-0.017 0.073-0.026 0.158-0.026 0.244 0 0.642 0.521 1.163 1.163 1.163 0.003 0 0.005 0 0.008-0h-0c1.212 0.13 1.977-0.212 2.079-0.014s-0.265 0.723-1.053 0.856c-0.115 0.023-0.247 0.036-0.382 0.036-0.47 0-0.904-0.157-1.251-0.421l0.005 0.004c-0.354-0.233-0.593-0.040-0.619 0.198 0.083 0.579 0.569 1.022 1.161 1.037l0.002 0c0.715-0.063 1.371-0.26 1.962-0.565l-0.030 0.014c0.144-0.026 0.465 0.17 0.17 0.465-0.558 0.489-1.288 0.794-2.089 0.816l-0.005 0c-0.633-0.133-0.698-0.33-0.977-0.198s-0.158 0.907 0.421 0.93c0.010 0 0.021 0 0.033 0 0.766 0 1.486-0.2 2.11-0.551l-0.022 0.011c0.551-0.358 0.565 0.014 0.526 0.077-0.446 0.616-1.109 1.052-1.875 1.195l-0.018 0.003c-1.093 0.107-1.316-0.051-1.344 0.33s0.367 0.798 1.333 0.54c1.053-0.279 1.747-1.163 1.958-0.974s0.026 0.684-0.435 1.040c-0.501 0.537-1.213 0.872-2.003 0.872-0.078 0-0.154-0.003-0.23-0.010l0.010 0.001c-0.986-0.14-0.684 0.451-0.605 0.581 0.236 0.232 0.56 0.375 0.918 0.375 0.3 0 0.576-0.101 0.797-0.271l-0.003 0.002c0.6-0.403 1.122-0.849 1.588-1.348l0.005-0.005c0.13-0.053 0.321-0.053 0.091 0.507-0.344 0.796-0.962 1.42-1.732 1.764l-0.021 0.009c-0.753 0.193-1.395 0.053-1.544 0.402s0.721 1.195 1.788 0.465c0.984-0.66 2.142-2.386 2.458-2.367s0.265 0.602 0.072 0.898-1.144 0.73-1.091 1.084 0.544 0.465 1.088-0.105 0.684-1.651 0.912-1.705c0.032-0.009 0.069-0.014 0.106-0.014 0.232 0 0.421 0.188 0.421 0.421 0 0.099-0.034 0.189-0.091 0.261l0.001-0.001c-0.279 0.528-0.893 0.895-0.595 1.142s0.753-0.142 1-0.633 0.437-1.088 0.667-0.877 0.053 1.019-0.44 1.528-2.093 0.914-2.051 1.163c0.096 0.245 0.237 0.453 0.416 0.623l0.001 0.001-2.114 0.626-0.96-0.74c-0.074-0.261-0.311-0.45-0.592-0.45-0.047 0-0.094 0.005-0.138 0.016l0.004-0.001s-0.763-0.342-0.84 0.265c0 0 0.551-0.091 0.684 0.107s0.198 0.342 0.686 0.302l0.67 0.565-1.342-0.158c-0.090-0.156-0.256-0.259-0.446-0.259-0.108 0-0.208 0.033-0.291 0.090l0.002-0.001c-0.057-0.022-0.124-0.035-0.193-0.035-0.252 0-0.464 0.168-0.531 0.398l-0.001 0.004c0.118-0.026 0.253-0.041 0.392-0.041 0.085 0 0.169 0.006 0.251 0.016l-0.010-0.001s0.198 0.449 0.83 0.184l1.33 0.067-0.751 0.367s-0.947-0.302-0.907 0.488c-0.078 0.088-0.125 0.204-0.125 0.332 0 0.113 0.037 0.218 0.101 0.302l-0.001-0.001c0.034-0.202 0.145-0.374 0.3-0.487l0.002-0.002c0.060 0.020 0.128 0.032 0.199 0.032 0.273 0 0.507-0.169 0.601-0.409l0.002-0.004 0.963-0.579 0.947 0.465s-0.028 0.512 0.67 0.302c0.134 0.091 0.238 0.215 0.303 0.362l0.002 0.005s0.302-0.328-0.184-0.698c0 0-0.121-0.449-0.698-0.277l-0.54-0.277 1.998-0.593c0.344 0.33 0.716 0.6 0.849 0.553 0.298-0.154 0.523-0.411 0.632-0.724l0.003-0.009c0.179-0.377 0.981-1.686 1.377-1.674s0.577 0.328 0.477 0.893c-0.246 0.774-0.728 1.414-1.36 1.853l-0.012 0.008c-0.498 0.233-0.579 0.328-1.040 0.288s-0.619 0.16-0.512 0.421 0.623 0.433 1.13 0.233c0.553-0.212 0.765-0.498 0.972-0.328s-0.233 0.788-0.814 0.974-1.040 0.067-0.949 0.435 0.726 0.395 1.133 0.158 0.867-0.895 0.986-0.686c0.025 0.081 0.039 0.174 0.039 0.27 0 0.316-0.156 0.597-0.395 0.768l-0.003 0.002c-0.395 0.291-0.842 0.121-0.93 0.381-0.13 0.381 0.328 0.633 0.686 0.488 0.415-0.221 0.742-0.56 0.941-0.973l0.006-0.013c0.184-0.395 0.526-0.053 0.421 0.314-0.047 0.531-0.342 0.984-0.767 1.247l-0.007 0.004 1.395 2.158 1.395-2.158c-0.433-0.265-0.728-0.72-0.769-1.246l-0-0.006c-0.107-0.367 0.233-0.698 0.419-0.314 0.205 0.426 0.533 0.766 0.937 0.98l0.012 0.006c0.354 0.144 0.816-0.107 0.684-0.488-0.091-0.26-0.54-0.091-0.93-0.381-0.242-0.17-0.398-0.448-0.398-0.763 0-0.099 0.015-0.194 0.044-0.283l-0.002 0.007c0.116-0.212 0.579 0.449 0.986 0.686s1.040 0.212 1.13-0.158-0.354-0.251-0.947-0.435-1.026-0.802-0.816-0.974 0.421 0.116 0.972 0.328c0.509 0.195 1.026 0.026 1.13-0.233s-0.051-0.465-0.512-0.421-0.54-0.063-1.040-0.288c-0.644-0.446-1.125-1.087-1.363-1.835l-0.007-0.025c-0.098-0.565 0.079-0.884 0.465-0.893s1.2 1.298 1.379 1.674c0.111 0.321 0.336 0.579 0.625 0.729l0.007 0.003c0.13 0.047 0.505-0.233 0.851-0.553l1.995 0.593-0.54 0.277c-0.579-0.17-0.698 0.277-0.698 0.277-0.486 0.381-0.184 0.698-0.184 0.698 0.066-0.152 0.171-0.277 0.302-0.366l0.003-0.002c0.698 0.212 0.672-0.302 0.672-0.302l0.947-0.465 0.96 0.579c0.096 0.244 0.33 0.413 0.603 0.413 0.071 0 0.14-0.012 0.204-0.033l-0.005 0.001c0.159 0.114 0.27 0.286 0.302 0.484l0.001 0.004c0.063-0.083 0.101-0.188 0.101-0.302 0-0.127-0.047-0.243-0.125-0.331l0.001 0.001c0.037-0.788-0.909-0.488-0.909-0.488l-0.749-0.367 1.328-0.067c0.633 0.265 0.83-0.184 0.83-0.184 0.072-0.010 0.156-0.015 0.241-0.015 0.139 0 0.274 0.015 0.404 0.043l-0.012-0.002c-0.071-0.227-0.28-0.389-0.527-0.389-0.065 0-0.128 0.011-0.186 0.032l0.004-0.001z"></path>
</svg>
