<!-- Generated by IcoMoon.io -->
<svg version="1.1" xmlns="http://www.w3.org/2000/svg" width="48" height="32" viewBox="0 0 48 32">
<title>az</title>
<path fill="#d80027" d="M0 0h48v32h-48v-32z"></path>
<path fill="#338af3" d="M0 0h48v10.667h-48v-10.667z"></path>
<path fill="#6da544" d="M0 21.333h48v10.667h-48v-10.667z"></path>
<path fill="#f0f0f0" d="M24.299 19.899c-2.152-0.002-3.897-1.747-3.897-3.899s1.746-3.899 3.899-3.899c0.679 0 1.318 0.174 1.874 0.479l-0.020-0.010c-0.865-0.848-2.051-1.371-3.359-1.371-2.651 0-4.8 2.149-4.8 4.8s2.149 4.8 4.8 4.8c1.308 0 2.494-0.523 3.36-1.372l-0.001 0.001c-0.536 0.297-1.176 0.473-1.856 0.473h-0z"></path>
<path fill="#f0f0f0" d="M27.301 13.301l0.517 1.454 1.392-0.663-0.663 1.392 1.454 0.517-1.454 0.517 0.663 1.392-1.392-0.663-0.517 1.454-0.517-1.454-1.392 0.663 0.663-1.392-1.454-0.517 1.454-0.517-0.663-1.392 1.392 0.663z"></path>
</svg>
