<!-- Generated by IcoMoon.io -->
<svg version="1.1" xmlns="http://www.w3.org/2000/svg" width="49" height="32" viewBox="0 0 49 32">
<title>ba</title>
<path fill="#41479b" d="M48.002 32h-47.158c0 0 0 0 0 0-0.465 0-0.843-0.377-0.844-0.842v-30.316c0.001-0.465 0.379-0.842 0.844-0.842 0 0 0 0 0 0h47.158c0.465 0 0.842 0.377 0.842 0.842v0 30.316c0 0.465-0.377 0.842-0.842 0.842v0z"></path>
<path fill="#ffe15a" d="M42.099 0v32.002l-32.002-32.002z"></path>
<path fill="#f5f5f5" d="M19.782 11.916l0.486 1.454h1.533c0.006-0.001 0.014-0.002 0.021-0.002 0.068 0 0.123 0.055 0.123 0.123 0 0.049-0.028 0.091-0.069 0.111l-0.001 0-1.235 0.912 0.465 1.463c0.004 0.011 0.006 0.025 0.006 0.038 0 0.068-0.055 0.123-0.123 0.123-0.028 0-0.053-0.009-0.074-0.025l0 0-1.247-0.891-1.249 0.891c-0.020 0.015-0.046 0.024-0.074 0.024-0.068 0-0.123-0.055-0.123-0.123 0-0.014 0.002-0.027 0.006-0.039l-0 0.001 0.465-1.463-1.233-0.912c-0.041-0.021-0.069-0.062-0.069-0.111 0-0.068 0.055-0.123 0.123-0.123 0.006 0 0.012 0 0.018 0.001l-0.001-0h1.535l0.484-1.454c0.018-0.047 0.063-0.079 0.115-0.079s0.097 0.033 0.115 0.078l0 0.001z"></path>
<path fill="#f5f5f5" d="M16.281 8.406l0.484 1.456 1.535 0.012c0.005-0.001 0.011-0.001 0.018-0.001 0.068 0 0.123 0.055 0.123 0.123 0 0.048-0.028 0.090-0.068 0.11l-0.001 0-1.235 0.909 0.465 1.463c0.004 0.012 0.006 0.025 0.006 0.039 0 0.068-0.055 0.123-0.123 0.123-0.027 0-0.052-0.009-0.072-0.023l0 0-1.249-0.893-1.249 0.893c-0.020 0.014-0.045 0.023-0.072 0.023-0.068 0-0.123-0.055-0.123-0.123 0-0.014 0.002-0.027 0.007-0.040l-0 0.001 0.465-1.463-1.235-0.909c-0.041-0.021-0.069-0.062-0.069-0.111 0-0.068 0.055-0.123 0.123-0.123 0.006 0 0.012 0 0.018 0.001l-0.001-0 1.535-0.012 0.486-1.456c0.018-0.047 0.063-0.079 0.115-0.079s0.097 0.033 0.115 0.078l0 0.001z"></path>
<path fill="#f5f5f5" d="M12.765 4.896l0.486 1.456h1.533c0.005-0.001 0.011-0.001 0.018-0.001 0.068 0 0.123 0.055 0.123 0.123 0 0.048-0.028 0.090-0.068 0.11l-0.001 0-1.233 0.912 0.465 1.463c0.004 0.011 0.006 0.025 0.006 0.038 0 0.068-0.055 0.123-0.123 0.123-0.028 0-0.053-0.009-0.074-0.025l0 0-1.249-0.893-1.247 0.893c-0.020 0.015-0.046 0.024-0.074 0.024-0.068 0-0.123-0.055-0.123-0.123 0-0.014 0.002-0.027 0.006-0.039l-0 0.001 0.465-1.463-1.233-0.912c-0.041-0.021-0.069-0.062-0.069-0.111 0-0.068 0.055-0.123 0.123-0.123 0.006 0 0.012 0 0.018 0.001l-0.001-0h1.533l0.486-1.456c0.018-0.047 0.063-0.079 0.115-0.079s0.097 0.032 0.115 0.078l0 0.001z"></path>
<path fill="#f5f5f5" d="M9.255 1.389l0.486 1.454 1.535 0.014c0.005-0.001 0.011-0.001 0.018-0.001 0.068 0 0.123 0.055 0.123 0.123 0 0.048-0.028 0.090-0.068 0.11l-0.001 0-1.235 0.912 0.465 1.463c0.004 0.011 0.006 0.025 0.006 0.038 0 0.068-0.055 0.123-0.123 0.123-0.028 0-0.053-0.009-0.074-0.025l0 0-1.247-0.891-1.249 0.891c-0.020 0.014-0.044 0.022-0.071 0.022-0.068 0-0.123-0.055-0.123-0.123 0-0.013 0.002-0.025 0.006-0.037l-0 0.001 0.465-1.463-1.235-0.912c-0.041-0.021-0.069-0.062-0.069-0.111 0-0.068 0.055-0.123 0.123-0.123 0.006 0 0.012 0 0.018 0.001l-0.001-0 1.535-0.014 0.484-1.454c0.018-0.047 0.063-0.079 0.115-0.079s0.097 0.032 0.115 0.078l0 0.001z"></path>
<path fill="#f5f5f5" d="M33.819 25.95l0.484 1.456 1.535 0.012c0.005-0.001 0.011-0.001 0.018-0.001 0.068 0 0.123 0.055 0.123 0.123 0 0.048-0.028 0.090-0.068 0.11l-0.001 0-1.235 0.912 0.465 1.461c0.004 0.012 0.006 0.025 0.006 0.039 0 0.068-0.055 0.123-0.123 0.123-0.027 0-0.052-0.009-0.072-0.023l0 0-1.249-0.893-1.247 0.893c-0.020 0.013-0.044 0.021-0.070 0.021-0.069 0-0.126-0.056-0.126-0.126 0-0.013 0.002-0.025 0.005-0.036l-0 0.001 0.465-1.461-1.235-0.912c-0.042-0.020-0.070-0.062-0.070-0.111 0-0.068 0.055-0.123 0.123-0.123 0.007 0 0.015 0.001 0.022 0.002l-0.001-0 1.533-0.012 0.486-1.456c0.018-0.047 0.063-0.079 0.115-0.079s0.097 0.032 0.115 0.078l0 0.001z"></path>
<path fill="#f5f5f5" d="M30.309 22.44l0.486 1.456 1.533 0.012c0.005-0.001 0.011-0.001 0.018-0.001 0.068 0 0.123 0.055 0.123 0.123 0 0.048-0.028 0.090-0.068 0.11l-0.001 0-1.233 0.912 0.465 1.463c0.004 0.011 0.006 0.025 0.006 0.038 0 0.068-0.055 0.123-0.123 0.123-0.028 0-0.053-0.009-0.074-0.025l0 0-1.247-0.891-1.249 0.891c-0.020 0.015-0.046 0.024-0.074 0.024-0.068 0-0.123-0.055-0.123-0.123 0-0.014 0.002-0.027 0.006-0.039l-0 0.001 0.465-1.463-1.233-0.912c-0.041-0.021-0.069-0.062-0.069-0.111 0-0.068 0.055-0.123 0.123-0.123 0.006 0 0.012 0 0.018 0.001l-0.001-0 1.533-0.012 0.486-1.456c0.018-0.047 0.063-0.079 0.115-0.079s0.097 0.032 0.115 0.078l0 0.001z"></path>
<path fill="#f5f5f5" d="M26.799 18.933l0.486 1.454 1.535 0.014c0.005-0.001 0.011-0.001 0.018-0.001 0.068 0 0.123 0.055 0.123 0.123 0 0.048-0.028 0.090-0.068 0.11l-0.001 0-1.235 0.909 0.465 1.463c0.004 0.011 0.006 0.025 0.006 0.038 0 0.068-0.055 0.123-0.123 0.123-0.028 0-0.053-0.009-0.074-0.025l0 0-1.247-0.891-1.249 0.891c-0.020 0.014-0.044 0.022-0.071 0.022-0.068 0-0.123-0.055-0.123-0.123 0-0.013 0.002-0.025 0.006-0.037l-0 0.001 0.465-1.463-1.235-0.909c-0.041-0.021-0.069-0.062-0.069-0.111 0-0.068 0.055-0.123 0.123-0.123 0.006 0 0.012 0 0.018 0.001l-0.001-0 1.535-0.014 0.484-1.454c0.018-0.047 0.063-0.079 0.115-0.079s0.097 0.032 0.115 0.078l0 0.001z"></path>
<path fill="#f5f5f5" d="M23.292 15.423l0.484 1.456 1.535 0.012c0.005-0.001 0.011-0.001 0.018-0.001 0.068 0 0.123 0.055 0.123 0.123 0 0.048-0.028 0.090-0.068 0.11l-0.001 0-1.233 0.912 0.465 1.463c0.004 0.011 0.006 0.025 0.006 0.038 0 0.068-0.055 0.123-0.123 0.123-0.028 0-0.053-0.009-0.074-0.025l0 0-1.249-0.893-1.247 0.893c-0.020 0.015-0.046 0.024-0.074 0.024-0.068 0-0.123-0.055-0.123-0.123 0-0.014 0.002-0.027 0.006-0.039l-0 0.001 0.465-1.463-1.235-0.912c-0.042-0.020-0.070-0.062-0.070-0.111 0-0.068 0.055-0.123 0.123-0.123 0.007 0 0.015 0.001 0.022 0.002l-0.001-0 1.533-0.012 0.486-1.456c0.018-0.047 0.063-0.079 0.115-0.079s0.097 0.033 0.115 0.078l0 0.001z"></path>
<path fill="#f5f5f5" d="M4.003 0l0.651 0.481-0.465 1.461c-0.003 0.011-0.005 0.023-0.005 0.035 0 0.069 0.056 0.126 0.126 0.126 0.026 0 0.051-0.008 0.071-0.022l-0 0 1.247-0.893 1.249 0.893c0.020 0.014 0.045 0.023 0.072 0.023 0.068 0 0.123-0.055 0.123-0.123 0-0.014-0.002-0.027-0.007-0.040l0 0.001-0.465-1.461 0.654-0.481z"></path>
<path fill="#f5f5f5" d="M39.345 30.925l-1.533-0.012-0.486-1.454c-0.017-0.048-0.063-0.082-0.116-0.082s-0.099 0.034-0.116 0.082l-0 0.001-0.484 1.454-1.535 0.012c-0.005-0.001-0.011-0.001-0.018-0.001-0.068 0-0.123 0.055-0.123 0.123 0 0.048 0.028 0.090 0.068 0.11l0.001 0 1.163 0.851h2.112l1.163-0.851c0.046-0.019 0.078-0.064 0.078-0.116 0-0.069-0.056-0.126-0.126-0.126-0.017 0-0.034 0.003-0.048 0.010l0.001-0z"></path>
</svg>
