<!-- Generated by IcoMoon.io -->
<svg version="1.1" xmlns="http://www.w3.org/2000/svg" width="48" height="32" viewBox="0 0 48 32">
<title>by</title>
<path fill="#6da544" d="M0.053 0h48.002v32h-48.002v-32z"></path>
<path fill="#a2001d" d="M0 21.565h48.002v-21.565h-48.002z"></path>
<path fill="#f0f0f0" d="M9.382 21.565v-21.565h-9.382v32.002h9.382z"></path>
<path fill="#a2001d" d="M6.435 14.84l-1.739-3.156 1.739-3.105 1.739 3.105z"></path>
<path fill="#a2001d" d="M2.957 14.84l-1.739-3.156 1.739-3.105 1.739 3.105z"></path>
<path fill="#a2001d" d="M6.435 23.421l-1.739-3.156 1.739-3.105 1.739 3.105z"></path>
<path fill="#a2001d" d="M2.957 23.421l-1.739-3.156 1.739-3.105 1.739 3.105z"></path>
<path fill="#a2001d" d="M6.435 32l-1.739-3.156 1.739-3.105 1.739 3.105z"></path>
<path fill="#a2001d" d="M2.957 32l-1.739-3.156 1.739-3.105 1.739 3.105z"></path>
<path fill="#a2001d" d="M6.435 6.261l-1.739-3.156 1.739-3.105 1.739 3.105z"></path>
<path fill="#a2001d" d="M2.957 6.261l-1.739-3.156 1.739-3.105 1.739 3.105z"></path>
</svg>
