<!-- Generated by IcoMoon.io -->
<svg version="1.1" xmlns="http://www.w3.org/2000/svg" width="48" height="32" viewBox="0 0 48 32">
<title>cn</title>
<path fill="#d80027" d="M0-0.002h48v32h-48v-32z"></path>
<path fill="#ffda44" d="M16.775 9.771l1.371 4.229h4.446l-3.598 2.613 1.371 4.229-3.598-2.613-3.598 2.613 1.371-4.229-3.598-2.613h4.446z"></path>
<path fill="#ffda44" d="M25.435 23.835l-1.349-0.981-1.349 0.981 0.514-1.586-1.349-0.981h1.669l0.514-1.586 0.514 1.586h1.666l-1.349 0.981z"></path>
<path fill="#ffda44" d="M28.953 18.992h-1.666l-0.514 1.586-0.514-1.586h-1.669l1.349-0.981-0.514-1.586 1.349 0.981 1.349-0.981-0.514 1.586z"></path>
<path fill="#ffda44" d="M28.953 13.006l-1.349 0.981 0.514 1.586-1.349-0.981-1.349 0.981 0.514-1.586-1.349-0.981h1.669l0.514-1.586 0.514 1.586z"></path>
<path fill="#ffda44" d="M25.435 8.16l-0.514 1.586 1.349 0.981h-1.666l-0.514 1.586-0.514-1.586h-1.666l1.349-0.981-0.514-1.586 1.349 0.981z"></path>
</svg>
