<!-- Generated by IcoMoon.io -->
<svg version="1.1" xmlns="http://www.w3.org/2000/svg" width="49" height="32" viewBox="0 0 49 32">
<title>cy</title>
<path fill="#f5f5f5" d="M45.186 32h-41.527c-0.001 0-0.002 0-0.002 0-2.019 0-3.656-1.637-3.656-3.656 0 0 0 0 0 0v0-24.687c0-2.019 1.637-3.656 3.656-3.656 0.001 0 0.002 0 0.002 0h41.527c0.001 0 0.002 0 0.002 0 2.019 0 3.656 1.637 3.656 3.656 0 0 0 0 0 0v0 24.687c0 2.019-1.637 3.656-3.656 3.656-0.001 0-0.002 0-0.002 0h0z"></path>
<path fill="#73af00" d="M23.317 25.974c0.419-0.306 0.93-0.512 1.484-0.573l0.014-0.001c0.626-0.114 1.289-0.309 1.628-0.402-0.414 0.188-0.933 0.382-1.466 0.546l-0.1 0.026c-0.381 0.116-1.568 0.405-1.568 0.405z"></path>
<path fill="#73af00" d="M25.841 24.994c-0.025-0.113-0.040-0.242-0.040-0.375 0-0.676 0.375-1.264 0.928-1.567l0.009-0.005c0.003 0.045 0.005 0.098 0.005 0.151 0 0.733-0.352 1.384-0.897 1.792l-0.006 0.004z"></path>
<path fill="#73af00" d="M27.057 24.585c-0.381-0.658 0.261-1.503 0.74-1.914 0.020 0.105 0.031 0.225 0.031 0.348 0 0.636-0.3 1.201-0.766 1.563l-0.005 0.003z"></path>
<path fill="#73af00" d="M28.178 24.078c-0.405-0.563 0.077-1.544 0.593-1.935 0.046 0.154 0.073 0.331 0.073 0.515 0 0.57-0.258 1.079-0.663 1.418l-0.003 0.002z"></path>
<path fill="#73af00" d="M29.307 23.371c-0.096-0.197-0.151-0.429-0.151-0.673 0-0.488 0.223-0.925 0.572-1.213l0.003-0.002c0.384 0.442 0.056 1.396-0.423 1.889z"></path>
<path fill="#73af00" d="M30.207 22.664c-0.055-0.171-0.086-0.368-0.086-0.573 0-0.58 0.254-1.1 0.657-1.456l0.002-0.002c0.057 0.173 0.089 0.372 0.089 0.579 0 0.578-0.255 1.097-0.659 1.45l-0.002 0.002z"></path>
<path fill="#73af00" d="M30.935 22.475c-0.091-0.716 1.163-1.512 1.675-1.489-0.056 0.584-0.591 1.228-1.675 1.489z"></path>
<path fill="#73af00" d="M30.223 23.285c0.421-0.342 0.964-0.549 1.555-0.549 0.207 0 0.408 0.025 0.6 0.073l-0.017-0.004c-0.107 0.354-1.456 1.121-2.138 0.479z"></path>
<path fill="#73af00" d="M29.414 23.892c0.828-0.233 1.365-0.402 1.861 0.112-0.351 0.444-1.693 0.312-1.861-0.112z"></path>
<path fill="#73af00" d="M28.23 24.429c0.18-0.080 0.391-0.127 0.613-0.127 0.535 0 1.007 0.272 1.284 0.686l0.004 0.006c-0.148 0.042-0.318 0.066-0.494 0.066-0.558 0-1.060-0.243-1.404-0.629l-0.002-0.002z"></path>
<path fill="#73af00" d="M27.143 25.036c0.167-0.057 0.359-0.089 0.559-0.089 0.523 0 0.994 0.224 1.322 0.581l0.001 0.001c-0.196 0.109-0.43 0.173-0.679 0.173-0.505 0-0.948-0.263-1.199-0.66l-0.003-0.006z"></path>
<path fill="#73af00" d="M26.155 25.348c0.035-0.002 0.076-0.003 0.117-0.003 0.697 0 1.311 0.353 1.674 0.889l0.005 0.007c-0.121 0.035-0.26 0.055-0.404 0.055-0.629 0-1.168-0.388-1.388-0.939l-0.004-0.010z"></path>
<path fill="#73af00" d="M25.887 25.974c-0.416-0.308-0.925-0.514-1.477-0.573l-0.014-0.001c-0.626-0.114-1.289-0.309-1.64-0.402 0.408 0.183 0.929 0.377 1.462 0.543l0.108 0.029c0.386 0.116 1.561 0.405 1.561 0.405z"></path>
<path fill="#73af00" d="M23.366 24.994c0.027-0.116 0.042-0.248 0.042-0.385 0-0.674-0.378-1.26-0.933-1.557l-0.009-0.005c-0.002 0.039-0.004 0.084-0.004 0.13 0 0.739 0.352 1.396 0.898 1.812l0.006 0.004z"></path>
<path fill="#73af00" d="M22.154 24.585c0.388-0.658-0.261-1.503-0.74-1.914-0.020 0.104-0.031 0.224-0.031 0.347 0 0.636 0.3 1.202 0.766 1.564l0.004 0.003z"></path>
<path fill="#73af00" d="M21.026 24.078c0.412-0.563-0.070-1.544-0.584-1.935-0.048 0.156-0.075 0.335-0.075 0.521 0 0.566 0.255 1.073 0.656 1.412l0.003 0.002z"></path>
<path fill="#73af00" d="M19.905 23.371c0.096-0.197 0.152-0.429 0.152-0.674 0-0.488-0.222-0.924-0.57-1.213l-0.003-0.002c-0.381 0.442-0.053 1.396 0.421 1.889z"></path>
<path fill="#73af00" d="M19.005 22.664c0.056-0.173 0.088-0.371 0.088-0.578 0-0.578-0.254-1.097-0.656-1.451l-0.002-0.002c-0.059 0.175-0.093 0.377-0.093 0.587 0 0.576 0.256 1.093 0.66 1.442l0.002 0.002z"></path>
<path fill="#73af00" d="M18.284 22.475c0.095-0.716-1.163-1.512-1.668-1.489 0.053 0.584 0.581 1.228 1.668 1.489z"></path>
<path fill="#73af00" d="M18.991 23.285c-0.421-0.342-0.964-0.548-1.555-0.548-0.207 0-0.407 0.025-0.599 0.073l0.017-0.004c0.112 0.354 1.456 1.121 2.138 0.479z"></path>
<path fill="#73af00" d="M19.801 23.892c-0.83-0.233-1.365-0.402-1.861 0.112 0.344 0.444 1.693 0.312 1.861-0.112z"></path>
<path fill="#73af00" d="M20.975 24.429c-0.18-0.080-0.389-0.126-0.61-0.126-0.533 0-1.003 0.273-1.278 0.686l-0.004 0.006c0.148 0.042 0.318 0.067 0.494 0.067 0.556 0 1.055-0.244 1.395-0.63l0.002-0.002z"></path>
<path fill="#73af00" d="M22.059 25.036c-0.166-0.056-0.357-0.089-0.556-0.089-0.522 0-0.991 0.224-1.317 0.581l-0.001 0.001c0.196 0.112 0.431 0.178 0.682 0.178 0.503 0 0.944-0.266 1.189-0.665l0.003-0.006z"></path>
<path fill="#73af00" d="M23.061 25.348c-0.036-0.002-0.079-0.004-0.122-0.004-0.697 0-1.311 0.353-1.674 0.89l-0.005 0.007c1.061 0.102 1.465-0.216 1.8-0.893z"></path>
<path fill="#ffc850" d="M14.116 13.441s-0.233 0.3 0.161 1.058 0.109 1.628 0.53 1.919 0.019 0.837 0.5 1.207c0.737 0.601 1.616 1.058 2.577 1.315l0.048 0.011c0.875 0.1 1.726-0.786 2.231-0.133s0.393 1.112 0.87 1.163 0.477-0.16 0.442-0.465c0.009-0.631 0.499-1.145 1.119-1.193l0.004-0c1.092-0.005 2.131-0.228 3.076-0.629l-0.052 0.020c1.361-0.514 2.028-0.761 2.203-1.568s0.675-1.761 1.628-1.319 0.895 0.233 1.191 0.023 1.286 0.4 1.51 0.077-1.751-1.928-1.642-2.777 0.379-1.549 1.193-1.628 0.602-0.982 1.447-1.437c0.733-0.291 1.361-0.691 1.9-1.188l-0.004 0.004c0.665-0.677 2.417-2.044 2.417-2.044s-3.407 1.628-4.089 1.782-0.961 1.13-2.856 1.658-2 0.735-3.438 1.051c-0.628 0.095-1.352 0.149-2.089 0.149-1.375 0-2.706-0.189-3.969-0.541l0.104 0.025c-0.034-0.012-0.074-0.019-0.115-0.019-0.194 0-0.351 0.157-0.351 0.351 0 0.011 0 0.022 0.001 0.033l-0-0.001c0.072 0.842 0.051 2.354-0.97 2.589 0 0-1.396-1.040-2.27-0.584s-1.503 2.093-2.154 1.831-0.721-1.293-1.151-0.737z"></path>
</svg>
