<!-- Generated by IcoMoon.io -->
<svg version="1.1" xmlns="http://www.w3.org/2000/svg" width="48" height="32" viewBox="0 0 48 32">
<title>eg</title>
<path fill="#f0f0f0" d="M0 0h48v32h-48v-32z"></path>
<path fill="#d80027" d="M0 0h48v10.667h-48v-10.667z"></path>
<path fill="#000" d="M0 21.333h48v10.667h-48v-10.667z"></path>
<path fill="#ff9811" d="M30 14.153h-4.501c0-0.828-0.671-1.499-1.499-1.499s-1.499 0.671-1.499 1.499v0h-4.501c0.025 0.833 0.707 1.499 1.544 1.499 0.002 0 0.004 0 0.006 0h-0.051c0.993 0.993 1.971 1.971 2.95 2.948l0.051 0.051h2.999c0.993-0.993 1.971-1.971 2.95-2.948l0.051-0.051h-0.050c0.002 0 0.003 0 0.005 0 0.837 0 1.519-0.666 1.544-1.497l0-0.002z"></path>
</svg>
