<!-- Generated by IcoMoon.io -->
<svg version="1.1" xmlns="http://www.w3.org/2000/svg" width="49" height="32" viewBox="0 0 49 32">
<title>es</title>
<path fill="#c8414b" d="M0.844 31.998h47.151c0.465 0 0.842-0.377 0.842-0.842v0-30.314c0-0.465-0.377-0.842-0.842-0.842v0h-47.151c0 0 0 0 0 0-0.465 0-0.843 0.377-0.844 0.842v30.314c0.001 0.465 0.379 0.842 0.844 0.842 0 0 0 0 0 0v0z"></path>
<path fill="#ffd250" d="M0 6.737h48.837v18.526h-48.837v-18.526z"></path>
<path fill="#c8414b" d="M20.63 15.998l0.714-3.214c0.009-0.034 0.014-0.072 0.014-0.112 0-0.257-0.208-0.465-0.465-0.465-0.005 0-0.010 0-0.014 0l0.001-0h-0.502c-0.004-0-0.009-0-0.014-0-0.257 0-0.465 0.208-0.465 0.465 0 0.040 0.005 0.078 0.014 0.115l-0.001-0.003z"></path>
<path fill="#f5f5f5" d="M19.788 14.314h1.684v7.156h-1.684v-7.156z"></path>
<path fill="#fab446" d="M19.367 13.472h2.526v0.842h-2.526v-0.842z"></path>
<path fill="#c8414b" d="M17.684 16h4.209v0.842h-4.209v-0.842z"></path>
<path fill="#c8414b" d="M21.893 19.367l-2.526-0.842v-0.842l2.526 0.842z"></path>
<path fill="#c8414b" d="M8 15.998l0.714-3.214c0.009-0.034 0.014-0.072 0.014-0.112 0-0.257-0.208-0.465-0.465-0.465-0.005 0-0.010 0-0.014 0l0.001-0h-0.502c-0.004-0-0.009-0-0.014-0-0.257 0-0.465 0.208-0.465 0.465 0 0.040 0.005 0.078 0.014 0.115l-0.001-0.003z"></path>
<path fill="#f5f5f5" d="M10.947 13.472c-0.465 0-0.842 0.377-0.842 0.842v0 5.474c0 1.023 0.956 2.947 4.212 2.947s4.209-1.923 4.209-2.947v-5.474c0-0.465-0.377-0.842-0.842-0.842v0z"></path>
<path fill="#c8414b" d="M14.316 17.684h-4.212v-3.37c0-0.465 0.377-0.842 0.842-0.842v0h3.37z"></path>
<path fill="#c8414b" d="M14.316 17.684h4.209v2.093c0 1.156-0.937 2.093-2.093 2.093v0c-1.156 0-2.093-0.937-2.093-2.093v0z"></path>
<path fill="#fab446" d="M10.105 17.684h4.212v2.093c-0.008 1.158-0.948 2.093-2.107 2.093 0 0-0 0-0 0v0c-1.153-0.007-2.086-0.94-2.093-2.092v-0.001z"></path>
<path fill="#c8414b" d="M13.474 21.463v-3.779h-0.844v4.167c0.323-0.070 0.607-0.205 0.849-0.392l-0.005 0.004z"></path>
<path fill="#c8414b" d="M11.788 21.851v-4.167h-0.842v3.779c0.237 0.183 0.52 0.318 0.828 0.386l0.014 0.003z"></path>
<path fill="#ffb441" d="M10.947 16h2.526v0.842h-2.526v-0.842z"></path>
<path fill="#fab446" d="M10.947 14.314h2.526v0.842h-2.526v-0.842z"></path>
<path fill="#fab446" d="M11.367 14.816h1.684v1.526h-1.684v-1.526z"></path>
<path fill="#f5f5f5" d="M7.158 14.314h1.684v7.156h-1.684v-7.156z"></path>
<path fill="#fab446" d="M6.737 21.051h2.526v0.842h-2.526v-0.842z"></path>
<path fill="#fab446" d="M6.737 13.472h2.526v0.842h-2.526v-0.842z"></path>
<path fill="#5064aa" d="M6.316 21.893h3.367v0.842h-3.367v-0.842z"></path>
<path fill="#fab446" d="M19.788 21.051h2.526v0.842h-2.526v-0.842z"></path>
<path fill="#5064aa" d="M18.947 21.893h3.367v0.842h-3.367v-0.842z"></path>
<path fill="#fab446" d="M11.791 12.63h5.051v0.842h-5.051v-0.842z"></path>
<path fill="#ffb441" d="M13.895 10.105h0.842v2.526h-0.842v-2.526z"></path>
<path fill="#f5f5f5" d="M13.474 11.367c-0.697 0-1.263-0.565-1.263-1.263s0.565-1.263 1.263-1.263c0.697 0 1.263 0.565 1.263 1.263v0c-0.001 0.697-0.566 1.261-1.263 1.263h-0zM13.474 9.684c-0.232 0-0.421 0.188-0.421 0.421s0.188 0.421 0.421 0.421c0.232 0 0.421-0.188 0.421-0.421v0c0-0.232-0.188-0.421-0.421-0.421v0z"></path>
<path fill="#f5f5f5" d="M15.158 11.367c-0.697 0-1.263-0.565-1.263-1.263s0.565-1.263 1.263-1.263c0.697 0 1.263 0.565 1.263 1.263v0c0 0.697-0.565 1.263-1.263 1.263v0zM15.158 9.684c-0.232 0-0.421 0.188-0.421 0.421s0.188 0.421 0.421 0.421c0.232 0 0.421-0.188 0.421-0.421v0c0-0.232-0.188-0.421-0.421-0.421v0z"></path>
<path fill="#f5f5f5" d="M16.842 12.209c-0.697 0-1.263-0.565-1.263-1.263s0.565-1.263 1.263-1.263c0.697 0 1.263 0.565 1.263 1.263v0c0 0.697-0.565 1.263-1.263 1.263v0zM16.842 10.526c-0.232 0-0.421 0.188-0.421 0.421s0.188 0.421 0.421 0.421c0.232 0 0.421-0.188 0.421-0.421v0c0-0.232-0.188-0.421-0.421-0.421v0z"></path>
<path fill="#f5f5f5" d="M11.788 12.209c-0.696-0.001-1.26-0.566-1.26-1.263s0.565-1.263 1.263-1.263 1.263 0.565 1.263 1.263v0c-0.001 0.698-0.567 1.263-1.265 1.263 0 0 0 0 0 0v0zM11.788 10.526c-0.232 0-0.421 0.188-0.421 0.421s0.188 0.421 0.421 0.421c0.232 0 0.421-0.188 0.421-0.421v0c-0.001-0.232-0.189-0.42-0.421-0.421h-0z"></path>
<path fill="#fab446" d="M16.842 19.367v0.421c0 0.232-0.188 0.421-0.421 0.421s-0.421-0.188-0.421-0.421v0-0.421h0.842zM17.684 18.526h-2.526v1.263c0 0.697 0.565 1.263 1.263 1.263s1.263-0.565 1.263-1.263v-1.263z"></path>
<path fill="#ffa0d2" d="M16.421 16.842v0c-0.464-0.003-0.84-0.38-0.84-0.844 0 0 0 0 0 0v0-0.844c0-0.465 0.377-0.842 0.842-0.842v0c0.465 0 0.842 0.377 0.842 0.842v0 0.844c0 0.466-0.378 0.844-0.844 0.844v0z"></path>
<path fill="#5064aa" d="M15.579 17.681c0 0.697-0.565 1.263-1.263 1.263s-1.263-0.565-1.263-1.263c0-0.697 0.565-1.263 1.263-1.263s1.263 0.565 1.263 1.263z"></path>
<path fill="#fab446" d="M13.895 8.421h0.842v2.526h-0.842v-2.526z"></path>
<path fill="#c8414b" d="M11.788 12.63l-0.842-0.842 0.493-0.493c0.736-0.736 1.753-1.191 2.876-1.191 0 0 0.001 0 0.001 0h-0c1.123 0 2.139 0.455 2.874 1.191l0.493 0.493-0.842 0.842z"></path>
<path fill="#ffd250" d="M14.737 11.788c0 0.232-0.188 0.421-0.421 0.421s-0.421-0.188-0.421-0.421c0-0.232 0.188-0.421 0.421-0.421s0.421 0.188 0.421 0.421z"></path>
<path fill="#ffd250" d="M13.051 11.788c0 0.232-0.188 0.421-0.421 0.421s-0.421-0.188-0.421-0.421c0-0.232 0.188-0.421 0.421-0.421s0.421 0.188 0.421 0.421z"></path>
<path fill="#ffd250" d="M16.421 11.788c0 0.232-0.188 0.421-0.421 0.421s-0.421-0.188-0.421-0.421c0-0.232 0.188-0.421 0.421-0.421s0.421 0.188 0.421 0.421z"></path>
<path fill="#c8414b" d="M6.737 16h4.209v0.842h-4.209v-0.842z"></path>
<path fill="#c8414b" d="M6.744 19.367l2.526-0.842v-0.842l-2.526 0.842z"></path>
</svg>
