<!-- Generated by IcoMoon.io -->
<svg version="1.1" xmlns="http://www.w3.org/2000/svg" width="48" height="32" viewBox="0 0 48 32">
<title>ge</title>
<path fill="#f0f0f0" d="M0 0h48v32h-48v-32z"></path>
<path fill="#d80027" d="M27.001 0h-6v12.999h-21.001v6h21.001v13.001h6v-12.999h20.999v-6h-20.999z"></path>
<path fill="#d80027" d="M11.543 5.456v-2.087h-2.087v2.087h-2.087v2.087h2.087v2.087h2.087v-2.087h2.087v-2.087z"></path>
<path fill="#d80027" d="M38.544 5.456v-2.087h-2.087v2.087h-2.087v2.087h2.087v2.087h2.087v-2.087h2.087v-2.087z"></path>
<path fill="#d80027" d="M11.543 24.457v-2.087h-2.087v2.087h-2.087v2.087h2.087v2.087h2.087v-2.087h2.087v-2.087z"></path>
<path fill="#d80027" d="M38.544 24.457v-2.087h-2.087v2.087h-2.087v2.087h2.087v2.087h2.087v-2.087h2.087v-2.087z"></path>
</svg>
