<!-- Generated by IcoMoon.io -->
<svg version="1.1" xmlns="http://www.w3.org/2000/svg" width="48" height="32" viewBox="0 0 48 32">
<title>hr</title>
<path fill="#f0f0f0" d="M0 0h48v32h-48v-32z"></path>
<path fill="#d80027" d="M0 0h48v10.667h-48v-10.667z"></path>
<path fill="#0052b4" d="M0 21.333h48v10.667h-48v-10.667z"></path>
<path fill="#338af3" d="M28.174 11.131h-2.782l0.457-3.479 1.856-1.392 1.856 1.392v2.782z"></path>
<path fill="#338af3" d="M19.826 11.131h2.782l-0.457-3.479-1.856-1.392-1.856 1.392v2.782z"></path>
<path fill="#0052b4" d="M25.856 11.131h-3.71v-3.479l1.856-1.392 1.856 1.392z"></path>
<path fill="#f0f0f0" d="M18.434 10.434v7.653c0.001 1.819 0.874 3.434 2.223 4.449l0.014 0.010 0.974-0.245 1.23 1.237c0.336 0.073 0.722 0.114 1.118 0.114 0.002 0 0.005 0 0.007 0h-0c0.002 0 0.004 0 0.007 0 0.393 0 0.777-0.042 1.147-0.121l-0.036 0.006 1.403-1.168 0.807 0.174c1.363-1.025 2.236-2.639 2.238-4.457v-7.653z"></path>
<path fill="#d80027" d="M18.434 10.434h2.226v2.226h-2.226v-2.226z"></path>
<path fill="#d80027" d="M22.887 10.434h2.226v2.226h-2.226v-2.226z"></path>
<path fill="#d80027" d="M27.339 10.434h2.226v2.226h-2.226v-2.226z"></path>
<path fill="#d80027" d="M20.661 12.661h2.226v2.226h-2.226v-2.226z"></path>
<path fill="#d80027" d="M25.113 12.661h2.226v2.226h-2.226v-2.226z"></path>
<path fill="#d80027" d="M18.434 14.887h2.226v2.226h-2.226v-2.226z"></path>
<path fill="#d80027" d="M20.661 17.113h2.226v2.226h-2.226v-2.226z"></path>
<path fill="#d80027" d="M22.887 14.887h2.226v2.226h-2.226v-2.226z"></path>
<path fill="#d80027" d="M27.339 14.887h2.226v2.226h-2.226v-2.226z"></path>
<path fill="#d80027" d="M25.113 17.113h2.226v2.226h-2.226v-2.226z"></path>
<path fill="#d80027" d="M22.887 19.339h2.226v2.226h-2.226v-2.226z"></path>
<path fill="#d80027" d="M20.661 19.339h-2.082c0.203 0.856 0.578 1.603 1.089 2.237l-0.008-0.011h1.001v-2.226z"></path>
<path fill="#d80027" d="M27.339 21.566h1.001c0.503-0.623 0.878-1.371 1.073-2.188l0.008-0.038h-2.082z"></path>
<path fill="#d80027" d="M20.661 21.566v0.971c0.626 0.476 1.375 0.827 2.19 0.997l0.036 0.006v-1.975z"></path>
<path fill="#d80027" d="M25.113 21.566v1.975c0.851-0.177 1.6-0.527 2.24-1.013l-0.014 0.010v-0.971z"></path>
</svg>
