<!-- Generated by IcoMoon.io -->
<svg version="1.1" xmlns="http://www.w3.org/2000/svg" width="49" height="32" viewBox="0 0 49 32">
<title>il</title>
<path fill="#41479b" d="M47.995 31.998h-47.151c0 0 0 0 0 0-0.465 0-0.843-0.377-0.844-0.842v-30.314c0.001-0.465 0.379-0.842 0.844-0.842 0 0 0 0 0 0h47.151c0.465 0 0.842 0.377 0.842 0.842v0 30.314c0 0.465-0.377 0.842-0.842 0.842v0z"></path>
<path fill="#f5f5f5" d="M0 5.895h48.837v20.209h-48.837v-20.209z"></path>
<path fill="#41479b" d="M28.795 15.998l2.186-3.791h-4.374l-2.188-3.786-2.186 3.788h-4.374l2.186 3.791-2.186 3.788h4.374l2.186 3.788 2.188-3.788h4.374zM28.837 13.44l-0.758 1.312-0.756-1.312zM27.365 15.998l-1.472 2.558h-2.947l-1.472-2.558 1.472-2.558h2.947zM24.419 10.9l0.758 1.309h-1.514zM20 13.458h1.514l-0.756 1.312zM20 18.558l0.758-1.312 0.756 1.312zM24.419 21.116l-0.756-1.309h1.514zM28.079 17.256l0.758 1.312h-1.514z"></path>
</svg>
