<!-- Generated by IcoMoon.io -->
<svg version="1.1" xmlns="http://www.w3.org/2000/svg" width="48" height="32" viewBox="0 0 48 32">
<title>in</title>
<path fill="#f0f0f0" d="M0 0h48v32h-48v-32z"></path>
<path fill="#ff9811" d="M0 0h48v10.667h-48v-10.667z"></path>
<path fill="#6da544" d="M0 21.333h48v10.667h-48v-10.667z"></path>
<path fill="#0052b4" d="M28.114 16c0 2.272-1.842 4.114-4.114 4.114s-4.114-1.842-4.114-4.114c0-2.272 1.842-4.114 4.114-4.114s4.114 1.842 4.114 4.114z"></path>
<path fill="#f0f0f0" d="M26.571 16c0 1.42-1.151 2.571-2.571 2.571s-2.571-1.151-2.571-2.571c0-1.42 1.151-2.571 2.571-2.571s2.571 1.151 2.571 2.571z"></path>
<path fill="#0052b4" d="M24 12.825l0.793 1.799 1.954-0.213-1.161 1.586 1.161 1.586-1.954-0.213-0.793 1.799-0.793-1.799-1.954 0.213 1.161-1.586-1.161-1.586 1.954 0.213z"></path>
</svg>
