<!-- Generated by IcoMoon.io -->
<svg version="1.1" xmlns="http://www.w3.org/2000/svg" width="48" height="32" viewBox="0 0 48 32">
<title>ir</title>
<path fill="#da0000" d="M0 21.257h48v9.829c0 0.457-0.457 0.914-0.914 0.914h-46.171c-0.457 0-0.914-0.457-0.914-0.914v-9.829z"></path>
<path fill="#fff" d="M0 10.743h48v10.743h-48v-10.743z"></path>
<path fill="#239f40" d="M0.914 0h46.171c0.457 0 0.914 0.457 0.914 0.914v9.829h-48v-9.829c0-0.457 0.457-0.914 0.914-0.914z"></path>
<path fill="#fff" d="M4.343 10.286h-1.371v-0.457h-0.457v0.229h0.457v0.229h-0.686v-0.686h0.914v-0.457h0.229v0.914h0.229v-0.914h0.229v0.914h0.229v-0.914h0.229v1.143zM2.057 10.286h-1.143v-0.457h-0.686v0.457h-0.229v-0.686h1.143v0.457h0.457v-0.229h-0.229v-0.229h0.686v0.686zM0.686 10.286v0l-0.229-0.229h0.229v0.229zM2.971 9.371h-2.971v-0.229h2.743v0.229z"></path>
<path fill="#fff" d="M4.114 10.743h-1.829v-0.229h2.057v0.229zM2.057 10.743h-2.057v-0.229h2.057v0.229z"></path>
<path fill="#fff" d="M4.114 21.486h-1.829v-0.229h2.057v0.229zM2.057 21.486h-2.057v-0.229h2.057v0.229z"></path>
<path fill="#fff" d="M2.057 22.857h-1.143v-0.457h-0.686v0.457h-0.229v-0.686h1.143v0.457h0.457v-0.229h-0.229v-0.229h0.686v0.686zM4.343 22.857h-1.371v-0.457h-0.457v0.229h0.457v0.229h-0.686v-0.686h0.914v-0.457h0.229v0.914h0.229v-0.914h0.229v0.914h0.229v-0.914h0.229v1.143zM0.686 22.857v0l-0.229-0.229h0.229v0.229zM2.971 21.943h-2.971v-0.229h2.743v0.229z"></path>
<path fill="#fff" d="M8.686 10.286h-1.143v-0.457h-0.686v0.229h0.457v0.229h-0.686v-0.686h0.914v-0.457h0.229v0.914h0.229v-0.914h0.229v0.914h0.229v-0.914h0.229v1.143zM6.4 10.286h-1.143v-0.457h-0.457v0.457h-0.457v-0.686h1.143v0.457h0.457v-0.229h-0.229v-0.229h0.686v0.686zM5.029 10.286v0l-0.229-0.229h0.229v0.229zM7.314 9.371h-2.971v-0.229h2.743v0.229z"></path>
<path fill="#fff" d="M8.686 10.743h-2.057v-0.229h2.057v0.229zM6.4 10.743h-2.057v-0.229h2.057v0.229z"></path>
<path fill="#fff" d="M8.686 21.486h-2.057v-0.229h2.057v0.229zM6.4 21.486h-2.057v-0.229h2.057v0.229z"></path>
<path fill="#fff" d="M6.4 22.857h-1.143v-0.457h-0.457v0.457h-0.457v-0.686h1.143v0.457h0.457v-0.229h-0.229v-0.229h0.686v0.686zM8.686 22.857h-1.143v-0.457h-0.686v0.229h0.457v0.229h-0.686v-0.686h0.914v-0.457h0.229v0.914h0.229v-0.914h0.229v0.914h0.229v-0.914h0.229v1.143zM5.029 22.857v0l-0.229-0.229h0.229v0.229zM7.314 21.943h-2.971v-0.229h2.743v0.229z"></path>
<path fill="#fff" d="M13.029 10.286h-1.143v-0.457h-0.686v0.229h0.457v0.229h-0.686v-0.686h0.914v-0.457h0.229v0.914h0.229v-0.914h0.229v0.914h0.229v-0.914h0.229v1.143zM10.743 10.286h-1.143v-0.457h-0.457v0.457h-0.457v-0.686h1.143v0.457h0.457v-0.229h-0.229v-0.229h0.686v0.686zM9.371 10.286v0l-0.229-0.229h0.229v0.229zM11.657 9.371h-2.971v-0.229h2.743v0.229z"></path>
<path fill="#fff" d="M13.029 10.743h-2.057v-0.229h2.057v0.229zM10.743 10.743h-2.057v-0.229h2.057v0.229z"></path>
<path fill="#fff" d="M13.029 21.486h-2.057v-0.229h2.057v0.229zM10.743 21.486h-2.057v-0.229h2.057v0.229z"></path>
<path fill="#fff" d="M10.743 22.857h-1.143v-0.457h-0.457v0.457h-0.457v-0.686h1.143v0.457h0.457v-0.229h-0.229v-0.229h0.686v0.686zM13.029 22.857h-1.143v-0.457h-0.686v0.229h0.457v0.229h-0.686v-0.686h0.914v-0.457h0.229v0.914h0.229v-0.914h0.229v0.914h0.229v-0.914h0.229v1.143zM9.371 22.857v0l-0.229-0.229h0.229v0.229zM11.657 21.943h-2.971v-0.229h2.743v0.229z"></path>
<path fill="#fff" d="M17.371 10.286h-1.143v-0.457h-0.686v0.229h0.457v0.229h-0.686v-0.686h0.914v-0.457h0.229v0.914h0.229v-0.914h0.229v0.914h0.229v-0.914h0.229v1.143zM15.086 10.286h-1.143v-0.457h-0.457v0.457h-0.457v-0.686h1.143v0.457h0.457v-0.229h-0.229v-0.229h0.686v0.686zM13.943 10.286v0l-0.229-0.229h0.229v0.229zM16 9.371h-2.743v-0.229h2.743v0.229z"></path>
<path fill="#fff" d="M17.371 10.743h-2.057v-0.229h2.057v0.229zM15.086 10.743h-1.829v-0.229h2.057v0.229z"></path>
<path fill="#fff" d="M17.371 21.486h-2.057v-0.229h2.057v0.229zM15.086 21.486h-1.829v-0.229h2.057v0.229z"></path>
<path fill="#fff" d="M15.086 22.857h-1.143v-0.457h-0.457v0.457h-0.457v-0.686h1.143v0.457h0.457v-0.229h-0.229v-0.229h0.686v0.686zM17.371 22.857h-1.143v-0.457h-0.686v0.229h0.457v0.229h-0.686v-0.686h0.914v-0.457h0.229v0.914h0.229v-0.914h0.229v0.914h0.229v-0.914h0.229v1.143zM13.943 22.857v0l-0.229-0.229h0.229v0.229zM16 21.943h-2.743v-0.229h2.743v0.229z"></path>
<path fill="#fff" d="M21.714 10.286h-1.143v-0.457h-0.457v0.229h0.457v0.229h-0.914v-0.686h0.914v-0.457h0.229v0.914h0.229v-0.914h0.229v0.914h0.229v-0.914h0.229v1.143zM19.657 10.286h-1.371v-0.457h-0.457v0.457h-0.229v-0.686h1.143v0.457h0.457v-0.229h-0.229v-0.229h0.686v0.686zM18.286 10.286v0l-0.229-0.229h0.229v0.229zM20.343 9.371h-2.743v-0.229h2.743v0.229z"></path>
<path fill="#fff" d="M21.714 10.743h-2.057v-0.229h2.057v0.229zM19.429 10.743h-1.829v-0.229h2.057v0.229z"></path>
<path fill="#fff" d="M21.714 21.486h-2.057v-0.229h2.057v0.229zM19.429 21.486h-1.829v-0.229h2.057v0.229z"></path>
<path fill="#fff" d="M19.657 22.857h-1.371v-0.457h-0.457v0.457h-0.229v-0.686h1.143v0.457h0.457v-0.229h-0.229v-0.229h0.686v0.686zM21.714 22.857h-1.143v-0.457h-0.457v0.229h0.457v0.229h-0.914v-0.686h0.914v-0.457h0.229v0.914h0.229v-0.914h0.229v0.914h0.229v-0.914h0.229v1.143zM18.286 22.857v0l-0.229-0.229h0.229v0.229zM20.343 21.943h-2.743v-0.229h2.743v0.229z"></path>
<path fill="#fff" d="M26.057 10.286h-1.143v-0.457h-0.457v0.229h0.457v0.229h-0.686v-0.686h0.914v-0.457 0.914h0.229v-0.914h0.229v0.914h0.229v-0.914h0.229v1.143zM24 10.286h-1.143v-0.457h-0.686v0.457h-0.229v-0.686h1.143v0.457h0.457v-0.229h-0.457v-0.229h0.686v0.686zM22.629 10.286v0l-0.229-0.229h0.229v0.229zM24.686 9.371h-2.743v-0.229h2.743v0.229z"></path>
<path fill="#fff" d="M26.057 10.743h-2.057v-0.229h2.057v0.229zM24 10.743h-2.057v-0.229h2.057v0.229z"></path>
<path fill="#fff" d="M26.057 21.486h-2.057v-0.229h2.057v0.229zM24 21.486h-2.057v-0.229h2.057v0.229z"></path>
<path fill="#fff" d="M24 22.857h-1.143v-0.457h-0.686v0.457h-0.229v-0.686h1.143v0.457h0.457v-0.229h-0.457v-0.229h0.686v0.686zM26.057 22.857h-1.143v-0.457h-0.457v0.229h0.457v0.229h-0.686v-0.686h0.914v-0.457 0.914h0.229v-0.914h0.229v0.914h0.229v-0.914h0.229v1.143zM22.629 22.857v0l-0.229-0.229h0.229v0.229zM24.686 21.943h-2.743v-0.229h2.743v0.229z"></path>
<path fill="#fff" d="M30.4 10.286h-1.143v-0.457h-0.457v0.229h0.457v0.229h-0.686v-0.686h0.914v-0.457h0.457v0.914h0.229v-0.914h0.229v1.143zM28.343 10.286h-1.143v-0.457h-0.457v0.457h-0.229v-0.686h0.914v0.457h0.457v-0.229h-0.457v-0.229h0.686v0.686zM26.971 10.286v0l-0.229-0.229h0.229v0.229zM29.029 9.371h-2.743v-0.229h2.743v0.229z"></path>
<path fill="#fff" d="M30.4 10.743h-2.057v-0.229h2.057v0.229zM28.343 10.743h-2.057v-0.229h2.057v0.229z"></path>
<path fill="#fff" d="M30.4 21.486h-2.057v-0.229h2.057v0.229zM28.343 21.486h-2.057v-0.229h2.057v0.229z"></path>
<path fill="#fff" d="M28.343 22.857h-1.143v-0.457h-0.457v0.457h-0.229v-0.686h0.914v0.457h0.457v-0.229h-0.457v-0.229h0.686v0.686zM30.4 22.857h-1.143v-0.457h-0.457v0.229h0.457v0.229h-0.686v-0.686h0.914v-0.457h0.457v0.914h0.229v-0.914h0.229v1.143zM26.971 22.857v0l-0.229-0.229h0.229v0.229zM29.029 21.943h-2.743v-0.229h2.743v0.229z"></path>
<path fill="#fff" d="M34.971 10.286h-1.143v-0.457h-0.457v0.229h0.457v0.229h-0.686v-0.686h0.914v-0.457h0.229v0.914h0.229v-0.914h0.229v0.914h0.229v-0.914h0.229v1.143zM32.686 10.286h-1.143v-0.457h-0.457v0.457h-0.229v-0.686h1.143v0.457h0.457v-0.229h-0.457v-0.229h0.686v0.686zM31.314 10.286v0l-0.229-0.229h0.229v0.229zM33.6 9.371h-2.743v-0.229h2.743v0.229z"></path>
<path fill="#fff" d="M34.743 10.743h-2.057v-0.229h2.057v0.229zM32.686 10.743h-2.057v-0.229h2.057v0.229z"></path>
<path fill="#fff" d="M34.743 21.486h-2.057v-0.229h2.057v0.229zM32.686 21.486h-2.057v-0.229h2.057v0.229z"></path>
<path fill="#fff" d="M32.686 22.857h-1.143v-0.457h-0.457v0.457h-0.229v-0.686h1.143v0.457h0.457v-0.229h-0.457v-0.229h0.686v0.686zM34.971 22.857h-1.143v-0.457h-0.457v0.229h0.457v0.229h-0.686v-0.686h0.914v-0.457h0.229v0.914h0.229v-0.914h0.229v0.914h0.229v-0.914h0.229v1.143zM31.314 22.857v0l-0.229-0.229h0.229v0.229zM33.6 21.943h-2.743v-0.229h2.743v0.229z"></path>
<path fill="#fff" d="M39.314 10.286h-1.143v-0.457h-0.457v0.229h0.457v0.229h-0.686v-0.686h0.914v-0.457h0.229v0.914h0.229v-0.914h0.229v1.143zM37.029 10.286h-1.143v-0.457h-0.457v0.457h-0.229v-0.686h1.143v0.457h0.457v-0.229h-0.457v-0.229h0.686v0.686zM35.657 10.286v0l-0.229-0.229h0.229v0.229zM37.943 9.371h-2.743v-0.229h2.743v0.229z"></path>
<path fill="#fff" d="M39.314 10.743h-2.057v-0.229h2.057v0.229zM37.029 10.743h-2.057v-0.229h2.057v0.229z"></path>
<path fill="#fff" d="M39.314 21.486h-2.057v-0.229h2.057v0.229zM37.029 21.486h-2.057v-0.229h2.057v0.229z"></path>
<path fill="#fff" d="M37.029 22.857h-1.143v-0.457h-0.457v0.457h-0.229v-0.686h1.143v0.457h0.457v-0.229h-0.457v-0.229h0.686v0.686zM39.314 22.857h-1.143v-0.457h-0.457v0.229h0.457v0.229h-0.686v-0.686h0.914v-0.457h0.229v0.914h0.229v-0.914h0.229v1.143zM35.657 22.857v0l-0.229-0.229h0.229v0.229zM37.943 21.943h-2.743v-0.229h2.743v0.229z"></path>
<path fill="#fff" d="M43.657 10.286h-1.143v-0.457h-0.457v0.229h0.457v0.229h-0.686v-0.686h0.914v-0.457h0.229v0.914h0.229v-0.914h0.229v0.914h0.229v-0.914h0.229v1.143zM41.371 10.286h-1.143v-0.457h-0.457v0.457h-0.229v-0.686h1.143v0.457h0.457v-0.229h-0.457v-0.229h0.686v0.686zM40 10.286v0l-0.229-0.229h0.229v0.229zM42.286 9.371h-2.743v-0.229h2.743v0.229z"></path>
<path fill="#fff" d="M43.657 10.743h-2.057v-0.229h2.057v0.229zM41.371 10.743h-2.057v-0.229h2.057v0.229z"></path>
<path fill="#fff" d="M43.657 21.486h-2.057v-0.229h2.057v0.229zM41.371 21.486h-2.057v-0.229h2.057v0.229z"></path>
<path fill="#fff" d="M41.371 22.857h-1.143v-0.457h-0.457v0.457h-0.229v-0.686h1.143v0.457h0.457v-0.229h-0.457v-0.229h0.686v0.686zM43.657 22.857h-1.143v-0.457h-0.457v0.229h0.457v0.229h-0.686v-0.686h0.914v-0.457h0.229v0.914h0.229v-0.914h0.229v0.914h0.229v-0.914h0.229v1.143zM40 22.857v0l-0.229-0.229h0.229v0.229zM42.286 21.943h-2.743v-0.229h2.743v0.229z"></path>
<path fill="#fff" d="M48 10.286h-1.143v-0.457h-0.457v0.229h0.457v0.229h-0.686v-0.686h0.914v-0.457h0.229v0.914h0.229v-0.914h0.229v0.914h0.229v-0.914 1.143zM45.714 10.286h-1.143v-0.457h-0.457v0.457h-0.229v-0.686h1.143v0.457h0.457v-0.229h-0.457v-0.229h0.686v0.686zM44.343 10.286v0l-0.229-0.229h0.229v0.229zM46.629 9.371h-2.743v-0.229h2.743v0.229z"></path>
<path fill="#fff" d="M48 21.486h-2.057v-0.229h2.057v0.229zM45.714 21.486h-2.057v-0.229h2.057v0.229z"></path>
<path fill="#fff" d="M48 10.743h-2.057v-0.229h2.057v0.229zM45.714 10.743h-2.057v-0.229h2.057v0.229z"></path>
<path fill="#fff" d="M45.714 22.857h-1.143v-0.457h-0.457v0.457h-0.229v-0.686h1.143v0.457h0.457v-0.229h-0.457v-0.229h0.686v0.686zM48 22.857h-1.143v-0.457h-0.457v0.229h0.457v0.229h-0.686v-0.686h0.914v-0.457h0.229v0.914h0.229v-0.914h0.229v0.914h0.229v-0.914 1.143zM44.343 22.857v0l-0.229-0.229h0.229v0.229zM46.629 21.943h-2.743v-0.229h2.743v0.229z"></path>
<path fill="#da0000" d="M22.171 18.971c1.6 0.457 3.429-0.457 4.114-2.057 0.457-1.143 0-2.514-0.914-3.429 1.143 1.6 0.686 3.886-0.914 4.8-0.914 0.457-1.6 0.686-2.286 0.686z"></path>
<path fill="#da0000" d="M26.286 18.286c1.371-0.686 1.829-2.286 0.914-3.657-0.457-0.686-0.914-1.143-1.6-1.371 1.371 1.371 1.829 3.429 0.686 5.029 0 0 0 0 0 0z"></path>
<path fill="#da0000" d="M24 19.429l-0.229-3.429 0.229-2.743c0 0.229 0.229 0.229 0.457 0.457v2.057l-0.229 3.429-0.229 0.229z"></path>
<path fill="#da0000" d="M24 13.029v0c0.229 0.229 0.457 0.457 0.686 0.229s0.229-0.457 0.229-0.686c0 0.229-0.229 0.457-0.457 0.457s-0.229 0-0.229-0.229z"></path>
<path fill="#da0000" d="M25.829 18.971c-1.6 0.457-3.429-0.457-4.114-2.057-0.457-1.143 0-2.514 0.914-3.429-0.914 1.6-0.457 3.657 1.143 4.8 0.686 0.457 1.371 0.686 2.057 0.686z"></path>
<path fill="#da0000" d="M21.714 18.286c-1.143-0.686-1.6-2.286-0.914-3.657 0.457-0.686 0.914-1.143 1.6-1.371-1.371 1.371-1.829 3.429-0.686 5.029 0 0 0 0 0 0z"></path>
<path fill="#da0000" d="M24 19.429l0.229-3.429-0.229-2.743c0 0.229-0.229 0.229-0.457 0.457v2.057l0.229 3.429 0.229 0.229z"></path>
<path fill="#da0000" d="M24 13.029v0c-0.229 0.229-0.457 0.457-0.686 0.229s-0.229-0.457-0.229-0.686c0 0.229 0.229 0.457 0.457 0.457s0.229 0 0.229-0.229z"></path>
</svg>
