<!-- Generated by IcoMoon.io -->
<svg version="1.1" xmlns="http://www.w3.org/2000/svg" width="49" height="32" viewBox="0 0 49 32">
<title>kr</title>
<path fill="#f5f5f5" d="M47.995 31.998h-47.151c0 0 0 0 0 0-0.465 0-0.843-0.377-0.844-0.842v-30.314c0.001-0.465 0.379-0.842 0.844-0.842 0 0 0 0 0 0h47.151c0.465 0 0.842 0.377 0.842 0.842v0 30.314c0 0.465-0.377 0.842-0.842 0.842v0z"></path>
<path fill="#ff4b55" d="M29.095 8.991c-1.312-0.884-2.928-1.41-4.667-1.41-2.91 0-5.475 1.475-6.989 3.718l-0.019 0.030c-0.499 0.683-0.798 1.539-0.798 2.466 0 2.325 1.885 4.209 4.209 4.209 1.509 0 2.833-0.794 3.576-1.987l0.010-0.018c0.762-1.159 2.056-1.914 3.527-1.914 2.323 0 4.207 1.884 4.207 4.207 0 0.887-0.275 1.71-0.743 2.389l0.009-0.014c0.887-1.313 1.417-2.932 1.417-4.674 0-2.906-1.473-5.469-3.712-6.981l-0.030-0.019z"></path>
<path fill="#41479b" d="M17.421 11.328c-0.499 0.683-0.798 1.539-0.798 2.466 0 2.325 1.885 4.209 4.209 4.209 1.509 0 2.833-0.794 3.576-1.987l0.010-0.018c0.762-1.159 2.056-1.914 3.527-1.914 2.323 0 4.207 1.884 4.207 4.207 0 0.887-0.275 1.71-0.743 2.389l0.009-0.014c-1.531 2.272-4.094 3.746-7.001 3.746-4.647 0-8.415-3.768-8.415-8.415 0-1.74 0.528-3.357 1.433-4.699l-0.019 0.030z"></path>
<path fill="#464655" d="M33.379 5.812l1.528 2.298c0.044 0.066 0.071 0.147 0.071 0.234 0 0.145-0.074 0.273-0.186 0.349l-0.002 0.001-0.386 0.26c-0.066 0.044-0.147 0.070-0.234 0.070-0.146 0-0.274-0.073-0.351-0.185l-0.001-0.001-1.53-2.3c-0.044-0.066-0.071-0.147-0.071-0.234 0-0.145 0.074-0.273 0.186-0.349l0.002-0.001 0.388-0.26c0.066-0.044 0.147-0.070 0.234-0.070 0.146 0 0.276 0.074 0.352 0.187l0.001 0.002z"></path>
<path fill="#464655" d="M35.737 9.356l1.535 2.298c0.044 0.065 0.071 0.146 0.071 0.233 0 0.146-0.075 0.275-0.188 0.349l-0.002 0.001-0.388 0.258c-0.065 0.044-0.146 0.070-0.232 0.070-0.145 0-0.273-0.073-0.348-0.185l-0.001-0.001-1.535-2.295c-0.044-0.066-0.071-0.147-0.071-0.234 0-0.145 0.074-0.273 0.186-0.349l0.002-0.001 0.388-0.26c0.066-0.044 0.147-0.071 0.234-0.071 0.145 0 0.273 0.074 0.349 0.186l0.001 0.002z"></path>
<path fill="#464655" d="M35.016 4.719l3.893 5.844c0.044 0.066 0.071 0.147 0.071 0.234 0 0.145-0.074 0.273-0.186 0.349l-0.002 0.001-0.391 0.26c-0.066 0.044-0.147 0.071-0.234 0.071-0.145 0-0.273-0.074-0.349-0.186l-0.001-0.002-3.895-5.844c-0.044-0.066-0.071-0.147-0.071-0.234 0-0.145 0.074-0.273 0.186-0.349l0.002-0.001 0.393-0.263c0.065-0.043 0.146-0.069 0.232-0.069 0.146 0 0.275 0.074 0.351 0.186l0.001 0.002z"></path>
<path fill="#464655" d="M36.649 3.626l1.533 2.305c0.044 0.065 0.071 0.146 0.071 0.233 0 0.146-0.075 0.275-0.188 0.349l-0.002 0.001-0.388 0.258c-0.065 0.043-0.146 0.069-0.232 0.069-0.146 0-0.275-0.074-0.351-0.186l-0.001-0.002-1.533-2.3c-0.044-0.066-0.071-0.147-0.071-0.234 0-0.145 0.074-0.273 0.186-0.349l0.002-0.001 0.391-0.26c0.066-0.044 0.147-0.071 0.234-0.071 0.145 0 0.273 0.074 0.349 0.186l0.001 0.002z"></path>
<path fill="#464655" d="M39.009 7.179l1.533 2.298c0.044 0.066 0.071 0.147 0.071 0.234 0 0.145-0.074 0.273-0.186 0.349l-0.002 0.001-0.391 0.26c-0.066 0.044-0.146 0.070-0.233 0.070-0.145 0-0.273-0.073-0.35-0.185l-0.001-0.001-1.53-2.3c-0.044-0.066-0.070-0.146-0.070-0.233 0-0.145 0.073-0.274 0.185-0.35l0.001-0.001 0.388-0.258c0.066-0.045 0.147-0.072 0.234-0.072 0.145 0 0.273 0.074 0.348 0.186l0.001 0.002z"></path>
<path fill="#464655" d="M12.66 19.621l3.895 5.84c0.044 0.065 0.070 0.146 0.070 0.233 0 0.146-0.074 0.275-0.187 0.35l-0.002 0.001-0.388 0.26c-0.066 0.044-0.147 0.071-0.234 0.071-0.145 0-0.273-0.074-0.349-0.186l-0.001-0.002-3.895-5.84c-0.044-0.066-0.070-0.146-0.070-0.233 0-0.145 0.073-0.273 0.185-0.35l0.001-0.001 0.391-0.26c0.066-0.044 0.147-0.071 0.234-0.071 0.145 0 0.273 0.074 0.349 0.186l0.001 0.002z"></path>
<path fill="#464655" d="M11.026 20.714l1.53 2.293c0.044 0.066 0.070 0.146 0.070 0.233 0 0.145-0.073 0.273-0.185 0.35l-0.001 0.001-0.388 0.26c-0.066 0.044-0.147 0.071-0.234 0.071-0.145 0-0.273-0.074-0.349-0.186l-0.001-0.002-1.533-2.293c-0.044-0.066-0.071-0.147-0.071-0.234 0-0.145 0.074-0.273 0.186-0.349l0.002-0.001 0.391-0.26c0.066-0.044 0.147-0.071 0.234-0.071 0.145 0 0.273 0.074 0.349 0.186l0.001 0.002z"></path>
<path fill="#464655" d="M13.388 24.26l1.53 2.298c0.044 0.066 0.071 0.147 0.071 0.234 0 0.145-0.074 0.273-0.186 0.349l-0.002 0.001-0.388 0.26c-0.066 0.044-0.147 0.071-0.234 0.071-0.145 0-0.273-0.074-0.349-0.186l-0.001-0.002-1.533-2.3c-0.044-0.066-0.070-0.146-0.070-0.233 0-0.145 0.073-0.273 0.185-0.35l0.001-0.001 0.391-0.26c0.065-0.044 0.146-0.070 0.233-0.070 0.146 0 0.275 0.074 0.35 0.187l0.001 0.002z"></path>
<path fill="#464655" d="M9.391 21.812l3.891 5.84c0.044 0.066 0.071 0.147 0.071 0.234 0 0.145-0.074 0.273-0.186 0.349l-0.002 0.001-0.388 0.26c-0.066 0.044-0.146 0.070-0.233 0.070-0.145 0-0.274-0.073-0.35-0.185l-0.001-0.001-3.893-5.84c-0.044-0.066-0.071-0.147-0.071-0.234 0-0.145 0.074-0.273 0.186-0.349l0.002-0.001 0.391-0.26c0.066-0.044 0.147-0.071 0.234-0.071 0.145 0 0.273 0.074 0.349 0.186l0.001 0.002z"></path>
<path fill="#464655" d="M11.57 11.653l3.895-5.844c0.077-0.113 0.205-0.187 0.35-0.187 0.087 0 0.168 0.026 0.235 0.072l-0.002-0.001 0.388 0.26c0.114 0.076 0.189 0.205 0.189 0.351 0 0.087-0.026 0.167-0.071 0.234l0.001-0.002-3.895 5.84c-0.077 0.114-0.206 0.188-0.352 0.188-0.086 0-0.167-0.026-0.234-0.070l0.002 0.001-0.388-0.258c-0.114-0.077-0.188-0.206-0.188-0.352 0-0.086 0.026-0.167 0.070-0.234l-0.001 0.002z"></path>
<path fill="#464655" d="M9.935 10.563l3.895-5.844c0.077-0.113 0.205-0.187 0.35-0.187 0.087 0 0.168 0.026 0.235 0.072l-0.002-0.001 0.388 0.26c0.113 0.077 0.187 0.205 0.187 0.35 0 0.087-0.026 0.168-0.072 0.235l0.001-0.002-3.893 5.844c-0.077 0.113-0.205 0.187-0.35 0.187-0.087 0-0.168-0.026-0.235-0.072l0.002 0.001-0.391-0.26c-0.113-0.077-0.186-0.205-0.186-0.351 0-0.087 0.026-0.167 0.071-0.235l-0.001 0.002z"></path>
<path fill="#464655" d="M8.298 9.486l3.895-5.849c0.076-0.114 0.205-0.189 0.351-0.189 0.087 0 0.167 0.026 0.234 0.071l-0.002-0.001 0.391 0.26c0.113 0.077 0.186 0.205 0.186 0.351 0 0.087-0.026 0.167-0.071 0.235l0.001-0.002-3.893 5.851c-0.077 0.113-0.205 0.187-0.35 0.187-0.087 0-0.168-0.026-0.235-0.072l0.002 0.001-0.391-0.26c-0.114-0.077-0.188-0.206-0.188-0.352 0-0.086 0.026-0.167 0.070-0.234l-0.001 0.002z"></path>
<path fill="#464655" d="M32.288 25.46l1.53-2.293c0.077-0.113 0.205-0.187 0.35-0.187 0.087 0 0.168 0.026 0.235 0.072l-0.002-0.001 0.388 0.26c0.113 0.077 0.187 0.205 0.187 0.35 0 0.087-0.026 0.168-0.072 0.235l0.001-0.002-1.528 2.293c-0.077 0.113-0.205 0.186-0.351 0.186-0.087 0-0.167-0.026-0.235-0.071l0.002 0.001-0.391-0.26c-0.113-0.077-0.187-0.205-0.187-0.35 0-0.087 0.026-0.168 0.072-0.235l-0.001 0.002z"></path>
<path fill="#464655" d="M34.651 21.926l1.533-2.302c0.076-0.114 0.205-0.189 0.351-0.189 0.087 0 0.167 0.026 0.234 0.071l-0.002-0.001 0.391 0.26c0.114 0.076 0.189 0.205 0.189 0.351 0 0.087-0.026 0.167-0.071 0.234l0.001-0.002-1.537 2.302c-0.077 0.113-0.205 0.187-0.35 0.187-0.087 0-0.168-0.026-0.235-0.072l0.002 0.001-0.386-0.258c-0.114-0.076-0.189-0.205-0.189-0.351 0-0.087 0.026-0.167 0.071-0.234l-0.001 0.002z"></path>
<path fill="#464655" d="M33.923 26.558l1.53-2.3c0.077-0.113 0.205-0.186 0.351-0.186 0.087 0 0.167 0.026 0.235 0.071l-0.002-0.001 0.393 0.26c0.113 0.077 0.186 0.205 0.186 0.351 0 0.087-0.026 0.167-0.071 0.235l0.001-0.002-1.53 2.3c-0.077 0.113-0.205 0.187-0.35 0.187-0.087 0-0.168-0.026-0.235-0.072l0.002 0.001-0.393-0.26c-0.113-0.077-0.187-0.205-0.187-0.35 0-0.087 0.026-0.168 0.072-0.235l-0.001 0.002z"></path>
<path fill="#464655" d="M36.279 23.007l1.533-2.293c0.076-0.114 0.204-0.188 0.349-0.188 0.087 0 0.169 0.027 0.236 0.073l-0.001-0.001 0.391 0.26c0.113 0.077 0.187 0.205 0.187 0.35 0 0.087-0.026 0.168-0.072 0.235l0.001-0.002-1.533 2.293c-0.077 0.113-0.205 0.187-0.35 0.187-0.087 0-0.168-0.026-0.235-0.072l0.002 0.001-0.391-0.26c-0.113-0.077-0.187-0.205-0.187-0.35 0-0.087 0.026-0.168 0.072-0.235l-0.001 0.002z"></path>
<path fill="#464655" d="M35.558 27.644l1.533-2.295c0.077-0.113 0.205-0.187 0.35-0.187 0.087 0 0.168 0.026 0.235 0.072l-0.002-0.001 0.388 0.256c0.115 0.076 0.19 0.205 0.19 0.352 0 0.087-0.027 0.168-0.072 0.236l0.001-0.001-1.533 2.298c-0.077 0.113-0.205 0.187-0.35 0.187-0.087 0-0.168-0.026-0.235-0.072l0.002 0.001-0.391-0.26c-0.113-0.077-0.187-0.205-0.187-0.35 0-0.087 0.026-0.168 0.072-0.235l-0.001 0.002z"></path>
<path fill="#464655" d="M37.921 24.105l1.53-2.298c0.076-0.114 0.204-0.188 0.349-0.188 0.087 0 0.169 0.027 0.236 0.073l-0.001-0.001 0.388 0.258c0.113 0.077 0.187 0.205 0.187 0.35 0 0.087-0.026 0.168-0.072 0.235l0.001-0.002-1.53 2.295c-0.077 0.113-0.205 0.187-0.35 0.187-0.087 0-0.168-0.026-0.235-0.072l0.002 0.001-0.386-0.256c-0.114-0.077-0.188-0.206-0.188-0.352 0-0.086 0.026-0.167 0.070-0.234l-0.001 0.002z"></path>
</svg>
