<!-- Generated by IcoMoon.io -->
<svg version="1.1" xmlns="http://www.w3.org/2000/svg" width="49" height="32" viewBox="0 0 49 32">
<title>kz</title>
<path fill="#82c3d2" d="M48.002 0h-47.158c0 0 0 0 0 0-0.465 0-0.843 0.377-0.844 0.842v30.316c0.001 0.465 0.379 0.842 0.844 0.842 0 0 0 0 0 0h47.158c0.465 0 0.842-0.377 0.842-0.842v0-30.316c0-0.465-0.377-0.842-0.842-0.842v0z"></path>
<path fill="#ffe15a" d="M5.68 3.831c-0.077-0.321-0.095-0.442 0.049-0.586 0.039-0.033 0.063-0.083 0.063-0.138 0-0.1-0.081-0.181-0.181-0.181-0.055 0-0.104 0.024-0.137 0.063l-0 0c-0.139 0.151-0.224 0.354-0.224 0.576 0 0.128 0.028 0.25 0.079 0.36l-0.002-0.005c-0.059-0.024-0.127-0.038-0.198-0.038-0.159 0-0.303 0.069-0.402 0.179l-0 0c-0.059 0.086-0.093 0.192-0.093 0.306 0 0.14 0.052 0.267 0.138 0.364l-0-0.001c0.031 0.057 0.091 0.094 0.159 0.094 0.1 0 0.181-0.081 0.181-0.181 0-0.041-0.013-0.079-0.036-0.109l0 0c-0.086-0.135-0.088-0.219-0.065-0.251 0.034-0.025 0.076-0.040 0.122-0.040 0.032 0 0.061 0.007 0.088 0.020l-0.001-0.001c0.118 0.043 0.201 0.154 0.201 0.285 0 0.009-0 0.017-0.001 0.026l0-0.001c-0.001 0.181-0.092 0.34-0.231 0.436l-0.002 0.001c-0.090 0.066-0.203 0.106-0.326 0.106-0.061 0-0.119-0.010-0.173-0.028l0.004 0.001c-0.217-0.084-0.368-0.291-0.368-0.533 0-0.008 0-0.016 0-0.024l-0 0.001c0-0 0-0.001 0-0.001 0-0.194 0.042-0.379 0.117-0.545l-0.003 0.008c0.012-0.026 0.286-0.598 0.358-0.812 0.14-0.421 0-0.633-0.1-0.721-0.081-0.071-0.188-0.114-0.305-0.114-0.066 0-0.128 0.014-0.184 0.038l0.003-0.001c-0.026 0.012-0.048 0.026-0.068 0.042l0-0c-0.019-0.017-0.042-0.031-0.066-0.041l-0.002-0.001c-0.054-0.023-0.116-0.037-0.181-0.037-0.117 0-0.224 0.043-0.305 0.114l0.001-0c-0.098 0.088-0.233 0.3-0.098 0.721 0.070 0.214 0.347 0.786 0.356 0.805 0.072 0.16 0.113 0.347 0.114 0.544v0c0 0.008 0.001 0.016 0.001 0.025 0 0.241-0.15 0.447-0.362 0.529l-0.004 0.001c-0.051 0.017-0.109 0.027-0.17 0.027-0.123 0-0.237-0.040-0.329-0.107l0.002 0.001c-0.139-0.098-0.23-0.257-0.233-0.437v-0c-0.001-0.007-0.001-0.016-0.001-0.024 0-0.131 0.083-0.242 0.199-0.284l0.002-0.001c0.026-0.012 0.055-0.019 0.087-0.019 0.046 0 0.089 0.015 0.123 0.040l-0.001-0c0.026 0.033 0.023 0.116-0.065 0.251-0.017 0.028-0.028 0.061-0.028 0.097 0 0.064 0.033 0.121 0.083 0.154l0.001 0c0.027 0.018 0.061 0.029 0.097 0.029 0.064 0 0.12-0.033 0.152-0.084l0-0.001c0.233-0.363 0.109-0.588 0.044-0.67-0.099-0.11-0.242-0.179-0.401-0.179-0.071 0-0.139 0.014-0.201 0.039l0.004-0.001c0.048-0.103 0.075-0.224 0.075-0.352 0-0.223-0.085-0.427-0.225-0.579l0.001 0.001c-0.033-0.032-0.077-0.052-0.127-0.052-0.099 0-0.18 0.081-0.18 0.18 0 0.050 0.020 0.095 0.053 0.128v0c0.144 0.144 0.126 0.265 0.049 0.586-0.061 0.219-0.098 0.47-0.102 0.73l-0 0.003c0.002 0.205 0.072 0.393 0.188 0.544l-0.002-0.002c-0.1 0-0.181 0.081-0.181 0.181s0.081 0.181 0.181 0.181v0 0c-0.115 0.149-0.184 0.337-0.186 0.542v0c0.004 0.261 0.041 0.512 0.107 0.751l-0.005-0.021c0.077 0.323 0.095 0.442-0.051 0.588-0.031 0.033-0.051 0.077-0.051 0.126 0 0.099 0.080 0.18 0.178 0.181h0c0.001 0 0.002 0 0.003 0 0.049 0 0.093-0.021 0.125-0.053l0-0c0.14-0.151 0.225-0.355 0.225-0.578 0-0.128-0.028-0.249-0.078-0.358l0.002 0.005c0.058 0.023 0.125 0.036 0.195 0.036 0.159 0 0.303-0.069 0.402-0.178l0-0c0.065-0.081 0.188-0.307-0.044-0.67-0.034-0.042-0.085-0.068-0.142-0.068-0.1 0-0.181 0.081-0.181 0.181 0 0.029 0.007 0.057 0.019 0.081l-0-0.001c0.088 0.137 0.091 0.233 0.065 0.251-0.034 0.027-0.077 0.043-0.123 0.043-0.031 0-0.061-0.007-0.087-0.020l0.001 0.001c-0.118-0.043-0.201-0.154-0.201-0.285 0-0.009 0-0.017 0.001-0.026l-0 0.001c0.003-0.181 0.093-0.34 0.231-0.436l0.002-0.001c0.090-0.066 0.204-0.106 0.326-0.106 0.061 0 0.12 0.010 0.175 0.028l-0.004-0.001c0.216 0.083 0.366 0.288 0.366 0.529 0 0.009-0 0.017-0.001 0.026l0-0.001c-0 0.197-0.042 0.384-0.117 0.553l0.003-0.009-1.184 2.665c-0.093 0.202-0.147 0.438-0.147 0.687 0 0.004 0 0.008 0 0.011v-0.001c0.221 0.182 0.361 0.455 0.361 0.762s-0.14 0.58-0.359 0.76l-0.002 0.001c-0 0.003-0 0.007-0 0.011 0 0.249 0.054 0.485 0.151 0.698l-0.004-0.011 1.184 2.663c0.071 0.16 0.113 0.347 0.114 0.544v0c0 0.008 0.001 0.017 0.001 0.025 0 0.241-0.15 0.447-0.362 0.529l-0.004 0.001c-0.051 0.017-0.109 0.027-0.17 0.027-0.123 0-0.237-0.040-0.329-0.107l0.002 0.001c-0.139-0.098-0.23-0.257-0.233-0.437v-0c-0.001-0.008-0.001-0.017-0.001-0.026 0-0.13 0.083-0.241 0.199-0.283l0.002-0.001c0.026-0.012 0.055-0.019 0.087-0.019 0.046 0 0.089 0.015 0.123 0.040l-0.001-0c0.026 0.033 0.023 0.116-0.065 0.251-0.017 0.028-0.028 0.061-0.028 0.097 0 0.064 0.033 0.121 0.083 0.154l0.001 0c0.027 0.018 0.061 0.028 0.097 0.028 0.064 0 0.12-0.033 0.152-0.084l0-0.001c0.233-0.363 0.109-0.588 0.044-0.67-0.099-0.11-0.242-0.179-0.401-0.179-0.071 0-0.139 0.014-0.201 0.039l0.004-0.001c0.048-0.103 0.075-0.224 0.075-0.352 0-0.223-0.085-0.427-0.225-0.579l0.001 0.001c-0.032-0.027-0.073-0.044-0.118-0.044-0.1 0-0.181 0.081-0.181 0.181 0 0.045 0.017 0.087 0.044 0.119l-0-0c0.147 0.144 0.128 0.265 0.051 0.586-0.061 0.219-0.098 0.47-0.102 0.73l-0 0.003c0.002 0.205 0.072 0.393 0.188 0.544l-0.002-0.002c-0.1 0-0.181 0.081-0.181 0.181s0.081 0.181 0.181 0.181v0 0c-0.115 0.149-0.184 0.337-0.186 0.542v0c0.004 0.261 0.041 0.512 0.107 0.751l-0.005-0.021c0.077 0.323 0.095 0.442-0.051 0.588-0.033 0.033-0.054 0.078-0.054 0.128 0 0.099 0.080 0.179 0.179 0.179 0.001 0 0.002 0 0.003-0h-0c0.001 0 0.002 0 0.003 0 0.049 0 0.093-0.020 0.125-0.051l-0 0c0.139-0.152 0.224-0.355 0.224-0.579 0-0.127-0.028-0.248-0.078-0.357l0.002 0.005c0.058 0.023 0.125 0.037 0.196 0.037 0.159 0 0.302-0.069 0.402-0.178l0-0c0.065-0.081 0.188-0.307-0.044-0.67-0.034-0.042-0.085-0.068-0.142-0.068-0.1 0-0.181 0.081-0.181 0.181 0 0.029 0.007 0.057 0.019 0.081l-0-0.001c0.088 0.137 0.091 0.233 0.065 0.251-0.034 0.027-0.077 0.043-0.123 0.043-0.031 0-0.061-0.007-0.087-0.020l0.001 0.001c-0.118-0.043-0.201-0.154-0.201-0.285 0-0.009 0-0.017 0.001-0.026l-0 0.001c0.003-0.181 0.093-0.34 0.231-0.436l0.002-0.001c0.091-0.066 0.204-0.106 0.327-0.106 0.061 0 0.119 0.010 0.174 0.028l-0.004-0.001c0.216 0.083 0.366 0.288 0.366 0.529 0 0.009-0 0.017-0.001 0.026l0-0.001c-0.001 0.198-0.043 0.386-0.117 0.556l0.003-0.009-1.184 2.663c-0.093 0.202-0.147 0.438-0.147 0.687 0 0.004 0 0.008 0 0.012v-0.001c0.221 0.182 0.361 0.455 0.361 0.762s-0.14 0.58-0.359 0.76l-0.002 0.001c-0 0.003-0 0.007-0 0.011 0 0.249 0.054 0.485 0.151 0.697l-0.004-0.011 1.184 2.666c0.072 0.16 0.114 0.347 0.114 0.544v0c0 0.007 0.001 0.016 0.001 0.025 0 0.24-0.15 0.446-0.362 0.527l-0.004 0.001c-0.051 0.017-0.11 0.027-0.172 0.027-0.123 0-0.236-0.040-0.328-0.107l0.002 0.001c-0.139-0.098-0.23-0.257-0.233-0.437v-0c-0.001-0.007-0.001-0.016-0.001-0.024 0-0.131 0.083-0.242 0.199-0.284l0.002-0.001c0.025-0.012 0.055-0.019 0.086-0.019 0.047 0 0.090 0.016 0.124 0.043l-0-0c0.026 0.030 0.023 0.114-0.065 0.251-0.025 0.031-0.040 0.070-0.040 0.113 0 0.1 0.081 0.181 0.181 0.181 0.071 0 0.133-0.041 0.162-0.1l0-0.001c0.233-0.363 0.109-0.588 0.044-0.67-0.099-0.11-0.242-0.179-0.401-0.179-0.071 0-0.139 0.014-0.201 0.039l0.004-0.001c0.046-0.102 0.073-0.22 0.073-0.345 0-0.221-0.084-0.423-0.222-0.575l0.001 0.001c-0.033-0.033-0.078-0.053-0.128-0.053-0.099 0-0.18 0.081-0.18 0.18 0 0.049 0.020 0.094 0.052 0.127v0c0.147 0.147 0.128 0.265 0.051 0.588-0.061 0.218-0.098 0.469-0.102 0.728l-0 0.002c0.221 0.166 0.363 0.428 0.363 0.723s-0.142 0.557-0.361 0.722l-0.002 0.002c0.004 0.262 0.041 0.514 0.107 0.754l-0.005-0.021c0.077 0.321 0.095 0.442-0.051 0.586-0.033 0.033-0.054 0.078-0.054 0.128 0 0.099 0.080 0.179 0.179 0.179 0.001 0 0.002 0 0.003-0h-0c0.001 0 0.002 0 0.003 0 0.049 0 0.093-0.020 0.125-0.051l-0 0c0.139-0.152 0.224-0.355 0.224-0.579 0-0.127-0.028-0.248-0.078-0.357l0.002 0.005c0.058 0.024 0.126 0.037 0.197 0.037 0.159 0 0.302-0.069 0.4-0.179l0-0c0.065-0.081 0.188-0.307-0.044-0.67-0.033-0.050-0.089-0.083-0.153-0.083-0.036 0-0.069 0.010-0.097 0.028l0.001-0c-0.051 0.033-0.084 0.090-0.084 0.154 0 0.036 0.010 0.070 0.028 0.098l-0-0.001c0.088 0.135 0.091 0.219 0.065 0.251-0.034 0.025-0.076 0.040-0.122 0.040-0.032 0-0.061-0.007-0.088-0.020l0.001 0.001c-0.118-0.043-0.201-0.154-0.201-0.285 0-0.009 0-0.017 0.001-0.026l-0 0.001c0.003-0.181 0.093-0.34 0.231-0.436l0.002-0.001c0.091-0.066 0.204-0.106 0.327-0.106 0.061 0 0.119 0.010 0.174 0.028l-0.004-0.001c0.216 0.084 0.366 0.29 0.366 0.53 0 0.009-0 0.018-0.001 0.027l0-0.001c-0 0.194-0.041 0.379-0.115 0.546l0.003-0.009c-0.012 0.026-0.288 0.598-0.361 0.812-0.14 0.421 0 0.633 0.1 0.721 0.079 0.072 0.184 0.116 0.3 0.116 0.001 0 0.002 0 0.003 0h-0c0.067-0.001 0.13-0.015 0.187-0.041l-0.003 0.001c0.012-0.026 0.038-0.043 0.067-0.043s0.055 0.017 0.067 0.043l0 0c0.054 0.025 0.118 0.040 0.184 0.040 0.116 0 0.222-0.044 0.302-0.117l-0 0c0.098-0.088 0.233-0.3 0.1-0.721-0.072-0.214-0.347-0.786-0.356-0.805-0.073-0.16-0.116-0.347-0.116-0.544v-0c-0-0.007-0-0.015-0-0.023 0-0.242 0.151-0.449 0.364-0.532l0.004-0.001c0.051-0.017 0.109-0.026 0.17-0.026 0.123 0 0.237 0.039 0.33 0.106l-0.002-0.001c0.133 0.099 0.219 0.257 0.219 0.434 0 0.001 0 0.002 0 0.004v-0c0.001 0.007 0.001 0.016 0.001 0.024 0 0.131-0.083 0.242-0.199 0.284l-0.002 0.001c-0.026 0.012-0.055 0.019-0.087 0.019-0.046 0-0.089-0.015-0.123-0.040l0.001 0c-0.023-0.033-0.021-0.116 0.065-0.251 0.018-0.028 0.029-0.061 0.029-0.098 0-0.064-0.033-0.121-0.084-0.153l-0.001-0c-0.027-0.017-0.060-0.027-0.095-0.027-0.064 0-0.12 0.033-0.153 0.082l-0 0.001c-0.085 0.096-0.138 0.224-0.138 0.364 0 0.114 0.035 0.22 0.095 0.308l-0.001-0.002c0.099 0.11 0.242 0.18 0.402 0.18 0.071 0 0.139-0.014 0.202-0.039l-0.004 0.001c-0.049 0.104-0.077 0.226-0.077 0.354 0 0.222 0.085 0.425 0.224 0.577l-0.001-0.001c0.033 0.032 0.078 0.051 0.128 0.051s0.095-0.019 0.128-0.051l-0 0c0.033-0.033 0.053-0.078 0.053-0.128s-0.020-0.095-0.053-0.128v0c-0.144-0.147-0.126-0.265-0.049-0.586 0.060-0.218 0.097-0.47 0.102-0.729l0-0.003c-0.221-0.166-0.363-0.428-0.363-0.723s0.142-0.557 0.361-0.722l0.002-0.002c-0.006-0.263-0.043-0.514-0.107-0.755l0.005 0.022c-0.077-0.321-0.095-0.44 0.049-0.586 0.027-0.032 0.044-0.073 0.044-0.118 0-0.1-0.081-0.181-0.181-0.181-0.045 0-0.087 0.017-0.119 0.044l0-0c-0.139 0.151-0.224 0.354-0.224 0.576 0 0.128 0.028 0.25 0.079 0.36l-0.002-0.005c-0.059-0.024-0.127-0.038-0.198-0.038-0.159 0-0.303 0.069-0.402 0.179l-0 0c-0.059 0.086-0.093 0.192-0.093 0.306 0 0.14 0.052 0.267 0.138 0.364l-0-0.001c0.031 0.057 0.091 0.094 0.159 0.094 0.1 0 0.181-0.081 0.181-0.181 0-0.041-0.013-0.079-0.036-0.109l0 0c-0.086-0.135-0.088-0.219-0.065-0.249 0.034-0.027 0.078-0.043 0.125-0.043 0.032 0 0.061 0.007 0.088 0.020l-0.001-0.001c0.117 0.044 0.199 0.154 0.199 0.284 0 0.009-0 0.018-0.001 0.026l0-0.001c0 0.001 0 0.002 0 0.003 0 0.177-0.085 0.334-0.217 0.433l-0.001 0.001c-0.091 0.066-0.205 0.105-0.328 0.105-0.061 0-0.119-0.010-0.174-0.027l0.004 0.001c-0.217-0.083-0.368-0.29-0.368-0.531 0-0.008 0-0.016 0-0.023l-0 0.001c0-0 0-0 0-0 0-0.198 0.043-0.386 0.12-0.555l-0.003 0.008 1.184-2.663c0.093-0.204 0.147-0.443 0.147-0.695 0-0.001 0-0.002 0-0.003v0c-0.221-0.182-0.361-0.455-0.361-0.762s0.14-0.58 0.359-0.76l0.002-0.001c0-0.001 0-0.002 0-0.003 0-0.252-0.054-0.49-0.151-0.706l0.004 0.011-1.184-2.663c-0.073-0.16-0.116-0.347-0.116-0.544 0-0 0-0 0-0v0c-0-0.008-0.001-0.017-0.001-0.025 0-0.241 0.151-0.447 0.364-0.527l0.004-0.001c0.052-0.018 0.112-0.028 0.174-0.028 0.122 0 0.234 0.039 0.326 0.106l-0.002-0.001c0.133 0.099 0.219 0.257 0.219 0.434 0 0.001 0 0.002 0 0.004v-0c0.001 0.008 0.001 0.016 0.001 0.025 0 0.13-0.082 0.241-0.197 0.283l-0.002 0.001c-0.026 0.012-0.056 0.019-0.088 0.019-0.046 0-0.090-0.015-0.124-0.040l0.001 0c-0.023-0.033-0.021-0.116 0.065-0.251 0.022-0.030 0.036-0.068 0.036-0.108 0-0.1-0.081-0.181-0.181-0.181-0.068 0-0.128 0.038-0.159 0.093l-0 0.001c-0.085 0.096-0.138 0.224-0.138 0.364 0 0.114 0.035 0.22 0.095 0.308l-0.001-0.002c0.099 0.11 0.242 0.18 0.402 0.18 0.071 0 0.139-0.014 0.202-0.039l-0.004 0.001c-0.049 0.104-0.077 0.226-0.077 0.354 0 0.222 0.085 0.425 0.224 0.577l-0.001-0.001c0.033 0.032 0.078 0.051 0.128 0.051s0.095-0.019 0.128-0.051l-0 0c0.033-0.033 0.053-0.078 0.053-0.128s-0.020-0.095-0.053-0.128v0c-0.144-0.144-0.126-0.265-0.049-0.586 0.060-0.218 0.097-0.47 0.102-0.729l0-0.003c-0.002-0.205-0.072-0.393-0.188-0.544l0.002 0.002c0.1 0 0.181-0.081 0.181-0.181s-0.081-0.181-0.181-0.181v0c0.115-0.149 0.184-0.337 0.186-0.542v-0c-0.005-0.262-0.042-0.513-0.107-0.752l0.005 0.022c-0.077-0.323-0.095-0.442 0.049-0.588 0.032-0.033 0.052-0.077 0.052-0.127 0-0.099-0.081-0.18-0.18-0.18-0.050 0-0.095 0.020-0.128 0.053v0c-0.137 0.15-0.221 0.351-0.221 0.571 0 0.126 0.027 0.245 0.077 0.353l-0.002-0.005c-0.063-0.031-0.137-0.049-0.215-0.049-0.275 0-0.498 0.223-0.498 0.498 0 0.143 0.060 0.272 0.157 0.363l0 0c0.033 0.050 0.089 0.083 0.153 0.083 0.036 0 0.069-0.010 0.097-0.028l-0.001 0c0.051-0.032 0.084-0.088 0.084-0.152 0-0.036-0.011-0.070-0.029-0.098l0 0.001c-0.086-0.137-0.088-0.233-0.065-0.251 0.034-0.026 0.078-0.042 0.125-0.042 0.031 0 0.061 0.007 0.088 0.019l-0.001-0.001c0.117 0.044 0.199 0.154 0.199 0.284 0 0.009-0 0.018-0.001 0.026l0-0.001c0 0.001 0 0.002 0 0.004 0 0.177-0.085 0.334-0.217 0.433l-0.001 0.001c-0.090 0.066-0.204 0.106-0.327 0.106-0.061 0-0.12-0.010-0.175-0.028l0.004 0.001c-0.217-0.083-0.368-0.29-0.368-0.531 0-0.008 0-0.016 0-0.023l-0 0.001c0-0 0-0 0-0 0-0.197 0.043-0.384 0.12-0.552l-0.003 0.008 1.184-2.665c0.093-0.202 0.147-0.438 0.147-0.687 0-0.004 0-0.008-0-0.011v0.001c-0.221-0.182-0.361-0.455-0.361-0.762s0.14-0.58 0.359-0.76l0.002-0.001c0-0.003 0-0.007 0-0.011 0-0.249-0.054-0.485-0.151-0.698l0.004 0.011-1.184-2.663c-0.073-0.16-0.116-0.347-0.116-0.544 0-0 0-0 0-0v0c-0-0.008-0.001-0.017-0.001-0.025 0-0.241 0.151-0.447 0.364-0.527l0.004-0.001c0.052-0.018 0.112-0.028 0.174-0.028 0.122 0 0.234 0.039 0.326 0.106l-0.002-0.001c0.133 0.099 0.219 0.257 0.219 0.434 0 0.001 0 0.002 0 0.004v-0c0.001 0.008 0.001 0.016 0.001 0.025 0 0.13-0.082 0.241-0.197 0.283l-0.002 0.001c-0.026 0.012-0.056 0.019-0.088 0.019-0.046 0-0.090-0.015-0.124-0.040l0.001 0c-0.023-0.033-0.021-0.116 0.065-0.251 0.022-0.030 0.036-0.068 0.036-0.108 0-0.1-0.081-0.181-0.181-0.181-0.068 0-0.128 0.038-0.159 0.093l-0 0.001c-0.085 0.096-0.138 0.224-0.138 0.364 0 0.114 0.035 0.22 0.095 0.308l-0.001-0.002c0.1 0.11 0.243 0.179 0.403 0.179 0.071 0 0.139-0.014 0.201-0.039l-0.004 0.001c-0.049 0.104-0.077 0.226-0.077 0.354 0 0.222 0.085 0.425 0.224 0.577l-0.001-0.001c0.033 0.032 0.078 0.051 0.128 0.051s0.095-0.019 0.128-0.051l-0 0c0.033-0.033 0.053-0.078 0.053-0.128s-0.020-0.095-0.053-0.128v0c-0.144-0.144-0.126-0.265-0.049-0.586 0.060-0.218 0.097-0.47 0.102-0.729l0-0.003c-0.002-0.205-0.072-0.393-0.188-0.544l0.002 0.002c0.1 0 0.181-0.081 0.181-0.181s-0.081-0.181-0.181-0.181v0 0c0.115-0.149 0.184-0.337 0.186-0.542v-0c-0.002-0.26-0.035-0.511-0.095-0.752l0.005 0.022zM3.845 3.061c-0.065-0.193-0.042-0.302 0-0.34 0.015-0.014 0.036-0.022 0.058-0.022 0.014 0 0.026 0.003 0.038 0.009l-0.001-0c0.019 0.006 0.033 0.024 0.033 0.044 0 0.002-0 0.003-0 0.005v-0c0 0.1 0.081 0.181 0.181 0.181s0.181-0.081 0.181-0.181v0c-0-0.001-0-0.003-0-0.004 0-0.021 0.014-0.038 0.032-0.044l0-0c0.011-0.005 0.024-0.009 0.037-0.009 0.022 0 0.043 0.009 0.058 0.023l-0-0c0.044 0.037 0.065 0.147 0 0.34-0.047 0.14-0.216 0.505-0.312 0.698-0.088-0.188-0.26-0.551-0.307-0.698zM4.154 10.52c0.052 0.072 0.112 0.134 0.179 0.187l0.002 0.002c-0.069 0.055-0.129 0.118-0.18 0.188l-0.002 0.003c-0.052-0.073-0.112-0.136-0.179-0.189l-0.002-0.001c0.070-0.054 0.13-0.116 0.18-0.186l0.002-0.003zM4.154 21.366c0.052 0.073 0.112 0.136 0.18 0.189l0.002 0.001c-0.069 0.054-0.129 0.116-0.18 0.186l-0.002 0.003c-0.052-0.072-0.112-0.135-0.179-0.187l-0.002-0.002c0.070-0.055 0.13-0.117 0.18-0.188l0.002-0.003zM4.463 29.204c0.065 0.193 0.042 0.302 0 0.342-0.015 0.013-0.035 0.020-0.057 0.020-0.014 0-0.027-0.003-0.039-0.009l0.001 0c-0.019-0.006-0.033-0.024-0.033-0.044 0-0.002 0-0.003 0-0.005v0c0-0.1-0.081-0.181-0.181-0.181s-0.181 0.081-0.181 0.181v0c0 0.001 0 0.003 0 0.004 0 0.021-0.014 0.038-0.032 0.044l-0 0c-0.011 0.005-0.024 0.009-0.038 0.009-0.022 0-0.042-0.008-0.057-0.020l0 0c-0.042-0.040-0.065-0.149 0-0.342 0.047-0.14 0.216-0.505 0.309-0.698 0.093 0.188 0.265 0.556 0.309 0.698zM4.335 26.978c-0.070 0.054-0.13 0.116-0.18 0.186l-0.002 0.003c-0.104 0-0.188-0.084-0.188-0.188s0.084-0.188 0.188-0.188v0c0.052 0.072 0.112 0.135 0.179 0.187l0.002 0.002zM5.303 22.861l-1.149 2.586-1.149-2.586c-0.073-0.16-0.116-0.347-0.116-0.544 0-0 0-0 0-0v0c-0-0.008-0.001-0.017-0.001-0.025 0-0.241 0.151-0.447 0.364-0.527l0.004-0.001c0.051-0.017 0.11-0.027 0.172-0.027 0.123 0 0.236 0.040 0.328 0.107l-0.002-0.001c0.133 0.098 0.219 0.255 0.219 0.431 0 0.001 0 0.002 0 0.004v-0c0.001 0.008 0.001 0.017 0.001 0.026 0 0.13-0.082 0.241-0.197 0.285l-0.002 0.001c-0.025 0.012-0.055 0.019-0.087 0.019-0.047 0-0.091-0.016-0.125-0.043l0 0c-0.023-0.030-0.021-0.114 0.065-0.251 0.018-0.028 0.029-0.062 0.029-0.098 0-0.063-0.033-0.119-0.082-0.151l-0.001-0c-0.028-0.017-0.061-0.028-0.097-0.028-0.064 0-0.121 0.033-0.154 0.083l-0 0.001c-0.097 0.091-0.157 0.22-0.157 0.364 0 0.276 0.224 0.5 0.5 0.5 0.083 0 0.161-0.020 0.229-0.056l-0.003 0.001c0.031-0.011 0.057-0.023 0.082-0.036l-0.003 0.002v0.465c-0.005-0.095-0.083-0.17-0.179-0.17-0 0-0 0-0 0v0c-0.1 0-0.181 0.081-0.181 0.181v0c0.014 0.199 0.165 0.358 0.358 0.386l0.002 0v0.337c0 0.1 0.081 0.181 0.181 0.181s0.181-0.081 0.181-0.181v0-0.337c0.196-0.028 0.346-0.187 0.36-0.385l0-0.001c0-0.001 0-0.002 0-0.002 0-0.1-0.080-0.181-0.179-0.184h-0c-0.001-0-0.003-0-0.005-0-0.097 0-0.175 0.078-0.177 0.174v0-0.465c0.023 0.013 0.050 0.024 0.078 0.034l0.004 0.001c0.065 0.033 0.141 0.052 0.222 0.052 0.276 0 0.5-0.224 0.5-0.5 0-0.142-0.059-0.27-0.154-0.361l-0-0c-0.034-0.042-0.085-0.068-0.142-0.068-0.1 0-0.181 0.081-0.181 0.181 0 0.029 0.007 0.057 0.019 0.081l-0-0.001c0.086 0.137 0.088 0.233 0.065 0.251-0.034 0.027-0.077 0.043-0.123 0.043-0.031 0-0.061-0.007-0.087-0.020l0.001 0.001c-0.118-0.043-0.201-0.154-0.201-0.285 0-0.009 0-0.017 0.001-0.026l-0 0.001c0.001-0.181 0.092-0.341 0.231-0.436l0.002-0.001c0.090-0.066 0.203-0.106 0.325-0.106 0.061 0 0.12 0.010 0.175 0.028l-0.004-0.001c0.217 0.082 0.368 0.287 0.368 0.528 0 0.009-0 0.018-0.001 0.027l0-0.001c-0.004 0.198-0.051 0.385-0.131 0.552l0.003-0.008zM5.303 20.249c0.073 0.16 0.116 0.347 0.116 0.544 0 0 0 0 0 0v0c0 0.008 0.001 0.017 0.001 0.025 0 0.241-0.151 0.447-0.364 0.527l-0.004 0.001c-0.051 0.018-0.11 0.028-0.172 0.028-0.122 0-0.234-0.040-0.325-0.108l0.001 0.001c-0.14-0.096-0.231-0.255-0.233-0.435v-0c-0.001-0.008-0.001-0.017-0.001-0.027 0-0.131 0.083-0.242 0.199-0.284l0.002-0.001c0.025-0.012 0.055-0.019 0.086-0.019 0.047 0 0.090 0.016 0.124 0.043l-0-0c0.023 0.030 0.021 0.114-0.065 0.251-0.017 0.027-0.028 0.061-0.028 0.096 0 0.064 0.033 0.12 0.083 0.152l0.001 0c0.027 0.018 0.061 0.029 0.097 0.029 0.064 0 0.12-0.033 0.152-0.084l0-0.001c0.092-0.091 0.149-0.217 0.149-0.356 0-0.276-0.224-0.5-0.5-0.5-0.079 0-0.153 0.018-0.22 0.051l0.003-0.001c-0.031 0.008-0.058 0.019-0.083 0.033l0.002-0.001v-0.465c0.013 0.089 0.088 0.156 0.18 0.156 0.095 0 0.173-0.074 0.181-0.167l0-0.001c-0.014-0.198-0.165-0.357-0.358-0.384l-0.002-0v-0.33c0-0.1-0.081-0.181-0.181-0.181s-0.181 0.081-0.181 0.181v0 0.337c-0.195 0.027-0.346 0.186-0.36 0.382l-0 0.001c0 0 0 0 0 0 0 0.102 0.080 0.184 0.181 0.188h0c0.001 0 0.003 0 0.005 0 0.096 0 0.174-0.078 0.174-0.174 0-0 0-0 0-0v0 0.465c-0.022-0.012-0.048-0.024-0.075-0.034l-0.004-0.001c-0.063-0.030-0.137-0.048-0.214-0.048-0.277 0-0.502 0.225-0.502 0.502 0 0.139 0.056 0.264 0.147 0.355v0c0.033 0.051 0.090 0.084 0.154 0.084 0.036 0 0.070-0.010 0.098-0.028l-0.001 0c0.050-0.032 0.083-0.088 0.083-0.151 0-0.036-0.011-0.070-0.030-0.099l0 0.001c-0.086-0.137-0.088-0.233-0.065-0.251 0.034-0.026 0.078-0.042 0.125-0.042 0.031 0 0.061 0.007 0.088 0.019l-0.001-0.001c0.117 0.044 0.199 0.155 0.199 0.286 0 0.009-0 0.018-0.001 0.027l0-0.001c0 0.001 0 0.002 0 0.004 0 0.176-0.085 0.333-0.217 0.43l-0.001 0.001c-0.090 0.067-0.203 0.107-0.325 0.107-0.062 0-0.121-0.010-0.176-0.029l0.004 0.001c-0.217-0.082-0.368-0.287-0.368-0.528 0-0.009 0-0.018 0.001-0.027l-0 0.001c0-0 0-0 0-0 0-0.197 0.043-0.384 0.12-0.552l-0.003 0.008 1.149-2.586zM4.335 16.133c-0.070 0.054-0.13 0.116-0.18 0.186l-0.002 0.003c-0.104 0-0.188-0.084-0.188-0.188s0.084-0.188 0.188-0.188v0c0.052 0.072 0.112 0.135 0.179 0.187l0.002 0.002zM5.303 12.016l-1.149 2.586-1.149-2.586c-0.073-0.16-0.116-0.347-0.116-0.544 0-0 0-0 0-0v0c-0-0.008-0.001-0.017-0.001-0.025 0-0.241 0.151-0.447 0.364-0.527l0.004-0.001c0.051-0.017 0.11-0.027 0.172-0.027 0.123 0 0.236 0.040 0.328 0.107l-0.002-0.001c0.133 0.098 0.219 0.255 0.219 0.431 0 0.001 0 0.002 0 0.004v-0c0.001 0.008 0.001 0.017 0.001 0.026 0 0.13-0.082 0.241-0.197 0.285l-0.002 0.001c-0.025 0.012-0.055 0.019-0.087 0.019-0.047 0-0.091-0.016-0.125-0.043l0 0c-0.023-0.030-0.021-0.114 0.065-0.251 0.025-0.031 0.040-0.070 0.040-0.113 0-0.1-0.081-0.181-0.181-0.181-0.071 0-0.133 0.041-0.162 0.1l-0 0.001c-0.091 0.091-0.147 0.216-0.147 0.355 0 0.277 0.225 0.502 0.502 0.502 0.078 0 0.152-0.018 0.217-0.049l-0.003 0.001c0.031-0.011 0.057-0.023 0.082-0.036l-0.003 0.002v0.465c-0.005-0.095-0.083-0.17-0.179-0.17-0 0-0 0-0 0v0c-0.1 0-0.181 0.081-0.181 0.181v0c0.014 0.198 0.165 0.357 0.358 0.384l0.002 0v0.337c0 0.1 0.081 0.181 0.181 0.181s0.181-0.081 0.181-0.181v0-0.337c0.195-0.027 0.346-0.186 0.36-0.382l0-0.001c0-0.001 0-0.002 0-0.002 0-0.1-0.079-0.182-0.179-0.186h-0c-0.001-0-0.003-0-0.005-0-0.097 0-0.175 0.078-0.177 0.174v0-0.465c0.023 0.013 0.050 0.024 0.078 0.034l0.004 0.001c0.065 0.033 0.141 0.052 0.222 0.052 0.276 0 0.5-0.224 0.5-0.5 0-0.142-0.059-0.27-0.154-0.361l-0-0c-0.032-0.051-0.088-0.084-0.152-0.084-0.036 0-0.070 0.011-0.098 0.029l0.001-0c-0.051 0.033-0.083 0.089-0.083 0.153 0 0.036 0.010 0.069 0.028 0.097l-0-0.001c0.086 0.137 0.088 0.233 0.065 0.251-0.034 0.027-0.077 0.043-0.123 0.043-0.031 0-0.061-0.007-0.087-0.020l0.001 0.001c-0.118-0.043-0.201-0.154-0.201-0.285 0-0.009 0-0.019 0.001-0.028l-0 0.001c0.001-0.18 0.092-0.339 0.231-0.434l0.002-0.001c0.089-0.067 0.202-0.107 0.323-0.107 0.062 0 0.121 0.010 0.176 0.029l-0.004-0.001c0.217 0.082 0.368 0.287 0.368 0.528 0 0.009-0 0.018-0.001 0.027l0-0.001c-0.004 0.199-0.050 0.387-0.131 0.555l0.003-0.008zM5.303 9.404c0.073 0.16 0.116 0.347 0.116 0.544 0 0 0 0 0 0v0c0 0.008 0.001 0.017 0.001 0.025 0 0.241-0.151 0.447-0.364 0.527l-0.004 0.001c-0.051 0.018-0.11 0.028-0.172 0.028-0.122 0-0.234-0.040-0.325-0.108l0.001 0.001c-0.14-0.096-0.231-0.255-0.233-0.435v-0c-0.001-0.008-0.001-0.017-0.001-0.027 0-0.131 0.083-0.242 0.199-0.284l0.002-0.001c0.025-0.012 0.055-0.019 0.086-0.019 0.047 0 0.090 0.016 0.124 0.043l-0-0c0.023 0.030 0.021 0.114-0.065 0.251-0.017 0.027-0.028 0.061-0.028 0.096 0 0.064 0.033 0.12 0.083 0.152l0.001 0c0.027 0.018 0.061 0.028 0.097 0.028 0.064 0 0.12-0.033 0.152-0.084l0-0.001c0.095-0.091 0.154-0.219 0.154-0.361 0-0.276-0.224-0.5-0.5-0.5-0.081 0-0.157 0.019-0.224 0.053l0.003-0.001c-0.032 0.010-0.058 0.022-0.084 0.036l0.003-0.001v-0.465c0.013 0.089 0.088 0.156 0.18 0.156 0.095 0 0.173-0.074 0.181-0.167l0-0.001c-0.014-0.199-0.165-0.358-0.358-0.386l-0.002-0v-0.337c0-0.1-0.081-0.181-0.181-0.181s-0.181 0.081-0.181 0.181v0 0.337c-0.196 0.028-0.346 0.187-0.36 0.385l-0 0.001c0 0 0 0 0 0 0 0.102 0.080 0.184 0.181 0.188h0c0.001 0 0.002 0 0.002 0 0.098 0 0.177-0.079 0.177-0.177 0 0 0 0 0-0v0 0.465c-0.022-0.012-0.048-0.024-0.075-0.034l-0.004-0.001c-0.066-0.034-0.144-0.054-0.227-0.054-0.276 0-0.5 0.224-0.5 0.5 0 0.143 0.060 0.272 0.157 0.363l0 0c0.033 0.051 0.090 0.084 0.154 0.084 0.036 0 0.070-0.010 0.098-0.028l-0.001 0c0.050-0.032 0.083-0.088 0.083-0.151 0-0.036-0.011-0.070-0.030-0.099l0 0.001c-0.086-0.137-0.088-0.233-0.065-0.251 0.034-0.026 0.078-0.042 0.125-0.042 0.031 0 0.061 0.007 0.088 0.019l-0.001-0.001c0.117 0.044 0.199 0.155 0.199 0.286 0 0.009-0 0.018-0.001 0.027l0-0.001c0 0.001 0 0.002 0 0.004 0 0.176-0.085 0.333-0.217 0.43l-0.001 0.001c-0.090 0.067-0.203 0.107-0.325 0.107-0.062 0-0.121-0.010-0.176-0.029l0.004 0.001c-0.217-0.082-0.368-0.287-0.368-0.528 0-0.009 0-0.018 0.001-0.027l-0 0.001c0-0 0-0 0-0 0-0.197 0.043-0.384 0.12-0.552l-0.003 0.008 1.149-2.586zM3.975 5.287c0.068-0.055 0.127-0.117 0.177-0.186l0.002-0.003c0.104 0 0.188 0.084 0.188 0.188s-0.084 0.188-0.188 0.188v0c-0.052-0.072-0.111-0.134-0.177-0.187l-0.002-0.001z"></path>
<path fill="#ffe15a" d="M30.181 14c0 2.403-1.948 4.352-4.352 4.352s-4.352-1.948-4.352-4.352c0-2.403 1.948-4.352 4.352-4.352s4.352 1.948 4.352 4.352z"></path>
<path fill="#ffe15a" d="M26.157 8.452c-0.015 0.169-0.155 0.3-0.327 0.3s-0.312-0.132-0.327-0.299l-0-0.001c0.092-0.379 0.204-0.706 0.341-1.019l-0.015 0.039c0.123 0.274 0.235 0.6 0.319 0.937l0.009 0.042z"></path>
<path fill="#ffe15a" d="M25.504 19.547c0.015-0.169 0.155-0.3 0.327-0.3s0.312 0.131 0.327 0.299l0 0.001c-0.093 0.379-0.205 0.706-0.343 1.018l0.015-0.039c-0.122-0.273-0.233-0.6-0.317-0.937l-0.009-0.042z"></path>
<path fill="#ffe15a" d="M31.377 14.325c-0.18 0-0.326-0.146-0.326-0.326s0.146-0.326 0.326-0.326v0c0.379 0.092 0.706 0.204 1.019 0.341l-0.039-0.015c-0.273 0.122-0.6 0.233-0.937 0.317l-0.042 0.009z"></path>
<path fill="#ffe15a" d="M20.282 13.674c0.18 0 0.326 0.146 0.326 0.326s-0.146 0.326-0.326 0.326v0c-0.38-0.093-0.706-0.204-1.019-0.341l0.040 0.016c0.273-0.121 0.599-0.233 0.937-0.317l0.043-0.009z"></path>
<path fill="#ffe15a" d="M29.983 10.308c-0.060 0.060-0.142 0.096-0.233 0.096-0.182 0-0.329-0.147-0.329-0.329 0-0.091 0.037-0.173 0.096-0.233v0c0.264-0.165 0.57-0.322 0.89-0.451l0.040-0.014c-0.144 0.36-0.3 0.666-0.48 0.956l0.015-0.026z"></path>
<path fill="#ffe15a" d="M21.678 17.691c0.060-0.060 0.142-0.096 0.233-0.096 0.182 0 0.329 0.147 0.329 0.329 0 0.091-0.037 0.173-0.096 0.233v0c-0.264 0.165-0.57 0.321-0.889 0.451l-0.041 0.015c0.145-0.361 0.301-0.667 0.48-0.957l-0.015 0.026z"></path>
<path fill="#ffe15a" d="M29.523 18.154c-0.060-0.060-0.096-0.142-0.096-0.233 0-0.182 0.147-0.329 0.329-0.329 0.091 0 0.173 0.037 0.233 0.096v0c0.164 0.264 0.32 0.57 0.45 0.889l0.015 0.041c-0.36-0.144-0.666-0.3-0.956-0.48l0.025 0.015z"></path>
<path fill="#ffe15a" d="M22.138 9.846c0.060 0.060 0.096 0.142 0.096 0.233 0 0.182-0.147 0.329-0.329 0.329-0.091 0-0.173-0.037-0.233-0.096v0c-0.164-0.264-0.32-0.57-0.45-0.889l-0.015-0.041c0.361 0.146 0.667 0.302 0.958 0.481l-0.027-0.016z"></path>
<path fill="#ffe15a" d="M24.008 8.75c0.016 0.037 0.025 0.080 0.025 0.124 0 0.18-0.146 0.326-0.326 0.326-0.135 0-0.251-0.082-0.3-0.199l-0.001-0.002c-0.048-0.285-0.075-0.614-0.075-0.949 0-0.028 0-0.055 0.001-0.083l-0 0.004c0.244 0.236 0.466 0.49 0.665 0.763l0.012 0.017z"></path>
<path fill="#ffe15a" d="M27.651 19.256c-0.010-0.030-0.016-0.065-0.016-0.101 0-0.181 0.147-0.328 0.328-0.328 0.127 0 0.237 0.072 0.292 0.178l0.001 0.002c0.046 0.287 0.073 0.617 0.073 0.954 0 0.027-0 0.054-0 0.080l0-0.004c-0.242-0.237-0.465-0.492-0.665-0.764l-0.012-0.017z"></path>
<path fill="#ffe15a" d="M31.081 12.178c-0.037 0.016-0.080 0.025-0.126 0.025-0.18 0-0.326-0.146-0.326-0.326 0-0.135 0.082-0.251 0.199-0.3l0.002-0.001c0.286-0.048 0.616-0.075 0.953-0.075 0.027 0 0.055 0 0.082 0.001l-0.004-0c-0.236 0.242-0.491 0.464-0.762 0.665l-0.017 0.012z"></path>
<path fill="#ffe15a" d="M20.58 15.821c0.036-0.015 0.079-0.024 0.123-0.024 0.135 0 0.251 0.082 0.302 0.199l0.001 0.002c0.016 0.037 0.026 0.080 0.026 0.126 0 0.135-0.083 0.251-0.2 0.299l-0.002 0.001c-0.285 0.048-0.614 0.075-0.949 0.075-0.028 0-0.055-0-0.083-0.001l0.004 0c0.236-0.243 0.491-0.465 0.762-0.665l0.017-0.012z"></path>
<path fill="#ffe15a" d="M28.255 8.999c-0.055 0.108-0.166 0.18-0.293 0.18-0.181 0-0.328-0.147-0.328-0.328 0-0.036 0.006-0.071 0.017-0.103l-0.001 0.002c0.212-0.289 0.434-0.543 0.675-0.778l0.001-0.001c0 0.023 0 0.049 0 0.076 0 0.336-0.026 0.666-0.077 0.988l0.005-0.036z"></path>
<path fill="#ffe15a" d="M23.406 19c0.050-0.119 0.166-0.201 0.301-0.201 0.18 0 0.326 0.146 0.326 0.326 0 0.045-0.009 0.088-0.026 0.127l0.001-0.002c-0.211 0.289-0.432 0.543-0.673 0.778l-0.001 0.001c-0-0.028-0.001-0.061-0.001-0.094 0-0.33 0.026-0.654 0.077-0.969l-0.005 0.035z"></path>
<path fill="#ffe15a" d="M30.83 16.423c-0.119-0.051-0.201-0.167-0.201-0.302 0-0.044 0.009-0.087 0.025-0.126l-0.001 0.002c0.052-0.119 0.168-0.201 0.304-0.201 0.045 0 0.087 0.009 0.126 0.025l-0.002-0.001c0.288 0.213 0.543 0.435 0.778 0.676l0.001 0.001c-0.023 0-0.050 0-0.077 0-0.336 0-0.667-0.027-0.988-0.080l0.035 0.005z"></path>
<path fill="#ffe15a" d="M20.829 11.581c0.119 0.050 0.201 0.166 0.201 0.301 0 0.18-0.146 0.326-0.326 0.326-0.045 0-0.088-0.009-0.127-0.025l0.002 0.001c-0.288-0.213-0.543-0.435-0.778-0.676l-0.001-0.001c0.023-0 0.051-0.001 0.079-0.001 0.335 0 0.664 0.027 0.984 0.080l-0.035-0.005z"></path>
<path fill="#ffe15a" d="M25.069 8.494c0.002 0.013 0.003 0.028 0.003 0.043 0 0.181-0.147 0.328-0.328 0.328-0.151 0-0.278-0.102-0.316-0.241l-0.001-0.002c0.016-0.372 0.063-0.723 0.138-1.064l-0.008 0.041c0.18 0.257 0.35 0.551 0.496 0.858l0.016 0.037z"></path>
<path fill="#ffe15a" d="M26.592 19.505c-0.004-0.019-0.006-0.041-0.006-0.064 0-0.18 0.146-0.326 0.326-0.326 0.157 0 0.289 0.112 0.319 0.26l0 0.002c-0.016 0.372-0.061 0.723-0.135 1.064l0.007-0.041c-0.18-0.257-0.35-0.551-0.496-0.858l-0.016-0.037z"></path>
<path fill="#ffe15a" d="M31.335 13.237c-0.019 0.004-0.041 0.006-0.064 0.006-0.18 0-0.326-0.146-0.326-0.326 0-0.158 0.112-0.289 0.26-0.319l0.002-0c0.372 0.016 0.723 0.063 1.064 0.138l-0.041-0.008c-0.257 0.179-0.55 0.349-0.858 0.494l-0.037 0.016z"></path>
<path fill="#ffe15a" d="M20.326 14.763c0.019-0.004 0.041-0.006 0.063-0.006 0.18 0 0.326 0.146 0.326 0.326 0 0.158-0.112 0.289-0.261 0.319l-0.002 0c-0.372-0.016-0.723-0.061-1.064-0.135l0.041 0.007c0.258-0.18 0.552-0.35 0.86-0.496l0.037-0.016z"></path>
<path fill="#ffe15a" d="M29.183 9.569c-0.059 0.088-0.159 0.145-0.271 0.145-0.18 0-0.326-0.146-0.326-0.326 0-0.068 0.021-0.13 0.056-0.183l-0.001 0.001c0.243-0.224 0.509-0.432 0.791-0.618l0.023-0.014c-0.072 0.383-0.166 0.717-0.286 1.038l0.014-0.043z"></path>
<path fill="#ffe15a" d="M22.478 18.431c0.059-0.088 0.159-0.145 0.271-0.145 0.18 0 0.326 0.146 0.326 0.326 0 0.068-0.021 0.13-0.056 0.183l0.001-0.001c-0.243 0.225-0.51 0.433-0.793 0.619l-0.023 0.014c0.073-0.383 0.168-0.717 0.289-1.038l-0.014 0.043z"></path>
<path fill="#ffe15a" d="M30.263 17.354c-0.093-0.058-0.154-0.161-0.154-0.277 0-0.18 0.146-0.326 0.326-0.326 0.071 0 0.137 0.023 0.19 0.061l-0.001-0.001c0.225 0.243 0.433 0.509 0.619 0.791l0.014 0.023c-0.382-0.071-0.715-0.166-1.035-0.286l0.042 0.014z"></path>
<path fill="#ffe15a" d="M21.398 10.65c0.077 0.061 0.126 0.154 0.126 0.259 0 0.181-0.147 0.328-0.328 0.328-0.059 0-0.115-0.016-0.163-0.043l0.002 0.001c-0.224-0.244-0.432-0.51-0.618-0.793l-0.015-0.024c0.382 0.071 0.716 0.166 1.038 0.286l-0.042-0.014z"></path>
<path fill="#ffe15a" d="M23.027 9.206c0.035 0.051 0.055 0.114 0.055 0.181 0 0.18-0.146 0.326-0.326 0.326-0.112 0-0.212-0.057-0.27-0.144l-0.001-0.001c-0.107-0.278-0.201-0.612-0.268-0.956l-0.006-0.039c0.306 0.2 0.573 0.409 0.821 0.637l-0.004-0.004z"></path>
<path fill="#ffe15a" d="M28.641 18.791c-0.035-0.051-0.055-0.114-0.055-0.181 0-0.18 0.146-0.326 0.326-0.326 0.112 0 0.212 0.057 0.27 0.144l0.001 0.001c0.106 0.279 0.2 0.613 0.266 0.957l0.006 0.039c-0.305-0.199-0.571-0.408-0.818-0.636l0.004 0.004z"></path>
<path fill="#ffe15a" d="M30.623 11.19c-0.046 0.027-0.102 0.042-0.161 0.042-0.181 0-0.328-0.147-0.328-0.328 0-0.105 0.049-0.198 0.126-0.258l0.001-0.001c0.279-0.106 0.613-0.2 0.957-0.266l0.039-0.006c-0.199 0.306-0.407 0.573-0.636 0.82l0.004-0.004z"></path>
<path fill="#ffe15a" d="M21.036 16.812c0.051-0.035 0.114-0.055 0.181-0.055 0.18 0 0.326 0.146 0.326 0.326 0 0.112-0.057 0.212-0.144 0.27l-0.001 0.001c-0.279 0.107-0.613 0.201-0.957 0.266l-0.038 0.006c0.2-0.305 0.409-0.571 0.637-0.818l-0.004 0.004z"></path>
<path fill="#ffe15a" d="M27.232 8.622c-0.031 0.151-0.162 0.262-0.32 0.262-0.18 0-0.326-0.146-0.326-0.326 0-0.023 0.002-0.045 0.007-0.066l-0 0.002c0.161-0.345 0.332-0.638 0.525-0.915l-0.013 0.020c0.067 0.3 0.112 0.652 0.128 1.011l0 0.013z"></path>
<path fill="#ffe15a" d="M24.422 19.377c0.039-0.141 0.166-0.244 0.317-0.244 0.181 0 0.328 0.147 0.328 0.328 0 0.015-0.001 0.030-0.003 0.045l0-0.002c-0.163 0.345-0.333 0.639-0.525 0.916l0.014-0.021c-0.067-0.3-0.114-0.651-0.13-1.010l-0-0.013z"></path>
<path fill="#ffe15a" d="M31.207 15.402c-0.151-0.031-0.262-0.162-0.262-0.32 0-0.18 0.146-0.326 0.326-0.326 0.023 0 0.045 0.002 0.066 0.007l-0.002-0c0.345 0.161 0.638 0.332 0.915 0.525l-0.020-0.013c-0.3 0.067-0.652 0.112-1.011 0.127l-0.013 0z"></path>
<path fill="#ffe15a" d="M20.452 12.597c0.151 0.030 0.263 0.162 0.263 0.32 0 0.18-0.146 0.326-0.326 0.326-0.022 0-0.044-0.002-0.065-0.006l0.002 0c-0.346-0.161-0.64-0.331-0.918-0.523l0.021 0.013c0.3-0.067 0.651-0.114 1.010-0.13l0.013-0z"></path>
<path fill="#ffe15a" d="M36.063 15.144c-0.028-0.012-0.060-0.018-0.094-0.018-0.103 0-0.192 0.062-0.231 0.152l-0.001 0.002-0.014 0.035c-0.318 0.656-0.642 1.21-1.002 1.737l0.030-0.046c0.367-1.182 0.698-2.445 0.726-2.533 0.005-0.020 0.009-0.042 0.009-0.065 0-0.138-0.112-0.249-0.249-0.249-0.115 0-0.211 0.077-0.24 0.182l-0 0.002c-0.264 0.822-0.55 1.515-0.884 2.18l0.039-0.086c0.058-0.763 0.070-1.47 0.070-1.521 0-0.002 0-0.003 0-0.005 0-0.131-0.103-0.239-0.232-0.246l-0.001-0c-0 0-0.001 0-0.002 0-0.134 0-0.244 0.101-0.259 0.231l-0 0.001c-0.415 2.948-2.314 5.373-4.905 6.522l-0.053 0.021c-0.79 0.081-1.513 0.239-2.202 0.47l0.072-0.021c-0.102 0.037-0.191 0.072-0.279 0.109-0.027-0.012-0.059-0.019-0.092-0.019-0.004 0-0.009 0-0.013 0l0.001-0c-0.198 0.020-0.429 0.032-0.662 0.032-2.533 0-4.747-1.365-5.947-3.4l-0.018-0.032c-0.71-1.097-1.26-2.375-1.577-3.742l-0.016-0.081c-0.023-0.117-0.124-0.203-0.245-0.203-0.138 0-0.25 0.112-0.25 0.25 0 0.016 0.002 0.033 0.005 0.048l-0-0.002c0.171 0.777 0.39 1.453 0.666 2.099l-0.029-0.076c-0.496-0.792-0.904-1.708-1.176-2.68l-0.018-0.074-0.014-0.033c-0.006-0.019-0.014-0.035-0.024-0.050l0.001 0.001-0.028-0.028c-0.011-0.016-0.025-0.029-0.041-0.039l-0.001-0-0.030-0.014c-0.017-0.010-0.036-0.017-0.057-0.021l-0.001-0c-0.007-0.001-0.014-0.002-0.022-0.002s-0.015 0.001-0.023 0.002l0.001-0c-0.007-0.001-0.014-0.002-0.022-0.002s-0.015 0.001-0.023 0.002l0.001-0h-0.019l-0.035 0.019c-0.018 0.005-0.033 0.012-0.047 0.021l0.001-0-0.033 0.033c-0.012 0.011-0.023 0.022-0.032 0.034l-0 0.001c-0.007 0.012-0.014 0.025-0.020 0.040l-0.001 0.002c0 0.016-0.012 0.030-0.014 0.044-0.001 0.008-0.002 0.017-0.002 0.026s0.001 0.018 0.002 0.027l-0-0.001c-0.001 0.006-0.001 0.013-0.001 0.020s0 0.014 0.001 0.021l-0-0.001v0.019c0.196 0.966 0.492 1.822 0.884 2.622l-0.028-0.063c-0.445-0.488-0.822-1.048-1.108-1.659l-0.017-0.041-0.021-0.030c-0.008-0.018-0.018-0.033-0.030-0.047l0 0-0.028-0.023c-0.014-0.013-0.030-0.025-0.048-0.034l-0.001-0.001h-0.035c-0.016-0.007-0.035-0.012-0.055-0.014l-0.001-0h-0.047c-0.006-0.001-0.014-0.001-0.021-0.001s-0.015 0-0.022 0.001l0.001-0c-0.013 0.006-0.025 0.013-0.035 0.021l0-0-0.042 0.026c-0.011 0.012-0.021 0.025-0.030 0.038l-0.001 0.001c-0.009 0.011-0.018 0.023-0.025 0.036l-0.001 0.001c-0.007 0.014-0.012 0.029-0.014 0.046l-0 0.001c-0.004 0.013-0.008 0.028-0.011 0.044l-0 0.002c-0.001 0.007-0.001 0.015-0.001 0.023s0 0.016 0.001 0.024l-0-0.001c-0.001 0.007-0.001 0.014-0.001 0.022s0 0.015 0.001 0.023l-0-0.001c0.386 1.012 0.869 1.888 1.456 2.682l-0.021-0.030c-0.306-0.242-0.578-0.501-0.824-0.784l-0.006-0.007-0.028-0.035c-0.046-0.057-0.116-0.093-0.194-0.093-0.138 0-0.25 0.112-0.25 0.25 0 0.060 0.021 0.114 0.056 0.157l-0-0 0.056 0.065c0.371 0.436 0.747 0.831 1.144 1.205l0.007 0.007-0.505-0.214c-0.029-0.012-0.062-0.020-0.097-0.020-0.137 0-0.249 0.111-0.249 0.249 0 0.081 0.039 0.153 0.098 0.198l0.001 0c0.497 0.376 1.059 0.74 1.647 1.064l0.072 0.036c-0.038 0.003-0.083 0.004-0.128 0.004s-0.090-0.002-0.134-0.005l0.006 0c-0.007-0.001-0.014-0.001-0.022-0.001-0.137 0-0.249 0.111-0.249 0.249 0 0.104 0.064 0.194 0.155 0.231l0.002 0.001c0.021 0 0.256 0.105 0.547 0.209-0.092 0.038-0.155 0.127-0.155 0.231 0 0.092 0.050 0.172 0.124 0.215l0.001 0.001c0.219 0.126 0.488 0.258 0.764 0.376l0.052 0.020c-0.011 0.017-0.020 0.037-0.027 0.058l-0.001 0.002c-0.008 0.023-0.013 0.050-0.013 0.078 0 0.084 0.042 0.159 0.107 0.203l0.001 0.001c1.059 0.704 2.347 1.145 3.735 1.202l0.015 0c0.13 0 0.261 0 0.393-0.016 0.13-0.007 0.233-0.115 0.233-0.246 0-0.008-0-0.015-0.001-0.022l0 0.001c0-0.001 0-0.002 0-0.003 0-0.128-0.104-0.233-0.233-0.233-0.012 0-0.024 0.001-0.036 0.003l0.001-0c-0.070 0.003-0.152 0.004-0.235 0.004-1.068 0-2.074-0.269-2.952-0.744l0.033 0.016c0.064-0.015 0.118-0.032 0.17-0.052l-0.010 0.003c0.095-0.037 0.16-0.127 0.16-0.233 0-0.137-0.111-0.249-0.249-0.249v0c-0.384-0.042-0.734-0.147-1.053-0.306l0.018 0.008c0.082-0.041 0.152-0.085 0.217-0.135l-0.003 0.002c0.055-0.046 0.090-0.116 0.090-0.193 0-0.023-0.003-0.046-0.009-0.067l0 0.002c-0.026-0.093-0.103-0.163-0.199-0.179l-0.001-0c-0.15-0.029-0.277-0.062-0.4-0.102l0.023 0.007c0.090-0.048 0.163-0.117 0.213-0.202l0.001-0.003c0.018-0.034 0.028-0.074 0.028-0.116s-0.010-0.083-0.029-0.118l0.001 0.001c-0.034-0.069-0.097-0.119-0.173-0.135l-0.002-0c-0.086-0.021-0.159-0.045-0.23-0.074l0.011 0.004c0.016-0.014 0.029-0.031 0.039-0.050l0-0.001c0.022-0.036 0.034-0.080 0.034-0.127 0-0.079-0.037-0.15-0.094-0.196l-0-0s-0.2-0.156-0.493-0.407c0.049-0.019 0.089-0.051 0.118-0.092l0.001-0.001c0.031-0.041 0.049-0.093 0.049-0.149s-0.019-0.108-0.050-0.149l0 0.001s-0.2-0.251-0.465-0.621c0.077 0.064 0.164 0.128 0.253 0.188l0.012 0.007c0.038 0.024 0.085 0.039 0.135 0.040h0c0.006 0.001 0.014 0.001 0.021 0.001 0.093 0 0.174-0.055 0.211-0.134l0.001-0.001c0.145 0.157 0.301 0.3 0.468 0.428l0.009 0.006c0.022 0.011 0.047 0.019 0.073 0.023l0.002 0c0.070 0.119 0.144 0.233 0.233 0.356 1.288 2.148 3.576 3.582 6.204 3.656l0.010 0c-0.256 0.162-0.551 0.312-0.861 0.436l-0.037 0.013-0.247 0.102c-0.039 0.009-0.073 0.025-0.103 0.047l0.001-0.001c-0.468 0.17-0.852 0.476-1.116 0.869l-0.005 0.008c-0.031 0.061-0.050 0.133-0.050 0.209 0 0.149 0.070 0.282 0.179 0.367l0.001 0.001c0.042 0.035 0.097 0.056 0.157 0.056 0 0 0.001 0 0.001 0h-0c0.042-0 0.082-0.010 0.118-0.029l-0.001 0.001c0.085-0.042 0.142-0.127 0.142-0.226 0-0.002-0-0.005-0-0.007v0c0.046-0.033 0.104-0.052 0.166-0.052 0.009 0 0.018 0 0.026 0.001l-0.001-0c0.197 0.002 0.388 0.015 0.576 0.037l-0.025-0.002c0.233 0.019 0.509 0.040 0.805 0.056-0.186 0.214-0.4 0.465-0.4 0.465-0.038 0.043-0.061 0.099-0.061 0.161 0 0.040 0.009 0.077 0.026 0.11l-0.001-0.001c0.042 0.085 0.127 0.142 0.226 0.142 0.002 0 0.005-0 0.007-0h-0l0.419-0.014c0.056 0.076 0.137 0.132 0.23 0.155l0.003 0.001c0.033 0.006 0.070 0.010 0.109 0.010 0.134 0 0.257-0.043 0.358-0.116l-0.002 0.001c0.077 0.056 0.169 0.095 0.269 0.111l0.004 0c0.028 0.004 0.061 0.006 0.094 0.006 0.136 0 0.263-0.034 0.375-0.094l-0.004 0.002c0.092 0.061 0.205 0.098 0.326 0.098 0.001 0 0.003 0 0.004-0h-0c0.186-0.008 0.355-0.077 0.487-0.187l-0.001 0.001c0.082 0.050 0.18 0.081 0.285 0.086l0.001 0c0.005 0 0.012 0 0.018 0 0.152 0 0.294-0.047 0.41-0.127l-0.002 0.002c0.047 0.008 0.1 0.012 0.155 0.012 0.274 0 0.521-0.11 0.701-0.289l-0 0c0.067 0.040 0.148 0.063 0.234 0.063 0.005 0 0.009-0 0.014-0h-0.001c0.162-0.015 0.304-0.094 0.402-0.211l0.001-0.001c0.064 0.016 0.138 0.026 0.214 0.026 0.247 0 0.471-0.099 0.635-0.258l-0 0c0.077-0.091 0.127-0.206 0.137-0.333l0-0.002c1.105 0 1.207-0.612 1.214-0.698 0.001-0.008 0.001-0.016 0.001-0.025 0-0.062-0.022-0.119-0.060-0.163l0 0c-0.042-0.051-0.104-0.084-0.174-0.086h-0l-2.9-0.174c-0.005-0-0.012-0.001-0.018-0.001-0.117 0-0.214 0.081-0.24 0.19l-0 0.002c-0.041 0.131-0.111 0.243-0.204 0.332l-0 0c-0.249 0.2-0.56 0.331-0.901 0.36l-0.006 0c0-0.005 0.001-0.010 0.001-0.016 0-0.031-0.006-0.061-0.017-0.088l0.001 0.002c-0.038-0.094-0.128-0.159-0.233-0.159-0.032 0-0.063 0.006-0.092 0.017l0.002-0.001c-0.468 0.126-1.005 0.199-1.559 0.199-0.27 0-0.537-0.017-0.798-0.051l0.031 0.003c0.108-0.089 0.229-0.172 0.357-0.245l0.013-0.007c0.078-0.045 0.129-0.128 0.129-0.222 0-0.015-0.001-0.030-0.004-0.044l0 0.002c-0.020-0.074-0.071-0.134-0.138-0.165l-0.002-0.001c0.212-0.107 0.384-0.209 0.549-0.309 0.3-0.198 0.644-0.371 1.009-0.499l0.033-0.010c0.593-0.198 1.289-0.35 2.007-0.426l0.045-0.004c0.026-0.001 0.051-0.007 0.073-0.017l-0.001 0c1.94-0.908 3.494-2.37 4.491-4.182l0.026-0.051c-0.020 0.1-0.042 0.182-0.068 0.262l0.005-0.018c-0.007 0.022-0.011 0.048-0.011 0.074 0 0.103 0.063 0.19 0.152 0.228l0.002 0.001c0.029 0.012 0.062 0.020 0.098 0.020 0.066 0 0.125-0.025 0.17-0.066l-0 0c-0.078 0.215-0.16 0.395-0.255 0.568l0.011-0.021c-0.023 0.037-0.036 0.081-0.036 0.129 0 0.087 0.044 0.163 0.112 0.208l0.001 0.001c0.023 0.015 0.051 0.027 0.080 0.034l0.002 0c-0.112 0.165-0.233 0.321-0.34 0.465-0.036 0.043-0.059 0.099-0.059 0.16s0.022 0.117 0.059 0.161l-0-0c-0.157 0.169-0.32 0.326-0.492 0.472l-0.008 0.007c-0.056 0.046-0.092 0.116-0.092 0.193 0 0.033 0.007 0.065 0.018 0.094l-0.001-0.002c-0.086 0.053-0.186 0.103-0.29 0.142l-0.012 0.004c-0.104 0.031-0.179 0.126-0.179 0.239 0 0.083 0.041 0.157 0.104 0.202l0.001 0c-0.151 0.040-0.319 0.079-0.5 0.116-0.118 0.021-0.207 0.123-0.207 0.245 0 0.095 0.053 0.177 0.131 0.219l0.001 0.001c0.063 0.036 0.14 0.072 0.219 0.104l0.014 0.005c-0.81 0.304-1.749 0.512-2.725 0.584l-0.034 0.002c-0.117 0.023-0.203 0.125-0.203 0.247 0 0.139 0.112 0.251 0.251 0.251 0 0 0 0 0.001 0h-0c1.308-0.002 2.531-0.36 3.579-0.983l-0.032 0.018c0.055-0.046 0.089-0.114 0.089-0.191 0-0.027-0.004-0.054-0.013-0.079l0.001 0.002c-0.020-0.064-0.063-0.116-0.12-0.146l-0.001-0.001c0.474-0.13 0.889-0.33 1.256-0.592l-0.012 0.008c0.058-0.046 0.095-0.116 0.095-0.196 0-0.137-0.111-0.249-0.249-0.249-0.034 0-0.067 0.007-0.097 0.019l0.002-0.001c-0.043 0.016-0.093 0.029-0.145 0.037l-0.004 0c0.577-0.393 1.189-0.863 1.456-1.072 0.047-0.035 0.091-0.067 0.128-0.1 0.054-0.046 0.088-0.114 0.088-0.19 0-0.137-0.111-0.249-0.249-0.249-0.058 0-0.112 0.020-0.154 0.053l0.001-0-0.123 0.093c-0.123 0.093-0.281 0.198-0.465 0.305 0.654-0.742 1.312-1.547 1.5-1.777l0.051-0.063c0.035-0.043 0.056-0.097 0.056-0.157 0-0.138-0.112-0.25-0.25-0.25-0.078 0-0.148 0.036-0.194 0.092l-0 0-0.060 0.074c-0.198 0.233-0.405 0.465-0.609 0.698 0.668-1.207 1.163-2.393 1.244-2.57v-0.019c0.016-0.032 0.026-0.070 0.026-0.11 0-0.099-0.057-0.184-0.141-0.224l-0.001-0.001zM24.369 23.555h0.070c-0.079 0.074-0.147 0.159-0.204 0.251l-0.003 0.005-0.309-0.021c0.125-0.078 0.271-0.157 0.423-0.225l0.023-0.009z"></path>
</svg>
