<!-- Generated by IcoMoon.io -->
<svg version="1.1" xmlns="http://www.w3.org/2000/svg" width="49" height="32" viewBox="0 0 49 32">
<title>lb</title>
<path fill="#ff4b55" d="M48.837 6.737h-48.837v-5.895c0.001-0.465 0.379-0.842 0.844-0.842 0 0 0 0 0 0h47.151c0.465 0 0.842 0.377 0.842 0.842v0 5.895z"></path>
<path fill="#ff4b55" d="M47.995 31.998h-47.151c0 0 0 0 0 0-0.465 0-0.843-0.377-0.844-0.842v-5.895h48.837v5.895c0 0.465-0.377 0.842-0.842 0.842v0z"></path>
<path fill="#f5f5f5" d="M0 6.737h48.837v18.526h-48.837v-18.526z"></path>
<path fill="#73af00" d="M26.219 21.663l7.781-1.556c0.358-0.074 0.623-0.387 0.623-0.761 0-0.177-0.059-0.34-0.159-0.471l0.001 0.002c-0.119-0.157-0.295-0.266-0.496-0.297l-0.004-0.001-8.291-1.293c-0.204-0.033-0.357-0.208-0.357-0.418 0-0.025 0.002-0.049 0.006-0.073l-0 0.003c0.043-0.202 0.22-0.352 0.433-0.352 0.024 0 0.047 0.002 0.070 0.006l5.746 0.756c0.020 0.003 0.043 0.004 0.066 0.004 0.277 0 0.502-0.225 0.502-0.502 0-0.133-0.052-0.254-0.136-0.344l0 0-0.465-0.491c-0.168-0.179-0.39-0.306-0.639-0.357l-0.008-0.001-4.802-0.93 4.095 0.295c0.007 0.001 0.016 0.001 0.024 0.001 0.193 0 0.349-0.156 0.349-0.349 0-0.090-0.034-0.172-0.090-0.234l-0.209-0.232c-0.124-0.138-0.289-0.236-0.476-0.276l-0.006-0.001-4.065-0.851 2.888-0.084c0.163-0.004 0.293-0.137 0.293-0.3 0-0.077-0.029-0.147-0.077-0.2l0 0-0.13-0.144c-0.1-0.108-0.229-0.189-0.373-0.231l-0.006-0.001-2.577-0.74h2.026c0.154-0.001 0.278-0.125 0.278-0.279 0-0.040-0.008-0.077-0.023-0.111l0.001 0.002-0.070-0.158c-0.083-0.189-0.238-0.333-0.43-0.398l-0.005-0.002-1.86-0.637h0.93c0.21-0.001 0.38-0.171 0.38-0.381 0-0.055-0.012-0.107-0.032-0.154l0.001 0.002c-0.090-0.202-0.242-0.363-0.432-0.463l-0.005-0.002-2.072-1.079-2.053 1.065c-0.195 0.102-0.347 0.263-0.435 0.459l-0.002 0.006c-0.020 0.045-0.031 0.097-0.031 0.151 0 0.21 0.17 0.381 0.38 0.381h0.93l-1.872 0.637c-0.197 0.067-0.352 0.211-0.433 0.395l-0.002 0.005-0.070 0.158c-0.014 0.032-0.022 0.070-0.022 0.109 0 0.154 0.124 0.279 0.278 0.279h2.026l-2.577 0.74c-0.151 0.044-0.279 0.124-0.379 0.232l-0 0.001-0.13 0.144c-0.047 0.053-0.076 0.123-0.076 0.2 0 0.163 0.128 0.295 0.289 0.302l0.001 0 2.891 0.084-4.065 0.849c-0.193 0.040-0.358 0.138-0.481 0.276l-0.001 0.001-0.212 0.233c-0.056 0.062-0.090 0.144-0.090 0.234 0 0.193 0.156 0.349 0.349 0.349 0.009 0 0.019-0 0.028-0.001l-0.001 0 4.095-0.295-4.802 0.93c-0.257 0.052-0.478 0.179-0.646 0.357l-0.001 0.001-0.465 0.493c-0.083 0.089-0.134 0.209-0.134 0.341 0 0.277 0.225 0.502 0.502 0.502 0.023 0 0.045-0.002 0.067-0.004l-0.003 0 5.747-0.756c0.021-0.004 0.045-0.006 0.070-0.006 0.212 0 0.39 0.15 0.432 0.349l0.001 0.003c0.004 0.021 0.006 0.045 0.006 0.070 0 0.211-0.155 0.386-0.357 0.418l-0.002 0-8.288 1.293c-0.205 0.032-0.381 0.141-0.499 0.296l-0.001 0.002c-0.098 0.129-0.158 0.292-0.158 0.469 0 0.374 0.265 0.687 0.618 0.76l0.005 0.001 7.781 1.556v0.972c-0 0.551-0.224 1.051-0.586 1.412l-1.214 1.214h7.209l-1.214-1.214c-0.362-0.361-0.586-0.86-0.586-1.412v-0.972z"></path>
</svg>
