<!-- Generated by IcoMoon.io -->
<svg version="1.1" xmlns="http://www.w3.org/2000/svg" width="49" height="32" viewBox="0 0 49 32">
<title>lk</title>
<path fill="#ffd250" d="M48.002 0h-47.158c0 0 0 0 0 0-0.465 0-0.843 0.377-0.844 0.842v30.316c0.001 0.465 0.379 0.842 0.844 0.842 0 0 0 0 0 0h47.158c0.465 0 0.842-0.377 0.842-0.842v0-30.316c0-0.465-0.377-0.842-0.842-0.842v0z"></path>
<path fill="#963c3c" d="M17.677 3.368v25.264c0 0.465 0.377 0.842 0.842 0.842h26.948c0.465 0 0.842-0.377 0.842-0.842v0-25.264c0-0.465-0.377-0.842-0.842-0.842h-26.939c-0.003-0-0.006-0-0.009-0-0.465 0-0.842 0.377-0.842 0.842 0 0 0 0 0 0v0z"></path>
<path fill="#5aa587" d="M8.838 2.526h-5.473c-0.465 0-0.842 0.377-0.842 0.842v0 25.264c0 0.465 0.377 0.842 0.842 0.842h5.473z"></path>
<path fill="#ff7350" d="M14.318 2.526h-5.48v26.948h5.475c0.465 0 0.842-0.377 0.842-0.842v0-25.264c0 0 0 0 0 0 0-0.463-0.374-0.839-0.837-0.842h-0z"></path>
<path fill="#ffd250" d="M37.545 22.745c-0.028-0.188 0.137-0.43 0.393-0.779 0.093-0.116 0.18-0.246 0.255-0.383l0.007-0.014c-0.012-0.001-0.026-0.002-0.041-0.002s-0.029 0.001-0.043 0.002l0.002-0c-0.027 0.004-0.059 0.007-0.091 0.007-0.179 0-0.339-0.077-0.451-0.199l-0-0c-0.064-0.069-0.103-0.161-0.103-0.263 0-0.011 0-0.021 0.001-0.031l-0 0.001c0.043-0.226 0.155-0.421 0.313-0.567l0.001-0.001c-0.313-0.213-0.586-0.437-0.839-0.683l0.001 0.001c-0.416-0.447-1.008-0.726-1.665-0.726-0.010 0-0.020 0-0.030 0h0.002c-0 0.011-0 0.023-0 0.036 0 0.561 0.233 1.068 0.607 1.429l0.001 0.001c0.1 0.126 0.202 0.254 0.293 0.386 0.221 0.429 0.35 0.937 0.35 1.475 0 0.202-0.018 0.4-0.053 0.592l0.003-0.020c-0.168 0.26-0.456 0.43-0.784 0.43-0.045 0-0.089-0.003-0.133-0.009l0.005 0.001c-0.030-0.004-0.065-0.006-0.101-0.006-0.208 0-0.398 0.073-0.547 0.196l0.002-0.001c-0.089 0.071-0.148 0.178-0.153 0.299l-0 0.001s0 0.042 0.012 0.049c0.065 0.040 0.312-0.040 0.486-0.135 0.018-0.010 0.039-0.015 0.061-0.015 0.035 0 0.067 0.014 0.090 0.036l-0-0c0.095 0.089 0.224 0.144 0.365 0.144s0.27-0.055 0.365-0.144l-0 0c0.022-0.018 0.051-0.030 0.083-0.030s0.060 0.011 0.083 0.030l-0-0c0.095 0.070 0.215 0.112 0.344 0.112 0.152 0 0.29-0.058 0.393-0.152l-0 0c0.021-0.016 0.049-0.026 0.078-0.026s0.056 0.010 0.078 0.026l-0-0c0.080 0.064 0.183 0.102 0.295 0.102 0.044 0 0.086-0.006 0.127-0.017l-0.003 0.001c0.074-0.025 0.134-0.075 0.174-0.138l0.001-0.001c-0.033-0.198-0.072-0.367-0.122-0.533l0.008 0.030c-0.049-0.184-0.098-0.379-0.119-0.509z"></path>
<path fill="#ffd250" d="M41.376 10.816c-0.013-0.002-0.028-0.003-0.043-0.003-0.073 0-0.139 0.027-0.19 0.071l0-0c-0.057 0.069-0.091 0.158-0.091 0.256 0 0.005 0 0.010 0 0.015l-0-0.001c0 0.003 0 0.007 0 0.010 0 0.036-0.015 0.069-0.040 0.092l-0 0c-0.024 0.022-0.056 0.036-0.091 0.036-0.005 0-0.009-0-0.014-0.001l0.001 0c-0.386-0.149-0.718-0.357-1.003-0.616l0.003 0.002c-0.916-0.784-2.026-1.37-3.247-1.677l-0.055-0.012c-1.396-0.179-2.645 0.267-2.961 1.061-0.045 0.148-0.071 0.318-0.071 0.494 0 0.463 0.18 0.885 0.474 1.198l-0.001-0.001c0.022 0.023 0.036 0.054 0.036 0.089 0 0.022-0.006 0.043-0.015 0.061l0-0.001c-0.061 0.098-0.096 0.216-0.096 0.343 0 0.177 0.070 0.337 0.183 0.455l-0-0c0.032-0.11 0.101-0.2 0.191-0.259l0.002-0.001c0.209-0.126 0.484-0.021 0.863 0.121 0.208 0.087 0.466 0.174 0.73 0.244l0.044 0.010c0.282 0.044 0.606 0.069 0.937 0.069 0.557 0 1.097-0.071 1.613-0.204l-0.045 0.010c0.288-0.051 0.568-0.102 0.828-0.135 0.083-0.017 0.178-0.027 0.276-0.027 0.511 0 0.958 0.272 1.205 0.679l0.004 0.006c0.088 0.233 0.135 0.661-0.533 1.144-1.198 0.872-6.659 0.465-6.978 0.444h-0.030c0.088 0.113 0.195 0.207 0.316 0.279l0.005 0.003c0.055 0.015 0.094 0.065 0.094 0.123 0 0.007-0.001 0.013-0.001 0.019l0-0.001c-0.007 0.063-0.060 0.112-0.125 0.112-0 0-0.001 0-0.001 0h-0.558l0.051 0.54c0 0.003 0 0.007 0 0.011 0 0.037-0.016 0.071-0.042 0.094l-0 0c-0.023 0.022-0.054 0.036-0.089 0.036-0.006 0-0.013-0-0.019-0.001l0.001 0c-0.315-0.052-0.597-0.146-0.857-0.275l0.018 0.008-0.633 0.4c-0.019 0.011-0.043 0.018-0.067 0.019h-0.042c-0.037-0.012-0.066-0.040-0.079-0.076l-0-0.001-0.233-0.656-0.298 0.581c-0.021 0.040-0.062 0.068-0.109 0.070h-0c-0.003 0-0.006 0-0.010 0-0.045 0-0.084-0.024-0.106-0.060l-0-0.001-0.233-0.388c-0.139 0.176-0.296 0.329-0.47 0.461l-0.006 0.005c-0.020 0.015-0.045 0.023-0.072 0.023-0.015 0-0.029-0.003-0.042-0.008l0.001 0c-0.039-0.013-0.069-0.044-0.081-0.083l-0-0.001-0.128-0.405c-0.14 0.177-0.293 0.333-0.46 0.473l-0.005 0.004c-0.022 0.018-0.051 0.029-0.082 0.029-0.018 0-0.036-0.004-0.052-0.011l0.001 0c-0.043-0.019-0.074-0.060-0.077-0.109l-0-0-0.042-0.654c-0.128 0.071-0.282 0.142-0.441 0.201l-0.025 0.008c-0.011 0.003-0.023 0.005-0.036 0.005-0.042 0-0.079-0.019-0.103-0.049l-0-0c-0.014-0.020-0.022-0.045-0.022-0.072s0.008-0.052 0.022-0.073l-0 0c0.181-0.285 0.319-0.618 0.394-0.973l0.004-0.020c-0.16 0.173-0.331 0.33-0.514 0.472l-0.009 0.007c-0.574 0.419-1.043 0.947-1.383 1.557l-0.013 0.024c-0.199 0.389-0.316 0.849-0.316 1.336 0 0.374 0.069 0.732 0.195 1.062l-0.007-0.020c0.376 0.81 1.069 1.419 1.916 1.676l0.022 0.006c-0.032-0.123-0.054-0.265-0.060-0.412l-0-0.005c-0-0.020-0-0.044-0-0.068 0-0.439 0.048-0.866 0.14-1.278l-0.007 0.039c0.013-0.058 0.064-0.101 0.125-0.101 0.010 0 0.020 0.001 0.029 0.003l-0.001-0c0.058 0.014 0.101 0.065 0.101 0.127 0 0.010-0.001 0.020-0.003 0.030l0-0.001c-0.080 0.361-0.126 0.776-0.126 1.201 0 0.015 0 0.030 0 0.045v-0.002c0.041 0.395 0.136 0.758 0.279 1.095l-0.009-0.025c0.175 0.374 0.276 0.812 0.276 1.274 0 0.057-0.002 0.114-0.005 0.171l0-0.008c-0.105 0.584-0.833 0.733-1.51 0.621-0.035-0.008-0.076-0.012-0.117-0.012-0.145 0-0.277 0.055-0.377 0.145l0-0c-0.11 0.106-0.178 0.255-0.178 0.42 0 0.023 0.001 0.046 0.004 0.069l-0-0.003c0 0.088 0.040 0.107 0.051 0.112 0.029 0.006 0.063 0.009 0.097 0.009 0.103 0 0.2-0.029 0.282-0.080l-0.002 0.001c0.017-0.009 0.037-0.014 0.059-0.014 0.039 0 0.073 0.017 0.097 0.044l0 0c0.272 0.302 0.637 0 0.651-0.014 0.023-0.022 0.055-0.035 0.090-0.035s0.066 0.013 0.090 0.035l-0-0c0.080 0.096 0.197 0.159 0.329 0.167l0.001 0c0.169-0.009 0.319-0.078 0.433-0.186l-0 0c0.023-0.022 0.054-0.035 0.088-0.035 0.020 0 0.038 0.004 0.055 0.012l-0.001-0c0.117 0.073 0.259 0.117 0.411 0.117 0.088 0 0.173-0.015 0.253-0.042l-0.006 0.002c0.37-0.316 0.156-1.063 0.156-1.070-0.004-0.012-0.006-0.025-0.006-0.039 0-0.024 0.007-0.045 0.018-0.064l-0 0c0.017-0.030 0.046-0.052 0.081-0.060l0.001-0c0.402-0.093 0.735-0.336 0.943-0.666l0.004-0.006c-0.013 0.001-0.029 0.002-0.045 0.002-0.22 0-0.414-0.11-0.53-0.279l-0.001-0.002c-0.057-0.123-0.091-0.267-0.091-0.42 0-0.293 0.124-0.557 0.323-0.743l0.001-0.001c0.531-0.735 0.855-1.65 0.874-2.64l0-0.005c-0-0.004-0.001-0.008-0.001-0.012 0-0.067 0.051-0.122 0.116-0.127l0-0c0.003-0 0.006-0 0.010-0 0.067 0 0.122 0.051 0.13 0.116l0 0.001c-0.010 0.843-0.226 1.634-0.599 2.327l0.013-0.027c0.578-0.173 1.070-0.369 1.54-0.602l-0.057 0.025c0.434-0.216 0.965-0.434 1.511-0.617l0.093-0.027c0.252-0.093 0.543-0.147 0.847-0.147 0.73 0 1.388 0.311 1.847 0.808l0.002 0.002c0.368 0.347 0.773 0.661 1.207 0.934l0.033 0.019c0.205 0.137 0.416 0.279 0.637 0.44 0.354 0.204 0.589 0.58 0.589 1.012 0 0.053-0.004 0.106-0.011 0.157l0.001-0.006c-0.004 0.055-0.006 0.119-0.006 0.184s0.002 0.129 0.007 0.192l-0-0.009c0.063 0.619-0.43 0.716-0.668 0.765l-0.088 0.019-0.119 0.026c-0.233 0.049-0.602 0.121-0.698 0.43-0.003 0.011-0.005 0.024-0.005 0.037s0.002 0.026 0.005 0.038l-0-0.001c0.143-0.004 0.277-0.041 0.396-0.102l-0.005 0.002c0.015-0.007 0.033-0.011 0.052-0.011s0.037 0.004 0.053 0.011l-0.001-0c0.034 0.014 0.060 0.041 0.072 0.076l0 0.001c0.047 0.133 0.116 0.156 0.14 0.165 0.012 0.001 0.025 0.001 0.039 0.001 0.177 0 0.341-0.059 0.472-0.158l-0.002 0.001c0.022-0.018 0.050-0.029 0.081-0.029s0.059 0.011 0.082 0.029l-0-0c0.088 0.099 0.216 0.161 0.358 0.161 0.003 0 0.007-0 0.010-0h-0.001c0.098-0.023 0.18-0.082 0.232-0.161l0.001-0.001c0.023-0.037 0.064-0.061 0.111-0.061 0.038 0 0.073 0.016 0.096 0.043l0 0c0.095 0.088 0.21 0.154 0.338 0.192l0.006 0.002c0.151 0.047 0.191 0 0.202-0.026 0.020-0.051 0.031-0.11 0.031-0.172 0-0.121-0.043-0.231-0.115-0.317l0.001 0.001c-0.129-0.171-0.207-0.387-0.207-0.622 0-0.061 0.005-0.12 0.015-0.178l-0.001 0.006c0.040-0.254 0.187-0.468 0.392-0.598l0.004-0.002c0.4-0.254 0.491-0.528 0.465-0.579l-0.086-0.014c-0.177-0.023-0.465-0.063-0.782-0.628-0.27-0.5 0-1.289 0.295-2.203 0.137-0.369 0.277-0.842 0.392-1.325l0.018-0.089c0.026-0.149 0.041-0.321 0.041-0.496 0-0.698-0.237-1.342-0.634-1.853l0.005 0.007c-0.021-0.023-0.035-0.054-0.035-0.088s0.013-0.065 0.035-0.088l-0 0c0.598-0.563 0.856-1.082 0.763-1.547-0.139-0.456-0.482-0.81-0.92-0.962l-0.010-0.003c-0.305-0.059-0.655-0.093-1.013-0.093-0.397 0-0.783 0.041-1.156 0.12l0.036-0.006c-0.342 0.064-0.736 0.101-1.139 0.101-0.215 0-0.427-0.010-0.637-0.031l0.027 0.002c-0.196-0.034-0.36-0.146-0.464-0.302l-0.002-0.003c-0.060-0.103-0.096-0.226-0.096-0.358 0-0.008 0-0.015 0-0.023l-0 0.001c-0.142 0.062-0.26 0.155-0.35 0.27l-0.002 0.002c-0.023 0.033-0.060 0.055-0.102 0.056h-0c-0.001 0-0.002 0-0.003 0-0.041 0-0.078-0.020-0.101-0.051l-0-0c-0.081-0.1-0.131-0.229-0.131-0.37 0-0.027 0.002-0.054 0.005-0.080l-0 0.003c0.039-0.199 0.136-0.371 0.272-0.502l0-0c-0.069-0.020-0.148-0.032-0.23-0.032-0.252 0-0.479 0.11-0.634 0.285l-0.001 0.001c-0.024 0.026-0.058 0.043-0.097 0.043-0.025 0-0.049-0.007-0.069-0.020l0.001 0c-0.222-0.147-0.366-0.396-0.366-0.678 0-0.012 0-0.023 0.001-0.035l-0 0.002c0.003-0.273 0.158-0.509 0.385-0.628l0.004-0.002c0.080-0.049 0.177-0.079 0.281-0.079 0.066 0 0.129 0.012 0.188 0.033l-0.004-0.001c0.124 0.052 0.225 0.138 0.294 0.246l0.002 0.003c0.112-0.153 0.182-0.343 0.191-0.549l0-0.002c0.001-0.036 0.017-0.068 0.042-0.091l0-0c0.023-0.022 0.053-0.035 0.087-0.035 0.002 0 0.004 0 0.006 0h-0c0.28 0 0.53 0.127 0.697 0.326l0.001 0.001c0.15 0.219 0.239 0.489 0.239 0.781 0 0.046-0.002 0.092-0.007 0.137l0-0.006c0.259-0.153 0.43-0.43 0.43-0.748 0-0.037-0.002-0.073-0.007-0.108l0 0.004c-0.001-0.005-0.001-0.011-0.001-0.018 0-0.040 0.019-0.075 0.048-0.098l0-0c0.022-0.018 0.050-0.028 0.081-0.028 0.015 0 0.030 0.003 0.043 0.007l-0.001-0c0.414 0.158 0.711 0.534 0.751 0.984l0 0.004c0.085-0.082 0.141-0.194 0.149-0.32l0-0.001c0.008-0.065 0.063-0.114 0.129-0.114 0.042 0 0.079 0.020 0.103 0.051l0 0c0.174 0.304 0.42 0.549 0.716 0.716l0.009 0.005-0.154-0.372c-0.006-0.014-0.010-0.031-0.010-0.049 0-0.038 0.016-0.072 0.042-0.095l0-0c0.023-0.021 0.054-0.034 0.088-0.034 0.022 0 0.044 0.006 0.062 0.016l-0.001-0c0.255 0.147 0.475 0.301 0.68 0.471l-0.008-0.006c0.263 0.218 0.559 0.412 0.876 0.569l0.027 0.012c0.135 0.081 0.298 0.129 0.472 0.129 0.102 0 0.201-0.016 0.293-0.047l-0.007 0.002c0.115-0.042 0.207-0.125 0.259-0.23l0.001-0.003c0.027-0.063 0.043-0.137 0.043-0.215 0-0.091-0.022-0.177-0.061-0.253l0.001 0.003c-0.060-0.071-0.149-0.116-0.249-0.116h-0z"></path>
<path fill="#ffd250" d="M26.136 12.672v0c0.541 0.171 1.174 0.298 1.826 0.356l0.035 0.002c0.068 0.005 0.122 0.061 0.122 0.13 0 0.031-0.011 0.060-0.029 0.082l0-0-0.030 0.037c0.18-0.030 0.39-0.048 0.604-0.051l0.003-0c-0.088-0.105-0.198-0.233-0.309-0.377-0.649-0.008-1.263-0.146-1.822-0.389l0.031 0.012c-0.167-0.084-0.465-0.233-0.6-0.153-0.036 0.028-0.060 0.071-0.060 0.12 0 0.008 0.001 0.015 0.002 0.022l-0-0.001c0 0.093 0.084 0.167 0.228 0.209z"></path>
<path fill="#ffd250" d="M29.044 10.806h-0.037c-0.050 0.024-0.086 0.072-0.091 0.13l-0 0.001c-0.003 0.014-0.005 0.029-0.005 0.045 0 0.105 0.085 0.191 0.191 0.191 0.062 0 0.117-0.029 0.152-0.075l0-0c0.038-0.032 0.063-0.080 0.063-0.134 0-0.030-0.008-0.059-0.021-0.083l0 0.001c-0.073-0.038-0.158-0.065-0.248-0.074l-0.003-0z"></path>
<path fill="#ffd250" d="M27.776 13.907c0.057 0.133 0.135 0.247 0.232 0.342l0 0c0.034-0.074 0.083-0.136 0.145-0.183l0.001-0.001c0.069-0.049 0.156-0.078 0.249-0.078 0.041 0 0.080 0.006 0.117 0.016l-0.003-0.001h0.053c0.068 0.025 0.122 0.076 0.151 0.14l0.001 0.002c0.098 0.233-0.074 0.67-0.233 0.986l0.265-0.137c0.018-0.010 0.038-0.015 0.061-0.015 0.068 0 0.123 0.053 0.128 0.12l0 0 0.037 0.577c0.125-0.135 0.244-0.28 0.354-0.433l0.009-0.013c0.023-0.035 0.062-0.057 0.107-0.057 0.007 0 0.013 0.001 0.020 0.002l-0.001-0c0.049 0.008 0.089 0.042 0.104 0.087l0 0.001 0.147 0.465c0.142-0.134 0.269-0.28 0.382-0.437l0.006-0.009c0.024-0.033 0.063-0.054 0.106-0.054 0.001 0 0.002 0 0.003 0h-0c0.044 0.001 0.083 0.024 0.104 0.060l0 0.001 0.233 0.354 0.316-0.635c0.021-0.042 0.064-0.070 0.113-0.070 0.004 0 0.007 0 0.011 0l-0-0c0.052 0.003 0.096 0.036 0.114 0.083l0 0.001 0.288 0.786 0.565-0.356c0.020-0.013 0.044-0.021 0.070-0.021s0.050 0.008 0.070 0.021l-0-0c0.186 0.105 0.402 0.185 0.631 0.23l0.014 0.002-0.049-0.505c-0-0.003-0-0.007-0-0.010 0-0.034 0.013-0.064 0.033-0.088l-0 0c0.023-0.027 0.057-0.044 0.095-0.044h0.323c-0.079-0.079-0.142-0.156-0.174-0.193-0.018-0.021-0.028-0.049-0.028-0.079 0-0.003 0-0.006 0-0.009l-0 0c-0.327-0.010-0.635-0.081-0.917-0.202l0.016 0.006-0.198 0.305c-0.019 0.028-0.047 0.048-0.081 0.056l-0.001 0h-0.028c-0.026-0-0.050-0.008-0.070-0.021l0 0-0.747-0.5-0.137 0.372c-0.016 0.042-0.053 0.073-0.097 0.081l-0.001 0c-0.008 0.002-0.016 0.003-0.025 0.003-0.038 0-0.073-0.017-0.096-0.044l-0-0c-0.128-0.147-0.328-0.372-0.449-0.495-0.145 0.145-0.309 0.272-0.486 0.377l-0.011 0.006c-0.016 0.007-0.035 0.011-0.055 0.011s-0.039-0.004-0.056-0.012l0.001 0c-0.035-0.014-0.062-0.041-0.074-0.076l-0-0.001-0.205-0.549c-0.005-0.014-0.008-0.029-0.008-0.045 0-0.054 0.034-0.101 0.082-0.119l0.001-0c0.014-0.005 0.030-0.008 0.046-0.008 0.055 0 0.102 0.034 0.121 0.082l0 0.001 0.149 0.4c0.148-0.106 0.278-0.219 0.397-0.343l0.001-0.001c0.024-0.026 0.058-0.042 0.096-0.042 0.031 0 0.059 0.011 0.081 0.028l-0-0c0.074 0.060 0.279 0.286 0.421 0.444l0.119-0.323c0.015-0.037 0.044-0.065 0.080-0.079l0.001-0c0.012-0.004 0.025-0.006 0.039-0.006 0.027 0 0.052 0.008 0.073 0.023l-0-0 0.775 0.519 0.186-0.288c0.023-0.036 0.062-0.059 0.106-0.059 0.021 0 0.042 0.005 0.059 0.015l-0.001-0c0.279 0.133 0.605 0.213 0.95 0.219l0.002 0c-0.099-0.204-0.158-0.444-0.158-0.698v-0c-0.256-0.114-0.476-0.252-0.675-0.416l0.005 0.004-0.093 0.233c-0.014 0.037-0.045 0.065-0.083 0.074l-0.001 0c-0.011 0.003-0.024 0.005-0.037 0.005-0.028 0-0.054-0.009-0.075-0.024l0 0-0.372-0.27-0.037 0.279c-0.008 0.064-0.062 0.113-0.127 0.113-0.025 0-0.049-0.007-0.069-0.020l0 0c-0.19-0.118-0.355-0.25-0.502-0.4l-0-0c-0.020-0.023-0.032-0.053-0.032-0.086 0-0.039 0.017-0.074 0.043-0.098l0-0c0.022-0.020 0.052-0.032 0.085-0.032 0.038 0 0.073 0.017 0.096 0.044l0 0c0.083 0.084 0.174 0.161 0.271 0.228l0.006 0.004 0.037-0.288c0.005-0.046 0.035-0.085 0.076-0.102l0.001-0c0.015-0.007 0.032-0.010 0.051-0.010 0.028 0 0.054 0.009 0.075 0.025l-0-0 0.416 0.3 0.1-0.233c0.020-0.047 0.065-0.080 0.118-0.080 0.034 0 0.066 0.014 0.089 0.036l-0-0c0.249 0.23 0.543 0.416 0.868 0.54l0.019 0.006c-0.046-0.227-0.083-0.502-0.101-0.781l-0.001-0.020c-0.286-0.159-0.528-0.36-0.727-0.598l-0.003-0.004c0 0.012 0.001 0.026 0.001 0.041 0 0.136-0.020 0.268-0.057 0.392l0.002-0.010c-0.014 0.035-0.041 0.062-0.076 0.074l-0.001 0c-0.016 0.008-0.034 0.012-0.053 0.012s-0.038-0.005-0.054-0.013l0.001 0c-0.195-0.113-0.361-0.248-0.506-0.403l-0.001-0.001c-0.030 0.126-0.069 0.235-0.118 0.338l0.004-0.010c-0.023 0.038-0.064 0.063-0.111 0.063-0.021 0-0.041-0.005-0.059-0.014l0.001 0c-0.147-0.078-0.273-0.165-0.389-0.263l0.003 0.003c-0.011 0.17-0.040 0.329-0.085 0.48l0.004-0.015c-0.014 0.035-0.041 0.062-0.076 0.074l-0.001 0c-0.015 0.007-0.033 0.011-0.052 0.011s-0.037-0.004-0.053-0.011l0.001 0c-0.172-0.097-0.317-0.191-0.456-0.294l0.011 0.008-0.058 0.216c-0.011 0.037-0.036 0.067-0.069 0.083l-0.001 0c-0.016 0.008-0.035 0.012-0.055 0.012s-0.039-0.005-0.055-0.013l0.001 0c-0.232-0.11-0.429-0.256-0.592-0.434l-0.001-0.001c-0.018-0.022-0.029-0.050-0.029-0.081 0-0.071 0.057-0.128 0.128-0.128 0.040 0 0.075 0.018 0.099 0.046l0 0c0.104 0.115 0.226 0.211 0.36 0.287l0.007 0.004 0.065-0.251c0.011-0.044 0.045-0.078 0.087-0.091l0.001-0c0.011-0.004 0.024-0.006 0.038-0.006 0.033 0 0.063 0.013 0.086 0.034l-0-0c0.121 0.104 0.255 0.201 0.396 0.286l0.013 0.007c0.026-0.158 0.044-0.388 0.053-0.54 0.009-0.062 0.062-0.11 0.127-0.11 0.044 0 0.083 0.022 0.106 0.056l0 0c0.097 0.139 0.221 0.253 0.364 0.337l0.005 0.003c0.035-0.112 0.079-0.274 0.112-0.414 0.012-0.055 0.057-0.096 0.114-0.1l0-0c0.004-0 0.008-0.001 0.012-0.001 0.052 0 0.097 0.030 0.118 0.074l0 0.001c0.102 0.181 0.242 0.329 0.409 0.439l0.005 0.003c0.004-0.064 0.006-0.14 0.006-0.215 0-0.143-0.008-0.284-0.024-0.422l0.002 0.017c0.004-0.068 0.061-0.122 0.13-0.122 0.042 0 0.079 0.019 0.102 0.050l0 0c0.218 0.403 0.547 0.723 0.946 0.925l0.013 0.006c0.036-0.174 0.057-0.375 0.057-0.58 0-0.511-0.129-0.991-0.356-1.411l0.008 0.016c-0.019-0.022-0.030-0.050-0.030-0.082 0-0.008 0.001-0.016 0.002-0.024l-0 0.001c0.007-0.038 0.031-0.069 0.062-0.088l0.001-0c0.22-0.145 0.384-0.359 0.463-0.611l0.002-0.008c-0.482 0.403-1.083 0.679-1.743 0.77l-0.018 0.002 0.198 0.233c0.018 0.022 0.029 0.050 0.029 0.080 0 0.018-0.004 0.035-0.011 0.051l0-0.001c-0.018 0.044-0.058 0.075-0.107 0.079l-0 0c-0.098 0.013-0.211 0.020-0.326 0.020-0.277 0-0.544-0.043-0.795-0.123l0.018 0.005 0.086 0.156c0.011 0.019 0.017 0.041 0.017 0.065s-0.006 0.046-0.018 0.066l0-0.001c-0.022 0.037-0.062 0.061-0.108 0.061-0.002 0-0.005-0-0.007-0h0c-0.391-0.036-0.747-0.155-1.061-0.339l0.012 0.007c-0.040 0.226-0.232 0.397-0.464 0.405l-0.001 0c-0.016 0.002-0.034 0.003-0.053 0.003-0.069 0-0.134-0.016-0.192-0.044l0.003 0.001c-0.121-0.082-0.2-0.219-0.2-0.375 0-0.027 0.002-0.054 0.007-0.079l-0 0.003c0.017-0.159 0.126-0.29 0.272-0.339l0.003-0.001c0.193-0.058 0.412 0.053 0.698 0.195 0.222 0.127 0.479 0.232 0.75 0.302l0.022 0.005-0.16-0.295c-0.010-0.018-0.016-0.039-0.016-0.062 0-0.041 0.019-0.077 0.049-0.1l0-0c0.022-0.019 0.051-0.030 0.083-0.030s0.060 0.011 0.083 0.030l-0-0c0.254 0.162 0.563 0.259 0.895 0.259 0.056 0 0.111-0.003 0.166-0.008l-0.007 0.001-0.184-0.233c-0.018-0.022-0.029-0.051-0.029-0.082 0-0.018 0.004-0.036 0.011-0.052l-0 0.001c0.022-0.042 0.065-0.070 0.114-0.070 0.002 0 0.003 0 0.005 0h-0c0.651-0.070 1.239-0.297 1.738-0.641l-0.013 0.008c-0.105 0.033-0.226 0.052-0.351 0.052-0.014 0-0.028-0-0.042-0.001l0.002 0c-0.037-0.002-0.069-0.021-0.090-0.049l-0-0c-0.184-0.252-0.445-0.437-0.748-0.523l-0.010-0.002c-0.070 0.195-0.175 0.363-0.308 0.503l0.001-0.001c-0.022 0.025-0.054 0.041-0.089 0.041-0.005 0-0.011-0-0.016-0.001l0.001 0c-0.041-0.004-0.076-0.027-0.097-0.060l-0-0.001c-0.161-0.265-0.432-0.451-0.748-0.493l-0.005-0.001c0 0.004 0 0.008 0 0.013 0 0.239-0.116 0.45-0.296 0.581l-0.002 0.001c-0.022 0.018-0.050 0.029-0.081 0.029s-0.059-0.011-0.082-0.029l0 0c-0.174-0.215-0.439-0.351-0.735-0.351-0.156 0-0.303 0.038-0.433 0.105l0.005-0.002c0.022 0.047 0.035 0.102 0.035 0.161s-0.013 0.113-0.036 0.163l0.001-0.002c-0.263 0.537-1.9 0.644-2.226 0.661-0.001 0-0.003 0-0.004 0-0.041 0-0.078-0.019-0.103-0.049l-0-0c-0.018-0.021-0.028-0.049-0.028-0.079 0-0.012 0.002-0.024 0.005-0.036l-0 0.001c0.006-0.025 0.010-0.054 0.010-0.083 0-0.070-0.020-0.135-0.055-0.19l0.001 0.001c-0.052-0.083-0.134-0.144-0.23-0.169l-0.003-0.001c-0.023-0.005-0.050-0.008-0.078-0.008-0.104 0-0.199 0.041-0.269 0.108l0-0c-0.109 0.121-0.116 0.347-0.021 0.651 0.238 0.558 0.592 1.025 1.034 1.391l0.006 0.005c-0.001-0.019-0.002-0.042-0.002-0.065s0.001-0.046 0.002-0.068l-0 0.003c0.003-0.056 0.041-0.103 0.092-0.118l0.001-0c0.011-0.003 0.023-0.005 0.036-0.005 0.044 0 0.083 0.022 0.106 0.056l0 0c0.093 0.131 0.205 0.241 0.335 0.327l0.005 0.003 0.065-0.414c0.009-0.057 0.054-0.1 0.111-0.107l0.001-0c0.004-0 0.009-0.001 0.013-0.001 0.054 0 0.101 0.032 0.121 0.079l0 0.001c0.358 0.56 0.731 1.047 1.141 1.501l-0.009-0.010c0.020 0.023 0.033 0.053 0.033 0.085 0 0.071-0.057 0.128-0.128 0.128-0.007 0-0.015-0.001-0.022-0.002l0.001 0c-0.078-0.005-0.168-0.008-0.26-0.008-0.32 0-0.632 0.037-0.931 0.107l0.028-0.005c-0.008 0.002-0.018 0.003-0.028 0.003-0.046 0-0.086-0.024-0.109-0.061l-0-0.001c-0.015-0.021-0.024-0.046-0.024-0.074s0.009-0.054 0.025-0.075l-0 0 0.095-0.119c-0.585-0.070-1.11-0.181-1.618-0.334l0.066 0.017-0.216 0.588 0.584-0.058c0.004-0 0.009-0.001 0.013-0.001 0.042 0 0.079 0.020 0.103 0.052l0 0c0.016 0.022 0.025 0.049 0.025 0.078 0 0.017-0.003 0.033-0.009 0.048l0-0.001-0.112 0.27 0.481-0.128c0.010-0.003 0.021-0.004 0.033-0.004 0.054 0 0.101 0.033 0.12 0.080l0 0.001c0.049 0.13 0.118 0.241 0.205 0.336l-0.001-0.001 0.135-0.3c0.020-0.046 0.064-0.077 0.116-0.077 0.001 0 0.002 0 0.003 0h-0c0 0 0.001 0 0.001 0 0.045 0 0.085 0.023 0.108 0.058l0 0z"></path>
<path fill="#ffd250" d="M26.106 20.519c0.509 0.342 0.919-0.047 1.14-0.347-0.446-0.316-0.794-0.744-1.005-1.244l-0.007-0.019c-0.056-0.14-0.105-0.306-0.139-0.477l-0.003-0.018c-0.493-0.395-0.933-0.805-1.342-1.246l-0.007-0.008c-0.029 0.070-0.064 0.131-0.106 0.186l0.001-0.002c0.012 0.041 0.018 0.089 0.018 0.138 0 0.095-0.025 0.183-0.069 0.26l0.001-0.003c0.010 0.036 0.016 0.077 0.016 0.119 0 0.077-0.019 0.149-0.052 0.213l0.001-0.003c0.050 0.065 0.080 0.147 0.080 0.237 0 0.057-0.012 0.112-0.035 0.161l0.001-0.002c-0.014 0.031-0.031 0.058-0.050 0.082l0.001-0.001c0.121 0.171 0.194 0.384 0.194 0.614 0 0.029-0.001 0.058-0.003 0.087l0-0.004c-0 0.010-0.001 0.021-0.001 0.033 0 0.188 0.068 0.361 0.181 0.494l-0.001-0.001c0.039-0.036 0.089-0.060 0.146-0.065l0.001-0c0.163-0.019 0.295 0.121 0.479 0.312 0.165 0.188 0.348 0.354 0.549 0.496l0.010 0.006z"></path>
<path fill="#ffd250" d="M23.573 17.021h-0.030c-0.182-0.002-0.359-0.021-0.53-0.054l0.018 0.003c-0.001 0.009-0.002 0.020-0.002 0.030 0 0.062 0.020 0.119 0.053 0.166l-0.001-0.001c0.033 0.024 0.054 0.063 0.054 0.107s-0.021 0.083-0.054 0.107l-0 0c-0.044 0.030-0.076 0.076-0.088 0.129l-0 0.001c0 0.056 0.065 0.114 0.105 0.142 0.028 0.022 0.047 0.054 0.051 0.090l0 0.001c0.001 0.005 0.001 0.010 0.001 0.016 0 0.032-0.012 0.060-0.031 0.082l0-0c-0.035 0.040-0.056 0.093-0.056 0.151 0 0.001 0 0.002 0 0.002v-0c0 0.012 0 0.051 0.074 0.095 0.028 0.020 0.048 0.050 0.053 0.085l0 0.001c0.001 0.007 0.002 0.015 0.002 0.023 0 0.029-0.010 0.055-0.026 0.077l0-0c-0.016 0.022-0.025 0.050-0.025 0.080 0 0.009 0.001 0.017 0.002 0.025l-0-0.001c0.016 0.058 0.088 0.102 0.147 0.13 0.126 0.054 0.273 0.087 0.427 0.091l0.001 0h0.016c0.018 0.001 0.038 0.002 0.059 0.002 0.121 0 0.238-0.020 0.346-0.057l-0.008 0.002c0.102-0.029 0.184-0.097 0.232-0.186l0.001-0.002c0.012-0.026 0.035-0.077-0.065-0.195-0.018-0.022-0.029-0.050-0.029-0.081s0.011-0.059 0.029-0.082l-0 0s0.086-0.119 0.033-0.214c-0.010-0.018-0.016-0.040-0.016-0.063 0-0.035 0.014-0.067 0.037-0.091l-0 0c0.032-0.044 0.051-0.098 0.051-0.158 0-0.042-0.009-0.081-0.026-0.116l0.001 0.002c-0.006-0.014-0.009-0.030-0.009-0.046 0-0.037 0.016-0.070 0.041-0.093l0-0c0.074-0.082 0.119-0.191 0.119-0.31 0-0 0-0.001 0-0.001v0l-0.049-0.058c-0.257 0.108-0.555 0.17-0.868 0.17-0.014 0-0.029-0-0.043-0l0.002 0z"></path>
<path fill="#ffd250" d="M24.755 8.022c-1.026 0.677-1.694 1.825-1.694 3.129 0 0.155 0.009 0.309 0.028 0.459l-0.002-0.018 0.028 4.061v0.019c0.025 0.060 0.039 0.129 0.039 0.202s-0.014 0.142-0.041 0.206l0.001-0.004c0.149 0.046 0.32 0.072 0.497 0.072 0.142 0 0.28-0.017 0.413-0.049l-0.012 0.002c-0.019-0.051-0.030-0.109-0.030-0.171 0-0.103 0.031-0.198 0.085-0.278l-0.001 0.002c-0.024-0.428-0.038-0.928-0.038-1.431 0-2.201 0.265-4.339 0.765-6.386l-0.038 0.184z"></path>
<path fill="#ffd250" d="M24.808 16.16c-0.008-0.194-0.133-0.357-0.306-0.42l-0.003-0.001c-0.033 0-0.142-0.040-0.191 0.026-0.038 0.045-0.062 0.103-0.062 0.167 0 0.045 0.012 0.088 0.032 0.125l-0.001-0.001c0.017 0.031 0.027 0.069 0.027 0.108 0 0.014-0.001 0.028-0.004 0.042l0-0.001c-0.015 0.051-0.053 0.091-0.101 0.109l-0.001 0c-0.173 0.058-0.372 0.092-0.578 0.092-0.261 0-0.509-0.054-0.734-0.15l0.012 0.005c-0.042-0.022-0.071-0.066-0.071-0.116 0-0.020 0.005-0.040 0.013-0.057l-0 0.001c0.039-0.068 0.062-0.149 0.062-0.236 0-0.021-0.001-0.042-0.004-0.062l0 0.002s0-0.016-0.044-0.021h-0.102c-0.009-0.001-0.019-0.001-0.029-0.001-0.136 0-0.261 0.051-0.356 0.134l0.001-0.001c-0.044 0.050-0.071 0.117-0.071 0.189 0 0.027 0.004 0.053 0.011 0.078l-0-0.002c0.077 0.37 0.54 0.593 1.237 0.6 0.038 0.003 0.082 0.005 0.126 0.005 0.379 0 0.73-0.126 1.011-0.338l-0.004 0.003c0.078-0.069 0.128-0.168 0.13-0.279v-0z"></path>
<path fill="#ffd250" d="M23.696 19.224c0.023-0.031 0.060-0.052 0.102-0.052 0.009 0 0.018 0.001 0.027 0.003l-0.001-0c0.054 0.018 0.115 0.028 0.179 0.028 0.095 0 0.184-0.022 0.264-0.062l-0.003 0.002c0.027-0.029 0.043-0.067 0.043-0.109 0-0.030-0.008-0.058-0.023-0.082l0 0.001c0-0.021-0.047-0.084-0.181-0.033s-0.309 0.102-0.426 0c-0.020-0.020-0.036-0.043-0.048-0.068l-0.001-0.001h-0.102c-0.011 0.031-0.028 0.058-0.051 0.079l-0 0c-0.114 0.102-0.298 0.049-0.426 0s-0.17 0.012-0.181 0.033c-0.013 0.023-0.021 0.050-0.021 0.080 0 0.042 0.016 0.080 0.042 0.109l-0-0c0.074 0.040 0.163 0.063 0.257 0.063 0.060 0 0.117-0.009 0.171-0.027l-0.004 0.001c0.009-0.002 0.018-0.003 0.029-0.003 0.043 0 0.082 0.019 0.108 0.049l0 0c0.019 0.023 0.031 0.052 0.031 0.084 0 0.018-0.004 0.036-0.011 0.051l0-0.001c-0.088 0.179-0.181 0.331-0.286 0.474l0.006-0.009c0.106 0.137 0.171 0.311 0.171 0.499 0 0.203-0.074 0.389-0.197 0.532l0.001-0.001c-0.027 0.027-0.064 0.044-0.106 0.044-0 0-0.001 0-0.001 0h0c-0.042-0.004-0.078-0.027-0.1-0.060l-0-0c-0.037-0.056-0.090-0.098-0.154-0.12l-0.002-0.001c-0.006-0.001-0.012-0.001-0.019-0.001-0.033 0-0.064 0.011-0.089 0.029l0-0c-0.025 0.030-0.040 0.069-0.040 0.112 0 0.027 0.006 0.053 0.017 0.076l-0-0.001c0.062 0.142 0.201 0.239 0.363 0.239 0.025 0 0.049-0.002 0.072-0.007l-0.002 0c0.001-0 0.003-0 0.005-0 0.054 0 0.101 0.033 0.12 0.081l0 0.001c0.006 0.014 0.010 0.031 0.010 0.048 0 0.038-0.017 0.073-0.044 0.096l-0 0-0.212 0.181 0.344 0.084c0.045 0.012 0.080 0.046 0.093 0.090l0 0.001c0.038 0.129 0.091 0.242 0.159 0.344l-0.003-0.005c0.063-0.098 0.116-0.21 0.151-0.33l0.002-0.009c0.013-0.045 0.048-0.079 0.092-0.090l0.001-0 0.344-0.084-0.209-0.181c-0.028-0.023-0.046-0.058-0.046-0.097 0-0.017 0.003-0.033 0.009-0.048l-0 0.001c0.019-0.048 0.065-0.082 0.119-0.082 0.002 0 0.004 0 0.007 0h-0c0.021 0.004 0.045 0.006 0.069 0.006 0.163 0 0.302-0.097 0.365-0.236l0.001-0.003c0.010-0.021 0.016-0.047 0.016-0.073 0-0.043-0.016-0.083-0.042-0.113l0 0c-0.023-0.018-0.053-0.030-0.086-0.030-0.007 0-0.015 0.001-0.022 0.002l0.001-0c-0.065 0.024-0.118 0.066-0.155 0.12l-0.001 0.001c-0.023 0.036-0.063 0.060-0.108 0.060-0.038 0-0.073-0.017-0.096-0.044l-0-0c-0.123-0.142-0.198-0.328-0.198-0.532 0-0.188 0.064-0.362 0.172-0.5l-0.001 0.002c-0.098-0.134-0.191-0.287-0.271-0.447l-0.008-0.019c-0.010-0.018-0.016-0.039-0.016-0.062 0-0.031 0.011-0.060 0.030-0.082l-0 0z"></path>
<path fill="#464655" d="M41.867 10.816c-0.101-0.153-0.271-0.253-0.465-0.256h-0c-0.021-0.003-0.045-0.005-0.069-0.005-0.142 0-0.271 0.056-0.366 0.147l0-0c-0.073 0.075-0.125 0.171-0.146 0.278l-0.001 0.004c-0.291-0.177-0.537-0.346-0.773-0.528l0.019 0.014c-0.948-0.811-2.099-1.415-3.365-1.726l-0.056-0.012c-0.193-0.035-0.414-0.056-0.641-0.056-0.831 0-1.598 0.273-2.216 0.735l0.010-0.007c0-0.079 0.012-0.133 0.012-0.142v0c-0-0.025-0.008-0.049-0.021-0.068l0 0c-0.014-0.019-0.033-0.035-0.055-0.044l-0.001-0c-0.011-0.003-0.023-0.005-0.036-0.005s-0.025 0.002-0.037 0.006l0.001-0c-0.023 0.008-0.043 0.022-0.058 0.039l-0 0c-0.177 0.24-0.454 0.397-0.768 0.409l-0.002 0c-0.239-0.32-0.598-0.538-1.009-0.59l-0.007-0.001c-0.001-0-0.002-0-0.004-0-0.064 0-0.117 0.047-0.127 0.109l-0 0.001c-0.029 0.14-0.088 0.263-0.169 0.367l0.002-0.002c-0.233-0.286-0.586-0.467-0.981-0.467-0.025 0-0.049 0.001-0.074 0.002l0.003-0c-0.043 0.005-0.079 0.029-0.1 0.065l-0 0.001c-0.009 0.017-0.015 0.037-0.015 0.058s0.006 0.041 0.015 0.059l-0-0.001c0.016 0.039 0.025 0.085 0.025 0.133 0 0.105-0.045 0.199-0.116 0.265l-0 0c-0.208-0.209-0.495-0.338-0.813-0.338-0.255 0-0.491 0.083-0.681 0.224l0.003-0.002c-0.027 0.024-0.044 0.058-0.044 0.097 0 0.027 0.009 0.053 0.023 0.074l-0-0c0.063 0.091 0.051 0.14 0.035 0.174-0.137 0.274-1.121 0.454-1.861 0.507-0.004-0.113-0.038-0.217-0.095-0.305l0.001 0.002c-0.087-0.144-0.226-0.248-0.391-0.288l-0.004-0.001c-0.040-0.009-0.086-0.014-0.134-0.014-0.179 0-0.341 0.074-0.457 0.193l-0 0c-0.103 0.144-0.165 0.323-0.165 0.517 0 0.141 0.033 0.274 0.091 0.393l-0.002-0.005c0.261 0.612 0.653 1.125 1.142 1.522l0.007 0.006c-0.086-0.033-0.17-0.067-0.251-0.107-0.207-0.1-0.551-0.267-0.805-0.135-0.119 0.072-0.198 0.201-0.198 0.348 0 0.017 0.001 0.033 0.003 0.049l-0-0.002c0.020 0.174 0.133 0.318 0.288 0.38l0.003 0.001-0.286 0.779c-0.006 0.014-0.009 0.029-0.009 0.046 0 0.029 0.010 0.057 0.028 0.078l-0-0c0.023 0.030 0.059 0.050 0.1 0.050 0.005 0 0.010-0 0.015-0.001l-0.001 0 0.577-0.058-0.128 0.312c-0.005 0.014-0.008 0.029-0.008 0.046 0 0.072 0.058 0.13 0.13 0.13 0.011 0 0.022-0.001 0.032-0.004l-0.001 0 0.623-0.165c0.083 0.19 0.217 0.345 0.384 0.451l0.004 0.002c0.015 0.007 0.032 0.010 0.050 0.010s0.035-0.004 0.051-0.011l-0.001 0c0.035-0.011 0.062-0.035 0.076-0.067l0-0.001 0.1-0.233c0.081 0.113 0.175 0.209 0.281 0.291l0.003 0.002-0.13 0.105c-0.597 0.444-1.085 0.999-1.44 1.639l-0.013 0.026c-0.215 0.431-0.341 0.939-0.341 1.477 0 0.086 0.003 0.171 0.010 0.256l-0.001-0.011c-0.486-0.404-0.921-0.833-1.316-1.297l-0.012-0.015c0.056-0.034 0.105-0.070 0.15-0.11l-0.001 0.001c0.126-0.116 0.205-0.281 0.207-0.465v-0c-0.008-0.307-0.206-0.565-0.481-0.661l-0.005-0.002c-0.049-0.018-0.106-0.028-0.165-0.028-0.029 0-0.057 0.002-0.085 0.007l0.003-0c-0.042-0.505-0.066-1.094-0.066-1.688 0-2.119 0.303-4.167 0.867-6.104l-0.038 0.154c0.007-0.015 0.010-0.033 0.010-0.051 0-0.072-0.058-0.13-0.13-0.13-0.012 0-0.024 0.002-0.035 0.005l0.001-0c-0.084 0.026-2.072 0.644-2.114 3.933l0.026 3.921c-0.037-0.006-0.079-0.009-0.122-0.009-0.214 0-0.408 0.082-0.553 0.217l0.001-0.001c-0.087 0.094-0.14 0.221-0.14 0.36 0 0.047 0.006 0.093 0.018 0.137l-0.001-0.004c0.095 0.349 0.372 0.616 0.719 0.697l0.007 0.001c-0.004 0.021-0.006 0.046-0.006 0.071s0.002 0.050 0.007 0.073l-0-0.002c0.008 0.078 0.030 0.149 0.064 0.212l-0.002-0.003c-0.058 0.065-0.095 0.15-0.1 0.243l-0 0.001c0 0.109 0.046 0.207 0.119 0.277l0 0c-0.032 0.058-0.050 0.127-0.050 0.2 0 0.012 0 0.023 0.001 0.034l-0-0.002c0.011 0.080 0.047 0.151 0.1 0.205l-0-0c-0.014 0.037-0.022 0.080-0.022 0.125 0 0.031 0.004 0.060 0.011 0.089l-0.001-0.003c0.025 0.090 0.078 0.164 0.15 0.215l0.001 0.001c-0.026-0.007-0.056-0.011-0.087-0.011-0.134 0-0.25 0.072-0.314 0.179l-0.001 0.002c-0.034 0.059-0.055 0.13-0.055 0.206 0 0.125 0.055 0.237 0.143 0.313l0 0c0.095 0.072 0.215 0.116 0.346 0.116 0.016 0 0.032-0.001 0.047-0.002l-0.002 0c-0.052 0.095-0.112 0.176-0.18 0.25l0.001-0.001c-0.028 0.022-0.047 0.054-0.051 0.090l-0 0.001c-0 0.003-0 0.006-0 0.009 0 0.034 0.013 0.065 0.035 0.088l-0-0c0.104 0.113 0.169 0.266 0.169 0.433 0 0.083-0.016 0.162-0.044 0.235l0.002-0.004c-0.054-0.048-0.121-0.083-0.195-0.099l-0.003-0.001c-0.021-0.004-0.046-0.006-0.071-0.006-0.088 0-0.169 0.029-0.235 0.077l0.001-0.001c-0.094 0.077-0.153 0.194-0.153 0.324 0 0.056 0.011 0.109 0.031 0.158l-0.001-0.003c0.062 0.174 0.201 0.308 0.375 0.362l0.004 0.001-0.181 0.156c-0.027 0.024-0.043 0.058-0.043 0.097 0 0.011 0.001 0.022 0.004 0.032l-0-0.001c0.011 0.047 0.046 0.084 0.092 0.095l0.001 0 0.519 0.126c0.062 0.188 0.159 0.351 0.282 0.487l-0.001-0.001c0.028 0.023 0.065 0.037 0.105 0.037h0c0 0 0 0 0 0 0.035 0 0.067-0.014 0.090-0.037v0c0.124-0.135 0.221-0.297 0.281-0.477l0.003-0.009 0.516-0.126c0.047-0.011 0.084-0.048 0.095-0.095l0-0.001c0.002-0.009 0.004-0.019 0.004-0.030 0-0.039-0.018-0.074-0.045-0.098l-0-0-0.181-0.156c0.178-0.055 0.318-0.188 0.38-0.359l0.001-0.004c0.019-0.046 0.030-0.099 0.030-0.155 0-0.13-0.059-0.246-0.152-0.323l-0.001-0.001c-0.064-0.048-0.144-0.077-0.232-0.077-0.026 0-0.051 0.003-0.075 0.007l0.002-0c-0.077 0.018-0.145 0.053-0.201 0.101l0.001-0.001c-0.026-0.067-0.041-0.145-0.041-0.226 0-0.168 0.064-0.322 0.169-0.437l-0 0c0.021-0.021 0.034-0.050 0.034-0.082 0-0.006-0-0.011-0.001-0.017l0 0.001c-0.003-0.037-0.022-0.069-0.049-0.090l-0-0c-0.068-0.072-0.128-0.153-0.176-0.241l-0.003-0.006c0.008 0 0.018 0.001 0.028 0.001 0.136 0 0.262-0.044 0.364-0.118l-0.002 0.001c0.025-0.021 0.046-0.045 0.062-0.073l0.001-0.001c-0.001 0.012-0.001 0.026-0.001 0.041 0 0.311 0.15 0.586 0.382 0.758l0.003 0.002c0.019 0.012 0.042 0.020 0.067 0.020 0.047 0 0.087-0.025 0.109-0.063l0-0.001c0.012-0.023 0.028-0.043 0.048-0.058l0-0c0.047 0 0.172 0.137 0.265 0.233 0.179 0.197 0.376 0.372 0.591 0.523l0.011 0.008c0.149 0.108 0.335 0.175 0.536 0.179l0.001 0c0.405-0.046 0.749-0.27 0.957-0.59l0.003-0.005c0.285 0.18 0.612 0.338 0.958 0.456l0.033 0.010h0.040c0.044 0.144 0.093 0.291 0.144 0.435 0.167 0.359 0.264 0.779 0.264 1.221 0 0.030-0 0.060-0.001 0.090l0-0.004c-0.086 0.465-0.83 0.477-1.214 0.412-0.048-0.010-0.102-0.015-0.158-0.015-0.213 0-0.408 0.081-0.554 0.214l0.001-0.001c-0.16 0.155-0.26 0.373-0.26 0.613 0 0.030 0.002 0.059 0.004 0.088l-0-0.004c0.004 0.134 0.077 0.249 0.184 0.313l0.002 0.001c0.070 0.026 0.15 0.042 0.234 0.042 0.109 0 0.212-0.026 0.303-0.072l-0.004 0.002c0.12-0.028 0.258-0.044 0.399-0.044 0.322 0 0.625 0.084 0.887 0.23l-0.009-0.005h0.016c0.262-0.15 0.577-0.239 0.912-0.239 0.163 0 0.321 0.021 0.471 0.060l-0.013-0.003c0.208-0.229 0.336-0.535 0.336-0.871 0-0.126-0.018-0.249-0.052-0.364l0.002 0.009c0.509-0.156 0.911-0.524 1.11-0.998l0.004-0.012c0.005-0.013 0.008-0.028 0.008-0.044 0-0.033-0.013-0.064-0.034-0.086l0 0c-0.025-0.026-0.059-0.041-0.097-0.041-0.012 0-0.023 0.002-0.034 0.004l0.001-0c-0.057 0.027-0.124 0.042-0.194 0.042-0.146 0-0.276-0.067-0.361-0.172l-0.001-0.001c-0.13-0.205-0.047-0.54 0.216-0.854 0.053-0.063 0.105-0.133 0.153-0.206l0.005-0.008c0.68-0.175 1.272-0.401 1.83-0.684l-0.051 0.023c0.424-0.21 0.945-0.424 1.48-0.605l0.094-0.028c0.139-0.045 0.303-0.082 0.473-0.103l0.013-0.001c-0 0.005-0 0.010-0 0.016 0 0.621 0.254 1.183 0.663 1.589l0 0c0.098 0.121 0.195 0.244 0.284 0.372 0.192 0.4 0.304 0.869 0.304 1.364 0 0.153-0.011 0.303-0.031 0.451l0.002-0.017c-0.129 0.165-0.328 0.271-0.552 0.271-0.031 0-0.061-0.002-0.091-0.006l0.004 0c-0.040-0.005-0.086-0.008-0.133-0.008-0.274 0-0.525 0.098-0.72 0.261l0.002-0.001c-0.141 0.12-0.23 0.297-0.233 0.495v0c-0.001 0.006-0.001 0.014-0.001 0.021 0 0.104 0.055 0.196 0.137 0.248l0.001 0.001c0.188 0.109 0.498 0 0.663-0.088 0.125 0.103 0.287 0.165 0.463 0.165 0.001 0 0.001 0 0.002 0h-0c0.174-0.003 0.334-0.057 0.468-0.146l-0.003 0.002c0.12 0.072 0.266 0.115 0.421 0.115 0.185 0 0.356-0.061 0.493-0.163l-0.002 0.002c0.1 0.063 0.222 0.1 0.353 0.1 0.084 0 0.164-0.015 0.238-0.043l-0.005 0.002c0.045-0.017 0.084-0.038 0.12-0.064l-0.002 0.001 0.014 0.019c0.137 0.116 0.391 0.053 0.554 0 0.056 0.096 0.143 0.167 0.248 0.201l0.003 0.001c0.048 0.009 0.103 0.015 0.159 0.015 0.184 0 0.354-0.057 0.495-0.154l-0.003 0.002c0.115 0.102 0.267 0.164 0.433 0.164 0.024 0 0.047-0.001 0.070-0.004l-0.003 0c0.13-0.019 0.243-0.080 0.328-0.167l0-0c0.1 0.072 0.216 0.131 0.34 0.17l0.009 0.002c0.054 0.018 0.116 0.029 0.181 0.030h0c0.003 0 0.006 0 0.010 0 0.124 0 0.234-0.061 0.301-0.155l0.001-0.001c0.047-0.095 0.074-0.206 0.074-0.323 0-0.18-0.064-0.345-0.171-0.473l0.001 0.001c-0.095-0.128-0.152-0.289-0.152-0.464 0-0.045 0.004-0.089 0.011-0.132l-0.001 0.005c0.029-0.18 0.133-0.332 0.279-0.424l0.003-0.002c0.298-0.154 0.515-0.43 0.585-0.76l0.001-0.007c0-0.006 0.001-0.012 0.001-0.019 0-0.087-0.042-0.165-0.107-0.213l-0.001-0c-0.059-0.036-0.129-0.058-0.203-0.063l-0.001-0c-0.154-0.021-0.344-0.047-0.588-0.495-0.216-0.4 0.040-1.177 0.312-2 0.139-0.375 0.283-0.856 0.4-1.347l0.019-0.092c0.032-0.17 0.050-0.366 0.050-0.566 0-0.715-0.233-1.376-0.626-1.911l0.006 0.009c0.464-0.356 0.761-0.911 0.761-1.536 0-0.058-0.003-0.115-0.008-0.172l0.001 0.007c-0.157-0.547-0.562-0.975-1.083-1.159l-0.012-0.004c-0.339-0.073-0.729-0.114-1.128-0.114s-0.789 0.042-1.165 0.121l0.037-0.006c-0.334 0.063-0.719 0.099-1.111 0.099-0.195 0-0.388-0.009-0.579-0.026l0.025 0.002c-0.125-0.020-0.231-0.087-0.301-0.182l-0.001-0.001c-0.037-0.072-0.059-0.158-0.059-0.248 0-0.045 0.005-0.088 0.015-0.13l-0.001 0.004c0.002-0.009 0.003-0.020 0.003-0.030 0-0.032-0.011-0.061-0.029-0.084l0 0c-0.024-0.030-0.060-0.049-0.101-0.049-0.001 0-0.003 0-0.004 0h0c-0.222 0.020-0.419 0.116-0.565 0.263v0c-0.003-0.016-0.004-0.035-0.004-0.053s0.002-0.037 0.005-0.055l-0 0.002c0.056-0.191 0.17-0.351 0.321-0.464l0.002-0.002c0.031-0.024 0.051-0.062 0.051-0.105 0-0.002-0-0.003-0-0.005v0c-0.002-0.044-0.027-0.083-0.062-0.104l-0.001-0c-0.155-0.096-0.342-0.152-0.543-0.152-0.281 0-0.537 0.111-0.725 0.292l0-0c-0.102-0.104-0.165-0.247-0.165-0.404 0-0.007 0-0.013 0-0.020l-0 0.001c0.001-0.177 0.102-0.331 0.249-0.408l0.003-0.001c0.046-0.030 0.102-0.049 0.162-0.049 0.032 0 0.062 0.005 0.091 0.014l-0.002-0.001c0.106 0.054 0.187 0.143 0.231 0.25l0.001 0.003c0.013 0.035 0.041 0.062 0.076 0.074l0.001 0c0.016 0.008 0.034 0.012 0.053 0.012s0.038-0.005 0.054-0.013l-0.001 0c0.229-0.164 0.383-0.42 0.409-0.713l0-0.004c0.16 0.020 0.297 0.101 0.392 0.218l0.001 0.001c0.113 0.191 0.18 0.421 0.18 0.666 0 0.093-0.010 0.185-0.028 0.272l0.002-0.009c-0.001 0.007-0.002 0.014-0.002 0.022 0 0.038 0.016 0.072 0.041 0.096l0 0c0.023 0.021 0.054 0.035 0.088 0.035 0.012 0 0.023-0.002 0.034-0.005l-0.001 0c0.449-0.115 0.779-0.507 0.8-0.979l0-0.002c0.253 0.187 0.416 0.484 0.416 0.819 0 0.022-0.001 0.044-0.002 0.066l0-0.003c-0 0.002-0 0.004-0 0.006 0 0.043 0.021 0.081 0.053 0.105l0 0c0.021 0.016 0.048 0.026 0.077 0.026 0.017 0 0.034-0.004 0.049-0.010l-0.001 0c0.174-0.069 0.312-0.195 0.396-0.354l0.002-0.004c0.255 0.327 0.593 0.578 0.982 0.723l0.015 0.005c0.011 0.003 0.024 0.005 0.038 0.005 0.038 0 0.073-0.016 0.097-0.043l0-0c0.020-0.023 0.033-0.053 0.033-0.086 0-0.018-0.003-0.034-0.010-0.050l0 0.001-0.126-0.307c0.102 0.072 0.202 0.149 0.302 0.233 0.277 0.228 0.589 0.431 0.923 0.597l0.028 0.013c0.167 0.096 0.367 0.153 0.58 0.153 0.138 0 0.27-0.024 0.393-0.067l-0.008 0.003c0.182-0.070 0.326-0.206 0.403-0.379l0.002-0.005c0.021-0.068 0.033-0.147 0.033-0.228 0-0.17-0.053-0.328-0.144-0.458l0.002 0.003zM41.667 11.416c-0.054 0.108-0.146 0.191-0.257 0.232l-0.003 0.001c-0.086 0.029-0.185 0.046-0.289 0.046-0.173 0-0.335-0.047-0.474-0.13l0.004 0.002c-0.344-0.171-0.64-0.365-0.91-0.588l0.008 0.006c-0.197-0.165-0.417-0.318-0.649-0.453l-0.023-0.012c-0.018-0.010-0.039-0.015-0.062-0.015-0.033 0-0.063 0.012-0.087 0.032l0-0c-0.026 0.024-0.042 0.059-0.042 0.097 0 0.018 0.004 0.035 0.010 0.050l-0-0.001 0.154 0.372c-0.305-0.173-0.551-0.417-0.721-0.712l-0.005-0.009c-0.023-0.040-0.066-0.067-0.115-0.067-0.011 0-0.022 0.001-0.032 0.004l0.001-0c-0.056 0.015-0.097 0.065-0.098 0.126v0c-0.008 0.127-0.064 0.239-0.149 0.321l-0 0c-0.041-0.454-0.337-0.831-0.743-0.986l-0.008-0.003c-0.013-0.005-0.028-0.007-0.043-0.007-0.071 0-0.128 0.057-0.128 0.128 0 0.006 0 0.012 0.001 0.017l-0-0.001c0.004 0.031 0.006 0.066 0.006 0.102 0 0.318-0.171 0.595-0.425 0.747l-0.004 0.002c0.004-0.039 0.006-0.085 0.006-0.131 0-0.291-0.089-0.562-0.242-0.785l0.003 0.005c-0.167-0.201-0.418-0.328-0.698-0.328h-0c-0.002-0-0.004-0-0.007-0-0.034 0-0.064 0.013-0.086 0.035l0-0c-0.025 0.022-0.041 0.055-0.042 0.091v0c-0.009 0.208-0.079 0.398-0.193 0.554l0.002-0.003c-0.071-0.111-0.172-0.198-0.291-0.25l-0.004-0.002c-0.054-0.019-0.116-0.030-0.18-0.030-0.105 0-0.203 0.029-0.287 0.081l0.002-0.001c-0.23 0.121-0.385 0.357-0.388 0.63v0c-0 0.010-0.001 0.022-0.001 0.033 0 0.282 0.144 0.531 0.363 0.676l0.003 0.002c0.020 0.012 0.043 0.020 0.069 0.020 0.038 0 0.073-0.016 0.096-0.043l0-0c0.155-0.176 0.382-0.286 0.633-0.286 0.083 0 0.162 0.012 0.238 0.034l-0.006-0.002c-0.136 0.131-0.232 0.302-0.271 0.494l-0.001 0.006c-0.003 0.023-0.005 0.050-0.005 0.078 0 0.141 0.049 0.271 0.132 0.373l-0.001-0.001c0.022 0.030 0.057 0.049 0.096 0.049 0.003 0 0.006-0 0.009-0l-0 0c0.042-0 0.079-0.021 0.102-0.053l0-0c0.092-0.118 0.21-0.21 0.346-0.27l0.006-0.002c-0 0.008-0.001 0.017-0.001 0.026 0 0.13 0.036 0.252 0.098 0.356l-0.002-0.003c0.106 0.158 0.27 0.268 0.461 0.302l0.004 0.001c0.187 0.019 0.404 0.031 0.623 0.031 0.398 0 0.787-0.037 1.165-0.106l-0.039 0.006c0.337-0.073 0.723-0.115 1.12-0.115 0.358 0 0.709 0.034 1.048 0.099l-0.035-0.006c0.449 0.154 0.792 0.509 0.928 0.955l0.003 0.010c0.093 0.465-0.165 0.984-0.763 1.544-0.022 0.024-0.035 0.055-0.035 0.090s0.013 0.066 0.035 0.090l-0-0c0.393 0.505 0.629 1.148 0.629 1.847 0 0.175-0.015 0.347-0.043 0.514l0.003-0.018c-0.131 0.57-0.272 1.042-0.438 1.502l0.029-0.090c-0.302 0.916-0.565 1.705-0.295 2.205 0.307 0.565 0.605 0.605 0.782 0.628l0.086 0.014c0.026 0.051-0.065 0.326-0.465 0.579-0.209 0.132-0.355 0.346-0.395 0.595l-0.001 0.005c-0.009 0.051-0.014 0.11-0.014 0.17 0 0.235 0.078 0.451 0.209 0.625l-0.002-0.003c0.071 0.085 0.115 0.196 0.115 0.316 0 0.062-0.011 0.121-0.032 0.176l0.001-0.003c-0.012 0.019-0.051 0.072-0.202 0.026-0.134-0.040-0.249-0.106-0.345-0.194l0.001 0.001c-0.024-0.026-0.059-0.042-0.097-0.042-0.004 0-0.007 0-0.010 0l0-0c-0.042 0.003-0.079 0.026-0.1 0.060l-0 0.001c-0.053 0.081-0.134 0.139-0.23 0.16l-0.002 0c-0.005 0-0.010 0-0.016 0-0.14 0-0.266-0.062-0.351-0.16l-0-0.001c-0.022-0.017-0.051-0.028-0.081-0.028s-0.059 0.011-0.082 0.028l0-0c-0.127 0.098-0.288 0.157-0.462 0.157-0.017 0-0.033-0.001-0.049-0.002l0.002 0c-0.023 0-0.093-0.030-0.14-0.163-0.012-0.035-0.038-0.063-0.071-0.076l-0.001-0c-0.015-0.007-0.033-0.011-0.052-0.011s-0.037 0.004-0.053 0.012l0.001-0c-0.114 0.059-0.247 0.096-0.389 0.1l-0.001 0c-0.003-0.011-0.005-0.024-0.005-0.037s0.002-0.026 0.005-0.038l-0 0.001c0.091-0.309 0.465-0.384 0.698-0.433 0.048-0.008 0.088-0.017 0.127-0.028l-0.008 0.002 0.088-0.019c0.233-0.047 0.73-0.144 0.668-0.763-0.004-0.055-0.006-0.119-0.006-0.184s0.002-0.129 0.007-0.192l-0 0.009c0.007-0.049 0.011-0.105 0.011-0.162 0-0.432-0.235-0.809-0.585-1.009l-0.006-0.003c-0.233-0.158-0.433-0.302-0.637-0.44-0.467-0.292-0.872-0.606-1.244-0.955l0.004 0.004c-0.46-0.5-1.118-0.811-1.848-0.811-0.305 0-0.597 0.054-0.868 0.154l0.017-0.006c-0.64 0.211-1.17 0.429-1.682 0.679l0.079-0.035c-0.414 0.208-0.906 0.404-1.415 0.559l-0.069 0.018c0.36-0.666 0.576-1.457 0.586-2.297l0-0.003c-0.006-0.066-0.061-0.117-0.128-0.117-0.071 0-0.128 0.058-0.128 0.128 0 0.004 0 0.008 0.001 0.012l-0-0c-0.019 0.994-0.344 1.909-0.884 2.658l0.010-0.014c-0.199 0.186-0.323 0.45-0.323 0.743 0 0.152 0.033 0.296 0.093 0.426l-0.003-0.006c0.118 0.17 0.312 0.281 0.532 0.281 0.016 0 0.032-0.001 0.047-0.002l-0.002 0c-0.212 0.336-0.545 0.58-0.936 0.67l-0.010 0.002c-0.035 0.007-0.065 0.030-0.081 0.060l-0 0.001c-0.011 0.018-0.018 0.039-0.018 0.062 0 0.014 0.002 0.027 0.007 0.039l-0-0.001s0.214 0.756-0.156 1.070c-0.075 0.026-0.161 0.042-0.25 0.042-0.151 0-0.292-0.043-0.411-0.118l0.003 0.002c-0.016-0.008-0.035-0.013-0.055-0.013-0.034 0-0.065 0.014-0.087 0.036v0c-0.114 0.107-0.264 0.175-0.431 0.184l-0.002 0c-0.133-0.008-0.25-0.070-0.33-0.164l-0.001-0.001c-0.023-0.022-0.055-0.035-0.090-0.035s-0.066 0.013-0.090 0.035l0-0c-0.014 0.014-0.379 0.316-0.651 0.012-0.024-0.026-0.058-0.043-0.096-0.043-0.022 0-0.043 0.006-0.061 0.015l0.001-0c-0.105 0.053-0.295 0.114-0.377 0.070 0 0-0.044-0.023-0.051-0.112-0.002-0.020-0.004-0.043-0.004-0.067 0-0.165 0.068-0.315 0.178-0.422l0-0c0.1-0.090 0.233-0.144 0.378-0.144 0.041 0 0.080 0.004 0.119 0.012l-0.004-0.001c0.677 0.114 1.396-0.035 1.51-0.621 0.003-0.049 0.004-0.106 0.004-0.164 0-0.461-0.102-0.898-0.284-1.29l0.008 0.019c-0.133-0.312-0.228-0.675-0.268-1.053l-0.001-0.017c-0-0.012-0-0.026-0-0.039 0-0.428 0.046-0.844 0.133-1.246l-0.007 0.039c0.002-0.009 0.003-0.019 0.003-0.029 0-0.071-0.058-0.129-0.129-0.129-0.061 0-0.112 0.042-0.125 0.099l-0 0.001c-0.084 0.374-0.133 0.803-0.133 1.244 0 0.023 0 0.046 0 0.069l-0-0.003c0.007 0.15 0.028 0.292 0.064 0.428l-0.003-0.014c-0.868-0.261-1.562-0.869-1.93-1.66l-0.008-0.019c-0.119-0.31-0.188-0.668-0.188-1.043 0-0.487 0.117-0.947 0.323-1.354l-0.008 0.017c0.353-0.634 0.822-1.162 1.382-1.572l0.014-0.009c0.193-0.148 0.364-0.304 0.521-0.474l0.003-0.003c-0.080 0.375-0.217 0.708-0.405 1.006l0.007-0.013c-0.014 0.020-0.022 0.045-0.022 0.072s0.008 0.052 0.022 0.073l-0-0c0.024 0.029 0.060 0.048 0.1 0.048 0.014 0 0.028-0.002 0.040-0.007l-0.001 0c0.185-0.068 0.338-0.138 0.486-0.217l-0.021 0.010 0.042 0.651c0.003 0.068 0.059 0.122 0.128 0.122 0.031 0 0.060-0.011 0.082-0.029l-0 0c0.171-0.145 0.323-0.301 0.46-0.47l0.005-0.007 0.128 0.405c0.012 0.040 0.042 0.070 0.081 0.083l0.001 0c0.012 0.004 0.026 0.006 0.040 0.006 0.027 0 0.053-0.009 0.074-0.023l-0 0c0.181-0.135 0.338-0.288 0.473-0.46l0.004-0.005 0.233 0.391c0.022 0.037 0.062 0.061 0.108 0.061 0.003 0 0.006-0 0.009-0l-0 0c0.045-0.010 0.080-0.041 0.095-0.083l0-0.001 0.286-0.57 0.233 0.654c0.013 0.037 0.042 0.066 0.078 0.079l0.001 0h0.042c0.025-0 0.049-0.008 0.068-0.021l-0 0 0.633-0.398c0.243 0.123 0.526 0.215 0.823 0.263l0.017 0.002c0.007 0.001 0.014 0.002 0.022 0.002 0.033 0 0.063-0.013 0.085-0.035l-0 0c0.026-0.025 0.042-0.059 0.042-0.098 0-0.003-0-0.006-0-0.009l0 0-0.051-0.537h0.558c0 0 0 0 0.001 0 0.065 0 0.119-0.050 0.125-0.113l0-0.001c0.001-0.005 0.001-0.010 0.001-0.016 0-0.059-0.039-0.108-0.093-0.123l-0.001-0c-0.126-0.075-0.233-0.168-0.319-0.279l-0.002-0.002h0.028c0.323 0.026 5.785 0.428 6.978-0.444 0.668-0.484 0.621-0.93 0.533-1.144-0.247-0.414-0.693-0.687-1.202-0.687-0.1 0-0.197 0.010-0.291 0.030l0.009-0.002c-0.261 0.033-0.54 0.081-0.828 0.135-0.439 0.154-0.945 0.243-1.472 0.243-0.652 0-1.273-0.136-1.835-0.383l0.029 0.011c-0.381-0.144-0.656-0.247-0.865-0.121-0.092 0.061-0.161 0.151-0.192 0.257l-0.001 0.003c-0.113-0.118-0.182-0.278-0.182-0.455 0-0.127 0.036-0.245 0.098-0.346l-0.002 0.003c0.009-0.017 0.015-0.038 0.015-0.060 0-0.035-0.014-0.066-0.036-0.089l0 0c-0.293-0.313-0.473-0.735-0.473-1.199 0-0.176 0.026-0.346 0.074-0.506l-0.003 0.012c0.316-0.791 1.561-1.237 2.961-1.058 1.276 0.318 2.387 0.904 3.314 1.698l-0.011-0.009c0.281 0.257 0.613 0.465 0.979 0.605l0.021 0.007c0.006 0.001 0.012 0.001 0.019 0.001 0.033 0 0.063-0.013 0.086-0.034l-0 0c0.025-0.023 0.040-0.056 0.040-0.092 0-0.004-0-0.007-0-0.011l0 0c-0-0.005-0-0.010-0-0.016 0-0.097 0.034-0.186 0.092-0.255l-0.001 0.001c0.050-0.044 0.117-0.071 0.189-0.071 0.015 0 0.030 0.001 0.045 0.004l-0.002-0c0 0 0 0 0.001 0 0.11 0 0.208 0.054 0.269 0.136l0.001 0.001c0.041 0.075 0.064 0.165 0.064 0.26 0 0.069-0.013 0.135-0.035 0.195l0.001-0.004zM37.608 23.899c-0.037 0.010-0.080 0.016-0.123 0.016-0.112 0-0.215-0.039-0.296-0.103l0.001 0.001c-0.021-0.016-0.049-0.026-0.078-0.026s-0.056 0.010-0.078 0.026l0-0c-0.103 0.094-0.241 0.152-0.393 0.152-0.13 0-0.249-0.042-0.346-0.114l0.002 0.001c-0.022-0.018-0.051-0.030-0.083-0.030s-0.060 0.011-0.083 0.030l0-0c-0.095 0.090-0.224 0.146-0.365 0.146s-0.27-0.055-0.365-0.146l0 0c-0.023-0.022-0.055-0.036-0.090-0.036-0.022 0-0.043 0.006-0.062 0.016l0.001-0c-0.174 0.095-0.421 0.174-0.486 0.133-0.012 0-0.012-0.040-0.012-0.047 0.006-0.122 0.064-0.229 0.153-0.299l0.001-0.001c0.147-0.121 0.338-0.194 0.546-0.194 0.036 0 0.071 0.002 0.105 0.006l-0.004-0c0.038 0.006 0.083 0.009 0.128 0.009 0.328 0 0.616-0.17 0.782-0.426l0.002-0.004c0.032-0.172 0.050-0.37 0.050-0.572 0-0.538-0.129-1.045-0.359-1.493l0.009 0.018c-0.091-0.133-0.193-0.261-0.293-0.386-0.375-0.362-0.607-0.869-0.607-1.43 0-0.013 0-0.025 0-0.038l-0 0.002c0.008-0 0.018-0 0.028-0 0.657 0 1.249 0.279 1.664 0.724l0.001 0.001c0.251 0.244 0.525 0.468 0.816 0.668l0.021 0.014c-0.159 0.146-0.271 0.341-0.313 0.561l-0.001 0.006c-0.001 0.009-0.001 0.019-0.001 0.030 0 0.102 0.039 0.194 0.104 0.263l-0-0c0.112 0.123 0.273 0.2 0.451 0.2 0.032 0 0.063-0.002 0.094-0.007l-0.003 0c0.012-0.001 0.026-0.002 0.041-0.002s0.029 0.001 0.043 0.002l-0.002-0c-0.083 0.152-0.17 0.282-0.267 0.403l0.004-0.006c-0.256 0.349-0.421 0.591-0.393 0.779 0.021 0.128 0.070 0.323 0.119 0.509 0.043 0.136 0.082 0.305 0.111 0.477l0.003 0.023c-0.038 0.071-0.101 0.125-0.177 0.151l-0.002 0.001zM38.152 22.119c0.249-0.337 0.374-0.521 0.3-0.668-0.056-0.089-0.153-0.146-0.264-0.146-0.027 0-0.053 0.003-0.077 0.010l0.002-0c-0.022 0.005-0.047 0.007-0.072 0.007-0.105 0-0.2-0.044-0.267-0.114l-0-0c-0.022-0.025-0.035-0.057-0.035-0.093 0-0.004 0-0.008 0.001-0.012l-0 0.001c0.047-0.174 0.142-0.321 0.269-0.432l0.001-0.001 0.233 0.151c0.202 0.135 0.412 0.277 0.63 0.435 0.287 0.156 0.479 0.455 0.479 0.8 0 0.055-0.005 0.109-0.014 0.162l0.001-0.006c-0.005 0.060-0.008 0.13-0.008 0.2s0.003 0.14 0.008 0.209l-0.001-0.009c0.035 0.358-0.17 0.428-0.465 0.486l-0.102 0.021-0.107 0.023c-0.267 0.035-0.505 0.141-0.701 0.298l0.003-0.002c-0.019-0.070-0.040-0.151-0.063-0.247-0.039-0.124-0.078-0.286-0.109-0.451l-0.005-0.030c0-0.098 0.235-0.43 0.358-0.591zM25.073 19.712c-0.057 0.005-0.108 0.029-0.147 0.065l0-0c-0.112-0.132-0.18-0.305-0.18-0.493 0-0.012 0-0.023 0.001-0.035l-0 0.002c0.002-0.025 0.003-0.054 0.003-0.083 0-0.23-0.073-0.443-0.196-0.618l0.002 0.003c0.018-0.024 0.035-0.050 0.048-0.079l0.001-0.003c0.021-0.047 0.034-0.101 0.034-0.158 0-0.090-0.030-0.172-0.081-0.238l0.001 0.001c0.032-0.061 0.050-0.134 0.050-0.211 0-0.043-0.006-0.084-0.016-0.123l0.001 0.003c0.043-0.075 0.068-0.166 0.068-0.262 0-0.047-0.006-0.094-0.018-0.137l0.001 0.004c0.040-0.053 0.074-0.114 0.1-0.178l0.002-0.005c0.416 0.448 0.856 0.859 1.325 1.235l0.024 0.019c0.037 0.19 0.086 0.356 0.149 0.515l-0.007-0.019c0.218 0.519 0.566 0.947 1.003 1.257l0.009 0.006c-0.219 0.3-0.63 0.698-1.14 0.347-0.21-0.147-0.394-0.31-0.555-0.492l-0.003-0.003c-0.2-0.198-0.321-0.337-0.484-0.309zM23.992 20.85c0.024 0.027 0.060 0.044 0.099 0.044 0.003 0 0.006-0 0.008-0l-0 0c0.042-0.003 0.078-0.026 0.1-0.060l0-0.001c0.038-0.055 0.091-0.097 0.154-0.12l0.002-0.001c0.006-0.001 0.013-0.002 0.020-0.002 0.033 0 0.064 0.012 0.087 0.032l-0-0c0.026 0.029 0.041 0.067 0.041 0.109 0 0.027-0.007 0.053-0.018 0.076l0-0.001c-0.062 0.142-0.201 0.239-0.363 0.239-0.025 0-0.049-0.002-0.072-0.007l0.002 0c-0.002-0-0.004-0-0.006-0-0.054 0-0.1 0.033-0.119 0.081l-0 0.001c-0.006 0.014-0.009 0.030-0.009 0.047 0 0.039 0.018 0.074 0.046 0.097l0 0 0.209 0.181-0.344 0.084c-0.045 0.012-0.080 0.046-0.093 0.090l-0 0.001c-0.038 0.129-0.090 0.242-0.157 0.345l0.003-0.005c-0.065-0.098-0.118-0.21-0.154-0.331l-0.002-0.009c-0.013-0.045-0.048-0.079-0.092-0.090l-0.001-0-0.344-0.084 0.209-0.181c0.028-0.023 0.046-0.058 0.046-0.097 0-0.017-0.003-0.033-0.009-0.048l0 0.001c-0.021-0.048-0.068-0.081-0.122-0.081-0.001 0-0.002 0-0.003 0h0c-0.021 0.004-0.045 0.006-0.070 0.006-0.162 0-0.301-0.097-0.362-0.236l-0.001-0.003c-0.011-0.022-0.017-0.047-0.017-0.074 0-0.042 0.015-0.080 0.040-0.11l-0 0c0.024-0.020 0.055-0.031 0.089-0.031 0.006 0 0.013 0 0.019 0.001l-0.001-0c0.065 0.022 0.119 0.065 0.155 0.12l0.001 0.001c0.022 0.034 0.058 0.056 0.099 0.060l0.001 0c0 0 0.001 0 0.001 0 0.041 0 0.079-0.017 0.106-0.044v0c0.122-0.142 0.196-0.328 0.196-0.531 0-0.189-0.064-0.363-0.172-0.501l0.001 0.002c0.098-0.134 0.191-0.287 0.271-0.447l0.008-0.019c0.006-0.015 0.010-0.032 0.010-0.050 0-0.032-0.012-0.062-0.031-0.085l0 0c-0.027-0.030-0.065-0.049-0.109-0.049-0.010 0-0.020 0.001-0.030 0.003l0.001-0c-0.050 0.016-0.107 0.026-0.167 0.026-0.094 0-0.182-0.023-0.26-0.064l0.003 0.001c-0.026-0.028-0.042-0.067-0.042-0.108 0-0.029 0.008-0.057 0.022-0.081l-0 0.001c0.012-0.021 0.049-0.084 0.181-0.033s0.312 0.102 0.426 0c0.022-0.022 0.040-0.048 0.051-0.078l0-0.001h0.102c0.012 0.027 0.028 0.051 0.049 0.070l0 0c0.116 0.102 0.298 0.049 0.426 0s0.17 0.012 0.181 0.033c0.014 0.023 0.022 0.051 0.022 0.081 0 0.042-0.016 0.081-0.043 0.11l0-0c-0.076 0.038-0.166 0.060-0.26 0.060-0.064 0-0.126-0.010-0.183-0.029l0.004 0.001c-0.007-0.001-0.016-0.002-0.024-0.002-0.072 0-0.13 0.058-0.13 0.13 0 0.020 0.005 0.039 0.013 0.057l-0-0.001c0.088 0.179 0.181 0.331 0.286 0.474l-0.006-0.009c-0.11 0.138-0.177 0.315-0.177 0.507 0 0.204 0.075 0.39 0.198 0.534l-0.001-0.001zM24.411 17.221c-0.024 0.023-0.039 0.056-0.039 0.092 0 0.017 0.003 0.033 0.009 0.048l-0-0.001c0.017 0.034 0.026 0.073 0.026 0.115 0 0.059-0.019 0.114-0.052 0.158l0-0.001c-0.024 0.023-0.038 0.055-0.038 0.090 0 0.023 0.006 0.045 0.017 0.064l-0-0.001c0.053 0.095-0.033 0.214-0.033 0.214-0.018 0.022-0.029 0.050-0.029 0.081s0.011 0.059 0.029 0.082l-0-0c0.1 0.119 0.077 0.17 0.065 0.195-0.048 0.091-0.131 0.159-0.23 0.188l-0.003 0.001c-0.102 0.035-0.219 0.055-0.341 0.055-0.021 0-0.041-0.001-0.062-0.002l0.003 0h-0.009c-0.155-0.004-0.302-0.037-0.436-0.094l0.008 0.003c-0.058-0.028-0.13-0.072-0.147-0.13-0.001-0.007-0.002-0.016-0.002-0.024 0-0.030 0.009-0.058 0.026-0.081l-0 0c0.016-0.021 0.025-0.048 0.025-0.077 0-0.008-0.001-0.016-0.002-0.024l0 0.001c-0.006-0.036-0.026-0.067-0.055-0.086l-0-0c-0.065-0.044-0.072-0.084-0.072-0.095 0-0.001 0-0.002 0-0.002 0-0.058 0.021-0.111 0.056-0.151l-0 0c0.019-0.022 0.031-0.050 0.031-0.082 0-0.006-0-0.011-0.001-0.016l0 0.001c-0.005-0.037-0.024-0.068-0.051-0.090l-0-0c-0.040-0.028-0.105-0.086-0.105-0.142 0.012-0.055 0.044-0.1 0.088-0.13l0.001-0c0.033-0.024 0.054-0.063 0.054-0.107s-0.021-0.083-0.054-0.107l-0-0c-0.033-0.046-0.053-0.103-0.053-0.165 0-0.011 0.001-0.021 0.002-0.032l-0 0.001c0.153 0.031 0.329 0.049 0.51 0.051l0.002 0h0.030c0.011 0 0.024 0 0.037 0 0.313 0 0.611-0.063 0.883-0.176l-0.015 0.006 0.047 0.058c0 0.001 0 0.002 0 0.003 0 0.12-0.047 0.229-0.123 0.309l0-0zM23.55 16.756c-0.698 0-1.163-0.233-1.237-0.6-0.006-0.023-0.010-0.049-0.010-0.076 0-0.073 0.027-0.139 0.071-0.189l-0 0c0.094-0.083 0.219-0.133 0.355-0.133 0.010 0 0.020 0 0.030 0.001l-0.001-0h0.102c0.035 0 0.042 0.016 0.044 0.021 0.002 0.018 0.004 0.039 0.004 0.060 0 0.087-0.023 0.168-0.063 0.238l0.001-0.002c-0.008 0.016-0.013 0.036-0.013 0.056 0 0.050 0.028 0.094 0.070 0.116l0.001 0c0.213 0.092 0.461 0.146 0.722 0.146 0.207 0 0.406-0.034 0.592-0.096l-0.013 0.004c0.049-0.018 0.087-0.057 0.102-0.106l0-0.001c0.002-0.013 0.004-0.027 0.004-0.042 0-0.040-0.010-0.077-0.028-0.11l0.001 0.001c-0.020-0.036-0.031-0.078-0.031-0.123 0-0.064 0.023-0.123 0.062-0.168l-0 0c0.049-0.065 0.158-0.035 0.191-0.023 0.176 0.064 0.301 0.226 0.309 0.418l0 0.001c-0.004 0.109-0.054 0.205-0.13 0.272l-0 0c-0.28 0.217-0.637 0.348-1.024 0.348-0.040 0-0.080-0.001-0.119-0.004l0.005 0zM24.027 16.095c-0.12 0.030-0.259 0.047-0.401 0.047-0.177 0-0.348-0.026-0.509-0.075l0.012 0.003c0.025-0.060 0.039-0.129 0.039-0.202s-0.014-0.142-0.041-0.206l0.001 0.004v-0.019l-0.028-4.061c-0.017-0.132-0.026-0.286-0.026-0.441 0-1.304 0.668-2.452 1.68-3.121l0.014-0.009c-0.457 1.854-0.719 3.981-0.719 6.17 0 0.515 0.015 1.026 0.043 1.534l-0.003-0.070c-0.059 0.081-0.095 0.182-0.095 0.291 0 0.058 0.010 0.114 0.028 0.166l-0.001-0.003zM27.546 13.909l-0.137 0.3c-0.085-0.095-0.153-0.206-0.2-0.328l-0.002-0.007c-0.020-0.048-0.066-0.081-0.121-0.081-0.012 0-0.023 0.002-0.034 0.004l0.001-0-0.481 0.128 0.109-0.27c0.006-0.014 0.010-0.031 0.010-0.049 0-0.029-0.010-0.056-0.027-0.077l0 0c-0.023-0.032-0.060-0.052-0.102-0.052-0.005 0-0.010 0-0.015 0.001l0.001-0-0.584 0.058 0.219-0.588c0.439 0.134 0.964 0.245 1.503 0.312l0.046 0.005-0.095 0.119c-0.017 0.022-0.027 0.050-0.027 0.080 0 0.072 0.058 0.13 0.13 0.13 0.010 0 0.019-0.001 0.028-0.003l-0.001 0c0.269-0.065 0.578-0.102 0.896-0.102 0.094 0 0.187 0.003 0.279 0.010l-0.012-0.001c0.011 0.003 0.023 0.005 0.035 0.005 0.046 0 0.086-0.024 0.109-0.060l0-0.001c0.011-0.018 0.017-0.040 0.017-0.064 0-0.032-0.012-0.061-0.031-0.083l0 0c-0.402-0.443-0.776-0.93-1.106-1.447l-0.026-0.044c-0.021-0.047-0.067-0.080-0.122-0.080-0.005 0-0.009 0-0.014 0.001l0.001-0c-0.058 0.004-0.105 0.049-0.112 0.106l-0 0.001-0.065 0.414c-0.135-0.089-0.248-0.199-0.337-0.326l-0.003-0.004c-0.023-0.033-0.062-0.055-0.105-0.055-0.068 0-0.123 0.053-0.128 0.119l-0 0c-0.002 0.020-0.003 0.043-0.003 0.066s0.001 0.046 0.003 0.069l-0-0.003c-0.448-0.37-0.802-0.838-1.031-1.372l-0.009-0.024c-0.098-0.305-0.088-0.53 0.021-0.651 0.069-0.067 0.164-0.108 0.268-0.108 0.027 0 0.054 0.003 0.079 0.008l-0.003-0c0.099 0.024 0.181 0.086 0.232 0.168l0.001 0.002c0.035 0.054 0.056 0.119 0.056 0.19 0 0.029-0.004 0.057-0.010 0.084l0-0.002c-0.003 0.010-0.005 0.022-0.005 0.035 0 0.030 0.011 0.058 0.028 0.079l-0-0c0.024 0.030 0.061 0.049 0.102 0.049 0.002 0 0.004-0 0.006-0h-0c0.326-0.016 1.963-0.126 2.226-0.661 0.022-0.047 0.035-0.102 0.035-0.161s-0.013-0.113-0.036-0.163l0.001 0.002c0.125-0.065 0.272-0.103 0.428-0.103 0.296 0 0.56 0.136 0.734 0.35l0.001 0.002c0.022 0.018 0.050 0.029 0.081 0.029s0.059-0.011 0.082-0.029l-0 0c0.18-0.131 0.296-0.341 0.296-0.577 0-0.006-0-0.011-0-0.017v0.001c0.322 0.042 0.594 0.227 0.753 0.489l0.003 0.005c0.020 0.033 0.055 0.056 0.095 0.060l0.001 0c0.004 0.001 0.010 0.001 0.015 0.001 0.036 0 0.069-0.016 0.092-0.040l0-0c0.133-0.14 0.237-0.307 0.304-0.493l0.003-0.010c0.313 0.088 0.574 0.274 0.755 0.522l0.003 0.004c0.022 0.027 0.054 0.046 0.090 0.049l0 0c0.008 0 0.018 0 0.028 0 0.128 0 0.252-0.019 0.369-0.054l-0.009 0.002c-0.486 0.336-1.073 0.563-1.707 0.631l-0.017 0.001c-0.049 0.004-0.089 0.035-0.107 0.078l-0 0.001c-0.006 0.015-0.010 0.032-0.010 0.051 0 0.031 0.011 0.060 0.029 0.082l-0-0 0.184 0.233c-0.049 0.005-0.106 0.008-0.164 0.008-0.33 0-0.638-0.098-0.896-0.266l0.006 0.004c-0.022-0.018-0.051-0.029-0.082-0.029-0.072 0-0.13 0.058-0.13 0.13 0 0.021 0.005 0.042 0.014 0.060l-0-0.001 0.158 0.295c-0.292-0.076-0.549-0.181-0.786-0.315l0.016 0.008c-0.277-0.142-0.498-0.254-0.698-0.195-0.149 0.050-0.257 0.18-0.274 0.338l-0 0.002c-0.003 0.021-0.005 0.045-0.005 0.070 0 0.157 0.078 0.296 0.197 0.38l0.001 0.001c0.068 0.045 0.151 0.072 0.241 0.072 0.001 0 0.002 0 0.003 0h-0c0.131-0.001 0.25-0.054 0.337-0.14l-0 0c0.071-0.069 0.121-0.16 0.137-0.263l0-0.003c0.302 0.177 0.658 0.296 1.039 0.332l0.010 0.001c0.003 0 0.006 0 0.009 0 0.045 0 0.085-0.024 0.107-0.060l0-0.001c0.010-0.019 0.016-0.041 0.016-0.065s-0.006-0.046-0.017-0.066l0 0.001-0.086-0.156c0.233 0.075 0.501 0.117 0.78 0.117 0.114 0 0.226-0.007 0.336-0.021l-0.013 0.001c0.049-0.005 0.089-0.036 0.107-0.078l0-0.001c0.007-0.015 0.010-0.032 0.010-0.050 0-0.031-0.011-0.059-0.029-0.080l0 0-0.198-0.233c0.678-0.094 1.279-0.37 1.766-0.777l-0.006 0.005c-0.083 0.259-0.247 0.472-0.461 0.616l-0.004 0.003c-0.032 0.018-0.055 0.049-0.063 0.085l-0 0.001c-0.001 0.007-0.002 0.016-0.002 0.025 0 0.031 0.011 0.060 0.028 0.082l-0-0c0.221 0.403 0.351 0.883 0.351 1.393 0 0.206-0.021 0.407-0.061 0.6l0.003-0.019c-0.411-0.207-0.74-0.527-0.953-0.919l-0.006-0.012c-0.023-0.033-0.062-0.054-0.105-0.054-0.069 0-0.126 0.055-0.128 0.124v0c0.013 0.126 0.021 0.273 0.021 0.421 0 0.071-0.002 0.142-0.005 0.212l0-0.010c-0.172-0.113-0.312-0.262-0.413-0.436l-0.003-0.006c-0.019-0.045-0.063-0.076-0.114-0.076-0.006 0-0.012 0-0.017 0.001l0.001-0c-0.056 0.005-0.1 0.046-0.111 0.099l-0 0.001c-0.033 0.14-0.077 0.302-0.112 0.412-0.15-0.084-0.274-0.197-0.367-0.334l-0.002-0.004c-0.023-0.041-0.065-0.068-0.114-0.068-0.069 0-0.125 0.053-0.13 0.121l-0 0c0 0.149-0.028 0.381-0.051 0.54-0.155-0.092-0.289-0.189-0.413-0.296l0.004 0.003c-0.024-0.021-0.055-0.034-0.090-0.034-0.012 0-0.023 0.002-0.034 0.004l0.001-0c-0.043 0.014-0.077 0.049-0.088 0.092l-0 0.001-0.067 0.251c-0.141-0.079-0.262-0.176-0.364-0.29l-0.001-0.001c-0.024-0.029-0.060-0.048-0.1-0.048-0.071 0-0.129 0.058-0.129 0.129 0 0.031 0.011 0.059 0.029 0.082l-0-0c0.166 0.179 0.363 0.325 0.584 0.43l0.012 0.005c0.016 0.008 0.035 0.012 0.055 0.012s0.039-0.005 0.055-0.013l-0.001 0c0.035-0.016 0.060-0.046 0.070-0.083l0-0.001 0.056-0.214c0.129 0.096 0.275 0.19 0.427 0.274l0.020 0.010c0.018 0.010 0.039 0.016 0.062 0.016 0.054 0 0.1-0.033 0.119-0.080l0-0.001c0.041-0.136 0.070-0.295 0.081-0.458l0-0.007c0.113 0.096 0.239 0.182 0.374 0.255l0.012 0.006c0.017 0.009 0.037 0.014 0.058 0.014 0.047 0 0.087-0.025 0.11-0.062l0-0.001c0.046-0.094 0.086-0.203 0.114-0.317l0.002-0.011c0.146 0.156 0.313 0.29 0.497 0.399l0.010 0.006c0.016 0.008 0.034 0.012 0.053 0.012s0.038-0.005 0.054-0.013l-0.001 0c0.035-0.013 0.063-0.040 0.076-0.074l0-0.001c0.034-0.115 0.054-0.246 0.054-0.383 0-0.014-0-0.029-0.001-0.043l0 0.002c0.202 0.242 0.444 0.444 0.717 0.596l0.013 0.007c0.018 0.296 0.055 0.569 0.109 0.836l-0.007-0.038c-0.344-0.128-0.639-0.314-0.888-0.548l0.001 0.001c-0.023-0.021-0.054-0.034-0.087-0.034-0.010 0-0.020 0.001-0.030 0.003l0.001-0c-0.042 0.008-0.076 0.037-0.090 0.076l-0 0.001-0.1 0.233-0.416-0.3c-0.020-0.016-0.046-0.025-0.074-0.025-0.019 0-0.036 0.004-0.052 0.012l0.001-0c-0.042 0.018-0.072 0.056-0.077 0.102l-0 0.001-0.040 0.286c-0.102-0.072-0.192-0.148-0.274-0.232l-0-0c-0.024-0.027-0.058-0.044-0.097-0.044-0.071 0-0.129 0.058-0.129 0.129 0 0.033 0.012 0.062 0.032 0.085l-0-0c0.147 0.152 0.312 0.285 0.492 0.396l0.011 0.006c0.018 0.010 0.039 0.017 0.062 0.017s0.044-0.006 0.062-0.017l-0.001 0c0.038-0.019 0.065-0.054 0.072-0.097l0-0.001 0.037-0.281 0.372 0.272c0.021 0.015 0.046 0.024 0.074 0.024 0.013 0 0.026-0.002 0.038-0.006l-0.001 0c0.038-0.012 0.068-0.039 0.083-0.074l0-0.001 0.093-0.233c0.194 0.159 0.414 0.296 0.651 0.404l0.019 0.008c0 0.254 0.059 0.494 0.162 0.707l-0.004-0.010c-0.346-0.006-0.673-0.086-0.966-0.225l0.014 0.006c-0.017-0.009-0.037-0.015-0.059-0.015-0.045 0-0.084 0.023-0.106 0.058l-0 0.001-0.188 0.288-0.772-0.519c-0.020-0.014-0.045-0.022-0.072-0.022-0.014 0-0.028 0.002-0.040 0.006l0.001-0c-0.038 0.013-0.067 0.042-0.081 0.078l-0 0.001-0.119 0.323c-0.142-0.161-0.347-0.384-0.421-0.444-0.022-0.018-0.050-0.028-0.081-0.028-0.038 0-0.072 0.016-0.096 0.042l-0 0c-0.12 0.125-0.25 0.238-0.39 0.339l-0.008 0.006-0.149-0.4c-0.019-0.049-0.066-0.083-0.121-0.083-0.017 0-0.032 0.003-0.047 0.009l0.001-0c-0.049 0.018-0.083 0.064-0.083 0.118 0 0.017 0.003 0.033 0.009 0.048l-0-0.001 0.202 0.549c0.014 0.035 0.042 0.063 0.076 0.076l0.001 0c0.016 0.007 0.034 0.011 0.053 0.011s0.038-0.004 0.054-0.012l-0.001 0c0.19-0.112 0.354-0.239 0.5-0.384l-0 0c0.119 0.123 0.321 0.349 0.449 0.495 0.023 0.027 0.058 0.044 0.096 0.044 0.009 0 0.018-0.001 0.026-0.003l-0.001 0c0.045-0.009 0.081-0.040 0.097-0.081l0-0.001 0.137-0.372 0.744 0.5c0.020 0.013 0.045 0.021 0.072 0.021h0.026c0.035-0.007 0.064-0.027 0.083-0.055l0-0 0.198-0.305c0.265 0.113 0.573 0.184 0.896 0.195l0.004 0c-0 0.003-0 0.006-0 0.009 0 0.030 0.011 0.058 0.028 0.080l-0-0c0.030 0.037 0.095 0.114 0.172 0.193h-0.321c-0.038 0-0.072 0.016-0.095 0.042l-0 0c-0.020 0.024-0.033 0.056-0.033 0.090 0 0.004 0 0.007 0 0.010l-0-0 0.049 0.505c-0.242-0.047-0.458-0.128-0.655-0.238l0.011 0.006c-0.020-0.013-0.044-0.021-0.070-0.021s-0.050 0.008-0.070 0.021l0-0-0.565 0.356-0.288-0.786c-0.018-0.047-0.062-0.081-0.114-0.084h-0c-0.004-0-0.009-0.001-0.013-0.001-0.049 0-0.090 0.029-0.11 0.070l-0 0.001-0.316 0.635-0.233-0.354c-0.022-0.036-0.060-0.059-0.105-0.060h-0c-0.001-0-0.002-0-0.003-0-0.043 0-0.082 0.021-0.106 0.053l-0 0c-0.12 0.166-0.248 0.312-0.387 0.445l-0.001 0.001-0.147-0.465c-0.016-0.046-0.056-0.080-0.104-0.088l-0.001-0c-0.006-0.001-0.012-0.001-0.019-0.001-0.044 0-0.083 0.023-0.106 0.057l-0 0c-0.118 0.166-0.237 0.312-0.365 0.449l0.002-0.003-0.037-0.577c-0.004-0.067-0.060-0.12-0.128-0.12-0.022 0-0.043 0.006-0.061 0.016l0.001-0-0.265 0.137c0.151-0.236 0.24-0.524 0.24-0.832 0-0.055-0.003-0.109-0.008-0.163l0.001 0.007c-0.030-0.065-0.084-0.114-0.149-0.139l-0.002-0.001h-0.053c-0.033-0.008-0.070-0.013-0.109-0.013-0.095 0-0.183 0.028-0.256 0.077l0.002-0.001c-0.064 0.048-0.114 0.111-0.148 0.183l-0.001 0.003c-0.097-0.095-0.175-0.209-0.23-0.335l-0.003-0.007c-0.021-0.044-0.065-0.075-0.116-0.075s-0.096 0.030-0.116 0.074l-0 0.001zM26.564 12.469c0.527 0.231 1.141 0.368 1.785 0.377l0.003 0c0.112 0.14 0.233 0.272 0.309 0.377-0.217 0.003-0.427 0.021-0.632 0.054l0.025-0.003 0.030-0.037c0.018-0.022 0.029-0.051 0.029-0.082 0-0.069-0.054-0.125-0.121-0.13l-0-0c-0.683-0.060-1.311-0.187-1.913-0.375l0.064 0.017c-0.144-0.042-0.233-0.116-0.233-0.207-0.001-0.006-0.001-0.013-0.001-0.020 0-0.050 0.023-0.094 0.059-0.122l0-0c0.128-0.067 0.421 0.074 0.591 0.158zM27.783 12.541c0.028-0.019 0.048-0.049 0.053-0.083l0-0.001 0.037-0.233c0.079 0.112 0.172 0.233 0.27 0.363-0.105-0.009-0.233-0.021-0.365-0.040zM27.55 12.504l-0.193-0.040c0.002-0.008 0.003-0.017 0.003-0.027 0-0.021-0.006-0.040-0.015-0.057l0 0.001v-0.023c0.061 0.054 0.128 0.105 0.198 0.15l0.006 0.004zM29.253 11.095c-0.036 0.042-0.089 0.069-0.148 0.069-0.107 0-0.193-0.086-0.193-0.193 0-0.013 0.001-0.025 0.004-0.037l-0 0.001c0.005-0.058 0.040-0.106 0.090-0.13l0.001-0h0.037c0.094 0.011 0.179 0.039 0.255 0.081l-0.004-0.002c0.013 0.024 0.021 0.053 0.021 0.084 0 0.054-0.024 0.102-0.063 0.135l-0 0zM34.161 13.027c0.018 0.010 0.040 0.016 0.063 0.016s0.045-0.006 0.063-0.016l-0.001 0c0.039-0.018 0.067-0.055 0.072-0.099l0-0.001c0.021-0.161 0.060-0.261 0.119-0.295 0.102-0.060 0.351 0.033 0.64 0.142 0.214 0.089 0.482 0.179 0.757 0.252l0.048 0.011c0.301 0.049 0.648 0.077 1.001 0.077 0.572 0 1.126-0.073 1.655-0.21l-0.046 0.010c0.286-0.051 0.561-0.1 0.814-0.133 0.073-0.016 0.157-0.026 0.243-0.026 0.404 0 0.76 0.206 0.969 0.519l0.003 0.004c0.102 0.258-0.056 0.558-0.444 0.842-1.079 0.784-6.247 0.435-6.775 0.398-0.125-0.161-0.203-0.364-0.209-0.585l-0-0.001 0.149 0.042h0.026c0 0 0.001 0 0.001 0 0.039 0 0.073-0.017 0.097-0.044l0-0c0.020-0.022 0.032-0.052 0.032-0.084 0-0.017-0.003-0.033-0.009-0.047l0 0.001c-0.071-0.243-0.121-0.527-0.141-0.82l-0.001-0.013c0.011 0.003 0.024 0.005 0.037 0.005 0.023 0 0.045-0.006 0.064-0.017l-0.001 0c0.033-0.020 0.056-0.055 0.060-0.095l0-0.001c0.044-0.214 0.069-0.46 0.069-0.711 0-0.548-0.119-1.069-0.332-1.538l0.010 0.023c0.035-0.026 0.066-0.054 0.095-0.084l0-0c0.028 0.493 0.217 0.936 0.514 1.285l-0.003-0.003c-0.058 0.118-0.092 0.256-0.092 0.403 0 0.338 0.181 0.634 0.45 0.797l0.004 0.002z"></path>
<path fill="#ffd250" d="M21.215 6.387c-0.051-1.040-0.298-2.721-1.086-2.761-0.020-0.002-0.043-0.003-0.067-0.003-0.24 0-0.457 0.103-0.607 0.267l-0.001 0.001c-0.024 0.031-0.061 0.051-0.102 0.051-0.002 0-0.005-0-0.007-0h0l-0.302-0.019 0.053 0.2c0.003 0.011 0.005 0.023 0.005 0.036 0 0.039-0.017 0.073-0.044 0.097l-0 0c-0.16 0.129-0.261 0.325-0.261 0.544 0 0.115 0.028 0.223 0.077 0.318l-0.002-0.004c0.198 0.358 0.837 0.53 1.302 0.654 0.195 0.044 0.363 0.099 0.524 0.168l-0.020-0.008c0.215 0.115 0.394 0.269 0.534 0.454l0.003 0.004z"></path>
<path fill="#464655" d="M20.14 3.37c-0.023-0.002-0.050-0.003-0.078-0.003-0.298 0-0.568 0.12-0.764 0.315l0-0-0.419-0.026c-0.001-0-0.003-0-0.004-0-0.042 0-0.079 0.018-0.105 0.046l-0 0c-0.018 0.022-0.028 0.050-0.028 0.081 0 0.013 0.002 0.025 0.005 0.036l-0-0.001 0.079 0.298c-0.181 0.17-0.294 0.411-0.294 0.678 0 0.162 0.042 0.315 0.115 0.448l-0.002-0.005c0.249 0.465 0.951 0.644 1.461 0.779 0.18 0.040 0.335 0.089 0.484 0.151l-0.019-0.007c0.296 0.175 0.528 0.431 0.668 0.739l0.004 0.010c0.021 0.044 0.065 0.074 0.116 0.074h0.028c0.059-0.011 0.102-0.062 0.102-0.123v0c-0.007-0.144 0.012-3.421-1.349-3.491zM20.173 5.768c-0.465-0.126-1.105-0.295-1.302-0.654-0.048-0.092-0.075-0.2-0.075-0.316 0-0.219 0.101-0.414 0.258-0.542l0.001-0.001c0.029-0.023 0.047-0.058 0.047-0.098 0-0.012-0.002-0.024-0.005-0.036l0 0.001-0.053-0.2 0.302 0.019c0.002 0 0.004 0 0.007 0 0.042 0 0.079-0.020 0.102-0.051l0-0c0.151-0.165 0.367-0.268 0.607-0.268 0.023 0 0.046 0.001 0.069 0.003l-0.003-0c0.791 0.040 1.037 1.721 1.086 2.761-0.141-0.193-0.32-0.349-0.527-0.461l-0.008-0.004c-0.142-0.060-0.31-0.114-0.485-0.152l-0.020-0.004z"></path>
<path fill="#ffd250" d="M42.797 6.387c0.049-1.040 0.295-2.721 1.086-2.761 0.020-0.002 0.042-0.003 0.066-0.003 0.24 0 0.456 0.103 0.606 0.267l0.001 0.001c0.024 0.031 0.061 0.051 0.104 0.051 0.002 0 0.004-0 0.006-0h-0l0.302-0.019-0.053 0.2c-0.003 0.010-0.005 0.022-0.005 0.035 0 0.039 0.018 0.075 0.047 0.098l0 0c0.159 0.129 0.259 0.324 0.259 0.543 0 0.115-0.028 0.224-0.077 0.319l0.002-0.004c-0.198 0.358-0.835 0.53-1.303 0.654-0.195 0.045-0.364 0.1-0.525 0.168l0.020-0.008c-0.214 0.114-0.393 0.268-0.532 0.454l-0.003 0.004z"></path>
<path fill="#464655" d="M42.522 6.857c0.002 0.060 0.045 0.11 0.101 0.123l0.001 0h0.028c0 0 0 0 0 0 0.051 0 0.095-0.030 0.116-0.074l0-0.001c0.144-0.318 0.376-0.574 0.665-0.745l0.008-0.004c0.129-0.053 0.284-0.103 0.444-0.14l0.021-0.004c0.512-0.135 1.212-0.321 1.463-0.779 0.070-0.128 0.111-0.28 0.111-0.441 0-0.268-0.113-0.509-0.295-0.679l-0.001-0 0.079-0.298c0.003-0.011 0.005-0.023 0.005-0.035 0-0.031-0.011-0.059-0.028-0.081l0 0c-0.026-0.029-0.063-0.047-0.105-0.047-0.001 0-0.003 0-0.004 0h0l-0.419 0.026c-0.196-0.194-0.466-0.314-0.764-0.314-0.027 0-0.054 0.001-0.081 0.003l0.004-0c-1.365 0.074-1.349 3.352-1.349 3.491zM43.327 5.926c-0.215 0.116-0.394 0.272-0.532 0.461l-0.003 0.004c0.049-1.040 0.295-2.721 1.086-2.761 0.020-0.002 0.042-0.003 0.066-0.003 0.24 0 0.456 0.103 0.606 0.267l0.001 0.001c0.024 0.031 0.061 0.051 0.104 0.051 0.002 0 0.004-0 0.006-0h-0l0.302-0.019-0.053 0.2c-0.003 0.010-0.005 0.022-0.005 0.035 0 0.039 0.018 0.075 0.047 0.098l0 0c0.159 0.129 0.259 0.324 0.259 0.543 0 0.115-0.028 0.224-0.077 0.319l0.002-0.004c-0.198 0.358-0.835 0.528-1.303 0.654-0.195 0.043-0.364 0.097-0.525 0.163l0.021-0.008z"></path>
<path fill="#ffd250" d="M42.797 25.613c0.049 1.040 0.295 2.721 1.086 2.761 0.020 0.002 0.042 0.003 0.066 0.003 0.24 0 0.456-0.103 0.606-0.267l0.001-0.001c0.024-0.031 0.061-0.051 0.104-0.051 0.002 0 0.004 0 0.006 0h-0l0.302 0.019-0.053-0.2c-0.003-0.010-0.005-0.022-0.005-0.035 0-0.039 0.018-0.075 0.047-0.098l0-0c0.159-0.129 0.259-0.324 0.259-0.543 0-0.115-0.028-0.224-0.077-0.319l0.002 0.004c-0.198-0.358-0.835-0.53-1.303-0.654-0.195-0.045-0.364-0.1-0.525-0.168l0.020 0.008c-0.214-0.114-0.393-0.268-0.532-0.454l-0.003-0.004z"></path>
<path fill="#464655" d="M43.864 28.63c0.023 0.002 0.049 0.003 0.076 0.003 0.299 0 0.57-0.12 0.768-0.314l-0 0 0.416 0.026c0.001 0 0.003 0 0.004 0 0.042 0 0.079-0.018 0.105-0.046l0-0c0.018-0.022 0.028-0.050 0.028-0.081 0-0.013-0.002-0.025-0.005-0.036l0 0.001-0.079-0.298c0.182-0.17 0.295-0.412 0.295-0.68 0-0.162-0.041-0.314-0.114-0.446l0.002 0.005c-0.251-0.465-0.951-0.644-1.463-0.779-0.18-0.040-0.335-0.089-0.484-0.151l0.019 0.007c-0.296-0.175-0.528-0.431-0.668-0.739l-0.004-0.010c-0.021-0.044-0.065-0.074-0.116-0.074-0 0-0 0-0 0h-0.028c-0.058 0.013-0.1 0.063-0.102 0.123v0c0.007 0.144-0.009 3.421 1.349 3.491zM43.832 26.232c0.465 0.126 1.105 0.295 1.303 0.654 0.048 0.092 0.075 0.2 0.075 0.316 0 0.219-0.101 0.414-0.258 0.542l-0.001 0.001c-0.029 0.023-0.047 0.058-0.047 0.098 0 0.012 0.002 0.024 0.005 0.036l-0-0.001 0.053 0.2-0.302-0.019c-0.002-0-0.004-0-0.006-0-0.042 0-0.080 0.020-0.103 0.051l-0 0c-0.151 0.165-0.367 0.268-0.607 0.268-0.023 0-0.046-0.001-0.069-0.003l0.003 0c-0.791-0.040-1.037-1.721-1.086-2.761 0.142 0.192 0.32 0.349 0.527 0.461l0.008 0.004c0.141 0.059 0.31 0.113 0.484 0.152l0.021 0.004z"></path>
<path fill="#ffd250" d="M21.215 25.613c-0.051 1.040-0.298 2.721-1.086 2.761-0.020 0.002-0.043 0.003-0.067 0.003-0.24 0-0.457-0.103-0.607-0.267l-0.001-0.001c-0.024-0.031-0.061-0.051-0.102-0.051-0.002 0-0.005 0-0.007 0h0l-0.302 0.019 0.053-0.2c0.003-0.011 0.005-0.023 0.005-0.036 0-0.039-0.017-0.073-0.044-0.097l-0-0c-0.16-0.129-0.261-0.325-0.261-0.544 0-0.115 0.028-0.223 0.077-0.318l-0.002 0.004c0.198-0.358 0.837-0.53 1.302-0.654 0.195-0.044 0.363-0.099 0.524-0.168l-0.020 0.008c0.215-0.115 0.394-0.269 0.534-0.454l0.003-0.004z"></path>
<path fill="#464655" d="M21.482 25.143c-0-0.061-0.044-0.112-0.102-0.123l-0.001-0h-0.028c-0.051 0.001-0.095 0.030-0.116 0.074l-0 0.001c-0.144 0.318-0.376 0.574-0.665 0.745l-0.008 0.004c-0.129 0.053-0.284 0.103-0.444 0.14l-0.021 0.004c-0.509 0.135-1.212 0.321-1.461 0.779-0.071 0.128-0.112 0.281-0.112 0.443 0 0.267 0.113 0.508 0.293 0.678l0 0-0.079 0.298c-0.003 0.011-0.005 0.023-0.005 0.035 0 0.031 0.011 0.059 0.028 0.081l-0-0c0.026 0.029 0.064 0.047 0.105 0.047 0.001 0 0.003-0 0.004-0h-0l0.419-0.026c0.196 0.194 0.466 0.314 0.764 0.314 0.027 0 0.054-0.001 0.081-0.003l-0.004 0c1.368-0.074 1.349-3.352 1.349-3.491zM20.677 26.074c0.215-0.116 0.394-0.273 0.532-0.461l0.003-0.004c-0.049 1.040-0.295 2.721-1.086 2.761-0.020 0.002-0.042 0.003-0.066 0.003-0.24 0-0.456-0.103-0.606-0.267l-0.001-0.001c-0.024-0.031-0.061-0.051-0.102-0.051-0.002 0-0.005 0-0.007 0h0l-0.302 0.019 0.053-0.2c0.003-0.011 0.005-0.023 0.005-0.036 0-0.039-0.017-0.073-0.044-0.097l-0-0c-0.16-0.129-0.261-0.325-0.261-0.544 0-0.115 0.028-0.223 0.077-0.318l-0.002 0.004c0.198-0.358 0.837-0.528 1.302-0.654 0.194-0.042 0.363-0.096 0.525-0.163l-0.020 0.007z"></path>
</svg>
