<!-- Generated by IcoMoon.io -->
<svg version="1.1" xmlns="http://www.w3.org/2000/svg" width="49" height="32" viewBox="0 0 49 32">
<title>mk</title>
<path fill="#ff4b55" d="M47.995 31.998h-47.151c0 0 0 0 0 0-0.465 0-0.843-0.377-0.844-0.842v-30.314c0.001-0.465 0.379-0.842 0.844-0.842 0 0 0 0 0 0h47.151c0.465 0 0.842 0.377 0.842 0.842v0 30.314c0 0.465-0.377 0.842-0.842 0.842v0z"></path>
<path fill="#ffe15a" d="M21.533 12.949v0l-12.267-12.949h-8.419c-0.205 0.004-0.39 0.081-0.534 0.205l0.001-0.001 20.591 13.488c0.186-0.281 0.393-0.525 0.626-0.742l0.002-0.002z"></path>
<path fill="#ffe15a" d="M20.253 16.43c-0.028-0.13-0.044-0.279-0.044-0.431s0.016-0.302 0.047-0.445l-0.003 0.014-20.253-2.093v5.053l20.253-2.093z"></path>
<path fill="#ffe15a" d="M23.765 11.854c0.197-0.041 0.423-0.065 0.655-0.065s0.458 0.024 0.676 0.069l-0.021-0.004 1.86-11.86h-5.053l1.86 11.86z"></path>
<path fill="#ffe15a" d="M27.937 13.695l20.591-13.488c-0.142-0.124-0.328-0.201-0.532-0.205h-8.419l-12.267 12.949c0.234 0.22 0.441 0.463 0.618 0.729l0.009 0.015z"></path>
<path fill="#ffe15a" d="M27.307 19.049v0l12.267 12.949h8.419c0.205-0.003 0.391-0.080 0.533-0.205l-0.001 0.001-20.591-13.488c-0.186 0.281-0.393 0.525-0.626 0.742l-0.002 0.002z"></path>
<path fill="#ffe15a" d="M28.586 15.567v0c0.028 0.13 0.044 0.279 0.044 0.431s-0.016 0.302-0.047 0.445l0.003-0.014 20.251 2.093v-5.053z"></path>
<path fill="#ffe15a" d="M25.074 20.144c-0.197 0.041-0.423 0.065-0.655 0.065s-0.458-0.024-0.676-0.069l0.021 0.004-1.86 11.86h5.053l-1.86-11.86z"></path>
<path fill="#ffe15a" d="M20.902 18.302l-20.591 13.488c0.142 0.125 0.328 0.202 0.532 0.205h8.419l12.267-12.949c-0.234-0.22-0.441-0.463-0.618-0.729l-0.009-0.015z"></path>
<path fill="#ffe15a" d="M27.786 15.998c0 1.86-1.508 3.367-3.367 3.367s-3.367-1.508-3.367-3.367c0-1.86 1.508-3.367 3.367-3.367s3.367 1.508 3.367 3.367z"></path>
</svg>
