<!-- Generated by IcoMoon.io -->
<svg version="1.1" xmlns="http://www.w3.org/2000/svg" width="49" height="32" viewBox="0 0 49 32">
<title>pt</title>
<path fill="#ff4b55" d="M47.995 31.998h-47.151c0 0 0 0 0 0-0.465 0-0.843-0.377-0.844-0.842v-30.314c0.001-0.465 0.379-0.842 0.844-0.842 0 0 0 0 0 0h47.151c0.465 0 0.842 0.377 0.842 0.842v0 30.314c0 0.465-0.377 0.842-0.842 0.842v0z"></path>
<path fill="#73af00" d="M17.674 0h-16.84c0 0 0 0 0 0-0.465 0-0.843 0.377-0.844 0.842v30.314c0.001 0.465 0.379 0.842 0.844 0.842 0 0 0 0 0 0h16.84v-31.998z"></path>
<path fill="#ffe15a" d="M25.263 16c0 4.182-3.39 7.572-7.572 7.572s-7.572-3.39-7.572-7.572c0-4.182 3.39-7.572 7.572-7.572s7.572 3.39 7.572 7.572z"></path>
<path fill="#ff4b55" d="M20.216 13.472v3.37c0 1.395-1.131 2.526-2.526 2.526s-2.526-1.131-2.526-2.526v-3.37h5.051zM21.058 11.788h-6.744c-0.464 0.001-0.841 0.377-0.842 0.842v4.212c0.055 2.283 1.919 4.113 4.21 4.113s4.155-1.83 4.21-4.108l0-0.005v-4.212c0-0.465-0.377-0.842-0.842-0.842v0z"></path>
<path fill="#f5f5f5" d="M20.216 13.472v3.37c0 1.395-1.131 2.526-2.526 2.526s-2.526-1.131-2.526-2.526v-3.37h5.051z"></path>
<path fill="#ffe15a" d="M14.737 12.63c0 0.232-0.188 0.421-0.421 0.421s-0.421-0.188-0.421-0.421c0-0.232 0.188-0.421 0.421-0.421s0.421 0.188 0.421 0.421z"></path>
<path fill="#ffe15a" d="M21.472 12.63c0 0.232-0.188 0.421-0.421 0.421s-0.421-0.188-0.421-0.421c0-0.232 0.188-0.421 0.421-0.421s0.421 0.188 0.421 0.421z"></path>
<path fill="#ffe15a" d="M14.737 15.998c0 0.232-0.188 0.421-0.421 0.421s-0.421-0.188-0.421-0.421c0-0.232 0.188-0.421 0.421-0.421s0.421 0.188 0.421 0.421z"></path>
<path fill="#ffe15a" d="M21.472 15.998c0 0.232-0.188 0.421-0.421 0.421s-0.421-0.188-0.421-0.421c0-0.232 0.188-0.421 0.421-0.421s0.421 0.188 0.421 0.421z"></path>
<path fill="#ffe15a" d="M18.105 12.63c0 0.232-0.188 0.421-0.421 0.421s-0.421-0.188-0.421-0.421c0-0.232 0.188-0.421 0.421-0.421s0.421 0.188 0.421 0.421z"></path>
<path fill="#ffe15a" d="M20.633 19.105c0 0.232-0.188 0.421-0.421 0.421s-0.421-0.188-0.421-0.421c0-0.232 0.188-0.421 0.421-0.421s0.421 0.188 0.421 0.421z"></path>
<path fill="#ffe15a" d="M15.626 19.105c0 0.232-0.188 0.421-0.421 0.421s-0.421-0.188-0.421-0.421c0-0.232 0.188-0.421 0.421-0.421s0.421 0.188 0.421 0.421z"></path>
<path fill="#41479b" d="M18.235 15.786v0.726c0 0.301-0.244 0.544-0.544 0.544s-0.544-0.244-0.544-0.544v0-0.726h1.088z"></path>
<path fill="#41479b" d="M18.235 14.067v0.723c0 0.301-0.244 0.544-0.544 0.544s-0.544-0.244-0.544-0.544v0-0.723h1.088z"></path>
<path fill="#41479b" d="M18.235 17.521v0.726c0 0.301-0.244 0.544-0.544 0.544s-0.544-0.244-0.544-0.544v0-0.726h1.088z"></path>
<path fill="#41479b" d="M19.698 15.786v0.726c0 0.3-0.243 0.543-0.543 0.543s-0.543-0.243-0.543-0.543v0-0.726h1.086z"></path>
<path fill="#41479b" d="M16.77 15.786v0.726c0 0.301-0.244 0.544-0.544 0.544s-0.544-0.244-0.544-0.544v0-0.726h1.088z"></path>
</svg>
