<!-- Generated by IcoMoon.io -->
<svg version="1.1" xmlns="http://www.w3.org/2000/svg" width="49" height="32" viewBox="0 0 49 32">
<title>rs</title>
<path fill="#f5f5f5" d="M0 21.333h48.844v9.825c0 0.465-0.377 0.842-0.842 0.842v0h-47.158c0 0 0 0 0 0-0.465 0-0.843-0.377-0.844-0.842v-0z"></path>
<path fill="#ff4b55" d="M0.844 0h47.158c0.465 0 0.842 0.377 0.842 0.842v0 9.825h-48.844v-9.825c0.001-0.465 0.379-0.842 0.844-0.842 0 0 0 0 0 0v0z"></path>
<path fill="#41479b" d="M0 10.667h48.844v10.667h-48.844v-10.667z"></path>
<path fill="#ffe15a" d="M16.514 10.664h-6.071l-0.254-1.517h6.568z"></path>
<path fill="#ffd350" d="M10.381 10.285l0.063 0.379h6.071l0.063-0.379z"></path>
<path fill="#ffe15a" d="M13.348 5.61h0.254v1.009h-0.254v-1.009z"></path>
<path fill="#ffe15a" d="M13.097 5.864h0.758v0.254h-0.758v-0.254z"></path>
<path fill="#ffe15a" d="M16.528 9.653c-0.032-0-0.062-0.005-0.090-0.015l0.002 0.001c-0.098-0.037-0.166-0.129-0.166-0.238 0-0.031 0.005-0.060 0.015-0.087l-0.001 0.002 0.535-1.477c0.012-0.030 0.020-0.064 0.020-0.1 0-0.049-0.013-0.095-0.037-0.134l0.001 0.001c-0.032-0.059-0.086-0.103-0.152-0.118l-0.002-0c-0.907-0.21-1.958-0.344-3.035-0.372l-0.021-0h-0.233c-1.097 0.028-2.148 0.162-3.161 0.393l0.107-0.021c-0.068 0.015-0.124 0.059-0.155 0.117l-0.001 0.001c-0.023 0.038-0.036 0.084-0.036 0.133 0 0.036 0.007 0.070 0.020 0.102l-0.001-0.002 0.535 1.477c0.003 0.015 0.005 0.031 0.005 0.049 0 0.139-0.112 0.251-0.251 0.251-0.093 0-0.175-0.051-0.218-0.126l-0.001-0.001-0.537-1.477c-0.029-0.078-0.046-0.169-0.046-0.263 0-0.138 0.036-0.268 0.099-0.38l-0.002 0.004c0.103-0.184 0.278-0.318 0.486-0.364l0.005-0.001c0.939-0.218 2.026-0.357 3.141-0.383l0.020-0h0.233c1.134 0.027 2.222 0.165 3.27 0.405l-0.11-0.021c0.213 0.047 0.388 0.181 0.489 0.361l0.002 0.004c0.061 0.109 0.097 0.238 0.097 0.376 0 0.094-0.017 0.185-0.048 0.269l0.002-0.005-0.535 1.477c-0.037 0.097-0.129 0.165-0.238 0.165-0.003 0-0.006-0-0.009-0h0z"></path>
<path fill="#ffe15a" d="M13.476 9.432c-0.001 0-0.002 0-0.002 0-0.139 0-0.251-0.112-0.251-0.251 0 0 0 0 0 0v0-2.054c0-0.14 0.114-0.254 0.254-0.254s0.254 0.114 0.254 0.254v0 2.054c0 0 0 0 0 0 0 0.139-0.112 0.251-0.251 0.251-0.001 0-0.002 0-0.002 0h0z"></path>
<path fill="#ffe15a" d="M15.223 9.653h-0.051c-0.116-0.023-0.203-0.125-0.203-0.247 0-0.018 0.002-0.036 0.006-0.053l-0 0.002 0.307-1.477c0.010-0.038 0.016-0.081 0.016-0.126 0-0.098-0.027-0.189-0.075-0.267l0.001 0.002c-0.494-0.198-1.066-0.326-1.664-0.355l-0.013-0h-0.14c-0.617 0.031-1.194 0.161-1.729 0.376l0.036-0.013c-0.037 0.074-0.059 0.162-0.059 0.255 0 0.046 0.005 0.090 0.015 0.133l-0.001-0.004 0.307 1.477c0.002 0.010 0.002 0.022 0.002 0.034 0 0.14-0.114 0.254-0.254 0.254-0.116 0-0.213-0.078-0.244-0.184l-0-0.002-0.307-1.477c-0.022-0.072-0.035-0.155-0.035-0.241 0-0.302 0.157-0.567 0.394-0.717l0.003-0.002c0.549-0.223 1.184-0.364 1.849-0.393l0.012-0h0.142c0.676 0.028 1.312 0.17 1.899 0.407l-0.038-0.014c0.242 0.152 0.4 0.417 0.4 0.719 0 0.086-0.013 0.169-0.037 0.247l0.002-0.006-0.307 1.477c-0.026 0.109-0.12 0.19-0.234 0.195l-0.001 0z"></path>
<path fill="#ffd350" d="M10.255 9.527h6.443l0.063-0.379h-6.568z"></path>
<path fill="#ff4b55" d="M8.676 10.664c-0.14 0-0.254 0.114-0.254 0.254v8.822c-0.001 0.032-0.001 0.070-0.001 0.108 0 2.791 2.263 5.054 5.054 5.054s5.054-2.263 5.054-5.054c0-0.038-0-0.076-0.001-0.114l0 0.006v-8.822c0-0.14-0.113-0.254-0.254-0.254v0z"></path>
<path fill="#f5f5f5" d="M13.981 19.003l0.505-1.265-1.009 0.254-1.012-0.254 0.505 1.265-1.263 4.294c0.502 0.317 1.114 0.505 1.769 0.505s1.266-0.188 1.783-0.513l-0.014 0.008z"></path>
<path fill="#ffe15a" d="M11.646 20.019l-0.447 0.112 0.982-1.765-0.442-0.244-1.191 2.145h-1.114v0.505h0.542l-0.698 0.561 0.316 0.395 0.595-0.465-0.233 0.698 0.479 0.16 0.465-1.396 0.877-0.219z"></path>
<path fill="#f5f5f5" d="M11.706 13.19l-1.163-0.577c-0.166-0.084-0.279-0.254-0.279-0.45 0-0.044 0.006-0.087 0.017-0.128l-0.001 0.004 0.065-0.261c0.006-0.022 0.010-0.047 0.010-0.073 0-0.158-0.128-0.286-0.286-0.286-0.092 0-0.173 0.043-0.225 0.11l-0 0.001c-0.578 0.715-0.928 1.634-0.93 2.635v5.35c0.857-0.28 1.556-0.845 2.001-1.582l0.009-0.016c0.174-0.245 0.452-0.407 0.768-0.421l0.002-0-0.505 1.512 1.009 0.254 0.886-1.051z"></path>
<path fill="#ffe15a" d="M15.305 20.019l0.447 0.112-0.982-1.765 0.442-0.244 1.191 2.145h1.114v0.505h-0.537l0.698 0.561-0.316 0.395-0.595-0.465 0.233 0.698-0.479 0.16-0.465-1.396-0.877-0.219z"></path>
<path fill="#f5f5f5" d="M15.244 13.19l1.163-0.577c0.166-0.084 0.279-0.254 0.279-0.45 0-0.044-0.006-0.087-0.017-0.128l0.001 0.004-0.065-0.261c-0.006-0.022-0.010-0.047-0.010-0.073 0-0.158 0.128-0.286 0.286-0.286 0.092 0 0.173 0.043 0.225 0.11l0 0.001c0.579 0.714 0.929 1.634 0.93 2.635v5.35c-0.857-0.28-1.556-0.845-2-1.582l-0.009-0.016c-0.174-0.245-0.452-0.407-0.768-0.421l-0.002-0 0.505 1.512-1.009 0.254-0.884-1.051z"></path>
<path fill="#ffe15a" d="M11.96 11.423h-1.261l0.379 0.505 0.884 0.254-0.505 0.254h0.758z"></path>
<path fill="#ffe15a" d="M14.991 11.423h1.263l-0.379 0.505-0.884 0.254 0.505 0.254h-0.758z"></path>
<path fill="#f5f5f5" d="M15.17 11.225l-1.189 0.198-0.505 1.009-0.507-1.009-1.189-0.198c-0.007-0.001-0.014-0.001-0.022-0.001-0.094 0-0.17 0.076-0.17 0.17 0 0.023 0.005 0.045 0.013 0.065l-0-0.001 0.609 1.219-0.505 0.505h3.538l-0.505-0.505 0.609-1.219c0.008-0.019 0.013-0.041 0.013-0.064 0-0.094-0.076-0.17-0.17-0.17-0.008 0-0.015 0.001-0.023 0.002l0.001-0z"></path>
<path fill="#ffbe50" d="M13.855 9.259c0 0.209-0.17 0.379-0.379 0.379s-0.379-0.17-0.379-0.379c0-0.209 0.17-0.379 0.379-0.379s0.379 0.17 0.379 0.379z"></path>
<path fill="#41479b" d="M13.772 10.164c0 0.117-0.134 0.212-0.3 0.212s-0.3-0.095-0.3-0.212c0-0.117 0.134-0.212 0.3-0.212s0.3 0.095 0.3 0.212z"></path>
<path fill="#ff4b55" d="M12.276 10.164c0 0.117-0.134 0.212-0.3 0.212s-0.3-0.095-0.3-0.212c0-0.117 0.134-0.212 0.3-0.212s0.3 0.095 0.3 0.212z"></path>
<path fill="#41479b" d="M10.781 10.164c0 0.117-0.134 0.212-0.3 0.212s-0.3-0.095-0.3-0.212c0-0.117 0.134-0.212 0.3-0.212s0.3 0.095 0.3 0.212z"></path>
<path fill="#41479b" d="M16.761 10.164c0 0.117-0.134 0.212-0.3 0.212s-0.3-0.095-0.3-0.212c0-0.117 0.134-0.212 0.3-0.212s0.3 0.095 0.3 0.212z"></path>
<path fill="#ff4b55" d="M15.265 10.164c0 0.117-0.134 0.212-0.3 0.212s-0.3-0.095-0.3-0.212c0-0.117 0.134-0.212 0.3-0.212s0.3 0.095 0.3 0.212z"></path>
<path fill="#ffbe50" d="M15.612 9.259c0 0.209-0.17 0.379-0.379 0.379s-0.379-0.17-0.379-0.379c0-0.209 0.17-0.379 0.379-0.379s0.379 0.17 0.379 0.379z"></path>
<path fill="#ffbe50" d="M16.995 9.259c0 0.209-0.17 0.379-0.379 0.379s-0.379-0.17-0.379-0.379c0-0.209 0.17-0.379 0.379-0.379s0.379 0.17 0.379 0.379z"></path>
<path fill="#ffbe50" d="M12.102 9.259c0 0.209-0.17 0.379-0.379 0.379s-0.379-0.17-0.379-0.379c0-0.209 0.17-0.379 0.379-0.379s0.379 0.17 0.379 0.379z"></path>
<path fill="#ffbe50" d="M10.716 9.259c0 0.209-0.17 0.379-0.379 0.379s-0.379-0.17-0.379-0.379c0-0.209 0.17-0.379 0.379-0.379s0.379 0.17 0.379 0.379z"></path>
<path fill="#41479b" d="M13.911 7.127c0.043-0.072 0.068-0.158 0.070-0.251v-0c0-0.279-0.226-0.506-0.506-0.506s-0.506 0.226-0.506 0.506v0c0.001 0.093 0.027 0.179 0.071 0.254l-0.001-0.002z"></path>
<path fill="#ff4b55" d="M13.476 18.37c-1.047 0-1.896-0.849-1.896-1.896v0-3.41h3.789v3.401c0 0.003 0 0.006 0 0.009 0 1.046-0.847 1.894-1.893 1.896h-0z"></path>
<path fill="#a54b50" d="M15.244 13.19v3.275c0 0.977-0.792 1.769-1.769 1.769s-1.769-0.792-1.769-1.769v0-3.284h3.538zM15.498 12.93h-4.042v3.535c0 1.116 0.905 2.021 2.021 2.021s2.021-0.905 2.021-2.021v0-3.535z"></path>
<path fill="#f5f5f5" d="M13.097 18.203c0.114 0.026 0.244 0.041 0.379 0.042h0.001c0.134-0.001 0.264-0.016 0.389-0.044l-0.012 0.002v-5.012h-0.756z"></path>
<path fill="#f5f5f5" d="M11.706 15.274h3.538v0.758h-3.538v-0.758z"></path>
</svg>
