<!-- Generated by IcoMoon.io -->
<svg version="1.1" xmlns="http://www.w3.org/2000/svg" width="48" height="32" viewBox="0 0 48 32">
<title>sg</title>
<path fill="#f0f0f0" d="M0 0h48v32h-48v-32z"></path>
<path fill="#d80027" d="M0 0h48v16h-48v-16z"></path>
<path fill="#f0f0f0" d="M7.826 8c0-2.32 1.622-4.26 3.794-4.75l0.033-0.006c-0.312-0.071-0.67-0.112-1.038-0.112-2.689 0-4.869 2.18-4.869 4.869s2.18 4.869 4.869 4.869c0.368 0 0.726-0.041 1.071-0.118l-0.033 0.006c-2.204-0.496-3.826-2.437-3.826-4.757v-0z"></path>
<path fill="#f0f0f0" d="M14.087 3.479l0.345 1.063h1.118l-0.914 0.656 0.345 1.063-0.914-0.656-0.914 0.656 0.345-1.063-0.914-0.656h1.118z"></path>
<path fill="#f0f0f0" d="M11.376 5.566l0.345 1.063h1.118l-0.914 0.656 0.345 1.063-0.914-0.656-0.914 0.656 0.345-1.063-0.914-0.656h1.118z"></path>
<path fill="#f0f0f0" d="M16.798 5.566l0.345 1.063h1.118l-0.914 0.656 0.345 1.063-0.914-0.656-0.914 0.656 0.345-1.063-0.914-0.656h1.118z"></path>
<path fill="#f0f0f0" d="M15.755 8.686l0.345 1.063h1.118l-0.914 0.656 0.345 1.063-0.914-0.656-0.914 0.656 0.345-1.063-0.914-0.656h1.118z"></path>
<path fill="#f0f0f0" d="M12.421 8.686l0.345 1.063h1.118l-0.914 0.656 0.345 1.063-0.914-0.656-0.914 0.656 0.345-1.063-0.914-0.656h1.118z"></path>
</svg>
