<!-- Generated by IcoMoon.io -->
<svg version="1.1" xmlns="http://www.w3.org/2000/svg" width="48" height="32" viewBox="0 0 48 32">
<title>sk</title>
<path fill="#f0f0f0" d="M0 0h48v32h-48v-32z"></path>
<path fill="#0052b4" d="M0 10.434h48v11.129h-48v-11.129z"></path>
<path fill="#d80027" d="M0 21.566h48v10.434h-48v-10.434z"></path>
<path fill="#f0f0f0" d="M12.137 9.045v7.982c0 4.539 5.943 5.929 5.943 5.929s5.943-1.39 5.943-5.929v-7.982z"></path>
<path fill="#d80027" d="M13.698 9.278v7.682c0 0.003-0 0.007-0 0.011 0 0.525 0.126 1.021 0.349 1.459l-0.008-0.018h8.059c0.215-0.42 0.341-0.916 0.341-1.441 0-0.004 0-0.007-0-0.011v0.001-7.682z"></path>
<path fill="#f0f0f0" d="M20.747 14.629h-2.005v-1.339h1.339v-1.339h-1.339v-1.339h-1.339v1.339h-1.339v1.339h1.339v1.339h-2.009v1.339h2.009v1.339h1.339v-1.339h2.009z"></path>
<path fill="#0052b4" d="M15.865 20.281c0.54 0.612 1.327 0.996 2.203 0.996s1.663-0.384 2.201-0.993l0.003-0.003c0.774-0.449 1.395-1.084 1.816-1.845l0.012-0.025c-0.375-0.269-0.844-0.43-1.35-0.43-0 0-0 0-0.001 0h0c-0.001 0-0.003 0-0.005 0-0.187 0-0.369 0.023-0.543 0.065l0.016-0.003c-0.372-0.832-1.192-1.401-2.145-1.401s-1.773 0.569-2.139 1.386l-0.006 0.015c-0.158-0.039-0.34-0.062-0.528-0.062-0.002 0-0.004 0-0.005 0h0c-0.001 0-0.002 0-0.003 0-0.506 0-0.975 0.161-1.357 0.435l0.007-0.005c0.433 0.785 1.053 1.419 1.801 1.857l0.023 0.012z"></path>
</svg>
