<!-- Generated by IcoMoon.io -->
<svg version="1.1" xmlns="http://www.w3.org/2000/svg" width="49" height="32" viewBox="0 0 49 32">
<title>sm</title>
<path fill="#f5f5f5" d="M48.844 16h-48.844v-15.158c0.001-0.465 0.379-0.842 0.844-0.842 0 0 0 0 0 0h47.158c0.465 0 0.842 0.377 0.842 0.842v0 15.158z"></path>
<path fill="#82afff" d="M0 16h48.844v15.158c0 0.465-0.377 0.842-0.842 0.842v0h-47.158c0 0 0 0 0 0-0.465 0-0.843-0.377-0.844-0.842v-0z"></path>
<path fill="#b46446" d="M24.501 22.866c-2.075-0.099-3.912-1.040-5.192-2.486l-0.007-0.008c-0.599-0.921-0.955-2.047-0.955-3.257 0-0.745 0.135-1.459 0.382-2.118l-0.014 0.042 0.233 0.065c-0.228 0.597-0.359 1.288-0.359 2.009 0 1.153 0.337 2.228 0.917 3.131l-0.014-0.023c1.252 1.382 3.016 2.28 4.991 2.393l0.019 0.001z"></path>
<path fill="#41aa5a" d="M18.714 14.069c0.1 0.253 0.343 0.429 0.627 0.429 0.371 0 0.672-0.301 0.672-0.672 0-0.284-0.176-0.526-0.424-0.625l-0.005-0.002c-0.405 0.151-0.719 0.465-0.867 0.86l-0.003 0.010z"></path>
<path fill="#41aa5a" d="M20.824 20.047c-0.11 0.188-0.175 0.415-0.175 0.656 0 0.162 0.029 0.317 0.083 0.46l-0.003-0.009c0.119 0.348 0.369 0.625 0.69 0.778l0.008 0.003c-0.060-0.022-0.129-0.035-0.201-0.035-0.328 0-0.593 0.266-0.593 0.593s0.266 0.593 0.593 0.593c0.328 0 0.593-0.266 0.593-0.593 0-0.231-0.132-0.431-0.324-0.529l-0.003-0.002c0.106-0.19 0.168-0.416 0.168-0.657 0-0.562-0.34-1.046-0.825-1.256l-0.009-0.003z"></path>
<path fill="#41aa5a" d="M20.103 18.945c0.437 0.115 0.755 0.507 0.755 0.973 0 0.555-0.45 1.005-1.005 1.005-0.35 0-0.659-0.179-0.838-0.451l-0.002-0.004c-0.138 0.113-0.225 0.282-0.225 0.473 0 0.337 0.273 0.609 0.609 0.609 0.326 0 0.592-0.256 0.609-0.578l0-0.001c0.293-0.236 0.484-0.59 0.498-0.989l0-0.002c0.002-0.027 0.003-0.058 0.003-0.090 0-0.371-0.154-0.706-0.403-0.945l-0-0z"></path>
<path fill="#41aa5a" d="M19.791 17.7c0.248 0.185 0.407 0.478 0.407 0.808 0 0.555-0.45 1.005-1.005 1.005-0.487 0-0.893-0.346-0.985-0.806l-0.001-0.006c-0.25 0.079-0.429 0.309-0.429 0.58 0 0.335 0.272 0.607 0.607 0.607 0.242 0 0.451-0.142 0.548-0.346l0.002-0.004c0.563-0.178 0.963-0.695 0.963-1.306 0-0.192-0.039-0.374-0.111-0.54l0.003 0.009z"></path>
<path fill="#41aa5a" d="M19.968 16.465c0.102 0.155 0.163 0.345 0.163 0.549 0 0.555-0.45 1.005-1.005 1.005s-1.005-0.45-1.005-1.005c0-0.058 0.005-0.115 0.015-0.171l-0.001 0.006c-0.011-0.001-0.024-0.001-0.037-0.001-0.337 0-0.609 0.273-0.609 0.609s0.273 0.609 0.609 0.609c0.167 0 0.318-0.067 0.428-0.176l-0 0c0.023 0.001 0.049 0.002 0.076 0.002 0.755 0 1.368-0.612 1.368-1.368 0-0.021-0-0.042-0.001-0.063l0 0.003z"></path>
<path fill="#41aa5a" d="M20.219 15.302c-0.093-0.023-0.2-0.036-0.31-0.036-0.67 0-1.227 0.485-1.338 1.123l-0.001 0.008c-0.019-0.307-0.273-0.549-0.583-0.549-0.322 0-0.584 0.261-0.584 0.584s0.261 0.584 0.584 0.584c0.31 0 0.564-0.242 0.583-0.547l0-0.002c0.091 0.022 0.196 0.034 0.304 0.034 0.695 0 1.269-0.519 1.356-1.19l0.001-0.007z"></path>
<path fill="#ffe15a" d="M20.58 21.773c0 0.144-0.117 0.261-0.261 0.261s-0.261-0.117-0.261-0.261c0-0.144 0.117-0.261 0.261-0.261s0.261 0.117 0.261 0.261z"></path>
<path fill="#ffe15a" d="M21.775 21.919c0 0.144-0.117 0.261-0.261 0.261s-0.261-0.117-0.261-0.261c0-0.144 0.117-0.261 0.261-0.261s0.261 0.117 0.261 0.261z"></path>
<path fill="#ffe15a" d="M19.891 19.803c0 0.144-0.117 0.261-0.261 0.261s-0.261-0.117-0.261-0.261c0-0.144 0.117-0.261 0.261-0.261s0.261 0.117 0.261 0.261z"></path>
<path fill="#ffe15a" d="M18.233 17.844c0 0.144-0.117 0.261-0.261 0.261s-0.261-0.117-0.261-0.261c0-0.144 0.117-0.261 0.261-0.261s0.261 0.117 0.261 0.261z"></path>
<path fill="#ffe15a" d="M19.391 16.519c0 0.144-0.117 0.261-0.261 0.261s-0.261-0.117-0.261-0.261c0-0.144 0.117-0.261 0.261-0.261s0.261 0.117 0.261 0.261z"></path>
<path fill="#ffe15a" d="M18.952 15.158c0 0.144-0.117 0.261-0.261 0.261s-0.261-0.117-0.261-0.261c0-0.144 0.117-0.261 0.261-0.261s0.261 0.117 0.261 0.261z"></path>
<path fill="#b46446" d="M24.513 22.866l-0.012-0.249c1.994-0.113 3.758-1.011 5.005-2.387l0.006-0.006c0.566-0.881 0.902-1.956 0.902-3.11 0-0.72-0.131-1.41-0.371-2.047l0.013 0.040 0.233-0.065c0.234 0.618 0.37 1.333 0.37 2.079 0 1.209-0.356 2.334-0.968 3.277l0.014-0.023c-1.285 1.451-3.119 2.391-5.174 2.49l-0.017 0.001z"></path>
<path fill="#41aa5a" d="M30.297 14.069c0.221 0.113 0.369 0.339 0.369 0.6 0 0.371-0.301 0.672-0.672 0.672s-0.672-0.301-0.672-0.672c0-0.087 0.017-0.17 0.047-0.246l-0.002 0.005c-0.067-0.162-0.106-0.349-0.106-0.546 0-0.249 0.062-0.484 0.172-0.69l-0.004 0.008c0.405 0.15 0.718 0.464 0.864 0.86l0.003 0.010z"></path>
<path fill="#41aa5a" d="M28.19 20.047c0.11 0.188 0.175 0.415 0.175 0.656 0 0.162-0.029 0.317-0.083 0.46l0.003-0.009c-0.119 0.348-0.369 0.625-0.69 0.778l-0.008 0.003c0.060-0.022 0.129-0.035 0.201-0.035 0.328 0 0.593 0.266 0.593 0.593s-0.266 0.593-0.593 0.593c-0.328 0-0.593-0.266-0.593-0.593 0-0.231 0.132-0.431 0.324-0.529l0.003-0.002c-0.106-0.19-0.168-0.416-0.168-0.657 0-0.562 0.34-1.046 0.825-1.256l0.009-0.003z"></path>
<path fill="#41aa5a" d="M28.911 18.945c-0.439 0.114-0.757 0.507-0.757 0.974 0 0.555 0.45 1.005 1.005 1.005 0.35 0 0.659-0.179 0.839-0.451l0.002-0.004c0.139 0.113 0.227 0.283 0.227 0.475 0 0.337-0.273 0.609-0.609 0.609-0.327 0-0.594-0.257-0.609-0.58l-0-0.001c-0.294-0.236-0.485-0.59-0.5-0.988l-0-0.002c-0.002-0.026-0.003-0.056-0.003-0.087 0-0.373 0.155-0.709 0.405-0.948l0-0z"></path>
<path fill="#41aa5a" d="M29.223 17.7c-0.248 0.185-0.407 0.478-0.407 0.808 0 0.555 0.45 1.005 1.005 1.005 0.487 0 0.893-0.346 0.985-0.806l0.001-0.006c0.25 0.079 0.429 0.309 0.429 0.58 0 0.335-0.272 0.607-0.607 0.607-0.242 0-0.451-0.142-0.548-0.346l-0.002-0.004c-0.563-0.178-0.963-0.695-0.963-1.306 0-0.192 0.039-0.374 0.111-0.54l-0.003 0.009z"></path>
<path fill="#41aa5a" d="M29.046 16.465c-0.102 0.155-0.163 0.345-0.163 0.549 0 0.555 0.45 1.005 1.005 1.005s1.005-0.45 1.005-1.005c0-0.058-0.005-0.115-0.015-0.171l0.001 0.006c0.011-0.001 0.024-0.001 0.037-0.001 0.337 0 0.609 0.273 0.609 0.609s-0.273 0.609-0.609 0.609c-0.167 0-0.318-0.067-0.428-0.176l0 0c-0.023 0.001-0.051 0.002-0.078 0.002-0.754 0-1.365-0.611-1.365-1.365 0-0.022 0.001-0.044 0.002-0.066l-0 0.003z"></path>
<path fill="#41aa5a" d="M28.795 15.302c0.096-0.025 0.206-0.040 0.32-0.040 0.29 0 0.558 0.094 0.775 0.254l-0.004-0.003c-0.066 0.091-0.105 0.205-0.105 0.328 0 0.312 0.253 0.565 0.565 0.565s0.565-0.253 0.565-0.565c0-0.192-0.096-0.362-0.242-0.464l-0.002-0.001c0.040-0.010 0.087-0.015 0.134-0.015 0.335 0 0.607 0.272 0.607 0.607s-0.272 0.607-0.607 0.607c-0.129 0-0.249-0.041-0.348-0.11l0.002 0.001c-0.091 0.022-0.196 0.034-0.304 0.034-0.695 0-1.269-0.519-1.356-1.19l-0.001-0.007z"></path>
<path fill="#ffe15a" d="M28.958 21.773c0 0.144-0.117 0.261-0.261 0.261s-0.261-0.117-0.261-0.261c0-0.144 0.117-0.261 0.261-0.261s0.261 0.117 0.261 0.261z"></path>
<path fill="#ffe15a" d="M27.758 21.919c0 0.144-0.117 0.261-0.261 0.261s-0.261-0.117-0.261-0.261c0-0.144 0.117-0.261 0.261-0.261s0.261 0.117 0.261 0.261z"></path>
<path fill="#ffe15a" d="M29.644 19.803c0 0.144-0.117 0.261-0.261 0.261s-0.261-0.117-0.261-0.261c0-0.144 0.117-0.261 0.261-0.261s0.261 0.117 0.261 0.261z"></path>
<path fill="#ffe15a" d="M31.3 17.844c0 0.144-0.117 0.261-0.261 0.261s-0.261-0.117-0.261-0.261c0-0.144 0.117-0.261 0.261-0.261s0.261 0.117 0.261 0.261z"></path>
<path fill="#ffe15a" d="M30.144 16.519c0 0.144-0.117 0.261-0.261 0.261s-0.261-0.117-0.261-0.261c0-0.144 0.117-0.261 0.261-0.261s0.261 0.117 0.261 0.261z"></path>
<path fill="#ffe15a" d="M30.584 15.158c0 0.144-0.117 0.261-0.261 0.261s-0.261-0.117-0.261-0.261c0-0.144 0.117-0.261 0.261-0.261s0.261 0.117 0.261 0.261z"></path>
<path fill="#8cd7ff" d="M25.974 14.116h-2.989c-0.93 0-1.684 0.754-1.684 1.684v0 2.633c0 0.93 0.754 1.684 1.684 1.684v0h2.989c0.93 0 1.684-0.754 1.684-1.684v0-2.633c0-0.93-0.754-1.684-1.684-1.684v0z"></path>
<path fill="#f5f5f5" d="M24.971 16.407v0.333h-0.333v-0.333h-0.256v0.333h-0.333v-0.333h-0.209v0.668l0.167 0.212v2.456h1v-2.456l0.167-0.212v-0.668z"></path>
<path fill="#f5f5f5" d="M24.555 15.351c0.165-0.081 0.209 0.256 0.209 0.256 0.148-0.056 0.251-0.196 0.251-0.36 0-0.087-0.029-0.167-0.078-0.232l0.001 0.001c-0.083-0.089-0.2-0.145-0.331-0.145-0.184 0-0.342 0.11-0.412 0.267l-0.001 0.003c-0.188 0.377 0.319 1.119 0.319 1.119 0.028-0.23-0.172-0.805 0.042-0.909z"></path>
<path fill="#f5f5f5" d="M26.685 17.028v0.333h-0.333v-0.333h-0.256v0.333h-0.333v-0.333h-0.209v0.668l0.167 0.212v2.456h1v-2.456l0.167-0.212v-0.668z"></path>
<path fill="#f5f5f5" d="M26.269 15.972c0.165-0.079 0.209 0.258 0.209 0.258 0.148-0.055 0.251-0.196 0.251-0.36 0-0.087-0.029-0.167-0.078-0.232l0.001 0.001c-0.082-0.091-0.201-0.147-0.332-0.147-0.183 0-0.341 0.11-0.411 0.268l-0.001 0.003c-0.188 0.377 0.319 1.119 0.319 1.119 0.028-0.228-0.177-0.805 0.042-0.909z"></path>
<path fill="#f5f5f5" d="M23.259 17.028v0.333h-0.333v-0.333h-0.256v0.333h-0.342v-0.333h-0.209v0.668l0.167 0.212v2.456h1v-2.456l0.167-0.212v-0.668z"></path>
<path fill="#f5f5f5" d="M22.841 15.972c0.165-0.079 0.209 0.258 0.209 0.258 0.148-0.055 0.251-0.196 0.251-0.36 0-0.087-0.029-0.167-0.078-0.232l0.001 0.001c-0.082-0.091-0.201-0.147-0.332-0.147-0.183 0-0.341 0.11-0.411 0.268l-0.001 0.003c-0.188 0.377 0.319 1.119 0.319 1.119 0.028-0.228-0.172-0.805 0.042-0.909z"></path>
<path fill="#6ec86e" d="M27.244 19.919c-0.214-0.112-0.466-0.178-0.735-0.179h-0c-0.228 0.13-0.502 0.206-0.793 0.206-0.48 0-0.911-0.207-1.209-0.537l-0.001-0.001c-0.482 0.001-0.915 0.208-1.218 0.536l-0.001 0.001c-0.225-0.129-0.495-0.205-0.782-0.205-0.268 0-0.521 0.066-0.743 0.183l0.009-0.004c-0.001 0.024-0.001 0.052-0.001 0.080 0 1.512 1.226 2.738 2.738 2.738s2.738-1.226 2.738-2.738c0-0.028-0-0.056-0.001-0.084l0 0.004z"></path>
<path fill="#ffe15a" d="M24.492 8.745h0.014z"></path>
<path fill="#ffe15a" d="M24.506 8.736h0.016z"></path>
<path fill="#ffe15a" d="M27.706 10.164c-0.095-0.542-0.793-0.635-1.596-0.686-0.453-0.005-0.859-0.201-1.143-0.511l-0.001-0.001h-0.93c-0.286 0.31-0.693 0.506-1.146 0.512h-0.001c-0.8 0.051-1.5 0.144-1.593 0.686s0.593 1.396 0.593 1.396l0.605-0.491s-0.74-0.698-0.374-0.97 1.41-0.079 1.877-0.698c-0.005 0.036-0.008 0.078-0.008 0.121 0 0.131 0.028 0.256 0.078 0.369l-0.002-0.006c0.069 0.193 0.108 0.415 0.108 0.646 0 0.071-0.004 0.142-0.011 0.211l0.001-0.009h0.668c-0.007-0.061-0.010-0.131-0.010-0.203 0-0.231 0.040-0.454 0.112-0.66l-0.004 0.014c0.047-0.105 0.075-0.227 0.075-0.355 0-0.045-0.003-0.090-0.010-0.133l0.001 0.005c0.465 0.616 1.519 0.44 1.879 0.698s-0.377 0.97-0.377 0.97l0.605 0.491s0.7-0.854 0.607-1.396z"></path>
<path fill="#ffe15a" d="M24.848 7.092h-0.174v-0.188c0.001-0.006 0.001-0.013 0.001-0.020 0-0.093-0.075-0.167-0.167-0.167s-0.167 0.075-0.167 0.167c0 0.007 0 0.014 0.001 0.021l-0-0.001v0.188h-0.181c-0.006-0.001-0.013-0.001-0.020-0.001-0.093 0-0.167 0.075-0.167 0.167s0.075 0.167 0.167 0.167c0.007 0 0.014-0 0.020-0.001l-0.001 0h0.181v0.479c-0.001 0.006-0.001 0.013-0.001 0.020 0 0.092 0.075 0.167 0.167 0.167s0.167-0.075 0.167-0.167c0-0.007-0-0.014-0.001-0.021l0 0.001v-0.479h0.174c0.084-0.010 0.148-0.081 0.148-0.166s-0.064-0.156-0.147-0.166l-0.001-0z"></path>
<path fill="#fff0e1" d="M24.838 8.069c0 0.184-0.149 0.333-0.333 0.333s-0.333-0.149-0.333-0.333c0-0.184 0.149-0.333 0.333-0.333s0.333 0.149 0.333 0.333z"></path>
<path fill="#ffc75a" d="M22.117 14.781c0.13 0.073 0.285 0.118 0.449 0.126l0.002 0c0.023 0.002 0.049 0.004 0.076 0.004 0.418 0 0.756-0.338 0.756-0.756 0-0.040-0.003-0.079-0.009-0.117l0.001 0.004c0.003-0.027 0.004-0.057 0.004-0.088 0-0.487-0.395-0.882-0.882-0.882-0.003 0-0.006 0-0.010 0h0s-0.063 0-0.16 0.016l-0.065 0.012c-0.53 0.102-1.842 0.591-2.107 2.973-0.007 0.116-0.010 0.251-0.010 0.387 0 2.946 1.766 5.479 4.298 6.598l0.046 0.018v-0.33s-4.724-3.617-2.389-7.964z"></path>
<path fill="#ffc75a" d="M22.506 13.404l2 0.668-2 0.668z"></path>
<path fill="#ffe15a" d="M26.515 14.739l-2-0.668 2-0.668z"></path>
<path fill="#ffe15a" d="M20.503 16.109c0.233-2.149 1.365-2.591 1.861-2.684h0.040l0.116-0.014c0.003-0 0.006-0 0.009-0 0.33 0 0.598 0.268 0.598 0.598 0 0.005-0 0.010-0 0.015v-0.001c0 0.367-0.216 0.507-0.43 0.514 0 0 0.174-0.361-0.181-0.465-0.027-0.006-0.059-0.010-0.091-0.010-0.235 0-0.426 0.191-0.426 0.426 0 0.017 0.001 0.035 0.003 0.051l-0-0.002c0.032 0.263 0.247 0.466 0.513 0.479l0.001 0c0.012 0.001 0.027 0.001 0.042 0.001 0.527 0 0.955-0.426 0.958-0.952v-0c0-0.552-0.448-1-1-1v0c-0.058 0.002-0.113 0.007-0.167 0.017l0.007-0.001-0.065 0.012c-0.53 0.102-1.842 0.591-2.107 2.973-0.007 0.116-0.010 0.251-0.010 0.387 0 2.946 1.766 5.479 4.298 6.598l0.046 0.018v-0.323c-0.467-0.236-0.858-0.468-1.232-0.722l0.038 0.025c-1.723-1.285-2.827-3.318-2.827-5.609 0-0.116 0.003-0.231 0.008-0.345l-0.001 0.016z"></path>
<path fill="#ffc75a" d="M26.897 14.781c-0.13 0.073-0.285 0.118-0.449 0.126l-0.002 0c-0.023 0.002-0.049 0.004-0.076 0.004-0.418 0-0.756-0.338-0.756-0.756 0-0.040 0.003-0.079 0.009-0.117l-0.001 0.004c-0.003-0.027-0.004-0.057-0.004-0.088 0-0.487 0.395-0.882 0.882-0.882 0.003 0 0.006 0 0.010 0h-0s0.060 0 0.16 0.016l0.065 0.012c0.53 0.102 1.842 0.591 2.107 2.973 0.007 0.115 0.010 0.25 0.010 0.386 0 2.946-1.767 5.48-4.3 6.599l-0.046 0.018v-0.33s4.724-3.617 2.391-7.964z"></path>
<path fill="#ffc75a" d="M26.515 13.404l-2 0.668 2 0.668z"></path>
<path fill="#ffe15a" d="M28.511 16.109c-0.233-2.149-1.368-2.591-1.861-2.684h-0.040l-0.116-0.014c-0.004-0-0.008-0-0.012-0-0.329 0-0.595 0.267-0.595 0.595 0 0.006 0 0.011 0 0.017l-0-0.001c0 0.367 0.214 0.507 0.43 0.514 0 0-0.174-0.361 0.181-0.465 0.027-0.006 0.059-0.010 0.091-0.010 0.235 0 0.426 0.191 0.426 0.426 0 0.017-0.001 0.035-0.003 0.051l0-0.002c-0.032 0.263-0.247 0.466-0.513 0.479l-0.001 0c-0.012 0.001-0.027 0.001-0.042 0.001-0.528 0-0.956-0.425-0.961-0.952v-0c0.001-0.553 0.45-1 1.002-1 0 0 0 0 0 0v0c0.058 0.002 0.113 0.008 0.167 0.017l-0.007-0.001 0.065 0.012c0.53 0.102 1.842 0.591 2.107 2.973 0.007 0.115 0.010 0.25 0.010 0.386 0 2.946-1.767 5.48-4.3 6.599l-0.046 0.018v-0.323c0.466-0.235 0.857-0.467 1.231-0.722l-0.037 0.024c1.724-1.285 2.829-3.319 2.829-5.61 0-0.115-0.003-0.23-0.008-0.344l0.001 0.016z"></path>
<path fill="#ffe15a" d="M24.838 14.072c0 0.184-0.149 0.333-0.333 0.333s-0.333-0.149-0.333-0.333c0-0.184 0.149-0.333 0.333-0.333s0.333 0.149 0.333 0.333z"></path>
<path fill="#ffc75a" d="M26.888 11.395c0.018-0.066 0.028-0.143 0.028-0.221 0-0.114-0.021-0.222-0.060-0.322l0.002 0.006c-0.203 0.001-0.387 0.083-0.521 0.214l0-0c0.001-0.021 0.002-0.045 0.002-0.070 0-0.165-0.036-0.322-0.1-0.463l0.003 0.007c-0.216 0.008-0.406 0.116-0.524 0.28l-0.001 0.002c0-0.002 0-0.005 0-0.008 0-0.241-0.109-0.457-0.28-0.601l-0.001-0.001c-0.216 0.082-0.381 0.257-0.448 0.474l-0.001 0.005c0.010-0.038 0.016-0.081 0.016-0.126 0-0.274-0.222-0.495-0.495-0.495s-0.495 0.222-0.495 0.495c0 0.045 0.006 0.088 0.017 0.129l-0.001-0.003c-0.067-0.223-0.231-0.397-0.442-0.477l-0.005-0.002c-0.173 0.145-0.281 0.361-0.281 0.602 0 0.003 0 0.005 0 0.008v-0c-0.121-0.165-0.311-0.274-0.527-0.281l-0.001-0c-0.060 0.134-0.095 0.29-0.095 0.454 0 0.025 0.001 0.050 0.002 0.075l-0-0.003c-0.135-0.131-0.318-0.212-0.521-0.214h-0c0.046 0.070 0.074 0.156 0.074 0.248 0 0.249-0.202 0.451-0.451 0.451-0.111 0-0.212-0.040-0.291-0.106l0.001 0.001c0.273 0.105 0.506 0.259 0.698 0.453l0 0h4.631c0.192-0.195 0.425-0.349 0.684-0.449l0.013-0.005c-0.113-0.056-0.246-0.089-0.387-0.089-0.086 0-0.169 0.012-0.247 0.035l0.006-0.002z"></path>
<path fill="#ffe15a" d="M26.823 11.904c-0.089 0.235-0.206 0.438-0.352 0.618l0.003-0.004c-0.575 0.084-1.255 0.141-1.946 0.158l-0.022 0c-0.714-0.018-1.396-0.077-2.065-0.174l0.093 0.011c-0.139-0.175-0.255-0.376-0.337-0.594l-0.005-0.015c0-0.426 1.035-0.772 2.326-0.772s2.305 0.347 2.305 0.772z"></path>
<path fill="#ffc75a" d="M26.506 12.406c0 0.369-0.896 0.668-2 0.668s-2-0.299-2-0.668c0-0.369 0.896-0.668 2-0.668s2 0.299 2 0.668z"></path>
<path fill="#ffc75a" d="M24.997 8.706c0-0.219-0.163-0.498-0.491-0.302-0.326-0.195-0.488 0.084-0.488 0.302 0 0.002 0 0.003 0 0.005 0 0.128-0.104 0.233-0.233 0.233-0.017 0-0.034-0.002-0.050-0.005l0.002 0s0.207 0.27 0.447 0.093c0.074 0.104 0.189 0.175 0.321 0.188l0.002 0c0.134-0.013 0.25-0.084 0.322-0.187l0.001-0.001c0.233 0.177 0.449-0.093 0.449-0.093-0.011 0.002-0.024 0.003-0.037 0.003-0.132 0-0.239-0.104-0.244-0.235v-0z"></path>
<path fill="#b46446" d="M23.841 24.866c-0.002 0-0.003 0-0.005 0-0.018 0-0.036-0.004-0.051-0.012l0.001 0c-0.041-0.020-0.070-0.062-0.070-0.111 0-0.021 0.005-0.040 0.014-0.057l-0 0.001 0.665-1.335c0.022-0.041 0.064-0.068 0.113-0.068 0.020 0 0.038 0.005 0.055 0.012l-0.001-0c0.041 0.020 0.070 0.062 0.070 0.111 0 0.021-0.005 0.040-0.014 0.057l0-0.001-0.665 1.335c-0.021 0.040-0.063 0.067-0.111 0.067-0 0-0 0-0 0h0z"></path>
<path fill="#b46446" d="M25.173 24.866c-0 0-0.001 0-0.002 0-0.048 0-0.089-0.027-0.11-0.067l-0-0.001-0.668-1.335c-0.008-0.016-0.013-0.035-0.013-0.055 0-0.049 0.028-0.091 0.068-0.112l0.001-0c0.016-0.008 0.035-0.012 0.055-0.012 0.049 0 0.092 0.027 0.114 0.067l0 0.001 0.665 1.335c0.009 0.016 0.014 0.036 0.014 0.057 0 0.049-0.028 0.091-0.069 0.111l-0.001 0c-0.015 0.007-0.033 0.012-0.052 0.012-0.001 0-0.003-0-0.004-0h0z"></path>
<path fill="#f5f5f5" d="M27.509 23.701c-0.902 0.211-1.938 0.331-3.002 0.331s-2.1-0.121-3.094-0.349l0.093 0.018v-1.291c0.902 0.211 1.938 0.331 3.002 0.331s2.1-0.121 3.094-0.349l-0.093 0.018z"></path>
<path fill="#f5f5f5" d="M23.159 23.21c-0.784 0.159-1.684 0.251-2.606 0.251-0.45 0-0.895-0.022-1.334-0.064l0.056 0.004c0.021 0.172 1.049 0.684 1.049 0.684s-0.907 0.44-0.886 0.598c0.382 0.038 0.825 0.059 1.274 0.059 0.865 0 1.712-0.080 2.533-0.233l-0.085 0.013v-1.312z"></path>
<path fill="#f5f5f5" d="M25.86 23.21c0.784 0.159 1.684 0.251 2.606 0.251 0.45 0 0.895-0.022 1.334-0.064l-0.056 0.004c-0.021 0.172-1.051 0.684-1.051 0.684s0.909 0.44 0.889 0.598c-0.382 0.038-0.825 0.059-1.274 0.059-0.865 0-1.712-0.080-2.533-0.233l0.085 0.013v-1.312z"></path>
</svg>
