<!-- Generated by IcoMoon.io -->
<svg version="1.1" xmlns="http://www.w3.org/2000/svg" width="48" height="32" viewBox="0 0 48 32">
<title>tr</title>
<path fill="#d80027" d="M0 0h48v32h-48v-32z"></path>
<path fill="#f0f0f0" d="M23.177 12.325l1.65 2.272 2.672-0.866-1.653 2.272 1.65 2.272-2.67-0.869-1.653 2.272v-2.809l-2.672-0.869 2.672-0.866z"></path>
<path fill="#f0f0f0" d="M18.674 21.682c-3.137-0.001-5.68-2.545-5.68-5.682s2.544-5.682 5.682-5.682c0.99 0 1.921 0.253 2.731 0.698l-0.029-0.015c-1.26-1.233-2.985-1.993-4.889-1.993-3.862 0-6.992 3.13-6.992 6.992s3.13 6.992 6.992 6.992c1.903 0 3.629-0.761 4.89-1.994l-0.001 0.001c-0.781 0.43-1.711 0.683-2.701 0.683-0.001 0-0.002 0-0.004 0h0z"></path>
</svg>
