<!-- Generated by IcoMoon.io -->
<svg version="1.1" xmlns="http://www.w3.org/2000/svg" width="48" height="32" viewBox="0 0 48 32">
<title>us</title>
<path fill="#f0f0f0" d="M0-0.002h48v32h-48v-32z"></path>
<path fill="#d80027" d="M0 3.998h48v4h-48v-4z"></path>
<path fill="#d80027" d="M0 11.998h48v4h-48v-4z"></path>
<path fill="#d80027" d="M0 19.998h48v4h-48v-4z"></path>
<path fill="#d80027" d="M0 27.998h48v4h-48v-4z"></path>
<path fill="#2e52b2" d="M0-0.002h24v17.232h-24v-17.232z"></path>
<path fill="#f0f0f0" d="M9.358 7.058l-0.386 1.189h-1.25l1.013 0.734-0.386 1.189 1.013-0.734 1.010 0.734-0.386-1.189 1.013-0.734h-1.25z"></path>
<path fill="#f0f0f0" d="M9.744 12.537l-0.386-1.189-0.386 1.189h-1.25l1.013 0.734-0.386 1.189 1.013-0.734 1.010 0.734-0.386-1.189 1.013-0.734z"></path>
<path fill="#f0f0f0" d="M4.459 12.537l-0.386-1.189-0.386 1.189h-1.25l1.013 0.734-0.386 1.189 1.013-0.734 1.010 0.734-0.386-1.189 1.013-0.734z"></path>
<path fill="#f0f0f0" d="M4.075 7.058l-0.386 1.189h-1.25l1.013 0.734-0.386 1.189 1.013-0.734 1.010 0.734-0.386-1.189 1.013-0.734h-1.25z"></path>
<path fill="#f0f0f0" d="M9.358 2.766l-0.386 1.189h-1.25l1.013 0.734-0.386 1.189 1.013-0.734 1.010 0.734-0.386-1.189 1.013-0.734h-1.25z"></path>
<path fill="#f0f0f0" d="M4.075 2.766l-0.386 1.189h-1.25l1.013 0.734-0.386 1.189 1.013-0.734 1.010 0.734-0.386-1.189 1.013-0.734h-1.25z"></path>
<path fill="#f0f0f0" d="M14.642 7.058l-0.386 1.189h-1.25l1.013 0.734-0.386 1.189 1.013-0.734 1.010 0.734-0.386-1.189 1.013-0.734h-1.25z"></path>
<path fill="#f0f0f0" d="M15.029 12.537l-0.386-1.189-0.386 1.189h-1.25l1.013 0.734-0.386 1.189 1.013-0.734 1.010 0.734-0.386-1.189 1.013-0.734z"></path>
<path fill="#f0f0f0" d="M20.313 12.537l-0.386-1.189-0.386 1.189h-1.255l1.013 0.734-0.386 1.189 1.013-0.734 1.010 0.734-0.386-1.189 1.013-0.734z"></path>
<path fill="#f0f0f0" d="M19.927 7.058l-0.386 1.189h-1.255l1.013 0.734-0.386 1.189 1.013-0.734 1.010 0.734-0.386-1.189 1.013-0.734h-1.25z"></path>
<path fill="#f0f0f0" d="M14.642 2.766l-0.386 1.189h-1.25l1.013 0.734-0.386 1.189 1.013-0.734 1.010 0.734-0.386-1.189 1.013-0.734h-1.25z"></path>
<path fill="#f0f0f0" d="M19.927 2.766l-0.386 1.189h-1.255l1.013 0.734-0.386 1.189 1.013-0.734 1.010 0.734-0.386-1.189 1.013-0.734h-1.25z"></path>
</svg>
