<?xml version="1.0" encoding="utf-8"?>
<!-- Generator: Adobe Illustrator 27.6.1, SVG Export Plug-In . SVG Version: 6.00 Build 0)  -->
<svg version="1.1" id="Layer_1" xmlns="http://www.w3.org/2000/svg" xmlns:xlink="http://www.w3.org/1999/xlink" x="0px" y="0px"
	 width="49px" height="32px" viewBox="0 0 49 32" style="enable-background:new 0 0 49 32;" xml:space="preserve">
<style type="text/css">
	.st0{fill:#1EB53A;}
	.st1{fill:#0099B5;}
	.st2{fill:#CE1126;}
	.st3{fill:#FFFFFF;}
</style>
<path class="st0" d="M0,0h49v32H0V0z"/>
<path class="st1" d="M0,0h49v16H0V0z"/>
<path class="st2" d="M0,10.2h49v11.5H0V10.2z"/>
<path class="st3" d="M0,10.9h49v10.2H0V10.9z"/>
<circle class="st3" cx="9" cy="5.1" r="3.8"/>
<circle class="st1" cx="10.3" cy="5.1" r="3.8"/>
<g transform="matrix(2 0 0 2 272 128)">
	<g id="e">
		<g id="d">
			<g id="c">
				<g id="b">
					<path id="a" class="st3" d="M-127.3-60.3l-0.1,0.4l0.2,0.1"/>
					<g transform="scale(-1 1)">
						<path id="a_00000071518886681069237130000006897043975436049826_" class="st3" d="M-127.3-60.3l0.1,0.4l-0.2,0.1"/>
					</g>
				</g>
				<g transform="rotate(72)">
					<g id="b_00000076574983648453042350000015528864078493870212_">
						<path id="a_00000149366103225040477080000008218081673767663260_" class="st3" d="M-126.9-60h-0.4v0.2"/>
						<g transform="scale(-1 1)">
							<path id="a_00000036235348180115009800000018156978658758641539_" class="st3" d="M-126.9-60l-0.3,0.2l-0.1-0.2"/>
						</g>
					</g>
				</g>
			</g>
			<g transform="rotate(-72)">
				<g id="b_00000163033136520144535350000014028452776885197486_">
					<path id="a_00000080197930629077387640000010764150867049813405_" class="st3" d="M-127.6-60l0.3,0.2l0.1-0.2"/>
					<g transform="scale(-1 1)">
						<path id="a_00000170263178565403889360000010898179364069409982_" class="st3" d="M-127.6-60h0.4v0.2"/>
					</g>
				</g>
			</g>
			<g transform="rotate(144)">
				<g id="c_00000127003924396967016730000009551081778147441538_">
					<g id="b_00000109736146072226727720000008735917320484706747_">
						<path id="a_00000010269352855847370580000015604491503356082864_" class="st3" d="M-127.1-59.6l-0.1-0.4l-0.2,0.1"/>
						<g transform="scale(-1 1)">
							<path id="a_00000160894294710343422210000017669372764967389572_" class="st3" d="M-127.1-59.6l-0.3-0.2l0.1-0.2"/>
						</g>
					</g>
					<g transform="rotate(72)">
						<g id="b_00000145747751770731747750000004069767676178416040_">
							<path id="a_00000147179823840936452280000002780628987635121288_" class="st3" d="M-127.5-59.6l0.3-0.2l-0.1-0.2"/>
							<g transform="scale(-1 1)">
								<path id="a_00000021102992188266046670000001243404673599751563_" class="st3" d="M-127.5-59.6l0.1-0.4l0.2,0.1"/>
							</g>
						</g>
					</g>
				</g>
			</g>
		</g>
		<g>
			<g id="d_00000146488024842615396360000007697858851003606201_">
				<g id="c_00000032626896214643932780000004195796855934043803_">
					<g id="b_00000021084144167148603880000015449519188130191502_">
						<path id="a_00000101072487361201714830000000394982157939193487_" class="st3" d="M-127.3-61.8l-0.1,0.4l0.2,0.1"/>
						<g transform="scale(-1 1)">
							<path id="a_00000067196993834518727270000002973047607527404934_" class="st3" d="M-127.3-61.8l0.1,0.4l-0.2,0.1"/>
						</g>
					</g>
					<g transform="rotate(72)">
						<g id="b_00000052810188657900828570000006790536269107592631_">
							<path id="a_00000178177941393298129330000015318382001333789862_" class="st3" d="M-126.9-61.6h-0.4v0.2"/>
							<g transform="scale(-1 1)">
								<path id="a_00000055678880475480357520000006541241577678357164_" class="st3" d="M-126.9-61.6l-0.3,0.2l-0.1-0.2"/>
							</g>
						</g>
					</g>
				</g>
				<g transform="rotate(-72)">
					<g id="b_00000169530237590153786870000011038327987641267604_">
						<path id="a_00000095323750998280766160000001968060866830193303_" class="st3" d="M-127.6-61.6l0.3,0.2l0.1-0.2"/>
						<g transform="scale(-1 1)">
							<path id="a_00000175309469949639520800000003242620286337051320_" class="st3" d="M-127.6-61.6h0.4v0.2"/>
						</g>
					</g>
				</g>
				<g transform="rotate(144)">
					<g id="c_00000122694774894991950490000014498654084145651874_">
						<g id="b_00000048491631658842620710000015367550119252863132_">
							<path id="a_00000085963734513285127830000012226861697014557578_" class="st3" d="M-127.1-61.1l-0.1-0.4l-0.2,0.1"/>
							<g transform="scale(-1 1)">
								<path id="a_00000163070671648019073890000016720321015291445389_" class="st3" d="M-127.1-61.1l-0.3-0.2l0.1-0.2"/>
							</g>
						</g>
						<g transform="rotate(72)">
							<g id="b_00000095336823364984659470000010090981235503212723_">
								<path id="a_00000178165573441094859920000017734948089110124172_" class="st3" d="M-127.5-61.1l0.3-0.2l-0.1-0.2"/>
								<g transform="scale(-1 1)">
									<path id="a_00000162345370563816214800000005985931469166731425_" class="st3" d="M-127.5-61.1l0.1-0.4l0.2,0.1"/>
								</g>
							</g>
						</g>
					</g>
				</g>
			</g>
		</g>
		<g>
			<g id="d_00000040568037152059766520000004619838023858757034_">
				<g id="c_00000141427993570481884770000016950404921257087619_">
					<g id="b_00000177467434386481525240000008436666459170895752_">
						<path id="a_00000127748962123329008240000017525451666577741208_" class="st3" d="M-127.3-63.4l-0.1,0.4l0.2,0.1"/>
						<g transform="scale(-1 1)">
							<path id="a_00000126311270888994025370000013942567169023710125_" class="st3" d="M-127.3-63.4l0.1,0.4l-0.2,0.1"/>
						</g>
					</g>
					<g transform="rotate(72)">
						<g id="b_00000016055460607421211020000001724939468447079317_">
							<path id="a_00000098908178148716246200000000015231112699574692_" class="st3" d="M-126.9-63.1h-0.4v0.2"/>
							<g transform="scale(-1 1)">
								<path id="a_00000008836777797730703620000002253357731566821033_" class="st3" d="M-126.9-63.1l-0.3,0.2l-0.1-0.2"/>
							</g>
						</g>
					</g>
				</g>
				<g transform="rotate(-72)">
					<g id="b_00000128451260983277869320000004787647625458884253_">
						<path id="a_00000157292388788051823110000013841680322519060613_" class="st3" d="M-127.6-63.1l0.3,0.2l0.1-0.2"/>
						<g transform="scale(-1 1)">
							<path id="a_00000089552600738359803300000005736555307703873427_" class="st3" d="M-127.6-63.1h0.4v0.2"/>
						</g>
					</g>
				</g>
				<g transform="rotate(144)">
					<g id="c_00000002368293009441875510000012105785619075062667_">
						<g id="b_00000122687389236852578620000012328394344605316525_">
							<path id="a_00000085959008665475836910000003929001765902163073_" class="st3" d="M-127.1-62.7l-0.1-0.4l-0.2,0.1"/>
							<g transform="scale(-1 1)">
								<path id="a_00000057150606213255442140000004913620870046050439_" class="st3" d="M-127.1-62.7l-0.3-0.2l0.1-0.2"/>
							</g>
						</g>
						<g transform="rotate(72)">
							<g id="b_00000131355549524278744120000012292221771994112174_">
								<path id="a_00000147925959352897439970000017910360831923725736_" class="st3" d="M-127.5-62.7l0.3-0.2l-0.1-0.2"/>
								<g transform="scale(-1 1)">
									<path id="a_00000034788342066546578900000015857961298525021827_" class="st3" d="M-127.5-62.7l0.1-0.4l0.2,0.1"/>
								</g>
							</g>
						</g>
					</g>
				</g>
			</g>
		</g>
	</g>
	<g>
		<g id="e_00000086684137000852757400000013772111940343993741_">
			<g id="d_00000053512167420527545650000001293389918810687109_">
				<g id="c_00000157305373119994526950000016466280738364894138_">
					<g id="b_00000028301599266303310900000006950689180209940382_">
						<path id="a_00000085958391463282449370000001306458910455355065_" class="st3" d="M-125.7-60.3l-0.1,0.4l0.2,0.1"/>
						<g transform="scale(-1 1)">
							<path id="a_00000066510415814291647060000012164402890043575186_" class="st3" d="M-125.7-60.3l0.1,0.4l-0.2,0.1"/>
						</g>
					</g>
					<g transform="rotate(72)">
						<g id="b_00000110438790403330930680000006126396975668870021_">
							<path id="a_00000091700156167948988440000008689848176961538980_" class="st3" d="M-125.4-60h-0.4v0.2"/>
							<g transform="scale(-1 1)">
								<path id="a_00000086687150570027715490000003696791544020026765_" class="st3" d="M-125.4-60l-0.3,0.2l-0.1-0.2"/>
							</g>
						</g>
					</g>
				</g>
				<g transform="rotate(-72)">
					<g id="b_00000064328392524483823700000009458090332209258934_">
						<path id="a_00000121241588600402190590000009099118294118240953_" class="st3" d="M-126.1-60l0.3,0.2l0.1-0.2"/>
						<g transform="scale(-1 1)">
							<path id="a_00000173861685608501403480000014218349598741159592_" class="st3" d="M-126.1-60h0.4v0.2"/>
						</g>
					</g>
				</g>
				<g transform="rotate(144)">
					<g id="c_00000171000922250842114440000000592760898687435407_">
						<g id="b_00000049185369715413488970000003866471040322473114_">
							<path id="a_00000114770879132342850730000011682119111820203941_" class="st3" d="M-125.5-59.6l-0.1-0.4l-0.2,0.1"/>
							<g transform="scale(-1 1)">
								<path id="a_00000016757689722533274120000017584390424305187496_" class="st3" d="M-125.5-59.6l-0.3-0.2l0.1-0.2"/>
							</g>
						</g>
						<g transform="rotate(72)">
							<g id="b_00000008846284646773094480000012902996181820626083_">
								<path id="a_00000028287573539188053200000003483348185890792591_" class="st3" d="M-126-59.6l0.3-0.2l-0.1-0.2"/>
								<g transform="scale(-1 1)">
									<path id="a_00000109751171646310814980000002109417513510850979_" class="st3" d="M-126-59.6l0.1-0.4l0.2,0.1"/>
								</g>
							</g>
						</g>
					</g>
				</g>
			</g>
			<g>
				<g id="d_00000021083883130925851130000000939929673541720713_">
					<g id="c_00000167356434747110769700000003055735430297137827_">
						<g id="b_00000006700880601012766030000013508658243348530850_">
							<path id="a_00000020368472442614672240000014173193600786193049_" class="st3" d="M-125.7-61.8l-0.1,0.4l0.2,0.1"/>
							<g transform="scale(-1 1)">
								<path id="a_00000060031009219073653790000017749129935445841334_" class="st3" d="M-125.7-61.8l0.1,0.4l-0.2,0.1"/>
							</g>
						</g>
						<g transform="rotate(72)">
							<g id="b_00000125560555897239469010000012458835220249013150_">
								<path id="a_00000039107354724272383100000016804600430821270717_" class="st3" d="M-125.4-61.6h-0.4v0.2"/>
								<g transform="scale(-1 1)">
									<path id="a_00000027579552048625267640000008807615994125948343_" class="st3" d="M-125.4-61.6l-0.3,0.2l-0.1-0.2"/>
								</g>
							</g>
						</g>
					</g>
					<g transform="rotate(-72)">
						<g id="b_00000062189526663132649070000000986004374074115254_">
							<path id="a_00000022534278307376758180000004057900786661561488_" class="st3" d="M-126.1-61.6l0.3,0.2l0.1-0.2"/>
							<g transform="scale(-1 1)">
								<path id="a_00000116220916956028098230000016344370326418778000_" class="st3" d="M-126.1-61.6h0.4v0.2"/>
							</g>
						</g>
					</g>
					<g transform="rotate(144)">
						<g id="c_00000180339261065816870620000011712368086088602007_">
							<g id="b_00000133505049834151498930000009089507629512078766_">
								<path id="a_00000054227901948365930800000000749387133581963395_" class="st3" d="M-125.5-61.1l-0.1-0.4l-0.2,0.1"/>
								<g transform="scale(-1 1)">
									<path id="a_00000165195016283472799070000003487551126335835576_" class="st3" d="M-125.5-61.1l-0.3-0.2l0.1-0.2"/>
								</g>
							</g>
							<g transform="rotate(72)">
								<g id="b_00000127730652283658491230000016238871412504563122_">
									<path id="a_00000180336015459181760380000016728860149123161216_" class="st3" d="M-126-61.1l0.3-0.2l-0.1-0.2"/>
									<g transform="scale(-1 1)">
										<path id="a_00000112607947512104562830000005080544157432269747_" class="st3" d="M-126-61.1l0.1-0.4l0.2,0.1"/>
									</g>
								</g>
							</g>
						</g>
					</g>
				</g>
			</g>
			<g>
				<g id="d_00000175303952668262815870000014528522394279833773_">
					<g id="c_00000053522559340252221540000016882662417822173853_">
						<g id="b_00000000219718382262637890000000060888925279694731_">
							<path id="a_00000078735108407979025570000000909236240611013816_" class="st3" d="M-125.7-63.4l-0.1,0.4l0.2,0.1"/>
							<g transform="scale(-1 1)">
								<path id="a_00000161612367509263045950000002882871098946126513_" class="st3" d="M-125.7-63.4l0.1,0.4l-0.2,0.1"/>
							</g>
						</g>
						<g transform="rotate(72)">
							<g id="b_00000136411994707251164330000008396219357121050557_">
								<path id="a_00000083793326674470779350000002458408611594497170_" class="st3" d="M-125.4-63.1h-0.4v0.2"/>
								<g transform="scale(-1 1)">
									<path id="a_00000128483142432714907700000014787308743767347602_" class="st3" d="M-125.4-63.1l-0.3,0.2l-0.1-0.2"/>
								</g>
							</g>
						</g>
					</g>
					<g transform="rotate(-72)">
						<g id="b_00000003817345954928812000000005645405083820008354_">
							<path id="a_00000093881564642949761180000000000575638992765882_" class="st3" d="M-126.1-63.1l0.3,0.2l0.1-0.2"/>
							<g transform="scale(-1 1)">
								<path id="a_00000049911644441559597400000009622639342123183001_" class="st3" d="M-126.1-63.1h0.4v0.2"/>
							</g>
						</g>
					</g>
					<g transform="rotate(144)">
						<g id="c_00000008137925237489437480000010621075252406707348_">
							<g id="b_00000040576893088124154470000005959377131790909602_">
								<path id="a_00000014614504372078205700000017625192070622230458_" class="st3" d="M-125.5-62.7l-0.1-0.4l-0.2,0.1"/>
								<g transform="scale(-1 1)">
									<path id="a_00000172403565218559414950000013519613396885323672_" class="st3" d="M-125.5-62.7l-0.3-0.2l0.1-0.2"/>
								</g>
							</g>
							<g transform="rotate(72)">
								<g id="b_00000023965535815873045340000007975749592230487684_">
									<path id="a_00000031900180323951005880000011227987535389109688_" class="st3" d="M-126-62.7l0.3-0.2l-0.1-0.2"/>
									<g transform="scale(-1 1)">
										<path id="a_00000091011713260717110320000003144689529183320196_" class="st3" d="M-126-62.7l0.1-0.4l0.2,0.1"/>
									</g>
								</g>
							</g>
						</g>
					</g>
				</g>
			</g>
		</g>
	</g>
	<g>
		<g id="e_00000076585537216477811020000002910122581178588319_">
			<g id="d_00000096757214047487938400000013752199178883815813_">
				<g id="c_00000183969149741563716170000005149752424757999272_">
					<g id="b_00000149366023357984784810000010767081930364322964_">
						<path id="a_00000131363607122429046770000012350049103960335747_" class="st3" d="M-124.2-60.3l-0.1,0.4l0.2,0.1"/>
						<g transform="scale(-1 1)">
							<path id="a_00000078037967808309520090000003531245993760354704_" class="st3" d="M-124.2-60.3l0.1,0.4l-0.2,0.1"/>
						</g>
					</g>
					<g transform="rotate(72)">
						<g id="b_00000025408402061346345560000008784653210218505860_">
							<path id="a_00000040577321181414357900000010976469311067270579_" class="st3" d="M-123.8-60h-0.4v0.2"/>
							<g transform="scale(-1 1)">
								<path id="a_00000128461690582382968340000014237978783436806832_" class="st3" d="M-123.8-60l-0.3,0.2l-0.1-0.2"/>
							</g>
						</g>
					</g>
				</g>
				<g transform="rotate(-72)">
					<g id="b_00000118364423687764121760000000541246683115857293_">
						<path id="a_00000121242157280104928470000007808589285433949342_" class="st3" d="M-124.6-60l0.3,0.2l0.1-0.2"/>
						<g transform="scale(-1 1)">
							<path id="a_00000083800409713350152690000007172534896554269108_" class="st3" d="M-124.6-60h0.4v0.2"/>
						</g>
					</g>
				</g>
				<g transform="rotate(144)">
					<g id="c_00000094594594911816999910000002664150093892987778_">
						<g id="b_00000055707348243245172260000005413950093691052696_">
							<path id="a_00000020371454836122475740000004381954594367554192_" class="st3" d="M-124-59.6l-0.1-0.4l-0.2,0.1"/>
							<g transform="scale(-1 1)">
								<path id="a_00000149383953035312803190000015317384744767662976_" class="st3" d="M-124-59.6l-0.3-0.2l0.1-0.2"/>
							</g>
						</g>
						<g transform="rotate(72)">
							<g id="b_00000008128922210710538350000001541927499848535476_">
								<path id="a_00000166641120230478566560000009246440362950845318_" class="st3" d="M-124.4-59.6l0.3-0.2l-0.1-0.2"/>
								<g transform="scale(-1 1)">
									<path id="a_00000071533525789646371880000002353034355608753560_" class="st3" d="M-124.4-59.6l0.1-0.4l0.2,0.1"/>
								</g>
							</g>
						</g>
					</g>
				</g>
			</g>
			<g>
				<g id="d_00000163777343833808888410000014532067018498925206_">
					<g id="c_00000158736883954784807580000017238298217980113583_">
						<g id="b_00000166652355772785068500000011709457937822707885_">
							<path id="a_00000018918869477392497290000012365686304577694852_" class="st3" d="M-124.2-61.8l-0.1,0.4l0.2,0.1"/>
							<g transform="scale(-1 1)">
								<path id="a_00000065050372418922375190000008304872973458334102_" class="st3" d="M-124.2-61.8l0.1,0.4l-0.2,0.1"/>
							</g>
						</g>
						<g transform="rotate(72)">
							<g id="b_00000114774301604012898140000017299466619323464100_">
								<path id="a_00000011713343751818899020000016910977681307040940_" class="st3" d="M-123.8-61.6h-0.4v0.2"/>
								<g transform="scale(-1 1)">
									<path id="a_00000065794785765634867100000002959760544070959280_" class="st3" d="M-123.8-61.6l-0.3,0.2l-0.1-0.2"/>
								</g>
							</g>
						</g>
					</g>
					<g transform="rotate(-72)">
						<g id="b_00000080183905527967480920000002206692916688900998_">
							<path id="a_00000114069306717778728260000002492573316019839366_" class="st3" d="M-124.6-61.6l0.3,0.2l0.1-0.2"/>
							<g transform="scale(-1 1)">
								<path id="a_00000116941543156535792650000009972586062272923822_" class="st3" d="M-124.6-61.6h0.4v0.2"/>
							</g>
						</g>
					</g>
					<g transform="rotate(144)">
						<g id="c_00000065034328503221785420000016427420225994795424_">
							<g id="b_00000021094747968346607250000013102254545496540090_">
								<path id="a_00000000202476809466917740000010405698878605254788_" class="st3" d="M-124-61.1l-0.1-0.4l-0.2,0.1"/>
								<g transform="scale(-1 1)">
									<path id="a_00000064323545847636324110000016629808983185987981_" class="st3" d="M-124-61.1l-0.3-0.2l0.1-0.2"/>
								</g>
							</g>
							<g transform="rotate(72)">
								<g id="b_00000089551294538068134930000015622413415207023038_">
									<path id="a_00000070120127274628852820000000184323895442060160_" class="st3" d="M-124.4-61.1l0.3-0.2l-0.1-0.2"/>
									<g transform="scale(-1 1)">
										<path id="a_00000180343339895068231310000008393831476380853378_" class="st3" d="M-124.4-61.1l0.1-0.4l0.2,0.1"/>
									</g>
								</g>
							</g>
						</g>
					</g>
				</g>
			</g>
			<g>
				<g id="d_00000164510051784003979750000000624856008419513789_">
					<g id="c_00000026864478710858368770000003093204211559401145_">
						<g id="b_00000149381094624291104140000018160551726235725477_">
							<path id="a_00000090286512902736624070000010518669228503380369_" class="st3" d="M-124.2-63.4l-0.1,0.4l0.2,0.1"/>
							<g transform="scale(-1 1)">
								<path id="a_00000138552338834339212830000001913796338623215782_" class="st3" d="M-124.2-63.4l0.1,0.4l-0.2,0.1"/>
							</g>
						</g>
						<g transform="rotate(72)">
							<g id="b_00000152944473031154319620000005650058134638528411_">
								<path id="a_00000113350182731050472140000001000439149116416689_" class="st3" d="M-123.8-63.1h-0.4v0.2"/>
								<g transform="scale(-1 1)">
									<path id="a_00000173154846972653715430000002721622769081479351_" class="st3" d="M-123.8-63.1l-0.3,0.2l-0.1-0.2"/>
								</g>
							</g>
						</g>
					</g>
					<g transform="rotate(-72)">
						<g id="b_00000130647164872767819720000008847656103472069024_">
							<path id="a_00000010307564822142132970000010118526608324276131_" class="st3" d="M-124.6-63.1l0.3,0.2l0.1-0.2"/>
							<g transform="scale(-1 1)">
								<path id="a_00000082370565298016309850000003549002449480505259_" class="st3" d="M-124.6-63.1h0.4v0.2"/>
							</g>
						</g>
					</g>
					<g transform="rotate(144)">
						<g id="c_00000133516262510529487810000015192187810803085747_">
							<g id="b_00000135653480128696980600000011765708128667828906_">
								<path id="a_00000113321685358357181650000002519585653187724699_" class="st3" d="M-124-62.7l-0.1-0.4l-0.2,0.1"/>
								<g transform="scale(-1 1)">
									<path id="a_00000049938636319832662540000013211599777001088400_" class="st3" d="M-124-62.7l-0.3-0.2l0.1-0.2"/>
								</g>
							</g>
							<g transform="rotate(72)">
								<g id="b_00000026875652468297123660000015222178615656979639_">
									<path id="a_00000029761309232707393170000014710730375039577257_" class="st3" d="M-124.4-62.7l0.3-0.2l-0.1-0.2"/>
									<g transform="scale(-1 1)">
										<path id="a_00000178173046315957287920000011366630282855895446_" class="st3" d="M-124.4-62.7l0.1-0.4l0.2,0.1"/>
									</g>
								</g>
							</g>
						</g>
					</g>
				</g>
			</g>
		</g>
	</g>
	<g>
		<g id="d_00000119806030881205480340000017191738963817579653_">
			<g id="c_00000054233075283966651240000008035109493206044820_">
				<g id="b_00000071541595409674151540000016423846059458627507_">
					<path id="a_00000022562204966055597260000014962209109603083966_" class="st3" d="M-130.4-60.3l-0.1,0.4l0.2,0.1"/>
					<g transform="scale(-1 1)">
						<path id="a_00000121255237702130822990000007476379362040281242_" class="st3" d="M-130.4-60.3l0.1,0.4l-0.2,0.1"/>
					</g>
				</g>
				<g transform="rotate(72)">
					<g id="b_00000140701192747872724440000012396877898325057957_">
						<path id="a_00000179623245773980344320000015085526298658497176_" class="st3" d="M-130-60h-0.4v0.2"/>
						<g transform="scale(-1 1)">
							<path id="a_00000098218969780542335640000015666846138221019799_" class="st3" d="M-130-60l-0.3,0.2l-0.1-0.2"/>
						</g>
					</g>
				</g>
			</g>
			<g transform="rotate(-72)">
				<g id="b_00000134251726069123821060000001761180344026533267_">
					<path id="a_00000050633474126839780450000009377869693429934242_" class="st3" d="M-130.7-60l0.3,0.2l0.1-0.2"/>
					<g transform="scale(-1 1)">
						<path id="a_00000045606361629584837410000002421975393259527058_" class="st3" d="M-130.7-60h0.4v0.2"/>
					</g>
				</g>
			</g>
			<g transform="rotate(144)">
				<g id="c_00000088849516922804291300000004795372036503823771_">
					<g id="b_00000031194182772181210060000013015513984279656845_">
						<path id="a_00000110441053970156668640000003292711860448058274_" class="st3" d="M-130.1-59.6l-0.1-0.4l-0.2,0.1"/>
						<g transform="scale(-1 1)">
							<path id="a_00000002378970129368390230000009630065365305069449_" class="st3" d="M-130.1-59.6l-0.3-0.2l0.1-0.2"/>
						</g>
					</g>
					<g transform="rotate(72)">
						<g id="b_00000011751566745312692310000010436718285031622590_">
							<path id="a_00000166653572403260197420000004440188394299181718_" class="st3" d="M-130.6-59.6l0.3-0.2l-0.1-0.2"/>
							<g transform="scale(-1 1)">
								<path id="a_00000134959775768332771530000015988198000573659818_" class="st3" d="M-130.6-59.6l0.1-0.4l0.2,0.1"/>
							</g>
						</g>
					</g>
				</g>
			</g>
		</g>
	</g>
	<g>
		<g id="d_00000138541507614925194960000005852702343219514518_">
			<g id="c_00000089552594290239621420000012565314364222440071_">
				<g id="b_00000067235922600107094390000008629882622586084527_">
					<path id="a_00000083806410070860215030000014813512709283198380_" class="st3" d="M-128.8-60.3l-0.1,0.4l0.2,0.1"/>
					<g transform="scale(-1 1)">
						<path id="a_00000141427223952875798260000000529907374456949412_" class="st3" d="M-128.8-60.3l0.1,0.4l-0.2,0.1"/>
					</g>
				</g>
				<g transform="rotate(72)">
					<g id="b_00000048466111520781957390000017475965114104404361_">
						<path id="a_00000042006471919934135990000015480782138278712496_" class="st3" d="M-128.5-60h-0.4v0.2"/>
						<g transform="scale(-1 1)">
							<path id="a_00000123436102079345239550000000752158627745242538_" class="st3" d="M-128.5-60l-0.3,0.2l-0.1-0.2"/>
						</g>
					</g>
				</g>
			</g>
			<g transform="rotate(-72)">
				<g id="b_00000050653641394908734220000000394719999196632483_">
					<path id="a_00000130644904328026020440000005365736850065780635_" class="st3" d="M-129.2-60l0.3,0.2l0.1-0.2"/>
					<g transform="scale(-1 1)">
						<path id="a_00000124850826283441965310000008037654555276801705_" class="st3" d="M-129.2-60h0.4v0.2"/>
					</g>
				</g>
			</g>
			<g transform="rotate(144)">
				<g id="c_00000168807418612009624880000016005803462337730947_">
					<g id="b_00000158719811982115820970000005178167022588413614_">
						<path id="a_00000091707642444754341750000007518107972885243526_" class="st3" d="M-128.6-59.6l-0.1-0.4l-0.2,0.1"/>
						<g transform="scale(-1 1)">
							<path id="a_00000121248541720699938320000015556332165678413206_" class="st3" d="M-128.6-59.6l-0.3-0.2l0.1-0.2"/>
						</g>
					</g>
					<g transform="rotate(72)">
						<g id="b_00000142149042967086648270000005780721751148928648_">
							<path id="a_00000132793387171214120910000014241336922218415515_" class="st3" d="M-129-59.6l0.3-0.2l-0.1-0.2"/>
							<g transform="scale(-1 1)">
								<path id="a_00000071518326100571351180000001809415169758302848_" class="st3" d="M-129-59.6l0.1-0.4l0.2,0.1"/>
							</g>
						</g>
					</g>
				</g>
			</g>
		</g>
	</g>
	<g>
		<g id="d_00000041256540242781339840000003324952881728916920_">
			<g id="c_00000178897724226001682450000017419893921513004419_">
				<g id="b_00000094591648447248903960000008308114557326448830_">
					<path id="a_00000082346393786008433750000008537996207275935676_" class="st3" d="M-128.8-61.8l-0.1,0.4l0.2,0.1"/>
					<g transform="scale(-1 1)">
						<path id="a_00000125578030747336534300000014843224761063391372_" class="st3" d="M-128.8-61.8l0.1,0.4l-0.2,0.1"/>
					</g>
				</g>
				<g transform="rotate(72)">
					<g id="b_00000057857692243288538740000014443213274636448941_">
						<path id="a_00000020391360341644047910000004326477657024843171_" class="st3" d="M-128.5-61.6h-0.4v0.2"/>
						<g transform="scale(-1 1)">
							<path id="a_00000008844544866000567730000006258822245159858092_" class="st3" d="M-128.5-61.6l-0.3,0.2l-0.1-0.2"/>
						</g>
					</g>
				</g>
			</g>
			<g transform="rotate(-72)">
				<g id="b_00000075841132641130528350000004855700512665022594_">
					<path id="a_00000180362578557212142310000005311803804022459804_" class="st3" d="M-129.2-61.6l0.3,0.2l0.1-0.2"/>
					<g transform="scale(-1 1)">
						<path id="a_00000026855691181144575330000007074857677734522812_" class="st3" d="M-129.2-61.6h0.4v0.2"/>
					</g>
				</g>
			</g>
			<g transform="rotate(144)">
				<g id="c_00000140692847289419385450000014341214029363628165_">
					<g id="b_00000108993316164937905880000018152030938093517447_">
						<path id="a_00000114791593373232940130000013806209958393076611_" class="st3" d="M-128.6-61.1l-0.1-0.4l-0.2,0.1"/>
						<g transform="scale(-1 1)">
							<path id="a_00000161620154702630411800000008340292909018287497_" class="st3" d="M-128.6-61.1l-0.3-0.2l0.1-0.2"/>
						</g>
					</g>
					<g transform="rotate(72)">
						<g id="b_00000065040008760558055810000012942158120125707912_">
							<path id="a_00000080189655377161431360000005042793925555572143_" class="st3" d="M-129-61.1l0.3-0.2l-0.1-0.2"/>
							<g transform="scale(-1 1)">
								<path id="a_00000126311843479426643900000011075908802567441329_" class="st3" d="M-129-61.1l0.1-0.4l0.2,0.1"/>
							</g>
						</g>
					</g>
				</g>
			</g>
		</g>
	</g>
</g>
</svg>
