<!-- Generated by IcoMoon.io -->
<svg version="1.1" xmlns="http://www.w3.org/2000/svg" width="49" height="32" viewBox="0 0 49 32">
<title>xk</title>
<path fill="#41479b" d="M47.995 31.998h-47.151c0 0 0 0 0 0-0.465 0-0.843-0.377-0.844-0.842v-30.314c0.001-0.465 0.379-0.842 0.844-0.842 0 0 0 0 0 0h47.151c0.465 0 0.842 0.377 0.842 0.842v0 30.314c0 0.465-0.377 0.842-0.842 0.842v0z"></path>
<path fill="#ff9b55" d="M25.498 10.881c-0.486-0.091-1.079-0.698-0.867-1.051s-0.184-1.105-0.658-0.842c-0.357 0.268-0.765 0.498-1.201 0.671l-0.036 0.013c-0.447 0.105-0.814 0.447-0.465 0.763s0.867 0.947 0.367 1.605-0.342 0.212-0.947 0.5-1.028 0.87-0.842 1.212 0.342 0.465-0.186 0.698-0.763 0.079-1.184 0.184c-0.694 0.219-1.287 0.591-1.762 1.078l-0.001 0.001c-0.316 0.449-1 0.028-1.288-0.026-0.029-0.003-0.064-0.005-0.098-0.005-0.38 0-0.712 0.2-0.899 0.5l-0.003 0.005c-0.133 0.342 0.105 0.658 0.605 0.816s0.712 0.184 0.465 0.605c-0.070 0.153-0.111 0.333-0.111 0.522 0 0.378 0.164 0.717 0.424 0.951l0.001 0.001c0.395 0.233 1.163 0.972 1.163 1.472s-0.105 1.237 0.633 1.342c0.904 0.057 1.701 0.471 2.26 1.101l0.003 0.003c0.273 0.43 0.475 0.934 0.575 1.474l0.004 0.026c0.073 0.463 0.211 0.879 0.406 1.261l-0.011-0.024c0.233 0.465 0.393 1.291 0.156 1.474s-0.421 0.316-0.233 0.67 0.233 0.488 0.565 0.291 0.342 0.012 0.526-0.028 1.026-0.342 0.87-0.749-0.5-1.342-0.014-1.828 1.144-0.567 1.565-0.895 1.119-0.381 1.658-0.907 1.119-0.212 1.209 0.156 0.233 1.079 0.658 1.067 0.514-0.014 0.593-0.528 0.737-1.656 1-1.512 0.5 0.026 0.512-0.198c0.063-0.158 0.215-0.268 0.392-0.268 0.135 0 0.256 0.064 0.333 0.163l0.001 0.001c0.209 0.314 0.67 0.565 0.656 0.17s-0.551-0.342-0.565-0.777 0.435-0.698 0.83-0.893 0.158-0.658 0.274-0.93 0.765-0.593 0.791-0.856-0.158-0.367 0.119-0.435 0.619-0.184 0.421-0.486-0.133-0.526 0.079-0.67 0.309-0.833 0-0.93c-0.038-0.004-0.081-0.006-0.125-0.006-0.338 0-0.645 0.13-0.876 0.342l0.001-0.001c-0.14 0.17-0.698-0.553-0.972-0.733s-1.991-0.070-1.951-0.365 0.763-1.395 0.447-1.553c-0.344-0.197-0.748-0.384-1.168-0.536l-0.055-0.018c-0.407-0.13-0.316 0.316-0.54-0.040s-0.302-1.628-0.551-1.628-0.435 0.528-0.54 0.33 0.040-1.565-0.54-1.593-0.593 0.316-0.93 0.067-0.274-0.086-0.942-0.226z"></path>
<path fill="#f5f5f5" d="M21.923 3.409l-0.437 1.312h-1.381c-0.043 0.001-0.078 0.036-0.078 0.079 0 0.026 0.012 0.048 0.031 0.063l0 0 1.112 0.821-0.416 1.319c-0.002 0.006-0.003 0.013-0.003 0.021 0 0.044 0.035 0.079 0.079 0.079 0.017 0 0.032-0.005 0.045-0.014l-0 0 1.123-0.802 1.126 0.802c0.012 0.009 0.028 0.014 0.045 0.014 0.044 0 0.079-0.035 0.079-0.079 0-0.007-0.001-0.015-0.003-0.021l0 0.001-0.416-1.319 1.112-0.821c0.019-0.015 0.031-0.037 0.031-0.063 0-0.043-0.035-0.078-0.077-0.079h-1.382l-0.437-1.312c-0.010-0.033-0.040-0.056-0.076-0.056s-0.065 0.023-0.075 0.055l-0 0.001z"></path>
<path fill="#f5f5f5" d="M26.793 3.409l-0.437 1.312h-1.381c-0.043 0.001-0.078 0.036-0.078 0.079 0 0.026 0.012 0.048 0.031 0.063l0 0 1.112 0.821-0.419 1.319c-0.002 0.006-0.003 0.013-0.003 0.021 0 0.044 0.035 0.079 0.079 0.079 0.017 0 0.032-0.005 0.045-0.014l-0 0 1.126-0.802 1.123 0.802c0.013 0.011 0.030 0.018 0.049 0.018 0.042 0 0.077-0.034 0.077-0.077 0-0.010-0.002-0.019-0.005-0.028l0 0.001-0.416-1.319 1.112-0.821c0.019-0.015 0.031-0.037 0.031-0.063 0-0.043-0.035-0.078-0.077-0.079h-1.382l-0.437-1.312c-0.011-0.031-0.040-0.052-0.074-0.052s-0.063 0.022-0.074 0.052l-0 0.001z"></path>
<path fill="#f5f5f5" d="M17.121 4.212l-0.437 1.312h-1.381c-0.042 0.002-0.075 0.037-0.075 0.079 0 0.026 0.012 0.048 0.031 0.063l0 0 1.109 0.821-0.416 1.319c-0.002 0.007-0.004 0.015-0.004 0.024 0 0.044 0.035 0.079 0.079 0.079 0.017 0 0.033-0.005 0.046-0.015l-0 0 1.126-0.805 1.123 0.805c0.013 0.009 0.028 0.014 0.046 0.014 0.044 0 0.079-0.035 0.079-0.079 0-0.008-0.001-0.017-0.004-0.024l0 0.001-0.416-1.319 1.112-0.821c0.019-0.015 0.031-0.037 0.031-0.063 0-0.043-0.035-0.078-0.077-0.079h-1.382l-0.437-1.312c-0.010-0.033-0.040-0.056-0.076-0.056s-0.065 0.023-0.075 0.055l-0 0.001z"></path>
<path fill="#f5f5f5" d="M12.579 5.863l-0.437 1.312h-1.381c-0.001 0-0.001-0-0.002-0-0.044 0-0.079 0.035-0.079 0.079 0 0.027 0.013 0.051 0.034 0.065l0 0 1.112 0.819-0.416 1.319c-0.002 0.007-0.004 0.015-0.004 0.024 0 0.044 0.035 0.079 0.079 0.079 0.017 0 0.033-0.005 0.046-0.015l-0 0 1.123-0.805 1.123 0.805c0.013 0.009 0.028 0.014 0.046 0.014 0.044 0 0.079-0.035 0.079-0.079 0-0.008-0.001-0.017-0.004-0.024l0 0.001-0.416-1.319 1.112-0.819c0.021-0.014 0.034-0.038 0.034-0.065 0-0.044-0.035-0.079-0.079-0.079-0.001 0-0.001 0-0.002 0h-1.381l-0.437-1.312c-0.011-0.031-0.040-0.052-0.074-0.052s-0.063 0.022-0.074 0.052l-0 0.001z"></path>
<path fill="#f5f5f5" d="M31.73 4.212l0.437 1.312h1.381c0.043 0.001 0.078 0.036 0.078 0.079 0 0.026-0.012 0.048-0.031 0.063l-0 0-1.112 0.821 0.416 1.319c0.002 0.007 0.004 0.015 0.004 0.024 0 0.044-0.035 0.079-0.079 0.079-0.017 0-0.033-0.005-0.046-0.015l0 0-1.123-0.805-1.123 0.805c-0.013 0.009-0.028 0.014-0.046 0.014-0.044 0-0.079-0.035-0.079-0.079 0-0.008 0.001-0.017 0.004-0.024l-0 0.001 0.416-1.319-1.112-0.821c-0.019-0.015-0.031-0.037-0.031-0.063 0-0.043 0.035-0.078 0.077-0.079h1.382l0.437-1.312c0.011-0.031 0.040-0.052 0.074-0.052s0.063 0.022 0.074 0.052l0 0.001z"></path>
<path fill="#f5f5f5" d="M36.279 5.863l0.437 1.312h1.381c0.043 0.003 0.076 0.038 0.076 0.081 0 0.025-0.012 0.048-0.030 0.063l-0 0-1.112 0.819 0.416 1.319c0.002 0.007 0.004 0.015 0.004 0.024 0 0.044-0.035 0.079-0.079 0.079-0.017 0-0.033-0.005-0.046-0.015l0 0-1.123-0.805-1.126 0.805c-0.013 0.009-0.028 0.014-0.045 0.014-0.044 0-0.079-0.035-0.079-0.079 0-0.008 0.001-0.017 0.004-0.024l-0 0.001 0.419-1.319-1.112-0.819c-0.021-0.014-0.034-0.038-0.034-0.065 0-0.044 0.035-0.079 0.079-0.079 0.001 0 0.001 0 0.002 0h1.381l0.437-1.312c0.011-0.031 0.040-0.052 0.074-0.052s0.063 0.022 0.074 0.052l0 0.001z"></path>
</svg>
