<svg xmlns="http://www.w3.org/2000/svg" width="30" height="30" viewBox="0 0 30 30">
  <g id="Group_46499" data-name="Group 46499" transform="translate(-173 -296)">
    <g id="Group_24139" data-name="Group 24139" transform="translate(173 296)">
      <path id="Rectangle_3410" data-name="Rectangle 3410" d="M6,0H24a6,6,0,0,1,6,6V23a0,0,0,0,1,0,0H0a0,0,0,0,1,0,0V6A6,6,0,0,1,6,0Z" fill="#a5a5a5"/>
      <path id="Rectangle_3411" data-name="Rectangle 3411" d="M0,0H30a0,0,0,0,1,0,0V1a6,6,0,0,1-6,6H6A6,6,0,0,1,0,1V0A0,0,0,0,1,0,0Z" transform="translate(0 23)" fill="#979797"/>
    </g>
    <g id="accessible_forward_black_24dp" transform="translate(179.151 300.473)">
      <path id="Path_6562" data-name="Path 6562" d="M0,0H16.774V16.774H0Z" fill="none"/>
      <circle id="Ellipse_380" data-name="Ellipse 380" cx="1.398" cy="1.398" r="1.398" transform="translate(11.183 1.775)" fill="#fff"/>
      <path id="Path_6563" data-name="Path 6563" d="M11.989,13.989h-1.4a2.1,2.1,0,1,1-2.1-2.1v-1.4a3.495,3.495,0,1,0,3.495,3.495Zm2.1-2.446h-1.3l1.167-2.565A1.4,1.4,0,0,0,12.66,7H9.026a1.431,1.431,0,0,0-1.307.839L7.251,9.1l1.342.37L9.047,8.4h1.545L9.312,11.263a1.446,1.446,0,0,0,1.293,2.027h3.481v3.495h1.4V12.941A1.4,1.4,0,0,0,14.086,11.543Z" transform="translate(-1.505 -2.107)" fill="#fff"/>
    </g>
  </g>
</svg>
