<?xml version="1.0" encoding="utf-8"?>
<!-- Generator: Adobe Illustrator 26.5.0, SVG Export Plug-In . SVG Version: 6.00 Build 0)  -->
<svg version="1.1" id="Layer_1" xmlns="http://www.w3.org/2000/svg" xmlns:xlink="http://www.w3.org/1999/xlink" x="0px" y="0px"
	 width="40px" height="40px" viewBox="0 0 40 40" style="enable-background:new 0 0 40 40;" xml:space="preserve">
<style type="text/css">
	.st0{fill:#EFC849;}
	.st1{fill:#CEAA35;}
	.st2{fill:none;}
</style>
<g id="Group_36741" transform="translate(0.03)">
	<g id="Group_36740" transform="translate(0 0)">
		<path id="Rectangle_16134" class="st0" d="M6,0h28c3.3,0,6,2.7,6,6v28c0,3.3-2.7,6-6,6H6c-3.3,0-6-2.7-6-6V6C0,2.7,2.7,0,6,0z"/>
		<path id="Rectangle_16135" class="st1" d="M0,32h40l0,0v2c0,3.3-2.7,6-6,6H6c-3.3,0-6-2.7-6-6V32L0,32z"/>
	</g>
	<g id="open_in_full_black_24dp" transform="translate(20.1 3.98)">
		<rect id="Rectangle_16136" x="0" y="0" class="st2" width="15.9" height="15.9"/>
	</g>
</g>
</svg>
