<svg id="Group_36743" data-name="Group 36743" xmlns="http://www.w3.org/2000/svg" width="40.017" height="40" viewBox="0 0 40.017 40">
  <g id="Group_36742" data-name="Group 36742" transform="translate(0 0)">
    <rect id="Rectangle_16137" data-name="Rectangle 16137" width="40" height="40" rx="6" transform="translate(0.017)" fill="#efc849"/>
    <path id="Rectangle_16138" data-name="Rectangle 16138" d="M0,0H40a0,0,0,0,1,0,0V1.96a6,6,0,0,1-6,6H6a6,6,0,0,1-6-6V0A0,0,0,0,1,0,0Z" transform="translate(0 32.04)" fill="#ceaa35"/>
  </g>
  <g id="open_in_full_black_24dp" transform="translate(20.1 3.98)">
    <rect id="Rectangle_16139" data-name="Rectangle 16139" width="15.92" height="15.92" fill="none"/>
    <path id="Path_10632" data-name="Path 10632" d="M16.267,8.9V3h-5.9L12.8,5.425,5.425,12.8,3,10.37v5.9H8.9L6.471,13.842l7.37-7.37Z" transform="translate(-1.673 -1.673)" fill="#505050"/>
  </g>
</svg>
