<svg id="Group_47137" data-name="Group 47137" xmlns="http://www.w3.org/2000/svg" width="40" height="40" viewBox="0 0 40 40">
  <g id="Group_36766" data-name="Group 36766" transform="translate(0 0)">
    <rect id="Rectangle_16167" data-name="Rectangle 16167" width="40" height="40" rx="6" fill="#1368a6"/>
    <path id="Rectangle_16168" data-name="Rectangle 16168" d="M0,0H40a0,0,0,0,1,0,0V1.96a6,6,0,0,1-6,6H6a6,6,0,0,1-6-6V0A0,0,0,0,1,0,0Z" transform="translate(0 32.04)" fill="#0f578b"/>
  </g>
  <g id="open_in_full_black_24dp" transform="translate(20.1 3.98)">
    <rect id="Rectangle_16169" data-name="Rectangle 16169" width="15.92" height="15.92" fill="none"/>
    <path id="Path_10642" data-name="Path 10642" d="M8.633,12.662l4.1,2.6-1.088-4.909,3.622-3.3L10.5,6.629,8.633,2,6.769,6.629,2,7.055l3.622,3.3L4.534,15.267Z" transform="translate(-0.673 -0.673)" fill="#fff"/>
  </g>
</svg>
