<?xml version="1.0" encoding="utf-8"?>
<!-- Generator: Adobe Illustrator 26.5.0, SVG Export Plug-In . SVG Version: 6.00 Build 0)  -->
<svg version="1.1" id="Layer_1" xmlns="http://www.w3.org/2000/svg" x="0px" y="0px"
     width="40" height="40" viewBox="0 0 40 40" style="enable-background:new 0 0 40 40;" xml:space="preserve">
<style type="text/css">
	.st0{fill:#DADADA;}
	.st1{fill:#E8F0FE;}
	.st2{fill:#9294A6;}
</style>
<g>
	<path class="st0" d="M9.9,0.8H30c5,0,9.1,4.1,9.1,9.1v18.4c0,5-4.1,9.1-9.1,9.1H9.9c-5,0-9.1-4.1-9.1-9.1V9.9
		C0.7,4.8,4.8,0.8,9.9,0.8z"/>
	<path class="st1" d="M30,38.2H9.9c-5.5,0-9.9-4.4-9.9-9.9V9.9C0,4.4,4.4,0,9.9,0H30c5.5,0,9.9,4.4,9.9,9.9v18.4
		C39.9,33.7,35.5,38.2,30,38.2z M9.9,1.5c-4.6,0-8.4,3.8-8.4,8.4v18.4c0,4.6,3.8,8.4,8.4,8.4H30c4.6,0,8.4-3.8,8.4-8.4V9.9
		c0-4.6-3.8-8.4-8.4-8.4H9.9z"/>
	<path class="st0" d="M5.5,29.8h29c2.6,0,4.7,2.1,4.7,4.7l0,0c0,2.6-2.1,4.7-4.7,4.7h-29c-2.6,0-4.7-2.1-4.7-4.7l0,0
		C0.7,31.9,2.9,29.8,5.5,29.8z"/>
	<path class="st1" d="M34.4,40H5.5c-3,0-5.5-2.4-5.5-5.5S2.4,29,5.5,29h29c3,0,5.5,2.4,5.5,5.5S37.5,40,34.4,40z M5.5,30.6
		c-2.2,0-4,1.8-4,4s1.8,4,4,4h29c2.2,0,4-1.8,4-4s-1.8-4-4-4C34.5,30.6,5.5,30.6,5.5,30.6z"/>
	<polygon class="st2" points="26.6,21.6 21.4,16.3 26.6,11 25.2,9.6 19.9,14.9 14.7,9.6 13.2,11 18.5,16.3 13.2,21.6 14.7,23
		19.9,17.7 25.2,23 	"/>
</g>
</svg>
