<?xml version="1.0" encoding="utf-8"?>
<!-- Generator: Adobe Illustrator 26.5.0, SVG Export Plug-In . SVG Version: 6.00 Build 0)  -->
<svg version="1.1" id="Layer_1" xmlns="http://www.w3.org/2000/svg" xmlns:xlink="http://www.w3.org/1999/xlink" x="0px" y="0px"
	 viewBox="0 0 90 90" style="enable-background:new 0 0 90 90;" xml:space="preserve">
<style type="text/css">
	.st0{fill:#AECBFA;}
	.st1{clip-path:url(#SVGID_00000163033576495577221360000006387373553428106642_);}
	.st2{fill:#252668;}
	.st3{fill:#FF6A73;}
	.st4{fill:#FFFFFF;}
</style>
<g id="Group_48337" transform="translate(1111 4.75)">
	<rect id="Rectangle_29261" x="-1031" y="16.3" class="st0" width="1.8" height="64.7"/>
	<g id="Group_49286">
		<g>
			<defs>
				<rect id="SVGID_1_" x="-1111" y="-1" width="90" height="82.5"/>
			</defs>
			<clipPath id="SVGID_00000040551292822312041510000002777667602877122997_">
				<use xlink:href="#SVGID_1_"  style="overflow:visible;"/>
			</clipPath>
			<g id="Group_49285" style="clip-path:url(#SVGID_00000040551292822312041510000002777667602877122997_);">
				<path id="Path_14567" class="st2" d="M-1029.2,81.5h-1.8c-0.2,0-0.4-0.2-0.4-0.4V16.3c0-0.2,0.2-0.4,0.4-0.4h1.8
					c0.2,0,0.4,0.2,0.4,0.4v64.7C-1028.8,81.3-1029,81.5-1029.2,81.5 M-1030.6,80.6h0.9V16.8h-0.9V80.6z"/>
				<path id="Path_14568" class="st3" d="M-1099.5,81.1h-4.1l3.6-15.9h4.1L-1099.5,81.1z"/>
				<path id="Path_14569" class="st2" d="M-1099.5,81.5h-4.1c-0.2,0-0.4-0.2-0.4-0.4c0,0,0-0.1,0-0.1l3.6-15.9
					c0-0.2,0.2-0.3,0.4-0.3h4.1c0.2,0,0.4,0.2,0.4,0.4c0,0,0,0.1,0,0.1l-3.6,15.9C-1099.1,81.4-1099.3,81.5-1099.5,81.5 M-1103,80.6
					h3.2l3.4-15h-3.2L-1103,80.6z"/>
				<path id="Path_14570" class="st3" d="M-1063.4,81.1h4.1l-3.6-15.9h-4.1L-1063.4,81.1z"/>
				<path id="Path_14571" class="st2" d="M-1059.3,81.5h-4.1c-0.2,0-0.4-0.1-0.4-0.3l-3.6-15.9c-0.1-0.2,0.1-0.5,0.3-0.5
					c0,0,0.1,0,0.1,0h4.1c0.2,0,0.4,0.1,0.4,0.3l3.6,15.9C-1058.8,81.2-1059,81.4-1059.3,81.5C-1059.2,81.5-1059.3,81.5-1059.3,81.5
					 M-1063,80.6h3.2l-3.4-15h-3.2L-1063,80.6z"/>
				<path id="Path_14572" class="st4" d="M-1058.8,38.4c-0.7,0.2-1.3,0.8-1.4,1.5l-2.4,17.1c-0.1,0.9-0.9,1.6-1.8,1.6h-34
					c-0.9,0-1.7-0.7-1.8-1.6l-2.4-17.1c-0.1-0.7-0.7-1.4-1.4-1.5l0.5-8.5c0.3-4.8,4.3-8.5,9.1-8.5h25.9c4.8,0,8.8,3.7,9.1,8.5
					L-1058.8,38.4z"/>
				<path id="Path_14573" class="st2" d="M-1064.4,59.1h-34c-1.1,0-2.1-0.8-2.2-1.9l-2.4-17.1c-0.1-0.6-0.5-1-1.1-1.1l-0.4-0.1
					l0.6-8.9c0.3-5,4.5-8.9,9.5-8.9h25.9c5,0,9.2,3.9,9.5,9l0.6,8.9l-0.4,0.1c-0.6,0.1-1,0.6-1.1,1.1l-2.4,17.1
					C-1062.4,58.2-1063.3,59.1-1064.4,59.1 M-1103.6,38.1c0.7,0.3,1.3,1,1.4,1.8l2.4,17.1c0.1,0.7,0.7,1.2,1.3,1.2h34
					c0.7,0,1.3-0.5,1.3-1.2l2.4-17.1c0.1-0.8,0.6-1.5,1.4-1.8l-0.5-8.2c-0.3-4.6-4.1-8.1-8.7-8.1h-25.9c-4.6,0-8.4,3.6-8.7,8.1
					L-1103.6,38.1z"/>
				<path id="Path_14574" class="st0" d="M-1062.2,53.8c0.3-2.2-1.2-4.3-3.4-4.6c-0.1,0-0.3,0-0.4,0c-3.7-0.1-8.9-0.3-12.8-0.3h-5.2
					c-3,0-8.8,0.2-12.8,0.3c-2.2,0.1-4,2-3.9,4.2c0,0.1,0,0.3,0,0.4l0.7,4.8h37.1L-1062.2,53.8z"/>
				<path id="Path_14575" class="st2" d="M-1062.9,59.1h-37.1c-0.2,0-0.4-0.2-0.4-0.4l-0.7-4.8c-0.3-2.5,1.4-4.7,3.8-5.1
					c0.2,0,0.3,0,0.5,0c4.2-0.2,9.9-0.3,12.8-0.3h5.2c3.9,0,9.2,0.2,12.9,0.3c2.5,0.1,4.4,2.2,4.3,4.7c0,0.2,0,0.3,0,0.4l-0.7,4.8
					C-1062.5,58.9-1062.6,59.1-1062.9,59.1 M-1099.6,58.2h36.4l0.6-4.5c0.3-2-1.1-3.8-3.1-4.1c-0.1,0-0.2,0-0.4,0
					c-3.7-0.1-8.9-0.3-12.8-0.3h-5.2c-3,0-8.6,0.2-12.8,0.3c-2,0.1-3.5,1.7-3.5,3.7c0,0.1,0,0.2,0,0.4L-1099.6,58.2z"/>
				<path id="Path_14576" class="st0" d="M-1052.3,40.4l-2.6,18.2c-0.6,4.5-4.5,7.9-9.1,7.9h-34.9c-4.6,0-8.4-3.4-9.1-7.9l-2.6-18.2
					c-0.1-1,0.5-1.9,1.5-2c0.1,0,0.2,0,0.3,0h4.3c0.1,0,0.3,0,0.4,0c0.7,0.2,1.3,0.8,1.4,1.5l2.4,17.1c0.1,0.9,0.9,1.6,1.8,1.6h34
					c0.9,0,1.7-0.7,1.8-1.6l2.4-17.1c0.1-0.7,0.7-1.4,1.4-1.5c0.1,0,0.3,0,0.4,0h4.3c1,0,1.8,0.8,1.8,1.8
					C-1052.3,40.3-1052.3,40.3-1052.3,40.4"/>
				<path id="Path_14577" class="st2" d="M-1064,67h-34.9c-4.8,0-8.8-3.5-9.5-8.3l-2.6-18.2c-0.2-1.2,0.7-2.4,1.9-2.5
					c0.1,0,0.2,0,0.3,0h4.3c0.2,0,0.3,0,0.5,0.1c0.9,0.2,1.6,1,1.8,1.9l2.4,17.1c0.1,0.7,0.7,1.2,1.3,1.2h34c0.7,0,1.3-0.5,1.3-1.2
					l2.4-17.1c0.2-1.1,1.1-1.9,2.2-1.9h4.3c1.2,0,2.2,1,2.3,2.2c0,0.1,0,0.2,0,0.3l-2.6,18.2C-1055.1,63.5-1059.2,67-1064,67
					 M-1108.8,38.8c-0.8,0-1.4,0.6-1.4,1.4c0,0.1,0,0.1,0,0.2l2.6,18.2c0.6,4.3,4.3,7.5,8.6,7.5h34.9c4.3,0,8-3.2,8.6-7.5l2.6-18.2
					l0,0c0.1-0.7-0.4-1.4-1.1-1.5c-0.1,0-0.1,0-0.2,0h-4.3c-0.1,0-0.2,0-0.3,0c-0.6,0.1-1,0.6-1.1,1.1l-2.4,17.1
					c-0.2,1.1-1.1,1.9-2.2,1.9h-34c-1.1,0-2.1-0.8-2.2-1.9l-2.4-17.1c-0.1-0.6-0.5-1-1.1-1.1c-0.1,0-0.2,0-0.3,0L-1108.8,38.8z"/>
				<path id="Path_14578" class="st2" d="M-1087.9,30.4c0,0.6-0.5,1.2-1.2,1.2c-0.6,0-1.2-0.5-1.2-1.2c0-0.6,0.5-1.2,1.2-1.2l0,0
					C-1088.4,29.2-1087.9,29.8-1087.9,30.4"/>
				<path id="Path_14579" class="st2" d="M-1072.7,30.4c0,0.6-0.5,1.2-1.2,1.2s-1.2-0.5-1.2-1.2c0-0.6,0.5-1.2,1.2-1.2l0,0
					C-1073.2,29.2-1072.7,29.8-1072.7,30.4"/>
				<path id="Path_14580" class="st2" d="M-1087.9,41.6c0,0.6-0.5,1.2-1.2,1.2c-0.6,0-1.2-0.5-1.2-1.2c0-0.6,0.5-1.2,1.2-1.2
					C-1088.4,40.5-1087.9,41-1087.9,41.6L-1087.9,41.6"/>
				<path id="Path_14581" class="st2" d="M-1072.7,41.6c0,0.6-0.5,1.2-1.2,1.2s-1.2-0.5-1.2-1.2c0-0.6,0.5-1.2,1.2-1.2
					S-1072.7,41-1072.7,41.6L-1072.7,41.6"/>
				<path id="Path_14582" class="st4" d="M-1035,77V51.9h-2.9V77c0,1.1-0.9,2-2,2l0,0h-2.6c-0.6,0-1,0.5-1,1s0.5,1,1,1l0,0h12.1
					c0.6,0,1-0.5,1-1s-0.5-1-1-1h-2.6C-1034.1,79-1035,78.1-1035,77L-1035,77"/>
				<path id="Path_14583" class="st2" d="M-1030.4,81.5h-12.1c-0.8,0-1.5-0.7-1.5-1.5c0-0.8,0.7-1.5,1.5-1.5h2.6
					c0.9,0,1.6-0.7,1.6-1.6V51.5h3.8V77c0,0.9,0.7,1.6,1.6,1.6h2.6c0.8,0,1.5,0.7,1.5,1.5C-1029,80.8-1029.6,81.5-1030.4,81.5
					 M-1042.5,79.5c-0.3,0-0.6,0.3-0.6,0.6s0.3,0.6,0.6,0.6h12.1c0.3,0,0.6-0.3,0.6-0.6s-0.3-0.6-0.6-0.6h-2.6
					c-1.4,0-2.5-1.1-2.5-2.5V52.4h-2V77c0,1.4-1.1,2.5-2.5,2.5L-1042.5,79.5z"/>
				<path id="Path_14584" class="st3" d="M-1024.6,52.6h-23.7c-0.7,0-1.3-0.6-1.3-1.3V51c0-0.7,0.6-1.3,1.3-1.3h23.7
					c0.7,0,1.3,0.6,1.3,1.3v0.3C-1023.3,52.1-1023.9,52.6-1024.6,52.6"/>
				<path id="Path_14585" class="st2" d="M-1024.6,53.1h-23.7c-1,0-1.7-0.8-1.7-1.7V51c0-1,0.8-1.7,1.7-1.7h23.7
					c1,0,1.7,0.8,1.7,1.7v0.3C-1022.8,52.3-1023.6,53.1-1024.6,53.1 M-1048.3,50.2c-0.5,0-0.8,0.4-0.8,0.8v0v0.3
					c0,0.5,0.4,0.8,0.8,0.8l0,0h23.7c0.5,0,0.8-0.4,0.8-0.8V51c0-0.5-0.4-0.8-0.8-0.8H-1048.3z"/>
				<path id="Path_14586" class="st4" d="M-1040.6,40.9l-2,3l-2.1-3.2c0.8,0,1.7,0,2.5,0.2c0.2,0,0.4,0.1,0.7,0.1
					C-1041.2,41-1040.9,40.9-1040.6,40.9"/>
				<path id="Path_14587" class="st2" d="M-1038.6,38.8c-0.1-0.1-0.2-0.2-0.3-0.2h-1.9l0.6-0.9c0.1-0.1,0-0.3-0.1-0.3
					c-0.1-0.1-0.3,0-0.3,0.1c0,0,0,0,0,0l-0.7,1.1h-4.8c-0.2,0-0.4,0.2-0.4,0.4c0,0.1,0,0.1,0.1,0.2l0.5,0.8l3,4.6v3.9h-1.4
					c-0.2,0-0.4,0.2-0.4,0.4s0.2,0.4,0.4,0.4c0,0,0,0,0,0h3.6c0.2,0,0.4-0.2,0.4-0.4c0-0.2-0.2-0.4-0.4-0.4h-1.4v-3.9l3-4.6l0.5-0.8
					C-1038.6,39.1-1038.6,38.9-1038.6,38.8 M-1045.1,40l-0.4-0.6h3.7l-0.4,0.6l-0.2,0.3c0,0,0,0,0,0c-0.8-0.2-1.6-0.2-2.5-0.1
					L-1045.1,40z M-1042.6,43.9l-2.1-3.2c0.8,0,1.7,0,2.5,0.2c0.2,0,0.4,0.1,0.7,0.1c0.3,0,0.6,0,0.9-0.1L-1042.6,43.9z M-1040,40
					l-0.2,0.4c-0.1,0-0.2,0-0.3,0c-0.5,0.1-0.9,0.1-1.4,0l0.3-0.5l0.4-0.6h1.7L-1040,40z"/>
				<path id="Path_14588" class="st4" d="M-1022,11.2h-16.4l0.8-7l0.2-1.9l0.2-2.1c0-0.4,0.4-0.7,0.8-0.7h12.1
					c0.4,0,0.8,0.3,0.8,0.7l0.2,2.1l0.2,1.9L-1022,11.2z"/>
				<path id="Path_14589" class="st2" d="M-1021.5,11.7h-17.4l1.4-11.5c0.1-0.6,0.6-1.1,1.3-1.1h12.1c0.7,0,1.2,0.5,1.3,1.1
					L-1021.5,11.7z M-1037.8,10.8h15.4l-1.2-10.5c0-0.2-0.2-0.3-0.4-0.3h-12.1c-0.2,0-0.4,0.1-0.4,0.3L-1037.8,10.8z"/>
				<path id="Path_14590" class="st4" d="M-1022.2,16.3h-15.9c-0.4,0-0.7-0.3-0.7-0.7c0,0,0-0.1,0-0.1l0.2-1.8h16.9l0.2,1.8
					C-1021.4,15.9-1021.7,16.3-1022.2,16.3C-1022.1,16.3-1022.1,16.3-1022.2,16.3"/>
				<path id="Path_14591" class="st2" d="M-1022.2,16.8h-15.9c-0.6,0-1.2-0.5-1.2-1.2c0,0,0-0.1,0-0.1l0.3-2.2h17.7l0.3,2.2
					c0.1,0.6-0.4,1.2-1,1.3C-1022.1,16.8-1022.1,16.8-1022.2,16.8 M-1038.2,14.2l-0.2,1.4c0,0.1,0.1,0.3,0.2,0.3c0,0,0,0,0,0h15.9
					c0.1,0,0.3-0.1,0.3-0.3c0,0,0,0,0,0l-0.2-1.4H-1038.2z"/>
				<path id="Path_14592" class="st4" d="M-1021.7,13.8h-16.9l0.3-2.6h16.4L-1021.7,13.8z"/>
				<path id="Path_14593" class="st2" d="M-1021.2,14.2h-17.9l0.4-3.4h17.2L-1021.2,14.2z M-1038.1,13.3h15.9l-0.2-1.7h-15.6
					L-1038.1,13.3z"/>
				<path id="Path_14594" class="st2" d="M-1035.7,24C-1035.7,24-1035.7,24-1035.7,24c-0.3,0-0.5-0.3-0.4-0.5c0,0,0,0,0,0l0.9-4.9
					c0.1-0.2,0.3-0.4,0.5-0.3c0.2,0,0.4,0.3,0.4,0.5l-0.9,4.9C-1035.3,23.9-1035.4,24-1035.7,24"/>
				<path id="Path_14595" class="st2" d="M-1038.5,24C-1038.6,24-1038.6,24-1038.5,24c-0.3-0.1-0.5-0.3-0.4-0.5l1.1-4.8
					c0.1-0.2,0.3-0.4,0.5-0.3s0.4,0.3,0.3,0.5l-1.1,4.8C-1038.2,23.9-1038.3,24-1038.5,24"/>
				<path id="Path_14596" class="st2" d="M-1021.7,24c-0.2,0-0.4-0.1-0.4-0.3l-1.1-4.8c-0.1-0.2,0.1-0.5,0.3-0.5
					c0.2-0.1,0.5,0.1,0.5,0.3l0,0l1.1,4.8C-1021.2,23.7-1021.4,24-1021.7,24C-1021.7,24-1021.7,24-1021.7,24"/>
				<path id="Path_14597" class="st2" d="M-1024.6,24c-0.2,0-0.4-0.2-0.4-0.4l-0.9-4.9c0-0.2,0.1-0.5,0.4-0.5c0.2,0,0.5,0.1,0.5,0.4
					l0.9,4.9C-1024.1,23.8-1024.3,24-1024.6,24C-1024.5,24-1024.5,24-1024.6,24C-1024.6,24-1024.6,24-1024.6,24"/>
			</g>
		</g>
	</g>
</g>
</svg>
