<svg xmlns="http://www.w3.org/2000/svg" xmlns:xlink="http://www.w3.org/1999/xlink" width="1104.498" height="417.002" viewBox="0 0 1104.498 417.002">
  <defs>
    <linearGradient id="linear-gradient" x1="0.5" x2="0.5" y2="1" gradientUnits="objectBoundingBox">
      <stop offset="0" stop-color="#f7faff"/>
      <stop offset="1" stop-color="#f1f4fb"/>
    </linearGradient>
    <linearGradient id="linear-gradient-3" x1="0.5" x2="0.5" y2="1" gradientUnits="objectBoundingBox">
      <stop offset="0" stop-color="#c1d7fd"/>
      <stop offset="1" stop-color="#a7bef5"/>
    </linearGradient>
    <linearGradient id="linear-gradient-4" x1="0.5" x2="0.5" y2="1" gradientUnits="objectBoundingBox">
      <stop offset="0" stop-color="#dbe6fc"/>
      <stop offset="1" stop-color="#e8f0fe"/>
    </linearGradient>
    <clipPath id="clip-path">
      <rect id="Rectangle_30945" data-name="Rectangle 30945" width="200.394" height="173.894" fill="none"/>
    </clipPath>
    <clipPath id="clip-path-2">
      <rect id="Rectangle_30926" data-name="Rectangle 30926" width="174.147" height="250.28" fill="none"/>
    </clipPath>
    <linearGradient id="linear-gradient-9" y1="1" x2="0.002" y2="1" gradientUnits="objectBoundingBox">
      <stop offset="0" stop-color="#fff"/>
      <stop offset="1" stop-color="#edf4f9"/>
    </linearGradient>
    <clipPath id="clip-path-4">
      <rect id="Rectangle_30952" data-name="Rectangle 30952" width="140.856" height="255.061" fill="none"/>
    </clipPath>
  </defs>
  <g id="Group_54478" data-name="Group 54478" transform="translate(-20052.502 5836.002)">
    <rect id="aa" width="1103" height="99" rx="4" transform="translate(20053 -5518)" fill="#e8f0fe"/>
    <g id="Group_54477" data-name="Group 54477" transform="translate(-158.529 -187.745)">
      <path id="Path_15535" data-name="Path 15535" d="M743.444,490.578c-2.329.209,483.271,0,483.271,0s-23.229-15.916-54.7-12.669-51.573,7.785-91.244,3.651-43.132-5.673-43.132-5.673-11.028-2.611-30.355-8.795-35.911-13.423-79.253,0-35.615,12.04-51.268,14.378-30.216,4.875-50.809-4.355-23.926-10.593-49.8.772S745.773,490.369,743.444,490.578Z" transform="translate(19697 -5994.877)" fill="url(#linear-gradient)"/>
      <path id="Path_15536" data-name="Path 15536" d="M743.44,481.283c-1.111.146,230.462,0,230.462,0s-11.078-11.155-26.088-8.88-24.594,5.456-43.512,2.559-20.569-3.976-20.569-3.976-5.259-1.83-14.476-6.164-17.125-9.408-37.794,0-16.984,8.438-24.449,10.077-14.409,3.417-24.23-3.053-11.41-7.424-23.75.541S744.55,481.136,743.44,481.283Z" transform="translate(20031.732 -6056.854)" fill="url(#linear-gradient)"/>
    </g>
    <path id="Union_341" data-name="Union 341" d="M.5,324v-7h162V188.5H0v-4H162.5V0h4V184.5h180V0h4V184.5h183V0h4V184.5h183V0h4V184.5h180V0h4V184.5H1104v4H908.5V317h195v7Zm904-7V188.5h-180V317Zm-184,0V188.5h-183V317Zm-187,0V188.5h-183V317Zm-187,0V188.5h-180V317Z" transform="translate(20052.5 -5836)" fill="url(#linear-gradient-3)"/>
    <g id="Group_54475" data-name="Group 54475">
      <rect id="Rectangle_30979" data-name="Rectangle 30979" width="1104" height="7" transform="translate(20053 -5512)" fill="#dbe6fc"/>
      <rect id="Rectangle_30980" data-name="Rectangle 30980" width="4" height="66" transform="translate(20957 -5506)" fill="url(#linear-gradient-4)"/>
      <rect id="Rectangle_30981" data-name="Rectangle 30981" width="4" height="66" transform="translate(20773 -5506)" fill="url(#linear-gradient-4)"/>
      <rect id="Rectangle_30982" data-name="Rectangle 30982" width="4" height="66" transform="translate(20586 -5506)" fill="url(#linear-gradient-4)"/>
      <rect id="Rectangle_30983" data-name="Rectangle 30983" width="4" height="66" transform="translate(20399 -5506)" fill="url(#linear-gradient-4)"/>
      <rect id="Rectangle_30984" data-name="Rectangle 30984" width="4" height="66" transform="translate(20215 -5506)" fill="url(#linear-gradient-4)"/>
    </g>
    <g id="Group_54473" data-name="Group 54473" transform="translate(-692.656 1885)">
      <g id="Group_54327" data-name="Group 54327" transform="translate(21225.072 -7718.003)">
        <path id="Path_15417" data-name="Path 15417" d="M1061.573,1110.409l-.227-.559-.622-.007Z" transform="translate(-922.107 -964.806)" fill="#fff"/>
        <path id="Path_15418" data-name="Path 15418" d="M851.351,1134.583l-1-4.751-1.791,4.536Z" transform="translate(-737.673 -982.182)" fill="#fff"/>
        <g id="Group_54318" data-name="Group 54318" transform="translate(7 -2.997)">
          <g id="Group_54317" data-name="Group 54317" clip-path="url(#clip-path)">
            <path id="Path_15419" data-name="Path 15419" d="M966.891,955.283h0" transform="translate(-840.535 -830.445)" fill="#fff"/>
            <path id="Path_15420" data-name="Path 15420" d="M699.368,573.013l.047,0c-.063,0-.058,0-.047,0" transform="translate(-607.967 -498.129)" fill="#fff"/>
            <path id="Path_15421" data-name="Path 15421" d="M989.821,969.893l.009.02,0,.005-.011-.026" transform="translate(-860.466 -843.137)" fill="#fff"/>
            <path id="Path_15422" data-name="Path 15422" d="M167.376,130.363c-46.272-42-97.9-38.3-129.382-36.111,8.522,2.441,13.151,26.288,4.381,33.333,10.817,3.669,36.76,27.341,37.684,46.066,5.856-2.762,22.973,5.41,38.688,17.34,15.057,12.752,26.749,27.688,25.324,34,18.48-3.162,47.217,17.024,53.146,26.787,4.976-10.09,29.257-10.747,33.49-2.958-4.694-31.211-12.291-82.406-63.331-118.461" transform="translate(-33.029 -80.903)" fill="#697fc5"/>
            <path id="Path_15423" data-name="Path 15423" d="M145.882,198.449c-20.347.97-47.474,11.521-66.306,20.34Z" transform="translate(-69.177 -172.516)" fill="#7d96df"/>
            <path id="Path_15424" data-name="Path 15424" d="M340.116,706.762l-2.836,2.692s1.448-1.269,2.836-2.692" transform="translate(-293.204 -614.402)" fill="#fff"/>
            <path id="Path_15425" data-name="Path 15425" d="M339.143,707.538c-.085.077-.175.154-.262.237l-.265.251-.258.257c-.086.084-.166.172-.246.254-.161.161-.31.314-.433.45-.249.269-.4.467-.4.467s.211-.129.506-.353c.074-.055.154-.116.236-.182s.172-.134.258-.21.175-.154.262-.238l.265-.25.258-.257c.086-.084.166-.172.245-.254.158-.167.3-.326.42-.466.241-.278.384-.481.384-.481s-.207.138-.493.37c-.144.115-.307.254-.479.406" transform="translate(-293.203 -614.402)"/>
            <path id="Path_15426" data-name="Path 15426" d="M52.007,354.946c-.1.037-.214.071-.323.113l-.33.123-.327.132c-.108.042-.212.091-.314.135-.2.089-.391.178-.55.259-.319.159-.523.287-.523.287s.237-.043.579-.141c.172-.048.37-.109.58-.181.1-.037.214-.071.323-.113l.33-.124.327-.132c.108-.043.212-.091.314-.135.2-.09.391-.178.55-.259.319-.159.523-.287.523-.287s-.237.043-.579.142c-.172.048-.37.11-.58.181" transform="translate(-43.153 -308.282)"/>
            <path id="Path_15427" data-name="Path 15427" d="M1257.714,839.123c4.522-20.3,8.935-49.068,5.465-69.141Z" transform="translate(-1093.355 -669.361)" fill="#7d96df"/>
            <path id="Path_15428" data-name="Path 15428" d="M839.431,1102.857c-1.087,1.665-2.012,3.353-2.012,3.353Z" transform="translate(-727.984 -958.735)" fill="#fff"/>
            <path id="Path_15429" data-name="Path 15429" d="M838.681,1103.849c-.063.1-.131.193-.195.295l-.2.308-.187.313c-.063.1-.118.208-.175.307s-.1.2-.149.3-.089.186-.127.27c-.154.336-.234.571-.234.571s.161-.191.37-.492c.106-.15.222-.328.345-.521.063-.1.132-.193.195-.3l.195-.308.187-.313c.062-.1.118-.208.175-.307.112-.2.211-.39.292-.556.164-.329.254-.562.254-.562s-.167.184-.386.48c-.111.147-.235.322-.363.512" transform="translate(-727.984 -958.735)"/>
            <path id="Path_15430" data-name="Path 15430" d="M1253.852,1302.638c-.044.173-.09.375-.133.593-.02.109-.045.221-.063.336l-.058.348-.049.349c-.018.115-.027.229-.04.339-.024.22-.041.427-.051.605-.022.355-.012.6-.012.6s.081-.227.167-.572c.044-.173.09-.375.133-.593.02-.109.045-.221.063-.336l.058-.348.049-.349c.017-.115.027-.229.04-.339.024-.22.041-.427.05-.605.022-.355.013-.6.013-.6s-.081.227-.167.573" transform="translate(-1089.642 -1131.911)"/>
            <path id="Path_15431" data-name="Path 15431" d="M1250.8,1276.235c-.038.194-.077.421-.113.665-.016.122-.038.248-.052.376s-.031.259-.046.389l-.037.39c-.014.129-.019.256-.029.379-.017.246-.027.476-.03.674-.01.4.008.661.008.661s.073-.257.147-.645c.038-.194.077-.421.113-.665.017-.122.038-.248.052-.377l.046-.389.037-.39c.013-.129.019-.256.028-.379.017-.246.027-.476.03-.674.01-.4-.008-.661-.008-.661s-.073.257-.147.645" transform="translate(-1087.078 -1108.895)"/>
            <path id="Path_15432" data-name="Path 15432" d="M922.859,497.582l.013.005h.017Z" transform="translate(-802.259 -432.558)"/>
            <path id="Path_15433" data-name="Path 15433" d="M364.295,201.666c-.146.061-.3.12-.45.187l-.462.2-.458.208c-.152.067-.3.141-.441.208-.285.137-.549.27-.773.388-.449.234-.739.413-.739.413s.327-.095.8-.27c.238-.086.514-.192.806-.312.146-.061.3-.12.45-.187l.462-.2.458-.208c.151-.068.3-.141.441-.208.285-.137.549-.27.773-.388.449-.234.739-.412.739-.412s-.327.095-.8.27c-.238.086-.514.193-.806.312" transform="translate(-313.801 -174.807)"/>
            <path id="Path_15434" data-name="Path 15434" d="M178.909,41.3c-4.312-2.235-13.072-10.22-18.361-14.728-9.059-7.72-10.777-8.529-17.8-7.813-8.853,1.511-37.157-38.948-116.376-5.417,15.569.307,45.607-1.2,66.369,25.539,8.257,2.37,31.542,11.53,50.669,26.871s34.1,36.861,38.2,44.413c28.059,2.094,35.656,44.113,39.334,59.243,12.76-84.081-30.1-103.456-30.546-112.426-.824-7.013-.924-10.206-11.49-15.682" transform="translate(-22.923 -0.003)" fill="#edf1fc"/>
            <path id="Path_15438" data-name="Path 15438" d="M533.581,162.188l55.382-20.72c-15.947-.311-41.078,14.627-55.382,20.72" transform="translate(-463.852 -122.977)" fill="#7d96df"/>
            <path id="Path_15439" data-name="Path 15439" d="M3.343,102.042c-.189.014-.409.036-.644.065-.117.016-.239.028-.361.048l-.372.057-.37.067c-.122.021-.241.048-.357.071-.231.048-.447.1-.63.148-.367.094-.609.181-.609.181s.256,0,.634-.027c.189-.014.409-.036.644-.065.117-.016.239-.028.361-.049l.372-.057.37-.067c.122-.021.241-.049.357-.072.231-.048.447-.1.63-.148.368-.094.609-.181.609-.181s-.256,0-.634.027" transform="translate(0 -88.684)"/>
            <path id="Path_15440" data-name="Path 15440" d="M501.9,301.558c-.134.048-.273.094-.413.148l-.423.16-.42.168c-.139.054-.273.115-.4.17-.262.112-.5.222-.709.321-.412.2-.678.348-.678.348s.3-.067.735-.2c.218-.066.471-.149.739-.243.134-.048.274-.094.413-.148l.423-.16.42-.169c.139-.055.273-.115.4-.17.261-.112.5-.222.709-.321.412-.2.678-.348.678-.348s-.3.068-.734.2c-.218.066-.471.149-.739.243" transform="translate(-433.662 -261.763)"/>
            <path id="Path_15441" data-name="Path 15441" d="M1211.936,454.6c2.843-15.286,11.971-43.059,8.206-58.559Z" transform="translate(-1053.559 -344.288)" fill="#7d96df"/>
            <path id="Path_15442" data-name="Path 15442" d="M1514.363,1294.7c-.005-.124-.01-.25-.016-.376s-.017-.252-.025-.375-.021-.245-.031-.363c-.022-.235-.049-.455-.076-.642-.052-.376-.111-.625-.111-.625s-.032.254-.044.633c-.007.19-.01.411-.007.647,0,.118,0,.24.008.364s.01.25.015.376.017.251.025.375.021.245.031.363c.022.235.048.455.076.643.052.376.112.625.112.625s.032-.254.044-.633c.008-.19.01-.411.007-.647,0-.118,0-.24-.008-.364" transform="translate(-1316.194 -1123.441)"/>
            <path id="Path_15443" data-name="Path 15443" d="M1205.678,846.011c-.025.14-.055.284-.078.432l-.073.446-.064.448c-.023.148-.037.294-.055.435-.034.283-.059.547-.077.774-.037.455-.038.761-.038.761s.091-.293.193-.737c.052-.222.107-.482.159-.762.025-.14.055-.284.078-.432l.073-.447.064-.448c.022-.148.037-.294.055-.435.034-.283.06-.547.077-.774.037-.455.038-.761.038-.761s-.091.293-.192.738c-.052.222-.106.482-.159.762" transform="translate(-1047.784 -734.151)"/>
          </g>
        </g>
      </g>
      <g id="Group_54326" data-name="Group 54326" transform="translate(21160.848 -7664.254)">
        <g id="Group_54313" data-name="Group 54313">
          <g id="Group_54312" data-name="Group 54312" clip-path="url(#clip-path-2)">
            <rect id="Rectangle_30925" data-name="Rectangle 30925" width="174.147" height="250.28" fill="url(#linear-gradient-9)"/>
          </g>
        </g>
        <rect id="Rectangle_30927" data-name="Rectangle 30927" width="78.258" height="9.565" transform="translate(47.945 24.384)" fill="#8cc0ff"/>
        <rect id="Rectangle_30928" data-name="Rectangle 30928" width="94.378" height="5" transform="translate(39.885 38.586)" fill="#dbefff"/>
        <rect id="Rectangle_30929" data-name="Rectangle 30929" width="131.622" height="9.299" transform="translate(21.263 69.949)" fill="#dbefff"/>
        <rect id="Rectangle_30930" data-name="Rectangle 30930" width="19.709" height="2.5" transform="translate(53.782 48.646)" fill="#ffa9c6"/>
        <rect id="Rectangle_30931" data-name="Rectangle 30931" width="19.709" height="2.5" transform="translate(77.453 48.646)" fill="#ffa9c6"/>
        <rect id="Rectangle_30932" data-name="Rectangle 30932" width="19.709" height="2.5" transform="translate(101.124 48.646)" fill="#ffa9c6"/>
        <rect id="Rectangle_30933" data-name="Rectangle 30933" width="19.709" height="2.5" transform="translate(21.827 85.336)" fill="#dbefff"/>
        <rect id="Rectangle_30934" data-name="Rectangle 30934" width="19.709" height="2.5" transform="translate(45.498 85.336)" fill="#dbefff"/>
        <rect id="Rectangle_30935" data-name="Rectangle 30935" width="19.709" height="2.5" transform="translate(69.168 85.336)" fill="#dbefff"/>
        <rect id="Rectangle_30936" data-name="Rectangle 30936" width="131.622" height="9.299" transform="translate(21.263 117.29)" fill="#dbefff"/>
        <rect id="Rectangle_30937" data-name="Rectangle 30937" width="19.709" height="2.5" transform="translate(21.827 132.676)" fill="#dbefff"/>
        <rect id="Rectangle_30938" data-name="Rectangle 30938" width="19.709" height="2.5" transform="translate(45.498 132.676)" fill="#dbefff"/>
        <rect id="Rectangle_30939" data-name="Rectangle 30939" width="19.709" height="2.5" transform="translate(69.168 132.676)" fill="#dbefff"/>
        <rect id="Rectangle_30940" data-name="Rectangle 30940" width="131.622" height="9.299" transform="translate(21.263 170.549)" fill="#dbefff"/>
        <rect id="Rectangle_30941" data-name="Rectangle 30941" width="19.709" height="2.5" transform="translate(21.827 185.935)" fill="#dbefff"/>
        <rect id="Rectangle_30942" data-name="Rectangle 30942" width="19.709" height="2.5" transform="translate(45.498 185.935)" fill="#dbefff"/>
        <rect id="Rectangle_30943" data-name="Rectangle 30943" width="19.709" height="2.5" transform="translate(69.168 185.935)" fill="#dbefff"/>
        <g id="Group_54315" data-name="Group 54315">
          <g id="Group_54314" data-name="Group 54314" clip-path="url(#clip-path-2)">
            <path id="Path_15416" data-name="Path 15416" d="M223.147,496.295a2.543,2.543,0,0,1-1.282-.395c-2.078-1.212-2.65-3.591-3.029-5.166-.025-.106-.053-.223-.083-.34l-.02.024c-1.5,1.795-2.983,3.369-4.767,2.905-1.9-.494-3.1-3.084-4.261-9.24-.345-1.826-.8-2.1-.8-2.1-.525-.017-2.342,1.056-7.429,11.471a13.649,13.649,0,0,1-1.16,2.185,1.183,1.183,0,0,1-1.844-1.483c.121-.193.505-.98.877-1.741,3.991-8.169,7.02-13.141,9.89-12.773,2.09.281,2.62,3.08,2.793,4,1.3,6.882,2.408,7.357,2.53,7.389.14.036.659-.1,2.355-2.13.445-.533,1.368-1.645,2.534-1.372,1.113.26,1.393,1.421,1.689,2.65.318,1.324.714,2.971,1.92,3.675l.008,0a9.831,9.831,0,0,0,.629-.869c2.146-3.178,6.617-9.794,28.365-9.151H265a1.184,1.184,0,0,1,0,2.367h-12.97c-20.492-.6-24.459,5.282-26.369,8.109-.586.868-1.337,1.979-2.51,1.979m-24.641-2.18-.025.03.025-.03" transform="translate(-112.112 -271.263)" fill="#fc7094"/>
          </g>
        </g>
      </g>
      <g id="Group_54325" data-name="Group 54325" transform="translate(21237 -7633.061)">
        <g id="Group_54324" data-name="Group 54324" clip-path="url(#clip-path-4)">
          <path id="Path_15444" data-name="Path 15444" d="M265.123,788.648H205.637a10.327,10.327,0,0,1-10.326-10.327v-1.35h79.361V779.1a9.549,9.549,0,0,1-9.549,9.549" transform="translate(-136.54 -543.171)" fill="#010117"/>
          <path id="Path_15445" data-name="Path 15445" d="M271.069,416.318V511.03a15.093,15.093,0,0,1-.369,3.325H259.591a8.721,8.721,0,0,0-8.717,8.724v2.952h-43.52V523.08a8.709,8.709,0,0,0-8.717-8.724H186.631a15.093,15.093,0,0,1-.37-3.325V416.318a14.993,14.993,0,0,1,14.989-15h54.83a14.993,14.993,0,0,1,14.989,15" transform="translate(-130.213 -280.555)" fill="#bed2fa"/>
          <path id="Path_15446" data-name="Path 15446" d="M300.819,389.747c-19.641-7.742-33.342-.122-33.478-.045l-.708-1.233a31.139,31.139,0,0,1,9.7-3.075,46.993,46.993,0,0,1,25.008,3.03Z" transform="translate(-186.4 -269.037)" fill="#2b276a"/>
          <rect id="Rectangle_30948" data-name="Rectangle 30948" width="5.745" height="7.824" transform="translate(64.131 241.091)" fill="#010117"/>
          <path id="Path_15447" data-name="Path 15447" d="M209.088,821.642a4.087,4.087,0,1,1,4.086,4.09,4.088,4.088,0,0,1-4.086-4.09" transform="translate(-146.171 -571.541)" fill="#1f4777"/>
          <path id="Path_15448" data-name="Path 15448" d="M214.424,825.376a2.481,2.481,0,1,1,2.481,2.483,2.482,2.482,0,0,1-2.481-2.483" transform="translate(-149.901 -575.275)" fill="#163560"/>
          <rect id="Rectangle_30949" data-name="Rectangle 30949" width="5.745" height="7.824" transform="translate(123.208 241.091)" fill="#010117"/>
          <path id="Path_15449" data-name="Path 15449" d="M405.414,821.642a4.087,4.087,0,1,1,4.086,4.09,4.088,4.088,0,0,1-4.086-4.09" transform="translate(-283.42 -571.541)" fill="#1f4777"/>
          <path id="Path_15450" data-name="Path 15450" d="M410.75,825.376a2.481,2.481,0,1,1,2.481,2.483,2.482,2.482,0,0,1-2.481-2.483" transform="translate(-287.151 -575.275)" fill="#163560"/>
          <path id="Path_15451" data-name="Path 15451" d="M238.257,401.315V515.791a8.686,8.686,0,0,0-2.185-1.038V401.315Z" transform="translate(-165.035 -280.555)" fill="#2b276a"/>
          <rect id="Rectangle_30950" data-name="Rectangle 30950" width="2.186" height="124.716" transform="translate(88.527 120.76)" fill="#2b276a"/>
          <rect id="Rectangle_30951" data-name="Rectangle 30951" width="2.186" height="124.716" transform="translate(104.848 120.76)" fill="#2b276a"/>
          <path id="Path_15452" data-name="Path 15452" d="M409.3,401.315V515.724a8.627,8.627,0,0,0-2.185,1.988v-116.4Z" transform="translate(-284.609 -280.555)" fill="#2b276a"/>
          <path id="Path_15453" data-name="Path 15453" d="M27.277,225.085c0-.164,2.392-5.109,1.631-5.489s-2.124-.323-2.282.543a30.247,30.247,0,0,0,.652,4.946" transform="translate(-18.599 -153.36)" fill="#edf4ff"/>
          <path id="Path_15454" data-name="Path 15454" d="M9.581,218.263c0-.485-.56-7.889-1.809-9.363s-3.8-3.57-4.6-3.506-3.939,4.232-3,7.426S5.1,220.337,5.1,220.337Z" transform="translate(0 -143.588)" fill="#edf4ff"/>
          <path id="Path_15455" data-name="Path 15455" d="M19.75,184.068l-7.271,2.179a.457.457,0,0,1-.568-.306L7.756,172.077a.456.456,0,0,1,.306-.568l7.271-2.179a.456.456,0,0,1,.568.306L20.056,183.5a.456.456,0,0,1-.306.568" transform="translate(-5.408 -118.363)" fill="#070961"/>
          <path id="Path_15456" data-name="Path 15456" d="M14.458,185.914l-6.6,1.977a.809.809,0,0,1-1.007-.542L2.9,174.16a.808.808,0,0,1,.542-1.007l6.6-1.977a.809.809,0,0,1,1.007.543L15,184.907a.809.809,0,0,1-.543,1.007" transform="translate(-2.005 -119.643)" fill="#c3d5fa"/>
          <path id="Path_15457" data-name="Path 15457" d="M8.044,196.943s3.027-4.658,3.767-4.4c1.056.37-2.745,6.282-2.745,6.282s2.817-4.418,3.257-4.085c1,.757-.593,3.532-2.176,5.66,0,0,2.832-2.594,2.925-2.127.323,1.636-3.109,5.6-3.109,5.6l-1.919-4.382Z" transform="translate(-5.623 -134.598)" fill="#edf4ff"/>
          <path id="Path_15458" data-name="Path 15458" d="M.5,196.681c.146-.57.886-11.695,1.2-10.639s1.069,6.888,1.069,6.888Z" transform="translate(-0.347 -130.01)" fill="#edf4ff"/>
          <path id="Path_15459" data-name="Path 15459" d="M59.6,174.261s-.317,12.1-3.805,21.857c-2.755,7.709-7.49,13.962-15.61,11.653q-1.246-.355-2.415-.763a.026.026,0,0,0-.01,0c-16.5-5.747-21.837-18.9-21.837-18.9,1.229-2.026,4.788-2.772,4.788-2.772,3.322.179,17.923,6.379,18.855,6.567,3.377.679,6.105-17.879,8.3-24.309s11.176-9.306,11.176-9.306Z" transform="translate(-11.132 -110.654)" fill="#f00005"/>
          <path id="Path_15460" data-name="Path 15460" d="M106.868,255.029l-.317,8.715c-2.755,7.709-7.489,13.962-15.61,11.653q-1.246-.355-2.414-.763c.26.034,5.23.706,7.311-1.374,2.137-2.141,1.914-9.232,5.852-13.959s5.18-4.271,5.18-4.271" transform="translate(-61.887 -178.28)" fill="#f00005"/>
          <path id="Path_15461" data-name="Path 15461" d="M116.818,780.678s4.061,3.705,3.268,6.338-4.457,4.388-4.952,7.607-2.476,4.973-4.258,4.973h-8.5s-1.312-2.264,1.857-2.947,4.364-4.464,4.166-7.975a61.819,61.819,0,0,1,.3-8.191l6.734-1.56Z" transform="translate(-71.382 -544.536)" fill="#133054"/>
          <path id="Path_15462" data-name="Path 15462" d="M2.319,800.656H27.343a1.811,1.811,0,0,0,1.814-1.759,12.777,12.777,0,0,0-.895-5.4c-1.336-2.962-2.18-3.48,3.462-12.1-1.7,1.746-6.27.948-10.13.428-.473.767-7.634,11.83-9.213,12.965-1.745,1.254-9.525.807-10.062,5.86" transform="translate(-1.621 -546.27)" fill="#163560"/>
          <path id="Path_15463" data-name="Path 15463" d="M77.306,377.93s-18.144,34.235-23.074,53.087c-3.826,14.632,19.529,71.248,19.529,71.248a18.7,18.7,0,0,0,5.023-1.351,8.149,8.149,0,0,0,4.222-4.425s-1.385-40.48-6.112-60.065c-1.061-4.4,5.14-18.576,15.608-26.342s14.827-32.754,8.595-34.442-23.79,2.291-23.79,2.291" transform="translate(-37.617 -262.313)" fill="#393c95"/>
          <path id="Path_15464" data-name="Path 15464" d="M91,351.921s-19.073,69.919-24.86,85.62S51.18,486.566,51.18,486.566A24.177,24.177,0,0,0,64.41,488s27.89-40.858,29.1-58.917c.562-8.347,28.615-41.437,25.489-63.014Z" transform="translate(-35.779 -246.024)" fill="#393c95"/>
          <path id="Path_15465" data-name="Path 15465" d="M164.089,232.9a33.2,33.2,0,0,1-11.234,2.647h-.007c-8.215.689-20.52-.52-35.506-8.864,0,0-4.18-3.444.956-18.092,3.887-11.089,5.781-34.469,10.525-55.776,0,0,15.391-4.828,27.739-.655,9.435,3.191,8.5,17.67,10.238,32.747.162,1.408.348,2.82.567,4.228,2.576,16.505-3.278,43.765-3.278,43.765" transform="translate(-80.911 -105.185)" fill="#f00005"/>
          <path id="Path_15466" data-name="Path 15466" d="M141.189,28.328s10.5-17.1,18.64-8.3c0,0,5.319,1.359,8.365,9.639,3.108,8.448-1.732,15.908-4.965,14.7-2.073-.773-3.043,2.8-3.043,2.8Z" transform="translate(-98.704 -12.242)" fill="#31286d"/>
          <path id="Path_15467" data-name="Path 15467" d="M197.779,6.438S198.5-.642,208.847.046c0,0-4.892.088-5.942,2.128,0,0,3.557-2.293,6.152-1.177s3.695,5.971,3.554,7.516-2.133,6.375-3.877,6.626a8.1,8.1,0,0,1-4.029-.982Z" transform="translate(-138.265 0)" fill="#31286d"/>
          <path id="Path_15468" data-name="Path 15468" d="M181.08,123.122a47.715,47.715,0,0,1-3.58-13.579l-.621.218-10.442,3.677s.732,3.348,1.2,6.533c.191,1.3.328,3.627.417,5.658.091,2.075,2.132,2.271,4.207,2.175,5.521-.256,8.564-2.315,8.821-4.683" transform="translate(-116.354 -76.58)" fill="#ebf2ff"/>
          <path id="Path_15469" data-name="Path 15469" d="M166.436,113.945s.732,3.348,1.2,6.533c5.991-1.036,8.379-6.982,9.243-10.211Z" transform="translate(-116.353 -77.086)" fill="#ebf2ff"/>
          <path id="Path_15470" data-name="Path 15470" d="M156.639,56.348s2.434-5.435,2.577-9.8c.1-3.118-3.071-14.165-14.163-10.91a15.543,15.543,0,0,0-6.033,3.332c-2.22,2.015-5.252,6.112.134,15.375l1.509,3.173Z" transform="translate(-95.173 -24.498)" fill="#233862"/>
          <path id="Path_15471" data-name="Path 15471" d="M144.475,75.314s14.264-1.816,13-10.682-.281-15.072-9.442-14.287-10.444,4.421-10.74,7.483,3.442,17.73,7.185,17.486" transform="translate(-95.966 -35.149)" fill="#f9fdff"/>
          <path id="Path_15472" data-name="Path 15472" d="M151.375,47.34s5.4,9.838,11.6,10.514,8.565-1.3,8.565-1.3a17.107,17.107,0,0,1-6.981-9.206s-10.955-5.381-13.181-.008" transform="translate(-105.824 -31.427)" fill="#31286d"/>
          <path id="Path_15473" data-name="Path 15473" d="M139.753,52.076s-2.575,2.741-2.959,5.1-.033,7.053-1.41,7.09c0,0-3.955-6.646-1.232-11.12,2.887-4.744,5.6-1.071,5.6-1.071" transform="translate(-93.115 -35.458)" fill="#233862"/>
          <path id="Path_15474" data-name="Path 15474" d="M153.361,49.652s4.346,10.491,12.394,12.891c0,0-8.51-5.6-10.187-12.7s-2.207-.191-2.207-.191" transform="translate(-107.213 -32.604)" fill="#233862"/>
          <path id="Path_15475" data-name="Path 15475" d="M244.661,310.2a33.206,33.206,0,0,1-11.234,2.647h-.007a12.579,12.579,0,0,1,.682-15.674c6.578-8.283-.513-23.566,4.552-31.879,3.525-5.784,6.956-4.437,8.719-3.087.162,1.408.348,2.82.567,4.228,2.576,16.505-3.278,43.765-3.278,43.765" transform="translate(-161.483 -182.483)" fill="#f00005"/>
          <path id="Path_15476" data-name="Path 15476" d="M352.385,383.6s.875,2.036,2.1,2.172a25.6,25.6,0,0,1,6.39,2.248c1.617.96,1.507,5.253-.109,5.657s-2.425-3.2-7.476-4.164c-1.713-.327-4.209.857-5.22-3.248Z" transform="translate(-243.329 -268.169)" fill="#edf4ff"/>
          <path id="Path_15477" data-name="Path 15477" d="M244.36,155.837c14.689,5.4,15.231,31.424,21.78,42.884,6.753,11.818,13.33,27.373,13.33,27.373s-.119.466-2.637,1.187a10.53,10.53,0,0,1-3.625.292s-13.877-12.553-17.648-17.506S242.9,182.14,242.9,182.14s-4.371-28.448,1.46-26.3" transform="translate(-168.709 -108.863)" fill="#f00005"/>
          <path id="Path_15478" data-name="Path 15478" d="M349.272,395.834A5.56,5.56,0,0,0,351.795,399c2.166,1.414,3.9,2.829,4.112,1.953s-1.205-1.818-1.542-3.435-5.093-1.681-5.093-1.681" transform="translate(-244.172 -276.723)" fill="#edf4ff"/>
        </g>
      </g>
    </g>
  </g>
</svg>
