<svg xmlns="http://www.w3.org/2000/svg" width="116" height="116" viewBox="0 0 116 116">
  <g id="Group_54354" data-name="Group 54354" transform="translate(-14.251 -15)">
    <g id="Rectangle_3262" data-name="Rectangle 3262" transform="translate(14.83 15)">
      <rect id="Rectangle_3474" data-name="Rectangle 3474" width="114.839" height="116" fill="none"/>
    </g>
    <path id="Line_968" data-name="Line 968" d="M-.17,3.94a.58.58,0,0,1-.518-.317.58.58,0,0,1,.254-.78l6.95-3.53a.58.58,0,0,1,.78.254.58.58,0,0,1-.254.78L.093,3.877A.578.578,0,0,1-.17,3.94Z" transform="translate(59.372 105.889)" fill="#252668"/>
    <path id="Line_969" data-name="Line 969" d="M-.17,5.2a.58.58,0,0,1-.518-.317.58.58,0,0,1,.254-.78L9-.687a.58.58,0,0,1,.78.254.58.58,0,0,1-.254.78L.093,5.14A.578.578,0,0,1-.17,5.2Z" transform="translate(47.416 107.834)" fill="#252668"/>
    <path id="Line_970" data-name="Line 970" d="M-.17,3.94a.58.58,0,0,1-.518-.317.58.58,0,0,1,.254-.78l6.95-3.53a.58.58,0,0,1,.78.254.58.58,0,0,1-.254.78L.093,3.877A.578.578,0,0,1-.17,3.94Z" transform="translate(59.372 105.889)" fill="#252668"/>
    <path id="Path_6809" data-name="Path 6809" d="M103.539,21.155h0a4.979,4.979,0,0,1,3.687,1.637l5.661,6.3a.58.58,0,0,1-.169.9L68.473,52.475a.58.58,0,0,1-.65-.949l32.408-29.108A4.962,4.962,0,0,1,103.539,21.155Zm7.981,8.153-5.155-5.74a3.816,3.816,0,0,0-2.826-1.253h0a3.8,3.8,0,0,0-2.535.967L71.875,49.445Z" transform="translate(-12.767 -1.395)" fill="#252668"/>
    <path id="Line_971" data-name="Line 971" d="M-.17,4.065a.58.58,0,0,1-.518-.317.58.58,0,0,1,.254-.78L6.762-.687a.58.58,0,0,1,.78.254.58.58,0,0,1-.254.78L.093,4A.578.578,0,0,1-.17,4.065Z" transform="translate(64.975 102.887)" fill="#252668"/>
    <path id="Line_972" data-name="Line 972" d="M-.17,5.618A.578.578,0,0,1-.6,5.426a.58.58,0,0,1,.044-.819L5.242-.6a.58.58,0,0,1,.819.044.58.58,0,0,1-.044.819L.218,5.47A.578.578,0,0,1-.17,5.618Z" transform="translate(69.113 105.982)" fill="#252668"/>
    <path id="Line_973" data-name="Line 973" d="M-.17,5.2a.58.58,0,0,1-.518-.317.58.58,0,0,1,.254-.78L9-.687a.58.58,0,0,1,.78.254.58.58,0,0,1-.254.78L.093,5.14A.578.578,0,0,1-.17,5.2Z" transform="translate(47.416 107.834)" fill="#252668"/>
    <path id="Path_6810" data-name="Path 6810" d="M92.234,129.8a.58.58,0,0,1-.388-1.012l8.273-7.43-10.4,5.283a.58.58,0,0,1-.525-1.034l14.328-7.279a.58.58,0,0,1,.65.949L92.622,129.65A.578.578,0,0,1,92.234,129.8Z" transform="translate(-17.575 -23.406)" fill="#252668"/>
    <path id="Path_6811" data-name="Path 6811" d="M59.69,152.852q-.135,0-.271-.007a4.936,4.936,0,0,1-3.42-1.63l-5.66-6.3a.58.58,0,0,1,.169-.9l22.721-11.541a.58.58,0,0,1,.525,1.034L51.707,144.7l5.154,5.739a3.816,3.816,0,0,0,5.36.286L77.278,137.2a.58.58,0,0,1,.775.863L62.995,151.588A4.935,4.935,0,0,1,59.69,152.852Z" transform="translate(-8.508 -26.611)" fill="#252668"/>
    <path id="Line_974" data-name="Line 974" d="M-.17,7.483A.579.579,0,0,1-.6,7.291a.58.58,0,0,1,.044-.819L7.318-.6a.58.58,0,0,1,.819.044.58.58,0,0,1-.044.819L.218,7.335A.578.578,0,0,1-.17,7.483Z" transform="translate(58.807 109.304)" fill="#252668"/>
    <path id="Line_975" data-name="Line 975" d="M-.17,7.21a.58.58,0,0,1-.518-.317.58.58,0,0,1,.254-.78l13.387-6.8a.58.58,0,0,1,.78.254.58.58,0,0,1-.254.78L.093,7.147A.578.578,0,0,1-.17,7.21Z" transform="translate(41.807 108.702)" fill="#252668"/>
    <path id="Path_6579" data-name="Path 6579" d="M64.9,54.77c-2.7,1.436-5.693,2.084-8.409,3.472-3.027,1.547-6.055,3.106-9,4.8a43.471,43.471,0,0,1-4.823,2.342c-7.1,3.167-13.531,7.894-20.834,10.583-.039.015-.077.019-.117.031-1.334.814-2.726,1.5-4.027,2.393a5.985,5.985,0,0,0-2.669,4.657c1.247,2.309,2.182,4.757,3.3,7.132.292.624.564,1.277.836,1.936a4.938,4.938,0,0,1,.769,1.08c.415.806.878,1.585,1.295,2.39a4.645,4.645,0,0,1,.21.476,4.285,4.285,0,0,1,.716.29,4.271,4.271,0,0,1,.652.029,4.734,4.734,0,0,1,4.093,2.427,5.276,5.276,0,0,1,.94,1.02,5.593,5.593,0,0,1,1.754,2.728,5.667,5.667,0,0,1,.729,1.837,5.579,5.579,0,0,1,.533,1.683A5.065,5.065,0,0,1,31,108.6a4.367,4.367,0,0,1-1.3,3.32,5.04,5.04,0,0,1,.073.921,5.434,5.434,0,0,1,.355,1.243,5.638,5.638,0,0,1,.959,1.775,4.818,4.818,0,0,1,1.24,1.6c1.181,2.4,2.11,5.535,4.07,7.436a7.852,7.852,0,0,0,4.16,1.743c.916-.509,1.834-1.049,2.764-1.533.037-.019.071-.029.106-.047s.087-.052.134-.075c3.7-1.834,7.564-3.309,11.083-5.482a3.76,3.76,0,0,1,1.1-.451,3.277,3.277,0,0,1,.481-.232c.323-.122.65-.238.972-.362a5.273,5.273,0,0,1,1.322-.966c11.909-6.2,23.965-12.047,35.982-18,1.118-.642,2.241-1.274,3.378-1.88L73.517,49.652C70.568,51.235,67.852,53.2,64.9,54.77Z" transform="translate(-0.173 -7.854)" fill="#aecbfa"/>
    <path id="Line_847" data-name="Line 847" d="M24.071,48.131a.58.58,0,0,1-.518-.317L-.687.093a.58.58,0,0,1,.254-.78.58.58,0,0,1,.78.254l24.24,47.721a.58.58,0,0,1-.517.843Z" transform="translate(72.887 42.207)" fill="#252668"/>
    <path id="Path_6498" data-name="Path 6498" d="M39.286,122.364a5.113,5.113,0,0,1-4.567-2.825l-5.664-11.262-.005-.011a1.531,1.531,0,0,1,.241-1.686,5.214,5.214,0,0,0,.9-3.6A14.34,14.34,0,0,0,25.372,93.4a5.1,5.1,0,0,0-3.407-1.389,1.5,1.5,0,0,1-1.489-.8L20.47,91.2,14.808,79.946a5.175,5.175,0,0,1-.3-3.94,5.115,5.115,0,0,1,2.545-3L58.344,51.819a.572.572,0,0,1,.772.254.583.583,0,0,1-.252.78L17.571,74.039A3.965,3.965,0,0,0,15.6,76.366a4.012,4.012,0,0,0,.235,3.055l5.659,11.252a.358.358,0,0,0,.356.186l.018,0c2.646-.217,5.88,2.388,7.865,6.334s2.161,8.124.426,10.152l-.011.013a.368.368,0,0,0-.061.4l5.66,11.255a3.95,3.95,0,0,0,5.33,1.756l85.858-44.049a3.966,3.966,0,0,0,1.973-2.327,4.011,4.011,0,0,0-.234-3.055l-5.594-11.124a.323.323,0,0,0-.362-.174,5.548,5.548,0,0,1-4.478-1.364,14.308,14.308,0,0,1-3.891-4.893c-2.14-4.254-2.168-8.677-.066-10.518a.324.324,0,0,0,.074-.392l0,0-5.595-11.124-.011-.024a3.949,3.949,0,0,0-5.317-1.732L73,45.6a.572.572,0,0,1-.772-.254.583.583,0,0,1,.252-.78l30.431-15.613a5.093,5.093,0,0,1,6.873,2.263l.012.026,5.581,11.1a1.488,1.488,0,0,1-.343,1.8,4.568,4.568,0,0,0-1.156,3.561,13.269,13.269,0,0,0,1.495,5.554,13.136,13.136,0,0,0,3.56,4.494,4.471,4.471,0,0,0,3.53,1.158,1.465,1.465,0,0,1,1.642.782l5.593,11.121a5.174,5.174,0,0,1,.3,3.94,5.116,5.116,0,0,1-2.545,3L41.593,121.8A5.04,5.04,0,0,1,39.286,122.364Z" transform="translate(0 -3.036)" fill="#252668"/>
    <g id="Group_22626" data-name="Group 22626" transform="translate(35.332 98.22)">
      <g id="Group_1" data-name="Group 1" transform="translate(0)">
        <path id="path48" d="M48.7,130.04l-1.165.008a.2.2,0,0,1,.2-.2h.012l.866.062-.09-.125-.011-.022a.153.153,0,0,1,.067-.206h0l-.191-.376-.025.056.035.069-.012.026-.1-.2a.144.144,0,0,0,.011-.136l.024,0,.429.844.09-.486a.186.186,0,0,1,.218-.146l.02.005-.244.786.295.582-.018.016-.4-.557" transform="translate(-43.107 -124.059)" fill="#252668" fill-rule="evenodd"/>
        <path id="path50" d="M47.581,129.3a.933.933,0,1,1,.41-1.254h0a.932.932,0,0,1-.408,1.254Zm2.053,2.22-.692-1.362a1.588,1.588,0,0,1-.632.577,2.247,2.247,0,0,1-3.02-.985h0L41.81,122.9l1.445-.288.685,1.349,3.134-.612.739,1.453-3.134.615.694,1.367A1.591,1.591,0,0,1,46,126.2a2.246,2.246,0,0,1,3.019.984h0l2.793,5.5-4.579.9-.739-1.456,3.133-.615" transform="translate(-41.81 -122.612)" fill="#252668" fill-rule="evenodd"/>
      </g>
    </g>
    <path id="Path_6578" data-name="Path 6578" d="M39.285,122.364a5.112,5.112,0,0,1-4.566-2.824l-5.664-11.263-.005-.011a1.531,1.531,0,0,1,.241-1.686,5.214,5.214,0,0,0,.9-3.6A14.339,14.339,0,0,0,25.37,93.4a5.1,5.1,0,0,0-3.408-1.389,1.5,1.5,0,0,1-1.488-.8l-.006-.012L14.806,79.947A5.2,5.2,0,0,1,17.048,73L17.066,73,58.344,51.818l.01-.005,44.554-22.858a5.031,5.031,0,0,1,3.9-.305,5.093,5.093,0,0,1,2.972,2.57l5.595,11.124a1.5,1.5,0,0,1-.342,1.8,4.566,4.566,0,0,0-1.159,3.563,13.272,13.272,0,0,0,1.495,5.554,13.137,13.137,0,0,0,3.56,4.494,4.471,4.471,0,0,0,3.53,1.158,1.465,1.465,0,0,1,1.642.782l5.593,11.121a5.194,5.194,0,0,1-2.243,6.942L41.592,121.8A5.042,5.042,0,0,1,39.285,122.364Zm-9.2-14.605,5.661,11.256a3.95,3.95,0,0,0,5.33,1.755l85.859-44.05a4.027,4.027,0,0,0,1.739-5.382l-5.594-11.124a.323.323,0,0,0-.362-.174,5.548,5.548,0,0,1-4.478-1.364,14.309,14.309,0,0,1-3.891-4.893c-2.14-4.255-2.168-8.678-.066-10.518a.328.328,0,0,0,.073-.394l-5.6-11.126a3.949,3.949,0,0,0-2.3-1.993,3.9,3.9,0,0,0-3.024.237L56.237,54.2l-.011.005L17.569,74.038l-.017.008a4.028,4.028,0,0,0-1.723,5.375l5.658,11.25a.362.362,0,0,0,.358.187l.017,0c2.646-.217,5.88,2.388,7.865,6.334s2.161,8.124.426,10.152l-.011.013A.368.368,0,0,0,30.082,107.759Z" transform="translate(0 -3.035)" fill="#252668"/>
    <path id="Line_848-2" data-name="Line 848-2" d="M-.17,11.776a.58.58,0,0,1-.518-.317.58.58,0,0,1,.254-.78L21.944-.687a.58.58,0,0,1,.78.254.58.58,0,0,1-.254.78L.093,11.713A.578.578,0,0,1-.17,11.776Z" transform="translate(47.846 54.564)" fill="#252668"/>
    <path id="Line_849-2" data-name="Line 849-2" d="M-.17,11.776a.58.58,0,0,1-.518-.317.58.58,0,0,1,.254-.78L21.944-.687a.58.58,0,0,1,.78.254.58.58,0,0,1-.254.78L.093,11.713A.578.578,0,0,1-.17,11.776Z" transform="translate(50.775 60.402)" fill="#252668"/>
    <g id="Group_22996" data-name="Group 22996" transform="translate(76.044 64.681)">
      <circle id="Ellipse_460" data-name="Ellipse 460" cx="21.539" cy="21.539" r="21.539" transform="translate(0.58 12.138)" fill="#ff6a73"/>
      <path id="Ellipse_460_-_Outline" data-name="Ellipse 460 - Outline" d="M21.369-.75a22.125,22.125,0,0,1,8.61,42.5A22.124,22.124,0,0,1,12.759.988,21.981,21.981,0,0,1,21.369-.75Zm0,43.078A20.965,20.965,0,0,0,29.527,2.057,20.964,20.964,0,0,0,13.211,40.681,20.827,20.827,0,0,0,21.369,42.328Z" transform="translate(0.75 12.308)" fill="#252668"/>
      <path id="Path_8535" data-name="Path 8535" d="M141.373,48.6l-7.479,7.56a.985.985,0,0,0,0,1.383.961.961,0,0,0,.683.285h2.348a.974.974,0,0,1,.967.977V70.982a.972.972,0,0,0,.967.977h6.392a.972.972,0,0,0,.967-.977h0l0-12.177a.973.973,0,0,1,.968-.977h2.348a.973.973,0,0,0,.968-.976.985.985,0,0,0-.283-.692l-7.479-7.56a.959.959,0,0,0-1.367,0Z" transform="translate(-119.939 -23.679)" fill="#fff"/>
      <path id="Path_8535_-_Outline" data-name="Path 8535 - Outline" d="M141.887,47.563h0a1.531,1.531,0,0,1,1.1.459l7.479,7.56a1.559,1.559,0,0,1-1.1,2.655h-2.349a.393.393,0,0,0-.388.4l0,12.177a1.554,1.554,0,0,1-1.547,1.558h-6.392a1.554,1.554,0,0,1-1.547-1.557V58.634a.394.394,0,0,0-.388-.4H134.41a1.532,1.532,0,0,1-1.094-.456,1.569,1.569,0,0,1-.005-2.2l7.483-7.564A1.53,1.53,0,0,1,141.887,47.563Zm7.478,9.515a.393.393,0,0,0,.388-.4.407.407,0,0,0-.116-.283l-7.479-7.56a.38.38,0,0,0-.272-.114h0a.379.379,0,0,0-.271.114l-7.48,7.56a.4.4,0,0,0,0,.566.38.38,0,0,0,.271.114h2.348a1.556,1.556,0,0,1,1.547,1.557V70.812a.393.393,0,0,0,.387.4h6.392a.393.393,0,0,0,.387-.4l0-12.177a1.554,1.554,0,0,1,1.548-1.558Z" transform="translate(-119.769 -23.509)" fill="#252668"/>
      <path id="Path_8536" data-name="Path 8536" d="M143.227,15.709l3.744,8.533,9.273.923-6.959,6.2,1.987,9.1-8.044-4.7-8.044,4.7,1.987-9.1-6.959-6.2,9.273-.923Z" transform="translate(-121.138 -15.129)" fill="#fff"/>
      <path id="Path_8536_-_Outline" data-name="Path 8536 - Outline" d="M143.057,14.959a.58.58,0,0,1,.531.347l3.607,8.223,8.935.89a.58.58,0,0,1,.328,1.01L149.753,31.4l1.915,8.773a.58.58,0,0,1-.859.624l-7.752-4.532L135.3,40.8a.58.58,0,0,1-.859-.624L136.36,31.4l-6.706-5.972a.58.58,0,0,1,.328-1.01l8.935-.89,3.607-8.223A.58.58,0,0,1,143.057,14.959ZM154.7,25.442l-7.957-.792a.58.58,0,0,1-.474-.344l-3.212-7.323-3.212,7.323a.58.58,0,0,1-.474.344l-7.957.792,5.972,5.318a.58.58,0,0,1,.181.557l-1.705,7.812,6.9-4.036a.58.58,0,0,1,.585,0l6.9,4.036-1.705-7.812a.58.58,0,0,1,.181-.557Z" transform="translate(-120.968 -14.959)" fill="#252668"/>
    </g>
  </g>
</svg>
