<?xml version="1.0" encoding="utf-8"?>
<!-- Generator: Adobe Illustrator 26.5.0, SVG Export Plug-In . SVG Version: 6.00 Build 0)  -->
<svg version="1.1" id="Layer_1" xmlns="http://www.w3.org/2000/svg" x="0px" y="0px"
     width="40" height="40" viewBox="0 0 40 40" style="enable-background:new 0 0 40 40;" xml:space="preserve">
<style type="text/css">
	.st0{fill:#418248;}
	.st1{fill:#E8F0FE;}
</style>
<g>
	<path class="st0" d="M9.9,0.7h20.2c5,0,9.1,4.1,9.1,9.1v18.4c0,5-4.1,9.1-9.1,9.1H9.9c-5,0-9.1-4.1-9.1-9.1V9.9
		C0.8,4.8,4.8,0.7,9.9,0.7z"/>
	<g>
		<path class="st1" d="M30.1,38.2H9.9c-5.4,0-9.9-4.4-9.9-9.9V9.9C0,4.4,4.4,0,9.9,0h20.2C35.6,0,40,4.4,40,9.9v18.4
			C40,33.7,35.6,38.2,30.1,38.2z M9.9,1.5c-4.6,0-8.4,3.8-8.4,8.4v18.4c0,4.6,3.8,8.4,8.4,8.4h20.2c4.6,0,8.4-3.8,8.4-8.4V9.9
			c0-4.6-3.8-8.4-8.4-8.4H9.9z"/>
	</g>
	<path class="st0" d="M0.8,33.6l0-11c0-1.1,0.9-2,2-2h0c1.1,0,2,0.9,2,2v11c0,1.1-0.9,2-2,2h0C1.7,35.6,0.8,34.7,0.8,33.6z"/>
	<g>
		<path class="st1" d="M2.8,36.3c-1.5,0-2.7-1.2-2.7-2.8v-11c0-1.5,1.2-2.8,2.7-2.8s2.7,1.2,2.7,2.8v11C5.5,35.1,4.3,36.3,2.8,36.3z
			 M2.8,21.3c-0.7,0-1.2,0.6-1.2,1.2v11c0,0.7,0.6,1.2,1.2,1.2S4,34.3,4,33.6v-11C4,21.9,3.4,21.3,2.8,21.3z"/>
	</g>
	<path class="st0" d="M35.2,33.6v-11c0-1.1,0.9-2,2-2h0c1.1,0,2,0.9,2,2v11c0,1.1-0.9,2-2,2h0C36.1,35.6,35.2,34.7,35.2,33.6z"/>
	<g>
		<path class="st1" d="M37.2,36.3c-1.5,0-2.7-1.2-2.7-2.8v-11c0-1.5,1.2-2.8,2.7-2.8c1.5,0,2.7,1.2,2.7,2.8v11
			C40,35.1,38.8,36.3,37.2,36.3z M37.2,21.3c-0.7,0-1.2,0.6-1.2,1.2v11c0,0.7,0.6,1.2,1.2,1.2c0.7,0,1.2-0.6,1.2-1.2v-11
			C38.5,21.9,37.9,21.3,37.2,21.3z"/>
	</g>
	<path class="st0" d="M5.5,29.8h29.1c2.6,0,4.7,2.1,4.7,4.7l0,0c0,2.6-2.1,4.7-4.7,4.7H5.5c-2.6,0-4.7-2.1-4.7-4.7l0,0
		C0.8,31.9,2.9,29.8,5.5,29.8z"/>
	<g>
		<path class="st1" d="M34.5,40H5.5c-3,0-5.5-2.5-5.5-5.5c0-3,2.4-5.5,5.5-5.5h29.1c3,0,5.5,2.5,5.5,5.5C40,37.6,37.6,40,34.5,40z
			 M5.5,30.6c-2.2,0-4,1.8-4,4c0,2.2,1.8,4,4,4h29.1c2.2,0,4-1.8,4-4c0-2.2-1.8-4-4-4H5.5z"/>
	</g>
	<g>
		<path class="st0" d="M26,34.4H14.1c-1.6,0-2.9-1.3-2.9-2.9v0c0-1.6,1.3-2.9,2.9-2.9H26c1.6,0,2.9,1.3,2.9,2.9v0
			C28.9,33.1,27.6,34.4,26,34.4z"/>
		<g>
			<path class="st1" d="M26,35.2H14.1c-2,0-3.7-1.6-3.7-3.7s1.6-3.7,3.7-3.7H26c2,0,3.7,1.6,3.7,3.7S28,35.2,26,35.2z M14.1,29.3
				c-1.2,0-2.2,1-2.2,2.2s1,2.2,2.2,2.2H26c1.2,0,2.2-1,2.2-2.2s-1-2.2-2.2-2.2H14.1z"/>
		</g>
	</g>
</g>
</svg>
