<svg xmlns="http://www.w3.org/2000/svg" xml:space="preserve" viewBox="0 0 267.8 294.4">
  <style>
    .st0{display:none}.st1{display:inline;fill:#e9f0f9}
  </style>
  <g id="gora">
    <path fill="#e9f0f9" d="M267.8 290.6v1.9-1.9zm0 1.9v1.9H0v-3.8c.1-10.7.4-18 .7-20.8C5 209.4 45.5 0 133.9 0c88.4 0 128.6 209.3 132.9 269.6.2 2.9.8 10.2.9 20.9.1.7.1 1.3.1 2v-1.9 1.9zM0 290.6v1.9-1.9zm267.8 0v1.9-1.9z"/>
    <path id="Group_47207" fill="#dcdbdb" d="M5412.8-994.5c-2.2 2.8-55.7 39.9-60.1 38.3-4.4-1.7-2.4-34.7 0-38.3 2.4-3.5 54.6-37.7 60.1-36.8 5.4.9 2.2 34 0 36.8zm-70.2 52.3c-2 3.9-3.2 9-6.7 10.3s-29 4.6-30.9 0c-1.9-4.6 26.1-45.2 30.9-46.1 4.8-1 8.6 31.9 6.7 35.8zm149-14c-4.4 1.7-57.8-35.4-60.1-38.3-2.2-2.8-5.4-35.9 0-36.8 5.4-.9 57.7 33.3 60.1 36.8 2.4 3.6 4.4 36.6 0 38.3zm47.7 24.3c-1.9 4.6-27.4 1.3-30.9 0s-4.7-6.4-6.7-10.3c-2-3.9 1.9-36.7 6.7-35.8 4.9.9 32.8 41.5 30.9 46.1z" transform="translate(-5288.4 1219.57)"/>
  </g>
</svg>
