<!-- Generated by IcoMoon.io -->
<svg version="1.1" xmlns="http://www.w3.org/2000/svg" width="32" height="32" viewBox="0 0 32 32">
<title>add</title>
<path d="M16 0c-8.837 0-16 7.163-16 16s7.163 16 16 16c8.837 0 16-7.163 16-16v0c0-8.837-7.163-16-16-16v0zM16 30.97c-8.267 0-14.97-6.702-14.97-14.97s6.702-14.97 14.97-14.97c8.267 0 14.97 6.702 14.97 14.97v0c0 8.267-6.702 14.97-14.97 14.97v0z"></path>
<path d="M25.796 15.485h-9.28v-9.28c0-0.007 0.001-0.015 0.001-0.024 0-0.285-0.231-0.516-0.516-0.516s-0.516 0.231-0.516 0.516c0 0.008 0 0.017 0.001 0.025l-0-0.001v9.28h-9.281c-0.007-0-0.015-0.001-0.024-0.001-0.285 0-0.516 0.231-0.516 0.516s0.231 0.516 0.516 0.516c0.008 0 0.017-0 0.025-0.001l-0.001 0h9.28v9.28c-0 0.007-0.001 0.015-0.001 0.024 0 0.285 0.231 0.516 0.516 0.516s0.516-0.231 0.516-0.516c0-0.008-0-0.017-0.001-0.025l0 0.001v-9.28h9.28c0.007 0 0.015 0.001 0.024 0.001 0.285 0 0.516-0.231 0.516-0.516s-0.231-0.516-0.516-0.516c-0.008 0-0.017 0-0.025 0.001l0.001-0z"></path>
</svg>
