<!-- Generated by IcoMoon.io -->
<svg version="1.1" xmlns="http://www.w3.org/2000/svg" width="32" height="32" viewBox="0 0 32 32">
<title>additional-services</title>
<path d="M28.672 8.992h-25.344c-1.776 0-3.248 1.392-3.328 3.168v14.928c0.080 1.76 1.568 3.152 3.328 3.072h25.328c0.032 0 0.064 0 0.096 0.016 1.76 0.016 3.216-1.392 3.232-3.184v-14.832c-0.048-1.776-1.536-3.168-3.312-3.168zM9.616 22.384c0 0.464-0.368 0.832-0.832 0.832-0.448 0-0.832-0.368-0.832-0.832v-5.632c0-0.448 0.384-0.832 0.832-0.832 0.464 0 0.832 0.384 0.832 0.832v5.632zM24.048 22.384c0 0.464-0.368 0.832-0.832 0.832-0.448 0-0.816-0.368-0.816-0.816 0 0 0 0 0-0.016v-5.632c-0.016-0.448 0.336-0.832 0.784-0.848 0.464-0.032 0.848 0.336 0.864 0.784v5.696z"></path>
<path d="M24.832 5.168v1.168c0.032 0.432-0.304 0.8-0.736 0.832-0.032 0-0.064 0-0.096 0h-1.84c-0.432 0.032-0.8-0.304-0.832-0.736 0-0.032 0-0.064 0-0.096-0.048-0.496-0.496-0.864-0.992-0.832h-8.832c-0.432-0.032-0.8 0.304-0.832 0.736 0 0.032 0 0.064 0 0.096-0.032 0.448-0.384 0.8-0.832 0.832h-1.84c-0.432 0.016-0.8-0.32-0.832-0.752 0-0.032 0-0.064 0-0.096v-1.152c-0.064-1.776 1.312-3.264 3.072-3.344 0.032 0 0.064 0 0.096 0h11.168c1.84 0.016 3.328 1.504 3.328 3.344z"></path>
</svg>
