<!-- Generated by IcoMoon.io -->
<svg version="1.1" xmlns="http://www.w3.org/2000/svg" width="32" height="32" viewBox="0 0 32 32">
<title>advancePurchase</title>
<path d="M22.080 3.68h-15.84c-1.92 0-3.52 1.6-3.52 3.52v21.12c0 1.92 1.6 3.52 3.52 3.52h15.84c1.92 0 3.52-1.6 3.52-3.52v-20.96c0-2.080-1.6-3.68-3.52-3.68zM6.24 30.080c-0.96 0-1.76-0.8-1.76-1.76v-2.72c0.48 0.32 1.12 0.48 1.76 0.48h1.44c0.48 0 0.8 0.32 0.8 0.8v1.44c0 0.64 0.16 1.12 0.48 1.76h-2.72zM23.84 28.48c0 0.96-0.8 1.76-1.76 1.76h-10.24c-0.8-0.16-1.6-0.8-1.6-1.76v-1.44c0-1.44-1.28-2.72-2.72-2.72h-1.28c-0.96 0-1.76-0.8-1.76-1.76v-15.2c0-0.96 0.8-1.76 1.76-1.76h15.84c0.96 0 1.76 0.8 1.76 1.76v21.12z"></path>
<path d="M25.76 28.32v-1.92c0.96 0 1.76-0.8 1.76-1.76v-21.12c0-0.96-0.8-1.76-1.76-1.76h-15.84c-0.96 0-1.76 0.8-1.76 1.76h-1.76c0-1.92 1.6-3.52 3.52-3.52h15.84c1.92 0 3.52 1.6 3.52 3.52v21.12c0.16 2.080-1.44 3.68-3.52 3.68v0z"></path>
<path d="M7.84 9.44h12.64v1.92h-12.64v-1.92z"></path>
<path d="M7.84 14.24h12.64v1.92h-12.64v-1.92z"></path>
<path d="M14.4 19.040h6.080v1.92h-6.080v-1.92z"></path>
</svg>
