<!-- Generated by IcoMoon.io -->
<svg version="1.1" xmlns="http://www.w3.org/2000/svg" width="32" height="32" viewBox="0 0 32 32">
<title>change</title>
<path d="M30.394 6.078c0-0.64-0.32-1.44-0.8-1.92l-3.36-3.36c-1.12-1.12-2.72-1.12-3.84 0l-19.52 19.52c-0.16 0.16-0.32 0.48-0.32 0.64l-0.96 6.24c-0.16 0.64 0.32 1.28 1.12 1.44h0.32l6.24-0.96c0.32 0 0.48-0.16 0.64-0.32l19.68-19.68c0.48-0.16 0.8-0.96 0.8-1.6zM8.474 25.438l-4.16 0.64 0.64-4.16 15.84-15.84 3.52 3.52-15.84 15.84zM27.834 6.238l-1.6 1.6-3.52-3.52 1.6-1.6c0 0 0.16 0 0.32 0l3.2 3.2c0 0 0 0.16 0 0.32z"></path>
<path d="M29.114 29.438h-21.6c-0.64 0-1.28 0.64-1.28 1.28s0.64 1.28 1.28 1.28v0h21.6c0.64 0 1.28-0.64 1.28-1.28s-0.48-1.28-1.28-1.28z"></path>
</svg>
