<?xml version="1.0" encoding="utf-8"?>
<!-- Generator: Adobe Illustrator 26.3.1, SVG Export Plug-In . SVG Version: 6.00 Build 0)  -->
<svg version="1.1" id="Layer_1" xmlns="http://www.w3.org/2000/svg" x="0px" y="0px"
     viewBox="0 0 20 20" style="enable-background:new 0 0 20 20;" xml:space="preserve">
<style type="text/css">
	.st0{fill:#FFFFFF;}
	.st1{fill:#0B57AD;}
</style>
<g>
	<path id="Path_5400" class="st0" d="M6.2,19.3L6.2,19.3c-0.6,0-1.1-0.5-1.1-1.1l0,0v-1.7c0-0.6,0.5-1.1,1.1-1.1c0,0,0,0,0,0l0,0
		c0.6,0,1.1,0.5,1.1,1.1l0,0v1.7C7.3,18.8,6.8,19.3,6.2,19.3C6.2,19.3,6.2,19.3,6.2,19.3z"/>
	<path class="st1" d="M6.3,14.8C6.3,14.8,6.3,14.8,6.3,14.8c-1,0-1.8,0.8-1.8,1.7v1.7c0,1,0.8,1.8,1.8,1.8h0c1,0,1.8-0.8,1.8-1.8
		v-1.7C8,15.6,7.2,14.8,6.3,14.8z M5.9,16.5c0-0.2,0.2-0.4,0.4-0.4l0,0c0.2,0,0.3,0.2,0.3,0.4v1.7c0,0.2-0.2,0.4-0.4,0.4
		s-0.4-0.2-0.4-0.4V16.5z"/>
	<path id="Path_5402" class="st0" d="M13.8,19.3L13.8,19.3c-0.6,0-1.1-0.5-1.1-1.1v0v-1.7c0-0.6,0.5-1.1,1.1-1.1h0l0,0
		c0.6,0,1.1,0.5,1.1,1.1v0v1.7C14.8,18.8,14.4,19.3,13.8,19.3C13.8,19.3,13.8,19.3,13.8,19.3z"/>
	<path class="st1" d="M13.8,14.8c-0.5,0-0.9,0.2-1.3,0.5C12.2,15.6,12,16,12,16.5v1.7c0,1,0.8,1.8,1.8,1.8h0c1,0,1.8-0.8,1.8-1.8
		v-1.7C15.5,15.6,14.7,14.8,13.8,14.8z M13.4,16.5c0-0.2,0.2-0.4,0.4-0.4l0,0c0.2,0,0.3,0.2,0.3,0.4v1.7c0,0.2-0.2,0.4-0.4,0.4
		s-0.4-0.2-0.4-0.4V16.5z"/>
	<path class="st1" d="M12.2,0H7.8C6.8,0,6,0.8,6,1.8v2.7c0,0.4,0.3,0.7,0.7,0.7c0.4,0,0.7-0.3,0.7-0.7V1.8c0-0.2,0.2-0.4,0.4-0.4
		h4.4c0.2,0,0.4,0.2,0.4,0.4v0.8c0,0.4,0.3,0.7,0.7,0.7C13.7,3.3,14,3,14,2.6V1.8C14,0.8,13.2,0,12.2,0z"/>
	<path class="st1" d="M16.3,10.6c-0.4,0-0.7,0.3-0.7,0.7v5.3c0,0.1-0.1,0.1-0.1,0.1H4.5c-0.1,0-0.1-0.1-0.1-0.1V5.4
		c0-0.1,0-0.1,0.1-0.1c0,0,0,0,0.1,0c0,0,0,0,0,0h10.9c0,0,0,0,0.1,0c0,0,0.1,0.1,0.1,0.1V8c0,0.4,0.3,0.7,0.7,0.7
		C16.7,8.8,17,8.4,17,8V5.4c0-0.9-0.7-1.6-1.6-1.6H4.5C3.7,3.8,3,4.5,3,5.4v11.1c0,0.9,0.7,1.6,1.6,1.6h10.9c0.9,0,1.6-0.7,1.6-1.6
		v-5.3C17,10.9,16.7,10.6,16.3,10.6z"/>
	<path id="Path_5406" class="st0" d="M3.7,14.4v2.1c0,0.5,0.4,0.9,0.9,0.9l0,0h10.9c0.5,0,0.9-0.4,0.9-0.9l0,0v-2.1
		c0-1.5-1.2-2.7-2.7-2.7H6.4C4.9,11.7,3.7,12.9,3.7,14.4z"/>
	<path class="st1" d="M13.6,11H6.4C4.5,11,3,12.5,3,14.4v2.1c0,0.9,0.7,1.6,1.6,1.6h10.9c0.9,0,1.6-0.7,1.6-1.6v-2.1
		C17,12.5,15.5,11,13.6,11z M15.6,14.4v2.1c0,0.1-0.1,0.1-0.1,0.1H4.5c-0.1,0-0.1-0.1-0.1-0.1v-2.1c0-1.1,0.9-2,2-2h7.2
		C14.7,12.4,15.6,13.3,15.6,14.4z"/>
	<path class="st1" d="M13.5,7.1H6.4c-0.4,0-0.7,0.3-0.7,0.7c0,0.4,0.3,0.7,0.7,0.7h6.4v0.5c0,0.4,0.3,0.7,0.7,0.7
		c0.4,0,0.7-0.3,0.7-0.7V7.8C14.2,7.4,13.9,7.1,13.5,7.1z"/>
</g>
</svg>
