<!-- Generated by IcoMoon.io -->
<svg version="1.1" xmlns="http://www.w3.org/2000/svg" width="32" height="32" viewBox="0 0 32 32">
<title>copy</title>
<path d="M1.371 15.771c-0.686 0-1.371 0.686-1.371 1.371 0 0 0 0 0 0v2.057c0 0.914 0.686 1.371 1.371 1.371s1.371-0.686 1.371-1.371v-2.057c0.229-0.686-0.457-1.371-1.371-1.371v0z"></path>
<path d="M7.086 29.029h-2.286c-0.914 0-1.371 0.686-1.371 1.371s0.686 1.6 1.371 1.6h2.057c0.914 0 1.371-0.686 1.371-1.371s-0.457-1.6-1.143-1.6z"></path>
<path d="M1.371 23.543c-0.914 0-1.371 0.686-1.371 1.371 0 0 0 0 0 0v2.057c0 0.914 0.686 1.371 1.371 1.371s1.371-0.686 1.371-1.371v-2.057c0.229-0.686-0.457-1.371-1.371-1.371z"></path>
<path d="M3.2 8.686c-0.686-0.457-1.6-0.457-2.057 0 0 0 0 0 0 0v0c-0.686 0.686-1.143 1.829-1.143 2.971 0 0.914 0.686 1.371 1.371 1.6 0 0 0 0 0 0v0c0.686 0 1.371-0.686 1.371-1.371 0-0.457 0.229-0.686 0.457-0.914 0.686-0.914 0.686-1.829 0-2.286v0z"></path>
<path d="M14.857 29.029h-2.286c-0.914 0-1.371 0.686-1.371 1.371s0.686 1.6 1.371 1.6h2.057c0.914 0 1.371-0.686 1.371-1.371s-0.457-1.6-1.143-1.6z"></path>
<path d="M21.257 28.8c-0.229 0.229-0.686 0.457-0.914 0.457-0.914 0-1.371 0.686-1.371 1.371 0 0.914 0.686 1.371 1.371 1.371v0c1.143 0 2.057-0.457 2.971-1.143 0.686-0.457 0.914-1.371 0.457-2.057s-1.371-0.914-2.057-0.457v0c-0.229 0.229-0.229 0.229-0.457 0.457z"></path>
<path d="M27.657 0h-16c-2.514 0-4.343 2.057-4.343 4.343v16c0 2.514 2.057 4.343 4.343 4.343h16c2.514 0 4.343-2.057 4.343-4.343 0 0 0 0 0 0v-16c0-2.286-2.057-4.343-4.343-4.343 0 0 0 0 0 0zM29.029 20.343c0 0.914-0.686 1.371-1.371 1.371h-16c-0.914 0-1.371-0.686-1.371-1.371v0-16c0-0.914 0.686-1.371 1.371-1.371v0h16c0.914 0 1.371 0.686 1.371 1.371v16z"></path>
</svg>
