<!-- Generated by IcoMoon.io -->
<svg version="1.1" xmlns="http://www.w3.org/2000/svg" width="53" height="32" viewBox="0 0 53 32">
<title>destination-ECO-crane</title>
<path fill="#009641" d="M6.003 3.941c0-0.537-0.075-1.016-0.223-1.436s-0.359-0.776-0.631-1.067c-0.272-0.291-0.599-0.511-0.979-0.664-0.383-0.152-0.803-0.228-1.264-0.228h-2.252v6.795h2.252c0.46 0 0.881-0.076 1.261-0.228 0.381-0.152 0.707-0.373 0.979-0.664s0.483-0.645 0.631-1.067c0.151-0.421 0.225-0.901 0.225-1.441zM6.579 3.941c0 0.595-0.089 1.129-0.267 1.605-0.177 0.475-0.428 0.879-0.751 1.213-0.323 0.333-0.709 0.589-1.16 0.767-0.452 0.177-0.951 0.267-1.495 0.267h-2.812v-7.699h2.812c0.544 0 1.043 0.089 1.495 0.267s0.837 0.433 1.16 0.767c0.323 0.333 0.573 0.737 0.751 1.213s0.267 1.008 0.267 1.6z"></path>
<path fill="#009641" d="M8.221 4.872v0.104c0 0.407 0.047 0.763 0.141 1.072 0.095 0.308 0.228 0.567 0.403 0.775s0.384 0.367 0.631 0.472c0.247 0.105 0.523 0.157 0.827 0.157 0.272 0 0.508-0.031 0.708-0.091s0.368-0.127 0.504-0.201c0.136-0.075 0.243-0.141 0.323-0.201s0.137-0.089 0.175-0.089c0.047 0 0.084 0.019 0.109 0.055l0.141 0.175c-0.087 0.109-0.201 0.211-0.344 0.304-0.144 0.095-0.303 0.175-0.479 0.241s-0.364 0.121-0.565 0.161c-0.201 0.040-0.404 0.060-0.608 0.060-0.369 0-0.707-0.065-1.012-0.195s-0.565-0.316-0.784-0.563c-0.217-0.247-0.384-0.549-0.503-0.907-0.117-0.357-0.177-0.765-0.177-1.225 0-0.388 0.056-0.747 0.167-1.076 0.111-0.328 0.271-0.611 0.479-0.849 0.208-0.237 0.464-0.423 0.767-0.556 0.303-0.135 0.645-0.201 1.029-0.201 0.305 0 0.588 0.053 0.848 0.157 0.261 0.105 0.488 0.257 0.68 0.459s0.344 0.449 0.455 0.744c0.111 0.293 0.165 0.631 0.165 1.012 0 0.080-0.011 0.135-0.033 0.163-0.021 0.029-0.059 0.044-0.109 0.044h-3.936zM11.833 4.54c0-0.291-0.040-0.551-0.121-0.781s-0.197-0.424-0.347-0.584c-0.148-0.16-0.324-0.283-0.529-0.368s-0.432-0.127-0.679-0.127c-0.279 0-0.529 0.044-0.751 0.131s-0.412 0.212-0.573 0.376c-0.161 0.163-0.292 0.359-0.389 0.588-0.097 0.228-0.163 0.484-0.196 0.767l3.585-0.001z"></path>
<path fill="#009641" d="M16.687 3.049c-0.029 0.051-0.071 0.076-0.125 0.076-0.040 0-0.091-0.024-0.152-0.069s-0.143-0.096-0.247-0.152c-0.104-0.056-0.232-0.107-0.384-0.152s-0.337-0.067-0.555-0.067c-0.196 0-0.373 0.027-0.535 0.084-0.161 0.056-0.299 0.132-0.413 0.227s-0.203 0.203-0.265 0.328c-0.061 0.125-0.092 0.257-0.092 0.395 0 0.171 0.044 0.312 0.131 0.424s0.201 0.208 0.341 0.288c0.14 0.080 0.299 0.149 0.48 0.207s0.367 0.116 0.553 0.175c0.187 0.057 0.371 0.121 0.552 0.192s0.343 0.16 0.483 0.265c0.14 0.105 0.252 0.235 0.339 0.387s0.131 0.337 0.131 0.555c0 0.236-0.041 0.455-0.125 0.659-0.084 0.203-0.205 0.379-0.367 0.528s-0.361 0.267-0.596 0.353c-0.236 0.087-0.507 0.131-0.811 0.131-0.381 0-0.709-0.061-0.984-0.184-0.276-0.121-0.523-0.279-0.74-0.475l0.12-0.185c0.019-0.029 0.040-0.051 0.064-0.065s0.055-0.021 0.095-0.021c0.047 0 0.105 0.029 0.172 0.087 0.067 0.059 0.156 0.12 0.268 0.187s0.252 0.131 0.417 0.188c0.165 0.059 0.368 0.087 0.611 0.087 0.228 0 0.429-0.032 0.604-0.096s0.32-0.148 0.436-0.257c0.116-0.109 0.205-0.237 0.265-0.384s0.089-0.301 0.089-0.464c0-0.181-0.044-0.332-0.131-0.452s-0.201-0.221-0.343-0.305c-0.141-0.084-0.301-0.155-0.48-0.212-0.18-0.057-0.364-0.116-0.553-0.175-0.188-0.057-0.372-0.121-0.552-0.189-0.18-0.069-0.341-0.156-0.483-0.261s-0.256-0.235-0.343-0.384c-0.087-0.151-0.131-0.337-0.131-0.563 0-0.192 0.041-0.377 0.125-0.555s0.203-0.333 0.357-0.468 0.341-0.241 0.563-0.321c0.221-0.080 0.469-0.119 0.745-0.119 0.331 0 0.624 0.047 0.88 0.141s0.488 0.24 0.697 0.436l-0.113 0.179z"></path>
<path fill="#009641" d="M19.815 7.88c-0.367 0-0.651-0.101-0.856-0.305-0.205-0.203-0.308-0.517-0.308-0.941v-3.699h-0.777c-0.040 0-0.072-0.011-0.097-0.032s-0.039-0.052-0.039-0.092v-0.201l0.925-0.065 0.131-1.937c0.007-0.032 0.021-0.061 0.044-0.087 0.021-0.025 0.053-0.039 0.092-0.039h0.245v2.068h1.708v0.387h-1.708v3.672c0 0.149 0.020 0.276 0.059 0.383s0.091 0.196 0.157 0.265c0.067 0.069 0.145 0.12 0.236 0.152 0.091 0.033 0.189 0.049 0.293 0.049 0.131 0 0.243-0.020 0.337-0.059s0.176-0.080 0.245-0.125c0.069-0.045 0.125-0.087 0.169-0.125s0.079-0.056 0.104-0.056c0.029 0 0.059 0.017 0.087 0.055l0.141 0.228c-0.137 0.152-0.312 0.273-0.524 0.367-0.216 0.092-0.437 0.139-0.665 0.139z"></path>
<path fill="#009641" d="M22.861 0.515c0 0.065-0.012 0.125-0.040 0.181-0.027 0.056-0.064 0.107-0.107 0.151-0.044 0.044-0.095 0.077-0.152 0.104-0.059 0.025-0.12 0.039-0.185 0.039s-0.127-0.012-0.185-0.039c-0.059-0.025-0.109-0.060-0.152-0.104-0.044-0.043-0.077-0.095-0.103-0.151s-0.039-0.116-0.039-0.181c0-0.065 0.013-0.129 0.039-0.189s0.060-0.111 0.103-0.155c0.044-0.044 0.095-0.079 0.152-0.104 0.059-0.025 0.12-0.039 0.185-0.039s0.127 0.013 0.185 0.039 0.108 0.060 0.152 0.104c0.044 0.044 0.080 0.095 0.107 0.155s0.040 0.124 0.040 0.189zM22.637 2.38v5.412h-0.517v-5.412h0.517z"></path>
<path fill="#009641" d="M24.977 3.327c0.251-0.312 0.54-0.563 0.868-0.751 0.328-0.189 0.693-0.283 1.096-0.283 0.297 0 0.56 0.047 0.787 0.141s0.413 0.231 0.563 0.408c0.148 0.177 0.261 0.392 0.337 0.641 0.076 0.251 0.115 0.533 0.115 0.849v3.46h-0.523v-3.46c0-0.508-0.116-0.907-0.348-1.195s-0.585-0.432-1.060-0.432c-0.352 0-0.68 0.089-0.987 0.268-0.307 0.18-0.58 0.429-0.82 0.749v4.069h-0.523v-5.413h0.288c0.091 0 0.144 0.045 0.157 0.136l0.049 0.811z"></path>
<path fill="#009641" d="M30.313 3.147c0.283-0.283 0.58-0.497 0.892-0.643s0.665-0.217 1.061-0.217c0.291 0 0.544 0.045 0.761 0.137s0.399 0.225 0.543 0.397c0.143 0.172 0.251 0.381 0.323 0.625 0.072 0.245 0.109 0.519 0.109 0.82v3.525h-0.207c-0.109 0-0.176-0.051-0.201-0.152l-0.076-0.696c-0.148 0.145-0.296 0.276-0.443 0.392s-0.301 0.215-0.46 0.293c-0.16 0.080-0.332 0.141-0.517 0.185s-0.388 0.065-0.609 0.065c-0.185 0-0.364-0.027-0.539-0.081s-0.328-0.137-0.464-0.251c-0.136-0.112-0.245-0.257-0.327-0.433s-0.124-0.387-0.124-0.633c0-0.228 0.065-0.441 0.196-0.636 0.131-0.196 0.336-0.367 0.615-0.512 0.28-0.144 0.639-0.261 1.075-0.348 0.437-0.087 0.961-0.137 1.573-0.152v-0.565c0-0.501-0.107-0.887-0.323-1.156-0.216-0.271-0.536-0.404-0.961-0.404-0.261 0-0.483 0.036-0.665 0.109-0.183 0.072-0.339 0.152-0.467 0.24-0.127 0.087-0.231 0.167-0.311 0.24-0.080 0.072-0.147 0.109-0.201 0.109-0.040 0-0.072-0.009-0.097-0.027-0.025-0.019-0.047-0.041-0.065-0.071l-0.091-0.163zM33.496 5.176c-0.515 0.019-0.957 0.059-1.329 0.121-0.372 0.064-0.679 0.151-0.919 0.26-0.241 0.109-0.421 0.237-0.537 0.388s-0.175 0.323-0.175 0.515c0 0.181 0.031 0.337 0.091 0.469s0.14 0.241 0.24 0.327c0.1 0.085 0.213 0.148 0.344 0.189 0.131 0.040 0.267 0.060 0.408 0.060 0.211 0 0.404-0.024 0.58-0.069s0.339-0.109 0.489-0.191c0.151-0.081 0.291-0.177 0.42-0.291 0.131-0.112 0.26-0.235 0.387-0.364v-1.415h0.001z"></path>
<path fill="#009641" d="M37.152 7.88c-0.367 0-0.651-0.101-0.856-0.305-0.205-0.203-0.308-0.517-0.308-0.941v-3.699h-0.777c-0.040 0-0.072-0.011-0.097-0.032s-0.039-0.052-0.039-0.092v-0.201l0.924-0.065 0.131-1.937c0.007-0.032 0.021-0.061 0.044-0.087 0.021-0.025 0.053-0.039 0.092-0.039h0.245v2.068h1.708v0.387h-1.708v3.672c0 0.149 0.020 0.276 0.059 0.383s0.091 0.196 0.157 0.265c0.067 0.069 0.145 0.12 0.236 0.152 0.091 0.033 0.188 0.049 0.293 0.049 0.131 0 0.243-0.020 0.337-0.059s0.176-0.080 0.245-0.125c0.069-0.045 0.125-0.087 0.169-0.125s0.077-0.056 0.104-0.056c0.029 0 0.059 0.017 0.087 0.055l0.141 0.228c-0.137 0.152-0.312 0.273-0.524 0.367-0.215 0.092-0.436 0.139-0.664 0.139z"></path>
<path fill="#009641" d="M40.197 0.515c0 0.065-0.013 0.125-0.040 0.181s-0.064 0.107-0.107 0.151c-0.044 0.044-0.095 0.077-0.152 0.104-0.059 0.025-0.12 0.039-0.185 0.039s-0.127-0.012-0.185-0.039c-0.059-0.025-0.109-0.060-0.152-0.104-0.044-0.043-0.077-0.095-0.103-0.151s-0.039-0.116-0.039-0.181c0-0.065 0.012-0.129 0.039-0.189 0.025-0.060 0.060-0.111 0.103-0.155 0.044-0.044 0.095-0.079 0.152-0.104s0.12-0.039 0.185-0.039c0.065 0 0.127 0.013 0.185 0.039 0.057 0.025 0.109 0.060 0.152 0.104 0.044 0.044 0.080 0.095 0.107 0.155 0.028 0.060 0.040 0.124 0.040 0.189zM39.975 2.38v5.412h-0.517v-5.412h0.517z"></path>
<path fill="#009641" d="M43.963 7.456c0.323 0 0.605-0.056 0.847-0.167s0.443-0.268 0.604-0.475c0.161-0.207 0.281-0.457 0.361-0.748 0.080-0.292 0.12-0.619 0.12-0.981 0-0.359-0.040-0.685-0.12-0.979s-0.2-0.545-0.361-0.755c-0.161-0.208-0.363-0.368-0.604-0.48s-0.524-0.169-0.847-0.169c-0.323 0-0.604 0.056-0.845 0.169-0.241 0.112-0.443 0.272-0.604 0.48s-0.283 0.461-0.364 0.755-0.123 0.62-0.123 0.979c0 0.363 0.041 0.689 0.123 0.981s0.203 0.543 0.364 0.748c0.161 0.207 0.363 0.364 0.604 0.475 0.241 0.109 0.523 0.167 0.845 0.167zM43.963 2.293c0.388 0 0.736 0.065 1.043 0.197s0.564 0.321 0.775 0.564c0.211 0.243 0.372 0.535 0.483 0.877s0.165 0.727 0.165 1.152c0 0.424-0.055 0.807-0.165 1.148s-0.272 0.632-0.483 0.876c-0.211 0.243-0.468 0.429-0.775 0.56s-0.655 0.196-1.043 0.196-0.735-0.065-1.041-0.196c-0.307-0.131-0.565-0.317-0.777-0.56s-0.373-0.535-0.484-0.876c-0.111-0.341-0.167-0.724-0.167-1.148s0.056-0.808 0.167-1.152c0.111-0.343 0.272-0.635 0.484-0.877s0.472-0.432 0.777-0.564c0.307-0.132 0.653-0.197 1.041-0.197z"></path>
<path fill="#009641" d="M48.385 3.327c0.251-0.312 0.54-0.563 0.868-0.751 0.328-0.189 0.693-0.283 1.096-0.283 0.297 0 0.56 0.047 0.787 0.141s0.413 0.231 0.563 0.408c0.148 0.177 0.261 0.392 0.337 0.641 0.076 0.251 0.115 0.533 0.115 0.849v3.46h-0.523v-3.46c0-0.508-0.116-0.907-0.348-1.195s-0.585-0.432-1.060-0.432c-0.352 0-0.68 0.089-0.987 0.268-0.307 0.18-0.58 0.429-0.82 0.749v4.069h-0.523v-5.413h0.288c0.091 0 0.143 0.045 0.157 0.136l0.049 0.811z"></path>
<path fill="#009641" d="M12.855 28.764l-0.015 2.307h-12.889v-20.917h12.889v2.305h-10.057v6.948h8.145v2.22h-8.145v7.137h10.072z"></path>
<path fill="#009641" d="M29.932 26.749c0.156 0 0.292 0.063 0.409 0.189l1.124 1.212c-0.856 0.992-1.892 1.767-3.115 2.321-1.221 0.555-2.7 0.832-4.432 0.832-1.499 0-2.861-0.263-4.087-0.783-1.227-0.521-2.272-1.251-3.139-2.189s-1.537-2.063-2.015-3.377c-0.477-1.313-0.715-2.759-0.715-4.336 0-1.576 0.248-3.021 0.744-4.335s1.196-2.443 2.097-3.387c0.9-0.944 1.976-1.679 3.231-2.199 1.256-0.52 2.643-0.779 4.16-0.779 1.489 0 2.803 0.239 3.941 0.715 1.139 0.477 2.141 1.124 3.007 1.941l-0.935 1.299c-0.059 0.097-0.131 0.175-0.224 0.239-0.092 0.064-0.219 0.097-0.375 0.097-0.175 0-0.389-0.097-0.643-0.287s-0.584-0.399-0.992-0.632c-0.409-0.233-0.92-0.448-1.533-0.637s-1.367-0.281-2.263-0.281c-1.080 0-2.068 0.184-2.963 0.559s-1.664 0.92-2.311 1.631-1.153 1.576-1.513 2.599c-0.36 1.021-0.54 2.175-0.54 3.459 0 1.304 0.189 2.467 0.564 3.489 0.375 1.021 0.885 1.883 1.532 2.588s1.411 1.245 2.292 1.616c0.88 0.369 1.829 0.555 2.851 0.555 0.623 0 1.187-0.039 1.688-0.112s0.963-0.185 1.387-0.34c0.423-0.156 0.817-0.355 1.183-0.593s0.725-0.52 1.085-0.852c0.167-0.148 0.332-0.221 0.497-0.221z"></path>
<path fill="#009641" d="M46.677 30.195c-2.055 0.833-4.388 1.028-6.695 0.411-3.559-0.953-6.203-3.615-7.289-6.865l0.108-0.001v0.001l7.228-0.027 6.648 6.481zM46.763 30.16l-0.083 0.035c0.019-0.020 0.039-0.039 0.056-0.060l0.027 0.025zM52.765 23.663c-0.969 2.995-3.172 5.281-5.885 6.448 0.325-0.371 0.52-0.864 0.517-1.395-0.003-0.665-0.313-1.263-0.804-1.637l-4.433-3.375 10.605-0.041zM45.451 10.195c5.636 1.511 8.981 7.303 7.471 12.94-0.023 0.087-0.048 0.173-0.073 0.259-0.528-0.053-0.984-0.357-1.245-0.791h-0.121l-2.527 0.011 0.193 0.263h0.121l0.748-0.003 0.428 0.536-4.629 0.019c-0.004-0.953-0.78-1.723-1.733-1.72l-0.057 0.001c-0.021 0-0.043-0.001-0.064-0.001-0.092 0-0.183 0.007-0.271 0.021l-1.571 0.248 5.004-8.403c0.193-0.327 0.301-0.709 0.3-1.116-0.004-0.859-0.495-1.628-1.219-1.979l-0.025 0.051c-0.032-0.017-0.064-0.035-0.097-0.051l-5.82 11.791-7.604 1.369c-0.605-1.871-0.695-3.933-0.148-5.973 1.511-5.637 7.304-8.981 12.94-7.472z"></path>
</svg>
