<!-- Generated by IcoMoon.io -->
<svg version="1.1" xmlns="http://www.w3.org/2000/svg" width="26" height="32" viewBox="0 0 26 32">
<title>document</title>
<path d="M25.71 6.29l-6-6c-0.181-0.179-0.429-0.29-0.704-0.29-0.002 0-0.004 0-0.006 0h-16c-1.657 0-3 1.343-3 3v0 26c0 1.657 1.343 3 3 3h19.999c1.657 0 3-1.343 3-3v-22c0-0.002 0-0.004 0-0.005 0-0.275-0.111-0.523-0.29-0.704l0 0zM24 29c0 0.552-0.448 1-1 1v0h-19.999c-0.552 0-1-0.448-1-1v0-26c0-0.552 0.448-1 1-1v0h15v3.999c0 1.105 0.895 2 2 2v0h4z"></path>
</svg>
