<?xml version="1.0" encoding="iso-8859-1"?>
<!-- Generator: Adobe Illustrator 27.4.0, SVG Export Plug-In . SVG Version: 6.00 Build 0)  -->
<svg version="1.1" id="Layer_1" xmlns="http://www.w3.org/2000/svg" xmlns:xlink="http://www.w3.org/1999/xlink" x="0px" y="0px"
	 viewBox="0 0 20 20" style="enable-background:new 0 0 20 20;" xml:space="preserve">
<g>
	<rect y="2.859" style="fill:none;" width="19.99" height="14.283"/>
	<path id="Path_6644" style="fill:#0B57AD;" d="M19.27,2.859h-7.176c-0.81,0-1.579,0.36-2.109,0.97
		c-0.52-0.62-1.289-0.97-2.099-0.97H0.71C0.32,2.859,0,3.178,0,3.568l0,0v9.315c0,1.559,1.269,2.819,2.829,2.829h6.457v0.72
		c0.01,0.39,0.35,0.7,0.74,0.69c0.37-0.01,0.67-0.31,0.69-0.69v-0.72h6.457c1.559,0,2.819-1.269,2.829-2.829V3.568
		C19.99,3.178,19.67,2.859,19.27,2.859L19.27,2.859 M1.429,12.884V4.288h6.457c0.77,0,1.399,0.63,1.399,1.399v8.596H2.829
		C2.049,14.283,1.429,13.653,1.429,12.884 M18.561,12.884c0,0.77-0.63,1.399-1.399,1.399h-6.447V5.687
		c0-0.77,0.63-1.399,1.399-1.399h6.457L18.561,12.884z"/>
	<path id="Path_6645" style="fill:#0B57AD;" d="M7.136,5.707H3.568c-0.39-0.01-0.72,0.3-0.74,0.69c-0.01,0.4,0.29,0.73,0.69,0.74
		c0.02,0,0.04,0,0.05,0h3.568c0.4-0.01,0.71-0.34,0.69-0.74C7.816,6.027,7.516,5.727,7.136,5.707"/>
	<path id="Path_6646" style="fill:#0B57AD;" d="M3.568,9.995h2.139c0.39-0.01,0.7-0.35,0.69-0.74c-0.01-0.38-0.31-0.68-0.69-0.69
		H3.568c-0.39,0.01-0.7,0.35-0.69,0.74C2.899,9.685,3.198,9.985,3.568,9.995"/>
	<path id="Path_6647" style="fill:#0B57AD;" d="M7.136,11.424H3.568c-0.39-0.01-0.73,0.29-0.74,0.69c-0.01,0.39,0.29,0.73,0.69,0.74
		c0.02,0,0.04,0,0.05,0h3.568c0.39-0.01,0.7-0.35,0.69-0.74C7.816,11.734,7.516,11.434,7.136,11.424"/>
	<path id="Path_6648" style="fill:#0B57AD;" d="M12.854,7.136h3.568c0.39,0.01,0.73-0.29,0.74-0.69c0.01-0.4-0.29-0.73-0.69-0.74
		c-0.02,0-0.04,0-0.05,0h-3.568c-0.39,0.01-0.7,0.35-0.69,0.74C12.174,6.827,12.474,7.126,12.854,7.136"/>
	<path id="Path_6649" style="fill:#0B57AD;" d="M12.854,9.995h3.568c0.39,0.01,0.73-0.29,0.74-0.69c0.01-0.4-0.29-0.73-0.69-0.74
		c-0.02,0-0.04,0-0.05,0h-3.568c-0.39,0.01-0.7,0.35-0.69,0.74C12.174,9.685,12.474,9.985,12.854,9.995"/>
	<path id="Path_6650" style="fill:#0B57AD;" d="M16.422,11.424h-1.429c-0.39,0.01-0.7,0.35-0.69,0.74c0.01,0.37,0.31,0.67,0.69,0.69
		h1.429c0.39-0.01,0.7-0.35,0.69-0.74C17.091,11.734,16.792,11.434,16.422,11.424"/>
</g>
</svg>
