<?xml version="1.0" encoding="iso-8859-1"?>
<!-- Generator: Adobe Illustrator 27.4.0, SVG Export Plug-In . SVG Version: 6.00 Build 0)  -->
<svg version="1.1" id="Layer_1" xmlns="http://www.w3.org/2000/svg" xmlns:xlink="http://www.w3.org/1999/xlink" x="0px" y="0px"
	 viewBox="0 0 20 20" style="enable-background:new 0 0 20 20;" xml:space="preserve">
<g>
	<path style="fill:#0B57AD;" d="M19.434,3.618H0.566C0.253,3.618,0,3.872,0,4.184v11.632c0,0.312,0.253,0.566,0.566,0.566h18.868
		c0.313,0,0.566-0.253,0.566-0.566V4.184C20,3.872,19.747,3.618,19.434,3.618z M1.132,7.392h17.736v5.216H1.132V7.392z M18.868,4.75
		v1.887H1.132V4.75H18.868z M1.132,15.25v-1.887h17.736v1.887H1.132z"/>
	<path style="fill:#0B57AD;" d="M11.367,9.51l-2.42-1.398c-0.175-0.101-0.391-0.101-0.566,0C8.205,8.214,8.098,8.4,8.098,8.602
		v2.794c0,0.202,0.108,0.389,0.283,0.49c0.088,0.051,0.186,0.076,0.283,0.076s0.195-0.025,0.283-0.076l2.42-1.397
		c0.175-0.101,0.283-0.287,0.283-0.49C11.65,9.798,11.542,9.611,11.367,9.51z"/>
	<path style="fill:#0B57AD;" d="M6.415,5.977h0.896c0.208,0,0.377-0.17,0.377-0.378c0-0.208-0.169-0.378-0.377-0.378H6.415
		c-0.208,0-0.377,0.17-0.377,0.378C6.038,5.807,6.207,5.977,6.415,5.977z"/>
	<path style="fill:#0B57AD;" d="M15.825,5.977h0.896c0.208,0,0.377-0.17,0.377-0.378c0-0.208-0.169-0.378-0.377-0.378h-0.896
		c-0.208,0-0.377,0.17-0.377,0.378C15.448,5.807,15.617,5.977,15.825,5.977z"/>
	<path style="fill:#0B57AD;" d="M9.552,5.977h0.896c0.208,0,0.377-0.17,0.377-0.378c0-0.208-0.169-0.378-0.377-0.378H9.552
		c-0.208,0-0.377,0.17-0.377,0.378C9.175,5.807,9.344,5.977,9.552,5.977z"/>
	<path style="fill:#0B57AD;" d="M12.689,5.977h0.896c0.208,0,0.377-0.17,0.377-0.378c0-0.208-0.169-0.378-0.377-0.378h-0.896
		c-0.208,0-0.377,0.17-0.377,0.378C12.311,5.807,12.481,5.977,12.689,5.977z"/>
	<path style="fill:#0B57AD;" d="M3.278,5.977h0.896c0.208,0,0.377-0.17,0.377-0.378c0-0.208-0.169-0.378-0.377-0.378H3.278
		c-0.208,0-0.377,0.17-0.377,0.378C2.901,5.807,3.07,5.977,3.278,5.977z"/>
	<path style="fill:#0B57AD;" d="M16.722,14.023h-0.896c-0.208,0-0.377,0.17-0.377,0.378c0,0.208,0.169,0.378,0.377,0.378h0.896
		c0.208,0,0.377-0.17,0.377-0.378C17.099,14.193,16.93,14.023,16.722,14.023z"/>
	<path style="fill:#0B57AD;" d="M13.585,14.023h-0.896c-0.208,0-0.377,0.17-0.377,0.378c0,0.208,0.169,0.378,0.377,0.378h0.896
		c0.208,0,0.377-0.17,0.377-0.378C13.962,14.193,13.793,14.023,13.585,14.023z"/>
	<path style="fill:#0B57AD;" d="M7.311,14.023H6.415c-0.208,0-0.377,0.17-0.377,0.378c0,0.208,0.169,0.378,0.377,0.378h0.896
		c0.208,0,0.377-0.17,0.377-0.378C7.689,14.193,7.519,14.023,7.311,14.023z"/>
	<path style="fill:#0B57AD;" d="M4.175,14.023H3.278c-0.208,0-0.377,0.17-0.377,0.378c0,0.208,0.169,0.378,0.377,0.378h0.896
		c0.208,0,0.377-0.17,0.377-0.378C4.552,14.193,4.383,14.023,4.175,14.023z"/>
	<path style="fill:#0B57AD;" d="M10.448,14.023H9.552c-0.208,0-0.377,0.17-0.377,0.378c0,0.208,0.169,0.378,0.377,0.378h0.896
		c0.208,0,0.377-0.17,0.377-0.378C10.825,14.193,10.656,14.023,10.448,14.023z"/>
</g>
</svg>
