<!-- Generated by IcoMoon.io -->
<svg version="1.1" xmlns="http://www.w3.org/2000/svg" width="32" height="32" viewBox="0 0 32 32">
<title>exclamation</title>
<path d="M16 23.058c1.941 0 3.515-1.574 3.515-3.515v-16.028c0-1.942-1.574-3.515-3.515-3.515s-3.515 1.574-3.515 3.515v16.028c0 1.941 1.574 3.515 3.515 3.515z"></path>
<path d="M16.001 24.971c-0.925 0-1.834 0.374-2.486 1.029-0.655 0.652-1.029 1.558-1.029 2.483s0.374 1.834 1.029 2.486c0.652 0.655 1.561 1.029 2.486 1.029s1.831-0.374 2.486-1.029c0.652-0.652 1.029-1.561 1.029-2.486s-0.377-1.831-1.029-2.483c-0.655-0.655-1.561-1.029-2.486-1.029z"></path>
</svg>
