<!-- Generated by IcoMoon.io -->
<svg version="1.1" xmlns="http://www.w3.org/2000/svg" width="29" height="32" viewBox="0 0 29 32">
<title>eye-1</title>
<path d="M14.459 6.139c-6.535 0.003-12.127 4.039-14.422 9.754l-0.037 0.105c2.33 5.821 7.923 9.858 14.459 9.858s12.129-4.037 14.422-9.754l0.037-0.105c-2.331-5.821-7.923-9.857-14.459-9.859h-0zM14.459 22.57c-3.63 0-6.572-2.943-6.572-6.572s2.943-6.572 6.572-6.572c3.63 0 6.572 2.943 6.572 6.572v0c-0.002 3.629-2.943 6.571-6.572 6.572h-0z"></path>
<path d="M5.802 30.245l14.359-29.76 2.627 1.268-14.359 29.76-2.627-1.268z"></path>
<path d="M20.33 0.973l1.972 0.95-14.042 29.108-1.971-0.951 14.040-29.102zM19.99 0.004l-14.675 30.415 3.283 1.586 0.318-0.656 14.36-29.761-3.286-1.583z"></path>
</svg>
