<!-- Generated by IcoMoon.io -->
<svg version="1.1" xmlns="http://www.w3.org/2000/svg" width="32" height="32" viewBox="0 0 32 32">
<title>flight_network</title>
<path d="M19.533 6.64l-6.667-2.333c-0.56-0.2-1.173-0.2-1.733-0.013l-5.32 1.787c-1.080 0.373-1.813 1.387-1.813 2.533v15.8c0 1.88 1.88 3.16 3.627 2.48l3.907-1.52c0.293-0.12 0.627-0.12 0.92-0.013l6.667 2.333c0.56 0.2 1.173 0.2 1.733 0.013l5.32-1.787c1.080-0.36 1.813-1.387 1.813-2.533v-15.8c0-1.88-1.88-3.16-3.627-2.48l-3.907 1.52c-0.293 0.107-0.613 0.12-0.92 0.013zM20 25.187l-8-2.813v-15.56l8 2.813v15.56z"></path>
</svg>
