<!-- Generated by IcoMoon.io -->
<svg version="1.1" xmlns="http://www.w3.org/2000/svg" width="32" height="32" viewBox="0 0 32 32">
<title>fly_to_everywhere</title>
<path d="M17.507 19.413l1.907-1.907 7.64 7.64c0.52 0.52 0.52 1.373 0 1.907-0.52 0.52-1.373 0.52-1.907 0l-7.64-7.64zM23.227 11.773l1.693-1.693c1.187-1.187 1.027-3.24-0.413-4.107-5.187-3.173-12.040-2.52-16.533 1.96 5.24-1.733 11.080-0.333 15.253 3.84zM7.933 7.973c-4.48 4.493-5.133 11.347-1.973 16.533 0.88 1.44 2.92 1.613 4.107 0.413l1.693-1.693c-4.16-4.173-5.56-10.013-3.827-15.253zM7.96 7.947l-0.013 0.013c-0.507 4.013 1.56 9.173 5.733 13.36l7.64-7.64c-4.173-4.173-9.347-6.24-13.36-5.733z"></path>
</svg>
