<!-- Generated by IcoMoon.io -->
<svg version="1.1" xmlns="http://www.w3.org/2000/svg" width="32" height="32" viewBox="0 0 32 32">
<title>gift-green</title>
<path fill="#0c9b17" d="M26.413 8.907h-4.6c0.253-0.16 0.493-0.32 0.72-0.493 1.4-0.92 4.147-4.16 2.32-6.013-1.84-1.84-4.613-0.92-6 0 0 0-1.667 1.4-2.84 3.987-1.187-2.587-2.867-3.987-2.867-3.987-1.387-0.92-4.147-1.84-5.987 0-1.84 1.853 0.92 5.093 2.307 6.013 0.227 0.173 0.467 0.333 0.72 0.493h-4.587c-1.267 0-3.787 0.76-3.787 3.787v14.187c0 1.267 0.76 3.787 3.787 3.787h20.813c1.267 0 3.773-0.76 3.773-3.787v-14.187c0-1.267-0.76-3.787-3.773-3.787zM12.227 28.773h-6.627c-1.52 0-1.907-1.253-1.907-1.893v-11.347h8.533v13.24zM12.227 13.64h-8.533v-0.947c0-1.52 1.28-1.893 1.907-1.893h6.627v2.84zM10.147 7.080c-2.307-2.32-1.84-3.24-1.387-3.707 0.467-0.453 2.32 0 3.24 0.467s2.28 2.32 2.76 4.627c0.067 0.293-0.027 0.4-0.16 0.44h-0.573c-1.093-0.173-3.307-1.253-3.88-1.827zM17.893 28.773h-3.787v-17.973h3.787v17.973zM17.413 8.907c-0.147-0.040-0.227-0.147-0.16-0.44 0.467-2.307 1.84-4.16 2.76-4.627s2.76-0.92 3.24-0.467c0.44 0.467 0.92 1.387-1.4 3.707-0.573 0.573-2.787 1.653-3.88 1.827h-0.56zM28.307 26.88c0 1.52-1.28 1.893-1.893 1.893h-6.64v-13.24h8.533v11.347zM28.307 13.64h-8.533v-2.84h6.64c1.52 0 1.893 1.253 1.893 1.893v0.947z"></path>
<path fill="#e5f5e5" d="M14.76 8.467c0.067 0.293-0.027 0.4-0.16 0.44h-0.573c-1.093-0.173-3.307-1.253-3.88-1.827-2.307-2.32-1.84-3.24-1.387-3.707 0.467-0.453 2.32 0 3.24 0.467s2.28 2.32 2.76 4.627z"></path>
<path fill="#e5f5e5" d="M21.853 7.080c-0.573 0.573-2.787 1.653-3.88 1.827h-0.56c-0.147-0.040-0.227-0.147-0.16-0.44 0.467-2.307 1.84-4.16 2.76-4.627s2.76-0.92 3.24-0.467c0.44 0.467 0.92 1.387-1.4 3.707z"></path>
<path fill="#e5f5e5" d="M28.307 12.693v0.947h-8.533v-2.84h6.64c1.52 0 1.893 1.253 1.893 1.893z"></path>
<path fill="#e5f5e5" d="M28.307 15.533v11.347c0 1.52-1.28 1.893-1.893 1.893h-6.64v-13.24h8.533z"></path>
<path fill="#e5f5e5" d="M14.107 10.8h3.787v17.973h-3.787v-17.973z"></path>
<path fill="#e5f5e5" d="M12.227 10.8v2.84h-8.533v-0.947c0-1.52 1.28-1.893 1.907-1.893h6.627z"></path>
<path fill="#e5f5e5" d="M12.227 15.533v13.24h-6.627c-1.52 0-1.907-1.253-1.907-1.893v-11.347h8.533z"></path>
</svg>
