<!-- Generated by IcoMoon.io -->
<svg version="1.1" xmlns="http://www.w3.org/2000/svg" width="38" height="32" viewBox="0 0 38 32">
<title>heart-filled</title>
<path d="M11.769 0v0c2.704 0.015 5.188 0.947 7.159 2.5l-0.025-0.019c1.948-1.535 4.433-2.467 7.136-2.481h0.045c6.504 0.118 11.732 5.418 11.732 11.939 0 0.056-0 0.111-0.001 0.167l0-0.008c-0.010 4.111-1.866 7.787-4.781 10.244l-0.020 0.017-9.415 7.938c-1.257 1.060-2.895 1.705-4.684 1.705s-3.427-0.644-4.695-1.713l0.011 0.009-9.415-7.938c-2.94-2.471-4.8-6.146-4.813-10.256v-0.002c-0.001-0.048-0.001-0.104-0.001-0.16 0-6.521 5.227-11.822 11.721-11.939l0.011-0z"></path>
</svg>
