<?xml version="1.0" encoding="UTF-8"?>
<svg id="Warstwa_1" data-name="Warstwa 1" xmlns="http://www.w3.org/2000/svg" viewBox="0 0 20 20">
  <defs>
    <style>
      .cls-1 {
        fill: #252668;
      }
    </style>
  </defs>
  <path id="Home" class="cls-1" d="m19.75,9.76c.36-.41.33-1.04-.08-1.41L10.73.27c-.42-.37-1.04-.36-1.45.02L.31,8.78c-.4.38-.42,1.01-.04,1.41l.22.24c.34.4.94.45,1.35.11l.67-.62v9.08c0,.55.43,1,.98,1.01,0,0,0,0,0,0h3.5c.55,0,.98-.46.98-1.01h0v-6.35h4.46v6.35c-.04.52.35.97.87,1,.02,0,.03,0,.05,0h3.7c.55,0,.98-.46.98-1.01,0,0,0,0,0,0v-8.95l.41.38c.23.21.71.04,1.07-.37l.25-.29Z"/>
</svg>