<!-- Generated by IcoMoon.io -->
<svg version="1.1" xmlns="http://www.w3.org/2000/svg" width="32" height="32" viewBox="0 0 32 32">
<title>home-gray</title>
<path d="M31.68 15.68c0.64-0.64 0.48-1.6-0.16-2.24l-14.24-12.96c-0.64-0.64-1.6-0.64-2.24 0l-14.4 13.6c-0.64 0.64-0.64 1.6 0 2.24l0.32 0.32c0.48 0.64 1.44 0.64 2.24 0.16l1.12-0.96v14.56c0 0.8 0.64 1.6 1.6 1.6v0h5.28c0.96 0 1.6-0.8 1.6-1.6v0-10.24h7.2v10.24c0 0.8 0.64 1.6 1.44 1.6 0 0 0 0 0.16 0h5.92c0.8 0 1.6-0.8 1.6-1.6v0-14.4l0.64 0.64c0.32 0.32 1.12 0 1.76-0.64l0.16-0.32z"></path>
</svg>
