<?xml version="1.0" encoding="iso-8859-1"?>
<!-- Generator: Adobe Illustrator 27.0.1, SVG Export Plug-In . SVG Version: 6.00 Build 0)  -->
<svg version="1.1" id="Layer_1" xmlns="http://www.w3.org/2000/svg" xmlns:xlink="http://www.w3.org/1999/xlink" x="0px" y="0px"
	 viewBox="0 0 16 16" style="enable-background:new 0 0 16 16;" xml:space="preserve">
<g>
	<g id="Path_7181_00000035490953784721532350000001126368130777113225_">
		<path style="fill:#0B57AD;" d="M8.005,12.469c-1.116,0-2.168-0.682-2.582-1.785c-0.112-0.3,0.039-0.634,0.339-0.747
			c0.3-0.113,0.633,0.039,0.746,0.338c0.309,0.824,1.23,1.241,2.056,0.932c0.43-0.162,0.77-0.502,0.931-0.932
			c0.111-0.3,0.447-0.453,0.746-0.339c0.3,0.112,0.451,0.447,0.339,0.746c-0.279,0.743-0.865,1.329-1.608,1.609
			C8.653,12.412,8.326,12.469,8.005,12.469z"/>
	</g>
	<g id="Line_1126_00000088129851314043233370000009254420495856585358_">
		<path style="fill:#0B57AD;" d="M5.824,9.014c-0.32,0-0.58-0.26-0.58-0.58v-1.01c0-0.32,0.26-0.58,0.58-0.58
			c0.32,0,0.58,0.26,0.58,0.58v1.01C6.404,8.754,6.144,9.014,5.824,9.014z"/>
	</g>
	<g id="Line_1127_00000080179140449353970750000014195925800166865325_">
		<path style="fill:#0B57AD;" d="M10.175,9.014c-0.32,0-0.58-0.26-0.58-0.58v-1.01c0-0.32,0.26-0.58,0.58-0.58s0.58,0.26,0.58,0.58
			v1.01C10.755,8.754,10.495,9.014,10.175,9.014z"/>
	</g>
	<g>
		<path style="fill:#0B57AD;" d="M8,15.2c-2.92,0-5.475-1.929-6.337-4.736c-0.301-0.078-0.593-0.211-0.739-0.302
			c-0.63-0.389-0.957-1.034-0.921-1.814c0.056-1.244,0.921-1.837,1.682-2.007c0.482-1.464,1.497-2.565,2.957-3.198
			c0.294-0.125,0.635,0.008,0.763,0.301S5.397,4.079,5.103,4.206C3.842,4.753,3.032,5.698,2.696,7.013
			C2.644,7.214,2.49,7.372,2.291,7.427C2.239,7.442,2.187,7.449,2.134,7.449C1.909,7.456,1.199,7.546,1.16,8.401
			c-0.038,0.84,0.755,0.96,0.999,0.977C2.41,9.395,2.625,9.573,2.686,9.817C3.302,12.303,5.487,14.04,8,14.04
			s4.697-1.737,5.313-4.225c0.049-0.199,0.201-0.358,0.398-0.416c0.047-0.014,0.094-0.022,0.141-0.024
			c0.184-0.013,1.025-0.12,0.987-0.975c-0.042-0.918-0.884-0.952-0.979-0.952c-0.264-0.002-0.492-0.182-0.557-0.436
			c-0.371-1.453-1.072-2.33-2.206-2.76c-0.3-0.114-0.45-0.448-0.336-0.748c0.114-0.3,0.448-0.45,0.747-0.337
			c1.37,0.52,2.313,1.588,2.81,3.178c0.667,0.152,1.618,0.66,1.678,2.004c0.058,1.284-0.851,1.927-1.663,2.123
			C13.47,13.274,10.918,15.2,8,15.2z"/>
	</g>
	<g>
		<path style="fill:#0B57AD;" d="M7.651,6.19c-0.197,0-0.388-0.099-0.496-0.279C6.988,5.637,7.076,5.28,7.35,5.114
			C7.869,4.8,8.232,4.496,8.492,4.158c0.293-0.382,0.444-0.809,0.423-1.202C8.894,2.565,8.678,2.201,8.378,2.05
			C8.188,1.954,7.956,1.934,7.74,1.991C7.523,2.049,7.316,2.19,7.171,2.378C7.085,2.49,7.063,2.648,7.111,2.8
			c0.052,0.162,0.173,0.289,0.361,0.38c0.288,0.139,0.409,0.486,0.27,0.774c-0.139,0.29-0.484,0.409-0.774,0.27
			c-0.472-0.228-0.813-0.607-0.961-1.07C5.842,2.641,5.933,2.086,6.253,1.671c0.301-0.392,0.723-0.676,1.188-0.8
			C7.928,0.74,8.46,0.793,8.899,1.014c0.669,0.337,1.13,1.076,1.173,1.88c0.036,0.669-0.199,1.369-0.662,1.971
			c-0.35,0.455-0.814,0.85-1.459,1.241C7.857,6.163,7.754,6.19,7.651,6.19z"/>
	</g>
</g>
</svg>
