<!-- Generated by IcoMoon.io -->
<svg version="1.1" xmlns="http://www.w3.org/2000/svg" width="32" height="32" viewBox="0 0 32 32">
<title>info</title>
<path d="M16 8.942c-1.941 0-3.515 1.574-3.515 3.515v16.028c0 1.942 1.574 3.515 3.515 3.515s3.515-1.574 3.515-3.515v-16.028c0-1.941-1.574-3.515-3.515-3.515z"></path>
<path d="M15.999 7.029c0.925 0 1.834-0.374 2.486-1.029 0.655-0.652 1.029-1.558 1.029-2.483s-0.374-1.834-1.029-2.486c-0.652-0.655-1.561-1.029-2.486-1.029s-1.831 0.374-2.486 1.029c-0.652 0.652-1.029 1.561-1.029 2.486s0.377 1.831 1.029 2.483c0.655 0.655 1.561 1.029 2.486 1.029z"></path>
</svg>
