<!-- Generated by IcoMoon.io -->
<svg version="1.1" xmlns="http://www.w3.org/2000/svg" width="32" height="32" viewBox="0 0 32 32">
<title>insurance</title>
<path d="M16.906 2.32v-1.414c0-0.501-0.405-0.906-0.906-0.906s-0.906 0.405-0.906 0.906v1.414c-7.448 0.472-13.366 6.662-13.366 14.226 0 0.499 0.437 0.906 0.936 0.906 0.403 0 0.758-0.266 0.87-0.653 0.464-1.602 1.899-2.672 3.589-2.672 0.010 0 0.019 0 0.029 0 1.624 0.038 3.13 1.086 3.589 2.672 0.112 0.387 0.512 0.653 0.915 0.653 0.408 0 0.766-0.272 0.874-0.667 0.254-0.934 0.856-1.712 1.696-2.192 0.277-0.158 0.57-0.262 0.869-0.341v14.402c0 0 0 0.002 0 0.002-0.002 0.845-0.69 1.534-1.536 1.534s-1.536-0.69-1.536-1.536v-0.587c0-0.499-0.406-0.906-0.906-0.906-0.501 0-0.906 0.405-0.906 0.906v0.587c0 1.846 1.502 3.347 3.347 3.347s3.347-1.501 3.347-3.346v-0.587c0-0.002 0-0.002 0-0.003v-13.824c0.010 0.002 0.021 0.002 0.030 0.005 1.214 0.326 2.181 1.286 2.52 2.51 0.107 0.386 0.456 0.656 0.856 0.664 0.442 0.038 0.758-0.25 0.88-0.63 0.309-0.973 0.978-1.766 1.883-2.234 0.907-0.469 1.942-0.555 2.923-0.245 1.181 0.37 2.106 1.304 2.472 2.501 0.117 0.381 0.469 0.64 0.866 0.64h0.030c0.499 0 0.906-0.405 0.906-0.906 0-7.563-5.918-13.754-13.366-14.226zM26.541 12.582c-1.435-0.456-2.962-0.326-4.296 0.363-0.75 0.387-1.392 0.928-1.89 1.581-0.717-0.981-1.752-1.709-2.946-2.027-1.381-0.378-2.83-0.195-4.082 0.52-0.685 0.39-1.264 0.914-1.712 1.534-1.021-1.374-2.656-2.238-4.426-2.238-0.013 0-0.027 0-0.038 0-1.16-0.021-2.267 0.349-3.181 0.978 1.432-5.293 6.272-9.198 12.011-9.208 0.006 0 0.011 0.003 0.018 0.003s0.011-0.003 0.018-0.003c5.744 0.008 10.59 3.925 12.018 9.227-0.453-0.314-0.955-0.56-1.494-0.73z"></path>
</svg>
