<!-- Generated by IcoMoon.io -->
<svg version="1.1" xmlns="http://www.w3.org/2000/svg" width="26" height="32" viewBox="0 0 26 32">
<title>lock</title>
<path d="M24.123 14.523h-0.492v-4.431c-0.070-2.82-1.285-5.343-3.194-7.133l-0.006-0.005c-1.73-1.823-4.17-2.958-6.875-2.958-0.093 0-0.185 0.001-0.277 0.004l0.014-0c-0.032-0-0.069-0.001-0.106-0.001-2.754 0-5.244 1.131-7.031 2.953l-0.002 0.002c-1.824 1.789-2.954 4.278-2.954 7.032 0 0.037 0 0.075 0.001 0.112l-0-0.006v4.431h-0.985c-0.014-0-0.030-0.001-0.046-0.001-0.588 0-1.109 0.289-1.427 0.734l-0.004 0.005c-0.45 0.322-0.739 0.843-0.739 1.431 0 0.016 0 0.032 0.001 0.048l-0-0.002v13.046c-0 0.014-0.001 0.030-0.001 0.046 0 0.588 0.289 1.109 0.734 1.427l0.005 0.004c0.322 0.45 0.843 0.739 1.431 0.739 0.016 0 0.032-0 0.048-0.001l-0.002 0h21.908c1.224 0 2.215-0.992 2.215-2.215v-13.046c-0.164-1.151-1.064-2.051-2.201-2.214l-0.014-0.002zM7.631 10.092c-0.003-0.061-0.004-0.133-0.004-0.205 0-1.493 0.668-2.829 1.721-3.728l0.007-0.006c1.045-1.027 2.479-1.662 4.062-1.662s3.017 0.634 4.062 1.662l-0.001-0.001c1.066 0.934 1.736 2.299 1.736 3.82 0 0.128-0.005 0.255-0.014 0.381l0.001-0.017v4.431h-11.569z"></path>
</svg>
