<?xml version="1.0" encoding="utf-8"?>
<!-- Generator: Adobe Illustrator 26.5.0, SVG Export Plug-In . SVG Version: 6.00 Build 0)  -->
<svg version="1.1" id="Layer_1" xmlns="http://www.w3.org/2000/svg" xmlns:xlink="http://www.w3.org/1999/xlink" x="0px" y="0px"
	 viewBox="0 0 20 20" style="enable-background:new 0 0 20 20;" xml:space="preserve">
<style type="text/css">
	.st0{fill:#252668;}
</style>
<g>
	<path class="st0" d="M13.8,2.3H3.9c-1.2,0-2.2,1-2.2,2.2v13.2c0,1.2,1,2.2,2.2,2.2h9.9c1.2,0,2.2-1,2.2-2.2V4.6
		C16,3.3,15,2.3,13.8,2.3z M3.9,18.8c-0.6,0-1.1-0.5-1.1-1.1V16c0.3,0.2,0.7,0.3,1.1,0.3h0.9c0.3,0,0.5,0.2,0.5,0.5v0.9
		c0,0.4,0.1,0.7,0.3,1.1H3.9z M14.9,17.8c0,0.6-0.5,1.1-1.1,1.1H7.4c-0.5-0.1-1-0.5-1-1.1v-0.9c0-0.9-0.8-1.7-1.7-1.7H3.9
		c-0.6,0-1.1-0.5-1.1-1.1V4.6c0-0.6,0.5-1.1,1.1-1.1h9.9c0.6,0,1.1,0.5,1.1,1.1V17.8z"/>
	<path id="Path_8132" class="st0" d="M16.1,17.7v-1.2c0.6,0,1.1-0.5,1.1-1.1V2.2c0-0.6-0.5-1.1-1.1-1.1H6.2c-0.6,0-1.1,0.5-1.1,1.1
		H4C4,1,5,0,6.2,0h9.9c1.2,0,2.2,1,2.2,2.2v13.2C18.4,16.7,17.4,17.7,16.1,17.7L16.1,17.7z"/>
	<line class="st0" x1="9.5" y1="20" x2="7.3" y2="20"/>
	<rect id="Rectangle_4082" x="4.9" y="5.9" class="st0" width="7.9" height="1.2"/>
	<rect id="Rectangle_4083" x="4.9" y="8.9" class="st0" width="7.9" height="1.2"/>
	<rect id="Rectangle_4084" x="9" y="11.9" class="st0" width="3.8" height="1.2"/>
</g>
</svg>
