<?xml version="1.0" encoding="UTF-8" standalone="no"?>
<svg
   width="30"
   height="30"
   viewBox="0 0 30 30"
   version="1.1"
   id="svg1"
   sodipodi:docname="mute.svg"
   inkscape:version="1.3 (0e150ed6c4, 2023-07-21)"
   xmlns:inkscape="http://www.inkscape.org/namespaces/inkscape"
   xmlns:sodipodi="http://sodipodi.sourceforge.net/DTD/sodipodi-0.dtd"
   xmlns="http://www.w3.org/2000/svg"
   xmlns:svg="http://www.w3.org/2000/svg">
  <defs
     id="defs1" />
  <sodipodi:namedview
     id="namedview1"
     pagecolor="#ffffff"
     bordercolor="#000000"
     borderopacity="0.25"
     inkscape:showpageshadow="2"
     inkscape:pageopacity="0.0"
     inkscape:pagecheckerboard="0"
     inkscape:deskcolor="#d1d1d1"
     inkscape:zoom="39.366667"
     inkscape:cx="14.987299"
     inkscape:cy="15.012701"
     inkscape:window-width="1728"
     inkscape:window-height="1184"
     inkscape:window-x="849"
     inkscape:window-y="123"
     inkscape:window-maximized="0"
     inkscape:current-layer="Group_55332" />
  <g
     id="icon_mute"
     transform="translate(-1171 -982)">
    <g
       id="icon_play"
       transform="translate(1071 982.001)">
      <rect
         id="Rectangle_30464"
         data-name="Rectangle 30464"
         width="30"
         height="30"
         rx="4"
         transform="translate(100 -0.001)"
         fill="#0b57ad" />
    </g>
    <g
       id="Group_55332"
       data-name="Group 55332"
       transform="translate(1135.002 980.54)">
      <path
         id="Path_15687"
         data-name="Path 15687"
         d="M43,13.322h3.429L50.417,9.46v14l-3.989-3.379H43Z"
         fill="none"
         stroke="#fff"
         stroke-linecap="round"
         stroke-linejoin="round"
         stroke-width="1.5" />
      <g
         id="Group_55329"
         data-name="Group 55329"
         transform="translate(0.178)">
        <path
           style="color:#000000;fill:#ffffff;stroke-linecap:round;stroke-linejoin:round;-inkscape-stroke:none"
           d="m 0,-0.75 a 0.75,0.75 0 0 0 -0.53125,0.21875 0.75,0.75 0 0 0 0,1.0625 l 5.765625,5.7636719 a 0.75,0.75 0 0 0 1.0605469,0 0.75,0.75 0 0 0 0,-1.0605469 L 0.53125,-0.53125 A 0.75,0.75 0 0 0 0,-0.75 Z"
           id="Line_2994"
           transform="translate(53.238 13.745)" />
        <path
           style="color:#000000;fill:#ffffff;stroke-linecap:round;stroke-linejoin:round;-inkscape-stroke:none"
           d="m 5.765625,-0.75 a 0.75,0.75 0 0 0 -0.53125,0.21875 L -0.53125,5.234375 a 0.75,0.75 0 0 0 0,1.0605469 0.75,0.75 0 0 0 1.0625,0 L 6.2949219,0.53125 a 0.75,0.75 0 0 0 0,-1.0625 A 0.75,0.75 0 0 0 5.765625,-0.75 Z"
           id="Line_2995"
           transform="translate(53.238 13.745)" />
      </g>
    </g>
  </g>
</svg>
