<!-- Generated by IcoMoon.io -->
<svg version="1.1" xmlns="http://www.w3.org/2000/svg" width="32" height="32" viewBox="0 0 32 32">
<title>overview</title>
<path fill="none" stroke="#0b57ad" stroke-linejoin="round" stroke-linecap="butt" stroke-miterlimit="4" stroke-width="1.6" d="M30.4 4.8v6.4c0 1.767-1.433 3.2-3.2 3.2h-6.4c-1.767 0-3.2-1.433-3.2-3.2v-6.4c0-1.767 1.433-3.2 3.2-3.2h6.4c1.767 0 3.2 1.433 3.2 3.2z"></path>
<path fill="none" stroke="#0b57ad" stroke-linejoin="round" stroke-linecap="butt" stroke-miterlimit="4" stroke-width="1.6" d="M14.4 4.8v6.4c0 1.767-1.433 3.2-3.2 3.2h-6.4c-1.767 0-3.2-1.433-3.2-3.2v-6.4c0-1.767 1.433-3.2 3.2-3.2h6.4c1.767 0 3.2 1.433 3.2 3.2z"></path>
<path fill="none" stroke="#0b57ad" stroke-linejoin="round" stroke-linecap="butt" stroke-miterlimit="4" stroke-width="1.6" d="M14.4 20.8v6.4c0 1.767-1.433 3.2-3.2 3.2h-6.4c-1.767 0-3.2-1.433-3.2-3.2v-6.4c0-1.767 1.433-3.2 3.2-3.2h6.4c1.767 0 3.2 1.433 3.2 3.2z"></path>
<path fill="none" stroke="#0b57ad" stroke-linejoin="round" stroke-linecap="butt" stroke-miterlimit="4" stroke-width="1.6" d="M30.4 20.8v6.4c0 1.767-1.433 3.2-3.2 3.2h-6.4c-1.767 0-3.2-1.433-3.2-3.2v-6.4c0-1.767 1.433-3.2 3.2-3.2h6.4c1.767 0 3.2 1.433 3.2 3.2z"></path>
</svg>
