<!-- Generated by IcoMoon.io -->
<svg version="1.1" xmlns="http://www.w3.org/2000/svg" width="32" height="32" viewBox="0 0 32 32">
<title>plane</title>
<path d="M18.090 1.446c-0.279-0.656-0.829-1.154-1.534-1.373-1.031-0.269-2.117 0.228-2.589 1.179-0.771 1.549-1.174 3.284-1.165 5.012v16.676c0 0.034 0.003 0.067 0.010 0.101l1.435 7.434c0.121 0.87 0.875 1.525 1.752 1.525 0.001 0 0.002 0 0.003 0 0.878 0 1.631-0.655 1.748-1.498l1.439-7.461c0.007-0.033 0.010-0.067 0.010-0.101v-16.677c-0.004-1.668-0.391-3.342-1.108-4.817zM18.132 22.889l-1.434 7.439c-0.048 0.346-0.348 0.607-0.699 0.607s-0.65-0.261-0.701-0.634l-1.429-7.411v-16.628c-0.008-1.565 0.355-3.134 1.053-4.535 0.249-0.502 0.825-0.764 1.341-0.629 0.381 0.119 0.69 0.398 0.857 0.79 0.659 1.356 1.008 2.87 1.012 4.377v16.625z"></path>
<path d="M13.608 11.823c-0.162-0.096-0.362-0.1-0.527-0.011l-12.791 6.929c-0.172 0.093-0.279 0.273-0.279 0.468v3.198c0 0.175 0.085 0.338 0.229 0.438 0.091 0.062 0.197 0.095 0.304 0.095 0.063 0 0.126-0.011 0.187-0.034l12.791-4.797c0.208-0.078 0.346-0.277 0.346-0.499v-5.33c0-0.188-0.099-0.361-0.26-0.458zM12.803 17.241l-11.725 4.397v-2.111l11.725-6.351v4.065z"></path>
<path d="M31.71 18.741l-12.791-6.928c-0.165-0.089-0.365-0.086-0.527 0.011s-0.26 0.27-0.26 0.458v5.33c0 0.222 0.137 0.422 0.345 0.499l12.791 4.797c0.061 0.022 0.125 0.034 0.188 0.034 0.107 0 0.213-0.032 0.303-0.095 0.144-0.1 0.23-0.263 0.23-0.438v-3.198c0-0.196-0.107-0.375-0.279-0.468zM30.923 21.638l-11.725-4.397v-4.065l11.725 6.351v2.111z"></path>
<path d="M8.539 12.281c-0.881 0-1.599 0.717-1.599 1.599v1.599h1.066v-1.599c0-0.294 0.239-0.533 0.533-0.533s0.533 0.239 0.533 0.533v0.533h1.066v-0.533c0-0.882-0.717-1.599-1.599-1.599z"></path>
<path d="M3.742 14.945c-0.881 0-1.599 0.717-1.599 1.599v1.599h1.066v-1.599c0-0.294 0.239-0.532 0.533-0.532s0.533 0.239 0.533 0.532h1.066c0-0.881-0.717-1.599-1.599-1.599z"></path>
<path d="M23.462 12.281c-0.881 0-1.599 0.717-1.599 1.599v0.533h1.066v-0.533c0-0.294 0.239-0.533 0.533-0.533s0.533 0.239 0.533 0.533v1.599h1.066v-1.599c0-0.882-0.717-1.599-1.599-1.599z"></path>
<path d="M28.258 14.945c-0.881 0-1.599 0.717-1.599 1.599h1.066c0-0.294 0.239-0.532 0.533-0.532s0.533 0.239 0.533 0.532v1.599h1.066v-1.599c0-0.881-0.717-1.599-1.599-1.599z"></path>
<path d="M14.846 29.876l-5.775 0.962v-1.201l5.071-3.043-0.548-0.914-5.33 3.198c-0.16 0.096-0.258 0.269-0.258 0.457v2.132c0 0.157 0.069 0.306 0.189 0.407 0.097 0.082 0.219 0.126 0.344 0.126 0.029 0 0.058-0.003 0.087-0.007l6.396-1.066-0.175-1.052z"></path>
<path d="M23.736 28.878l-5.33-3.198-0.548 0.914 5.071 3.043v1.2l-5.775-0.962-0.175 1.052 6.396 1.066c0.029 0.005 0.058 0.007 0.087 0.007 0.125 0 0.247-0.044 0.344-0.126 0.12-0.101 0.189-0.25 0.189-0.407v-2.132c0-0.187-0.098-0.36-0.259-0.457z"></path>
<path d="M17.208 4.091c-0.174-0.522-0.672-0.857-1.214-0.87-0.565 0.005-1.052 0.374-1.203 0.894l-0.362 1.066 1.009 0.343 0.369-1.088c0.026-0.088 0.105-0.149 0.193-0.149 0.090 0 0.168 0.057 0.197 0.141l0.362 1.093 1.012-0.335-0.363-1.094z"></path>
</svg>
