<?xml version="1.0" encoding="UTF-8"?>
<svg id="Layer_1" data-name="Layer 1" xmlns="http://www.w3.org/2000/svg" viewBox="0 0 420.12 440.08">
  <defs>
    <style>
      .cls-1 {
        fill: #fff;
      }

      .cls-2 {
        fill: #0572e6;
      }
    </style>
  </defs>
  <path class="cls-2" d="m210.06,410.3l-77.81,22.48-.25-41.04,41.69-31.29-.64-103.51L5.85,309.69l-.33-51.86,87.46-54.62-.11-15.43c-.1-15.13,12.12-27.53,27.25-27.64h.19c9.08,0,17.52,4.58,22.57,11.85l29.54-18.5-.69-110.85c-.06-9.86,3.71-19.15,10.64-26.17,6.92-7.02,16.17-10.91,26.03-10.97h0c.57,0,1.12,0,1.66.03.54-.02,1.09-.03,1.63-.03,9.89.06,19.14,3.95,26.06,10.97,6.92,7.01,10.7,16.31,10.64,26.17l-.69,110.85,29.55,18.5c5.05-7.27,13.49-11.85,22.57-11.85h.18c15.13.11,27.35,12.51,27.25,27.64l-.11,15.43,87.46,54.62-.33,51.86-167.21-52.74-.64,103.51,41.69,31.29-.25,41.04-77.8-22.48Z"/>
  <path class="cls-1" d="m211.69,11c17.35.1,31.31,14.25,31.2,31.6l-.71,113.92,37.13,23.25c3.24-8.53,11.41-14.13,20.5-14.13.05,0,.1,0,.15,0,12.12.09,21.87,9.97,21.79,22.1l-.13,18.5,87.46,54.62-.26,41.34-167.21-52.74-.7,113.73,41.69,31.29-.19,31-72.35-20.9-72.35,20.9-.19-31,41.69-31.29-.7-113.73L11.3,302.2l-.26-41.34,87.46-54.62-.13-18.5c-.08-12.13,9.67-22.01,21.79-22.1.05,0,.1,0,.15,0,9.09,0,17.26,5.61,20.5,14.13l37.13-23.25-.71-113.92c-.11-17.35,13.85-31.5,31.2-31.6.54,0,1.09.01,1.63.03.54-.02,1.09-.03,1.63-.03m.03-11h-.03c-.54,0-1.08,0-1.63.02-.55-.02-1.09-.02-1.63-.02h-.06c-11.33.07-21.95,4.54-29.91,12.6-7.95,8.06-12.3,18.74-12.22,30.07l.67,107.78-22.87,14.32c-6.11-6.32-14.65-10.13-23.73-10.13h-.21c-18.17.14-32.84,15.02-32.72,33.17l.09,12.35L5.21,251.53l-5.21,3.25.04,6.14.26,41.34.09,14.9,14.21-4.48,152.99-48.26.57,93.28-37.26,27.96-4.43,3.33.03,5.54.19,31,.09,14.54,13.96-4.03,69.3-20.02,69.3,20.02,13.96,4.03.09-14.54.19-31,.03-5.54-4.43-3.33-37.26-27.96.57-93.28,152.99,48.26,14.21,4.48.09-14.9.26-41.34.04-6.14-5.21-3.25-82.24-51.36.09-12.35c.12-18.16-14.55-33.04-32.71-33.18h-.23c-9.08,0-17.62,3.81-23.73,10.13l-22.87-14.32.67-107.78c.07-11.33-4.27-22.01-12.22-30.06C233.71,4.54,223.08.07,211.75,0h-.03Z"/>
</svg>
