<!-- Generated by IcoMoon.io -->
<svg version="1.1" xmlns="http://www.w3.org/2000/svg" width="32" height="32" viewBox="0 0 32 32">
<title>refresh</title>
<path d="M27.099 20.672c0 0.006 0 0.014 0 0.022 0 1.477-1.19 2.676-2.664 2.69h-17.402l3.509-3.576-1.256-1.278-5.026 5.12c-0.161 0.165-0.26 0.39-0.26 0.639s0.099 0.474 0.26 0.639l-0-0 5.026 5.113 1.256-1.278-3.509-3.576h17.4c2.459-0.025 4.442-2.024 4.442-4.487 0-0.012-0-0.023-0-0.035v0.002-3.616h-1.777v3.621z"></path>
<path d="M5.777 10.941c-0-0.007-0-0.015-0-0.023 0-1.476 1.19-2.675 2.664-2.688h17.402l-3.509 3.576 1.256 1.278 5.026-5.113c0.161-0.165 0.26-0.39 0.26-0.639s-0.099-0.474-0.26-0.639l0 0-5.026-5.12-1.256 1.278 3.509 3.576h-17.4c-2.459 0.025-4.442 2.024-4.442 4.487 0 0.010 0 0.020 0 0.030v-0.002 3.616h1.777v-3.616z"></path>
</svg>
