<!-- Generated by IcoMoon.io -->
<svg version="1.1" xmlns="http://www.w3.org/2000/svg" width="32" height="32" viewBox="0 0 32 32">
<title>refund</title>
<path d="M28.32 5.76h1.44c0.64 0 1.12-0.48 1.12-1.12s-0.48-1.12-1.12-1.28c0 0 0 0-0.16 0h-4.64c-0.64 0-1.12 0.48-1.12 1.12v0 4.64c0 0.64 0.48 1.12 1.12 1.12s1.12-0.48 1.12-1.12v0-2.24c4.96 5.76 4.48 14.4-1.28 19.36s-14.4 4.48-19.36-1.28-4.48-14.4 1.28-19.36c2.72-2.080 5.92-3.36 9.28-3.36 1.12 0 2.080 0.16 3.2 0.32 0.64 0.16 1.28-0.16 1.44-0.8v0c0.16-0.64-0.16-1.28-0.8-1.44v0 0c-1.28-0.16-2.56-0.32-3.84-0.32-8.8 0-16 7.2-16 16s7.2 16 16 16 16-7.2 16-16c0-3.84-1.28-7.36-3.68-10.24z"></path>
<path d="M13.44 18.88c0.32 0.96 1.12 1.92 2.56 1.92 1.28 0 2.080-0.64 2.080-1.76 0-2.88-6.080-2.24-6.080-6.56 0-1.92 1.28-3.36 3.36-3.52v-1.12h1.44v1.12c2.080 0.32 2.88 1.92 3.2 2.72l-1.76 0.8c-0.32-0.64-0.96-1.6-2.24-1.6-1.12 0-1.92 0.8-1.92 1.6 0 2.72 6.080 2.24 6.080 6.4 0 1.92-1.28 3.52-3.52 3.84v1.44h-1.28v-1.44c-2.4-0.16-3.36-1.92-3.68-3.040l1.76-0.8z"></path>
</svg>
