<!-- Generated by IcoMoon.io -->
<svg version="1.1" xmlns="http://www.w3.org/2000/svg" width="32" height="32" viewBox="0 0 32 32">
<title>return-flight</title>
<path fill="#252668" d="M25.28 0.64l6.080 6.080c0.32 0.32 0.64 0.96 0.64 1.28s-0.32 0.96-0.32 0.96c0 0 0 0 0 0l-6.4 6.72c-0.64 0.32-1.6 0.64-2.24 0s-0.64-1.6 0-2.24c0 0 0 0 0 0l3.84-3.84h-25.28c-0.96 0-1.6-0.64-1.6-1.6 0 0 0 0 0 0v0c0-0.96 0.64-1.6 1.6-1.6 0 0 0 0 0 0h25.28l-3.84-3.52c-0.64-0.64-0.64-1.6 0-2.24 0.32-0.32 0.64-0.32 0.96-0.32s0.96 0 1.28 0.32z"></path>
<path fill="#252668" d="M6.72 31.36l-6.080-6.4c-0.32 0-0.32-0.32-0.32-0.64-0.64-0.64-0.32-1.28 0.32-1.92l6.080-6.080c0.64-0.64 1.6-0.64 2.24 0s0.64 1.6 0 2.24c0 0 0 0 0 0l-3.84 3.84h25.28c0.96 0 1.6 0.64 1.6 1.28 0 0.96-0.64 1.6-1.28 1.6 0 0 0 0 0 0h-25.6l3.84 3.84c0.64 0.64 0.64 1.6 0 2.24-0.64 0.32-1.6 0.64-2.24 0v0 0z"></path>
</svg>
