<?xml version="1.0" encoding="UTF-8"?>
<svg id="Warstwa_1" data-name="Warstwa 1" xmlns="http://www.w3.org/2000/svg" viewBox="0 0 20 20">
  <defs>
    <style>
      .cls-1 {
        fill: #252668;
      }
    </style>
  </defs>
  <path class="cls-1" d="m19.77,14.61L5.39.23c-.31-.31-.8-.31-1.11,0L.23,4.28c-.15.15-.23.35-.23.55s.08.41.23.55l14.38,14.38c.15.15.35.23.55.23s.41-.08.55-.23l4.06-4.06c.31-.31.31-.8,0-1.11Zm-4.61,3.5l-1.23-1.23,1.62-1.65c.3-.31.3-.8,0-1.11-.31-.31-.8-.3-1.11,0l-1.61,1.64-.99-.99.59-.59c.31-.31.31-.8,0-1.11s-.8-.31-1.11,0l-.59.59-.91-.91,1.58-1.72c.29-.32.27-.81-.04-1.11-.32-.29-.81-.27-1.11.04l-1.54,1.67-1.04-1.04.59-.59c.31-.31.31-.8,0-1.11s-.8-.31-1.11,0l-.59.59-.91-.91,1.58-1.72c.29-.32.27-.81-.04-1.11-.32-.29-.81-.27-1.11.04l-1.54,1.67-1.04-1.04.59-.59c.31-.31.31-.8,0-1.11s-.8-.31-1.11,0l-.59.59-.5-.5,2.95-2.95,13.27,13.27-2.95,2.95Z"/>
</svg>