<!-- Generated by IcoMoon.io -->
<svg version="1.1" xmlns="http://www.w3.org/2000/svg" width="32" height="32" viewBox="0 0 32 32">
<title>search</title>
<path d="M22.994 20.352c1.469-1.99 2.352-4.492 2.352-7.2 0-6.735-5.46-12.195-12.195-12.195s-12.195 5.46-12.195 12.195c0 6.735 5.46 12.195 12.195 12.195 2.708 0 5.209-0.882 7.233-2.375l-0.033 0.023 7.961 7.956 2.644-2.64-7.961-7.961zM13.19 21.608c-4.646 0-8.413-3.767-8.413-8.413s3.767-8.413 8.413-8.413c4.646 0 8.413 3.767 8.413 8.413v0c-0.005 4.645-3.769 8.409-8.413 8.413h-0.001z"></path>
</svg>
