<?xml version="1.0" encoding="iso-8859-1"?>
<!-- Generator: Adobe Illustrator 27.3.1, SVG Export Plug-In . SVG Version: 6.00 Build 0)  -->
<svg version="1.1" id="Layer_1" xmlns="http://www.w3.org/2000/svg" xmlns:xlink="http://www.w3.org/1999/xlink" x="0px" y="0px"
	 viewBox="0 0 20 20" style="enable-background:new 0 0 20 20;" xml:space="preserve">
<g>
	<path style="fill:#0B57AD;" d="M17.969,10.598V9.402l1.594-1.494c0.199-0.199,0.299-0.498,0.199-0.797L18.965,5.02
		c-0.1-0.299-0.398-0.398-0.697-0.398l-2.191,0.1L15.18,3.824l0.1-2.191c0-0.299-0.199-0.598-0.398-0.697l-2.191-0.896
		c-0.299-0.1-0.598,0-0.797,0.199l-1.494,1.594H9.303L7.809,0.238c-0.199-0.199-0.498-0.299-0.797-0.1L4.92,0.936
		C4.621,1.135,4.422,1.334,4.521,1.633l0.1,2.191L3.725,4.721l-2.191-0.1c-0.299-0.1-0.498,0.1-0.697,0.398L0.039,7.111
		c-0.1,0.299,0,0.598,0.199,0.797l1.594,1.494v1.195l-1.594,1.494c-0.199,0.199-0.299,0.498-0.199,0.797l0.797,2.092
		c0.1,0.299,0.398,0.398,0.697,0.398l2.191-0.1l0.896,0.896l-0.1,2.191c0,0.299,0.199,0.598,0.398,0.697l2.191,0.896
		c0.299,0.1,0.598,0,0.797-0.199l1.494-1.594h1.195l1.494,1.594c0.1,0.1,0.299,0.199,0.498,0.199c0.1,0,0.199,0,0.299-0.1
		l2.191-0.896c0.299-0.1,0.398-0.398,0.398-0.697l-0.1-2.191l0.896-0.896l2.191,0.1l0,0c0.299,0,0.498-0.199,0.598-0.398
		l0.896-2.191c0.1-0.299,0-0.598-0.199-0.797L17.969,10.598z M13.885,17.969l-1.195,0.498l-1.395-1.494
		c-0.1-0.1-0.299-0.199-0.498-0.199H9.004c-0.199,0-0.398,0.1-0.498,0.199l-1.295,1.494l-1.295-0.498l0.1-1.992
		c0-0.199-0.1-0.398-0.199-0.498l-1.295-1.295c-0.199-0.199-0.398-0.299-0.598-0.299l-1.992,0.1l-0.498-1.195l1.494-1.395
		c0.1-0.1,0.199-0.299,0.199-0.498V9.104c0-0.199-0.1-0.398-0.199-0.498L1.434,7.211l0.498-1.195l1.992,0.1
		c0.199,0,0.398-0.1,0.498-0.199l1.295-1.295c0.199-0.199,0.299-0.398,0.299-0.598l-0.1-1.992l1.295-0.498l1.295,1.494
		c0.1,0.1,0.299,0.199,0.498,0.199h1.793c0.199,0,0.398-0.1,0.498-0.199l1.295-1.494l1.295,0.498l-0.1,1.992
		c0,0.199,0.1,0.398,0.199,0.498l1.295,1.295c0.199,0.199,0.398,0.299,0.598,0.299l1.992-0.1l0.498,1.295l-1.494,1.295
		c-0.1,0.1-0.199,0.299-0.199,0.498v1.793c0,0.199,0.1,0.398,0.199,0.498l1.494,1.295l-0.498,1.295l-1.992-0.1
		c-0.199,0-0.398,0.1-0.498,0.199l-1.295,1.295c-0.1,0.1-0.199,0.299-0.199,0.498V17.969z"/>
	<path style="fill:#0B57AD;" d="M9.9,5.318c-2.59,0-4.682,2.092-4.682,4.682s2.092,4.682,4.682,4.682S14.582,12.59,14.582,10
		S12.49,5.318,9.9,5.318z M9.9,13.686c-1.992,0-3.686-1.693-3.686-3.686S7.908,6.314,9.9,6.314S13.586,8.008,13.586,10
		S11.893,13.686,9.9,13.686z"/>
</g>
</svg>
