<?xml version="1.0" encoding="UTF-8"?>
<svg id="Warstwa_1" data-name="Warstwa 1" xmlns="http://www.w3.org/2000/svg" viewBox="0 0 20 20">
  <defs>
    <style>
      .cls-1 {
        fill: #9294a6;
      }
    </style>
  </defs>
  <path class="cls-1" d="m15.11,12.83c-.99,0-1.89.42-2.51,1.1l-4.95-2.89c.1-.33.16-.68.16-1.04s-.06-.71-.16-1.04l4.95-2.89c.63.68,1.52,1.1,2.52,1.1,1.89,0,3.44-1.54,3.44-3.44s-1.54-3.43-3.44-3.43-3.43,1.54-3.43,3.43c0,.36.06.71.16,1.04l-4.95,2.89c-.63-.68-1.52-1.1-2.52-1.1-1.89,0-3.44,1.54-3.44,3.44s1.54,3.43,3.44,3.43c.99,0,1.89-.42,2.52-1.1l4.95,2.88c-.11.33-.16.68-.16,1.04,0,1.89,1.54,3.43,3.43,3.43s3.44-1.54,3.44-3.43-1.54-3.43-3.44-3.43Zm0-11.03c1.07,0,1.94.87,1.94,1.93s-.87,1.94-1.94,1.94c-.7,0-1.31-.37-1.65-.93,0-.01-.01-.02-.02-.04,0-.01-.01-.02-.02-.04-.15-.28-.24-.6-.24-.94,0-1.07.87-1.93,1.93-1.93ZM6.06,10.94s-.01.02-.02.03c0,0-.01.02-.02.03-.34.56-.95.93-1.65.93-1.07,0-1.94-.87-1.94-1.93s.87-1.94,1.94-1.94c.7,0,1.31.37,1.65.93,0,.01.01.02.02.03,0,.01.01.02.02.03.16.28.25.6.25.94s-.09.66-.25.94Zm9.05,7.25c-1.07,0-1.93-.87-1.93-1.93,0-.32.08-.62.22-.89.02-.03.04-.05.06-.08.02-.03.03-.06.04-.09.35-.53.94-.87,1.62-.87,1.07,0,1.94.87,1.94,1.93s-.87,1.93-1.94,1.93Z"/>
</svg>