<!-- Generated by IcoMoon.io -->
<svg version="1.1" xmlns="http://www.w3.org/2000/svg" width="32" height="32" viewBox="0 0 32 32">
<title>trash_bin</title>
<path d="M29.106 6.56h-6.632v-0.526c0-3.326-2.708-6.034-6.034-6.034h-0.88c-3.326 0-6.034 2.708-6.034 6.034v0.526h-6.632c-0.758 0-1.372 0.614-1.372 1.372s0.614 1.372 1.372 1.372h1.48l1.786 19.724c0.152 1.694 1.55 2.972 3.254 2.972h13.166c1.704 0 3.102-1.278 3.252-2.966l1.896-19.73h1.378c0.758 0 1.372-0.614 1.372-1.372s-0.616-1.372-1.372-1.372zM12.27 6.034c0-1.814 1.476-3.292 3.292-3.292h0.878c1.814 0 3.292 1.476 3.292 3.292v0.526h-7.46v-0.526zM23.1 28.78c-0.024 0.272-0.248 0.476-0.522 0.476h-13.164c-0.272 0-0.496-0.206-0.52-0.476l-1.766-19.476h3.752c0.006 0 0.012 0.004 0.018 0.004s0.012-0.004 0.018-0.004h10.168c0.006 0 0.012 0.004 0.018 0.004s0.012-0.004 0.018-0.004h3.854l-1.874 19.476z"></path>
</svg>
