<?xml version="1.0" encoding="iso-8859-1"?>
<!-- Generator: Adobe Illustrator 27.4.0, SVG Export Plug-In . SVG Version: 6.00 Build 0)  -->
<svg version="1.1" id="Layer_1" xmlns="http://www.w3.org/2000/svg" xmlns:xlink="http://www.w3.org/1999/xlink" x="0px" y="0px"
	 viewBox="0 0 20 20" style="enable-background:new 0 0 20 20;" xml:space="preserve">
<g id="Group_28267" transform="translate(15677.3 176.431) rotate(45)">
	<path id="Intersection_1" style="fill:#0B57AD;" d="M-11203.201,10967.842c-0.721-0.731-0.721-1.902,0-2.622
		c0.62-0.621,1.601-0.721,2.331-0.23l0.911-0.911c0.17-0.19,0.28-0.42,0.3-0.671c0,0-0.09-3.402-0.09-3.412c0-0.03,0-0.01,0,0
		c0-0.51,0.19-1.001,0.531-1.371l1.3-1.301c-0.27-0.551-0.04-1.221,0.521-1.481c0.55-0.27,1.221-0.03,1.481,0.52
		c0.261,0.551,0.04,1.221-0.52,1.481c-0.301,0.15-0.661,0.15-0.971,0l-1.311,1.311c-0.17,0.19-0.28,0.421-0.3,0.671l0.09,3.222
		l8.025-8.046l-0.641-0.65l2.472-0.661l-0.67,2.482l-0.651-0.65l-6.063,6.063l3.222,0.09c0.25-0.03,0.49-0.13,0.67-0.3l1.271-1.261
		l-0.53-0.53l1.571-1.572l1.581,1.572l-1.571,1.571l-0.53-0.531l-1.251,1.251c-0.38,0.341-0.871,0.531-1.371,0.531l-3.413-0.09
		c-0.25,0.03-0.49,0.13-0.67,0.3l-1.982,1.971l-0.01,0.01l-0.89,0.891c0.56,0.861,0.33,2.011-0.531,2.572
		C-11201.601,10968.552-11202.571,10968.462-11203.201,10967.842L-11203.201,10967.842z"/>
</g>
</svg>
