<!-- Generated by IcoMoon.io -->
<svg version="1.1" xmlns="http://www.w3.org/2000/svg" width="32" height="32" viewBox="0 0 32 32">
<title>user</title>
<path d="M26.176 6.183c-2.624-2.626-6.249-4.25-10.254-4.25-8.006 0-14.496 6.49-14.496 14.496 0 8.003 6.486 14.492 14.488 14.496h0.015c3.546-0.005 6.793-1.286 9.305-3.408l-0.021 0.018c0.073-0.048 0.136-0.102 0.192-0.162l0.001-0.001c0.589-0.486 1.113-1.010 1.583-1.58l0.016-0.020c2.127-2.504 3.42-5.773 3.42-9.344 0-4.002-1.624-7.625-4.249-10.245l-0-0zM23.348 25.817c-2.014 1.626-4.605 2.61-7.426 2.61s-5.412-0.984-7.448-2.627l0.023 0.018c-0.094-0.385-0.148-0.828-0.148-1.283 0-0.012 0-0.025 0-0.037v0.002c-0.001-0.038-0.001-0.082-0.001-0.126 0-4.101 3.251-7.443 7.317-7.588l0.013-0h0.459c0.58 0.013 1.134 0.099 1.661 0.248l-0.047-0.011c3.322 0.841 5.74 3.804 5.74 7.331 0 0.518-0.052 1.024-0.152 1.513l0.008-0.049zM16.048 14.282h-0.267c-1.692-0.074-3.035-1.463-3.035-3.166 0-1.75 1.419-3.169 3.169-3.169s3.169 1.419 3.169 3.169c0 1.703-1.344 3.093-3.029 3.166l-0.007 0zM25.909 23.063c-0.48-3.576-2.77-6.525-5.903-7.926l-0.064-0.026c1.007-1.022 1.629-2.426 1.629-3.974 0-3.128-2.536-5.664-5.664-5.664s-5.664 2.536-5.664 5.664c0 1.564 0.634 2.979 1.658 4.004v0c-1.964 0.848-3.553 2.252-4.61 4.012l-0.025 0.045c-0.681 1.099-1.158 2.396-1.342 3.785l-0.005 0.050c-1.242-1.859-1.982-4.145-1.982-6.604 0-6.618 5.36-11.984 11.976-11.994h0.001c0.001 0 0.002 0 0.002 0 6.624 0 11.994 5.37 11.994 11.994 0 2.471-0.748 4.768-2.029 6.677l0.027-0.043z"></path>
<path d="M22.937 24.537c-0.023 0.029-0.049 0.054-0.077 0.077l-0.001 0.001c-0.019 0.018-0.041 0.033-0.065 0.044l-0.001 0.001c0.055-0.036 0.102-0.076 0.144-0.122l0.001-0.001z"></path>
<path d="M15.945 16.589h-0.278z"></path>
</svg>
