<?xml version="1.0" encoding="iso-8859-1"?>
<!-- Generator: Adobe Illustrator 27.4.0, SVG Export Plug-In . SVG Version: 6.00 Build 0)  -->
<svg version="1.1" id="Layer_1" xmlns="http://www.w3.org/2000/svg" xmlns:xlink="http://www.w3.org/1999/xlink" x="0px" y="0px"
	 viewBox="0 0 20 20" style="enable-background:new 0 0 20 20;" xml:space="preserve">
<g>
	<path style="fill:#0B57AD;" d="M19.797,6.06c-2.62-2.62-6.101-4.061-9.801-4.061l0,0c-3.7,0-7.181,1.44-9.801,4.061
		c-0.26,0.26-0.26,0.69,0,0.95c0.13,0.13,0.3,0.2,0.47,0.2s0.35-0.07,0.47-0.2c4.881-4.871,12.832-4.871,17.712,0
		c0.12,0.12,0.3,0.2,0.47,0.2l0,0c0.18,0,0.35-0.07,0.48-0.2C20.068,6.75,20.068,6.32,19.797,6.06z"/>
	<path style="fill:#0B57AD;" d="M2.825,8.69c-0.26,0.26-0.26,0.69,0,0.95s0.69,0.26,0.95,0c3.43-3.42,9.011-3.42,12.432,0
		c0.12,0.13,0.3,0.2,0.47,0.2l0,0v-0.1l0,0l0,0v0.1c0.18,0,0.35-0.07,0.48-0.2c0.13-0.13,0.2-0.3,0.2-0.48
		c0-0.18-0.07-0.35-0.2-0.47C13.217,4.749,6.786,4.749,2.825,8.69z"/>
	<path style="fill:#0B57AD;" d="M5.436,11.3c-0.13,0.13-0.2,0.29-0.2,0.47s0.07,0.35,0.2,0.47c0.26,0.26,0.69,0.26,0.95,0
		c1.99-1.99,5.231-1.98,7.221,0c0.12,0.12,0.3,0.2,0.48,0.2c0.18,0,0.35-0.07,0.48-0.2c0.13-0.13,0.2-0.29,0.2-0.47
		s-0.07-0.35-0.2-0.47C12.037,8.8,7.956,8.8,5.436,11.3z"/>
	<path style="fill:#0B57AD;" d="M9.996,13.33c-1.29,0-2.34,1.05-2.34,2.34s1.05,2.33,2.34,2.33s2.34-1.05,2.34-2.34
		C12.337,14.381,11.286,13.33,9.996,13.33z"/>
</g>
</svg>
