<!-- Generated by IcoMoon.io -->
<svg version="1.1" xmlns="http://www.w3.org/2000/svg" width="32" height="32" viewBox="0 0 32 32">
<title>wishlist-blue</title>
<path fill="#0057ad" d="M21.968 2.64c-2.192 0-4.272 0.736-5.968 2.080-1.696-1.344-3.776-2.080-6-2.080-5.488 0.080-9.888 4.608-9.808 10.080 0 3.328 1.472 6.448 4.016 8.576l7.872 6.64c1.136 0.944 2.512 1.424 3.904 1.424s2.768-0.48 3.904-1.424l7.872-6.64c2.544-2.128 4.016-5.264 4.016-8.576 0.080-5.488-4.32-10.032-9.84-10.112zM26.24 19.472l-7.872 6.64c-1.376 1.152-3.36 1.152-4.72 0l-7.872-6.64c-2-1.68-3.152-4.144-3.152-6.768-0.064-4.16 3.28-7.6 7.424-7.664 1.936 0 3.76 0.752 5.136 2.128 0.448 0.448 1.248 0.448 1.696 0 1.376-1.376 3.184-2.128 5.104-2.128 4.16 0.064 7.504 3.504 7.456 7.68 0 2.608-1.152 5.072-3.168 6.752z"></path>
</svg>
