<?xml version="1.0" encoding="UTF-8"?>
<svg id="Warstwa_1" data-name="Warstwa 1" xmlns="http://www.w3.org/2000/svg" viewBox="0 0 20 20">
  <defs>
    <style>
      .cls-1 {
        fill: #9294a6;
      }
    </style>
  </defs>
  <path class="cls-1" d="m13.73,1.65c-1.37,0-2.67.46-3.73,1.3-1.06-.84-2.36-1.3-3.75-1.3C2.82,1.7.07,4.53.12,7.95c0,2.08.92,4.03,2.51,5.36l4.92,4.15c.71.59,1.57.89,2.44.89s1.73-.3,2.44-.89l4.92-4.15c1.59-1.33,2.51-3.29,2.51-5.36.05-3.43-2.7-6.27-6.15-6.32Zm2.67,10.52l-4.92,4.15c-.86.72-2.1.72-2.95,0l-4.92-4.15c-1.25-1.05-1.97-2.59-1.97-4.23-.04-2.6,2.05-4.75,4.64-4.79,1.21,0,2.35.47,3.21,1.33.28.28.78.28,1.06,0,.86-.86,1.99-1.33,3.19-1.33,2.6.04,4.69,2.19,4.66,4.8,0,1.63-.72,3.17-1.98,4.22Z"/>
</svg>