<?xml version="1.0" encoding="iso-8859-1"?>
<!-- Generator: Adobe Illustrator 27.5.0, SVG Export Plug-In . SVG Version: 6.00 Build 0)  -->
<svg version="1.1" id="Layer_1" xmlns="http://www.w3.org/2000/svg" xmlns:xlink="http://www.w3.org/1999/xlink" x="0px" y="0px"
	 viewBox="0 0 151.053 20" style="enable-background:new 0 0 151.053 20;" xml:space="preserve">
<g>
	<path style="fill-rule:evenodd;clip-rule:evenodd;fill:#006AA0;" d="M132.975,10.007c-2.757,0-4.992,2.235-4.992,4.993
		s2.235,4.993,4.992,4.993c2.757,0,4.993-2.235,4.993-4.993S135.733,10.007,132.975,10.007z M132.975,17.553
		c-1.41,0-2.555-1.144-2.555-2.555s1.144-2.555,2.555-2.555c1.41,0,2.555,1.144,2.555,2.555S134.387,17.553,132.975,17.553z"/>
	<circle style="fill-rule:evenodd;clip-rule:evenodd;fill:#006AA0;" cx="115.894" cy="18.327" r="1.664"/>
	<path style="fill-rule:evenodd;clip-rule:evenodd;fill:#006AA0;" d="M151.011,13.138c-0.204-1.336-1.124-2.453-2.395-2.912
		s-2.692-0.185-3.703,0.712c-0.675-0.604-1.548-0.937-2.454-0.936c-0.124,0-0.245,0.006-0.365,0.018
		c-0.027,0-0.054,0.009-0.081,0.012c-0.094,0.012-0.187,0.024-0.279,0.043l-0.073,0.017c-0.095,0.02-0.187,0.044-0.279,0.072
		l-0.053,0.017c-0.098,0.031-0.195,0.067-0.288,0.104l-0.031,0.014c-0.101,0.044-0.201,0.091-0.297,0.142l-0.011,0.005
		c-0.25,0.135-0.484,0.296-0.697,0.484l-0.011,0.02c-0.707,0.629-1.142,1.508-1.212,2.452l-0.014,0.027v6.559h2.454v-6.557
		c0.002-0.643,0.526-1.163,1.169-1.161l0,0h0.117c0.643-0.002,1.165,0.518,1.168,1.161v6.559h2.457v-6.559
		c0.002-0.643,0.526-1.163,1.169-1.161c0.003,0,0.006,0,0.009,0h0.116c0.643-0.002,1.166,0.517,1.169,1.161l0,0v6.559h2.454v-6.559
		C151.052,13.332,151.038,13.234,151.011,13.138L151.011,13.138z"/>
	<path style="fill-rule:evenodd;clip-rule:evenodd;fill:#006AA0;" d="M125.36,16.439c-0.635,0.89-1.78,1.256-2.813,0.9
		c-1.034-0.356-1.71-1.349-1.662-2.441c0.047-1.092,0.808-2.023,1.869-2.287c1.061-0.264,2.169,0.201,2.723,1.143l2.101-1.383
		c-1.165-1.875-3.424-2.761-5.554-2.18c-2.129,0.581-3.625,2.492-3.676,4.698c-0.052,2.207,1.351,4.186,3.452,4.867
		c2.1,0.681,4.397-0.098,5.651-1.915L125.36,16.439z"/>
	<path style="fill-rule:evenodd;clip-rule:evenodd;fill:#009AFD;" d="M48.329,16.43c-0.324,0.148-0.675,0.226-1.031,0.226
		c-1.391-0.003-2.516-1.132-2.513-2.524c0-0.003,0-0.006,0-0.009v-4.069h4.175V6.728h-4.175V3.411h-3.329v10.713
		c-0.005,3.231,2.61,5.855,5.842,5.86l0,0c1.017,0.001,2.016-0.268,2.896-0.779C50.193,19.204,48.329,16.43,48.329,16.43z"/>
	<path style="fill-rule:evenodd;clip-rule:evenodd;fill:#009AFD;" d="M56.535,6.711c-2.787-0.001-5.278,1.741-6.234,4.359
		c-0.956,2.619-0.173,5.555,1.96,7.351c2.133,1.796,5.16,2.066,7.577,0.678v0.885h3.329v-6.64
		C63.165,9.683,60.197,6.714,56.535,6.711z M56.535,16.666c-1.834,0-3.32-1.486-3.32-3.32s1.486-3.32,3.32-3.32
		c1.834,0,3.32,1.486,3.32,3.32S58.369,16.666,56.535,16.666z M88.039,6.719c-2.787-0.001-5.278,1.741-6.234,4.359
		s-0.173,5.555,1.96,7.351c2.132,1.795,5.16,2.066,7.577,0.678v0.885h3.329v-6.64C94.669,9.69,91.701,6.721,88.039,6.719z
		 M88.039,16.674c-1.343,0-2.554-0.808-3.068-2.049s-0.231-2.669,0.719-3.618s2.377-1.234,3.618-0.72
		c1.241,0.513,2.05,1.724,2.05,3.067C91.358,15.187,89.872,16.673,88.039,16.674L88.039,16.674z M64.213,19.985h3.327V1.733h-3.327
		v18.114V19.985z M40.436,19.984h-3.328v-7.425c-0.028-1.378-1.153-2.48-2.531-2.48s-2.503,1.102-2.531,2.48v7.425h-3.329v-7.425
		c0.043-3.206,2.653-5.781,5.859-5.781s5.816,2.576,5.859,5.781L40.436,19.984L40.436,19.984z M77.747,15.461
		c-0.92,1.101-2.448,1.479-3.775,0.935c-1.327-0.544-2.15-1.886-2.031-3.317c0.118-1.43,1.149-2.619,2.548-2.938
		c1.399-0.32,2.843,0.304,3.571,1.541l2.794-1.842c-1.568-2.513-4.611-3.683-7.459-2.867c-2.847,0.816-4.81,3.419-4.81,6.381
		s1.963,5.565,4.81,6.381c2.847,0.816,5.891-0.355,7.459-2.867l-2.799-1.844C77.963,15.178,77.862,15.323,77.747,15.461z
		 M15.345,19.981l-1.784-3.238l-1.991-3.607c2.766-2.027,3.739-5.711,2.336-8.84c-1.403-3.129-4.801-4.852-8.154-4.136
		S0.001,3.84,0,7.268v12.713h3.329v-5.448h3.952c0.403-0.002,0.804-0.037,1.201-0.104l3.062,5.549h3.802L15.345,19.981
		L15.345,19.981z M3.325,11.205V7.268c-0.006-1.6,0.953-3.046,2.43-3.662s3.178-0.282,4.312,0.848
		c1.133,1.13,1.474,2.831,0.863,4.309c-0.611,1.478-2.053,2.443-3.653,2.443L3.325,11.205C3.325,11.206,3.325,11.205,3.325,11.205z
		 M109.079,12.031c0,0-1.004-0.151-1.441-0.416c-0.057-0.042-0.111-0.087-0.162-0.137c-0.009-0.013-0.018-0.023-0.03-0.032
		c-0.219-0.217-0.334-0.517-0.319-0.825l0.022-0.13c-0.006,0.025-0.01,0.046-0.013,0.066c0.005-0.033,0.011-0.066,0.018-0.098
		l-0.005,0.032c0.029-0.124,0.077-0.242,0.142-0.351c0.184-0.268,0.458-0.463,0.773-0.548c0.205-0.052,0.418-0.076,0.63-0.068
		c0.882,0.022,1.762,0.325,2.341,0.573l1.414-2.515c-0.915-0.396-2.962-1.144-4.68-0.804c-2.137,0.264-3.695,1.729-3.83,3.607
		c-0.104,1.501,0.72,2.871,2.117,3.652c0.06,0.035,0.173,0.094,0.32,0.16l0.093,0.042c0.404,0.179,0.993,0.399,1.443,0.441
		c0.324,0.025,0.644,0.073,0.961,0.143c0.611,0.187,1.035,0.682,0.995,1.233l-0.022,0.13c0.006-0.025,0.01-0.047,0.013-0.066
		c-0.005,0.033-0.011,0.066-0.018,0.098l0.005-0.032c-0.029,0.124-0.077,0.242-0.142,0.351c-0.184,0.268-0.458,0.463-0.773,0.548
		c-0.203,0.052-0.414,0.075-0.624,0.068c-1.507-0.037-3.017-0.896-3.017-0.896l-1.634,2.38l0.405,0.234c0,0,2.872,1.485,5.168,1.029
		c2.137-0.264,3.695-1.729,3.83-3.607C113.209,14.21,111.555,12.381,109.079,12.031L109.079,12.031z M103.872,7.196
		c-0.728-0.315-1.511-0.477-2.304-0.476c-3.234,0.004-5.853,2.626-5.855,5.86v7.403h3.329v-7.403
		c-0.001-1.397,1.13-2.529,2.526-2.531c0.33,0,0.658,0.066,0.963,0.194"/>
	<path style="fill-rule:evenodd;clip-rule:evenodd;fill:#009AFD;" d="M23.446,15.807c-0.04,0.037-0.077,0.074-0.117,0.104
		c-0.88,0.742-2.059,1.022-3.177,0.754c-1.119-0.268-2.043-1.052-2.491-2.112h9.86c0.633-3.464-1.556-6.818-4.982-7.634
		c-3.426-0.815-6.892,1.193-7.887,4.571s0.827,6.945,4.148,8.117c3.321,1.172,6.979-0.459,8.325-3.713
		c0.013-0.03,0.023-0.061,0.036-0.091h-3.713C23.447,15.803,23.446,15.807,23.446,15.807z M20.996,9.783
		c1.428,0.001,2.71,0.879,3.224,2.212h-6.449c0.515-1.332,1.796-2.21,3.224-2.21C20.996,9.784,20.996,9.783,20.996,9.783z"/>
</g>
</svg>
