<?xml version="1.0" encoding="utf-8"?>
<!-- Generator: Adobe Illustrator 26.5.0, SVG Export Plug-In . SVG Version: 6.00 Build 0)  -->
<svg version="1.1" id="Layer_1" xmlns="http://www.w3.org/2000/svg" xmlns:xlink="http://www.w3.org/1999/xlink" x="0px" y="0px"
	 viewBox="0 0 90 90" style="enable-background:new 0 0 90 90;" xml:space="preserve">
<style type="text/css">
	.st0{fill:#AECBFA;}
	.st1{fill:#252668;}
	.st2{fill:#FFFFFF;}
	.st3{fill:#1A237E;}
	.st4{fill:#FF6A73;}
</style>
<g>
	<path class="st0" d="M54.4,83.8h-29V52.2c0-3.9,3.1-7.1,7.1-7.2c0,0,0.1,0,0.1,0h14.5c4,0,7.2,3.1,7.3,7c0,0,0,0.1,0,0.1L54.4,83.8
		z"/>
	<path class="st1" d="M58.8,25.9H20.9c-2,0-3.9,0.8-5.4,2.3c-1.4,1.4-2.2,3.4-2.2,5.4v43.3c0,4.1,3.5,7.5,7.6,7.5c0,0,0.1,0,0.1,0
		h4.4h29h4.5c2,0,3.9-0.8,5.4-2.3c1.4-1.4,2.2-3.4,2.2-5.4V33.4C66.4,29.2,63,25.8,58.8,25.9z M54,54.2L54,54.2H25.9h0v-2
		c0-1.8,0.7-3.5,1.9-4.7c1.3-1.3,2.9-2,4.7-2h14.6c3.7,0,6.8,2.9,6.8,6.6V54.2z M25.9,83.4V55.1h0H54h0v28.3H25.9z M65.6,76.6
		c0,1.8-0.7,3.5-1.9,4.7c-1.3,1.3-2.9,2-4.7,2h-0.1c0,0,0,0,0,0h-3.9V52c0-4.2-3.5-7.5-7.7-7.5H32.5c-2,0-3.9,0.8-5.4,2.3
		c-1.4,1.4-2.2,3.4-2.2,5.4v31.2h-3.9c0,0,0,0-0.1,0c-3.7,0-6.7-2.9-6.7-6.6V33.5c0-1.8,0.7-3.5,1.9-4.7c1.3-1.3,2.9-2,4.7-2h37.9
		c3.7,0,6.8,2.9,6.8,6.6V76.6z"/>
	<g id="Path_5072">
		<path class="st2" d="M41.8,62h-3.6c-1,0-1.7-0.8-1.7-1.7l0,0c0-0.9,0.8-1.7,1.7-1.7h3.6c1,0,1.7,0.8,1.7,1.7l0,0
			C43.5,61.2,42.7,61.9,41.8,62z"/>
		<path class="st3" d="M41.8,62.4h-3.6c-1.2,0-2.2-1-2.2-2.2c0-1.2,1-2.2,2.2-2.2h3.6c1.2,0,2.2,1,2.2,2.2
			C43.9,61.4,43,62.3,41.8,62.4C41.8,62.4,41.8,62.4,41.8,62.4z M41.8,59h-3.6c-0.7,0-1.3,0.6-1.3,1.3c0,0.7,0.6,1.3,1.3,1.3h3.6
			c0.7-0.1,1.3-0.6,1.3-1.3C43.1,59.5,42.5,59,41.8,59z"/>
	</g>
	<g id="Path_5073">
		<path class="st1" d="M25.4,90c-1.8,0-3.3-1.5-3.4-3.3c0-0.2,0.2-0.5,0.4-0.5c0,0,0,0,0,0c0.2,0,0.4,0.2,0.4,0.4
			c0,1.3,1.1,2.4,2.5,2.4c1.3,0,2.4-1.1,2.4-2.4c0-0.2,0.2-0.4,0.4-0.4c0,0,0,0,0,0c0.2,0,0.4,0.2,0.4,0.5
			C28.8,88.5,27.3,90,25.4,90z"/>
	</g>
	<g id="Path_5074">
		<path class="st1" d="M54.4,90c-1.8,0-3.3-1.5-3.4-3.3c0-0.2,0.2-0.5,0.4-0.5c0,0,0,0,0,0c0.2,0,0.4,0.2,0.5,0.4
			c0,1.3,1.1,2.4,2.5,2.4c1.3,0,2.4-1.1,2.4-2.4c0-0.2,0.2-0.4,0.5-0.4c0,0,0,0,0,0c0.2,0,0.4,0.2,0.4,0.5
			C57.8,88.5,56.3,90,54.4,90z"/>
	</g>
	<path class="st4" d="M74.7,23.4H63.9c-0.5,0-0.9-0.2-1.2-0.6l-3.2-4.3c-0.4-0.5-0.4-1.2,0-1.7l3.2-4.3c0.3-0.4,0.7-0.6,1.2-0.6
		h10.9c0.8,0,1.4,0.5,1.5,1.3c0,0.1,0,0.1,0,0.2V22c0,0.7-0.5,1.4-1.3,1.4C74.9,23.4,74.8,23.4,74.7,23.4z"/>
	<path class="st1" d="M76.6,13.4c0-0.1,0-0.1,0-0.2c-0.1-1-0.9-1.8-1.9-1.7l-10.9,0c-0.6,0-1.2,0.3-1.5,0.8l-3.2,4.3
		c-0.2,0.2-0.3,0.5-0.4,0.7h-3.2v-6C55.6,5.1,50.5,0,44.3,0h-8.7c-6.2,0-11.3,5.1-11.3,11.2v12.2c0,0.2,0.2,0.4,0.4,0.4
		c0.2,0,0.5-0.2,0.5-0.4V11.2c0-5.7,4.7-10.3,10.4-10.3h8.7c5.7,0,10.4,4.7,10.4,10.3v6h-3.5V12c0-2-0.8-3.9-2.2-5.4
		c-1.4-1.4-3.3-2.2-5.4-2.3h-7.4c0,0-0.1,0-0.1,0c-4.2,0-7.6,3.3-7.6,7.5v11.6c0,0.2,0.2,0.4,0.5,0.4c0.2,0,0.5-0.2,0.5-0.4V11.8
		c0-3.7,3.1-6.6,6.7-6.6c0,0,0,0,0.1,0h7.4c1.8,0,3.5,0.7,4.7,2c1.3,1.3,1.9,3,1.9,4.7v5.3h-1c-0.2,0-0.5,0.2-0.5,0.4
		c0,0.2,0.2,0.5,0.5,0.5h1v5.3c0,0.2,0.2,0.4,0.5,0.4c0.2,0,0.4-0.2,0.4-0.4v-5.3h3.5v5.3c0,0.2,0.2,0.4,0.4,0.4
		c0.2,0,0.5-0.2,0.5-0.4v-5.3h3.2c0.1,0.2,0.2,0.5,0.3,0.7l3.2,4.3c0.3,0.5,0.9,0.8,1.5,0.8h10.9c0,0,0.1,0,0.1,0c0,0,0.1,0,0.1,0
		c0.5,0,0.9-0.2,1.3-0.6c0.3-0.4,0.5-0.8,0.5-1.3L76.6,13.4z M75.5,22.7c-0.2,0.2-0.4,0.3-0.6,0.3c0,0-0.1,0-0.1,0c0,0,0,0,0,0
		l-10.9,0c-0.3,0-0.6-0.1-0.8-0.4l-3.2-4.3c0,0,0-0.1-0.1-0.1h2.6c0.2,0,0.5-0.2,0.5-0.5c0-0.2-0.2-0.4-0.5-0.4h-2.6
		c0,0,0-0.1,0.1-0.1l3.2-4.3c0.2-0.2,0.5-0.4,0.8-0.4l10.9,0c0.5,0,0.9,0.3,1,0.8c0,0,0,0.1,0,0.1l0,8.7
		C75.8,22.3,75.7,22.5,75.5,22.7z"/>
	<g id="Line_465">
		<path class="st2" d="M67.5,20.3c-0.2,0-0.5-0.2-0.5-0.4v-5.1c0-0.2,0.2-0.4,0.5-0.4c0.2,0,0.4,0.2,0.4,0.4v5.1
			C68,20.1,67.8,20.3,67.5,20.3z"/>
	</g>
	<g id="Line_466">
		<path class="st2" d="M71.7,20.3c-0.2,0-0.4-0.2-0.4-0.4v-5.1c0-0.2,0.2-0.4,0.4-0.4s0.4,0.2,0.4,0.4v5.1
			C72.1,20.1,71.9,20.3,71.7,20.3z"/>
	</g>
	<g id="Path_5076">
		<path class="st1" d="M61.7,42.6c-0.2,0-0.5-0.2-0.5-0.5v-7.9c0,0,0-0.1,0-0.1c0-1.7-1.5-3.1-3.2-3.1h-8c-0.2,0-0.5-0.2-0.5-0.4
			c0-0.2,0.2-0.5,0.5-0.5h8c2.2,0,4.1,1.8,4.1,4v8C62.1,42.4,61.9,42.6,61.7,42.6z"/>
	</g>
</g>
</svg>
