<?xml version="1.0" encoding="UTF-8"?><svg id="Warstwa_1" xmlns="http://www.w3.org/2000/svg" viewBox="0 0 200 200"><defs><style>.cls-1{fill:#27348b;}.cls-1,.cls-2,.cls-3,.cls-4{stroke-width:0px;}.cls-2{fill:#afc9eb;}.cls-3{fill:#ee747f;}.cls-4{fill:#fff;}</style></defs><polygon class="cls-4" points="74.98 64.42 75.54 63.56 79.59 62.63 82.13 61.44 84.21 58.03 87.44 55.39 91.24 54.51 95.86 54.46 99.04 55.43 100.07 56.29 100.07 57.31 102.11 58.74 104.47 61.61 106.22 64.42 109.2 68.81 111.33 71.53 114.06 73.74 116.37 74.82 121.61 75.53 129.18 76.04 132.19 76.15 139.33 75.93 147.81 75.91 153.58 76.47 156.05 77.12 159.1 78.2 162.07 80.44 164.77 83.26 168.11 87.76 170.67 92.33 172.45 96 174.88 100.17 177.03 103.42 179.15 106.58 179.82 107.9 179.68 108.53 179.18 108.84 178.06 109.12 176.97 109 175.81 108.44 173.81 107.4 172.52 105.96 170.17 102.45 168.88 100.43 167.88 99.37 166.62 98.39 166.91 103.84 167.99 109.91 168.79 112.32 169.26 115.13 169.48 118.23 169.64 128.17 169.49 132.1 168.68 133.63 168.13 134.43 166.8 134.54 160.3 134.54 158.25 134.31 157.67 133.47 157.43 132.83 157.22 132.19 157.33 131.14 157.44 130.37 157.67 129.68 158.27 129.34 159.66 129.01 161.92 128.43 162.96 127.59 162.83 126.43 161.56 117.46 161.04 115.94 160.52 115.25 159.71 114.75 155.54 111.82 151.9 108.32 151.09 107.09 148.86 103.07 147.17 101.05 145.89 99.99 144.39 99.66 143.52 99.55 141.53 100.19 137.02 101.73 130.1 103.3 121.69 104.35 113.1 105.03 111.75 110.85 110.97 117.35 110.61 124.15 110.13 131.04 109.75 133.58 108.87 134.26 107.99 134.41 98.56 134.43 97.82 133.19 97.73 132.04 97.66 131.04 97.85 130.38 98.33 129.55 103.12 127.51 103.22 126.38 102.91 113.59 102.35 109.91 101.2 107.29 100.08 105.84 99.35 104.61 97.94 103.73 94.4 99.5 92.18 94.65 89.85 88.13 89.16 84.66 87.99 79.13 87.33 76.38 85.08 74.99 78.18 73.54 76.09 73.02 74.18 71.01 73.37 68.54 72.77 65.32 73.4 64.85 74.32 64.5 74.98 64.42"/><path class="cls-2" d="M169.91,90.84s-13.14-12.11-28.51-10.78c0,0-25.2,2.66-29.51-3.07l-.56-.54,2.02-3.2,5.04,2.02,9.94.79,10.84-.24,10.88.11,5.67,1.08,5.44,2.67,5.48,5.94,3.27,5.22Z"/><path class="cls-2" d="M113.55,104.93s-6.01-2.55-6.95,23.66c-.02.56-.24,1.09-.61,1.5-1.06,1.14-3.58,3.03-7.76,1.56-.66-.23-.55.58-.55.58l.13.37c.25.75.86,1.31,1.63,1.5l1.03.26c.18.05.37.07.56.07h6.85c.52,0,1.03-.18,1.44-.51h0c.32-.25.56-.58.7-.96l.45-1.17c.1-.27.16-.55.16-.84v-10.88c0-.11,0-.21.02-.32l1.05-7.58,1-5.56c.05-.29.16-.56.31-.81l.55-.88Z"/><path class="cls-2" d="M158.15,131.65c4.18,1.47,6.7-.42,7.76-1.56.38-.41.59-.94.61-1.5.29-7.95,1.04-13.24,1.95-16.77.19.64.47,1.25.91,1.78.24,1.99.31,3.87.24,6.05-.08,2.48.21,4.93.55,7.38-.2.39-.32.85-.32,1.39,0,1.48-.12,3.63-.82,4.97-.18.35-.44.67-.72.97-.17.04-.34.07-.51.07h-6.85c-.19,0-.37-.02-.56-.07l-1.03-.26c-.76-.19-1.38-.76-1.63-1.5l-.13-.37s-.11-.81.55-.58Z"/><path class="cls-2" d="M86.42,75.68s4.78.35,5.39,5.18c.61,4.83,2.25,12.51,7.53,19.69,5.28,7.17,3.55,13.83,3.55,13.83l-1.28-6.76-1.21-1.68-3.34-3.34-3.12-4.21-2.59-5.53-2.26-7.33-.45-2.95-1.01-5.35-1.21-1.56Z"/><polygon class="cls-2" points="108.73 72.87 99.73 59.18 100.07 57.31 103.01 59.71 107.36 66.1 110.21 70.13 108.73 72.87"/><path class="cls-2" d="M92.12,55.52s8.71,1.08.97,9.78l.46.51,2.32-.89,2.7-3.16,1.49-3.38v-1.58s-.73-1.29-.73-1.29l-3.25-1.06h-3.06s-.91,1.06-.91,1.06Z"/><polygon class="cls-3" points="110.08 70.37 107.49 74.79 102.64 77.9 93.32 80.87 88.28 81.24 89.17 85.76 98.91 84.08 107.72 80.24 110.43 77.76 113.2 73.26 110.08 70.37"/><path class="cls-1" d="M162.52,81.24c-.1,0-.19-.04-.26-.11-3.15-3.13-8.21-4.81-15.02-4.99-3.79-.1-7.22.02-10.54.14-5.26.19-10.22.36-15.92-.36-.33-.04-.65-.08-.97-.11-3.23-.37-6.02-.69-9.89-5.45-1.09-1.34-2.21-2.96-3.42-4.95-2.71-4.44-4.24-6.33-6.3-7.8-.17-.12-.21-.35-.09-.52.12-.17.35-.21.52-.09,2.13,1.52,3.77,3.54,6.5,8.02,1.2,1.96,2.29,3.55,3.36,4.86,3.68,4.53,6.2,4.81,9.4,5.18.32.04.64.07.97.12,5.64.71,10.58.54,15.8.35,3.33-.12,6.77-.24,10.59-.14,7.01.18,12.24,1.94,15.53,5.21.15.15.15.38,0,.53-.07.07-.17.11-.27.11Z"/><path class="cls-1" d="M167.63,134.8l-8.47-.02c-.63,0-1.22-.26-1.6-.72-.45-.52-.92-1.52-.64-3.29.29-1.83,2.04-2.12,3.44-2.35,1.25-.21,2.02-.38,2.18-1.01v-.13s0-.02,0-.03c-.29-3.18-1.02-9.57-1.67-10.95-.24-.5-1.17-1.12-2.35-1.9-2.61-1.72-6.55-4.33-9.08-9.49-3.17-6.46-6.22-5.04-7.38-4.51-9.23,3.75-19.68,4.35-25.29,4.67-1.55.09-3.02.17-3.47.29-.03.33-.13.75-.29,1.41-.3,1.28-.81,3.42-1.41,7.4-.94,6.28-.64,12.22-.64,12.28,0,.21-.1,4.43-.36,6.04-.4,1.91-1.6,2.27-2.6,2.3l-8.47-.02c-.63,0-1.22-.26-1.6-.72-.45-.52-.92-1.52-.65-3.29.29-1.84,1.95-2.29,3.42-2.69.94-.26,1.84-.5,2.22-1.06.12-.17.35-.21.52-.1.17.12.22.35.1.52-.54.79-1.61,1.08-2.64,1.36-1.37.37-2.67.73-2.88,2.09-.18,1.18-.02,2.1.47,2.68.24.29.62.45,1.04.45l8.47.02h0c1.03,0,1.62-.54,1.86-1.68.25-1.54.34-5.84.35-5.89,0-.03-.31-6.05.64-12.4.6-4.01,1.12-6.17,1.42-7.46.17-.72.28-1.16.28-1.43,0-.61.72-.65,4.17-.85,5.57-.32,15.94-.91,25.03-4.61,1.19-.55,4.86-2.25,8.35,4.87,2.44,4.98,6.28,7.51,8.82,9.19,1.33.88,2.29,1.52,2.62,2.21.82,1.74,1.6,9.74,1.72,11.04.01.04.02.07.02.11v.38c-.3,1.25-1.57,1.46-2.79,1.66-1.58.26-2.63.52-2.83,1.73-.18,1.18-.02,2.1.47,2.68.25.29.62.45,1.04.45l8.47.02c.94,0,1.54-1.89,1.62-5.05,0-.12.21-12.51-.73-16.25-.04-.17-.11-.39-.19-.67-.66-2.22-2.42-8.12-2.07-18.97.01-.39.01-.77,0-1.15,0-.21.16-.38.37-.38h0c.2,0,.37.16.38.37,0,.39,0,.79,0,1.19-.34,10.72,1.39,16.54,2.04,18.73.09.29.16.53.2.7.97,3.83.76,16.33.75,16.45-.09,3.84-.89,5.78-2.37,5.78Z"/><path class="cls-1" d="M103.22,127.59c-.2,0-.37-.16-.38-.37,0,0-.08-4.04-.21-10.12-.2-8.87-1.67-10.25-4.12-12.54-.68-.64-1.46-1.36-2.29-2.33-5.72-6.65-7.32-16.14-8.27-21.82-.19-1.14-.36-2.13-.52-2.86-.54-1.9-3.33-2.96-9.02-3.4-3.49-.27-5-3.19-5.65-5.59-.42-1.56-.71-3.28.33-4.19,1.17-1.01,2.86-1.35,4.49-1.68,1.46-.3,2.85-.58,3.8-1.29.52-.39.93-1.08,1.4-1.88,1.36-2.3,3.23-5.44,9.72-5.44.23,0,.43.15.43.38,0,.21-.17.37-.38.37-.02,0-.04,0-.05,0-6.06,0-7.73,2.81-9.08,5.07-.52.87-.96,1.62-1.6,2.1-1.09.82-2.62,1.12-4.1,1.42-1.54.31-3.13.63-4.15,1.51-.58.5-.61,1.56-.1,3.42.59,2.17,1.93,4.8,4.98,5.04,6.13.47,9.03,1.66,9.68,3.96.17.77.34,1.77.54,2.92.94,5.6,2.51,14.96,8.1,21.45.81.94,1.56,1.65,2.23,2.27,2.5,2.34,4.15,3.88,4.36,13.07.14,6.08.21,10.12.21,10.12,0,.21-.16.38-.37.38h0Z"/><path class="cls-1" d="M93.79,66.19c-.7,0-1.28-.33-1.69-.96-2.03-3.14-.97-8.95-.89-9.4.12-1.24,1.26-1.93,3.18-1.87,2.35.06,6,1.35,6.05,2.83.19,3.66-3.17,8.39-5.82,9.25-.29.09-.57.14-.83.14ZM94.19,54.72c-.87,0-2.15.18-2.24,1.21,0,.01,0,.03,0,.04-.01.06-1.13,5.93.78,8.86.38.59.92.76,1.66.52,2.34-.76,5.47-5.29,5.3-8.51-.02-.69-2.77-2.04-5.32-2.11-.06,0-.11,0-.17,0ZM91.58,55.89h0,0Z"/><path class="cls-1" d="M87.06,62.14c-.06,0-.12,0-.16-.03-.11,0-.3-.12-.4-.35-.04-.1-.04-.21,0-.31.1-.23.28-.36.48-.36.11-.06.24,0,.32.05.19.13.19.36.19.47s0,.34-.19.47c-.06.04-.15.06-.24.06ZM87.15,61.74v.03s.02-.01.03-.02h-.03ZM86.77,61.66s.06.07.11.1l.03-.05-.15-.05ZM86.83,61.61h0,0ZM87.07,61.39c-.05,0-.12.01-.18.05l.06.11.13-.1v.04s.09-.04.09-.04c0-.01-.04-.03-.08-.05,0,0-.02,0-.02,0ZM86.97,61.37s.04,0,.07,0c-.02,0-.05,0-.07,0Z"/><path class="cls-1" d="M178.19,109.38c-2.21,0-5.41-1.64-7.56-5.4-2.88-5.04-3.98-5.37-4.03-5.38-.2.02-.35-.16-.36-.37,0-.21.19-.38.4-.38h0c.32,0,1.59.43,4.63,5.75,2.41,4.21,5.74,5.14,7.17,5.02.55-.04.95-.22,1.04-.47.06-.38-1.11-2.09-2.25-3.74-1.9-2.77-4.5-6.57-6.47-10.97-3.44-7.66-8.45-12.25-8.5-12.29-.15-.14-.17-.38-.03-.53.14-.15.38-.17.53-.03.05.05,5.18,4.73,8.68,12.54,1.95,4.34,4.53,8.1,6.41,10.85,1.84,2.68,2.57,3.8,2.33,4.43-.21.54-.82.88-1.69.95-.1,0-.21.01-.31.01Z"/><path class="cls-1" d="M74.81,66.04c-.12,0-.24-.04-.31-.07-.04-.01-.1-.04-.12-.04-.55,0-.88-.65-.97-.85-.04-.1-.04-.21,0-.31.09-.2.42-.85.97-.85.02,0,.08-.02.12-.04.13-.05.37-.14.59.02.25.17.3.51.3,1.03s-.05.86-.3,1.03c-.09.06-.19.09-.28.09ZM74.41,65.19c.08,0,.15.02.22.04,0-.07,0-.17,0-.29s0-.22,0-.29c-.08.02-.16.04-.25.04-.04.02-.13.13-.21.25.08.13.17.24.22.26h.01Z"/><path class="cls-1" d="M88.48,81.61c-.21,0-.37-.17-.38-.37,0-.21.16-.38.37-.38.17,0,17.28-.28,21.38-10.87.07-.19.29-.29.49-.21.19.08.29.29.21.49-1.78,4.6-6.17,8.02-12.7,9.89-4.89,1.41-9.33,1.46-9.37,1.46h0Z"/><path class="cls-1" d="M89.28,85.86c-.2,0-.36-.16-.37-.36-.01-.21.15-.38.36-.39.19,0,19.25-1.09,23.36-11.71.08-.19.29-.29.49-.21.19.08.29.29.21.49-1.78,4.59-6.51,8.16-13.68,10.31-5.37,1.61-10.29,1.87-10.34,1.88h-.02Z"/><polygon class="cls-4" points="43.06 94.39 46.47 92.76 49.57 91.89 53.72 90.97 54.09 88.14 56.16 82.17 59.22 77.22 62.75 73.86 66.9 71.52 66.9 76.61 68.71 76.7 70.84 77.55 72.84 78.87 73.8 80.18 74.72 81.93 75.28 83.31 78.67 85.4 78.88 86.37 78.7 87.68 78.06 89.4 76.9 90.74 76.04 91.31 74.53 92 72.53 92.22 71.5 92.61 70.56 93.06 69.76 93.96 69.35 94.69 68.99 95.9 69.1 101.1 68.71 105.37 67.69 108.9 65.92 112.04 62.82 115.74 62.82 129.58 64.18 129.58 65.88 129.58 66.84 130.09 67.8 130.84 68.93 132.21 68.93 133.99 68.93 134.67 47.13 134.94 33.9 134.67 29.98 133.74 26.94 132.18 24.66 129.77 23.1 126.32 22.17 122.09 22.5 118.1 23.89 111.88 25.37 107.14 25.43 104.4 25.37 100.68 23.86 96.82 22.94 95.28 21.29 93.29 20.28 92.11 19.3 91.08 19.17 90.03 19.69 88.62 20.47 87.93 21.7 87.59 22.74 87.84 25.14 89.33 26.78 91.16 28.91 94.13 30.49 98.29 31.32 102.76 31.32 106.81 33.79 102.8 38.79 97.5 43.06 94.39"/><polygon class="cls-3" points="51.1 91.31 53.66 90.87 55.67 94.15 58.26 96.64 62.18 98.45 68.7 98.86 68.93 101.79 65.13 101.79 58.08 99.94 54.41 97.22 52.4 94.58 51.1 91.31"/><path class="cls-2" d="M28.19,124.48s4.87-28.54,24.21-29.91l-1.3-3.41-6.33,2.35-6.88,4.59-4.34,4.71-2.49,5.01-1.89,5.99-.98,7.34v3.33Z"/><path class="cls-2" d="M39.4,112.26s12.53,5.38,5.44,16.87c-.32.19-2.87,5.54-2.87,5.54l15.76.27s.17-5.43-3.78-5.35l-6.27-.06.99-2.28,1.31-2.37.67-2.93-.22-2.54-.47-1.76-2.95-3.7-3.04-1.35-2.76-.25-1.82-.09Z"/><path class="cls-2" d="M62.82,115.74s4.42-8.55,3.21-13.95h2.9l-.19,3.45-1.17,4.31-1.8,2.7-2.95,3.48Z"/><path class="cls-2" d="M66.6,76.61s-10.08,1.08-10.91,16.65l-.24.58-1.91-3.48,1.16-5.09,3.03-6.43,3.63-4.15,4.11-2.52,1.42-.66-.29,5.09Z"/><path class="cls-2" d="M19.69,88.62l1.36-1.07,1.41.08,3.44,2.54,3.05,4.25,1.77,4.97.54,3.95.18,3.4s-6.61,6.22-7.71,21.13l-1.35-5.11.15-5.2,1.48-6.22,1.29-5.12.25-3.78-.73-3.73-1.9-3.43-2.58-2.84s-.99-1.16-1.06-1.36.39-2.46.39-2.46Z"/><g id="cat"><path class="cls-1" d="M57.73,135.04h-23.43c-2.82,0-7.07-1.34-9.81-5.14-2.18-3.03-4.08-8.75-.74-18.78,3.54-10.63-.91-16.21-3.88-18.59-1.24-.99-1.46-2.85-.49-4.14.96-1.29,2.75-1.61,4.06-.73,3.37,2.24,8.91,7.75,8.17,19.53-.01.21-.2.37-.4.35-.21-.01-.36-.19-.35-.4.71-11.4-4.6-16.71-7.84-18.86-.98-.65-2.32-.41-3.04.55-.73.98-.57,2.37.35,3.11,3.12,2.5,7.81,8.35,4.12,19.41-2.57,7.71-2.35,13.97.63,18.11,2.4,3.33,6.35,4.82,9.2,4.82h23.05v-.64c0-2.04-1.66-3.7-3.7-3.7h-6.11c-.13,0-.25-.07-.32-.18s-.07-.25-.01-.37l2.04-3.86c1.46-2.75,1.37-5.98-.24-8.65-1.6-2.67-4.42-4.26-7.53-4.26h-2.09c-.21,0-.38-.17-.38-.38s.17-.38.38-.38h2.09c3.38,0,6.43,1.73,8.17,4.62,1.74,2.89,1.84,6.4.26,9.39l-1.75,3.31h5.49c2.45,0,4.45,2,4.45,4.45v1.02c0,.21-.17.38-.38.38Z"/><path class="cls-1" d="M68.93,135.04h-11.71c-.21,0-.38-.17-.38-.38s.17-.38.38-.38h11.34v-.64c0-2.04-1.66-3.7-3.7-3.7h-2.04c-.21,0-.38-.17-.38-.38v-13.83c0-.09.03-.17.09-.24l2.58-3.11c2.22-2.67,3.44-6.05,3.44-9.53v-6.23c0-2.82,2.3-5.12,5.12-5.12,2.34,0,4.34-1.74,4.67-4.05l.13-.94c.12-.85-.41-1.64-1.24-1.85l-.58-.15c-1.19-.3-2.13-1.21-2.47-2.39l-.07-.26c-.82-2.88-3.5-4.9-6.5-4.9h-.73c-.21,0-.38-.17-.38-.38v-4.52c-11.39,5.13-12.48,18.67-12.49,18.81-.01.19-.16.33-.34.35-.25.02-25.12,2.38-25.12,32.22v1.02c0,.21-.17.38-.38.38s-.38-.17-.38-.38v-1.02c0-28.7,22.56-32.55,25.5-32.93.25-2.14,2.16-14.66,13.44-19.36.12-.05.25-.04.35.03.1.07.17.19.17.31v4.72h.36c3.33,0,6.3,2.24,7.22,5.44l.08.26c.26.92,1,1.63,1.93,1.86l.58.15c1.2.3,1.98,1.45,1.8,2.68l-.13.94c-.38,2.68-2.71,4.7-5.41,4.7-2.41,0-4.38,1.96-4.38,4.37v6.23c0,3.65-1.28,7.2-3.62,10l-2.5,3v13.32h1.66c2.45,0,4.45,2,4.45,4.45v1.02c0,.21-.17.38-.38.38Z"/><path class="cls-1" d="M66.9,79.03c-.21,0-.38-.17-.38-.38v-4.07c0-.21.17-.38.38-.38s.38.17.38.38v4.07c0,.21-.17.38-.38.38Z"/></g><path class="cls-1" d="M71.85,82.84c-.09,0-.18-.02-.24-.06-.19-.13-.19-.35-.19-.46s0-.33.19-.46c.1-.07.28-.08.4-.04.21,0,.33.16.33.37,0,.06-.02.12-.05.17,0,.03,0,.06,0,.08,0,.19-.14.34-.32.37-.04.01-.09.02-.13.02Z"/><path class="cls-1" d="M77.95,85.99c-.09,0-.18-.02-.28-.09-.24-.17-.29-.48-.29-.98,0-.21.17-.38.38-.38s.38.17.38.38c0,.1,0,.18,0,.24.25-.07.58.07.58.35,0,.21-.17.38-.37.38-.02,0-.07.02-.1.03-.07.03-.18.07-.3.07Z"/><path class="cls-1" d="M66.53,99.37c-3.61,0-10.22-1.08-13.09-8.49-.07-.19.02-.41.21-.49.19-.08.41.02.48.21,3.81,9.83,14.28,7.93,14.72,7.84.2-.04.4.09.44.3s-.09.4-.3.44c-.03,0-1.01.18-2.47.18Z"/><path class="cls-1" d="M67.12,102.16c-3.89,0-12.82-1.08-16.37-10.53-.07-.19.03-.41.22-.48.19-.07.41.03.48.22,4.37,11.62,17.3,9.98,17.43,9.96.2-.04.39.11.42.32s-.11.39-.32.42c-.03,0-.74.1-1.87.1Z"/></svg>