<svg xmlns="http://www.w3.org/2000/svg" xmlns:xlink="http://www.w3.org/1999/xlink" width="150" height="150" viewBox="0 0 150 150">
  <defs>
    <clipPath id="clip-Artboard_1">
      <rect width="150" height="150"/>
    </clipPath>
  </defs>
  <g id="Artboard_1" data-name="Artboard – 1" clip-path="url(#clip-Artboard_1)">
    <rect width="150" height="150" fill="#fff"/>
    <g id="Group_54248" data-name="Group 54248" transform="translate(-619.283 -5.015)">
      <path id="Path_6649" data-name="Path 6649" d="M689.4,85.255c-.625-4.581-.488-9.4-1.384-13.86a39.654,39.654,0,0,1-1.126-9.39,6.864,6.864,0,0,1-.386-1.786,81.625,81.625,0,0,0-2.028-11.875,9.562,9.562,0,0,0-3.354-5.337,5.637,5.637,0,0,1-3.506-1.789,16.757,16.757,0,0,1-1.647-.351,6.17,6.17,0,0,1-1.391-.574c-.432-.073-.865-.15-1.293-.243a5.381,5.381,0,0,1-1.3-.471c-2.92.052-5.845.22-8.749.346-4.4.191-8.837.491-13.246.307-4.538-.19-9.036-1.23-13.493.051a7.227,7.227,0,0,1-.985.2,5.993,5.993,0,0,1-3.729,1.188c-.034,0-.065,0-.1,0a5.452,5.452,0,0,1-1.873,1.432,5.529,5.529,0,0,1-2.305,1.886,47.168,47.168,0,0,1-2.042,4.5,6.077,6.077,0,0,1-.6,4.581c-.082.153-.154.311-.229.466a9.162,9.162,0,0,1-.068,1.758c-.535,3.682-1.074,7.382-1.646,11.069a7.144,7.144,0,0,1,0,.79c-.15,2.96.115,5.933-.192,8.885-.255,2.465-1.249,4.867-1.645,7.284v18.091a15.339,15.339,0,0,1,1.154,1.188,6.312,6.312,0,0,1,1.625,2.788l.063.468c.086.043.165.081.217.1a17.593,17.593,0,0,1,4.69,2.632h9.783c.191-4.486.419-8.974.238-13.458-.28-6.928-1.583-13.673-.908-20.628a7.117,7.117,0,0,1,.278-1.408,5.589,5.589,0,0,1-.161-1.277c0-3.7,2.93-5.918,6.317-6.317a47.683,47.683,0,0,1,8.754-.466,20.072,20.072,0,0,1,3.194.509c.141-.017.283-.035.423-.042a29.267,29.267,0,0,1,4.3.233c.688.065,1.377.13,2.069.134.205,0,.41-.014.614-.022.078-.026.22-.065.443-.12a6.422,6.422,0,0,1,7.771,4.413,5.422,5.422,0,0,1,.229,2.191,37.237,37.237,0,0,1-.182,9.1,8.658,8.658,0,0,1,.069,2.927c-1.176,7.983-.588,16.171-.406,24.237h11.083c3.2-3.089,6.058-5.922,6.963-10.579C690.583,94.537,690.016,89.737,689.4,85.255Z" transform="translate(0.01 0.17)" fill="#aecbfa"/>
      <path id="Path_6650" data-name="Path 6650" d="M767.209,85.255c-.625-4.581-.488-9.4-1.384-13.86a39.654,39.654,0,0,1-1.126-9.39,6.857,6.857,0,0,1-.386-1.786,81.616,81.616,0,0,0-2.028-11.875,9.564,9.564,0,0,0-3.354-5.337,5.636,5.636,0,0,1-3.506-1.789,16.746,16.746,0,0,1-1.647-.351,6.17,6.17,0,0,1-1.392-.574c-.432-.073-.865-.15-1.293-.243a5.381,5.381,0,0,1-1.3-.471c-2.92.052-5.845.22-8.749.346-4.4.191-8.837.491-13.246.307-4.538-.19-9.036-1.23-13.493.051a7.236,7.236,0,0,1-.985.2,5.993,5.993,0,0,1-3.729,1.188c-.034,0-.065,0-.1,0a5.456,5.456,0,0,1-1.873,1.432,5.528,5.528,0,0,1-2.305,1.886,47.151,47.151,0,0,1-2.042,4.5,6.078,6.078,0,0,1-.6,4.581c-.082.153-.154.311-.229.466a9.162,9.162,0,0,1-.068,1.758c-.535,3.682-1.074,7.382-1.646,11.069a7.369,7.369,0,0,1,.005.79c-.151,2.96.114,5.933-.193,8.885-.255,2.465-1.249,4.867-1.645,7.284v18.091a15.2,15.2,0,0,1,1.154,1.188,6.312,6.312,0,0,1,1.625,2.788l.063.468c.086.043.165.081.217.1a17.6,17.6,0,0,1,4.69,2.632h9.783c.191-4.486.419-8.974.238-13.458-.279-6.928-1.582-13.673-.908-20.628a7.108,7.108,0,0,1,.277-1.408,5.592,5.592,0,0,1-.161-1.277c0-3.7,2.93-5.918,6.317-6.317a47.683,47.683,0,0,1,8.754-.466,20.071,20.071,0,0,1,3.194.509c.141-.017.283-.035.423-.042a29.266,29.266,0,0,1,4.3.233c.688.065,1.377.13,2.069.134.205,0,.41-.014.614-.022.078-.026.22-.065.443-.12a6.422,6.422,0,0,1,7.771,4.413,5.422,5.422,0,0,1,.229,2.191,37.182,37.182,0,0,1-.182,9.1,8.66,8.66,0,0,1,.069,2.927c-1.176,7.983-.588,16.171-.406,24.237h11.084c3.2-3.089,6.057-5.922,6.962-10.579C768.389,94.537,767.822,89.737,767.209,85.255Z" transform="translate(0.428 0.17)" fill="#aecbfa"/>
      <path id="Path_6651" data-name="Path 6651" d="M669.681,10.387a6.616,6.616,0,0,1-2.18-1.264c-5.672.147-11.283-.876-16.977-.591-3.2.16-6.326.449-9.462.69a33.261,33.261,0,0,0-1.951,2.862,15.766,15.766,0,0,0-1.572,7.071c-.1,2.619.357,5.215.331,7.827-.01.938-.138,1.871-.171,2.809,0,.047,0,.1-.005.145a5.178,5.178,0,0,1,.609.827l.137.163q.217.249.444.489c.309.331.628.652.952.967,1.008.979,2.075,1.893,3.145,2.8,5.856-.549,11.686.037,17.56.077,1.758.012,3.93.168,6.063.062.659-.5,1.342-.953,2.032-1.406A11.3,11.3,0,0,1,670.5,32.6l.028-.025c.043-.04.152-.134.276-.241.008-.031.015-.06.026-.1-.219.127-.071-.109.082-.277a4.932,4.932,0,0,0,.147-.534,4.472,4.472,0,0,1,.7-1.831,57.642,57.642,0,0,0,.56-11.171C672.167,16.619,671.824,11.142,669.681,10.387Z" transform="translate(0.098 0.002)" fill="#aecbfa"/>
      <path id="Path_6652" data-name="Path 6652" d="M747.592,10.387a6.618,6.618,0,0,1-2.18-1.264c-5.671.147-11.283-.876-16.977-.591-3.2.16-6.326.449-9.462.69a33.261,33.261,0,0,0-1.951,2.862,15.764,15.764,0,0,0-1.572,7.071c-.1,2.619.357,5.215.331,7.827-.01.938-.138,1.871-.171,2.809,0,.047,0,.1-.005.145a5.178,5.178,0,0,1,.609.827l.137.163q.217.249.444.489c.309.331.628.652.952.967,1.007.979,2.075,1.893,3.145,2.8,5.856-.549,11.686.037,17.56.077,1.758.012,3.93.168,6.062.062.659-.5,1.342-.953,2.032-1.406a11.308,11.308,0,0,1,1.862-1.319l.028-.025c.043-.04.152-.134.277-.241.008-.031.015-.06.026-.1-.219.127-.072-.109.082-.277a4.9,4.9,0,0,0,.147-.534,4.483,4.483,0,0,1,.7-1.831,57.492,57.492,0,0,0,.56-11.171C750.077,16.619,749.735,11.142,747.592,10.387Z" transform="translate(0.517 0.002)" fill="#ff6a73"/>
      <path id="Path_6653" data-name="Path 6653" d="M634.344,151.38A14.04,14.04,0,0,1,620.917,141.2l-1.1-3.91a13.934,13.934,0,0,1,13.427-17.7H755.321a13.936,13.936,0,0,1,13.427,17.7l-1.1,3.911a14.041,14.041,0,0,1-13.428,10.184H634.344Zm-1.1-29.99A12.169,12.169,0,0,0,621.1,133.524a11.958,11.958,0,0,0,.458,3.278l1.1,3.919a12.215,12.215,0,0,0,11.687,8.86H754.225a12.215,12.215,0,0,0,11.687-8.859l1.1-3.922a12.138,12.138,0,0,0-8.412-14.962,12.329,12.329,0,0,0-3.275-.447Z" transform="translate(0 0.6)" fill="#252668"/>
      <path id="Path_6654" data-name="Path 6654" d="M679.938,116.6a.906.906,0,0,1-.9-.9v-4.313H631.3v4.323a.9.9,0,0,1-.9.807.923.923,0,0,1-.908-.838l0-4.8-.286-.085a14.01,14.01,0,0,1-9.918-13.338,13.586,13.586,0,0,1,.087-1.542L624.3,51.57a13.923,13.923,0,0,1,13.857-12.4h34.032a13.926,13.926,0,0,1,13.856,12.41l4.926,44.337a13.928,13.928,0,0,1-9.841,14.883l-.286.085v4.824A.9.9,0,0,1,679.938,116.6Zm-41.8-75.625a12.1,12.1,0,0,0-12.043,10.794l-4.925,44.337a12.13,12.13,0,0,0,10.72,13.4c.329.041.673.062,1.006.073.087.009.21.01.335.01h4.092V72.679a7.445,7.445,0,0,1,7.421-7.43H665.6a7.446,7.446,0,0,1,7.42,7.43v36.908h4.394a12.2,12.2,0,0,0,11.833-12.135c0-.444-.031-.89-.072-1.334l-4.926-44.344A12.117,12.117,0,0,0,672.206,40.98Zm6.605,26.08a5.626,5.626,0,0,0-5.621,5.62v36.908h32.1V72.679a5.64,5.64,0,0,0-5.62-5.62Z" transform="translate(0 0.167)" fill="#252668"/>
      <path id="Path_6655" data-name="Path 6655" d="M676.741,103.526a.91.91,0,0,1-.9-.846.882.882,0,0,1,.219-.649.907.907,0,0,1,.624-.309l.031.005.122,0a4.319,4.319,0,0,0,4.313-4.313,3.491,3.491,0,0,0-.035-.491L676.187,52.6a4.313,4.313,0,0,0-4.29-3.837.91.91,0,0,1,.031-1.811,6.1,6.1,0,0,1,6.054,5.443l4.925,44.338a6.112,6.112,0,0,1-5.395,6.755,5.572,5.572,0,0,1-.68.037Z" transform="translate(0.279 0.209)" fill="#252668"/>
      <path id="Path_6656" data-name="Path 6656" d="M754.66,103.523a.9.9,0,0,1,.01-1.8h0a4.312,4.312,0,0,0,4.288-4.312c0-.146-.011-.3-.022-.448L754.008,52.6a4.311,4.311,0,0,0-4.29-3.837h-.007a.925.925,0,0,1-.979-.837.906.906,0,0,1,.833-.973h.153a6.123,6.123,0,0,1,6.084,5.444l4.926,44.336a6.126,6.126,0,0,1-5.406,6.755A5.474,5.474,0,0,1,754.66,103.523Z" transform="translate(0.696 0.209)" fill="#252668"/>
      <path id="Path_6657" data-name="Path 6657" d="M644.643,35.929a7.428,7.428,0,0,1-7.42-7.42V15.47a7.427,7.427,0,0,1,7.42-7.42H665.5a7.428,7.428,0,0,1,7.42,7.42v13.04a7.428,7.428,0,0,1-7.42,7.42Zm0-26.08a5.64,5.64,0,0,0-5.62,5.62v13.04a5.627,5.627,0,0,0,5.621,5.62H665.5a5.64,5.64,0,0,0,5.62-5.619V15.47a5.654,5.654,0,0,0-5.619-5.62Z" transform="translate(0.097)" fill="#252668"/>
      <path id="Path_6658" data-name="Path 6658" d="M643.309,81.185a.906.906,0,0,1,.027-1.8h23.44a.907.907,0,0,1,.813.963.906.906,0,0,1-.828.841Z" transform="translate(0.125 0.384)" fill="#252668"/>
      <path id="Path_6659" data-name="Path 6659" d="M643.309,96.748a.906.906,0,0,1,.027-1.8h23.44a.907.907,0,0,1,.813.963.906.906,0,0,1-.828.84Z" transform="translate(0.125 0.468)" fill="#252668"/>
      <path id="Path_6660" data-name="Path 6660" d="M722.452,35.929a7.44,7.44,0,0,1-7.419-7.421V15.47a7.44,7.44,0,0,1,7.419-7.42h20.862a7.445,7.445,0,0,1,7.43,7.421V28.509a7.445,7.445,0,0,1-7.43,7.42Zm0-26.08a5.635,5.635,0,0,0-5.609,5.62v13.04a5.622,5.622,0,0,0,5.61,5.62h20.862a5.627,5.627,0,0,0,5.621-5.62V15.47a5.641,5.641,0,0,0-5.62-5.62Z" transform="translate(0.515)" fill="#252668"/>
      <path id="Path_6661" data-name="Path 6661" d="M714.654,108.81v.01h-3.68c-.111,0-.221,0-.322-.01Z" transform="translate(0.492 0.542)" fill="#252668"/>
      <path id="Path_6662" data-name="Path 6662" d="M754.934,108.81c-.1.01-.2.01-.3.01h-3.68v-.01Z" transform="translate(0.708 0.542)" fill="#252668"/>
      <path id="Path_6663" data-name="Path 6663" d="M757.758,116.6a.906.906,0,0,1-.9-.9v-4.313H709.106v4.323a.9.9,0,0,1-.893.807.911.911,0,0,1-.907-.832v-4.8l-.287-.085A13.861,13.861,0,0,1,697.1,97.452a13.589,13.589,0,0,1,.088-1.543l4.926-44.338a13.922,13.922,0,0,1,13.856-12.4H750a13.913,13.913,0,0,1,13.856,12.409l4.926,44.338a13.923,13.923,0,0,1-9.831,14.883l-.287.085v4.824A.9.9,0,0,1,757.758,116.6ZM743.41,65.25a7.462,7.462,0,0,1,7.43,7.431V109.6h4.083c.114,0,.227,0,.34-.012a12.191,12.191,0,0,0,11.8-12.133,11.9,11.9,0,0,0-.072-1.343l-4.927-44.335A12.1,12.1,0,0,0,750.017,40.98H715.973a12.107,12.107,0,0,0-12.062,10.794l-4.926,44.337a12.123,12.123,0,0,0,10.711,13.4c.328.041.672.062,1.017.073.087.009.21.01.335.01h4.082V72.679a7.457,7.457,0,0,1,7.42-7.43Zm-20.862,1.81a5.622,5.622,0,0,0-5.61,5.62v36.908h32.093V72.679a5.626,5.626,0,0,0-5.621-5.62Z" transform="translate(0.419 0.167)" fill="#252668"/>
      <path id="Path_6664" data-name="Path 6664" d="M721.038,81.188a.9.9,0,0,1-.06-1.808h23.617a.909.909,0,0,1,.814.963.908.908,0,0,1-.841.842Z" transform="translate(0.543 0.384)" fill="#252668"/>
      <path id="Path_6665" data-name="Path 6665" d="M721.038,96.751a.9.9,0,0,1-.06-1.808h23.617a.909.909,0,0,1,.814.963.908.908,0,0,1-.841.841Z" transform="translate(0.543 0.468)" fill="#252668"/>
      <path id="Path_6666" data-name="Path 6666" d="M693.888,146.135a.906.906,0,0,1-.9-.9V125.675a.912.912,0,0,1,.223-.684.888.888,0,0,1,.613-.3h.006a.919.919,0,0,1,.967.833V145.24A.9.9,0,0,1,693.888,146.135Z" transform="translate(0.397 0.628)" fill="#252668"/>
    </g>
  </g>
</svg>
