<?xml version="1.0" encoding="utf-8"?>
<!-- Generator: Adobe Illustrator 26.5.0, SVG Export Plug-In . SVG Version: 6.00 Build 0)  -->
<svg version="1.1" id="Layer_1" xmlns="http://www.w3.org/2000/svg" xmlns:xlink="http://www.w3.org/1999/xlink" x="0px" y="0px"
	 viewBox="0 0 90 90" style="enable-background:new 0 0 90 90;" xml:space="preserve">
<style type="text/css">
	.st0{fill:#AECBFA;}
	.st1{fill:#FF6A73;}
	.st2{fill:#FFFFFF;}
	.st3{fill:#252668;}
	.st4{fill:#A4C9FF;}
</style>
<g id="Group_22601" transform="translate(398.226 -396.627)">
	<g id="Group_22880" transform="translate(256.776 397.377)">
		<path id="Path_7062" class="st0" d="M-590.5,44.3L-590.5,44.3l2.7-29.5c0.3-3.1-0.2-6.3-1.4-9.2c-1.6-4.5-6.7-6.9-11.3-5.3
			c-2.5,0.9-4.5,2.8-5.3,5.3c-1.2,2.9-1.7,6.1-1.4,9.2l2.7,29.5l0,0l-2.7,29.5c-0.3,3.1,0.2,6.3,1.4,9.2c1.6,4.5,6.7,6.9,11.3,5.3
			c2.5-0.9,4.5-2.8,5.3-5.3c1.2-2.9,1.7-6.1,1.4-9.2L-590.5,44.3z"/>
		<path id="Path_7063" class="st1" d="M-607.2,73.8c-0.2,2.6,0,5.1,0.8,7.6h17.8c0.8-2.5,1-5,0.8-7.6l-0.2-1.9h-19L-607.2,73.8z"/>
		<path id="Path_7064" class="st2" d="M-587.7,74.9h-19.5c0,1.2,0,2.4,0.2,3.5h19.1C-587.7,77.2-587.7,76.1-587.7,74.9z"/>
		<path id="Path_7065" class="st1" d="M-607.2,14.7l0.2,1.9h19l0.2-1.9c0.2-2.6,0-5.1-0.8-7.6h-17.8
			C-607.1,9.6-607.4,12.2-607.2,14.7z"/>
		<path id="Path_7066" class="st2" d="M-607.2,13.6h19.5c0-1.2,0-2.4-0.2-3.5H-607C-607.2,11.3-607.3,12.5-607.2,13.6z"/>
		<g id="Path_7067">
			<path class="st1" d="M-594.2,36.2c-0.2-1.7-1.6-3-3.3-3l0,0c-1.7,0.1-3.1,1.4-3.3,3l0,0c-0.7,5.4-0.7,10.8,0,16.2l0,0
				c0.2,1.7,1.6,3,3.3,3l0,0c1.7-0.1,3.1-1.4,3.3-3l0,0C-593.5,47-593.5,41.5-594.2,36.2z"/>
			<path class="st3" d="M-597.5,55.8c-2-0.1-3.6-1.5-3.8-3.4c-0.7-5.4-0.7-10.9,0-16.3c0.2-1.9,1.8-3.4,3.7-3.4
				c2,0.1,3.6,1.5,3.8,3.4c0.7,5.4,0.7,10.9,0,16.3C-593.9,54.3-595.5,55.8-597.5,55.8z M-597.5,33.6c-1.5,0-2.7,1.2-2.8,2.6
				c-0.7,5.3-0.7,10.8,0,16.1c0.1,1.5,1.4,2.6,2.9,2.6c1.5,0,2.7-1.2,2.8-2.6c0.7-5.3,0.7-10.8,0-16.1c0,0,0,0,0,0
				C-594.8,34.7-596,33.6-597.5,33.6z"/>
		</g>
		<path id="Path_7068" class="st4" d="M-597.5,56.9h-3.5c-0.4,0-0.7,0.4-0.7,0.8c0,0,0,0.1,0,0.1l0.5,3.3c0,0.3,0.3,0.6,0.7,0.6h6.1
			c0.4,0,0.6-0.3,0.7-0.6l0.5-3.3c0.1-0.4-0.2-0.8-0.6-0.8c0,0-0.1,0-0.1,0H-597.5z"/>
		<g id="Path_7069">
			<path class="st3" d="M-597.5,89.2c-3.8,0-7.4-2.3-8.7-6.1c-1.2-3-1.7-6.2-1.4-9.4l2.7-29.5l-2.7-29.5c-0.3-3.2,0.2-6.5,1.4-9.4
				c0.9-2.6,3-4.6,5.6-5.5c4.8-1.7,10.1,0.8,11.9,5.5c1.2,3,1.7,6.2,1.4,9.4l-2.7,29.5l2.7,29.5c0.3,3.2-0.2,6.5-1.4,9.4
				c-0.9,2.6-3,4.6-5.6,5.5C-595.4,89.1-596.4,89.2-597.5,89.2z M-597.5,0.2c-0.9,0-1.9,0.2-2.8,0.5c-2.4,0.8-4.2,2.7-5.1,5
				c-1.2,2.9-1.6,6-1.4,9l2.7,29.5c0,0,0,0.1,0,0.1l-2.7,29.5c-0.3,3.1,0.2,6.2,1.3,9c1.6,4.3,6.4,6.6,10.7,5c2.4-0.8,4.2-2.7,5.1-5
				c1.2-2.9,1.6-6,1.4-9l-2.7-29.5c0,0,0-0.1,0-0.1l2.7-29.5c0.3-3.1-0.2-6.2-1.3-9C-590.8,2.3-594,0.2-597.5,0.2z"/>
		</g>
		<g id="Group_22878" transform="translate(0 43.875)">
			<path id="Path_7070" class="st4" d="M-587.9,6.5c-0.4,0-0.8-0.3-1-0.7l-2-4.4h-13.2l-2,4.4c-0.3,0.6-0.9,0.8-1.5,0.5
				c-0.6-0.3-0.8-0.9-0.6-1.5l2.1-4.6c0.3-0.6,0.9-1,1.6-1.1h13.9c0.7,0,1.3,0.4,1.6,1.1l2.1,4.6c0.3,0.6,0,1.2-0.6,1.5
				C-587.5,6.5-587.7,6.5-587.9,6.5L-587.9,6.5z"/>
		</g>
		<g id="Group_22879" transform="translate(0 43.875)">
			<g id="Path_7071">
				<path class="st3" d="M-587.9,7C-587.9,7-587.9,7-587.9,7c-0.6,0-1.2-0.4-1.4-0.9l-1.9-4.1h-12.6l-1.9,4.1
					c-0.4,0.8-1.3,1.1-2.1,0.8c-0.8-0.4-1.1-1.3-0.8-2.1l2.1-4.6c0.3-0.8,1.1-1.3,2-1.3h13.9c0.9,0,1.7,0.5,2,1.3l2.1,4.6
					c0.2,0.4,0.2,0.8,0,1.2c-0.1,0.4-0.4,0.7-0.8,0.9C-587.4,6.9-587.6,7-587.9,7C-587.9,7-587.9,7-587.9,7z M-587.9,6.1
					C-587.9,6.1-587.8,6.1-587.9,6.1c0.1,0,0.2,0,0.3-0.1c0.2-0.1,0.3-0.2,0.4-0.4c0.1-0.2,0.1-0.3,0-0.5l-2.1-4.6
					c-0.2-0.5-0.7-0.8-1.2-0.8h-13.9c-0.5,0-1,0.3-1.2,0.8l-2.1,4.6c-0.1,0.3,0,0.7,0.3,0.9c0.3,0.2,0.7,0,0.9-0.3l2-4.4
					c0.1-0.2,0.2-0.3,0.4-0.3h13.2c0.2,0,0.3,0.1,0.4,0.3l2,4.4C-588.4,5.9-588.1,6.1-587.9,6.1C-587.9,6.1-587.9,6.1-587.9,6.1
					L-587.9,6.1z"/>
			</g>
		</g>
		<g id="Path_7072">
			<path class="st3" d="M-600.5,62.1c-0.6,0-1.1-0.5-1.1-1l-0.5-3.3c0,0,0-0.1,0-0.1c0-0.3,0.1-0.6,0.3-0.8c0.2-0.2,0.5-0.4,0.8-0.4
				l7.1,0c0.1,0,0.1,0,0.2,0c0.3,0.1,0.6,0.2,0.8,0.5c0.2,0.3,0.2,0.6,0.2,0.9l-0.5,3.3c-0.1,0.6-0.5,1-1.1,1L-600.5,62.1z
				 M-601,57.3c-0.1,0-0.1,0-0.2,0.1c-0.1,0.1-0.1,0.1-0.1,0.2l0.5,3.4c0,0.1,0.1,0.2,0.3,0.2l6.1,0c0.1,0,0.2-0.1,0.2-0.2l0.5-3.4
				c0-0.1,0-0.2,0-0.2c0-0.1-0.1-0.1-0.2-0.1L-601,57.3z"/>
		</g>
	</g>
	<g id="Group_22883" transform="translate(231.774 397.377)">
		<path id="Path_7073" class="st0" d="M-590.5,44.3L-590.5,44.3l2.7-29.5c0.3-3.1-0.2-6.3-1.4-9.2c-1.6-4.5-6.7-6.9-11.3-5.3
			c-2.5,0.9-4.5,2.8-5.3,5.3c-1.2,2.9-1.7,6.1-1.4,9.2l2.7,29.5l0,0l-2.7,29.5c-0.3,3.1,0.2,6.3,1.4,9.2c1.6,4.5,6.7,6.9,11.3,5.3
			c2.5-0.9,4.5-2.8,5.3-5.3c1.2-2.9,1.7-6.1,1.4-9.2L-590.5,44.3z"/>
		<path id="Path_7074" class="st1" d="M-607.2,73.8c-0.2,2.6,0,5.1,0.8,7.6h17.8c0.8-2.5,1-5,0.8-7.6l-0.2-1.9h-19L-607.2,73.8z"/>
		<path id="Path_7075" class="st2" d="M-587.8,74.9h-19.5c0,1.2,0,2.4,0.2,3.5h19.1C-587.8,77.2-587.7,76.1-587.8,74.9z"/>
		<path id="Path_7076" class="st1" d="M-607.2,14.7l0.2,1.9h19l0.2-1.9c0.2-2.6,0-5.1-0.8-7.6h-17.8
			C-607.2,9.6-607.5,12.2-607.2,14.7z"/>
		<path id="Path_7077" class="st2" d="M-607.3,13.6h19.5c0-1.2,0-2.4-0.2-3.5h-19.1C-607.3,11.3-607.3,12.5-607.3,13.6z"/>
		<g id="Path_7078">
			<path class="st1" d="M-594.2,36.2c-0.2-1.7-1.6-3-3.3-3l0,0c-1.7,0.1-3.1,1.4-3.3,3l0,0c-0.7,5.4-0.7,10.8,0,16.2l0,0
				c0.2,1.7,1.6,3,3.3,3l0,0c1.7-0.1,3.1-1.4,3.3-3l0,0C-593.5,47-593.5,41.5-594.2,36.2z"/>
			<path class="st3" d="M-597.5,55.8c-2-0.1-3.6-1.5-3.8-3.4c-0.7-5.4-0.7-10.9,0-16.3c0.2-1.9,1.8-3.4,3.7-3.4
				c2,0.1,3.6,1.5,3.8,3.4c0.7,5.4,0.7,10.9,0,16.3C-594,54.3-595.6,55.8-597.5,55.8z M-597.5,33.6c-1.5,0-2.7,1.2-2.8,2.6
				c-0.7,5.3-0.7,10.8,0,16.1c0.1,1.5,1.4,2.6,2.9,2.6c1.5,0,2.7-1.2,2.8-2.6c0.7-5.3,0.7-10.8,0-16.1c0,0,0,0,0,0
				C-594.8,34.7-596.1,33.6-597.5,33.6z"/>
		</g>
		<path id="Path_7079" class="st4" d="M-597.5,56.9h-3.5c-0.4,0-0.7,0.4-0.7,0.8c0,0,0,0.1,0,0.1l0.5,3.3c0,0.3,0.3,0.6,0.7,0.6h6.1
			c0.4,0,0.6-0.3,0.7-0.6l0.5-3.3c0.1-0.4-0.2-0.8-0.6-0.8c0,0-0.1,0-0.1,0H-597.5z"/>
		<g id="Path_7080">
			<path class="st3" d="M-597.5,89.2c-3.8,0-7.4-2.3-8.7-6.1c-1.2-3-1.7-6.2-1.4-9.4l2.7-29.5l-2.7-29.5c-0.3-3.2,0.2-6.5,1.4-9.4
				c0.9-2.6,3-4.6,5.6-5.5c4.8-1.7,10.1,0.8,11.9,5.5c1.2,3,1.7,6.2,1.4,9.4l-2.7,29.5l2.7,29.5c0.3,3.2-0.2,6.5-1.4,9.4
				c-0.9,2.6-3,4.6-5.6,5.5C-595.4,89.1-596.5,89.2-597.5,89.2z M-597.5,0.2c-0.9,0-1.9,0.2-2.8,0.5c-2.4,0.8-4.2,2.7-5.1,5
				c-1.2,2.9-1.6,6-1.4,9l2.7,29.5c0,0,0,0.1,0,0.1l-2.7,29.5c-0.3,3.1,0.2,6.2,1.3,9c1.6,4.3,6.4,6.6,10.7,5c2.4-0.8,4.2-2.7,5.1-5
				c1.2-2.9,1.6-6,1.4-9l-2.7-29.5c0,0,0-0.1,0-0.1l2.7-29.5c0.3-3.1-0.2-6.2-1.3-9C-590.9,2.3-594.1,0.2-597.5,0.2z"/>
		</g>
		<g id="Group_22881" transform="translate(0 43.875)">
			<path id="Path_7081" class="st4" d="M-587.9,6.5c-0.4,0-0.8-0.3-1-0.7l-2-4.4h-13.2l-2,4.4c-0.3,0.6-0.9,0.8-1.5,0.5
				c-0.6-0.3-0.8-0.9-0.6-1.5l2.1-4.6c0.3-0.6,0.9-1,1.6-1.1h13.9c0.7,0,1.3,0.4,1.6,1.1l2.1,4.6c0.3,0.6,0,1.2-0.6,1.5
				C-587.6,6.5-587.8,6.5-587.9,6.5L-587.9,6.5z"/>
		</g>
		<g id="Group_22882" transform="translate(0 43.875)">
			<g id="Path_7082">
				<path class="st3" d="M-587.9,7C-587.9,7-588,7-587.9,7c-0.6,0-1.2-0.4-1.4-0.9l-1.9-4.1h-12.6l-1.9,4.1
					c-0.4,0.8-1.3,1.1-2.1,0.8c-0.8-0.4-1.1-1.3-0.8-2.1l2.1-4.6c0.3-0.8,1.1-1.3,2-1.3h13.9c0.9,0,1.7,0.5,2,1.3l2.1,4.6
					c0.2,0.4,0.2,0.8,0,1.2c-0.1,0.4-0.4,0.7-0.8,0.9C-587.5,6.9-587.7,7-587.9,7C-587.9,7-587.9,7-587.9,7z M-587.9,6.1
					C-587.9,6.1-587.9,6.1-587.9,6.1c0.1,0,0.2,0,0.3-0.1c0.2-0.1,0.3-0.2,0.4-0.4c0.1-0.2,0.1-0.3,0-0.5l-2.1-4.6
					c-0.2-0.5-0.7-0.8-1.2-0.8h-13.9c-0.5,0-1,0.3-1.2,0.8l-2.1,4.6c-0.1,0.3,0,0.7,0.3,0.9c0.3,0.2,0.7,0,0.9-0.3l2-4.4
					c0.1-0.2,0.2-0.3,0.4-0.3h13.2c0.2,0,0.3,0.1,0.4,0.3l2,4.4C-588.4,5.9-588.2,6.1-587.9,6.1C-587.9,6.1-587.9,6.1-587.9,6.1
					L-587.9,6.1z"/>
			</g>
		</g>
		<g id="Path_7083">
			<path class="st3" d="M-600.6,62.1c-0.6,0-1.1-0.5-1.1-1l-0.5-3.3c0,0,0-0.1,0-0.1c0-0.3,0.1-0.6,0.3-0.8c0.2-0.2,0.5-0.4,0.8-0.4
				l7.1,0c0.1,0,0.1,0,0.2,0c0.3,0.1,0.6,0.2,0.8,0.5c0.2,0.3,0.2,0.6,0.2,0.9l-0.5,3.3c-0.1,0.6-0.5,1-1.1,1L-600.6,62.1z
				 M-601.1,57.3c-0.1,0-0.1,0-0.2,0.1c0,0.1-0.1,0.1-0.1,0.2l0.5,3.4c0,0.1,0.1,0.2,0.3,0.2l6.1,0c0.1,0,0.2-0.1,0.2-0.2l0.5-3.4
				c0-0.1,0-0.2,0-0.2c0-0.1-0.1-0.1-0.2-0.1L-601.1,57.3z"/>
		</g>
	</g>
</g>
</svg>
