<?xml version="1.0" encoding="utf-8"?>
<!-- Generator: Adobe Illustrator 26.5.0, SVG Export Plug-In . SVG Version: 6.00 Build 0)  -->
<svg version="1.1" id="Layer_1" xmlns="http://www.w3.org/2000/svg" xmlns:xlink="http://www.w3.org/1999/xlink" x="0px" y="0px"
	 viewBox="0 0 90 90" style="enable-background:new 0 0 90 90;" xml:space="preserve">
<style type="text/css">
	.st0{fill:#AECBFA;}
	.st1{fill:#252668;}
	.st2{fill:#FF6A73;}
</style>
<g>
	<g id="Path_13700_00000168800927742787420410000015808196895947900564_">
		<path class="st0" d="M61.9,57.8c0.1,0.5,0.1,1.1-0.2,1.6c-0.1,0.2-0.2,0.3-0.3,0.4L55,66.1c-0.4,0.4-0.9,0.6-1.5,0.6
			c-0.3,0-0.6-0.1-0.9-0.2c-4.8-2.3-10.4-2.3-15.2,0c-0.3,0.1-0.6,0.2-0.9,0.2c-0.6,0-1.1-0.2-1.5-0.6l-6.3-6.3
			c-0.1-0.1-0.2-0.3-0.3-0.4c-0.6-1-0.3-2.3,0.7-2.9l0,0c4.8-2.9,10.3-4.5,15.9-4.5c5.6,0.1,11.1,1.6,15.9,4.5
			C61.4,56.8,61.7,57.2,61.9,57.8"/>
		<path class="st1" d="M53.5,67.2c-0.4,0-0.8-0.1-1.1-0.3c-4.7-2.2-10.1-2.2-14.8,0c-0.4,0.2-0.7,0.3-1.1,0.3c0,0,0,0,0,0
			c-0.7,0-1.3-0.3-1.8-0.7l-6.3-6.3c-0.1-0.2-0.3-0.3-0.4-0.5c-0.7-1.2-0.4-2.8,0.8-3.5l0.1,0c4.8-2.9,10.4-4.5,16.1-4.6
			c5.7,0.1,11.3,1.7,16.1,4.6c0.6,0.3,1,0.9,1.2,1.6l0,0c0.2,0.7,0.1,1.4-0.3,2c-0.1,0.2-0.3,0.4-0.4,0.5l-6.3,6.3
			C54.8,66.9,54.2,67.2,53.5,67.2z M45,64.3c2.7,0,5.3,0.6,7.8,1.8c0.2,0.1,0.5,0.2,0.7,0.2c0.4,0,0.8-0.2,1.1-0.5l6.3-6.3
			c0.1-0.1,0.2-0.2,0.3-0.3c0.2-0.4,0.3-0.8,0.2-1.3l0.4-0.1l-0.4,0.1c-0.1-0.4-0.4-0.8-0.7-1C55.9,54,50.5,52.5,45,52.4
			C39.5,52.5,34,54,29.3,56.9l-0.1,0c-0.7,0.5-1,1.5-0.5,2.3c0.1,0.1,0.2,0.2,0.3,0.3l6.3,6.3c0.3,0.3,0.7,0.5,1.2,0.5c0,0,0,0,0,0
			c0.3,0,0.5-0.1,0.8-0.2C39.7,64.9,42.3,64.3,45,64.3z"/>
	</g>
	<g id="Path_13701_00000141456385584717935080000014676989162600791202_">
		<path class="st0" d="M74.4,41.6c1.4,1.4,1.4,3.6,0,5c0,0,0,0,0,0l-4.1,4.1c-0.7,0.7-1.6,1-2.5,1c-0.7,0-1.4-0.2-1.9-0.6
			c-12.6-8.6-29.2-8.6-41.8,0c-0.6,0.4-1.3,0.6-2,0.6c-0.9,0-1.8-0.4-2.5-1l-4.1-4.1c-0.7-0.7-1-1.6-1.1-2.5c0-0.9,0.4-1.9,1-2.5
			c0.2-0.2,0.3-0.3,0.5-0.4c8.5-5.9,18.6-9.1,28.9-9.2c10.3,0.1,20.4,3.3,28.9,9.2l0.3,0.2C74.3,41.4,74.3,41.5,74.4,41.6"/>
		<path class="st1" d="M67.8,52.2c-0.8,0-1.5-0.2-2.2-0.7c-12.5-8.5-28.7-8.5-41.3,0c-0.7,0.4-1.4,0.7-2.2,0.7c0,0,0,0,0,0
			c-1,0-2.1-0.4-2.8-1.2l-4.1-4.1c-0.8-0.8-1.2-1.8-1.2-2.8c0-1.1,0.4-2.1,1.2-2.9c0.2-0.2,0.4-0.3,0.6-0.5c8.6-6,18.7-9.2,29.1-9.3
			c10.5,0.1,20.5,3.4,29.1,9.3l0.3,0.2c0.1,0.1,0.2,0.2,0.2,0.2l0,0c1.5,1.6,1.6,4.1,0,5.7L70.6,51C69.9,51.8,68.9,52.2,67.8,52.2
			C67.8,52.2,67.8,52.2,67.8,52.2z M45,44.2c7.4,0,14.7,2.2,21.2,6.5c0.5,0.3,1.1,0.5,1.7,0.5c0.8,0,1.6-0.3,2.2-0.9l4-4.1
			c1.2-1.2,1.2-3.2,0-4.4l0.3-0.3l-0.3,0.3c0,0-0.1-0.1-0.1-0.1l-0.3-0.2c-8.5-5.9-18.4-9-28.6-9.2c-10.3,0.1-20.1,3.3-28.6,9.1
			c-0.2,0.1-0.3,0.2-0.5,0.4c-0.6,0.6-0.9,1.4-0.9,2.2c0,0.8,0.3,1.6,0.9,2.2l4.1,4.1c0.6,0.6,1.3,0.9,2.2,0.9
			c0.6,0,1.2-0.2,1.7-0.5C30.3,46.4,37.6,44.2,45,44.2z"/>
	</g>
	<g id="Path_13702_00000109016474285084533360000016457724794541370026_">
		<path class="st0" d="M89.6,29.9c0,0.9-0.4,1.8-1,2.5l-4.1,4.1c-0.6,0.6-1.5,1-2.4,1l-0.1,0c-0.7,0-1.4-0.2-2-0.6
			c-5.3-3.7-19.4-12.2-35-12.2c-15.5,0-29.6,8.5-34.9,12.2c-0.6,0.4-1.3,0.6-2,0.6c-0.9,0-1.8-0.4-2.5-1l-4.1-4.2
			c-0.1-0.1-0.2-0.2-0.3-0.3c-1.2-1.6-0.9-3.8,0.6-5c12.3-9.7,27.4-15,43-15.1H45c19.7,0,36.2,10.1,42.4,14.5l0.7,0.6
			c0.1,0.1,0.3,0.2,0.4,0.4C89.2,28,89.6,28.9,89.6,29.9"/>
		<path class="st1" d="M82,38l-0.1,0c-0.7,0-1.5-0.2-2.2-0.7C74.4,33.7,60.4,25.2,45,25.2c-15.4,0-29.3,8.5-34.7,12.1
			C9.7,37.7,8.9,38,8.1,38c0,0,0,0,0,0c-1,0-2-0.4-2.8-1.2l-4.1-4.2c-0.1-0.1-0.2-0.2-0.3-0.4c-1.3-1.8-1-4.3,0.7-5.7
			c12.3-9.7,27.7-15.1,43.3-15.2H45c19.9,0,36.4,10.2,42.6,14.6l0.8,0.6c0.2,0.1,0.3,0.3,0.5,0.4c0.7,0.7,1.2,1.8,1.2,2.8
			c0,1.1-0.4,2.1-1.2,2.8l-4.1,4.1C84,37.5,83.1,38,82,38L82,38z M81.9,37.1l0.1,0c0.8,0,1.5-0.4,2.1-0.9l4.1-4.1
			c0.6-0.6,0.9-1.4,0.9-2.2v0c0-0.8-0.3-1.6-0.9-2.2c-0.1-0.1-0.2-0.2-0.4-0.3l-0.8-0.6C81,22.5,64.6,12.4,45,12.4h-0.2
			c-15.4,0-30.6,5.4-42.7,15c-1.3,1.1-1.6,3-0.5,4.4c0.1,0.1,0.2,0.2,0.3,0.3l4.1,4.2c0.6,0.6,1.4,0.9,2.2,0.9
			c0.6,0,1.2-0.2,1.7-0.5c5.4-3.7,19.6-12.2,35.2-12.2c15.7,0,29.9,8.6,35.2,12.2C80.7,36.9,81.3,37.1,81.9,37.1z"/>
	</g>
	<g id="Path_13703_00000000220175862161632650000001902588441006356870_">
		<path class="st2" d="M45,72.9c-1.4,0-2.5,1.2-2.5,2.6c0,1.4,1.1,2.6,2.5,2.6c1.4,0,2.5-1.2,2.5-2.6C47.5,74.1,46.4,72.9,45,72.9"
			/>
		<path class="st1" d="M45,78.5c-1.7,0-3-1.4-3-3c0-1.7,1.3-3,3-3l0,0.9c-1.2,0-2.1,1-2.1,2.1c0,1.2,0.9,2.1,2.1,2.1c0,0,0,0,0,0
			c1.2,0,2.1-1,2.1-2.1c0-1.2-0.9-2.1-2.1-2.1v-0.9c1.7,0,3,1.4,3,3C48,77.2,46.7,78.5,45,78.5C45,78.5,45,78.5,45,78.5z"/>
	</g>
</g>
</svg>
