<svg width="26" height="56" viewBox="0 0 26 56" fill="none" xmlns="http://www.w3.org/2000/svg">
<path d="M25.7071 48.7071C26.0976 48.3166 26.0976 47.6834 25.7071 47.2929L19.3431 40.9289C18.9526 40.5384 18.3195 40.5384 17.9289 40.9289C17.5384 41.3195 17.5384 41.9526 17.9289 42.3431L23.5858 48L17.9289 53.6569C17.5384 54.0474 17.5384 54.6805 17.9289 55.0711C18.3195 55.4616 18.9526 55.4616 19.3431 55.0711L25.7071 48.7071ZM0 0V44H2V0H0ZM5 49H25V47H5V49ZM0 44C0 46.7614 2.23858 49 5 49V47C3.34315 47 2 45.6569 2 44H0Z" fill="#0B57AD"/>
</svg>
