<?xml version="1.0" encoding="utf-8"?>
<!-- Generator: Adobe Illustrator 25.4.1, SVG Export Plug-In . SVG Version: 6.00 Build 0)  -->
<svg version="1.1" id="Layer_1" xmlns="http://www.w3.org/2000/svg" xmlns:xlink="http://www.w3.org/1999/xlink" x="0px" y="0px"
	 width="21.1px" height="21.2px" viewBox="0 0 21.1 21.2" style="enable-background:new 0 0 21.1 21.2;" xml:space="preserve">
<style type="text/css">
	.st0{fill:#FC6A73;}
	.st1{fill:#252668;}
</style>
<g id="Group_23176" transform="translate(-783.178 -840.4)">
	<g id="Rectangle_3734">
		<path class="st0" d="M785,844h18c0.6,0,1,0.4,1,1v3c0,0.6-0.4,1-1,1h-18c-0.6,0-1-0.4-1-1v-3C784,844.4,784.4,844,785,844z"/>
	</g>
	<g id="web" transform="translate(780.734 838)">
		<g id="_04-contact-list">
			<g id="sidebar">
				<g id="icons">
					<g id="calendar">
						<g id="Shape">
							<path class="st1" d="M23,11.2H3c-0.3,0-0.6-0.3-0.6-0.6S2.7,10,3,10H23c0.3,0,0.6,0.3,0.6,0.6S23.3,11.2,23,11.2z"/>
						</g>
						<g id="Shape-2">
							<path class="st1" d="M4.4,23.6c-1,0-1.9-0.8-2-1.9L2.4,7c0-1.1,1-2,2-1.9l17,0c1.1,0,2,0.8,2,1.9v14.7c0,1.1-1,2-2,1.9
								L4.4,23.6C4.4,23.6,4.4,23.6,4.4,23.6z M4.4,6.3C4,6.3,3.7,6.6,3.6,7l0,14.6c0,0.4,0.4,0.7,0.8,0.7h17.1c0,0,0,0,0,0
								c0.4,0,0.8-0.3,0.8-0.8V7c0-0.4-0.4-0.7-0.8-0.7c0,0,0,0,0,0L4.4,6.3C4.5,6.3,4.4,6.3,4.4,6.3z"/>
						</g>
						<g id="Shape-3">
							<path class="st1" d="M7.3,6.3C7,6.3,6.7,6,6.7,5.7V3c0-0.3,0.3-0.6,0.6-0.6S7.9,2.7,7.9,3v2.7C7.9,6,7.6,6.3,7.3,6.3z"/>
						</g>
						<g id="Shape-4">
							<path class="st1" d="M18.7,6.3c-0.3,0-0.6-0.3-0.6-0.6V3c0-0.3,0.3-0.6,0.6-0.6s0.6,0.3,0.6,0.6v2.7C19.3,6,19,6.3,18.7,6.3z
								"/>
						</g>
						<g id="Shape-5">
							<path class="st1" d="M13,6.3c-0.3,0-0.6-0.3-0.6-0.6V3c0-0.3,0.3-0.6,0.6-0.6s0.6,0.3,0.6,0.6v2.7C13.6,6,13.3,6.3,13,6.3z"
								/>
						</g>
					</g>
				</g>
			</g>
		</g>
	</g>
</g>
</svg>
