<svg width="29.999999999999996" height="29.999999999999996" xmlns="http://www.w3.org/2000/svg" xml:space="preserve" version="1.1">

 <g>
  <title>Layer 1</title>
  <path stroke="null" fill="#252668" d="m14.85,25.45c-2.9,0 -5.7,-1.2 -7.8,-3.2c-1.3,-1.3 -2.2,-2.9 -2.8,-4.6l1.9,-0.6c0.6,1.8 1.7,3.5 3.2,4.6c1.6,1.2 3.5,1.8 5.4,1.8c5,0 9,-4 9,-9c0,-1.7 -0.5,-3.4 -1.4,-4.8c-0.9,-1.4 -2.2,-2.5 -3.7,-3.3l0.9,-1.8c1.1,0.5 2.1,1.3 3,2.1c2.1,2.1 3.2,4.9 3.2,7.8c0,2.9 -1.2,5.7 -3.2,7.8c-2,2.1 -4.8,3.2 -7.7,3.2z" class="st0" id="Subtraction_3"/>
  <g id="Group_22986">
   <path fill="#252668" d="m9.06403,12.66899l-1.7,-6l-3.5,2.3l-0.1,1.9l-0.9,0.6l-0.8,-2.6l-2,-1.8l0.9,-0.6l1.8,0.6l3.5,-2.3l-4.8,-4l1.3,-0.8l3.4,1.5l0.6,-0.4c0.4,-0.2 0.8,-0.1 1.1,0.2c0,0 0,0 0,0c0.2,0.3 0.2,0.6 0,0.9l1.4,0.7l3.5,-2.3c0.5,-0.3 1.2,-0.2 1.6,0.3c0,0 0,0 0,0c0.3,0.5 0.2,1.2 -0.3,1.6c0,0 0,0 0,0l-3.5,2.3l0,1.5c0.3,-0.1 0.6,0.1 0.8,0.3c0.2,0.4 0.1,0.8 -0.2,1.1l-0.5,0.3l0,3.8l-1.6,0.9z" class="st0" id="Union_5"/>
  </g>
 </g>
</svg>