<svg xmlns="http://www.w3.org/2000/svg" width="14.048" height="20.115" viewBox="0 0 14.048 20.115"><defs><style>.a{fill:#ff6a73;}.b{fill:#252668;}</style></defs><g transform="translate(-77.215)"><path class="a" d="M131.131,400.647h0a1.1,1.1,0,0,1-1.1-1.1v-1.751a1.1,1.1,0,0,1,1.1-1.1h0a1.1,1.1,0,0,1,1.1,1.1v1.751A1.1,1.1,0,0,1,131.131,400.647Z" transform="translate(-50.737 -381.103)"/><path class="b" d="M117.167,387.254a1.677,1.677,0,0,1-1.675-1.675v-1.751a1.675,1.675,0,0,1,3.35,0v1.751A1.677,1.677,0,0,1,117.167,387.254Zm0-3.959a.534.534,0,0,0-.533.533v1.751a.533.533,0,0,0,1.066,0v-1.751A.534.534,0,0,0,117.167,383.3Z" transform="translate(-36.773 -367.139)"/><path class="a" d="M326.872,400.647h0a1.1,1.1,0,0,1-1.1-1.1v-1.751a1.1,1.1,0,0,1,1.1-1.1h0a1.1,1.1,0,0,1,1.1,1.1v1.751A1.1,1.1,0,0,1,326.872,400.647Z" transform="translate(-238.788 -381.103)"/><g transform="translate(77.215)"><path class="b" d="M312.908,387.254a1.677,1.677,0,0,1-1.675-1.675v-1.751a1.675,1.675,0,0,1,3.35,0v1.751A1.677,1.677,0,0,1,312.908,387.254Zm0-3.959a.534.534,0,0,0-.533.533v1.751a.533.533,0,0,0,1.066,0v-1.751A.534.534,0,0,0,312.908,383.3Z" transform="translate(-302.039 -367.139)"/><path class="b" d="M156.277,5.02a.571.571,0,0,1-.571-.571V1.672A1.674,1.674,0,0,1,157.378,0h4.537a1.674,1.674,0,0,1,1.672,1.672v.812a.571.571,0,0,1-1.142,0V1.672a.53.53,0,0,0-.53-.53h-4.537a.53.53,0,0,0-.53.53V4.449A.571.571,0,0,1,156.277,5.02Z" transform="translate(-152.622)"/><path class="b" d="M89.821,113.339H78.657a1.443,1.443,0,0,1-1.442-1.442V100.524a1.441,1.441,0,0,1,1.442-1.442H89.821a1.441,1.441,0,0,1,1.442,1.442v2.712a.571.571,0,0,1-1.142,0v-2.712a.3.3,0,0,0-.157-.264.3.3,0,0,0-.143-.036H78.657a.3.3,0,0,0-.143.036.3.3,0,0,0-.157.264V111.9a.3.3,0,0,0,.3.3H89.821a.3.3,0,0,0,.3-.3v-5.373a.571.571,0,0,1,1.142,0V111.9A1.443,1.443,0,0,1,89.821,113.339Z" transform="translate(-77.215 -95.189)"/></g><path class="a" d="M91.751,302.086v2.161a.871.871,0,0,0,.871.871h11.164a.871.871,0,0,0,.871-.871v-2.161a2.789,2.789,0,0,0-2.789-2.789H94.54A2.789,2.789,0,0,0,91.751,302.086Z" transform="translate(-13.965 -287.538)"/><g transform="translate(77.215 7.19)"><path class="b" d="M89.821,291.725H78.657a1.443,1.443,0,0,1-1.442-1.442v-2.16a3.364,3.364,0,0,1,3.36-3.36H87.9a3.364,3.364,0,0,1,3.36,3.36v2.161A1.443,1.443,0,0,1,89.821,291.725Zm-9.246-5.82a2.22,2.22,0,0,0-2.218,2.218v2.161a.3.3,0,0,0,.3.3H89.821a.3.3,0,0,0,.3-.3v-2.161a2.22,2.22,0,0,0-2.218-2.218Z" transform="translate(-77.215 -280.766)"/><path class="b" d="M156.988,184.162h-7.252a.571.571,0,1,1,0-1.142h7.252a.571.571,0,1,1,0,1.142Z" transform="translate(-146.338 -183.02)"/><path class="b" d="M334.334,185.36a.571.571,0,0,1-.571-.571v-1.2a.571.571,0,0,1,1.142,0v1.2A.571.571,0,0,1,334.334,185.36Z" transform="translate(-323.684 -183.019)"/></g></g></svg>