<svg xmlns="http://www.w3.org/2000/svg" width="70.366" height="35.9" viewBox="0 0 70.366 35.9">
  <g id="Group_47197" data-name="Group 47197" transform="translate(0 0)">
    <path id="Union_251" data-name="Union 251" d="M2475.59-4711.508l-8.615-17.95,8.615-17.95h55.75a6,6,0,0,1,6,6v23.9a6,6,0,0,1-6,6Z" transform="translate(-2466.974 4747.408)" fill="#5c5c5c"/>
    <path id="Path_10831" data-name="Path 10831" d="M-14.168,4.6h8.462V1.753h-5.229V-1.993h4.311V-4.814h-4.311v-3.52h5.022V-11.2h-8.256Zm9.655,0h3.6L2.6-1.045C3.765.828,4.935,2.723,6.127,4.6h3.6L4.5-3.437,9.544-11.2H5.737L2.6-5.9-.523-11.2h-3.83L.692-3.437Zm16.007,0h3.233V-11.2H11.493Zm9.012,0h3.233V-8.334h3.738V-11.2H16.745v2.866h3.761Z" transform="translate(32.836 21.252)" fill="#fff"/>
  </g>
</svg>
