<svg xmlns="http://www.w3.org/2000/svg" width="30" height="15" viewBox="0 0 30 15">
  <g id="Group_28317" data-name="Group 28317" transform="translate(-278 -475)">
    <path id="Union_67" data-name="Union 67" d="M1278,2210l4,7.5-4,7.5Zm-22,15a4,4,0,0,1-4-4v-7a4,4,0,0,1,4-4h22v15Z" transform="translate(-974 -1735)" fill="#5c5c5c"/>
    <path id="Path_6583" data-name="Path 6583" d="M-14.168-4.465h3.608V-5.678h-2.229v-1.6h1.838v-1.2h-1.838v-1.5h2.141V-11.2h-3.52Zm4.116,0h1.535l1.5-2.405c.5.8,1,1.607,1.506,2.405H-3.98L-6.209-7.89l2.151-3.31H-5.682L-7.021-8.939-8.351-11.2H-9.983l2.151,3.31Zm6.824,0h1.379V-11.2H-3.227Zm3.842,0H1.993V-9.978H3.587V-11.2H-.989v1.222h1.6Z" transform="translate(296.454 490.486)" fill="#fff"/>
  </g>
</svg>
