<svg width="48" height="48" xmlns="http://www.w3.org/2000/svg" xml:space="preserve" version="1.1">

 <g>
  <path fill="#555555" d="m16.22082,36.36l0,-9.38l-1.88,0l0,-6.88c0,-1.38 1.12,-2.5 2.5,-2.5l3.75,0c1.38,0 2.5,1.12 2.5,2.5l0,6.88l-1.88,0l0,9.38l-4.99,0zm15.63,0l0,-7.5l3.75,0l-3.17,-9.54c-0.34,-1.02 -1.3,-1.71 -2.38,-1.71l-0.15,0c-1.08,0 -2.04,0.69 -2.38,1.71l-3.18,9.54l3.75,0l0,7.5l3.76,0zm-13.13,-20c1.38,0 2.5,-1.12 2.5,-2.5s-1.12,-2.5 -2.5,-2.5c-1.38,0 -2.5,1.12 -2.5,2.5c0,1.38 1.11,2.5 2.48,2.5c0.01,0 0.02,0 0.02,0zm11.25,0c1.38,0 2.5,-1.12 2.5,-2.5s-1.12,-2.5 -2.5,-2.5c-1.38,0 -2.5,1.12 -2.5,2.5c0,1.38 1.11,2.5 2.48,2.5c0.01,0 0.02,0 0.02,0z" class="st1" id="Path_10697"/>
 </g>
</svg>