<?xml version="1.0" encoding="utf-8"?>
<!-- Generator: Adobe Illustrator 26.1.0, SVG Export Plug-In . SVG Version: 6.00 Build 0)  -->
<svg version="1.1" id="Layer_1" xmlns="http://www.w3.org/2000/svg" xmlns:xlink="http://www.w3.org/1999/xlink" x="0px" y="0px"
	 viewBox="0 0 30 30" style="enable-background:new 0 0 30 30;" xml:space="preserve">
<style type="text/css">
	.st0{fill:#D1D1D1;}
	.st1{fill:#FFFFFF;}
</style>
<g>
	<path id="Rectangle_3410_00000173150934615170529590000018277911894471499453_" class="st0" d="M6,0h18c3.31,0,6,2.69,6,6v18
		c0,3.31-2.69,6-6,6H6c-3.31,0-6-2.69-6-6V6C0,2.69,2.69,0,6,0z"/>
	<path id="Path_6569" class="st1" d="M10.25,23.02v-5.8H9.09v-4.26c0-0.85,0.69-1.55,1.55-1.55h2.32c0.85,0,1.55,0.69,1.55,1.55
		v4.26h-1.16v5.8L10.25,23.02z M19.92,23.02v-4.64h2.32l-1.97-5.9c-0.21-0.63-0.8-1.06-1.47-1.06h-0.09c-0.67,0-1.26,0.43-1.47,1.06
		l-1.97,5.9h2.32v4.64H19.92z M11.8,10.65c0.85,0,1.55-0.69,1.55-1.55s-0.69-1.55-1.55-1.55c-0.85,0-1.55,0.69-1.55,1.54
		c-0.01,0.85,0.68,1.55,1.53,1.55C11.78,10.65,11.79,10.65,11.8,10.65z M18.76,10.65c0.85,0,1.55-0.69,1.55-1.55
		s-0.69-1.55-1.55-1.55c-0.85,0-1.55,0.69-1.55,1.55c0,0.85,0.68,1.54,1.54,1.55C18.75,10.65,18.76,10.65,18.76,10.65L18.76,10.65z"
		/>
</g>
</svg>
