<?xml version="1.0" encoding="utf-8"?>
<!-- Generator: Adobe Illustrator 26.3.1, SVG Export Plug-In . SVG Version: 6.00 Build 0)  -->
<svg version="1.1" id="Layer_1" xmlns="http://www.w3.org/2000/svg" xmlns:xlink="http://www.w3.org/1999/xlink" x="0px" y="0px"
	 viewBox="0 0 83 51" style="enable-background:new 0 0 83 51;" xml:space="preserve">
<style type="text/css">
	.st0{fill:#A7A7A7;}
	.st1{fill:#0B57AD;}
	.st2{fill:#FFFFFF;}
	.st3{enable-background:new    ;}
	.st4{fill:none;}
	.st5{fill:#E81425;}
</style>
<g>
	<g id="Rectangle_6494_00000158725955418730819580000017920884768761075118_" transform="translate(730 315)">
		<path class="st0" d="M-726-315h75c2.2,0,4,1.8,4,4v43c0,2.2-1.8,4-4,4h-75c-2.2,0-4-1.8-4-4v-43C-730-313.2-728.2-315-726-315z"/>
		<g>
			<path class="st1" d="M-651-264h-75c-2.2,0-4-1.8-4-4v-43c0-2.2,1.8-4,4-4h75c2.2,0,4,1.8,4,4v43C-647-265.8-648.8-264-651-264z
				 M-726-314c-1.7,0-3,1.3-3,3v43c0,1.7,1.3,3,3,3h75c1.7,0,3-1.3,3-3v-43c0-1.7-1.3-3-3-3H-726z"/>
		</g>
	</g>
	<rect id="Rectangle_6496_00000014618699574234961140000003703953911528349580_" x="1" y="30" class="st2" width="81" height="11"/>
	<g class="st3">
		<path class="st2" d="M52.5,13.5l1.3-0.5h0.9v7h-1.1v-5.9l-0.8,0.3L52.5,13.5z"/>
		<path class="st2" d="M56.1,19.6c0-2,3.2-3.1,3.2-4.6c0-0.6-0.4-1-1.1-1c-0.7,0-1,0.4-1.1,0.9l-1-0.3c0.1-0.6,0.7-1.7,2.2-1.7
			c1.3,0,2.2,0.8,2.2,2c0,2-2.9,3-3,4.1h3.1v1h-4.4V19.6z"/>
		<path class="st2" d="M65.6,14l-1.6,1.8c0.9,0,1.9,0.6,1.9,2.1c0,1.3-1,2.2-2.3,2.2c-1.4,0-2.1-0.9-2.2-1.6l0.9-0.3
			c0.2,0.5,0.5,0.9,1.3,0.9c0.7,0,1.2-0.5,1.2-1.2c0-0.7-0.4-1.1-1.3-1.1h-0.8v-0.9l1.7-1.9h-2.8v-1h4V14z"/>
		<path class="st2" d="M66.5,17.5l3-4.5h1.2v4.3h0.9v1h-0.9V20h-1.1v-1.7h-3.2V17.5z M69.7,17.3v-3l-2,3H69.7z"/>
	</g>
	<g id="Ellipse_537_00000172426560875592835040000001345275648928331959_" transform="translate(774 322)">
		<ellipse class="st4" cx="-712" cy="-305" rx="18" ry="10"/>
		<g>
			<path class="st5" d="M-712-295c-9.9,0-18-4.5-18-10s8.1-10,18-10s18,4.5,18,10S-702.1-295-712-295z M-712-314c-9.4,0-17,4-17,9
				s7.6,9,17,9s17-4,17-9S-702.6-314-712-314z"/>
		</g>
	</g>
</g>
</svg>
