<?xml version="1.0" encoding="utf-8"?>
<!-- Generator: Adobe Illustrator 26.3.1, SVG Export Plug-In . SVG Version: 6.00 Build 0)  -->
<svg version="1.1" id="Layer_1" xmlns="http://www.w3.org/2000/svg" xmlns:xlink="http://www.w3.org/1999/xlink" x="0px" y="0px"
	 viewBox="0 0 83 51" style="enable-background:new 0 0 83 51;" xml:space="preserve">
<style type="text/css">
	.st0{fill:#A7A7A7;}
	.st1{fill:#0B57AD;}
	.st2{fill:#FFFFFF;}
	.st3{enable-background:new    ;}
	.st4{fill:none;}
	.st5{fill:#E81425;}
</style>
<g>
	<g id="Rectangle_6494" transform="translate(730 315)">
		<path class="st0" d="M-726-315h75c2.2,0,4,1.8,4,4v43c0,2.2-1.8,4-4,4h-75c-2.2,0-4-1.8-4-4v-43C-730-313.2-728.2-315-726-315z"/>
		<g>
			<path class="st1" d="M-651-264h-75c-2.2,0-4-1.8-4-4v-43c0-2.2,1.8-4,4-4h75c2.2,0,4,1.8,4,4v43C-647-265.8-648.8-264-651-264z
				 M-726-314c-1.7,0-3,1.3-3,3v43c0,1.7,1.3,3,3,3h75c1.7,0,3-1.3,3-3v-43c0-1.7-1.3-3-3-3H-726z"/>
		</g>
	</g>
	<rect id="Rectangle_6496" x="1" y="10" class="st2" width="81" height="11"/>
	<rect id="Rectangle_6497" x="1" y="28" class="st2" width="47" height="11"/>
	<g class="st3">
		<path class="st2" d="M58.3,29.5l1.3-0.5h0.9v7h-1.1v-5.9l-0.8,0.3L58.3,29.5z"/>
		<path class="st2" d="M61.9,35.6c0-2,3.2-3.1,3.2-4.6c0-0.6-0.4-1-1.1-1c-0.7,0-1,0.4-1.1,0.9l-1-0.3c0.1-0.6,0.7-1.7,2.2-1.7
			c1.3,0,2.2,0.8,2.2,2c0,2-2.9,3-3,4.1h3.1v1h-4.4V35.6z"/>
		<path class="st2" d="M71.4,30l-1.6,1.8c0.9,0,1.9,0.6,1.9,2.1c0,1.3-1,2.2-2.3,2.2c-1.4,0-2.1-0.9-2.2-1.6l0.9-0.3
			c0.2,0.5,0.5,0.9,1.3,0.9c0.7,0,1.2-0.5,1.2-1.2c0-0.7-0.4-1.1-1.3-1.1h-0.8v-0.9l1.7-1.9h-2.8v-1h4V30z"/>
	</g>
	<g id="Ellipse_537" transform="translate(780 339)">
		<ellipse class="st4" cx="-715" cy="-306" rx="15" ry="9"/>
		<g>
			<path class="st5" d="M-715-297c-8.3,0-15-4-15-9s6.7-9,15-9s15,4,15,9S-706.7-297-715-297z M-715-314c-7.7,0-14,3.6-14,8
				s6.3,8,14,8s14-3.6,14-8S-707.3-314-715-314z"/>
		</g>
	</g>
</g>
</svg>
