<svg xmlns="http://www.w3.org/2000/svg" width="89" height="30.139" viewBox="0 0 89 30.139"><defs><style>.a{fill:#252668;fill-rule:evenodd;}</style></defs><g transform="translate(-584 -471.409)"><g transform="translate(584 471.409)"><path class="a" d="M76.947,43.7l3.488-7a1.313,1.313,0,0,1,.72,1.179,1.293,1.293,0,0,1-.181.663l-3,5,1.014-.157a1.084,1.084,0,0,1,.161-.012A1.027,1.027,0,0,1,80.173,44.4H83l-.254-.32h-.517l-.114-.156h1.5a.981.981,0,0,0,.784.477c-.016.053-.031.1-.048.157H78l2.628,2.017a1.225,1.225,0,0,1,.475.975,1.243,1.243,0,0,1-.359.879L76.8,44.561H72.442c-.017-.052-.033-.1-.049-.157l4.554-.7" transform="translate(-39.003 -27.557)"/><path class="a" d="M33.134,31.938a6.26,6.26,0,1,1,6.26,6.259A6.259,6.259,0,0,1,33.134,31.938ZM13.618,37.484H23.867a10.741,10.741,0,0,1-1.532-5.547A15.07,15.07,0,0,1,37.406,16.868H89L86.337,26.39H76.159L70.317,47H59.359L65.2,26.39H54.92a10.742,10.742,0,0,1,1.532,5.547A15.07,15.07,0,0,1,41.381,47.007H41.11L0,47,8.507,16.869H19.462L13.618,37.484" transform="translate(0 -16.868)"/></g></g></svg>