<svg xmlns="http://www.w3.org/2000/svg" width="17.196" height="17.364" viewBox="0 0 17.196 17.364"><defs><style>.a{fill:#252668;}.b{fill:#ff6a73;}</style></defs><g transform="translate(-2.48)"><path class="a" d="M8.034,262.3a1.175,1.175,0,0,1-.7-.228l-4.377-3.2a1.178,1.178,0,0,1,0-1.9l4.377-3.2a1.178,1.178,0,0,1,1.874.951v.36h8.428a2.036,2.036,0,0,1,2.034,2.034v1.619a2.036,2.036,0,0,1-2.034,2.034H16.46a.513.513,0,0,1,0-1.025h1.181a1.01,1.01,0,0,0,1.009-1.009v-1.619a1.01,1.01,0,0,0-1.009-1.009H8.7a.513.513,0,0,1-.513-.513v-.873a.153.153,0,0,0-.244-.124l-4.377,3.2a.153.153,0,0,0,0,.247l4.377,3.2a.153.153,0,0,0,.244-.124v-.873a.513.513,0,0,1,.513-.513h5.521a.513.513,0,0,1,0,1.025H9.214v.36A1.181,1.181,0,0,1,8.034,262.3Z" transform="translate(0 -244.935)"/><path class="b" d="M29.117,22.726l4.377-3.2a.666.666,0,0,0,0-1.075l-4.377-3.2a.666.666,0,0,0-1.059.537v.873H19.117A1.521,1.521,0,0,0,17.6,18.176V19.8a1.521,1.521,0,0,0,1.521,1.521h8.941v.873A.666.666,0,0,0,29.117,22.726Z" transform="translate(-14.603 -14.603)"/><path class="a" d="M14.124,8.766h0a1.182,1.182,0,0,1-1.181-1.18v-.36H4.515A2.036,2.036,0,0,1,2.481,5.193V3.574A2.036,2.036,0,0,1,4.515,1.54h8.428V1.18A1.182,1.182,0,0,1,14.124,0a1.168,1.168,0,0,1,.694.229l4.377,3.2a1.178,1.178,0,0,1,0,1.9l-4.377,3.2A1.167,1.167,0,0,1,14.124,8.766Zm-9.609-6.2A1.01,1.01,0,0,0,3.506,3.574V5.193A1.01,1.01,0,0,0,4.515,6.2h8.941a.513.513,0,0,1,.513.513v.873a.155.155,0,0,0,.156.154h0a.145.145,0,0,0,.088-.031l4.377-3.2a.153.153,0,0,0,0-.247l-4.377-3.2a.146.146,0,0,0-.088-.031.155.155,0,0,0-.156.154v.873a.513.513,0,0,1-.513.513Z" transform="translate(-0.001)"/></g></svg>