<svg version="1.1" id="Layer_1" xmlns="http://www.w3.org/2000/svg" xmlns:xlink="http://www.w3.org/1999/xlink" x="0px" y="0px"
	 width="59.6px" height="56.6px" viewBox="0 0 59.6 56.6" style="enable-background:new 0 0 59.6 56.6;" xml:space="preserve">
<style type="text/css">
	.st0{fill:#D9EBF4;}
	.st1{fill:#252668;}
	.st2{fill:#AECBFA;}
	.st3{fill:#FFFFFF;}
	.st4{fill:#FF6A73;}
</style>
<g id="Group_21972" transform="translate(-2.206 -5.111)">
	<g id="Group_21970">
		<g id="Group_21963">
			<g id="Group_21962">
				<g id="Path_6225">
					<path class="st0" d="M45.4,13.8c0,0.4,0.3,0.7,0.7,0.7c0.4,0,0.7-0.3,0.7-0.7c0-0.4-0.3-0.7-0.7-0.7c0,0,0,0,0,0
						C45.7,13.1,45.4,13.4,45.4,13.8z"/>
				</g>
				<g id="Path_6226">
					<path class="st0" d="M49.2,15.3c0,0.2,0.2,0.4,0.4,0.4c0.2,0,0.4-0.2,0.4-0.4s-0.2-0.4-0.4-0.4l0,0
						C49.4,14.8,49.2,15,49.2,15.3z"/>
				</g>
				<g id="Path_6227">
					<path class="st0" d="M48.1,12.3c0,0.2,0.2,0.4,0.4,0.4c0.2,0,0.4-0.2,0.4-0.4c0-0.2-0.2-0.4-0.4-0.4c0,0,0,0,0,0
						C48.3,11.9,48.1,12.1,48.1,12.3z"/>
				</g>
			</g>
		</g>
		<g id="Group_21969">
			<g id="Group_21964">
				<g id="Line_697">
					<path class="st1" d="M61,61.7H3c-0.4,0-0.8-0.3-0.8-0.8s0.3-0.8,0.8-0.8h58c0.4,0,0.8,0.3,0.8,0.8S61.4,61.7,61,61.7z"/>
				</g>
			</g>
			<g id="Group_21968" transform="translate(0 6)">
				<g id="Group_21967">
					<g id="Ellipse_351">
						<circle class="st2" cx="32" cy="23.2" r="20.2"/>
					</g>
					<g id="Path_6234">
						<path class="st2" d="M49.8,22.4c-6.2,0-11.2,5-11.2,11.2v11.2h11.2c6.2,0,11.2-5,11.2-11.2S56,22.4,49.8,22.4
							C49.8,22.4,49.8,22.4,49.8,22.4z"/>
					</g>
					<g id="Path_6237">
						<path class="st1" d="M61,34.4c-0.4,0-0.8-0.3-0.8-0.7c0-5.8-4.7-10.5-10.5-10.5c0,0,0,0,0,0c-1.3,0-2.5,0.2-3.7,0.7
							c-0.4,0.1-0.8-0.1-1-0.4c-0.1-0.4,0.1-0.8,0.4-1c1.4-0.5,2.8-0.8,4.2-0.8c0,0,0,0,0,0c6.6,0,12,5.4,12,12
							C61.8,34.1,61.4,34.4,61,34.4C61,34.4,61,34.4,61,34.4z"/>
					</g>
					<g id="Path_6238">
						<path class="st2" d="M30.2,27.5c-1.9-7.4-9.4-11.9-16.8-10s-11.9,9.4-10,16.8c1.6,6.1,7.1,10.4,13.4,10.4h27.1
							c3.3,0,5.9-2.6,5.9-5.9l0,0c0-4.4-7.1-1.3-11.5-1.3l-3.9-6.6C32.4,30.9,30.7,29.5,30.2,27.5z"/>
					</g>
					<g id="Path_6242">
						<path class="st3" d="M5.3,32.1c0.3-7.2,6.1-12.9,13.3-13.3c2.1-0.1,4.3,0.3,6.2,1.2c0.2,0,0.4,0.1,0.5,0.1c-2.6-2-5.8-3-9-2.9
							C9.1,17.6,3.3,23.3,3,30.5c-0.2,5.2,2.5,10.1,7.1,12.6C6.9,40.4,5.1,36.3,5.3,32.1z"/>
					</g>
					<g id="Path_6244">
						<path class="st1" d="M16.8,45.6c-0.2,0-0.4,0-0.6,0c-8-0.3-14.3-7.1-14-15.1c0.3-5.9,4.2-11.1,9.7-13.2
							C14.5,8.6,22.5,2.5,31.5,2.3C37.1,2.1,42.4,4.2,46.4,8c3.9,3.7,6.2,8.7,6.4,14c5.2,1.4,8.9,6.1,8.9,11.5
							c0,3.2-1.2,6.2-3.5,8.5s-5.3,3.5-8.5,3.5H16.8z M32,3.8c-0.2,0-0.3,0-0.5,0C23,4,15.5,9.9,13.3,18.1c-0.1,0.2-0.2,0.4-0.5,0.5
							C7.6,20.3,4,25.1,3.7,30.5c-0.3,7.2,5.4,13.3,12.6,13.6c0.2,0,0.3,0,0.5,0h33c2.8,0,5.4-1.1,7.4-3.1c2-2,3.1-4.6,3.1-7.4
							c0-4.9-3.5-9.2-8.3-10.2c-0.4-0.1-0.6-0.4-0.6-0.8c-0.1-5.2-2.3-10-6-13.5C41.8,5.6,37,3.8,32,3.8z"/>
					</g>
				</g>
				<g id="Path_6245">
					<path class="st1" d="M3,31.2C3,31.2,3,31.2,3,31.2c-0.5,0-0.8-0.4-0.7-0.8c0.3-6,4.3-11.4,10.1-13.3c1.3-0.4,2.6-0.7,3.9-0.7
						c3.9-0.2,7.8,1.3,10.7,4.1c0.3,0.3,0.3,0.8,0,1.1c-0.3,0.3-0.8,0.3-1.1,0c-2.5-2.5-6-3.8-9.6-3.6c-1.2,0-2.4,0.3-3.5,0.6
						C7.6,20.3,4,25.1,3.7,30.5C3.7,30.9,3.4,31.2,3,31.2z"/>
				</g>
			</g>
		</g>
	</g>
	<g id="Group_21971">
		<g id="Path_6246">
			<path class="st4" d="M44.8,41L33,29.3c-0.6-0.6-1.5-0.6-2.1,0c0,0,0,0,0,0L19.2,41c-0.6,0.6-0.6,1.5,0,2.1c0.3,0.3,0.6,0.4,1,0.4
				l0,0c0.8,0,1.5,0.7,1.5,1.5v16h20.6V45c0-0.8,0.7-1.5,1.5-1.5c0,0,0,0,0,0l0,0c0.8,0,1.5-0.7,1.5-1.5
				C45.2,41.7,45.1,41.3,44.8,41z"/>
		</g>
		<g id="Path_6250">
			<path class="st1" d="M42.3,61.7H21.7c-0.4,0-0.8-0.3-0.8-0.8V45c0-0.4-0.3-0.7-0.7-0.7c-0.6,0-1.1-0.2-1.6-0.6
				c-0.4-0.4-0.6-1-0.6-1.6c0-0.6,0.2-1.1,0.6-1.6l11.8-11.8c0.4-0.4,1-0.6,1.6-0.6h0c0.6,0,1.1,0.2,1.6,0.6l11.8,11.8l0,0
				c0.4,0.4,0.6,1,0.6,1.6c0,1.2-1,2.2-2.2,2.2c-0.2,0-0.4,0.1-0.5,0.2c-0.1,0.1-0.2,0.3-0.2,0.5v16C43.1,61.4,42.7,61.7,42.3,61.7z
				 M22.4,60.2h19.1V45c0-0.6,0.2-1.1,0.6-1.6c0.4-0.4,1-0.6,1.6-0.6c0.4,0,0.7-0.3,0.7-0.7c0-0.2-0.1-0.4-0.2-0.5L32.5,29.8
				c-0.1-0.1-0.3-0.2-0.5-0.2c0,0,0,0,0,0c-0.2,0-0.4,0.1-0.5,0.2L19.7,41.6c-0.1,0.1-0.2,0.3-0.2,0.5c0,0.2,0.1,0.4,0.2,0.5
				s0.3,0.2,0.5,0.2c1.2,0,2.2,1,2.2,2.2V60.2z"/>
		</g>
	</g>
</g>
</svg>
