<svg width="48" height="48" xmlns="http://www.w3.org/2000/svg" xml:space="preserve" version="1.1">

 <g>
  <title>Layer 1</title>
  <path fill="#555555" d="m37.00976,31.68l-10.65,-7.98l0,-1.13c2.29,-0.69 3.59,-3.1 2.91,-5.39c-0.69,-2.29 -3.1,-3.59 -5.39,-2.91c-1.84,0.55 -3.09,2.24 -3.09,4.16l2.48,0c0,-1.03 0.83,-1.86 1.86,-1.86s1.86,0.83 1.86,1.86s-0.83,1.86 -1.86,1.86c-0.01,0 -0.02,0 -0.04,0c-0.67,0 -1.2,0.55 -1.2,1.22c0,0 0,0.01 0,0.01l0,2.18l-10.64,7.98c-0.55,0.41 -0.66,1.19 -0.25,1.73c0.23,0.31 0.6,0.5 0.99,0.5l22.28,0c0.68,0 1.24,-0.55 1.24,-1.24c-0.01,-0.39 -0.19,-0.76 -0.5,-0.99zm-19.32,-0.25l7.43,-5.57l7.43,5.57l-14.86,0z" class="st1" id="Path_10741"/>
 </g>
</svg>