<svg xmlns="http://www.w3.org/2000/svg" width="83.97" height="48" viewBox="0 0 83.97 48">
  <g id="Group_47389" data-name="Group 47389" transform="translate(0.53 0.541)">
    <rect id="Rectangle_27138" data-name="Rectangle 27138" width="83.97" height="48" rx="10" transform="translate(-0.53 -0.541)" fill="#dbdbdb"/>
    <g id="checkroom_black_24dp" transform="translate(26.47 8.459)">
      <rect id="Rectangle_27350" data-name="Rectangle 27350" width="29.714" height="29.714" fill="none"/>
      <path id="Path_11233" data-name="Path 11233" d="M26.267,21.582,15.62,13.6V12.469a4.33,4.33,0,1,0-5.571-4.135h2.476a1.857,1.857,0,1,1,1.82,1.857,1.208,1.208,0,0,0-1.2,1.226V13.6L2.5,21.582a1.238,1.238,0,0,0,.743,2.229H25.524A1.238,1.238,0,0,0,26.267,21.582ZM6.953,21.334l7.429-5.571,7.429,5.571Z" transform="translate(0.476 0.952)" fill="#555"/>
    </g>
  </g>
</svg>
