<!-- Generated by IcoMoon.io -->
<svg version="1.1" xmlns="http://www.w3.org/2000/svg" width="48" height="32" viewBox="0 0 48 32">
<title>au</title>
<path fill="#0052b4" d="M0 0h48v32h-48v-32z"></path>
<path fill="#f0f0f0" d="M20.944 16l0.075-0.087-0.078 0.087z"></path>
<path fill="#f0f0f0" d="M17.739 19.931l1.026 2.149 2.32-0.537-1.040 2.142 1.865 1.479-2.322 0.523v2.382l-1.858-1.49-1.858 1.49v-2.382l-2.322-0.523 1.865-1.479-1.040-2.142 2.32 0.537z"></path>
<path fill="#f0f0f0" d="M36.288 22.599l0.489 1.024 1.106-0.256-0.496 1.022 0.889 0.706-1.109 0.249v1.143l-0.887-0.711-0.887 0.711v-1.143l-1.109-0.249 0.889-0.706-0.496-1.022 1.106 0.256z"></path>
<path fill="#f0f0f0" d="M31.73 11.73l0.489 1.024 1.106-0.256-0.496 1.022 0.889 0.706-1.109 0.249v1.143l-0.887-0.711-0.887 0.711v-1.143l-1.109-0.249 0.889-0.706-0.496-1.022 1.106 0.256z"></path>
<path fill="#f0f0f0" d="M36.288 5.518l0.489 1.024 1.106-0.256-0.496 1.022 0.889 0.706-1.109 0.249v1.143l-0.887-0.711-0.887 0.711v-1.143l-1.109-0.249 0.889-0.706-0.496-1.022 1.106 0.256z"></path>
<path fill="#f0f0f0" d="M40.27 10.176l0.489 1.024 1.106-0.256-0.496 1.022 0.889 0.706-1.109 0.249v1.143l-0.887-0.711-0.887 0.711v-1.143l-1.109-0.249 0.889-0.706-0.496-1.022 1.106 0.256z"></path>
<path fill="#f0f0f0" d="M37.424 15.611l0.386 1.186h1.248l-1.008 0.734 0.386 1.186-1.008-0.734-1.010 0.734 0.386-1.186-1.008-0.734h1.248z"></path>
<path fill="#f0f0f0" d="M24 0v2.864l-4.235 2.352h4.235v5.566h-5.541l5.541 3.079v2.139h-2.501l-6.889-3.829v3.829h-5.218v-4.553l-8.197 4.553h-1.195v-2.864l4.235-2.352h-4.235v-5.566h5.541l-5.541-3.079v-2.139h2.501l6.889 3.829v-3.829h5.218v4.553l8.197-4.553z"></path>
<path fill="#d80027" d="M13.499 0h-2.999v6.501h-10.501v3.001h10.501v6.498h3.001v-6.501h10.498v-2.999h-10.501z"></path>
<path fill="#0052b4" d="M14.608 10.782l9.392 5.218v-1.474l-6.736-3.742z"></path>
<path fill="#f0f0f0" d="M14.608 10.782l9.392 5.218v-1.474l-6.736-3.742z"></path>
<path fill="#d80027" d="M14.608 10.782l9.392 5.218v-1.474l-6.736-3.742z"></path>
<path fill="#d80027" d="M6.736 10.782l-6.736 3.742v1.477l9.392-5.218z"></path>
<path fill="#0052b4" d="M9.392 5.216l-9.392-5.216v1.474l6.736 3.742z"></path>
<path fill="#f0f0f0" d="M9.392 5.216l-9.392-5.216v1.474l6.736 3.742z"></path>
<path fill="#d80027" d="M9.392 5.216l-9.392-5.216v1.474l6.736 3.742z"></path>
<path fill="#d80027" d="M17.264 5.216l6.736-3.742v-1.474l-9.392 5.218z"></path>
</svg>
