<!-- Generated by IcoMoon.io -->
<svg version="1.1" xmlns="http://www.w3.org/2000/svg" width="49" height="32" viewBox="0 0 49 32">
<title>gb</title>
<path fill="#41479b" d="M45.186 0h-41.527c-0.001 0-0.002 0-0.002 0-2.019 0-3.656 1.637-3.656 3.656 0 0 0 0 0 0v0 24.687c0 2.019 1.637 3.656 3.656 3.656 0.001 0 0.002 0 0.002 0h41.527c0.001 0 0.002 0 0.002 0 2.019 0 3.656-1.637 3.656-3.656 0 0 0 0 0 0v0-24.687c0-2.019-1.637-3.656-3.656-3.656-0.001 0-0.002 0-0.002 0h0z"></path>
<path fill="#f5f5f5" d="M48.793 3.052c-0.301-1.743-1.801-3.051-3.607-3.052h-0.951l-15.602 10.22v-10.22h-8.42v10.22l-15.602-10.22h-0.951c-1.806 0-3.306 1.309-3.604 3.030l-0.003 0.022 13.335 8.738h-13.386v8.42h13.386l-13.335 8.738c0.301 1.743 1.802 3.051 3.607 3.052h0.951l15.602-10.22v10.22h8.42v-10.22l15.602 10.22h0.951c1.806-0 3.306-1.309 3.604-3.030l0.003-0.022-13.334-8.738h13.386v-8.42h-13.386z"></path>
<path fill="#ff4b55" d="M26.948 0h-5.052v13.474h-21.896v5.052h21.896v13.474h5.052v-13.474h21.896v-5.052h-21.896z"></path>
<path fill="#ff4b55" d="M2.365 31.765l17.8-11.555h-3.093l-16.193 10.511c0.394 0.458 0.894 0.816 1.461 1.036l0.025 0.009z"></path>
<path fill="#ff4b55" d="M33.044 20.21h-3.093l17.24 11.192c0.481-0.323 0.872-0.741 1.154-1.231l0.009-0.018z"></path>
<path fill="#ff4b55" d="M0.386 2.021l15.046 9.769h3.096l-17.051-11.069c-0.456 0.343-0.825 0.778-1.081 1.279l-0.010 0.021z"></path>
<path fill="#ff4b55" d="M31.726 11.79l16.221-10.529c-0.397-0.458-0.899-0.813-1.47-1.029l-0.025-0.008-17.819 11.567z"></path>
</svg>
