<!-- Generated by IcoMoon.io -->
<svg version="1.1" xmlns="http://www.w3.org/2000/svg" width="49" height="32" viewBox="0 0 49 32">
<title>li</title>
<path fill="#41479b" d="M48.844 16h-48.844v-15.158c0.001-0.465 0.379-0.842 0.844-0.842 0 0 0 0 0 0h47.158c0.465 0 0.842 0.377 0.842 0.842v0 15.158z"></path>
<path fill="#ff4b55" d="M0 16h48.844v15.158c0 0.465-0.377 0.842-0.842 0.842v0h-47.158c0 0 0 0 0 0-0.465 0-0.843-0.377-0.844-0.842v-0z"></path>
<path fill="#ffe15a" d="M15.649 9.578c-0.011-0.033-0.036-0.059-0.067-0.072l-0.001-0s-0.070-0.026-0.174-0.056c0.049-0.062 0.079-0.142 0.079-0.229 0-0.001 0-0.003-0-0.004v0c-0.002-0.072-0.024-0.139-0.061-0.194l0.001 0.001c0.118-0.064 0.196-0.187 0.198-0.328v-0c-0.080-0.068-0.13-0.168-0.13-0.28 0-0.126 0.063-0.236 0.159-0.303l0.001-0.001c-0.002-0.138-0.079-0.258-0.191-0.322l-0.002-0.001c0.059-0.066 0.096-0.153 0.098-0.249v-0c-0.001-0.167-0.11-0.308-0.26-0.357l-0.003-0.001c0.037-0.054 0.059-0.119 0.060-0.19v-0c-0.001-0.206-0.166-0.374-0.372-0.379h-0c0.011-0.029 0.018-0.062 0.021-0.097l0-0.001c-0.001-0.21-0.172-0.379-0.381-0.379 0 0 0 0 0 0v0c-0.037 0.003-0.071 0.009-0.103 0.019l0.003-0.001v-0.023c0-0.003 0-0.006 0-0.009 0-0.206-0.167-0.372-0.372-0.372-0.075 0-0.145 0.022-0.204 0.061l0.001-0.001c-0.042-0.162-0.186-0.279-0.358-0.281h-0c-0.105 0-0.2 0.043-0.27 0.112l0-0c-0.081 0.018-0.173 0.029-0.268 0.029-0.239 0-0.463-0.067-0.654-0.183l0.006 0.003c-0.14 0.002-0.261 0.079-0.325 0.193l-0.001 0.002c-0.115 0.053-0.25 0.084-0.391 0.084-0.162 0-0.315-0.041-0.449-0.112l0.005 0.003c-0.056 0.141-0.192 0.24-0.351 0.24-0.102 0-0.195-0.041-0.263-0.107l0 0c-0.144 0.001-0.269 0.083-0.332 0.203l-0.001 0.002c-0.025-0.018-0.055-0.032-0.086-0.041l-0.002-0.001c0.080-0.115 0.128-0.258 0.128-0.412 0-0.001 0-0.001 0-0.002v0c-0.002-0.297-0.176-0.552-0.428-0.67l-0.005-0.002 0.107-0.214c0.008-0.015 0.012-0.033 0.012-0.052s-0.005-0.037-0.012-0.053l0 0.001-0.128-0.256 0.026-0.028 0.258 0.128c0.015 0.008 0.032 0.014 0.051 0.014h0c0 0 0 0 0.001 0 0.019 0 0.038-0.005 0.053-0.014l-0.001 0 0.626-0.312c0.038-0.020 0.063-0.059 0.063-0.103 0-0.001 0-0.001 0-0.001v0c0-0.001 0-0.002 0-0.003 0-0.044-0.025-0.083-0.062-0.102l-0.001-0-0.626-0.314c-0.015-0.008-0.033-0.012-0.052-0.012s-0.037 0.005-0.053 0.012l0.001-0-0.258 0.128-0.026-0.026 0.128-0.258c0.008-0.015 0.012-0.033 0.012-0.052s-0.005-0.037-0.012-0.053l0 0.001-0.312-0.626c-0.022-0.036-0.061-0.060-0.106-0.060s-0.084 0.024-0.106 0.059l-0 0.001-0.312 0.626c-0.008 0.015-0.012 0.033-0.012 0.052s0.005 0.037 0.012 0.053l-0-0.001 0.128 0.258-0.026 0.026-0.258-0.128c-0.015-0.008-0.033-0.012-0.052-0.012s-0.037 0.005-0.053 0.012l0.001-0-0.626 0.314c-0.039 0.019-0.065 0.059-0.065 0.104 0 0 0 0 0 0v0c0 0.046 0.027 0.085 0.064 0.104l0.001 0 0.626 0.312c0.015 0.009 0.033 0.014 0.053 0.014 0 0 0 0 0.001 0h-0c0.019-0 0.036-0.005 0.052-0.014l-0.001 0 0.256-0.128 0.028 0.028-0.128 0.256c-0.008 0.015-0.012 0.033-0.012 0.052s0.005 0.037 0.012 0.053l-0-0.001 0.107 0.214c-0.257 0.119-0.432 0.375-0.432 0.671 0 0.152 0.046 0.293 0.125 0.411l-0.002-0.003c-0.048 0.009-0.091 0.026-0.129 0.050l0.001-0.001c-0.062-0.122-0.187-0.204-0.33-0.205h-0c-0.103 0.001-0.196 0.041-0.265 0.107l0-0c-0.344-0.031-0.653-0.156-0.909-0.348l0.005 0.003c-0.112 0.002-0.212 0.052-0.281 0.13l-0 0c-0.064-0.115-0.185-0.192-0.323-0.193h-0c-0 0-0 0-0 0-0.109 0-0.208 0.046-0.276 0.121l-0 0c-0.066-0.104-0.179-0.172-0.309-0.174h-0c-0.064 0.121-0.189 0.203-0.333 0.203-0.105 0-0.199-0.043-0.267-0.112l-0-0c-0.173 0.002-0.317 0.12-0.36 0.279l-0.001 0.003c-0.055-0.036-0.121-0.058-0.192-0.060h-0.001c-0.21 0.001-0.38 0.171-0.381 0.381v0.023c-0.029-0.009-0.063-0.016-0.099-0.019l-0.001-0c-0.209 0-0.379 0.17-0.379 0.379v0c0.003 0.036 0.009 0.069 0.019 0.101l-0.001-0.003c-0.161 0.355-0.353 0.661-0.58 0.937l0.006-0.007c0.062 0.065 0.099 0.153 0.099 0.25 0 0.138-0.077 0.259-0.191 0.321l-0.002 0.001c0.096 0.067 0.159 0.178 0.159 0.303 0 0.113-0.051 0.213-0.13 0.281l-0.001 0c0.002 0.141 0.082 0.264 0.198 0.327l0.002 0.001c-0.036 0.055-0.058 0.121-0.060 0.193v0.001c0.002 0.089 0.034 0.17 0.087 0.233l-0.001-0.001c-0.086 0.023-0.137 0.044-0.14 0.044-0.032 0.013-0.057 0.039-0.067 0.071l-0 0.001c-0.007 0.014-0.011 0.031-0.011 0.049s0.004 0.034 0.011 0.050l-0-0.001c0.526 0.889 0.951 1.919 1.221 3.010l0.017 0.079c0.008 0.036 0.034 0.065 0.067 0.079l0.001 0c1.423 0.358 3.056 0.563 4.737 0.563s3.314-0.205 4.876-0.592l-0.139 0.029c0.034-0.014 0.059-0.043 0.067-0.078l0-0.001c0.285-1.17 0.71-2.199 1.267-3.142l-0.029 0.053c0.018-0.021 0.028-0.048 0.028-0.077 0-0.004-0-0.008-0.001-0.012l0 0.001z"></path>
<path fill="#464655" d="M15.649 9.578c-0.011-0.033-0.036-0.059-0.067-0.072l-0.001-0s-0.070-0.026-0.174-0.056c0.049-0.062 0.079-0.142 0.079-0.229 0-0.001 0-0.003-0-0.004v0c-0.002-0.072-0.024-0.139-0.061-0.194l0.001 0.001c0.118-0.064 0.196-0.187 0.198-0.328v-0c-0.080-0.068-0.13-0.168-0.13-0.28 0-0.126 0.063-0.236 0.159-0.303l0.001-0.001c-0.002-0.138-0.079-0.258-0.191-0.322l-0.002-0.001c0.059-0.066 0.096-0.153 0.098-0.249v-0c-0.001-0.167-0.11-0.308-0.26-0.357l-0.003-0.001c0.037-0.054 0.059-0.119 0.060-0.19v-0c-0.001-0.206-0.166-0.374-0.372-0.379h-0c0.011-0.029 0.018-0.062 0.021-0.097l0-0.001c-0.001-0.21-0.172-0.379-0.381-0.379 0 0 0 0 0 0v0c-0.037 0.003-0.071 0.009-0.103 0.019l0.003-0.001v-0.023c0-0.003 0-0.006 0-0.009 0-0.206-0.167-0.372-0.372-0.372-0.075 0-0.145 0.022-0.204 0.061l0.001-0.001c-0.042-0.162-0.186-0.279-0.358-0.281h-0c-0.105 0-0.2 0.043-0.27 0.112l0-0c-0.081 0.018-0.173 0.029-0.268 0.029-0.239 0-0.463-0.067-0.654-0.183l0.006 0.003c-0.14 0.002-0.261 0.079-0.325 0.193l-0.001 0.002c-0.115 0.053-0.25 0.084-0.391 0.084-0.162 0-0.315-0.041-0.449-0.112l0.005 0.003c-0.056 0.141-0.192 0.24-0.351 0.24-0.102 0-0.195-0.041-0.263-0.107l0 0c-0.144 0.001-0.269 0.083-0.332 0.203l-0.001 0.002c-0.025-0.018-0.055-0.032-0.086-0.041l-0.002-0.001c0.080-0.115 0.128-0.258 0.128-0.412 0-0.001 0-0.001 0-0.002v0c-0.002-0.297-0.176-0.552-0.428-0.67l-0.005-0.002 0.107-0.214c0.008-0.015 0.012-0.033 0.012-0.052s-0.005-0.037-0.012-0.053l0 0.001-0.128-0.256 0.026-0.028 0.258 0.128c0.015 0.008 0.032 0.014 0.051 0.014h0c0 0 0 0 0.001 0 0.019 0 0.038-0.005 0.053-0.014l-0.001 0 0.626-0.312c0.038-0.020 0.063-0.059 0.063-0.103 0-0.001 0-0.001 0-0.001v0c0-0.001 0-0.002 0-0.003 0-0.044-0.025-0.083-0.062-0.102l-0.001-0-0.626-0.314c-0.015-0.008-0.033-0.012-0.052-0.012s-0.037 0.005-0.053 0.012l0.001-0-0.258 0.128-0.026-0.026 0.128-0.258c0.008-0.015 0.012-0.033 0.012-0.052s-0.005-0.037-0.012-0.053l0 0.001-0.312-0.626c-0.022-0.036-0.061-0.060-0.106-0.060s-0.084 0.024-0.106 0.059l-0 0.001-0.312 0.626c-0.008 0.015-0.012 0.033-0.012 0.052s0.005 0.037 0.012 0.053l-0-0.001 0.128 0.258-0.026 0.026-0.258-0.128c-0.015-0.008-0.033-0.012-0.052-0.012s-0.037 0.005-0.053 0.012l0.001-0-0.626 0.314c-0.039 0.019-0.065 0.059-0.065 0.104 0 0 0 0 0 0v0c0 0.046 0.027 0.085 0.064 0.104l0.001 0 0.626 0.312c0.015 0.009 0.033 0.014 0.053 0.014 0 0 0 0 0.001 0h-0c0.019-0 0.036-0.005 0.052-0.014l-0.001 0 0.256-0.128 0.028 0.028-0.128 0.256c-0.008 0.015-0.012 0.033-0.012 0.052s0.005 0.037 0.012 0.053l-0-0.001 0.107 0.214c-0.257 0.119-0.432 0.375-0.432 0.671 0 0.152 0.046 0.293 0.125 0.411l-0.002-0.003c-0.048 0.009-0.091 0.026-0.129 0.050l0.001-0.001c-0.062-0.122-0.187-0.204-0.33-0.205h-0c-0.103 0.001-0.196 0.041-0.265 0.107l0-0c-0.344-0.031-0.653-0.156-0.909-0.348l0.005 0.003c-0.112 0.002-0.212 0.052-0.281 0.13l-0 0c-0.064-0.115-0.185-0.192-0.323-0.193h-0c-0 0-0 0-0 0-0.109 0-0.208 0.046-0.276 0.121l-0 0c-0.066-0.104-0.179-0.172-0.309-0.174h-0c-0.064 0.121-0.189 0.203-0.333 0.203-0.105 0-0.199-0.043-0.267-0.112l-0-0c-0.173 0.002-0.317 0.12-0.36 0.279l-0.001 0.003c-0.055-0.036-0.121-0.058-0.192-0.060h-0.001c-0.21 0.001-0.38 0.171-0.381 0.381v0.023c-0.029-0.009-0.063-0.016-0.099-0.019l-0.001-0c-0.209 0-0.379 0.17-0.379 0.379v0c0.003 0.036 0.009 0.069 0.019 0.101l-0.001-0.003c-0.161 0.355-0.353 0.661-0.58 0.937l0.006-0.007c0.062 0.065 0.099 0.153 0.099 0.25 0 0.138-0.077 0.259-0.191 0.321l-0.002 0.001c0.096 0.067 0.159 0.178 0.159 0.303 0 0.113-0.051 0.213-0.13 0.281l-0.001 0c0.002 0.141 0.082 0.264 0.198 0.327l0.002 0.001c-0.036 0.055-0.058 0.121-0.060 0.193v0.001c0.002 0.089 0.034 0.17 0.087 0.233l-0.001-0.001c-0.086 0.023-0.137 0.044-0.14 0.044-0.032 0.013-0.057 0.039-0.067 0.071l-0 0.001c-0.007 0.014-0.011 0.031-0.011 0.049s0.004 0.034 0.011 0.050l-0-0.001c0.526 0.889 0.951 1.919 1.221 3.010l0.017 0.079c0.008 0.036 0.034 0.065 0.067 0.079l0.001 0c1.423 0.358 3.056 0.563 4.737 0.563s3.314-0.205 4.876-0.592l-0.139 0.029c0.034-0.014 0.059-0.043 0.067-0.078l0-0.001c0.285-1.17 0.71-2.199 1.267-3.142l-0.029 0.053c0.018-0.021 0.028-0.048 0.028-0.077 0-0.004-0-0.008-0.001-0.012l0 0.001zM12.334 8.822v-1.833c0.098-0.010 0.211-0.016 0.326-0.016 0.037 0 0.075 0.001 0.112 0.002l-0.005-0v1.907c-0.093-0.045-0.202-0.071-0.317-0.071-0.043 0-0.086 0.004-0.127 0.011l0.004-0.001zM10.985 6.324v0h-0.016zM15.105 9.083c0.001 0 0.002-0 0.002-0 0.081 0 0.147 0.066 0.147 0.147s-0.066 0.147-0.147 0.147c-0.081 0-0.147-0.066-0.147-0.146v0c0 0 0 0 0-0 0-0.080 0.064-0.145 0.144-0.146h0zM15.244 8.85c-0.001 0-0.002 0-0.002 0-0.081 0-0.147-0.066-0.147-0.147s0.066-0.147 0.147-0.147c0.081 0 0.147 0.066 0.147 0.147 0 0.001 0 0.002-0 0.002v-0c0 0 0 0 0 0 0 0.080-0.064 0.145-0.144 0.146h-0zM15.125 8.122c0-0.081 0.066-0.147 0.147-0.147s0.147 0.066 0.147 0.147v0c0 0.081-0.066 0.147-0.147 0.147s-0.147-0.066-0.147-0.147v0zM10.767 9.576c-0.17-0.604-0.31-1.329-0.392-2.072l-0.006-0.063c0.079-0.028 0.219-0.074 0.398-0.128zM8.813 7.45c-0.094 0.842-0.244 1.6-0.45 2.334l0.024-0.101v-2.37c0.2 0.063 0.351 0.114 0.426 0.14zM9.743 6.487c0 0.081-0.066 0.147-0.147 0.147s-0.147-0.066-0.147-0.147c0-0.081 0.066-0.147 0.147-0.147v0c0 0 0 0 0 0 0.081 0 0.147 0.066 0.147 0.147 0 0.001 0 0.002-0 0.002v-0zM8.169 6.322v0zM3.88 7.976c0.081 0 0.147 0.066 0.147 0.147v0c0 0.081-0.066 0.147-0.147 0.147s-0.147-0.066-0.147-0.147c0-0.081 0.066-0.147 0.147-0.147v0zM4.056 8.706c0 0.081-0.066 0.147-0.147 0.147s-0.147-0.066-0.147-0.147c0-0.081 0.066-0.147 0.147-0.147v0c0 0 0 0 0 0 0.081 0 0.147 0.066 0.147 0.147 0 0.001 0 0.002-0 0.002v-0zM4.056 9.080c0.081 0 0.147 0.066 0.147 0.147s-0.066 0.147-0.147 0.147v0c-0.081 0-0.147-0.066-0.147-0.147s0.066-0.147 0.147-0.147v0zM4.659 7.106c0.299-0.492 0.832-0.816 1.44-0.816 0.024 0 0.049 0.001 0.073 0.002l-0.003-0c0.98 0.053 1.9 0.207 2.782 0.452l-0.091-0.022c0 0.16 0 0.323-0.019 0.486-0.5-0.174-2.491-0.812-3.338-0.233-0.42 0.379-0.682 0.925-0.682 1.532 0 0.326 0.076 0.635 0.211 0.909l-0.005-0.012c-0.135-0.035-0.29-0.058-0.451-0.063l-0.003-0c-0.151-0.304-0.24-0.663-0.24-1.042 0-0.438 0.119-0.849 0.325-1.202l-0.006 0.011zM5.319 9.52c-0.084-0.191-0.609-1.517 0.174-2.233v2.326c-0.051-0.030-0.111-0.061-0.174-0.087l-0.010-0.004zM5.729 7.122c0.125-0.064 0.271-0.109 0.424-0.127l0.006-0.001v2.093c-0.198 0.219-0.335 0.496-0.383 0.803l-0.001 0.009c-0.016-0.019-0.033-0.033-0.047-0.051v-2.719zM6.394 6.973c0.032-0.001 0.069-0.002 0.107-0.002 0.115 0 0.228 0.006 0.34 0.017l-0.014-0.001v1.833c-0.026 0-0.051 0-0.077 0-0.004-0-0.008-0-0.012-0-0.113 0-0.219 0.027-0.313 0.074l0.004-0.002-0.035 0.021v-1.931zM7.061 7.010c0.147 0.021 0.291 0.044 0.433 0.074v2.007c-0.124-0.094-0.267-0.172-0.421-0.229l-0.012-0.004zM7.729 7.134q0.233 0.056 0.433 0.112v2.475c-0.134-0.165-0.275-0.313-0.429-0.448l-0.004-0.003zM9.092 6.782c0.177 0.044 0.316 0.084 0.398 0.107v1.989c-0.3 0.035-0.56 0.18-0.745 0.392l-0.001 0.001c0.189-0.74 0.308-1.595 0.328-2.473l0-0.013zM9.725 6.889c0.079-0.023 0.212-0.060 0.381-0.105 0.029 0.89 0.153 1.736 0.362 2.549l-0.018-0.081c-0.183-0.204-0.436-0.341-0.72-0.374l-0.005-0.001v-1.989zM11.011 7.245c0.133-0.037 0.279-0.074 0.433-0.112v2.172c-0.158 0.145-0.301 0.3-0.429 0.468l-0.006 0.009zM11.676 7.085c0.144-0.028 0.288-0.053 0.433-0.074v1.861c-0.165 0.064-0.308 0.142-0.438 0.236l0.005-0.004zM13.011 6.994c0.161 0.018 0.307 0.063 0.44 0.131l-0.007-0.003v2.763c-0.051-0.334-0.205-0.626-0.428-0.849v0zM13.679 7.287c0.84 0.768 0.17 2.242 0.163 2.258v0c-0.062 0.034-0.115 0.070-0.165 0.111l0.002-0.001v-2.372zM13.679 6.978c-0.83-0.57-2.766 0.033-3.312 0.233-0.012-0.158-0.019-0.319-0.016-0.465 0.795-0.226 1.72-0.381 2.672-0.434l0.033-0.001c0.021-0.001 0.045-0.001 0.069-0.001 0.608 0 1.141 0.324 1.436 0.808l0.004 0.007c0.204 0.344 0.324 0.758 0.324 1.2 0 0.378-0.088 0.735-0.244 1.052l0.006-0.014c-0.18 0.004-0.351 0.033-0.514 0.083l0.013-0.004c0.158-0.528 0.475-1.798-0.491-2.461zM15.195 7.694c-0.081 0-0.146-0.066-0.146-0.147s0.066-0.147 0.147-0.147c0.081 0 0.147 0.066 0.147 0.147 0 0.001 0 0.002-0 0.002v-0c0 0.001 0 0.003 0 0.004 0 0.080-0.065 0.144-0.144 0.144-0.007 0-0.015-0.001-0.022-0.002l0.001 0zM15.139 6.996c-0.001 0.080-0.066 0.144-0.146 0.144 0 0 0 0-0 0v0c-0.081 0-0.146-0.066-0.146-0.147s0.066-0.147 0.147-0.147c0.081 0 0.147 0.066 0.147 0.147 0 0.001 0 0.002-0 0.002v-0zM14.788 6.52c0 0.001 0 0.002 0 0.002 0 0.081-0.066 0.147-0.147 0.147s-0.147-0.066-0.147-0.147c0-0.081 0.066-0.147 0.146-0.147v0c0.072 0.008 0.128 0.069 0.128 0.143 0 0.003-0 0.006-0 0.008l0-0zM14.167 5.989c0.081 0 0.147 0.066 0.147 0.147s-0.066 0.147-0.147 0.147c-0.081 0-0.147-0.066-0.147-0.147v0c0.004-0.071 0.058-0.128 0.127-0.137l0.001-0zM13.614 5.757c0.081 0 0.147 0.066 0.147 0.147s-0.066 0.147-0.147 0.147c-0.081 0-0.147-0.066-0.147-0.147v0c0.004-0.071 0.058-0.128 0.127-0.137l0.001-0zM13.014 5.666c0.081 0 0.146 0.066 0.146 0.147s-0.066 0.147-0.147 0.147c-0.081 0-0.147-0.066-0.147-0.147 0-0.001 0-0.002 0-0.002v0c0.009-0.066 0.062-0.117 0.127-0.126l0.001-0zM12.427 5.717c0.081 0 0.147 0.066 0.147 0.147s-0.066 0.147-0.147 0.147c-0.081 0-0.147-0.066-0.147-0.147v0c0.008-0.067 0.061-0.12 0.127-0.128l0.001-0zM11.82 5.782c0.001 0 0.002-0 0.002-0 0.081 0 0.147 0.066 0.147 0.147s-0.066 0.147-0.147 0.147c-0.081 0-0.147-0.066-0.147-0.146v0c0.008-0.066 0.060-0.119 0.125-0.128l0.001-0zM11.267 5.887c0.081 0 0.147 0.066 0.147 0.147v0c0.001 0.006 0.001 0.012 0.001 0.018 0 0.081-0.066 0.147-0.147 0.147s-0.147-0.066-0.147-0.147c0-0.006 0-0.013 0.001-0.019l-0 0.001c0.008-0.066 0.060-0.119 0.125-0.128l0.001-0zM10.653 6.019c0.081 0 0.147 0.066 0.147 0.147s-0.066 0.147-0.147 0.147c-0.081 0-0.147-0.066-0.147-0.147v0c0.008-0.067 0.061-0.12 0.127-0.128l0.001-0zM10.125 6.452c-0.081 0-0.147-0.066-0.147-0.147s0.066-0.147 0.147-0.147c0.081 0 0.147 0.066 0.147 0.147v0c0 0.004 0.001 0.008 0.001 0.013 0 0.081-0.066 0.147-0.147 0.147-0.007 0-0.013-0-0.020-0.001l0.001 0zM9.427 3.97c0-0.108 0.087-0.195 0.195-0.195s0.195 0.087 0.195 0.195c0 0.108-0.087 0.195-0.195 0.195v0c-0.008 0.001-0.017 0.002-0.026 0.002-0.102 0-0.186-0.078-0.195-0.178l-0-0.001zM10.248 3.789l0.363 0.181-0.363 0.181-0.202-0.102c0.001-0.012 0.002-0.026 0.002-0.040s-0.001-0.028-0.002-0.041l0 0.002c0.001-0.012 0.002-0.026 0.002-0.041s-0.001-0.029-0.002-0.043l0 0.002zM9.441 3.345l0.181-0.363 0.181 0.363-0.1 0.202c-0.012-0.001-0.026-0.002-0.041-0.002s-0.028 0.001-0.043 0.002l0.002-0c-0.012-0.001-0.026-0.002-0.040-0.002s-0.028 0.001-0.041 0.002l0.002-0zM8.999 4.152l-0.365-0.181 0.365-0.181 0.202 0.1c-0.001 0.012-0.002 0.026-0.002 0.041s0.001 0.029 0.002 0.043l-0-0.002c-0.001 0.012-0.002 0.026-0.002 0.040s0.001 0.028 0.002 0.041l-0-0.002zM9.441 4.596l0.102-0.205c0.024 0.006 0.052 0.009 0.080 0.009s0.056-0.003 0.083-0.010l-0.002 0 0.1 0.205-0.1 0.202c-0.028 0-0.053 0-0.081 0h-0.079zM9.622 5.024c0.28 0 0.507 0.227 0.507 0.507s-0.227 0.507-0.507 0.507c-0.279 0-0.506-0.226-0.507-0.505v-0c0.010-0.264 0.218-0.476 0.48-0.491l0.001-0zM9.073 6.161c0.081 0 0.146 0.066 0.146 0.147s-0.066 0.147-0.147 0.147c-0.081 0-0.147-0.066-0.147-0.147 0-0.001 0-0.002 0-0.002v0c0.008-0.064 0.057-0.115 0.12-0.125l0.001-0zM8.545 6.019c0.081 0 0.147 0.066 0.147 0.147s-0.066 0.147-0.147 0.147c-0.081 0-0.147-0.066-0.147-0.147v0c0.008-0.065 0.057-0.117 0.12-0.128l0.001-0zM7.929 5.887c0.081 0 0.147 0.066 0.147 0.147v0c0 0.081-0.066 0.147-0.147 0.147v0c-0.080-0.001-0.145-0.066-0.147-0.146v-0c0.008-0.066 0.060-0.119 0.125-0.128l0.001-0zM7.375 5.782c0.081 0 0.147 0.066 0.147 0.147s-0.066 0.147-0.147 0.147v0c-0.081 0-0.147-0.066-0.147-0.147v0c0.008-0.065 0.057-0.117 0.12-0.128l0.001-0zM6.771 5.717c0.081 0 0.147 0.066 0.147 0.147s-0.066 0.147-0.147 0.147c-0.081 0-0.147-0.066-0.147-0.147v0c0.008-0.065 0.057-0.117 0.12-0.128l0.001-0zM6.185 5.666c0.081 0 0.146 0.066 0.146 0.147s-0.066 0.147-0.147 0.147c-0.081 0-0.147-0.066-0.147-0.147 0-0.001 0-0.002 0-0.002v0c0.008-0.064 0.057-0.115 0.12-0.125l0.001-0zM5.585 5.757c0.081 0 0.147 0.066 0.147 0.147s-0.066 0.147-0.147 0.147c-0.081 0-0.147-0.066-0.147-0.147v0c0.003-0.069 0.054-0.125 0.12-0.137l0.001-0zM5.031 5.989c0.081 0 0.147 0.066 0.147 0.147s-0.066 0.147-0.147 0.147c-0.081 0-0.147-0.066-0.147-0.147v0c0.003-0.069 0.054-0.125 0.12-0.137l0.001-0zM4.566 6.373c0.080 0.001 0.144 0.066 0.144 0.146 0 0 0 0 0 0v0c0.001 0.006 0.001 0.012 0.001 0.018 0 0.081-0.066 0.147-0.147 0.147s-0.147-0.066-0.147-0.147c0-0.006 0-0.013 0.001-0.019l-0 0.001c0.001-0.067 0.048-0.124 0.111-0.139l0.001-0zM4.212 6.85c0.081 0 0.147 0.066 0.147 0.147s-0.066 0.147-0.147 0.147c-0.081 0-0.147-0.066-0.147-0.147v0c0.002-0.070 0.053-0.127 0.12-0.139l0.001-0zM4.010 7.399c0.081 0 0.147 0.066 0.147 0.147s-0.066 0.147-0.147 0.147c-0.081 0-0.147-0.066-0.147-0.147v0c-0-0.003-0-0.006-0-0.009 0-0.069 0.047-0.126 0.111-0.142l0.001-0zM14.23 12.613c-1.382-0.296-2.97-0.465-4.597-0.465s-3.215 0.169-4.747 0.491l0.15-0.026c-0.275-1.114-0.674-2.094-1.192-2.996l0.029 0.056c0.178-0.079 0.386-0.125 0.605-0.125 0.551 0 1.034 0.293 1.301 0.733l0.004 0.007c0.013 0.053 0.060 0.093 0.116 0.093 0.066 0 0.119-0.053 0.119-0.119 0-0.009-0.001-0.019-0.003-0.028l0 0.001s0-0.868 0.561-1.147 1.435 0.635 1.719 1.2v0c0.010 0.018 0.024 0.033 0.041 0.044l0.001 0h0.063l0.030-0.012 0.030-0.014c0.009-0.009 0.016-0.020 0.023-0.032l0-0.001 0.016-0.021 0.040-0.128c0.102-0.295 0.428-1.042 1.1-1.042 0.57 0 0.891 0.537 1.037 0.882 0.047 0.165 0.081 0.27 0.086 0.288 0.016 0.047 0.060 0.081 0.112 0.081h0.037c0.033-0.007 0.061-0.027 0.076-0.055l0-0.001c0.284-0.565 1.163-1.47 1.719-1.2 0.040 0.021 0.074 0.043 0.107 0.067l-0.002-0.002c0.030 0.026 0.051 0.047 0.088 0.074 0.224 0.272 0.362 0.623 0.367 1.006v0.001c0 0 0 0 0 0.001 0 0.055 0.038 0.101 0.090 0.113l0.001 0c0.008 0.002 0.018 0.003 0.027 0.003 0.045 0 0.085-0.026 0.105-0.063l0-0.001c0.271-0.446 0.754-0.739 1.306-0.739 0.218 0 0.426 0.046 0.614 0.129l-0.010-0.004c-0.507 0.851-0.922 1.835-1.194 2.877l-0.018 0.080z"></path>
<path fill="#464655" d="M10.060 10.043l-0.044 0.040c-0.032 0.029-0.074 0.047-0.121 0.047-0.099 0-0.179-0.080-0.179-0.179 0-0 0-0 0-0.001v0-0.021c0.001-0.007 0.002-0.015 0.002-0.023 0-0.066-0.053-0.119-0.119-0.119s-0.119 0.053-0.119 0.119c0 0.008 0.001 0.016 0.002 0.024l-0-0.001v0.021c0 0 0 0 0 0.001 0 0.099-0.080 0.179-0.179 0.179-0.047 0-0.089-0.018-0.121-0.047l0 0-0.047-0.040c-0.020-0.017-0.046-0.027-0.075-0.027-0.037 0-0.069 0.017-0.090 0.043l-0 0c-0.016 0.020-0.025 0.046-0.025 0.074 0 0.036 0.016 0.069 0.041 0.091l0 0c0.283 0.3 0.466 0.696 0.495 1.134l0 0.006v0.128c0 0.064 0.052 0.116 0.116 0.116v0c0.001 0 0.002 0 0.002 0 0.064 0 0.116-0.052 0.116-0.116 0 0 0-0 0-0v0-0.128c0.030-0.443 0.212-0.839 0.494-1.141l-0.001 0.001c0.026-0.022 0.043-0.054 0.043-0.091 0-0.065-0.053-0.117-0.117-0.117-0.028 0-0.054 0.010-0.075 0.027l0-0z"></path>
<path fill="#464655" d="M12.718 10.536h-0.042c-0.1-0.010-0.177-0.093-0.177-0.194 0-0.026 0.005-0.051 0.015-0.074l-0 0.001v-0.016c0.005-0.016 0.008-0.034 0.008-0.053 0-0.045-0.016-0.087-0.043-0.119l0 0c-0.040-0.051-0.088-0.049-0.114 0v0.019c-0.056 0.126-0.214 0.088-0.233-0.098l-0.012-0.072c0-0.077-0.056-0.133-0.105-0.109-0.044 0.034-0.072 0.087-0.072 0.147 0 0.014 0.002 0.027 0.004 0.041l-0-0.001c0.019 0.125 0.030 0.269 0.030 0.416 0 0.308-0.047 0.605-0.135 0.884l0.006-0.021-0.047 0.107c-0.023 0.053 0 0.095 0.070 0.091 0.065-0.005 0.121-0.041 0.153-0.092l0-0.001 0.040-0.093c0.084-0.193 0.437-0.619 0.726-0.595 0.047 0 0.065-0.030 0.047-0.077-0.021-0.048-0.065-0.082-0.118-0.088l-0.001-0z"></path>
<path fill="#464655" d="M14.458 10.902h-0.037c-0.091 0.016-0.17-0.126-0.116-0.247v-0.016c0.007-0.020 0.012-0.042 0.012-0.066 0-0.037-0.010-0.071-0.028-0.1l0 0.001c-0.028-0.044-0.072-0.040-0.095 0.016v0.019c-0.056 0.126-0.186 0.1-0.193-0.077v-0.070c0-0.074-0.037-0.123-0.079-0.098-0.044 0.042-0.071 0.101-0.071 0.167 0 0.007 0 0.013 0.001 0.020l-0-0.001c0.002 0.040 0.002 0.086 0.002 0.133 0 0.398-0.066 0.78-0.187 1.137l0.007-0.025-0.047 0.107c-0.023 0.053 0 0.093 0.051 0.084 0.058-0.013 0.106-0.050 0.132-0.101l0.001-0.001 0.042-0.093c0.084-0.193 0.409-0.63 0.649-0.628 0.040 0 0.058-0.035 0.044-0.079-0.010-0.043-0.045-0.075-0.088-0.081l-0.001-0z"></path>
<path fill="#464655" d="M7.352 11.29c-0.082-0.259-0.129-0.557-0.129-0.866 0-0.146 0.010-0.289 0.031-0.429l-0.002 0.016c0.003-0.012 0.004-0.025 0.004-0.039 0-0.059-0.028-0.112-0.071-0.146l-0-0c-0.049-0.023-0.093 0.033-0.105 0.109l-0.012 0.072c-0.023 0.186-0.184 0.233-0.233 0.098v-0.019c-0.026-0.056-0.074-0.058-0.114 0-0.027 0.032-0.043 0.073-0.043 0.119 0 0.019 0.003 0.037 0.008 0.055l-0-0.001v0.016c0.009 0.022 0.014 0.047 0.014 0.073 0 0.101-0.077 0.185-0.176 0.194l-0.001 0h-0.042c-0.051 0.011-0.092 0.046-0.111 0.092l-0 0.001c-0.019 0.047 0 0.077 0.047 0.077 0.288-0.021 0.642 0.402 0.726 0.595l0.042 0.093c0.031 0.053 0.087 0.089 0.151 0.093l0.001 0c0.063 0 0.093-0.037 0.070-0.091z"></path>
<path fill="#464655" d="M5.522 11.695c-0.113-0.328-0.178-0.706-0.178-1.099 0-0.051 0.001-0.102 0.003-0.153l-0 0.007c0-0.006 0.001-0.012 0.001-0.019 0-0.067-0.028-0.127-0.073-0.169l-0-0c-0.042-0.023-0.074 0.026-0.079 0.1v0.070c0 0.177-0.14 0.202-0.193 0.077v-0.019c-0.023-0.056-0.065-0.060-0.095-0.016-0.017 0.029-0.027 0.063-0.027 0.1 0 0.023 0.004 0.046 0.011 0.066l-0-0.001v0.016c0.053 0.121-0.026 0.263-0.116 0.247h-0.035c-0.043 0.008-0.076 0.040-0.086 0.081l-0 0.001c-0.014 0.044 0 0.074 0.044 0.077 0.233 0 0.565 0.437 0.649 0.63l0.042 0.093c0.026 0.052 0.074 0.090 0.131 0.102l0.001 0c0.053 0 0.074-0.030 0.051-0.086z"></path>
</svg>
