<!-- Generated by IcoMoon.io -->
<svg version="1.1" xmlns="http://www.w3.org/2000/svg" width="49" height="32" viewBox="0 0 49 32">
<title>md</title>
<path fill="#ff4b55" d="M32.563 0h15.439c0.465 0 0.842 0.377 0.842 0.842v0 30.316c0 0.465-0.377 0.842-0.842 0.842v0h-15.439z"></path>
<path fill="#ffe15a" d="M16.281 0h16.281v32.002h-16.281v-32.002z"></path>
<path fill="#41479b" d="M0.842 0h15.439v32h-15.439c-0.465 0-0.842-0.377-0.842-0.842v0-30.316c0-0.465 0.377-0.842 0.842-0.842v0z"></path>
<path fill="#ffcd5a" d="M25.497 19.431l0.418-0.341 1.909 2.342-0.418 0.341-1.909-2.342z"></path>
<path fill="#ffbe5a" d="M25.287 19.601l0.839-0.683 0.84 1.031-0.839 0.683-0.84-1.031z"></path>
<path fill="#ffcd5a" d="M21.254 21.431l1.909-2.342 0.418 0.341-1.909 2.342-0.418-0.341z"></path>
<path fill="#ffbe5a" d="M22.113 19.949l0.84-1.031 0.839 0.683-0.84 1.031-0.839-0.683z"></path>
<path fill="#ffe15a" d="M23.864 19.968l-1.351 2.703 1.891 1.351v-3.784z"></path>
<path fill="#ffcd5a" d="M24.943 19.968l1.351 2.703-1.891 1.351v-3.784z"></path>
<path fill="#ffbe5a" d="M20.619 19.968v-7.027h0.812v5.403c-0.091 0.64-0.384 1.199-0.812 1.623l-0 0z"></path>
<path fill="#ffcd5a" d="M20.080 21.319v-8.373h0.812v6.745c-0.090 0.642-0.383 1.203-0.812 1.628l-0 0z"></path>
<path fill="#ffe15a" d="M19.538 22.399v-9.457h0.809v7.836c-0.090 0.639-0.383 1.198-0.809 1.621l-0 0z"></path>
<path fill="#ff4b55" d="M21.431 13.209v5.133c0 1.351 1.958 1.163 2.973 2.163 1.014-0.991 2.973-0.812 2.973-2.163v-5.133z"></path>
<path fill="#41479b" d="M21.431 16.184v2.163c0 1.349 1.958 1.163 2.973 2.161 1.014-0.991 2.973-0.812 2.973-2.163v-2.161z"></path>
<path fill="#ffe15a" d="M24.404 19.696l-0.812-0.54v-0.27l0.27-0.27v-1.628l-0.812-0.54 0.812-1.082h0.27l0.27 0.27 0.27-0.27h0.27l0.812 1.082-0.812 0.54v1.628l0.27 0.27v0.27z"></path>
<path fill="#ffe15a" d="M23.322 13.481c-0.612 0.162-1.059 0.702-1.079 1.349l-0 0.002c0.055 0.71 0.473 1.312 1.068 1.623l0.011 0.005 0.542-0.809c-1.621-0.549-0.542-2.17-0.542-2.17z"></path>
<path fill="#ffe15a" d="M25.485 13.481c0.612 0.162 1.059 0.702 1.079 1.349l0 0.002c-0.055 0.71-0.473 1.312-1.068 1.623l-0.011 0.005-0.542-0.809c1.621-0.549 0.542-2.17 0.542-2.17z"></path>
<path fill="#ffe15a" d="M21.701 16.184l0.54 0.27 0.54-0.27-0.54-0.27z"></path>
<path fill="#ffe15a" d="M26.025 16.184l0.54 0.27 0.54-0.27-0.54-0.27z"></path>
<path fill="#ffe15a" d="M24.404 13.616l0.198 0.202h0.281v0.281l0.2 0.195-0.2 0.195v0.281h-0.281l-0.198 0.202-0.195-0.202h-0.281v-0.281l-0.202-0.195 0.202-0.195v-0.281h0.281z"></path>
<path fill="#ffe15a" d="M22.561 17.363l0.195 0.219 0.27-0.109c0.018-0.008 0.039-0.012 0.061-0.012 0.089 0 0.16 0.072 0.16 0.16 0 0.031-0.009 0.060-0.024 0.085l0-0.001-0.147 0.254 0.186 0.233c0.022 0.027 0.035 0.062 0.035 0.101 0 0.089-0.072 0.16-0.16 0.16-0.011 0-0.022-0.001-0.032-0.003l0.001 0-0.286-0.060-0.156 0.247c-0.029 0.043-0.078 0.072-0.134 0.072-0.082 0-0.15-0.061-0.159-0.141l-0-0.001-0.030-0.291-0.281-0.072c-0.069-0.019-0.118-0.081-0.118-0.155 0-0.064 0.037-0.119 0.091-0.145l0.001-0 0.267-0.116-0.019-0.291c-0.001-0.007-0.002-0.015-0.002-0.024 0-0.089 0.072-0.16 0.16-0.16 0.047 0 0.089 0.020 0.118 0.052l0 0z"></path>
<path fill="#ffe15a" d="M26.167 17.979c0.061-0.298 0.304-0.524 0.606-0.558l0.003-0c-0.097-0.054-0.212-0.086-0.335-0.086-0.385 0-0.698 0.312-0.698 0.698s0.312 0.698 0.698 0.698c0.030 0 0.059-0.002 0.087-0.005l-0.003 0c-0.222-0.12-0.37-0.351-0.37-0.616 0-0.046 0.004-0.091 0.013-0.135l-0.001 0.004z"></path>
<path fill="#ffe15a" d="M23.322 13.209l0.542-2.703-1.082-0.809 0.27-0.272h0.54c0.204-0.169 0.468-0.271 0.756-0.271 0.019 0 0.039 0 0.058 0.001l-0.003-0c0.029-0.003 0.062-0.005 0.095-0.005 0.547 0 0.991 0.444 0.991 0.991 0 0.034-0.002 0.067-0.005 0.099l0-0.004c0 0.809 0.27 2.973 0.27 2.973z"></path>
<path fill="#ffaa5a" d="M21.431 12.13c-0.597 0-1.082 0.484-1.082 1.082h2.163c0-0.597-0.484-1.082-1.082-1.082v0z"></path>
<path fill="#ffbe5a" d="M21.166 13.209h-1.628v-1.798c0-0.001 0-0.002 0-0.002 0-0.349 0.283-0.633 0.633-0.633 0 0 0 0 0 0h0.354c0.351 0 0.635 0.284 0.635 0.635v0 1.798z"></path>
<path fill="#ffbe5a" d="M28.188 19.968v-7.027h-0.812v5.403c0.091 0.64 0.384 1.199 0.812 1.623l0 0z"></path>
<path fill="#ffcd5a" d="M28.727 21.319v-8.373h-0.816v6.745c0.091 0.642 0.386 1.203 0.816 1.628l0 0z"></path>
<path fill="#ffe15a" d="M29.267 22.399v-9.457h-0.809v7.836c0.090 0.639 0.383 1.198 0.809 1.621l0 0z"></path>
<path fill="#ffaa5a" d="M27.376 12.13c0.597 0 1.082 0.484 1.082 1.082h-2.163c0-0.597 0.484-1.082 1.082-1.082v0z"></path>
<path fill="#ffbe5a" d="M27.646 13.209h1.628v-1.798c0 0 0 0 0 0 0-0.35-0.283-0.634-0.633-0.635h-0.354c-0.351 0-0.635 0.284-0.635 0.635v0 1.798z"></path>
<path fill="#ffaa5a" d="M26.646 22.294l3.784-6.214 0.346 0.21-3.784 6.214-0.346-0.21z"></path>
<path fill="#ffe15a" d="M26.816 21.617l0.675-0.845 0.66 0.527-0.675 0.845-0.66-0.527z"></path>
<path fill="#ffcd5a" d="M29.5 17.34l0.81-1.331 0.576 0.351-0.81 1.331-0.576-0.351z"></path>
<path fill="#73af00" d="M18.305 16.533l0.227-0.146 3.815 5.902-0.227 0.146-3.815-5.902z"></path>
<path fill="#73af00" d="M20.933 19.184c-0.101 0.127-0.166 0.288-0.177 0.463l-0 0.002c-0.142 0.169-0.353 0.275-0.59 0.275-0.106 0-0.207-0.021-0.299-0.060l0.005 0.002c0.069 0.246 0.232 0.445 0.446 0.561l0.005 0.002c0.144 0.095 0.32 0.152 0.51 0.152 0.071 0 0.14-0.008 0.206-0.023l-0.006 0.001 0.056-0.037c0.113-0.163 0.181-0.364 0.181-0.582 0-0.301-0.13-0.572-0.336-0.759l-0.001-0.001z"></path>
<path fill="#ff4b55" d="M21.329 20.545c0 0.149-0.121 0.27-0.27 0.27s-0.27-0.121-0.27-0.27c0-0.149 0.121-0.27 0.27-0.27s0.27 0.121 0.27 0.27z"></path>
<path fill="#73af00" d="M19.905 17.596c-0.102 0.127-0.168 0.288-0.177 0.463l-0 0.002c-0.142 0.169-0.353 0.275-0.59 0.275-0.106 0-0.207-0.021-0.299-0.060l0.005 0.002c0.069 0.245 0.231 0.444 0.444 0.56l0.005 0.002c0.144 0.095 0.32 0.152 0.51 0.152 0.071 0 0.141-0.008 0.208-0.023l-0.006 0.001 0.056-0.037c0.112-0.163 0.179-0.364 0.179-0.581 0-0.301-0.129-0.572-0.334-0.76l-0.001-0.001z"></path>
<path fill="#ff4b55" d="M20.303 18.956c0 0.149-0.121 0.27-0.27 0.27s-0.27-0.121-0.27-0.27c0-0.149 0.121-0.27 0.27-0.27s0.27 0.121 0.27 0.27z"></path>
<path fill="#73af00" d="M18.877 16c-0.101 0.128-0.166 0.288-0.177 0.463l-0 0.002c-0.142 0.169-0.353 0.275-0.59 0.275-0.106 0-0.207-0.021-0.299-0.060l0.005 0.002c0.069 0.246 0.232 0.445 0.446 0.561l0.005 0.002c0.143 0.094 0.318 0.15 0.507 0.15 0.068 0 0.134-0.007 0.197-0.021l-0.006 0.001 0.056-0.037c0.113-0.163 0.181-0.364 0.181-0.582 0-0.301-0.13-0.572-0.336-0.759l-0.001-0.001z"></path>
<path fill="#ff4b55" d="M19.275 17.368c0 0.149-0.121 0.27-0.27 0.27s-0.27-0.121-0.27-0.27c0-0.149 0.121-0.27 0.27-0.27s0.27 0.121 0.27 0.27z"></path>
<path fill="#ffe15a" d="M20.929 21.303l0.66-0.527 0.675 0.845-0.66 0.527-0.675-0.845z"></path>
<path fill="#ffe15a" d="M22.782 8.618h0.27v1.891h-0.27v-1.891z"></path>
<path fill="#ffe15a" d="M22.51 8.887h0.812v0.27h-0.812v-0.27z"></path>
<path fill="#ff875a" d="M22.782 9.699l0.812 0.607v-0.879h-0.54z"></path>
<path fill="#ffaa5a" d="M23.052 8.618v0.27h0.27v0.27h-0.27v0.27h0.54c0.204-0.169 0.468-0.271 0.756-0.271 0.019 0 0.039 0 0.058 0.001l-0.003-0c0.029-0.003 0.062-0.005 0.095-0.005 0.547 0 0.991 0.444 0.991 0.991 0 0.034-0.002 0.067-0.005 0.099l0-0.004c0 0.809 0.27 2.973 0.27 2.973h0.54c0-0.597 0.484-1.082 1.082-1.082v0c0.097 0.001 0.189 0.016 0.277 0.041l-0.007-0.002v-0.588c0-0.45 0.364-0.814 0.814-0.814s0.814 0.364 0.814 0.814v0 6.394l0.349-0.575-0.114-0.070 0.809-1.33 0.116 0.070 0.172 0.105 0.288 0.177-0.809 1.33-0.116-0.070-0.698 1.142v3.635c-0.361-0.37-0.633-0.829-0.778-1.341l-0.005-0.022c-0.108-0.136-0.212-0.288-0.303-0.448l-0.009-0.017-0.309 0.509 0.288 0.233-0.675 0.844-0.181-0.144-0.305 0.502-0.347-0.212 0.333-0.547-0.16-0.128 0.233-0.288-0.698-0.87-0.209 0.172-0.63-0.775c-0.202 0.083-0.365 0.161-0.523 0.246l0.028-0.014 1.293 2.586-1.891 1.351-1.891-1.351 1.291-2.586c-0.095-0.049-0.193-0.098-0.291-0.142l-0.563 0.698-0.209-0.172-0.698 0.87 0.233 0.288-0.233 0.184 0.314 0.484-0.233 0.147-0.3-0.465-0.219 0.174-0.675-0.844 0.305-0.244-0.163-0.249c-0.004 0-0.008 0-0.013 0-0.092 0-0.172-0.047-0.219-0.118l-0.001-0.001c-0.019-0.031-0.033-0.067-0.037-0.106l-0-0.001c-0.060-0.005-0.114-0.014-0.167-0.025l0.009 0.002c-0.1 0.177-0.204 0.329-0.319 0.471l0.005-0.006c-0.15 0.534-0.421 0.993-0.782 1.364l0.001-0.001v-3.447c-0.094-0.028-0.176-0.064-0.252-0.11l0.005 0.003c-0.219-0.118-0.381-0.317-0.447-0.556l-0.002-0.006c0.055-0.016 0.118-0.026 0.183-0.026 0.001 0 0.002 0 0.003 0h-0c0.113 0.002 0.221 0.022 0.321 0.058l-0.007-0.002c-0.033-0.078-0.055-0.169-0.063-0.264l-0-0.003-0.267-0.412c-0.003 0-0.007 0-0.010 0-0.092 0-0.174-0.047-0.222-0.118l-0.001-0.001c-0.019-0.031-0.033-0.067-0.039-0.105l-0-0.002c-0.174-0.014-0.332-0.067-0.47-0.151l0.005 0.003c-0.218-0.12-0.381-0.32-0.45-0.559l-0.002-0.007c0.056-0.016 0.121-0.026 0.187-0.026 0 0 0.001 0 0.001 0h-0c0.112 0.001 0.219 0.022 0.318 0.058l-0.007-0.002c-0.040-0.093-0.064-0.2-0.064-0.314 0-0.063 0.007-0.124 0.021-0.183l-0.001 0.005c0.033 0.149 0.164 0.259 0.321 0.259 0.181 0 0.328-0.147 0.328-0.328 0-0.060-0.016-0.117-0.045-0.165l0.001 0.002c0.186 0.157 0.31 0.383 0.33 0.639l0 0.003c0.005 0.038 0.008 0.082 0.008 0.126 0 0.132-0.024 0.258-0.068 0.374l0.002-0.007c0.034 0.020 0.061 0.046 0.081 0.078l0.001 0.001c0.022 0.038 0.036 0.084 0.036 0.133s-0.013 0.095-0.036 0.134l0.001-0.001 0.265 0.412 0.030 0.019v-6.329c0-0.45 0.364-0.814 0.814-0.814s0.814 0.364 0.814 0.814v0 0.579c0.081-0.024 0.173-0.038 0.269-0.040h0.001c0.596 0.001 1.079 0.485 1.079 1.082 0 0 0 0 0 0v0h0.812l0.54-2.703-0.809-0.607v0.607h-0.27v-1.351h-0.272v-0.27h0.272v-0.27h0.27zM27.42 20.889l0.1-0.123 0.053 0.042 0.435-0.716c-0.037-0.121-0.060-0.26-0.063-0.403l-0-0.001v-0.047c-0.298-0.354-0.495-0.803-0.539-1.296l-0.001-0.009c-0.014 0.514-0.354 0.944-0.82 1.093l-0.008 0.002 0.416 0.509-0.209 0.17 0.635 0.779zM21.473 20.889l0.144-0.114 0.1 0.123 0.635-0.779-0.209-0.17 0.344-0.423c-0.577-0.233-1.026-0.535-1.026-1.182-0.021 0.381-0.145 0.728-0.344 1.021l0.005-0.007c0.111 0.166 0.177 0.37 0.177 0.59 0 0.132-0.024 0.259-0.068 0.376l0.002-0.007c0.034 0.021 0.062 0.049 0.083 0.080l0.001 0.001c0.022 0.038 0.036 0.084 0.036 0.133s-0.013 0.095-0.036 0.134l0.001-0.001 0.147 0.233zM23.073 8.422h-0.27c-0.112 0-0.202 0.091-0.202 0.202v0 0.067h-0.067c-0.112 0-0.202 0.091-0.202 0.202v0 0.27c0 0.112 0.091 0.202 0.202 0.202v0h0.067v1.149c0 0.112 0.091 0.202 0.202 0.202v0h0.27c0.112 0 0.202-0.091 0.202-0.202v0-0.202l0.216 0.163 0.167 0.126-0.481 2.414h-0.465c-0.102-0.616-0.63-1.080-1.267-1.082h-0.068v-0.354c0-0.56-0.454-1.014-1.014-1.014s-1.014 0.454-1.014 1.014v0 4.729c-0.067-0.19-0.185-0.348-0.337-0.463l-0.002-0.002c-0.033-0.023-0.074-0.037-0.118-0.037-0.060 0-0.114 0.026-0.152 0.067l-0 0c0.001 0.009 0.002 0.020 0.002 0.030 0 0.128-0.104 0.233-0.233 0.233-0.080 0-0.15-0.040-0.192-0.102l-0.001-0.001h-0.030c-0 0-0 0-0 0-0.093 0-0.171 0.062-0.195 0.147l-0 0.001c-0.018 0.065-0.029 0.139-0.029 0.216 0 0.025 0.001 0.049 0.003 0.074l-0-0.003h-0.047c-0 0-0 0-0.001 0-0.088 0-0.172 0.014-0.252 0.039l0.006-0.002c-0.084 0.025-0.144 0.102-0.144 0.192 0 0.014 0.002 0.028 0.004 0.042l-0-0.001c0.080 0.303 0.277 0.55 0.539 0.695l0.006 0.003c0.122 0.074 0.265 0.13 0.418 0.159l0.008 0.001 0.019 0.033c0.066 0.1 0.168 0.173 0.288 0.199l0.003 0.001 0.147 0.233h-0.014c-0.088 0-0.173 0.014-0.253 0.039l0.006-0.002c-0.084 0.026-0.143 0.103-0.143 0.194 0 0.014 0.001 0.027 0.004 0.040l-0-0.001c0.081 0.303 0.279 0.55 0.541 0.695l0.006 0.003c0.041 0.025 0.089 0.050 0.139 0.071l0.008 0.003v3.305c0 0.084 0.050 0.156 0.122 0.188l0.001 0.001c0.024 0.009 0.051 0.014 0.079 0.014v0c0.055-0 0.105-0.022 0.142-0.058l-0 0c0.378-0.387 0.665-0.864 0.824-1.397l0.006-0.024c0.067-0.088 0.13-0.179 0.188-0.27 0.064 0.073 0.15 0.126 0.248 0.148l0.003 0.001v0.014l-0.16 0.128c-0.041 0.032-0.069 0.080-0.074 0.134l-0 0.001c-0.001 0.007-0.001 0.016-0.001 0.024 0 0.048 0.016 0.092 0.044 0.127l-0-0 0.677 0.844c0.033 0.041 0.080 0.068 0.134 0.074l0.001 0h0.023c0.001 0 0.002 0 0.003 0 0.047 0 0.090-0.017 0.123-0.044l-0 0 0.044-0.035 0.177 0.274c0.028 0.045 0.074 0.077 0.127 0.088l0.001 0h0.042c0.041 0 0.078-0.012 0.11-0.033l-0.001 0 0.133-0.084-0.030 0.058c-0.014 0.027-0.022 0.058-0.022 0.091 0 0.068 0.033 0.127 0.084 0.164l0.001 0 1.891 1.351c0.033 0.023 0.074 0.037 0.118 0.037 0 0 0.001 0 0.001 0h-0c0.001 0 0.002 0 0.002 0 0.044 0 0.084-0.014 0.117-0.038l-0.001 0 1.891-1.351c0.051-0.037 0.085-0.097 0.085-0.165 0-0.033-0.008-0.065-0.022-0.092l0.001 0.001-1.2-2.403 0.158-0.072 0.535 0.656c0.038 0.045 0.095 0.074 0.158 0.074h0c0 0 0.001 0 0.002 0 0.048 0 0.092-0.017 0.127-0.044l-0 0 0.053-0.044 0.465 0.586-0.128 0.16c-0.028 0.036-0.045 0.082-0.045 0.131 0 0.006 0 0.012 0.001 0.018l-0-0.001c0.007 0.055 0.036 0.102 0.076 0.135l0 0 0.021 0.019-0.233 0.393c-0.019 0.030-0.030 0.067-0.030 0.106 0 0.073 0.039 0.137 0.097 0.173l0.001 0 0.347 0.212c0.030 0.018 0.066 0.028 0.104 0.028 0 0 0.001 0 0.001 0h0.049c0.053-0.014 0.096-0.047 0.125-0.090l0-0.001 0.186-0.307c0.034 0.028 0.077 0.044 0.125 0.044 0 0 0.001 0 0.001 0h-0c0 0 0 0 0.001 0 0.064 0 0.121-0.030 0.157-0.076l0-0 0.675-0.844c0.023-0.028 0.039-0.063 0.044-0.101l0-0.001c0.181 0.474 0.443 0.879 0.773 1.217l-0.001-0.001c0.036 0.037 0.086 0.060 0.142 0.060 0.001 0 0.001 0 0.002 0h-0c0 0 0.001 0 0.002 0 0.027 0 0.053-0.006 0.076-0.017l-0.001 0c0.074-0.031 0.125-0.102 0.126-0.186v-3.58l0.565-0.93h0.042c0.073-0 0.138-0.039 0.174-0.097l0-0.001 0.809-1.333c0.018-0.030 0.029-0.066 0.029-0.104 0-0.073-0.038-0.136-0.096-0.172l-0.001-0-0.293-0.193-0.174-0.105-0.114-0.070c-0.030-0.019-0.066-0.030-0.104-0.030-0 0-0 0-0 0v0c-0 0-0.001 0-0.001 0-0.073 0-0.137 0.039-0.173 0.097l-0 0.001-0.668 1.098v-5.41c0-0.56-0.454-1.014-1.014-1.014s-1.014 0.454-1.014 1.014v0 0.34h-0.067c-0.637 0.002-1.165 0.466-1.267 1.074l-0.001 0.008h-0.174c-0.063-0.533-0.247-2.117-0.247-2.77 0.002-0.028 0.004-0.061 0.004-0.094 0-0.659-0.534-1.193-1.193-1.193-0.033 0-0.066 0.001-0.099 0.004l0.004-0c-0.010-0-0.022-0-0.034-0-0.319 0-0.614 0.101-0.855 0.273l0.004-0.003c0.007-0.020 0.011-0.043 0.012-0.067v-0.27c0 0 0 0 0 0 0-0.112-0.091-0.202-0.202-0.202-0.001 0-0.002 0-0.002 0h-0.063v-0.067c0-0.112-0.091-0.202-0.202-0.202v0zM21.347 19.366c0.051-0.093 0.098-0.181 0.137-0.27 0.178 0.219 0.403 0.393 0.659 0.509l0.011 0.005-0.177 0.219c-0.029 0.035-0.047 0.081-0.047 0.131 0 0.006 0 0.013 0.001 0.019l-0-0.001c0.007 0.055 0.034 0.103 0.074 0.137l0 0 0.051 0.042-0.361 0.442c-0.019-0.009-0.041-0.016-0.064-0.018l-0.001-0h-0.023c-0.009-0.001-0.019-0.002-0.029-0.002s-0.020 0.001-0.030 0.002l0.001-0c0.001-0.012 0.002-0.026 0.002-0.039 0-0.093-0.027-0.18-0.075-0.253l0.001 0.002-0.023-0.033c0.024-0.090 0.037-0.194 0.037-0.301 0-0.054-0.003-0.107-0.010-0.159l0.001 0.006c-0.017-0.165-0.065-0.316-0.138-0.451l0.003 0.006zM26.883 19.51c0.191-0.107 0.352-0.245 0.481-0.408l0.003-0.003c0.108 0.239 0.231 0.444 0.374 0.634l-0.006-0.009c0.004 0.127 0.021 0.249 0.049 0.366l-0.002-0.012-0.307 0.505c-0.019 0.004-0.036 0.009-0.052 0.017l0.001-0.001-0.361-0.442 0.051-0.042c0.040-0.034 0.068-0.082 0.074-0.136l0-0.001c0-0.005 0.001-0.012 0.001-0.018 0-0.050-0.018-0.096-0.048-0.131l0 0-0.258-0.319zM22.971 20.843c0 0 0.001 0 0.001 0 0.063 0 0.119-0.029 0.157-0.074l0-0 0.342-0.421-0.93 1.861v-0.014l-0.214-0.333 0.086-0.067c0.040-0.034 0.067-0.082 0.074-0.136l0-0.001c0.001-0.007 0.002-0.016 0.002-0.024 0-0.048-0.017-0.091-0.046-0.125l0 0-0.126-0.16 0.465-0.584 0.051 0.042c0.035 0.028 0.079 0.045 0.128 0.047h0zM28.148 21.031l0.044-0.072c0.040 0.058 0.081 0.114 0.123 0.172l0.012 0.049-0.030-0.030-0.149-0.119z"></path>
</svg>
