<!-- Generated by IcoMoon.io -->
<svg version="1.1" xmlns="http://www.w3.org/2000/svg" width="49" height="32" viewBox="0 0 49 32">
<title>me</title>
<path fill="#c8414b" d="M1.686 1.684h45.476v28.632h-45.476v-28.632z"></path>
<path fill="#e6b432" d="M48.002 0h-47.158c0 0 0 0 0 0-0.465 0-0.843 0.377-0.844 0.842v30.316c0.001 0.465 0.379 0.842 0.844 0.842 0 0 0 0 0 0h47.158c0.465 0 0.842-0.377 0.842-0.842v0-30.316c0-0.465-0.377-0.842-0.842-0.842v0zM47.16 30.316h-45.474v-28.632h45.474z"></path>
<path fill="#41479b" d="M32.614 21.282c0 0.708-0.574 1.282-1.282 1.282s-1.282-0.574-1.282-1.282c0-0.708 0.574-1.282 1.282-1.282s1.282 0.574 1.282 1.282z"></path>
<path fill="#e6b432" d="M33.582 13.925c-0.419 0.412-0.957 0.705-1.558 0.823l-0.019 0.003c1.677-0.684 1.503-1.986 1.503-1.986-0.407 0.575-0.948 1.030-1.578 1.325l-0.024 0.010c0.859-0.498 1.427-1.412 1.427-2.46 0-0.077-0.003-0.154-0.009-0.23l0.001 0.010c-0.278 0.679-0.705 1.248-1.242 1.687l-0.008 0.006c1.396-1.861 0.714-3.066 0.714-3.066-0.211 0.849-0.561 1.593-1.028 2.248l0.014-0.020c1.077-2.88 0.156-3.721 0.156-3.721 0.002 0.048 0.003 0.103 0.003 0.159 0 0.832-0.215 1.614-0.592 2.293l0.012-0.024c0.144-0.375 0.228-0.808 0.228-1.261 0-0.722-0.213-1.394-0.578-1.958l0.009 0.014c0 0 0 0 0 0.001 0 0.899-0.12 1.771-0.344 2.599l0.016-0.069c-0.077-0.116-0.123-0.102-0.123-0.102-0.136 0.811-0.486 1.523-0.988 2.098l0.004-0.005c-0.019-0.146-0.101-0.27-0.217-0.345l-0.002-0.001c-0.049 0.244-0.141 0.46-0.269 0.651l0.004-0.006c-0.154 0.254-0.877 0.842-0.993 1.358-0.095 0.414 0.316 0.761 0.449 0.844 0.137 0.071 0.229 0.211 0.229 0.373 0 0.033-0.004 0.064-0.011 0.095l0.001-0.003c-0.060 0.233-0.493 0.216-0.802 0.209s-0.351 0.5-0.698 0.484l-0.058 0.379-0.133 0.030c-0.567 1.059-1.084 2.3-1.483 3.592l-0.040 0.152-1.030 0.135-1.033-0.135c-0.439-1.445-0.957-2.686-1.58-3.861l0.056 0.117-0.133-0.030-0.058-0.379c-0.342 0.016-0.384-0.493-0.698-0.484s-0.742 0.033-0.8-0.209c-0.007-0.029-0.011-0.062-0.011-0.096 0-0.161 0.091-0.3 0.225-0.369l0.002-0.001c0.133-0.084 0.544-0.43 0.451-0.844-0.119-0.516-0.842-1.105-0.995-1.358-0.124-0.184-0.216-0.4-0.263-0.633l-0.002-0.011c-0.118 0.077-0.2 0.2-0.218 0.344l-0 0.002c-0.498-0.57-0.847-1.283-0.98-2.068l-0.003-0.025s-0.044-0.014-0.121 0.102c-0.21-0.759-0.33-1.63-0.33-2.53 0-0 0-0.001 0-0.001v0c-0.357 0.55-0.57 1.222-0.57 1.944 0 0.453 0.084 0.886 0.236 1.286l-0.008-0.025c-0.363-0.655-0.577-1.437-0.577-2.269 0-0.056 0.001-0.112 0.003-0.168l-0 0.008s-0.93 0.83 0.154 3.721c-0.453-0.635-0.803-1.38-1.005-2.183l-0.010-0.045s-0.698 1.2 0.714 3.066c-0.544-0.445-0.971-1.014-1.239-1.665l-0.010-0.028c-0.005 0.065-0.008 0.14-0.008 0.216 0 1.049 0.568 1.964 1.413 2.456l0.014 0.007c-0.655-0.305-1.196-0.76-1.594-1.323l-0.008-0.012s-0.174 1.303 1.503 1.986c-0.62-0.121-1.158-0.414-1.577-0.826l0 0s-0.167 1.151 2.019 1.744c-0.678-0.052-1.295-0.28-1.815-0.636l0.013 0.008s-0.023 1.135 1.844 1.361c-0.093 0.010-0.201 0.016-0.31 0.016-0.358 0-0.702-0.064-1.020-0.181l0.020 0.007s0.026 0.919 1.654 1.035c-0.101 0.008-0.218 0.013-0.336 0.013-0.256 0-0.507-0.023-0.751-0.066l0.026 0.004s0.042 0.93 1.326 0.784c0 0-0.433 0.142-0.575 0.184 0 0 0.026 0.77 1.363 0.493-0.162 0.095-0.352 0.165-0.553 0.199l-0.010 0.001s0.277 0.642 1.396 0.358l-0.233 0.251c0.183 0.107 0.403 0.17 0.637 0.17 0.345 0 0.659-0.137 0.889-0.358l-0 0-0.233 0.426c0.074 0.026 0.16 0.041 0.249 0.041 0.282 0 0.528-0.15 0.664-0.375l0.002-0.003s-0.095 0.826-1.265 0.975c0.022 0.088 0.054 0.166 0.095 0.237l-0.002-0.004s-0.074 0.142-0.751 0.261c0.076 0.116 0.174 0.211 0.289 0.282l0.004 0.002c-0.131 0.115-0.279 0.215-0.439 0.295l-0.012 0.005c0.118 0.061 0.254 0.113 0.397 0.146l0.012 0.002c-0.207 0.196-0.48 0.324-0.781 0.351l-0.005 0c-0.433 0-1.209-0.042-1.209-0.042-0.015-0.286-0.090-0.551-0.214-0.787l0.005 0.010c-0.2-0.358-0.267-0.384-0.267-0.384s0.044-0.288-0.081-0.407-0.193-0.177-0.193-0.177c0.008-0.068 0.013-0.147 0.013-0.226 0-0.253-0.047-0.495-0.134-0.718l0.005 0.014c-0.184-0.358-0.835-1.142-0.868-1.726-0.010-0.12-0.015-0.26-0.015-0.401s0.005-0.281 0.016-0.42l-0.001 0.018-0.2 0.051-0.133-0.277 0.233-0.026-0.091-0.416-0.309 0.116-0.042-0.358-0.367 0.151 0.184 0.323-0.326 0.093 0.193 0.384 0.249-0.158 0.067 0.333c-0.097 0.028-0.178 0.087-0.232 0.166l-0.001 0.001c0.226 0.152 0.407 0.355 0.528 0.594l0.004 0.009c0.193 0.516 0.135 1.684 0.409 2.035s0.493 0.593 0.493 0.593c-0.021 0.055-0.033 0.119-0.033 0.185s0.012 0.13 0.035 0.189l-0.001-0.004c0.052 0.076 0.125 0.135 0.211 0.166l0.003 0.001c-0.010 0.068-0.015 0.146-0.015 0.226 0 0.238 0.049 0.464 0.138 0.669l-0.004-0.011c0.081 0.169 0.183 0.313 0.307 0.437l-0-0s-0.698 0.433-0.207 0.93c-0.003 0.021-0.005 0.044-0.005 0.068 0 0.246 0.177 0.451 0.411 0.494l0.003 0c0.016 0.184 0.17 0.327 0.357 0.327 0.028 0 0.055-0.003 0.081-0.009l-0.002 0s0.2-0.058 0.249 0.042c0.012 0.101 0.019 0.218 0.019 0.337s-0.007 0.236-0.021 0.351l0.001-0.014c0.112-0.011 0.214-0.047 0.303-0.102l-0.003 0.002 0.367 0.184v-0.409l0.465-0.181s-0.2 0.033-0.609-0.351c0 0 0.067-0.042 0.116-0.367 0.162-0.125 0.294-0.28 0.389-0.458l0.004-0.008c0.236-0.394 0.607-0.687 1.048-0.816l0.013-0.003 0.072 0.326c0.308-0.288 0.666-0.528 1.059-0.704l0.024-0.010 0.263 0.347c0.421-0.649 0.889-1.212 1.415-1.716l0.003-0.003c-0.033 0.116 0.209 0.135-0.33 0.735-0.19 0.16-0.31 0.398-0.31 0.663 0 0.152 0.039 0.294 0.107 0.418l-0.002-0.004c-0.333 0.274-0.267 0.526-0.309 0.809s-1.151 1.019-1.151 1.019c0.138 0.211 0.373 0.349 0.641 0.349 0.037 0 0.072-0.003 0.108-0.008l-0.004 0c-0.219 0.142-0.151 0.616-0.151 0.616 0.067 0.015 0.144 0.023 0.224 0.023 0.148 0 0.29-0.030 0.418-0.084l-0.007 0.003c-0.024 0.059-0.038 0.128-0.038 0.2 0 0.116 0.036 0.223 0.098 0.311l-0.001-0.002c0.191-0.092 0.412-0.162 0.645-0.198l0.014-0.002c-0.006 0.039-0.009 0.083-0.009 0.128 0 0.262 0.11 0.498 0.285 0.665l0 0 0.291-0.316c-0.043 0.083-0.067 0.181-0.067 0.285 0 0.351 0.284 0.635 0.635 0.635s0.635-0.284 0.635-0.635c0-0.104-0.025-0.202-0.069-0.288l0.002 0.004 0.293 0.316c0.175-0.167 0.284-0.402 0.284-0.663 0-0.046-0.003-0.091-0.010-0.135l0.001 0.005c0.247 0.038 0.469 0.108 0.675 0.206l-0.015-0.006c0.060-0.086 0.096-0.194 0.096-0.309 0-0.072-0.014-0.141-0.039-0.204l0.001 0.004c0.121 0.052 0.263 0.082 0.411 0.082 0.079 0 0.157-0.009 0.231-0.025l-0.007 0.001s0.065-0.465-0.151-0.616c0.031 0.005 0.067 0.007 0.104 0.007 0.267 0 0.501-0.138 0.637-0.346l0.002-0.003s-1.109-0.735-1.163-1.019 0.026-0.535-0.309-0.809c0.067-0.12 0.107-0.263 0.107-0.415 0-0.265-0.119-0.502-0.308-0.66l-0.001-0.001c-0.54-0.6-0.298-0.619-0.33-0.735 0.529 0.507 0.997 1.070 1.396 1.682l0.022 0.037 0.263-0.347c0.417 0.186 0.774 0.426 1.084 0.716l-0.002-0.002 0.074-0.326 0.014-0.014c0.533 0.247 0.966 0.48 1.385 0.733l-0.064-0.036c0.284 0.216 0.519 0.233 1.203 0s1.956-0.593 1.768-1.019c-0.010-0.021-0.021-0.040-0.033-0.057l0.001 0.001c0.010-0.035 0.016-0.075 0.016-0.117 0-0.142-0.068-0.268-0.173-0.347l-0.001-0.001s0 0.047 0 0.107l-0.651-0.233c-0.024-0.066-0.064-0.121-0.116-0.162l-0.001-0.001c0.001 0.018 0.002 0.038 0.002 0.059s-0.001 0.042-0.002 0.062l0-0.003-0.167-0.063 0.335-0.93c-0.026-0.014-0.053-0.023-0.079-0.035 0.010-0.123 0.027-0.235 0.050-0.343l-0.003 0.018c0.080 0.025 0.15 0.062 0.211 0.108l-0.002-0.001 0.095-0.342c-0.089-0.008-0.168-0.019-0.246-0.035l0.014 0.002c0.028-0.098 0.069-0.184 0.123-0.261l-0.002 0.003-0.442-0.133c0.003 0.045 0.004 0.097 0.004 0.15s-0.002 0.105-0.005 0.157l0-0.007c-0.089-0.032-0.166-0.077-0.234-0.134l0.001 0.001-0.105 0.381c0.035 0 0.156 0.014 0.295 0.037-0.022 0.11-0.068 0.207-0.134 0.287l0.001-0.001h-0.047l-0.323 0.914-0.882-0.328c-0.033 0.053-0.064 0.115-0.090 0.18l-0.003 0.009 0.014-0.030s-0.34 0.179-0.335 0.44c-0.070 0.026-0.124 0.081-0.148 0.149l-0.001 0.002c-0.1 0.265 0.512 0.854 0.363 0.93s-0.93-0.561-1.042-0.668c0.149-0.039 0.279-0.089 0.402-0.152l-0.011 0.005c-0.172-0.085-0.32-0.185-0.454-0.302l0.002 0.002c0.119-0.073 0.217-0.168 0.291-0.28l0.002-0.003c-0.677-0.116-0.751-0.258-0.751-0.258 0.037-0.067 0.069-0.144 0.089-0.226l0.001-0.007c-1.163-0.149-1.263-0.975-1.263-0.975 0.138 0.228 0.384 0.378 0.665 0.378 0.089 0 0.174-0.015 0.254-0.043l-0.005 0.002-0.233-0.426c0.23 0.222 0.544 0.358 0.89 0.358 0.235 0 0.455-0.063 0.644-0.173l-0.006 0.003-0.233-0.251c1.119 0.284 1.396-0.358 1.396-0.358-0.212-0.035-0.402-0.105-0.573-0.204l0.008 0.004c1.34 0.277 1.365-0.493 1.365-0.493-0.142-0.042-0.577-0.184-0.577-0.184 1.286 0.158 1.328-0.784 1.328-0.784-0.218 0.040-0.469 0.062-0.725 0.062-0.118 0-0.235-0.005-0.351-0.014l0.015 0.001c1.628-0.116 1.654-1.035 1.654-1.035-0.298 0.111-0.642 0.175-1.001 0.175-0.109 0-0.218-0.006-0.324-0.018l0.013 0.001c1.861-0.233 1.844-1.361 1.844-1.361-0.508 0.348-1.124 0.576-1.79 0.627l-0.013 0.001c2.191-0.635 2.024-1.779 2.024-1.779zM31.686 22.18c-0.091-0.144 0.123-0.274 0.219-0.412l0.37 0.137c-0.126 0.142-0.498 0.426-0.588 0.274zM31.437 21.594c-0.119 0.186-0.202 0.395-0.572 0.405-0.465 0.014-0.537-0.4-0.637-0.626-0.031-0.063-0.078-0.113-0.136-0.148l-0.002-0.001c-0.002-0.020-0.003-0.042-0.003-0.065s0.001-0.046 0.003-0.068l-0 0.003z"></path>
<path fill="#e6b432" d="M24.387 12.776c-0.283-0.238-0.535-0.494-0.762-0.771l-0.008-0.010c0.119-0.049 0.219-0.119 0.302-0.207l0-0c-0.315-0.17-0.586-0.363-0.832-0.585l0.004 0.003c0.127-0.026 0.239-0.079 0.334-0.153l-0.002 0.001c-0.304-0.065-0.558-0.24-0.725-0.48l-0.003-0.004c0.235-0.064 0.405-0.275 0.405-0.526 0-0.067-0.012-0.13-0.034-0.189l0.001 0.004c-0.171 0.142-0.393 0.229-0.636 0.229-0.161 0-0.313-0.038-0.447-0.106l0.006 0.003c-0.502-0.214-1.051-0.063-1.051 0.212 0 0-1.128-0.326-0.847 0.765 0.072-0.169 0.237-0.285 0.429-0.285 0.056 0 0.109 0.010 0.158 0.028l-0.003-0.001c0.321 0.167 0.59 0.391 0.803 0.66l0.004 0.005c-0.101 0.040-0.218 0.063-0.34 0.063-0.135 0-0.264-0.028-0.38-0.079l0.006 0.002s0.188 0.721 1.033 0.358c0.214 0.147 0.352 0.391 0.352 0.666 0 0.011-0 0.022-0.001 0.033l0-0.002c0.097-0.057 0.176-0.135 0.231-0.23l0.002-0.003c0.031 0.119 0.049 0.255 0.049 0.395 0 0.192-0.033 0.376-0.094 0.547l0.004-0.011c0.117-0.018 0.221-0.059 0.313-0.118l-0.003 0.002c0.004 0.034 0.006 0.073 0.006 0.113 0 0.261-0.090 0.5-0.24 0.689l0.002-0.002s1.284 0.612 2.093-0.058c-0.168-0.192-0.305-0.415-0.402-0.659l-0.005-0.015c0.124-0.060 0.221-0.159 0.278-0.28l0.002-0.004z"></path>
<path fill="#e6b432" d="M28.113 10.197c0-0.274-0.551-0.426-1.051-0.212-0.129 0.065-0.281 0.103-0.442 0.103-0.242 0-0.464-0.086-0.637-0.23l0.002 0.001c-0.021 0.056-0.033 0.12-0.033 0.187 0 0.251 0.17 0.462 0.402 0.524l0.004 0.001c-0.171 0.244-0.426 0.419-0.723 0.482l-0.008 0.001c0.093 0.072 0.205 0.125 0.327 0.15l0.005 0.001c-0.241 0.218-0.512 0.411-0.804 0.57l-0.022 0.011c0.082 0.088 0.182 0.158 0.294 0.205l0.006 0.002c-0.234 0.288-0.487 0.544-0.761 0.774l-0.009 0.007c0.057 0.121 0.151 0.217 0.266 0.275l0.003 0.002c-0.102 0.259-0.239 0.483-0.409 0.677l0.002-0.003c0.814 0.67 2.093 0.058 2.093 0.058-0.148-0.189-0.238-0.429-0.238-0.691 0-0.038 0.002-0.076 0.006-0.114l-0 0.005c0.088 0.057 0.193 0.097 0.305 0.116l0.005 0.001c-0.056-0.16-0.089-0.345-0.089-0.537 0-0.14 0.017-0.275 0.050-0.405l-0.002 0.011c0.057 0.097 0.136 0.175 0.23 0.231l0.003 0.002c-0-0.009-0.001-0.020-0.001-0.031 0-0.276 0.138-0.519 0.349-0.665l0.003-0.002c0.844 0.363 1.033-0.358 1.033-0.358-0.11 0.049-0.239 0.077-0.374 0.077-0.122 0-0.239-0.023-0.346-0.065l0.006 0.002c0.217-0.275 0.486-0.498 0.794-0.659l0.014-0.006c0.046-0.016 0.098-0.026 0.153-0.026 0.192 0 0.356 0.116 0.427 0.281l0.001 0.003c0.293-1.084-0.833-0.758-0.833-0.758z"></path>
<path fill="#e6b432" d="M27.602 16.847c-0.070-0.24-0.111-0.516-0.111-0.801 0-0.367 0.067-0.719 0.19-1.043l-0.007 0.020 0.051-0.119-1.093-1.256-0.128 0.044c-0.282 0.097-0.606 0.152-0.943 0.152s-0.662-0.056-0.964-0.158l0.021 0.006-0.091-0.044-0.093 0.044c-0.282 0.096-0.606 0.151-0.943 0.151s-0.662-0.055-0.964-0.157l0.021 0.006-0.128-0.044-1.093 1.256 0.051 0.119c0.116 0.304 0.183 0.655 0.183 1.022 0 0.285-0.041 0.561-0.116 0.822l0.005-0.021c-0.080 0.329-0.125 0.706-0.125 1.094 0 0.366 0.041 0.722 0.117 1.064l-0.006-0.032c0.233 0.905 0.979 1.228 1.644 1.512 0.517 0.157 0.951 0.458 1.268 0.855l0.004 0.005 0.174 0.274 0.172-0.274c0.322-0.403 0.756-0.703 1.254-0.856l0.018-0.005c0.668-0.284 1.421-0.607 1.647-1.512 0.070-0.309 0.109-0.663 0.109-1.027 0-0.39-0.046-0.769-0.132-1.132l0.007 0.033zM21.801 14.986l0.751-0.861c0.587-0.004 1.282-0.007 1.977-0.007s1.39 0.003 2.084 0.008l-0.107-0.001 0.751 0.861c-0.105 0.315-0.166 0.679-0.166 1.056 0 0.313 0.042 0.617 0.12 0.906l-0.006-0.024c0.074 0.323 0.117 0.694 0.117 1.075 0 0.163-0.008 0.324-0.023 0.483l0.002-0.020h-5.538c-0.013-0.136-0.020-0.294-0.020-0.453 0-0.384 0.042-0.758 0.122-1.118l-0.006 0.034c0.072-0.262 0.113-0.563 0.113-0.874 0-0.383-0.063-0.751-0.179-1.095l0.007 0.024zM25.811 20.117c-0.246 0.465-0.726 0.776-1.279 0.776s-1.034-0.311-1.275-0.769l-0.004-0.008c-0.651-0.279-1.212-0.521-1.396-1.205h5.357c-0.188 0.677-0.751 0.919-1.396 1.198z"></path>
<path fill="#41479b" d="M21.801 14.979l0.751-0.861c0.587-0.004 1.282-0.007 1.977-0.007s1.39 0.003 2.084 0.008l-0.107-0.001 0.751 0.861c-0.105 0.315-0.166 0.679-0.166 1.056 0 0.313 0.042 0.617 0.12 0.906l-0.006-0.024c0.074 0.323 0.117 0.694 0.117 1.075 0 0.163-0.008 0.324-0.023 0.483l0.002-0.020h-5.538c-0.013-0.136-0.020-0.294-0.020-0.453 0-0.384 0.042-0.758 0.122-1.118l-0.006 0.034c0.071-0.261 0.112-0.561 0.112-0.87 0-0.382-0.062-0.749-0.178-1.091l0.007 0.024z"></path>
<path fill="#73af00" d="M21.815 18.791c0 0.028 0 0.058 0.016 0.086 0.177 0.709 0.749 0.954 1.41 1.237 0.246 0.465 0.726 0.776 1.279 0.776s1.034-0.311 1.275-0.769l0.004-0.008c0.663-0.284 1.235-0.528 1.41-1.237 0-0.028 0.012-0.058 0.019-0.086z"></path>
<path fill="#e6b432" d="M26.981 16.419c0-0.37-0.351-0.428-0.67-0.421s-0.786-0.051-0.798-0.3c0-0.153 0.254-0.17 0.421-0.114 0.098 0.030 0.698 0.14 0.9-0.27-0.014 0-0.031 0.001-0.048 0.001-0.148 0-0.291-0.016-0.43-0.047l0.013 0.002c-0.181-0.042-0.93 0.051-1.061 0.34s0.298 0.572 0.795 0.572 0.568 0.1 0.563 0.233c0 0.16-0.4 0.205-0.626 0.202-0.231-0.041-0.496-0.064-0.767-0.064-0.151 0-0.3 0.007-0.447 0.021l0.019-0.001c0-0.019-0.193-0.34-0.193-0.34s0.342-0.023 0.386-0.086-0.261-0.302-0.261-0.302 0.256-0.102 0.265-0.174-0.207-0.267-0.207-0.267c0.060-0.066 0.11-0.143 0.145-0.227l0.002-0.005c0.044-0.1-0.312-0.126-0.312-0.126 0.007-0.016 0.012-0.035 0.012-0.055 0-0.061-0.040-0.112-0.094-0.13l-0.001-0c-0.072-0.026-0.344 0.077-0.53 0.077-0.004-0-0.009-0-0.013-0-0.101 0-0.189 0.053-0.24 0.132l-0.001 0.001c-0.138 0.013-0.264 0.041-0.385 0.080l0.012-0.004c-0.044 0.040 0.014 0.288 0.014 0.288-0.1-0.023-0.183-0.086-0.232-0.17l-0.001-0.002c-0.007 0.025-0.011 0.054-0.011 0.084 0 0.177 0.14 0.322 0.315 0.33l0.001 0 0.065 0.205 0.158 0.019c0.16 0.019 0.084 0.172-0.165 0.172s-0.354 0.298-0.354 0.298c-0.174 0-0.27-0.135-0.307-0.312-0.015-0.093-0.023-0.199-0.023-0.308 0-0.138 0.013-0.273 0.039-0.403l-0.002 0.013c0.037-0.233-0.077-0.298-0.077-0.298l-0.077 0.193c0-0.003 0-0.006 0-0.009 0-0.105-0.077-0.192-0.178-0.207l-0.001-0-0.028 0.233c-0.029-0.061-0.090-0.102-0.16-0.102-0.026 0-0.051 0.006-0.074 0.016l0.001-0s0.144 0.519 0.137 0.547-0.051 0.053-0.119-0.019-0.116-0.023-0.116-0.023c0.072 0.519 0.351 0.442 0.351 0.442 0.021 0.186 0.055 0.354 0.101 0.516l-0.005-0.023c0.048 0.171 0.203 0.294 0.386 0.294 0.028 0 0.056-0.003 0.082-0.008l-0.003 0c0 0.114 0.088 0.281 0.114 0.663-0.006 0.264-0.131 0.498-0.324 0.65l-0.002 0.001c-0.006-0.001-0.014-0.001-0.022-0.001-0.148 0-0.267 0.12-0.267 0.267 0 0.014 0.001 0.028 0.003 0.042l-0-0.002h0.879c0-0.814 0.351-0.954 0.351-0.954 0.009 0 0.019 0 0.029 0 0.357 0 0.697-0.071 1.007-0.2l-0.017 0.006c-0.020 0.050-0.032 0.109-0.032 0.17 0 0.102 0.033 0.197 0.089 0.273l-0.001-0.001c0.212-0.028 0.107 0.388 0.044 0.388h-0.27c-0.077 0-0.298 0.233-0.298 0.233h0.914c0.061-0.086 0.123-0.186 0.178-0.289l0.008-0.016c0.049-0.1-0.105-0.233-0.114-0.344s0.158-0.174 0.158-0.174c0.147 0.158 0.354 0.258 0.585 0.265l0.001 0v-0.188c0.099 0.031 0.185 0.077 0.26 0.136l-0.002-0.001c0.014 0.032 0.023 0.070 0.023 0.11 0 0.14-0.103 0.256-0.237 0.276l-0.002 0c-0.254 0.033-0.272 0.214-0.272 0.214h0.698c0.116 0 0.207-0.214 0.207-0.298v-0.73c0-0.114-0.095-0.1-0.321-0.123s-0.186-0.247-0.27-0.507c0.267 0.012 0.733-0.051 0.733-0.358z"></path>
<path fill="#e6b432" d="M26.923 7.687c-0.058-0.502-0.465-1.144-1.989-1.444-0.004-0.162-0.105-0.3-0.246-0.357l-0.003-0.001v-0.281h0.251v-0.302h-0.251v-0.251h-0.3v0.251h-0.249v0.3h0.249v0.281c-0.143 0.060-0.242 0.197-0.247 0.358v0c-1.53 0.3-1.933 0.942-1.989 1.444-0.001 0.024-0.002 0.051-0.002 0.079 0 0.583 0.312 1.092 0.779 1.371l0.007 0.004v0.319h3.205v-0.319c0.474-0.284 0.785-0.795 0.785-1.379 0-0.026-0.001-0.051-0.002-0.076l0 0.004zM25.246 8.657h-0.449v-1.847c0.337 0.129 0.588 0.416 0.664 0.768l0.001 0.007c0.011 0.071 0.017 0.153 0.017 0.236 0 0.309-0.087 0.598-0.238 0.843l0.004-0.007zM23.617 7.585c0.077-0.359 0.328-0.646 0.658-0.772l0.007-0.002v1.847h-0.449c-0.151-0.238-0.24-0.529-0.24-0.84 0-0.082 0.006-0.163 0.018-0.241l-0.001 0.009zM23.245 7.078c-0.063 0.124-0.113 0.268-0.142 0.419l-0.002 0.011c-0.015 0.095-0.024 0.205-0.024 0.316 0 0.301 0.064 0.588 0.178 0.846l-0.005-0.013h-0.105c-0.283-0.2-0.465-0.526-0.465-0.895 0-0.005 0-0.010 0-0.015v0.001c0.066-0.306 0.275-0.552 0.552-0.668l0.006-0.002zM25.941 8.657h-0.105c0.108-0.244 0.172-0.528 0.172-0.827 0-0.114-0.009-0.225-0.027-0.334l0.002 0.012c-0.029-0.162-0.079-0.306-0.148-0.439l0.004 0.009c0.289 0.114 0.504 0.361 0.571 0.664l0.001 0.006c0 0.003 0 0.007 0 0.010 0 0.372-0.187 0.701-0.473 0.897l-0.004 0.002z"></path>
</svg>
