<!-- Generated by IcoMoon.io -->
<svg version="1.1" xmlns="http://www.w3.org/2000/svg" width="48" height="32" viewBox="0 0 48 32">
<title>sa</title>
<path fill="#016c36" d="M0 0h48v32h-48v-32z"></path>
<path fill="#fff" d="M10.7 9.54l0.020 0.030 0.14-0.080-0.16 0.030v0.020z"></path>
<path fill="#fff" d="M10.29 15.58l0.13 0.030s-0.060-0.010-0.13-0.030q0.15-0.070 0.15-0.070v0s0 0 0 0c0 0 0 0 0 0s0 0 0 0 0 0 0 0 0-0.010 0-0.020c0-0.010-0.020-0.030-0.030-0.060-0.030-0.050-0.070-0.11-0.12-0.16s-0.13-0.12-0.23-0.13c-0.1-0.020-0.18 0.020-0.26 0.080 0 0 0 0 0 0s-0.010 0-0.030 0c-0.020 0-0.040 0-0.050 0 0 0-0.010-0.040 0-0.11 0.040-0.23 0.040-0.56 0.020-0.81 0-0.13-0.010-0.24-0.020-0.33 0-0.040 0-0.080 0-0.1 0-0.010 0-0.020 0-0.030 0 0 0 0 0 0s0 0 0 0 0 0 0 0 0 0 0 0 0 0-0.050 0h0.050s-0.050-0.49-0.050-0.49l-0.26 0.42 0.14 0.090q-0.14-0.090-0.14-0.090v0s0 0 0 0c0 0 0 0 0 0s0 0 0 0 0 0 0 0-0.010 0.020-0.020 0.040c-0.020 0.030-0.040 0.080-0.070 0.13-0.060 0.11-0.14 0.27-0.21 0.45-0.15 0.35-0.3 0.82-0.24 1.2 0.060 0.37 0.21 0.62 0.42 0.76 0.2 0.14 0.44 0.16 0.62 0.12 0.13-0.030 0.22-0.12 0.28-0.21 0.070-0.090 0.12-0.19 0.15-0.29 0.040-0.1 0.070-0.19 0.080-0.26 0-0.030 0.020-0.060 0.020-0.080 0-0.010 0-0.020 0-0.020s0 0 0 0 0 0 0 0 0 0 0 0t0 0v0s0 0-0.020 0h0.020s0.010-0.050 0.010-0.050l-0.020-0.050-0.15 0.070zM9.79 15.22s0 0 0 0c0 0 0 0 0 0s0 0 0 0z"></path>
<path fill="#fff" d="M27.97 6.58s0.060 0.050 0.11 0.14c0.050 0.080 0.1 0.19 0.14 0.3s0.060 0.22 0.070 0.31c0 0.040 0 0.080 0 0.1 0 0.030 0 0.030 0 0.020-0.050 0.070-0.090 0.18-0.020 0.29 0.060 0.090 0.16 0.12 0.22 0.12 0.15 0 0.33-0.070 0.42-0.24 0.080-0.14 0.15-0.36 0.16-0.59 0.020-0.23-0.010-0.5-0.18-0.7-0.13-0.16-0.27-0.33-0.41-0.43-0.070-0.050-0.16-0.1-0.26-0.1-0.11 0-0.21 0.030-0.29 0.1-0.050 0.050-0.1 0.1-0.14 0.15s-0.070 0.11-0.080 0.19c0 0.090 0.030 0.16 0.080 0.21s0.11 0.090 0.17 0.12z"></path>
<path fill="#fff" d="M9.82 6c0.050 0.050 0.12 0.14 0.2 0.33 0.060 0.14 0.080 0.36 0.090 0.57 0 0.060 0 0.12 0.020 0.17 0 0.050 0.010 0.1 0.030 0.15 0 0.020 0.030 0.070 0.080 0.1 0.030 0.020 0.060 0.030 0.11 0.030 0.040 0 0.070-0.010 0.090-0.030 0.040-0.020 0.060-0.060 0.080-0.080s0.030-0.050 0.040-0.080c0.1-0.2 0.17-0.51 0.18-0.79 0-0.14 0-0.28-0.030-0.4s-0.090-0.25-0.2-0.32c-0.16-0.11-0.31-0.14-0.44-0.12s-0.23 0.090-0.28 0.16c-0.020 0.020-0.040 0.060-0.040 0.1s0 0.080 0.020 0.11c0.020 0.050 0.060 0.090 0.070 0.1z"></path>
<path fill="#fff" d="M38.73 9.19v0s0 0 0 0v0 0c-0.030-0.28-0.060-0.52-0.080-0.69-0.010-0.13-0.020-0.21-0.030-0.26 0.030 0 0.050 0 0.080 0 0.1-0.030 0.17-0.090 0.24-0.2 0.080-0.13 0.17-0.27 0.13-0.44-0.020-0.080-0.050-0.15-0.1-0.22-0.040-0.070-0.11-0.16-0.18-0.26-0.020-0.030-0.050-0.070-0.080-0.11-0.12-0.16-0.21-0.4-0.31-0.62-0.040-0.1-0.080-0.2-0.12-0.28-0.020-0.040-0.040-0.080-0.060-0.11s-0.050-0.070-0.090-0.1c-0.050-0.030-0.12-0.060-0.21-0.020-0.070 0.030-0.1 0.090-0.12 0.12-0.040 0.080-0.070 0.2-0.1 0.36-0.040 0.26-0.050 0.68-0.030 1.17 0 0 0 0.010 0 0.010-0.060-0.2-0.14-0.38-0.25-0.49-0.060-0.060-0.15-0.12-0.25-0.13-0.11-0.010-0.21 0.030-0.29 0.1-0.020 0.020-0.040 0.040-0.050 0.060 0-0.020 0-0.030-0.010-0.050-0.060-0.11-0.12-0.26-0.18-0.41v0c-0.050-0.12-0.1-0.24-0.15-0.35s-0.11-0.22-0.18-0.3c-0.070-0.080-0.17-0.17-0.31-0.16-0.14 0-0.25 0.090-0.34 0.2-0.21 0.26-0.34 0.62-0.41 0.97-0.050-0.12-0.1-0.24-0.14-0.34s-0.070-0.19-0.11-0.27c-0.030-0.070-0.070-0.15-0.12-0.2-0.060-0.060-0.13-0.1-0.22-0.11-0.080 0-0.17 0.010-0.25 0.050-0.13 0.050-0.21 0.17-0.25 0.28-0.040 0.090-0.050 0.2-0.060 0.31-0.13-0.19-0.36-0.45-0.57-0.62-0.060-0.050-0.13-0.1-0.19-0.13s-0.14-0.060-0.21-0.060c-0.090 0-0.18 0.030-0.24 0.12-0.050 0.070-0.070 0.17-0.070 0.26s0 0.19 0 0.29h0.16s-0.16 0-0.16 0v0s0 0 0 0c0 0.26 0 0.53 0.010 0.76 0.020 0.24 0.070 0.47 0.19 0.64 0.070 0.1 0.17 0.21 0.28 0.33-0.11 0.020-0.2 0.090-0.25 0.2s-0.060 0.22-0.050 0.33c0 0.090 0.010 0.17 0.020 0.24-0.12-0.080-0.24-0.14-0.34-0.16-0.070-0.020-0.12-0.030-0.16-0.030-0.020 0-0.040 0-0.050 0 0 0-0.010 0-0.010 0s0 0 0 0v0s0 0 0 0.070v-0.070h-0.050s0.050 0.16 0.050 0.16q-0.050-0.16-0.050-0.16s0 0 0 0c0 0 0 0 0 0s0 0 0 0 0 0 0 0 0 0 0 0-0.010 0-0.020 0-0.040 0.020-0.070 0.030-0.13 0.070-0.19 0.14c-0.070 0.070-0.13 0.17-0.13 0.3s0.060 0.26 0.16 0.38c0.19 0.22 0.53 0.56 0.83 0.8 0.15 0.11 0.3 0.22 0.42 0.26 0.060 0.020 0.15 0.040 0.24 0 0.11-0.050 0.14-0.16 0.14-0.24 0-0.15-0.030-0.33-0.060-0.49-0.030-0.17-0.050-0.31-0.050-0.42 0-0.050 0-0.090 0.010-0.11 0-0.010 0 0 0 0 0.050-0.020 0.1-0.030 0.16-0.030 0.030 0 0.080 0 0.12-0.020 0.050-0.010 0.11-0.040 0.15-0.1 0.050-0.060 0.060-0.13 0.060-0.2 0-0.020 0-0.040-0.010-0.060 0 0 0 0 0.010 0.010 0.050 0.050 0.1 0.090 0.15 0.13l0.1-0.13s-0.1 0.13-0.1 0.13c0.090 0.070 0.17 0.13 0.23 0.27 0.070 0.14 0.12 0.39 0.12 0.83v1.98c-0.060-0.16-0.13-0.32-0.23-0.41-0.060-0.060-0.15-0.12-0.25-0.13-0.080 0-0.15 0.020-0.22 0.060 0.060-0.050 0.12-0.090 0.16-0.13 0.15-0.17 0.29-0.34 0.38-0.5 0.090-0.15 0.15-0.35 0.050-0.53-0.080-0.15-0.24-0.14-0.33-0.13-0.1 0.020-0.2 0.060-0.28 0.1-0.090 0.050-0.17 0.1-0.22 0.14-0.030 0.020-0.050 0.040-0.070 0.050 0 0-0.020 0.010-0.020 0.010s0 0 0 0 0 0 0 0 0 0 0 0-0.020 0.010-0.030 0.020-0.060 0.040-0.1 0.070c-0.090 0.060-0.2 0.14-0.33 0.23-0.12 0.090-0.25 0.18-0.36 0.27-0.1 0.080-0.2 0.17-0.25 0.23-0.070 0.090-0.15 0.21-0.17 0.33 0 0.070 0 0.14 0.050 0.21 0.040 0.060 0.1 0.1 0.17 0.14 0.060 0.030 0.13 0.040 0.18 0.040 0.060 0 0.12-0.010 0.18-0.030 0.12-0.030 0.26-0.080 0.4-0.15 0.15-0.070 0.31-0.17 0.45-0.27-0.030 0.030-0.060 0.060-0.080 0.090-0.040 0.050-0.070 0.11-0.080 0.19 0 0.090 0.030 0.16 0.080 0.21s0.11 0.090 0.17 0.12c0 0 0.020 0.020 0.040 0.060 0.010 0.040 0.020 0.11 0.010 0.18-0.010 0.15-0.060 0.3-0.11 0.37-0.060 0.090-0.070 0.2-0.030 0.29s0.1 0.15 0.17 0.19c0.070 0.040 0.16 0.060 0.26 0.040s0.18-0.080 0.24-0.18v0s0.020-0.040 0.020-0.040v0c0.040-0.080 0.090-0.17 0.13-0.28v0.26s0 0.020 0 0.030c0 0.030-0.010 0.060-0.020 0.11-0.020 0.090-0.050 0.21-0.090 0.32-0.040 0.12-0.090 0.21-0.14 0.27-0.050 0.050-0.070 0.050-0.080 0.040-0.16-0.040-0.32-0.17-0.44-0.32-0.060-0.070-0.11-0.14-0.14-0.2-0.020-0.030-0.030-0.050-0.030-0.070s0-0.020 0-0.020c0-0.17-0.14-0.32-0.32-0.36-0.19-0.050-0.41 0.030-0.62 0.25-0.19 0.21-0.41 0.57-0.58 0.9-0.090 0.17-0.16 0.33-0.21 0.47-0.030 0.070-0.050 0.13-0.070 0.19-0.010 0.050-0.030 0.11-0.030 0.16 0 0.030 0 0.070-0.030 0.11-0.020 0.040-0.040 0.070-0.060 0.090-0.020 0.010-0.020 0.010-0.030 0 0 0-0.050-0.020-0.1-0.090-0.060-0.070-0.11-0.14-0.16-0.19v0s0 0 0 0c-0.1-0.12-0.17-0.2-0.22-0.3s-0.080-0.23-0.080-0.45c0-0.13 0-0.26 0-0.37 0-0.1 0-0.19 0-0.26 0-0.040 0-0.070 0-0.1s0-0.070-0.020-0.1c0-0.020-0.050-0.12-0.16-0.13-0.050 0-0.090 0.020-0.11 0.030s-0.040 0.030-0.050 0.040c-0.040 0.050-0.090 0.13-0.13 0.22-0.13 0.27-0.23 0.61-0.25 0.94-0.030 0.32 0 0.66 0.18 0.88 0.060 0.080 0.12 0.2 0.2 0.36 0.11 0.22 0.26 0.5 0.43 0.69 0.090 0.1 0.19 0.18 0.32 0.22 0.14 0.040 0.28 0.020 0.41-0.070 0.31-0.19 0.51-0.51 0.65-0.81s0.22-0.61 0.27-0.8c0.050-0.17 0.13-0.32 0.19-0.37 0.030-0.030 0.040-0.020 0.030-0.020 0 0 0.020 0 0.060 0.070 0.13 0.21 0.44 0.48 0.77 0.64 0.32 0.15 0.76 0.23 1.050-0.11 0.070-0.090 0.13-0.21 0.18-0.35s0.1-0.32 0.14-0.51c0.090-0.39 0.16-0.85 0.22-1.32s0.090-0.93 0.11-1.31c0-0.19 0-0.35 0-0.49 0 0 0.010 0.010 0.020 0.020 0.11 0.13 0.22 0.28 0.31 0.39 0.040 0.060 0.080 0.11 0.1 0.14 0 0 0 0 0 0 0 0.020 0 0.040 0 0.070 0 0.080-0.010 0.2-0.020 0.35-0.010 0.29-0.030 0.67-0.040 1.060-0.010 0.38-0.020 0.77 0 1.070 0 0.15 0.010 0.27 0.020 0.37 0 0.050 0.020 0.090 0.030 0.13 0 0.020 0.020 0.050 0.040 0.070 0.020 0.030 0.070 0.070 0.14 0.070 0.080 0 0.17-0.030 0.24-0.070s0.15-0.090 0.22-0.15c0.14-0.11 0.29-0.26 0.38-0.4 0.040-0.060 0.060-0.14 0.070-0.21 0-0.070 0-0.15 0-0.22 0-0.1-0.020-0.2-0.040-0.3 0.060 0.1 0.12 0.19 0.18 0.29v0s0 0 0 0c0.070 0.12 0.14 0.24 0.21 0.34 0.060 0.1 0.12 0.19 0.17 0.25 0.040 0.050 0.1 0.090 0.15 0.11 0.050 0.030 0.1 0.050 0.14 0.070 0.060 0.020 0.1 0.040 0.13 0.060s0.020 0.020 0.020 0.010c0 0 0 0.010-0.010 0.030-0.020 0.040-0.070 0.11-0.17 0.2-0.29 0.27-0.58 0.53-0.83 0.7-0.12 0.090-0.23 0.14-0.31 0.17-0.090 0.030-0.11 0.020-0.11 0.020-0.11-0.060-0.15-0.080-0.2-0.090 0 0 0 0 0.010 0 0 0 0 0 0 0-0.020-0.010-0.070-0.040-0.16-0.090s-0.16-0.080-0.23-0.1c0 0 0 0 0-0.010 0.070-0.1 0.12-0.19 0.14-0.28 0-0.050 0-0.1 0-0.15-0.020-0.050-0.050-0.090-0.090-0.12-0.070-0.050-0.16-0.070-0.22-0.070-0.070 0-0.14 0-0.21 0-0.090 0-0.17 0.010-0.24 0.050s-0.12 0.090-0.15 0.16c-0.050 0.11-0.050 0.25-0.050 0.33 0 0.060 0.010 0.11 0.040 0.16 0 0.010 0.010 0.010 0.020 0.020 0 0.020-0.020 0.040-0.040 0.080-0.090 0.17-0.18 0.35-0.19 0.51 0 0.080 0 0.18 0.060 0.26 0.070 0.090 0.17 0.12 0.27 0.12 0.11 0 0.22-0.050 0.29-0.1 0.080-0.050 0.16-0.12 0.22-0.17 0 0 0 0 0.010-0.010 0.060 0.15 0.2 0.28 0.38 0.34 0.25 0.090 0.58 0.080 0.99-0.070 0.4-0.15 0.84-0.4 1.18-0.83 0.34-0.44 0.57-1.050 0.57-1.92 0-1.18-0.27-3.45-0.43-4.78zM37.35 8.56h0.010s-0.010 0-0.010 0v0zM36.92 7.69s0.020 0.020 0.040 0.060c0.010 0.040 0.020 0.11 0.010 0.18-0.010 0.15-0.060 0.3-0.11 0.37-0.060 0.090-0.070 0.2-0.030 0.29s0.1 0.15 0.18 0.19c0.070 0.040 0.16 0.060 0.26 0.040s0.18-0.080 0.24-0.18v0s0.020-0.040 0.020-0.040v0c0.070-0.12 0.15-0.28 0.19-0.46 0.020 0.34 0.040 0.69 0.070 1.050 0.090 1.17 0.22 2.35 0.29 2.87 0.030 0.26 0.050 0.58 0.070 0.9-0.1-0.35-0.25-0.7-0.48-1.020-0.49-0.67-0.82-1.5-0.82-2.31 0-0.49-0.13-0.84-0.22-1.070-0.040-0.1-0.070-0.17-0.080-0.23 0-0.050 0-0.060 0-0.070 0.020-0.030 0.050-0.070 0.090-0.12 0.080-0.11 0.2-0.26 0.26-0.45 0 0 0-0.020 0-0.020 0.010 0 0.020 0.010 0.030 0.020zM35.56 8.53c0.070 0.24 0.13 0.51 0.17 0.77 0.020 0.11 0.040 0.21 0.050 0.31-0.1-0.12-0.21-0.25-0.3-0.4-0.11-0.19-0.19-0.4-0.19-0.61 0-0.22 0.040-0.38 0.080-0.53 0-0.010 0-0.030 0-0.040 0.050 0.080 0.12 0.25 0.18 0.49zM38.57 9.2v0 0s0 0 0 0zM38.57 9.2v0s0 0 0 0v0s0 0 0 0zM36.48 6.68v0 0zM38.57 9.2v0 0zM36.48 6.67v0s0 0 0 0v0s0 0 0 0zM34.38 13.36v0 0z"></path>
<path fill="#fff" d="M9.29 7.36l-0.030 0.16 0.16 0.020 0.020-0.16-0.15-0.020z"></path>
<path fill="#fff" d="M22.58 11.050c0.1 0.1 0.24 0.16 0.41 0.16 0.35-0.010 0.57-0.27 0.68-0.48 0.060-0.11 0.1-0.22 0.11-0.32 0-0.040 0.010-0.1 0-0.15 0-0.030-0.020-0.060-0.050-0.1-0.040-0.040-0.090-0.060-0.15-0.060s-0.16 0-0.24 0.050c-0.030 0.010-0.050 0.050-0.080 0.070-0.020-0.020-0.020-0.040-0.050-0.060-0.050-0.040-0.11-0.050-0.17-0.050-0.030 0-0.050 0.020-0.070 0.030-0.070-0.070-0.16-0.090-0.26-0.090-0.13 0-0.22 0.030-0.29 0.070-0.030 0.020-0.060 0.050-0.080 0.090 0 0.020-0.010 0.030-0.020 0.050 0 0 0 0.010 0 0.020 0 0 0 0 0 0v0s0 0 0 0c0 0 0 0 0 0s0 0.020 0 0.030c0 0.020 0 0.060 0 0.1 0 0.080 0.020 0.19 0.050 0.3s0.080 0.23 0.18 0.33z"></path>
<path fill="#fff" d="M16.79 14.080c0.060 0.090 0.16 0.12 0.22 0.12 0.15 0 0.33-0.070 0.42-0.24 0.020-0.030 0.040-0.070 0.060-0.1 0.060-0.090 0.14-0.22 0.17-0.37 0.030-0.16 0-0.33-0.14-0.5-0.13-0.16-0.27-0.33-0.41-0.43-0.070-0.050-0.16-0.1-0.26-0.1-0.11 0-0.21 0.030-0.29 0.1-0.050 0.050-0.1 0.1-0.14 0.15s-0.070 0.11-0.080 0.19c0 0.090 0.030 0.16 0.080 0.21s0.11 0.090 0.17 0.12c0.060 0.030 0.15 0.14 0.19 0.28 0.020 0.070 0.030 0.13 0.040 0.19 0 0.060-0.010 0.080-0.020 0.090-0.050 0.070-0.090 0.18-0.020 0.29zM17.36 13.77v0 0zM17.37 13.77v0s0 0 0 0v0s0 0 0 0z"></path>
<path fill="#fff" d="M14.97 15.58c0.6-0.51 1.050-1.15 1.050-1.76 0-0.15 0-0.31 0-0.45v0c0-0.44 0-0.82 0.010-1.070 0-0.030 0-0.040 0-0.060 0.11 0.060 0.27 0.1 0.47 0.030v0h0.010s0.010-0.010 0.010-0.010v0s0 0 0 0c0 0 0 0 0 0s0 0 0 0 0.010 0 0.020-0.010 0.050-0.030 0.090-0.050 0.17-0.090 0.27-0.14c0.1-0.050 0.2-0.090 0.27-0.11 0.020 0 0.030 0 0.040 0 0.030 0.040 0.080 0.1 0.14 0.14 0.15 0.1 0.36 0.13 0.63 0v0h0.020s-0.070-0.16-0.070-0.16v0l0.070 0.15c0.11-0.050 0.2-0.090 0.28-0.14 0.080-0.040 0.15-0.090 0.2-0.15 0.12-0.14 0.13-0.31 0.13-0.51 0-0.030 0-0.060 0.010-0.090 0.070 0.13 0.15 0.25 0.24 0.36 0.15 0.18 0.33 0.4 0.41 0.63 0.040 0.11 0.050 0.22 0.030 0.33s-0.080 0.22-0.21 0.34c-0.18 0.17-0.35 0.34-0.49 0.49v0s0 0 0 0l0.12 0.11s-0.12-0.11-0.12-0.11c-0.1 0.11-0.18 0.19-0.25 0.25-0.010-0.090-0.030-0.19-0.060-0.25-0.010-0.030-0.040-0.070-0.070-0.1-0.040-0.040-0.11-0.070-0.18-0.050-0.070 0.010-0.11 0.060-0.14 0.090-0.030 0.040-0.050 0.080-0.080 0.13-0.030 0.070-0.060 0.15-0.090 0.22v0s0 0 0 0v0s0 0 0 0c-0.13 0.34-0.27 0.68-0.62 0.82-0.28 0.12-0.71 0.4-1.070 0.64-0.18 0.12-0.34 0.24-0.46 0.32-0.060 0.040-0.11 0.080-0.14 0.1-0.020 0.010-0.030 0.020-0.040 0.030 0 0 0 0-0.010 0 0 0 0 0 0 0s0 0 0 0 0 0 0 0t0.1 0.13-0.11-0.12s0 0 0 0c0 0 0 0 0 0s0 0 0 0 0 0 0 0-0.010 0.010-0.020 0.020-0.050 0.050-0.080 0.080c-0.070 0.060-0.16 0.15-0.23 0.24-0.040 0.040-0.080 0.090-0.11 0.13s-0.060 0.090-0.080 0.14c-0.010 0.030-0.050 0.15 0.030 0.24 0.040 0.040 0.090 0.060 0.13 0.060s0.070 0 0.1 0c0.19-0.030 0.51-0.11 0.82-0.21 0.15-0.050 0.31-0.11 0.44-0.16 0.13-0.060 0.25-0.12 0.33-0.19 0.1-0.080 0.28-0.17 0.46-0.23 0.080-0.030 0.14-0.050 0.2-0.060 0.020 0.030 0.030 0.060 0.060 0.1 0.080 0.12 0.19 0.29 0.34 0.45 0.14 0.16 0.31 0.32 0.5 0.42 0.19 0.11 0.42 0.17 0.66 0.1 0.21-0.060 0.47-0.23 0.73-0.43s0.54-0.45 0.79-0.69c0.25-0.24 0.48-0.47 0.64-0.64 0.060-0.060 0.1-0.1 0.14-0.14 0.020 0.030 0.030 0.040 0.060 0.070 0.11 0.13 0.28 0.31 0.48 0.5 0.4 0.36 0.96 0.76 1.58 0.81 0.57 0.050 0.97-0.020 1.19-0.16 0.11-0.070 0.2-0.18 0.2-0.33 0-0.14-0.080-0.25-0.18-0.32-0.090-0.070-0.23-0.15-0.35-0.22-0.18-0.1-0.35-0.2-0.46-0.3-0.050-0.050-0.080-0.090-0.090-0.11 0-0.010 0-0.020 0-0.030 0.080-0.12 0.21-0.22 0.41-0.29 0.21-0.080 0.49-0.13 0.87-0.19 0.11-0.020 0.21-0.030 0.32-0.050v0s0 0 0 0c0 0 0 0 0 0v0c0.3-0.040 0.62-0.080 0.88-0.19 0.27-0.11 0.49-0.31 0.58-0.64 0.040-0.16 0.16-0.27 0.28-0.38 0 0.29 0 0.75-0.020 1.2 0 0.26-0.020 0.51-0.030 0.7 0 0.1-0.010 0.18-0.020 0.24 0 0.030 0 0.060 0 0.080s0 0.030 0 0.030c-0.020 0.040-0.030 0.1 0 0.17 0.020 0.070 0.080 0.11 0.13 0.13 0.080 0.030 0.18 0.020 0.24 0 0.14-0.040 0.31-0.14 0.4-0.29v0s0-0.010 0-0.010c0.12-0.21 0.32-0.53 0.32-1.020 0-0.070 0-0.17 0-0.29v0c0-0.33 0-0.82 0-1.26 0-0.22-0.020-0.43-0.030-0.61-0.010-0.11-0.030-0.21-0.050-0.29 0.11 0.2 0.23 0.43 0.36 0.68 0.2 0.38 0.4 0.77 0.57 1.080 0.080 0.16 0.16 0.29 0.22 0.4 0.030 0.050 0.060 0.1 0.080 0.13s0.040 0.070 0.070 0.090c0.020 0.030 0.060 0.060 0.12 0.070s0.12 0 0.16-0.030c0.040-0.030 0.060-0.060 0.080-0.090s0.030-0.060 0.040-0.080c0.020-0.060 0.040-0.15 0.060-0.23-0.040 0.4-0.17 0.86-0.62 1.16-0.26 0.17-0.48 0.33-0.67 0.46v0s0 0 0 0v0c-0.2 0.14-0.36 0.25-0.49 0.33s-0.22 0.12-0.27 0.14c-0.23 0.060-0.29 0.29-0.27 0.45 0.020 0.17 0.15 0.37 0.4 0.37 0.020 0 0.040 0 0.070 0v0c0.2 0 0.6 0.020 1.040-0.14 0.45-0.16 0.93-0.5 1.29-1.18 0.18-0.34 0.28-0.84 0.33-1.39 0.050-0.56 0.060-1.2 0.040-1.82-0.030-1.25-0.16-2.46-0.21-2.95v0s0 0 0 0v0c0-0.060-0.010-0.11-0.010-0.15 0-0.020 0-0.030 0-0.040s0-0.010 0 0c0-0.050-0.010-0.1-0.020-0.14-0.010-0.050-0.030-0.1-0.050-0.16v0s0 0 0 0v0s0 0 0 0c-0.040-0.15-0.090-0.32-0.12-0.48-0.030-0.17-0.030-0.29 0-0.35 0-0.010 0-0.010 0-0.020 0.020 0 0.050 0.010 0.080 0.010 0.080 0 0.15-0.050 0.2-0.1 0.070-0.080 0.18-0.21 0.21-0.39 0.030-0.19-0.030-0.39-0.2-0.62-0.1-0.12-0.17-0.29-0.25-0.47-0.030-0.080-0.070-0.15-0.1-0.22-0.030-0.060-0.070-0.13-0.13-0.19-0.050-0.050-0.14-0.11-0.26-0.080-0.1 0.020-0.17 0.1-0.22 0.17-0.090 0.12-0.16 0.29-0.21 0.46-0.050 0.18-0.090 0.39-0.12 0.6-0.050 0.41-0.050 0.86 0.020 1.17 0 0.030 0.020 0.080 0.030 0.13 0 0 0 0 0 0-0.060 0-0.16 0-0.24 0.050-0.030 0.010-0.050 0.050-0.080 0.070-0.020-0.020-0.020-0.040-0.050-0.060-0.050-0.040-0.11-0.050-0.17-0.050-0.030 0-0.050 0.020-0.070 0.030-0.070-0.070-0.16-0.090-0.26-0.090-0.13 0-0.22 0.030-0.29 0.070-0.040 0.020-0.060 0.050-0.080 0.090 0 0.020-0.010 0.030-0.020 0.050 0 0 0 0.010 0 0.020 0 0 0 0 0 0v0s0 0 0 0c0 0 0 0 0 0s0 0.020 0 0.030c0 0.020 0 0.060 0 0.1 0 0.080 0.020 0.19 0.050 0.3s0.080 0.23 0.18 0.33c0.1 0.1 0.24 0.16 0.41 0.16 0.35-0.010 0.57-0.27 0.68-0.48 0.010-0.020 0.010-0.040 0.020-0.060 0.080 0.52 0.18 1.24 0.25 1.93 0.060 0.56 0.11 1.090 0.11 1.46 0 0.060 0 0.11 0 0.16-0.040-0.060-0.090-0.13-0.13-0.22-0.1-0.18-0.21-0.39-0.32-0.62-0.15-0.31-0.32-0.65-0.51-0.96-0.22-0.36-0.55-0.91-0.79-1.41-0.12-0.25-0.22-0.49-0.27-0.69-0.030-0.1-0.040-0.18-0.040-0.25s0-0.11 0.020-0.13c0.070-0.12 0.12-0.2 0.17-0.27s0.11-0.16 0.13-0.26c0.020-0.11 0-0.22-0.050-0.35-0.080-0.24-0.21-0.4-0.33-0.55-0.1-0.12-0.19-0.23-0.27-0.38-0.1-0.21-0.27-0.39-0.43-0.47-0.070-0.040-0.19-0.080-0.31-0.020-0.12 0.070-0.15 0.2-0.15 0.3 0 0.070-0.010 0.15-0.030 0.21 0 0.010 0 0.010 0 0.020-0.090-0.21-0.27-0.47-0.48-0.66-0.12-0.11-0.25-0.21-0.39-0.26s-0.31-0.060-0.45 0.060c-0.11 0.090-0.19 0.19-0.2 0.3-0.020 0.11 0.030 0.2 0.040 0.24 0 0 0 0.010 0 0.020 0 0 0 0 0 0 0 0.010-0.010 0.030-0.020 0.040 0-0.010 0-0.020-0.010-0.030v0s0 0 0 0v0c-0.020-0.090-0.050-0.17-0.090-0.26-0.040-0.080-0.090-0.18-0.16-0.25-0.080-0.080-0.19-0.12-0.33-0.1-0.12 0.020-0.24 0.1-0.36 0.21-0.26 0.25-0.42 0.51-0.48 0.76 0-0.060 0-0.12 0-0.18-0.010-0.21-0.050-0.42-0.14-0.57-0.040-0.080-0.11-0.15-0.2-0.2s-0.2-0.050-0.3-0.020c-0.17 0.050-0.29 0.15-0.38 0.27-0.030-0.11-0.080-0.23-0.14-0.32-0.040-0.060-0.13-0.13-0.25-0.13s-0.2 0.090-0.25 0.17c-0.1 0.15-0.18 0.32-0.24 0.48-0.040 0.1-0.070 0.2-0.080 0.3-0.030-0.040-0.050-0.080-0.090-0.11-0.060-0.050-0.14-0.080-0.23-0.080-0.080 0-0.16 0.030-0.24 0.070-0.27 0.16-0.54 0.48-0.73 0.81-0.2 0.32-0.35 0.69-0.35 0.97 0 0.21-0.040 0.42-0.1 0.55v0s0-0.010 0-0.010v0c-0.1-0.17-0.2-0.35-0.27-0.55-0.070-0.19-0.090-0.38-0.030-0.57 0.050-0.16 0.050-0.33 0.040-0.48 0.010 0.010 0.020 0.020 0.040 0.030 0.090 0.040 0.19 0.040 0.29 0 0.17-0.050 0.34-0.16 0.44-0.28 0.050-0.060 0.1-0.14 0.1-0.23 0-0.11-0.060-0.2-0.15-0.25-0.060-0.030-0.13-0.060-0.19-0.080 0 0 0 0 0 0 0.1-0.090 0.18-0.19 0.22-0.28 0.030-0.060 0.050-0.13 0.040-0.21 0-0.040-0.010-0.090-0.050-0.14s-0.1-0.070-0.16-0.070c-0.040 0-0.080 0.010-0.11 0.020s-0.070 0.030-0.11 0.050c-0.070 0.040-0.15 0.090-0.23 0.16-0.14 0.13-0.3 0.34-0.3 0.59 0 0.080 0 0.16 0 0.24-0.030-0.030-0.080-0.070-0.14-0.080-0.080-0.010-0.15 0.020-0.2 0.070-0.050 0.040-0.080 0.1-0.1 0.16-0.040 0.090-0.080 0.2-0.13 0.32 0-0.020 0-0.050 0-0.070s-0.030-0.060-0.050-0.090c0.020-0.020 0.040-0.040 0.040-0.050 0.030-0.040 0.050-0.080 0.060-0.12 0.030-0.080 0.050-0.19 0.060-0.3 0-0.11 0-0.23-0.020-0.33-0.030-0.1-0.090-0.23-0.22-0.28-0.090-0.040-0.21-0.050-0.33-0.050s-0.25 0.020-0.36 0.050c-0.11 0.030-0.23 0.080-0.32 0.16s-0.17 0.21-0.12 0.36c0.040 0.13 0.13 0.25 0.2 0.35 0.080 0.11 0.14 0.2 0.16 0.27 0.010 0.040 0.010 0.060 0 0.090 0 0.020-0.020 0.050-0.050 0.090-0.13 0.16-0.42 0.42-0.69 0.66-0.14 0.12-0.27 0.23-0.37 0.31-0.11 0.090-0.18 0.14-0.2 0.16-0.010 0-0.030 0.020-0.060 0.030v0s0 0 0 0c-0.080 0.050-0.23 0.14-0.32 0.21-0.020 0.020-0.050 0.040-0.070 0.070-0.020 0.020-0.050 0.070-0.060 0.13 0 0.040 0 0.080 0.040 0.12 0.030 0.030 0.060 0.050 0.080 0.060 0.040 0.020 0.090 0.020 0.13 0.020 0.080 0 0.18 0 0.29 0.010v0c0.12 0 0.25 0.020 0.36 0.020s0.24 0 0.34-0.040c0.050-0.020 0.1-0.050 0.14-0.080-0.050 0.1-0.1 0.21-0.13 0.29-0.030 0.1-0.020 0.2 0.020 0.28 0.030 0.080 0.090 0.15 0.14 0.21 0.11 0.12 0.25 0.22 0.35 0.28 0.18 0.11 0.35 0.040 0.47-0.040s0.24-0.2 0.34-0.3c0.060-0.070 0.12-0.15 0.11-0.25 0-0.1-0.070-0.17-0.12-0.2-0.050-0.040-0.1-0.060-0.13-0.070-0.020 0-0.030-0.010-0.050-0.010 0 0-0.010 0-0.010 0s0 0 0 0 0 0 0 0 0 0 0 0 0 0 0 0 0 0 0 0t-0.030 0.16v0l0.030-0.16h-0.040s-0.040 0-0.040 0l-0.22 0.080s-0.030-0.020-0.040-0.060c0 0 0-0.020 0-0.050s0.020-0.070 0.040-0.12c0-0.030 0.020-0.060 0.030-0.090 0-0.030 0.020-0.070 0.020-0.12s-0.020-0.12-0.080-0.17c-0.050-0.040-0.12-0.050-0.17-0.050s-0.090 0.010-0.12 0.030c0.020-0.020 0.030-0.040 0.050-0.060 0.18-0.21 0.36-0.41 0.5-0.52 0.13-0.090 0.22-0.21 0.29-0.34-0.070 0.33-0.080 0.71 0.090 1.050 0.030 0.070 0.070 0.14 0.1 0.21v0s0 0 0 0c0 0 0 0 0 0v0s0 0 0 0c0.12 0.25 0.23 0.5 0.38 0.68 0.080 0.090 0.17 0.17 0.28 0.23 0.11 0.050 0.24 0.070 0.38 0.050 0.16-0.020 0.29-0.11 0.4-0.22 0.1-0.11 0.18-0.24 0.25-0.37 0.13-0.26 0.2-0.55 0.24-0.69v0-0.040s0.030-0.060 0.050-0.090c0 0.070 0 0.15-0.010 0.24h0.16s-0.16 0-0.16 0c0 0.1-0.020 0.21-0.020 0.3s0 0.19 0.020 0.26c0.030 0.1 0.12 0.39 0.3 0.62 0.090 0.12 0.2 0.24 0.35 0.31s0.33 0.090 0.53 0.030c0.38-0.12 0.62-0.39 0.79-0.58 0.080-0.090 0.13-0.15 0.18-0.18 0.020-0.020 0.030-0.020 0.040-0.020 0 0 0 0 0 0 0.010 0 0.050 0.020 0.1 0.080 0.050 0.050 0.1 0.11 0.16 0.19 0.090 0.12 0.2 0.26 0.33 0.36 0.13 0.11 0.3 0.19 0.51 0.15 0.23-0.040 0.41-0.18 0.55-0.33s0.26-0.32 0.34-0.44c0.030-0.050 0.050-0.070 0.070-0.1 0 0 0 0 0 0 0.020 0.040 0.050 0.080 0.090 0.13 0.080 0.1 0.21 0.19 0.36 0.21 0.16 0.020 0.33-0.050 0.44-0.22 0.1-0.14 0.21-0.42 0.25-0.64 0-0.030 0-0.060 0.010-0.090 0.090 0.16 0.19 0.33 0.28 0.49 0.1 0.18 0.2 0.34 0.28 0.47 0.040 0.060 0.080 0.12 0.11 0.16s0.060 0.080 0.1 0.11c-0.030-0.020-0.040-0.050-0.030-0.030 0 0 0 0.030 0.020 0.050 0.010 0.060 0.030 0.14 0.040 0.24 0.030 0.2 0.050 0.47 0.080 0.77 0.040 0.52 0.070 1.11 0.090 1.53-0.060 0-0.13 0-0.22 0-0.52 0-0.94 0.060-1.27 0.1-0.18 0.030-0.33 0.050-0.46 0.050s-0.23 0-0.3-0.020c-0.080-0.030-0.16-0.040-0.25-0.050 0.080-0.020 0.16-0.050 0.25-0.070 0.29-0.070 0.65-0.16 0.92-0.34 0.14-0.090 0.26-0.21 0.34-0.37s0.12-0.35 0.1-0.57c-0.020-0.25-0.040-0.46-0.070-0.65-0.030-0.18-0.090-0.35-0.17-0.48-0.080-0.14-0.2-0.23-0.36-0.29-0.15-0.050-0.33-0.050-0.52-0.010-0.41 0.070-0.69 0.28-0.87 0.55-0.17 0.27-0.23 0.59-0.23 0.89 0 0.12 0 0.2-0.010 0.25 0 0.030 0 0.050-0.010 0.060 0 0 0 0 0 0.010-0.010 0-0.030 0-0.090 0.010-0.040 0-0.090 0-0.14 0.020-0.030 0-0.060 0-0.1 0.020v0s0 0 0 0v0s0 0 0 0v0c-0.38 0.050-1.24 0.16-1.79 0.96-0.040 0.060-0.060 0.080-0.090 0.11 0 0 0 0 0 0-0.040-0.21-0.020-0.56 0-0.82v0s0 0 0 0v0c0-0.090 0-0.17 0-0.21 0-0.33-0.12-0.61-0.33-1.11v0l-0.020-0.040c-0.050-0.12-0.11-0.26-0.18-0.38-0.060-0.12-0.13-0.24-0.22-0.32-0.080-0.090-0.21-0.17-0.36-0.14-0.14 0.030-0.26 0.14-0.35 0.29-0.15 0.23-0.18 0.47-0.16 0.71-0.030-0.070-0.050-0.14-0.090-0.2-0.060-0.12-0.14-0.24-0.24-0.33s-0.24-0.15-0.4-0.12c-0.15 0.030-0.29 0.13-0.43 0.28-0.050 0.060-0.090 0.11-0.13 0.16-0.030-0.040-0.070-0.080-0.13-0.090-0.050-0.010-0.11 0-0.14 0.010-0.040 0.010-0.070 0.030-0.11 0.060l-0.040 0.020-0.020 0.040 0.14 0.080q-0.14-0.080-0.14-0.080v0s0 0 0 0c0 0 0 0 0 0s0 0 0 0 0 0.010-0.010 0.020-0.030 0.050-0.050 0.080c-0.040 0.070-0.1 0.15-0.16 0.22s-0.11 0.11-0.14 0.13c-0.010-0.020-0.030-0.060-0.050-0.090-0.050-0.080-0.11-0.19-0.19-0.28-0.070-0.090-0.18-0.2-0.3-0.24-0.070-0.020-0.14-0.030-0.23 0-0.080 0.030-0.14 0.080-0.19 0.15v0.020s-0.020 0.020-0.020 0.020v0s0 0 0 0c0 0 0 0 0 0s0 0 0 0 0 0.020-0.010 0.030-0.030 0.070-0.050 0.11c-0.040 0.090-0.090 0.21-0.15 0.32-0.030 0.060-0.060 0.1-0.090 0.14 0-0.070-0.020-0.14-0.040-0.22-0.020-0.1-0.060-0.21-0.13-0.3-0.040-0.040-0.090-0.090-0.15-0.11-0.070-0.020-0.15-0.020-0.21 0v0h-0.040s-0.020 0.040-0.020 0.040v0 0s0 0 0 0v0s0 0 0 0c0 0-0.020 0.020-0.030 0.030-0.010 0-0.030 0.020-0.040 0.020 0 0 0 0 0 0s0 0 0-0.010c-0.020-0.040-0.060-0.14-0.070-0.33v-0.020s0-0.020 0-0.020h-0.040s0.040 0 0.040 0c0 0 0 0 0 0s0 0 0 0 0 0 0 0 0-0.010 0-0.020-0.010-0.040-0.020-0.080-0.040-0.16-0.060-0.27c-0.050-0.22-0.12-0.52-0.18-0.81-0.060-0.3-0.1-0.58-0.12-0.8 0-0.080 0-0.12 0-0.16 0.060 0.010 0.13 0.020 0.2 0.020 0.090-0.010 0.21-0.050 0.28-0.18 0.050-0.11 0.050-0.24 0-0.38v0s0 0 0 0c0 0 0 0 0 0s0 0 0-0.010 0-0.030 0-0.050c0-0.050 0-0.11-0.020-0.19-0.020-0.15-0.040-0.36-0.090-0.57-0.040-0.2-0.11-0.41-0.2-0.57-0.090-0.15-0.25-0.32-0.48-0.27l0.040 0.16q-0.1-0.13-0.1-0.13v0s0 0 0 0c0 0 0 0 0 0s0 0 0 0 0 0 0 0-0.020 0.010-0.030 0.020c-0.020 0.020-0.050 0.040-0.090 0.080-0.080 0.060-0.18 0.15-0.28 0.25s-0.2 0.21-0.27 0.32c-0.040 0.060-0.070 0.12-0.090 0.18 0 0.010 0 0.030 0 0.040-0.040-0.040-0.070-0.080-0.12-0.11-0.090-0.060-0.21-0.11-0.33-0.090-0.050 0-0.090 0.030-0.13 0.050 0.070-0.070 0.13-0.14 0.17-0.22 0.060-0.11 0.1-0.22 0.12-0.31 0-0.040 0.010-0.1 0-0.15 0-0.030-0.020-0.060-0.050-0.1-0.040-0.040-0.090-0.070-0.14-0.070-0.060 0-0.16 0-0.25 0.050-0.030 0.010-0.050 0.040-0.080 0.070-0.010-0.020-0.020-0.040-0.040-0.060-0.050-0.040-0.11-0.050-0.16-0.050-0.030 0-0.050 0.020-0.070 0.030-0.070-0.070-0.16-0.1-0.26-0.1-0.13 0-0.22 0.020-0.29 0.060-0.040 0.020-0.060 0.050-0.080 0.090 0 0.020-0.010 0.030-0.020 0.050 0 0 0 0.010 0 0.020 0 0 0 0 0 0v0s0 0 0 0c0 0 0 0 0 0s0 0 0 0 0 0.020 0 0.030c0 0.020 0 0.060 0 0.1 0 0.080 0 0.19 0.040 0.3 0.030 0.11 0.080 0.23 0.17 0.33 0.1 0.1 0.23 0.17 0.41 0.17 0.16 0 0.29-0.060 0.41-0.14-0.020 0.020-0.040 0.040-0.060 0.060-0.040 0.070-0.080 0.13-0.11 0.18v0s0 0 0 0v0s0 0 0 0c-0.070 0.11-0.15 0.22-0.17 0.35-0.010 0.070-0.010 0.14 0 0.21-0.030-0.15-0.1-0.3-0.25-0.42v0c-0.080-0.060-0.16-0.13-0.23-0.18s-0.16-0.1-0.24-0.12c-0.040-0.010-0.1-0.020-0.15 0-0.060 0.010-0.1 0.050-0.13 0.090 0-0.070-0.010-0.13-0.020-0.21-0.020-0.16-0.050-0.33-0.090-0.47-0.020-0.070-0.050-0.14-0.090-0.19-0.040-0.060-0.11-0.12-0.21-0.13h-0.030s-0.020 0-0.020 0l0.030 0.16q-0.030-0.16-0.030-0.16s0 0 0 0c0 0 0 0 0 0s0 0 0 0 0 0 0 0 0 0 0 0-0.010 0-0.020 0c-0.010 0-0.030 0-0.060 0.020-0.050 0.020-0.11 0.040-0.17 0.080-0.12 0.070-0.27 0.21-0.3 0.43 0 0 0 0 0 0v0s0 0 0 0c0 0 0 0 0 0s0 0 0 0 0 0 0 0 0 0.010 0 0.020 0 0.050-0.010 0.080c-0.010 0.070-0.020 0.16-0.020 0.28 0 0.1 0 0.23 0.030 0.36-0.040-0.020-0.070-0.050-0.12-0.060-0.080 0-0.16 0.010-0.23 0.050v0s0 0.010 0 0.010l0.1 0.13q-0.1-0.13-0.1-0.13s0 0 0 0c0 0 0 0 0 0s0 0 0 0 0 0 0 0 0 0 0 0-0.010 0.010-0.030 0.020c-0.020 0.020-0.050 0.040-0.090 0.070-0.070 0.060-0.17 0.15-0.27 0.26-0.19 0.21-0.4 0.53-0.41 0.89 0 0 0 0 0 0v0s0 0 0 0c0 0 0 0 0 0s0 0 0 0.010 0 0.030 0 0.040c0 0.040 0 0.090 0 0.16 0 0.13-0.020 0.29-0.040 0.44 0 0.010 0 0.020 0 0.040-0.010-0.020-0.020-0.040-0.030-0.070-0.080-0.18-0.16-0.43-0.17-0.72-0.010-0.33-0.090-0.54-0.2-0.66-0.050-0.060-0.11-0.1-0.15-0.12-0.020-0.010-0.040-0.020-0.060-0.020 0 0-0.020 0-0.020 0s0 0 0 0 0 0 0 0 0 0 0 0 0 0 0 0v0s0 0-0.020 0.16q-0.16-0.030-0.16-0.030s0 0 0 0c0 0 0 0 0 0s0 0 0 0 0 0 0 0 0 0.010 0 0.020 0 0.050-0.010 0.080c0 0.070-0.020 0.17-0.030 0.29-0.030 0.24-0.050 0.56-0.060 0.89 0 0.33 0.010 0.67 0.080 0.96 0.030 0.14 0.080 0.28 0.15 0.39s0.16 0.21 0.29 0.26c0.2 0.080 0.39 0.080 0.55 0 0.15-0.080 0.26-0.21 0.32-0.35 0.090-0.19 0.13-0.41 0.15-0.61 0 0.020 0.010 0.040 0.020 0.070l0.16-0.030q-0.14 0.080-0.14 0.080v0s0 0 0 0c0 0 0 0 0 0s0 0 0 0 0 0 0 0 0 0.020 0.020 0.030c0.010 0.020 0.030 0.060 0.060 0.1 0.050 0.080 0.12 0.2 0.2 0.32 0.15 0.23 0.35 0.5 0.54 0.68 0 0 0 0.010 0 0.020 0 0.030 0.020 0.070 0.040 0.12-0.020 0-0.040-0.010-0.060-0.020-0.010 0-0.030 0-0.030 0s0 0 0 0-0.010 0-0.020 0-0.050 0-0.080 0c-0.070 0-0.16 0-0.27 0.030-0.23 0.050-0.53 0.18-0.88 0.49-0.33 0.29-0.67 0.63-0.88 0.87-0.050 0.060-0.1 0.12-0.13 0.17s-0.070 0.1-0.080 0.16c0 0.030-0.010 0.090 0.020 0.15 0.040 0.070 0.11 0.090 0.15 0.090s0.080 0 0.11-0.010c0.030 0 0.060-0.020 0.090-0.040 0.15-0.070 0.31-0.15 0.47-0.23 0.34-0.17 0.68-0.34 0.95-0.42 0.23-0.070 0.52-0.21 0.72-0.36 0.040-0.030 0.080-0.070 0.12-0.1 0.020 0.090 0.050 0.19 0.070 0.27 0.040 0.17 0.060 0.29 0.050 0.34v0s0 0 0 0c0 0 0 0 0 0s0 0.010 0 0.020 0 0.050 0 0.080c0 0.020 0 0.060 0 0.080 0-0.030-0.010-0.060-0.030-0.080-0.030-0.060-0.080-0.11-0.15-0.14-0.060-0.030-0.13-0.040-0.18-0.030-0.1 0.010-0.19 0.070-0.24 0.11-0.030 0.020-0.050 0.040-0.070 0.060 0 0-0.020 0.010-0.020 0.020 0 0 0 0 0 0v0s0 0 0 0c0 0 0 0 0 0s0 0 0 0t0.12 0.11l-0.12-0.11-0.020 0.020v0.030s0 0 0 0c0 0-0.010 0-0.010 0t0 0s0 0 0 0c0 0 0 0 0 0s0 0 0 0 0 0 0 0 0 0.010 0 0.020c0 0.010-0.010 0.040-0.020 0.060-0.020 0.050-0.040 0.13-0.060 0.22-0.030 0.15-0.050 0.36-0.050 0.59-0.040-0.020-0.090-0.040-0.15-0.040-0.15 0-0.26 0.080-0.34 0.18s-0.13 0.23-0.17 0.37c-0.080 0.29-0.11 0.66-0.070 1.040 0.040 0.4 0.24 0.91 0.65 1.29 0.41 0.39 1.010 0.63 1.81 0.49 0.78-0.14 1.59-0.55 2.19-1.060zM19.66 8.53s0 0 0 0l-0.080 0.050s0.090-0.050 0.090-0.050zM27.88 13.87v0 0zM30.18 9.18v0s0.020 0 0.020 0v0s-0.020 0-0.020 0v0zM30.18 9.18v0s0 0 0 0zM28.5 15.48v0s0 0 0 0v0zM28.49 15.46v0s0.010 0.010 0.010 0.010v0s-0.010-0.010-0.010-0.010zM30.18 9.18v0s0 0 0 0v0s0.12-0.010 0.12-0.010v0s-0.13 0.010-0.13 0.010zM30.090 8.69v0s0 0 0 0v0zM30.090 8.69v0s0 0 0 0v0s0 0 0 0zM24.67 6.12v0s0 0 0 0v0s0 0 0 0zM24.68 6.12v0s0 0 0 0v0zM24.69 6.11v0s0 0 0 0v0s0 0 0 0zM22.28 7.070c0.060 0.17 0.11 0.41 0.14 0.63 0.010 0.11 0.010 0.21 0 0.29 0 0.090-0.020 0.14-0.030 0.16l0.15 0.070s-0.14-0.070-0.14-0.070v0s-0.010 0.020-0.010 0.020v0s0.080 0.040 0.080 0.040l0.060 0.030-0.15-0.070c-0.060 0.12-0.16 0.31-0.27 0.45-0.060 0.070-0.11 0.11-0.15 0.13-0.030 0.010-0.050 0.010-0.080 0-0.13-0.080-0.25-0.25-0.33-0.48s-0.1-0.49-0.030-0.74c0.040-0.16 0.070-0.35 0.070-0.54 0.020 0 0.030 0.020 0.050 0.030 0.060 0 0.12-0.020 0.16-0.040s0.080-0.060 0.11-0.1c0.1-0.11 0.2-0.23 0.28-0.35 0 0.21 0.040 0.4 0.090 0.54zM20.47 8.25v0s0 0 0 0v0zM25.9 7.87v0s0 0 0 0v0zM17.91 13.68v0s0 0 0 0v0s0 0 0 0zM25.030 10.91v0s0 0 0 0.010c-0.010 0-0.020 0-0.040 0-0.040 0-0.070 0-0.1-0.020 0.040-0.020 0.090-0.040 0.15-0.070 0 0.020 0 0.040 0 0.070zM25.2 10.92v0zM21.93 13.44s0.030 0 0.050 0c0.050 0 0.12 0 0.19 0 0.16 0 0.31-0.010 0.42-0.030 0.050 0 0.1-0.010 0.13-0.020 0 0 0.010 0 0.020 0s0.030 0 0.050 0c0.050 0 0.11 0.010 0.19 0.020 0.15 0.010 0.34 0.030 0.52 0.030 0.020 0 0.020 0 0.030 0 0 0.010 0 0.020-0.030 0.040-0.040 0.040-0.1 0.080-0.19 0.12-0.19 0.090-0.32 0.18-0.4 0.29s-0.1 0.23-0.13 0.34c0 0.020 0 0.040-0.010 0.060-0.020 0.070-0.030 0.12-0.040 0.17s-0.030 0.070-0.040 0.080c0 0 0 0-0.010 0s-0.040 0-0.1-0.020c-0.020 0-0.070-0.040-0.13-0.11s-0.12-0.17-0.18-0.27c-0.12-0.22-0.22-0.47-0.29-0.65v0s-0.1 0.040-0.1 0.040l0.1-0.040-0.020-0.050s0-0.020 0-0.030zM21.49 11.64v0s0 0 0 0v0zM23.56 11.57v0s0 0 0 0v0s0 0 0 0v0s0 0 0 0v0zM21.49 11.64v0s0 0 0 0v0zM20.26 11.19c0.060 0.1 0.13 0.2 0.19 0.25 0 0 0 0 0 0 0 0.010 0.020 0.030 0.040 0.060 0.030 0.050 0.070 0.13 0.11 0.22 0.080 0.19 0.17 0.43 0.23 0.7 0.12 0.55 0.11 1.13-0.23 1.5-0.39 0.42-0.85 0.84-1.25 1.12-0.2 0.14-0.38 0.24-0.52 0.29-0.15 0.050-0.19 0.020-0.2 0.020-0.080-0.070-0.14-0.13-0.19-0.18s-0.070-0.090-0.080-0.11c0-0.010 0-0.010 0-0.020s0.030-0.050 0.11-0.1c0.040-0.030 0.12-0.070 0.24-0.12 0.28-0.14 0.73-0.35 1.070-0.68 0.35-0.34 0.61-0.81 0.49-1.45-0.13-0.72-0.26-1.14-0.34-1.37 0-0.030-0.010-0.040-0.020-0.060 0.010 0 0.020 0 0.040 0 0.060 0 0.14-0.030 0.19-0.11 0.030-0.040 0.040-0.090 0.040-0.14 0.020 0.050 0.040 0.12 0.070 0.16zM11.68 8.39c0.050 0.22 0.080 0.43 0.090 0.58 0 0.070 0 0.1 0 0.13h-0.020s0 0.010 0 0.010c0 0 0 0 0 0v0s0 0 0 0c0 0 0 0 0 0s-0.020 0.010-0.040 0.020c-0.030 0.020-0.060 0.020-0.080 0.020 0 0 0 0 0 0 0-0.010-0.030-0.070-0.020-0.18 0-0.020 0.010-0.030 0.020-0.060 0.020-0.060 0.040-0.15 0.060-0.25 0.010-0.080 0.010-0.18 0.010-0.27v0zM12.87 10.55c0-0.15 0-0.28 0.010-0.39 0.010-0.12 0.030-0.18 0.050-0.22 0-0.010 0.010-0.010 0-0.010 0 0 0 0 0.010 0 0.040 0 0.12 0.040 0.26 0.16 0.15 0.12 0.27 0.22 0.37 0.29 0.030 0.020 0.050 0.030 0.080 0.040-0.050 0.030-0.1 0.070-0.14 0.12-0.19 0.2-0.41 0.46-0.55 0.73-0.040 0.090-0.080 0.18-0.11 0.27v-1zM14.82 9.48s0-0.030 0-0.040c0.060 0.29 0.13 0.56 0.19 0.74v0s0 0 0 0c0 0 0 0 0 0s0 0 0 0 0 0.020 0 0.030 0.020 0.070 0.030 0.12c0.020 0.1 0.050 0.23 0.070 0.35 0 0.020 0 0.030 0 0.040 0 0 0 0 0 0-0.13-0.11-0.34-0.23-0.61-0.29 0 0 0 0 0 0-0.020-0.010-0.040-0.020-0.070-0.040-0.040-0.020-0.11-0.050-0.18-0.070 0.080-0.060 0.16-0.14 0.27-0.24 0.17-0.16 0.25-0.39 0.29-0.61zM13.85 11.48v0zM13.9 11.5s0.050 0.020 0.080 0.040c0.070 0.050 0.090 0.080 0.090 0.11 0 0 0 0-0.020 0-0.060 0-0.15-0.040-0.23-0.11 0.020-0.020 0.060-0.030 0.090-0.050zM13.95 11.48v0s0 0 0 0v0zM15.070 13.070s0 0.040 0 0.050c0 0 0 0 0 0 0 0.010-0.020 0.040-0.030 0.070 0.010-0.040 0.030-0.090 0.040-0.13zM12.65 13.35c0.15-0.080 0.23-0.24 0.23-0.46v-0.81s0.010 0.070 0.030 0.1c0.13 0.27 0.32 0.47 0.53 0.57 0.2 0.1 0.45 0.12 0.62-0.050v0s0 0 0 0v0s0 0 0 0c0 0 0.010-0.010 0.020-0.020 0.020-0.020 0.050-0.040 0.080-0.070 0.060-0.050 0.13-0.11 0.2-0.16-0.080 0.23-0.23 0.54-0.43 0.81-0.26 0.35-0.56 0.58-0.87 0.55-0.41-0.030-0.67-0.080-0.84-0.21-0.030-0.020-0.050-0.050-0.070-0.070 0-0.030 0.010-0.070 0.020-0.11 0.030 0 0.060 0 0.11 0 0.090 0 0.24 0 0.37-0.060zM12.39 15.17v0s0.070 0 0.070 0v0c0.31 0 0.75 0.020 1.17-0.12 0.090-0.030 0.18-0.070 0.27-0.12-0.060 0.060-0.12 0.13-0.19 0.18-0.27 0.21-0.57 0.33-0.87 0.32-0.65-0.030-1.010-0.36-1.21-0.69-0.020-0.030-0.030-0.050-0.040-0.080 0.080 0.11 0.17 0.21 0.27 0.29 0.15 0.12 0.34 0.21 0.54 0.21zM15.86 13.37v0s0 0 0 0zM10.18 9.21l-0.1 0.070c0.060-0.040 0.080-0.060 0.1-0.070v0zM11.68 10.62v0 0zM18.75 13.45v0s0 0 0 0v0s0 0 0 0v0zM17.91 13.68v0s0 0 0 0zM17.9 13.68v0s0 0 0 0v0s0 0 0 0zM25.25 14v0s0 0 0 0zM25.25 14.010v0s0-0.010 0-0.010v0s0 0.010 0 0.010zM23.39 6.79c0.030 0.15 0.080 0.29 0.2 0.4 0.13 0.13 0.3 0.36 0.41 0.59 0.050 0.12 0.090 0.22 0.1 0.31s0 0.15-0.030 0.18c-0.1 0.14-0.23 0.25-0.34 0.29-0.050 0.020-0.090 0.020-0.12 0.010-0.020 0-0.050-0.020-0.090-0.080-0.18-0.31-0.28-0.65-0.21-1.080 0.030-0.15 0.060-0.38 0.070-0.64zM18.060 6.42s0 0 0 0c0 0 0 0 0 0s0 0 0 0 0 0 0 0zM16.51 8.6v0 0s0 0 0 0zM18.83 8.59h0.020s0 0 0 0h-0.020s0 0 0 0zM20.46 8.29v0s0 0 0 0zM25.69 8.1v0s-0.020 0-0.020 0c-0.16 0.060-0.33 0.13-0.48 0.14-0.070 0-0.12 0-0.16-0.010-0.030-0.010-0.060-0.030-0.080-0.070-0.080-0.16-0.23-0.48-0.33-0.76-0.050-0.13-0.080-0.24-0.090-0.32 0.1 0 0.21-0.010 0.32-0.050 0.080-0.030 0.15-0.080 0.2-0.17 0.020 0.030 0.050 0.060 0.070 0.1 0.19 0.27 0.41 0.62 0.48 0.73 0.030 0.050 0.080 0.14 0.15 0.27l0.14-0.080s0 0 0 0l-0.14 0.080s0 0 0 0v0s0.050 0.090 0.070 0.12c-0.050 0-0.1 0-0.13 0.020zM23.55 11.52v0s0 0 0 0v0s0 0 0 0zM23.55 11.55v0.020s0 0 0 0v0-0.030s0 0 0 0zM21.53 11.64v0s0 0 0 0v0s0 0 0 0zM17.14 10.36v0s-0.080-0.030-0.1-0.040l0.1 0.040zM16.54 11.11v0zM15.87 7.34v0s0 0 0 0v0zM13.46 7.62c0.040 0.090 0.090 0.18 0.14 0.26v0s0 0 0 0c0.080 0.16 0.16 0.31 0.22 0.45s0.090 0.25 0.090 0.32c0 0.040 0 0.090 0 0.14v0c0 0.070 0 0.14 0 0.21 0 0.040 0 0.060-0.010 0.080 0 0 0 0-0.010 0-0.34-0.26-0.51-0.52-0.51-0.88 0-0.090 0-0.18 0.010-0.27 0-0.16 0.020-0.34 0-0.5 0.020 0.060 0.040 0.13 0.070 0.2zM10.31 8.29v0s0 0 0 0v0z"></path>
<path fill="#fff" d="M15.21 5.67l-0.030 0.020 0.1 0.13-0.030-0.16-0.040 0.010z"></path>
<path fill="#fff" d="M11.75 9.11v0 0 0 0 0z"></path>
<path fill="#fff" d="M15.41 15.56l-0.010 0.010 0.11 0.12-0.1-0.13z"></path>
<path fill="#fff" d="M33.59 21.98c-0.1-0.080-0.2-0.14-0.3-0.18-0.090-0.040-0.19-0.060-0.29-0.040-0.14 0.040-0.34 0.040-0.56 0.020s-0.44-0.060-0.62-0.090c-0.070-0.020-0.14-0.030-0.19-0.040 0.010-0.010 0.030-0.030 0.040-0.040 0.060-0.070 0.1-0.16 0.1-0.28 0-0.090-0.020-0.17-0.060-0.24-0.040-0.060-0.1-0.1-0.17-0.13-0.12-0.060-0.27-0.070-0.39-0.070-0.3 0-0.46 0.25-0.46 0.44 0 0.070 0.020 0.13 0.050 0.18h-0.28c-0.94-0.010-3.020-0.040-4.98-0.050-0.99-0.010-1.94-0.010-2.71 0-0.76 0.010-1.35 0.020-1.6 0.050-0.55 0.070-2.22 0.1-3.97 0.060s-3.55-0.15-4.38-0.35c-0.040-0.010-0.090 0-0.13 0.020-0.040 0.010-0.070 0.040-0.1 0.070-0.040 0.060-0.060 0.15-0.080 0.23-0.030 0.17-0.030 0.4-0.010 0.63 0.020 0.24 0.050 0.5 0.1 0.72 0.050 0.21 0.11 0.41 0.19 0.52 0.040 0.070 0.11 0.13 0.19 0.18 0.090 0.060 0.19 0.11 0.3 0.16 0.23 0.090 0.52 0.18 0.82 0.26 0.59 0.16 1.24 0.28 1.58 0.33 0.29 0.040 1 0.030 1.9-0.010 0.9-0.030 2.020-0.1 3.17-0.16 0.37-0.020 0.75-0.040 1.13-0.060 1.99-0.11 4.9 0.080 6.43 0.18 0.49 0.030 0.84 0.050 0.97 0.050 0.12 0 0.19 0 0.23 0.030 0.050 0.010 0.050 0.020 0.060 0.030 0 0 0.010 0.040 0 0.090 0 0.050-0.010 0.11-0.030 0.19 0 0.030 0 0.060-0.020 0.090-0.030 0.12-0.010 0.26 0.020 0.39 0.030 0.14 0.090 0.28 0.15 0.42 0.060 0.13 0.13 0.26 0.2 0.36 0.030 0.040 0.070 0.090 0.1 0.12 0.040 0.040 0.070 0.070 0.12 0.090 0.040 0.020 0.1 0.020 0.15 0.030 0.060 0 0.14 0.010 0.22 0 0.18 0 0.39-0.010 0.62-0.030 0.47-0.050 1.010-0.14 1.4-0.29 0.21-0.080 0.32-0.11 0.38-0.12h0.060s0.030 0.010 0.060 0.030c0.050 0.020 0.11 0.040 0.2 0.060s0.22 0.040 0.39 0.040c0.16 0 0.29-0.060 0.38-0.16 0.1-0.090 0.16-0.22 0.19-0.35 0.080-0.27 0.090-0.6 0.1-0.85 0.010-0.15 0.010-0.26 0.030-0.34 0.010 0.010 0.020 0.030 0.030 0.050 0.060 0.1 0.11 0.23 0.17 0.36 0.050 0.1 0.090 0.2 0.14 0.28 0.020 0.040 0.040 0.080 0.060 0.11s0.040 0.060 0.080 0.090c0.010 0.010 0.040 0.020 0.070 0.030 0.030 0 0.060 0 0.090-0.020 0.050-0.030 0.070-0.090 0.080-0.12 0.020-0.080 0.030-0.21 0.030-0.4 0-0.64-0.37-1.37-0.79-1.91-0.22-0.27-0.45-0.51-0.66-0.66zM33.020 24.080s-0.050 0.080-0.12 0.13c-0.070 0.050-0.15 0.090-0.22 0.12-0.080 0.030-0.14 0.050-0.16 0.050-0.050 0-0.090-0.030-0.16-0.090s-0.17-0.15-0.31-0.15c-0.080 0-0.16 0.030-0.21 0.070-0.060 0.030-0.11 0.070-0.15 0.11-0.030 0.020-0.050 0.040-0.060 0.050 0 0-0.010 0-0.030-0.010-0.030-0.010-0.060-0.040-0.11-0.060-0.080-0.050-0.19-0.11-0.3-0.16-0.070-0.030-0.15-0.060-0.23-0.070 0.070-0.070 0.16-0.18 0.26-0.31 0.090-0.11 0.17-0.18 0.22-0.22 0.060-0.040 0.1-0.050 0.12-0.050 0.010 0 0.030 0 0.060 0.020s0.050 0.050 0.090 0.090c0.060 0.080 0.17 0.2 0.34 0.2 0.16 0 0.33 0 0.51 0.030 0.17 0.030 0.32 0.080 0.44 0.18 0.020 0.020 0.020 0.030 0.020 0.040 0.010 0 0.010 0.010 0 0.030z"></path>
</svg>
