<!-- Generated by IcoMoon.io -->
<svg version="1.1" xmlns="http://www.w3.org/2000/svg" width="48" height="32" viewBox="0 0 48 32">
<title>si</title>
<path fill="#f0f0f0" d="M0 0h48v32h-48v-32z"></path>
<path fill="#0052b4" d="M0 10.667h48v10.667h-48v-10.667z"></path>
<path fill="#d80027" d="M0 21.333h48v10.667h-48v-10.667z"></path>
<path fill="#f0f0f0" d="M21.899 10.434v1.392c0 3.2-4.174 4.174-4.174 4.174s-4.174-0.978-4.174-4.174v-1.392l-0.014-4.142 8.35-0.025z"></path>
<path fill="#0052b4" d="M21.899 10.434v1.392c0 3.2-4.174 4.174-4.174 4.174s-4.174-0.978-4.174-4.174v-1.392l-0.014-4.142 8.35-0.025z"></path>
<path fill="#f0f0f0" d="M21.899 10.434v1.392c0 3.2-4.174 4.174-4.174 4.174s-4.174-0.978-4.174-4.174v-1.392l1.392 1.392 2.782-2.087 2.784 2.087z"></path>
</svg>
