<?xml version="1.0" encoding="iso-8859-1"?>
<!-- Generator: Adobe Illustrator 27.5.0, SVG Export Plug-In . SVG Version: 6.00 Build 0)  -->
<svg version="1.1"
	 id="svg3769" xmlns:cc="http://creativecommons.org/ns#" xmlns:svg="http://www.w3.org/2000/svg" xmlns:rdf="http://www.w3.org/1999/02/22-rdf-syntax-ns#" xmlns:sodipodi="http://sodipodi.sourceforge.net/DTD/sodipodi-0.dtd" xmlns:dc="http://purl.org/dc/elements/1.1/" xmlns:inkscape="http://www.inkscape.org/namespaces/inkscape" inkscape:version="0.91 r13725" sodipodi:docname="booking.com.svg"
	 xmlns="http://www.w3.org/2000/svg" xmlns:xlink="http://www.w3.org/1999/xlink" x="0px" y="0px" viewBox="0 0 117.872 20"
	 style="enable-background:new 0 0 117.872 20;" xml:space="preserve">
<sodipodi:namedview  bordercolor="#666666" borderopacity="1.0" fit-margin-bottom="0" fit-margin-left="0" fit-margin-right="0" fit-margin-top="0" id="base" inkscape:current-layer="layer1" inkscape:cx="59.04975" inkscape:cy="9.8114313" inkscape:document-units="px" inkscape:pageopacity="0.0" inkscape:pageshadow="2" inkscape:window-height="744" inkscape:window-maximized="1" inkscape:window-width="1280" inkscape:window-x="-4" inkscape:window-y="-4" inkscape:zoom="7.6630299" pagecolor="#ffffff" showgrid="false" units="px">
	</sodipodi:namedview>
<g id="layer1" transform="translate(-358.09311,-676.33649)" inkscape:groupmode="layer" inkscape:label="Layer 1">
	<g id="g3358" transform="matrix(1.25,0,0,-1.25,-378.53164,712.40679)">
		<g>
			<defs>
				<rect id="SVGID_1_" x="577.513" y="10.856" width="117.872" height="20"/>
			</defs>
			<clipPath id="SVGID_00000033337365355223518480000013164014934227947963_">
				<use xlink:href="#SVGID_1_"  style="overflow:visible;"/>
			</clipPath>
			<g id="g3360" style="clip-path:url(#SVGID_00000033337365355223518480000013164014934227947963_);">
				<g>
					<defs>
						<rect id="SVGID_00000074428978638523848480000010807935093393829299_" x="577.513" y="10.856" width="117.872" height="20"/>
					</defs>
					<clipPath id="SVGID_00000173148309082696022560000004251433498856994699_">
						<use xlink:href="#SVGID_00000074428978638523848480000010807935093393829299_"  style="overflow:visible;"/>
					</clipPath>
					<g id="g3366" style="clip-path:url(#SVGID_00000173148309082696022560000004251433498856994699_);">
						<path id="path3372" inkscape:connector-curvature="0" style="fill:#273B7D;" d="M626.279,27.105
							c0,0.794,0.641,1.437,1.43,1.437c0.792,0,1.435-0.642,1.435-1.437c0-0.793-0.643-1.436-1.435-1.436
							C626.92,25.668,626.279,26.312,626.279,27.105"/>
						<path id="path3374" inkscape:connector-curvature="0" style="fill:#499FDD;" d="M648.887,17.549
							c0,0.795,0.641,1.438,1.43,1.438c0.792,0,1.435-0.643,1.435-1.438c0-0.793-0.643-1.436-1.435-1.436
							C649.528,16.113,648.887,16.757,648.887,17.549"/>
						<path id="path3376" inkscape:connector-curvature="0" style="fill:#273B7D;" d="M602.763,18.17
							c-1.234,0-2.092,0.98-2.092,2.381c0,1.4,0.858,2.38,2.092,2.38c1.241,0,2.108-0.979,2.108-2.38
							C604.871,19.128,604.022,18.17,602.763,18.17z M602.763,25.023c-2.611,0-4.506-1.881-4.506-4.472s1.895-4.471,4.506-4.471
							c2.621,0,4.523,1.881,4.523,4.471S605.383,25.023,602.763,25.023"/>
						<path id="path3378" inkscape:connector-curvature="0" style="fill:#273B7D;" d="M623.504,20.327
							c-0.102,0.191-0.218,0.353-0.342,0.481l-0.079,0.084l0.083,0.08c0.12,0.126,0.242,0.276,0.361,0.45l2.304,3.425h-2.797
							l-1.731-2.679c-0.098-0.144-0.296-0.216-0.592-0.216h-0.395v5.065c0,1.013-0.631,1.151-1.313,1.151h-1.167l0.002-11.956h2.478
							v3.586h0.232c0.283,0,0.475-0.033,0.563-0.186l1.367-2.58c0.382-0.7,0.762-0.82,1.478-0.82h1.899l-1.414,2.34L623.504,20.327"
							/>
						<path id="path3380" inkscape:connector-curvature="0" style="fill:#273B7D;" d="M635.535,25.042
							c-1.261,0-2.065-0.56-2.516-1.034l-0.151-0.152l-0.053,0.207c-0.132,0.507-0.579,0.786-1.25,0.786h-1.111l0.007-8.635h2.461
							v3.98c0,0.389,0.051,0.727,0.154,1.035c0.274,0.932,1.038,1.512,1.994,1.512c0.768,0,1.069-0.405,1.069-1.453v-3.761
							c0-0.894,0.414-1.313,1.309-1.313h1.171l-0.004,5.492C638.615,23.888,637.551,25.042,635.535,25.042"/>
						<path id="path3382" inkscape:connector-curvature="0" style="fill:#273B7D;" d="M627.742,24.846h-1.167l0.008-6.677h-0.001
							v-1.957h1.245c0.016,0,0.028-0.002,0.044-0.002l0.58,0.002h0.577v0.003h0.004l0.005,7.319
							C629.038,24.418,628.616,24.846,627.742,24.846"/>
						<path id="path3384" inkscape:connector-curvature="0" style="fill:#273B7D;" d="M612.431,18.17
							c-1.234,0-2.093,0.98-2.093,2.381c0,1.4,0.859,2.38,2.093,2.38c1.239,0,2.108-0.979,2.108-2.38
							C614.539,19.128,613.69,18.17,612.431,18.17z M612.431,25.023c-2.613,0-4.509-1.881-4.509-4.472s1.895-4.471,4.509-4.471
							c2.618,0,4.524,1.881,4.524,4.471S615.049,25.023,612.431,25.023"/>
					</g>
				</g>
			</g>
		</g>
	</g>
	<g id="g3386" transform="matrix(1.25,0,0,-1.25,-378.53164,712.40679)">
		<g>
			<defs>
				<rect id="SVGID_00000080191118702517083720000010915409146314397084_" x="577.513" y="10.856" width="117.872" height="20"/>
			</defs>
			<clipPath id="SVGID_00000073706977732564590440000017834250588952190860_">
				<use xlink:href="#SVGID_00000080191118702517083720000010915409146314397084_"  style="overflow:visible;"/>
			</clipPath>
			<g id="g3388" style="clip-path:url(#SVGID_00000073706977732564590440000017834250588952190860_);">
				<g>
					<defs>
						
							<rect id="SVGID_00000097461655161166733820000004229614549062548158_" x="577.515" y="10.919" width="117.847" height="19.581"/>
					</defs>
					<clipPath id="SVGID_00000065033430643894995170000008321052144188052120_">
						<use xlink:href="#SVGID_00000097461655161166733820000004229614549062548158_"  style="overflow:visible;"/>
					</clipPath>
					<g id="g3394" style="clip-path:url(#SVGID_00000065033430643894995170000008321052144188052120_);">
						<g>
							<defs>
								
									<rect id="SVGID_00000106849651117370314470000008876249661143019938_" x="577.513" y="10.856" width="117.872" height="20"/>
							</defs>
							<clipPath id="SVGID_00000111189558096319932830000012055772177994329512_">
								<use xlink:href="#SVGID_00000106849651117370314470000008876249661143019938_"  style="overflow:visible;"/>
							</clipPath>
							<g id="g3400" style="clip-path:url(#SVGID_00000111189558096319932830000012055772177994329512_);">
								<path id="path3406" inkscape:connector-curvature="0" style="fill:#499FDD;" d="M665.192,18.17
									c-1.233,0-2.093,0.98-2.093,2.381c0,1.4,0.86,2.38,2.093,2.38c1.239,0,2.109-0.979,2.109-2.38
									C667.301,19.128,666.452,18.17,665.192,18.17z M665.192,25.023c-2.613,0-4.508-1.881-4.508-4.472s1.895-4.471,4.508-4.471
									c2.618,0,4.523,1.881,4.523,4.471S667.811,25.023,665.192,25.023"/>
								<path id="path3408" inkscape:connector-curvature="0" style="fill:#273B7D;" d="M643.805,18.55
									c-1.346,0-1.825,1.174-1.825,2.274c0,0.485,0.123,2.065,1.695,2.065c0.782,0,1.823-0.224,1.823-2.146
									C645.499,18.93,644.577,18.55,643.805,18.55z M646.777,24.869c-0.467,0-0.827-0.186-1.007-0.526l-0.068-0.132l-0.114,0.099
									c-0.397,0.344-1.11,0.752-2.267,0.752c-2.302,0-3.851-1.729-3.851-4.301c0-2.57,1.603-4.365,3.898-4.365
									c0.784,0,1.403,0.183,1.894,0.555l0.19,0.143v-0.24c0-1.153-0.746-1.79-2.098-1.79c-0.657,0-1.255,0.16-1.655,0.305
									c-0.522,0.158-0.828,0.027-1.04-0.497l-0.195-0.483l-0.276-0.706l0.171-0.091c0.865-0.459,1.992-0.733,3.01-0.733
									c2.096,0,4.544,1.073,4.544,4.093l0.009,7.92L646.777,24.869"/>
							</g>
						</g>
					</g>
				</g>
			</g>
		</g>
	</g>
	<g id="g3410" transform="matrix(1.25,0,0,-1.25,-378.53164,712.40679)">
		<g>
			<defs>
				<rect id="SVGID_00000139973229760273278510000001678359325117207687_" x="577.513" y="10.856" width="117.872" height="20"/>
			</defs>
			<clipPath id="SVGID_00000103976611358654893250000005993416103521101246_">
				<use xlink:href="#SVGID_00000139973229760273278510000001678359325117207687_"  style="overflow:visible;"/>
			</clipPath>
			<g id="g3412" style="clip-path:url(#SVGID_00000103976611358654893250000005993416103521101246_);">
				<g>
					<defs>
						<rect id="SVGID_00000132046143029855947540000006696523136443145908_" x="577.513" y="10.856" width="117.872" height="20"/>
					</defs>
					<clipPath id="SVGID_00000156551664353453486500000016851047996016403888_">
						<use xlink:href="#SVGID_00000132046143029855947540000006696523136443145908_"  style="overflow:visible;"/>
					</clipPath>
					<g id="g3418" style="clip-path:url(#SVGID_00000156551664353453486500000016851047996016403888_);">
						<path id="path3424" inkscape:connector-curvature="0" style="fill:#273B7D;" d="M593.596,18.269l-2.004,0.002v2.396
							c0,0.512,0.198,0.778,0.637,0.839h1.366c0.975,0,1.605-0.615,1.606-1.61C595.201,18.875,594.587,18.27,593.596,18.269
							L593.596,18.269z M591.592,24.732v0.63c0,0.552,0.234,0.814,0.746,0.848h1.025c0.879,0,1.406-0.526,1.406-1.407
							c0-0.671-0.361-1.455-1.374-1.455h-1.804L591.592,24.732L591.592,24.732z M596.155,22.341l-0.362,0.204l0.316,0.27
							c0.368,0.316,0.984,1.027,0.984,2.255c0,1.879-1.458,3.092-3.714,3.092h-2.575v0.001h-0.293
							c-0.669-0.025-1.204-0.569-1.211-1.242V16.255h1.182c0.003-0.001,0.004,0,0.005-0.001l2.944,0.001
							c2.508,0,4.127,1.365,4.127,3.479C597.557,20.873,597.034,21.846,596.155,22.341"/>
						<path id="path3426" inkscape:connector-curvature="0" style="fill:#499FDD;" d="M680.711,25.014
							c-1.021,0-2.009-0.478-2.642-1.28l-0.178-0.226l-0.14,0.253c-0.456,0.831-1.241,1.253-2.332,1.253
							c-1.144,0-1.911-0.638-2.268-1.018l-0.233-0.253l-0.09,0.332c-0.13,0.478-0.556,0.742-1.201,0.742h-1.035l-0.01-8.602h2.351
							v3.797c0,0.333,0.041,0.662,0.125,1.006c0.225,0.917,0.841,1.904,1.878,1.806c0.639-0.061,0.951-0.555,0.951-1.509v-5.099
							h2.367v3.797c0,0.416,0.039,0.727,0.133,1.039c0.191,0.876,0.834,1.774,1.834,1.774c0.724,0,0.991-0.41,0.991-1.511v-3.842
							c0-0.869,0.388-1.258,1.256-1.258h1.106l0.002,5.491C683.577,23.901,682.611,25.014,680.711,25.014"/>
						<path id="path3428" inkscape:connector-curvature="0" style="fill:#499FDD;" d="M659.323,19.202
							c-0.007-0.008-1.018-1.075-2.35-1.075c-1.213,0-2.439,0.745-2.439,2.406c0,1.435,0.95,2.438,2.311,2.438
							c0.442,0,0.944-0.158,1.023-0.425l0.012-0.045c0.181-0.604,0.73-0.636,0.838-0.636l1.288-0.001v1.126
							c0,1.485-1.889,2.023-3.16,2.023c-2.718,0-4.69-1.892-4.69-4.498c0-2.605,1.951-4.495,4.64-4.495
							c2.334,0,3.603,1.534,3.615,1.549l0.068,0.083l-1.02,1.692L659.323,19.202"/>
					</g>
				</g>
			</g>
		</g>
	</g>
</g>
</svg>
