<svg xmlns="http://www.w3.org/2000/svg" width="104.86" height="104" viewBox="0 0 104.86 104">
  <g id="Group_50271" data-name="Group 50271" transform="translate(-427 -454)">
    <circle id="Ellipse_585" data-name="Ellipse 585" cx="52" cy="52" r="52" transform="translate(427 454)" fill="#fff"/>
    <g id="Group_50267" data-name="Group 50267" transform="translate(119.668 329.435)">
      <path id="Rectangle_3401" data-name="Rectangle 3401" d="M16.48,0H41.748A16.484,16.484,0,0,1,58.232,16.484V85.275A16.484,16.484,0,0,1,41.748,101.76H16.484A16.484,16.484,0,0,1,0,85.275V16.48A16.48,16.48,0,0,1,16.48,0Z" transform="translate(319.334 125.565)" fill="none" stroke="#252668" stroke-linecap="round" stroke-linejoin="round" stroke-width="1.5"/>
      <path id="Path_6884" data-name="Path 6884" d="M319.334,252.193a8.235,8.235,0,0,0,8.235,8.235h41.763a8.235,8.235,0,0,0,8.235-8.235v-4.866H319.334Z" transform="translate(0 -33.104)" fill="#aecbfa"/>
      <path id="Path_6885" data-name="Path 6885" d="M319.334,252.193a8.235,8.235,0,0,0,8.235,8.235h41.763a8.235,8.235,0,0,0,8.235-8.235v-4.866H319.334Z" transform="translate(0 -33.104)" fill="none" stroke="#252668" stroke-linecap="round" stroke-linejoin="round" stroke-width="1.5"/>
      <path id="Path_6886" data-name="Path 6886" d="M377.567,133.8a8.235,8.235,0,0,0-8.235-8.235H327.569a8.235,8.235,0,0,0-8.235,8.235v4.866h58.233Z" transform="translate(0 0)" fill="#aecbfa" stroke="#252668" stroke-linecap="round" stroke-linejoin="round" stroke-width="1.5"/>
      <path id="Path_6887" data-name="Path 6887" d="M377.567,133.8a8.235,8.235,0,0,0-8.235-8.235H327.569a8.235,8.235,0,0,0-8.235,8.235v4.866h58.233Z" transform="translate(0 0)" fill="none" stroke="#252668" stroke-linecap="round" stroke-linejoin="round" stroke-width="1.5"/>
      <g id="Group_22813" data-name="Group 22813" transform="translate(338.031 130.645)">
        <rect id="Rectangle_3402" data-name="Rectangle 3402" width="20.587" height="2.941" fill="#fff"/>
        <rect id="Rectangle_3403" data-name="Rectangle 3403" width="20.587" height="2.941" fill="none" stroke="#252668" stroke-linecap="round" stroke-linejoin="round" stroke-width="1.5"/>
      </g>
      <circle id="Ellipse_431" data-name="Ellipse 431" cx="2.5" cy="2.5" r="2.5" transform="translate(345.677 218.501)" fill="#fff"/>
      <circle id="Ellipse_432" data-name="Ellipse 432" cx="2.5" cy="2.5" r="2.5" transform="translate(345.677 218.501)" fill="none" stroke="#252668" stroke-linecap="round" stroke-linejoin="round" stroke-width="1.5"/>
      <path id="Union_2" data-name="Union 2" d="M355.93,177.061l-.008,9.11,3.309,2.485v2.487l-5.8-1.662-5.8,1.65.005-2.483,3.316-2.481.007-9.11-13.256,4.125v-3.307l6.947-4.332v-1.505a1.734,1.734,0,0,1,1.735-1.734h0a1.737,1.737,0,0,1,1.628,1.137l2.942-1.838.008-9.109a2.481,2.481,0,0,1,2.479-2.483h.007a2.48,2.48,0,0,1,2.482,2.476v.012l-.008,9.11,2.762,1.729a1.738,1.738,0,0,1,3.32.715h0v1.358l7.171,4.492v3.312Z" transform="translate(-4.996 -8.821)" fill="#aecbfa" stroke="#252668" stroke-linecap="round" stroke-linejoin="round" stroke-width="1.5"/>
      <path id="Path_6888" data-name="Path 6888" d="M393.554,152.68v25.66l-5.05-5.926a5.888,5.888,0,0,0-8.275-.66h0a5.887,5.887,0,0,0-.66,8.275l11.49,13.48s-3.429,14.472,5.61,22.741h25.556l-2.266-31.089c-.272-2.871-2.042-5.3-3.842-7.308Z" transform="translate(-15.997 -7.372)" fill="#fff"/>
      <line id="Line_1023" data-name="Line 1023" x2="9.591" y2="11.251" transform="translate(377.558 170.968)" fill="none" stroke="#252668" stroke-linecap="round" stroke-linejoin="round" stroke-width="1.5"/>
      <path id="Rectangle_3404" data-name="Rectangle 3404" d="M4.2,0H35.524a4.2,4.2,0,0,1,4.2,4.2V18.445a0,0,0,0,1,0,0H0a0,0,0,0,1,0,0V4.2A4.2,4.2,0,0,1,4.2,0Z" transform="translate(371.715 208.879)" fill="#ff6a73" stroke="#252668" stroke-linecap="round" stroke-linejoin="round" stroke-width="1.5"/>
      <rect id="Rectangle_3405" data-name="Rectangle 3405" width="29.26" height="8.381" rx="4.19" transform="translate(333.82 192.229)" fill="#ff6a73" stroke="#252668" stroke-linecap="round" stroke-linejoin="round" stroke-width="1.5"/>
      <path id="Path_6889" data-name="Path 6889" d="M393.554,152.68v25.66l-5.05-5.926a5.888,5.888,0,0,0-8.275-.66h0a5.887,5.887,0,0,0-.66,8.275l11.49,13.48s-3.429,14.472,5.61,22.741h25.556l-2.266-31.089c-.272-2.871-2.042-5.3-3.842-7.308Z" transform="translate(-15.997 -7.372)" fill="none" stroke="#252668" stroke-linecap="round" stroke-linejoin="round" stroke-width="1.5"/>
    </g>
  </g>
</svg>
